<svg width="192" height="256" fill="none" xmlns="http://www.w3.org/2000/svg"><path fill-rule="evenodd" clip-rule="evenodd" d="M131.008 18.929c1.944 2.413 2.935 5.67 4.917 12.181l43.309 142.27a180.277 180.277 0 00-51.778-17.53L99.258 60.56a3.67 3.67 0 00-7.042.01l-27.857 95.232a180.225 180.225 0 00-52.01 17.557l43.52-142.281c1.99-6.502 2.983-9.752 4.927-12.16a15.999 15.999 0 016.484-4.798c2.872-1.154 6.271-1.154 13.07-1.154h31.085c6.807 0 10.211 0 13.086 1.157a16.004 16.004 0 016.487 4.806z" fill="url(#paint0_linear)"/><path fill-rule="evenodd" clip-rule="evenodd" d="M136.19 180.151c-7.139 6.105-21.39 10.268-37.804 10.268-20.147 0-37.033-6.272-41.513-14.707-1.602 4.835-1.961 10.367-1.961 13.902 0 0-1.056 17.355 11.015 29.426 0-6.268 5.081-11.349 11.35-11.349 10.742 0 10.73 9.373 10.72 16.977v.679c0 11.542 7.054 21.436 17.086 25.606a23.27 23.27 0 01-2.339-10.2c0-11.008 6.463-15.107 13.974-19.87 5.976-3.79 12.616-8.001 17.192-16.449a31.024 31.024 0 003.743-14.82c0-3.299-.513-6.479-1.463-9.463z" fill="#FF5D01"/><path fill-rule="evenodd" clip-rule="evenodd" d="M136.19 180.151c-7.139 6.105-21.39 10.268-37.804 10.268-20.147 0-37.033-6.272-41.513-14.707-1.602 4.835-1.961 10.367-1.961 13.902 0 0-1.056 17.355 11.015 29.426 0-6.268 5.081-11.349 11.35-11.349 10.742 0 10.73 9.373 10.72 16.977v.679c0 11.542 7.054 21.436 17.086 25.606a23.27 23.27 0 01-2.339-10.2c0-11.008 6.463-15.107 13.974-19.87 5.976-3.79 12.616-8.001 17.192-16.449a31.024 31.024 0 003.743-14.82c0-3.299-.513-6.479-1.463-9.463z" fill="url(#paint1_linear)"/><defs><linearGradient id="paint0_linear" x1="144.599" y1="5.423" x2="95.791" y2="173.38" gradientUnits="userSpaceOnUse"><stop stop-color="#fff"/><stop offset="1" stop-color="#F9FAFB"/></linearGradient><linearGradient id="paint1_linear" x1="168.336" y1="130.49" x2="126.065" y2="218.982" gradientUnits="userSpaceOnUse"><stop stop-color="#FF1639"/><stop offset="1" stop-color="#FF1639" stop-opacity="0"/></linearGradient></defs></svg>