<svg width="192" height="256" viewBox="0 0 192 256" fill="none"
    xmlns="http://www.w3.org/2000/svg">
    <path fill-rule="evenodd" clip-rule="evenodd" d="M131.008 18.9288C132.952 21.3419 133.943 24.5981 135.925 31.1105L179.234 173.38C163.221 165.074 145.814 159.083 127.456 155.85L99.258 60.5596C98.7966 59.0005 97.3645 57.9308 95.7386 57.9308C94.1084 57.9308 92.6736 59.006 92.2159 60.5706L64.3591 155.802C45.9158 159.02 28.4293 165.022 12.3483 173.359L55.8695 31.0776L55.8695 31.0776C57.8581 24.5764 58.8524 21.3257 60.7964 18.9171C62.5125 16.7906 64.7447 15.1392 67.2801 14.1201C70.152 12.9657 73.5513 12.9657 80.3499 12.9657H111.435C118.242 12.9657 121.646 12.9657 124.521 14.1225C127.058 15.1437 129.292 16.7985 131.008 18.9288Z" fill="url(#paint0_linear)"/>
    <path fill-rule="evenodd" clip-rule="evenodd" d="M136.19 180.151C129.051 186.256 114.8 190.419 98.3859 190.419C78.2394 190.419 61.3534 184.147 56.8727 175.712C55.2709 180.547 54.9116 186.079 54.9116 189.614C54.9116 189.614 53.8563 206.969 65.9272 219.04C65.9272 212.772 71.0083 207.691 77.2762 207.691C88.0194 207.691 88.0073 217.064 87.9975 224.668C87.9972 224.896 87.9969 225.122 87.9969 225.347C87.9969 236.889 95.051 246.783 105.083 250.953C103.585 247.871 102.744 244.41 102.744 240.753C102.744 229.745 109.207 225.646 116.718 220.883L116.718 220.883C122.694 217.093 129.334 212.882 133.91 204.434C136.297 200.027 137.653 194.979 137.653 189.614C137.653 186.315 137.14 183.135 136.19 180.151Z" fill="#FF5D01"/>
    <path fill-rule="evenodd" clip-rule="evenodd" d="M136.19 180.151C129.051 186.256 114.8 190.419 98.3859 190.419C78.2394 190.419 61.3534 184.147 56.8727 175.712C55.2709 180.547 54.9116 186.079 54.9116 189.614C54.9116 189.614 53.8563 206.969 65.9272 219.04C65.9272 212.772 71.0083 207.691 77.2762 207.691C88.0194 207.691 88.0073 217.064 87.9975 224.668C87.9972 224.896 87.9969 225.122 87.9969 225.347C87.9969 236.889 95.051 246.783 105.083 250.953C103.585 247.871 102.744 244.41 102.744 240.753C102.744 229.745 109.207 225.646 116.718 220.883L116.718 220.883C122.694 217.093 129.334 212.882 133.91 204.434C136.297 200.027 137.653 194.979 137.653 189.614C137.653 186.315 137.14 183.135 136.19 180.151Z" fill="url(#paint1_linear)"/>
    <defs>
        <linearGradient id="paint0_linear" x1="144.599" y1="5.42267" x2="95.7911" y2="173.38" gradientUnits="userSpaceOnUse">
            <stop stop-color="#000014"/>
            <stop offset="1" stop-color="#150426"/>
        </linearGradient>
        <linearGradient id="paint1_linear" x1="168.336" y1="130.49" x2="126.065" y2="218.982" gradientUnits="userSpaceOnUse">
            <stop stop-color="#FF1639"/>
            <stop offset="1" stop-color="#FF1639" stop-opacity="0"/>
        </linearGradient>
    </defs>
</svg>
