<?xml version="1.0" encoding="iso-8859-1"?>
<!-- Generator: Adobe Illustrator 19.0.0, SVG Export Plug-In . SVG Version: 6.00 Build 0)  -->
<svg version="1.1" id="Capa_1" xmlns="http://www.w3.org/2000/svg" xmlns:xlink="http://www.w3.org/1999/xlink" x="0px" y="0px"
	 viewBox="0 0 480 480" style="enable-background:new 0 0 480 480;" xml:space="preserve">
<g>
	<g>
		<path fill="#E994A0" d="M479.744,398.008L408,118.992V8c0-4.418-3.582-8-8-8H80c-4.418,0-8,3.582-8,8v110.992L0.256,398.008
			C0.087,398.659,0.001,399.328,0,400v72c0,4.418,3.582,8,8,8h464c4.418,0,8-3.582,8-8v-72
			C479.999,399.328,479.913,398.659,479.744,398.008z M88,16h304v96h-16V80c0-4.418-3.582-8-8-8H256c-4.418,0-8,3.582-8,8v32h-16V80
			c0-4.418-3.582-8-8-8H112c-4.418,0-8,3.582-8,8v32H88V16z M360,88v56h-96V88H360z M216,88v56h-96V88H216z M86.2,128H104v24
			c0,4.418,3.582,8,8,8h112c4.418,0,8-3.582,8-8v-24h16v24c0,4.418,3.582,8,8,8h112c4.418,0,8-3.582,8-8v-24h17.8l16.456,64H69.744
			L86.2,128z M65.6,208h348.8l4.112,16H61.52L65.6,208z M464,464H16v-62.992L57.4,240h365.2L464,401.008V464z"/>
	</g>
</g>
<g>
	<g>
		<rect fill="#E994A0" x="264" y="392" width="184" height="16"/>
	</g>
</g>
<g>
	<g>
		<rect fill="#E994A0" x="232" y="392" width="16" height="16"/>
	</g>
</g>
<g>
	<g>
		<rect fill="#E994A0" x="32" y="392" width="184" height="16"/>
	</g>
</g>
<g>
</g>
<g>
</g>
<g>
</g>
<g>
</g>
<g>
</g>
<g>
</g>
<g>
</g>
<g>
</g>
<g>
</g>
<g>
</g>
<g>
</g>
<g>
</g>
<g>
</g>
<g>
</g>
<g>
</g>
</svg>
