<?xml version="1.0"?>
<svg xmlns="http://www.w3.org/2000/svg" width="512" height="512" viewBox="0 0 512 512"><path fill="#E994A0"  d="M496,344h-8V280a32.042,32.042,0,0,0-32-32V112a32.042,32.042,0,0,0-32-32H88a32.042,32.042,0,0,0-32,32V248a32.042,32.042,0,0,0-32,32v64H16a8,8,0,0,0-8,8v32a8,8,0,0,0,8,8h8v32a8,8,0,0,0,8,8H56a7.99,7.99,0,0,0,7.84-6.43L70.56,392H441.44l6.72,33.57A7.99,7.99,0,0,0,456,432h24a8,8,0,0,0,8-8V392h8a8,8,0,0,0,8-8V352A8,8,0,0,0,496,344ZM72,112A16.021,16.021,0,0,1,88,96H424a16.021,16.021,0,0,1,16,16V248H424V216a32.042,32.042,0,0,0-32-32H296a32.042,32.042,0,0,0-32,32v32H248V216a32.042,32.042,0,0,0-32-32H120a32.042,32.042,0,0,0-32,32v32H72ZM408,216v32H280V216a16.021,16.021,0,0,1,16-16h96A16.021,16.021,0,0,1,408,216Zm-176,0v32H104V216a16.021,16.021,0,0,1,16-16h96A16.021,16.021,0,0,1,232,216ZM40,280a16.021,16.021,0,0,1,16-16H456a16.021,16.021,0,0,1,16,16v64H40Zm9.44,136H40V392H54.24ZM472,416h-9.44l-4.8-24H472Zm16-40H24V360H488Z"/></svg>
