<svg width="49" height="48" viewBox="0 0 49 48" fill="none" xmlns="http://www.w3.org/2000/svg">
<g clip-path="url(#clip0)">
<path d="M48.216 27.8883C47.5434 26.9486 46.4229 26.3171 45.292 26.2402C44.3688 26.178 43.5323 26.4898 42.9372 27.1198C42.8066 27.258 42.6657 27.4097 42.5166 27.5723C41.8582 26.9691 40.9954 26.581 40.1256 26.5219C39.2021 26.46 38.3658 26.7716 37.7708 27.4015C36.4754 28.7727 34.1817 31.4513 32.3804 33.5838C32.1455 33.4448 31.8941 33.3303 31.6282 33.2443C30.7672 32.8735 18.8981 27.8045 13.637 27.8045C5.13846 27.8045 1.23412 32.3725 1.07212 32.5669C0.823588 32.8652 0.8639 33.3076 1.16137 33.557C1.45894 33.8064 1.90294 33.7673 2.15325 33.4705C2.16225 33.4599 3.07435 32.3919 4.93736 31.3396C6.6545 30.3698 9.55776 29.2135 13.6369 29.2135C18.6914 29.2135 30.9783 34.4984 31.1018 34.5518C31.3277 34.6492 31.5606 34.7237 31.7669 34.8613C31.9616 34.9913 32.1359 35.1517 32.282 35.3346C32.5656 35.69 32.7433 36.1297 32.7806 36.5832C32.8591 37.5335 32.3257 38.4516 31.4648 38.8574C30.9219 39.1134 30.348 39.1211 29.7776 38.9648L22.0904 36.8476C21.7203 36.7456 21.326 36.9698 21.2241 37.3397C21.1222 37.7098 21.3461 38.1041 21.7162 38.206L29.3927 40.3202C30.3254 40.608 31.3446 40.5138 32.2088 40.0606C33.0866 39.6004 33.7327 38.8258 34.0278 37.8797C34.1242 37.5711 34.1785 37.2562 34.1932 36.9415L36.255 36.7243C36.4375 36.7051 36.6053 36.6155 36.7227 36.4745C36.7735 36.4135 41.829 30.3443 43.9615 28.0872C44.8478 27.1486 46.4303 27.8139 47.0704 28.7081C48.0546 30.0831 46.8315 31.5842 46.4332 32.0116C44.4761 34.1114 40.8872 38.4377 40.2421 39.2175L25.6355 46.5208L18.1204 43.3565C17.7666 43.2076 17.3467 43.3785 17.1977 43.7325C17.0487 44.0863 17.2197 44.5061 17.5735 44.6551L25.3874 47.9451C25.5753 48.0243 25.7937 48.0171 25.9759 47.9259L41.0055 40.4111C41.0935 40.3671 41.1712 40.3052 41.2338 40.2293C41.2751 40.1793 45.3831 35.2049 47.4641 32.9721C48.9958 31.3289 49.2842 29.3806 48.216 27.8883ZM35.8233 35.3532L33.9876 35.5465C33.8574 35.1781 33.6697 34.8319 33.4331 34.5211C34.9675 32.7048 37.4609 29.7814 38.7949 28.3694C39.1803 27.9613 39.6791 27.9035 40.0299 27.928C40.5822 27.9656 41.1485 28.2261 41.5744 28.6202C39.4607 31.0063 36.583 34.4432 35.8233 35.3532Z" fill="#FD3D57"/>
<path d="M14.6616 41.9007L11.6559 40.6351C11.5693 40.5986 11.4763 40.5798 11.3824 40.5798H1.6131C1.22404 40.5798 0.908569 40.8952 0.908569 41.2844C0.908569 41.6735 1.22404 41.9889 1.6131 41.9889H11.2401L14.1146 43.1992C14.4928 43.3585 14.9361 43.1515 15.0599 42.7617C15.1687 42.4195 14.9922 42.0398 14.6616 41.9007Z" fill="#FD3D57"/>
<path d="M38.3374 23.4908L35.3374 23.9194C37.7769 21.3057 39.1415 17.8817 39.1415 14.2311C39.1415 6.38413 32.7573 0 24.9103 0C17.0632 0 10.6792 6.38413 10.6792 14.2311C10.6792 17.3798 11.6866 20.3636 13.5926 22.8598C15.4372 25.2757 18.0529 27.0678 20.9581 27.9061C21.3424 28.0168 21.7504 27.7751 21.84 27.3862C21.923 27.0267 21.7026 26.6545 21.3486 26.5522C15.8962 24.9791 12.0881 19.9123 12.0881 14.231C12.0881 7.16085 17.8402 1.40888 24.9103 1.40888C31.9805 1.40888 37.7325 7.16085 37.7325 14.231C37.7325 17.7262 36.345 20.9915 33.8811 23.3947V19.6793C33.8811 19.2901 33.5657 18.9747 33.1766 18.9747C32.7874 18.9747 32.472 19.2901 32.472 19.6793V24.9396C32.472 25.3608 32.8589 25.697 33.2762 25.6371L38.5366 24.8856C38.9166 24.8313 39.1888 24.4686 39.1344 24.0885C39.0801 23.7089 38.7169 23.4371 38.3374 23.4908Z" fill="#FD3D57"/>
<path d="M24.9103 13.5265H24.1588C23.3042 13.5265 22.6089 12.8312 22.6089 11.9766C22.6089 11.122 23.3043 10.4266 24.1588 10.4266H27.1647C27.5539 10.4266 27.8693 10.1113 27.8693 9.7221C27.8693 9.33294 27.5539 9.01757 27.1647 9.01757H25.6147V8.21909C25.6147 7.82993 25.2994 7.51456 24.9102 7.51456C24.5211 7.51456 24.2057 7.82993 24.2057 8.21909V9.01757H24.1587C22.5272 9.01757 21.1998 10.345 21.1998 11.9765C21.1998 13.6081 22.5272 14.9355 24.1587 14.9355H24.9102C25.7648 14.9355 26.4602 15.6308 26.4602 16.4854C26.4602 17.3399 25.7648 18.0352 24.9102 18.0352H21.9043C21.5152 18.0352 21.1998 18.3506 21.1998 18.7398C21.1998 19.1289 21.5152 19.4443 21.9043 19.4443H24.2057V20.2428C24.2057 20.6319 24.5211 20.9473 24.9102 20.9473C25.2994 20.9473 25.6147 20.6319 25.6147 20.2428V19.359C26.9072 19.042 27.8692 17.8743 27.8692 16.4855C27.8693 14.8539 26.5418 13.5265 24.9103 13.5265Z" fill="#FD3D57"/>
</g>
<defs>
<clipPath id="clip0">
<rect width="48" height="48" fill="white" transform="translate(0.882416)"/>
</clipPath>
</defs>
</svg>
