<?xml version="1.0" encoding="iso-8859-1"?>
<!-- Generator: Adobe Illustrator 17.1.0, SVG Export Plug-In . SVG Version: 6.00 Build 0)  -->
<!DOCTYPE svg PUBLIC "-//W3C//DTD SVG 1.1//EN" "http://www.w3.org/Graphics/SVG/1.1/DTD/svg11.dtd">
<svg version="1.1" id="Capa_1" xmlns="http://www.w3.org/2000/svg" xmlns:xlink="http://www.w3.org/1999/xlink" x="0px" y="0px"
	 viewBox="0 0 512 512" style="enable-background:new 0 0 512 512;" xml:space="preserve">
<g>
	<path fill="#E994A0" d="M512,136.144c0-10.585-6.798-19.79-16.916-22.903c-0.081-0.025-0.162-0.048-0.243-0.071L286.705,56.262
		c-20.092-6.156-41.319-6.156-61.411,0L17.159,113.17c-0.082,0.022-0.162,0.046-0.243,0.071C6.798,116.354,0,125.558,0,136.144
		c0,0.73,0.106,1.433,0.289,2.105C0.106,138.921,0,139.624,0,140.354v8c0,13.234,10.766,24,24,24h112c6.142,0,11.751-2.322,16-6.131
		c4.249,3.809,9.858,6.131,16,6.131h80v152h-80c-4.418,0-8,3.582-8,8s3.582,8,8,8h64v8c0,10.429,6.689,19.322,16,22.624v42.181
		c-18.236,3.717-32,19.878-32,39.195c0,4.418,3.582,8,8,8s8-3.582,8-8c0-10.429,6.689-19.321,16-22.624v22.624c0,4.418,3.582,8,8,8
		s8-3.582,8-8V429.73c9.311,3.302,16,12.195,16,22.624c0,4.418,3.582,8,8,8s8-3.582,8-8c0-19.317-13.764-35.479-32-39.195v-42.181
		c9.311-3.302,16-12.194,16-22.624v-8h64c4.418,0,8-3.582,8-8s-3.582-8-8-8h-80v-152h80c6.142,0,11.75-2.322,16-6.131
		c4.249,3.809,9.858,6.131,16,6.131h112c13.234,0,24-10.766,24-24v-8c0-0.73-0.106-1.433-0.289-2.105
		C511.894,137.577,512,136.874,512,136.144z M264,348.354c0,4.411-3.589,8-8,8s-8-3.589-8-8v-8h16V348.354z M149.694,116.354H66.18
		l143.414-39.212C186.294,93.195,157.356,111.526,149.694,116.354z M242.511,72.963c7.943-6.354,19.052-6.34,27.016,0.031
		c0.17,0.136,0.346,0.265,0.526,0.387l63.762,42.973h-154.36C199.68,103.304,227.942,84.618,242.511,72.963z M136,156.354H24
		c-4.411,0-8-3.589-8-8v-8c0-0.73-0.106-1.433-0.289-2.105c0.183-0.672,0.289-1.375,0.289-2.105c0-1.365,0.35-2.654,0.962-3.79H144
		v16C144,152.765,140.411,156.354,136,156.354z M344,156.354H168c-4.411,0-8-3.589-8-8v-16h192v16
		C352,152.765,348.411,156.354,344,156.354z M496,148.354c0,4.411-3.589,8-8,8H376c-4.411,0-8-3.589-8-8v-16h8c4.418,0,8-3.582,8-8
		s-3.582-8-8-8h-13.556L305.53,77.996l140.291,38.358H408c-4.418,0-8,3.582-8,8s3.582,8,8,8h87.038
		c0.613,1.135,0.962,2.425,0.962,3.79c0,0.73,0.106,1.433,0.289,2.105c-0.183,0.672-0.289,1.375-0.289,2.105V148.354z"/>
	<path fill="#E994A0" d="M160,403.692v-37.338c0-5.514-4.486-10-10-10H72v-56c0-13.234-10.766-24-24-24c-4.418,0-8,3.582-8,8s3.582,8,8,8
		c4.411,0,8,3.589,8,8v64v39.338l-7.891,47.347c-0.727,4.358,2.218,8.479,6.576,9.206c0.445,0.074,0.888,0.11,1.325,0.11
		c3.84,0,7.229-2.773,7.881-6.687l6.886-41.315h74.446l6.886,41.315c0.652,3.914,4.042,6.687,7.881,6.687
		c0.437,0,0.88-0.036,1.325-0.11c4.358-0.727,7.303-4.848,6.576-9.206L160,403.692z M144,396.354H72v-24h72V396.354z"/>
	<path fill="#E994A0" d="M464,276.354c-13.234,0-24,10.766-24,24v56h-78c-5.514,0-10,4.486-10,10v37.338l-7.891,47.347
		c-0.727,4.358,2.218,8.479,6.576,9.206c0.445,0.074,0.888,0.11,1.325,0.11c3.84,0,7.229-2.773,7.881-6.687l6.886-41.315h74.446
		l6.886,41.315c0.652,3.914,4.042,6.687,7.881,6.687c0.437,0,0.88-0.036,1.325-0.11c4.358-0.727,7.303-4.848,6.576-9.206
		L456,403.692v-39.338v-64c0-4.411,3.589-8,8-8c4.418,0,8-3.582,8-8S468.418,276.354,464,276.354z M368,372.354h72v24h-72V372.354z"
		/>
</g>
<g>
</g>
<g>
</g>
<g>
</g>
<g>
</g>
<g>
</g>
<g>
</g>
<g>
</g>
<g>
</g>
<g>
</g>
<g>
</g>
<g>
</g>
<g>
</g>
<g>
</g>
<g>
</g>
<g>
</g>
</svg>
