<svg width="18" height="18" viewBox="0 0 18 18" fill="none" xmlns="http://www.w3.org/2000/svg">
<g clip-path="url(#clip0)">
<path d="M4.80007 -7.62939e-06H13.2001C14.0281 0.000967371 14.6991 0.671992 14.7001 1.49999V16.5C14.6991 17.328 14.0281 17.999 13.2001 18H4.80007C3.97207 17.999 3.30105 17.328 3.30007 16.5V1.49999C3.30105 0.671992 3.97207 0.000967371 4.80007 -7.62939e-06ZM3.90007 16.5C3.90007 16.9971 4.30301 17.4 4.80007 17.4H13.2001C13.6971 17.4 14.1001 16.9971 14.1001 16.5V15H3.90007V16.5ZM3.90007 14.4H14.1001V2.39999H3.90007V14.4ZM3.90007 1.79999H14.1001V1.49999C14.1001 1.00293 13.6971 0.599992 13.2001 0.599992H4.80007C4.30301 0.599992 3.90007 1.00293 3.90007 1.49999V1.79999Z" fill="#E994A0"/>
<path d="M9.00003 15.3C9.49709 15.3 9.90002 15.7029 9.90002 16.2C9.90002 16.6971 9.49709 17.1 9.00003 17.1C8.50297 17.1 8.10003 16.6971 8.10003 16.2C8.10003 15.7029 8.50297 15.3 9.00003 15.3ZM9.00003 16.5C9.1657 16.5 9.30003 16.3657 9.30003 16.2C9.30003 16.0343 9.1657 15.9 9.00003 15.9C8.83435 15.9 8.70003 16.0343 8.70003 16.2C8.70003 16.3657 8.83435 16.5 9.00003 16.5Z" fill="#E994A0"/>
<path d="M8.7001 0.899988H9.3001C9.46577 0.899988 9.6001 1.03431 9.6001 1.19999C9.6001 1.36566 9.46577 1.49999 9.3001 1.49999H8.7001C8.53442 1.49999 8.40009 1.36566 8.40009 1.19999C8.40009 1.03431 8.53442 0.899988 8.7001 0.899988Z" fill="#E994A0"/>
</g>
<defs>
<clipPath id="clip0">
<rect width="18" height="18" fill="white" transform="matrix(-1 0 0 1 18 0)"/>
</clipPath>
</defs>
</svg>
