<svg height="637pt" viewBox="-20 -46 637.33396 637" width="637pt" xmlns="http://www.w3.org/2000/svg"><path fill="#E994A0" d="m587.648438 98.503906c-6.167969-.769531-11.789063 3.605469-12.558594 9.765625l-23.769532 190.148438h-87.714843l-11.589844-65.710938c-.945313-5.375-5.617187-9.296875-11.078125-9.296875h-283.75c-5.449219 0-10.117188 3.90625-11.074219 9.273438l-11.738281 65.726562h-88.191406l-23.769532-190.140625c-.769531-6.164062-6.394531-10.535156-12.558593-9.765625-6.164063.769532-10.539063 6.394532-9.7656252 12.558594l25.0000002 200c.703125 5.628906 5.488281 9.855469 11.160156 9.855469h20.054688l-23.652344 141.898437c-1.019532 6.128906 3.121094 11.921875 9.246094 12.949219 6.132812 1.019531 11.929687-3.121094 12.949218-9.25l24.269532-145.597656h51.25l-34.253907 191.769531c-.765625 4.269531.996094 8.601562 4.515625 11.125l.265625.191406c33.007813 23.65625 77.019531 25.097656 111.503907 3.644532 45.183593 21.308593 97.554687 21.207031 142.660156-.28125 20.160156 10.535156 42.503906 16.226562 65.25 16.621093.800781.015625 1.597656.019531 2.398437.019531 24.015625-.015624 47.660157-5.9375 68.847657-17.25l4.054687-2.167968c4.289063-2.296875 6.617187-7.085938 5.773437-11.875l-33.8125-191.796875h50.820313l24.265625 145.597656c.621094 4 3.34375 7.359375 7.128906 8.796875 3.789063 1.429688 8.050782.722656 11.167969-1.867188 3.113281-2.582031 4.605469-6.640624 3.894531-10.628906l-23.652344-141.898437h20.054688c5.675781 0 10.460938-4.226563 11.164062-9.855469l25-200c.769532-6.164062-3.605468-11.785156-9.765624-12.558594zm-221.085938 409.46875v-144.554687c0-6.210938-5.035156-11.25-11.25-11.25-6.210938 0-11.25 5.039062-11.25 11.25v144.238281c-38.445312 17.84375-82.800781 17.84375-121.25 0v-100.488281c0-6.210938-5.035156-11.25-11.25-11.25-6.210938 0-11.25 5.039062-11.25 11.25v101.488281c-24.6875 15.257812-55.804688 15.523438-80.746094.6875l47.039063-263.425781h264.894531l46.3125 262.625c-35.039062 17.617187-76.390625 17.40625-111.25-.570313zm0 0"/><path fill="#E994A0" d="m217.5 208.914062h150c6.214844 0 11.25-5.035156 11.25-11.25-.058594-43.257812-32.113281-79.796874-75-85.488281v-10.507812c0-6.214844-5.035156-11.25-11.25-11.25-6.210938 0-11.25 5.035156-11.25 11.25v10.507812c-42.878906 5.691407-74.941406 42.230469-75 85.488281 0 6.214844 5.039062 11.25 11.25 11.25zm75-75c30.855469.046876 57.265625 22.140626 62.75 52.5h-125.5c5.488281-30.359374 31.894531-52.453124 62.75-52.5zm0 0"/><path fill="#E994A0" d="m330 87.167969c6.214844 0 11.25-5.039063 11.25-11.25v-28.75c0-6.210938-5.035156-11.25-11.25-11.25-6.210938 0-11.25 5.039062-11.25 11.25v28.75c0 6.210937 5.039062 11.25 11.25 11.25zm0 0"/><path fill="#E994A0" d="m278.75 65.917969c6.214844 0 11.25-5.039063 11.25-11.25v-45c0-6.210938-5.035156-11.25-11.25-11.25-6.210938 0-11.25 5.039062-11.25 11.25v45c0 6.210937 5.039062 11.25 11.25 11.25zm0 0"/><path fill="#E994A0" d="m231.25 95.917969c6.214844 0 11.25-5.039063 11.25-11.25v-23.75c0-6.210938-5.035156-11.25-11.25-11.25-6.210938 0-11.25 5.039062-11.25 11.25v23.75c0 6.210937 5.039062 11.25 11.25 11.25zm0 0"/></svg>