<svg width="49" height="48" viewBox="0 0 49 48" fill="none" xmlns="http://www.w3.org/2000/svg">
<path d="M26.9288 1.50003C23.7579 1.50237 20.6317 2.24883 17.8017 3.67936C14.9717 5.10989 12.517 7.18457 10.6348 9.73655C8.75268 12.2885 7.49567 15.2466 6.9649 18.3728C6.43413 21.4991 6.64441 24.7063 7.57883 27.7364L3.26446 25.5793C3.08677 25.4921 2.88185 25.4787 2.69435 25.5421C2.50685 25.6054 2.35196 25.7402 2.26345 25.9172C2.17494 26.0942 2.15997 26.299 2.22181 26.487C2.28364 26.675 2.41728 26.8309 2.59358 26.9208L8.59358 29.9208C8.73439 29.9912 8.89378 30.0155 9.04917 29.9903C9.20456 29.965 9.34807 29.8915 9.45936 29.7802L13.9594 25.2802C14.029 25.2105 14.0843 25.1279 14.1219 25.0369C14.1596 24.9459 14.179 24.8483 14.179 24.7498C14.179 24.6513 14.1596 24.5538 14.1219 24.4628C14.0843 24.3718 14.029 24.2891 13.9594 24.2195C13.8897 24.1499 13.807 24.0946 13.716 24.0569C13.625 24.0192 13.5275 23.9998 13.429 23.9998C13.3305 23.9998 13.233 24.0192 13.142 24.0569C13.051 24.0946 12.9683 24.1499 12.8987 24.2195L9.21336 27.9048C8.52545 25.9258 8.17571 23.8452 8.17883 21.75C8.17883 11.4113 16.5901 3.00003 26.9288 3.00003C37.2676 3.00003 45.6788 11.4113 45.6788 21.75C45.6788 32.0888 37.2676 40.5 26.9288 40.5C26.7299 40.5 26.5392 40.579 26.3985 40.7197C26.2578 40.8604 26.1788 41.0511 26.1788 41.25C26.1788 41.4489 26.2578 41.6397 26.3985 41.7804C26.5392 41.921 26.7299 42 26.9288 42C30.9339 42 34.849 40.8124 38.1791 38.5873C41.5092 36.3622 44.1047 33.1996 45.6374 29.4994C47.1701 25.7992 47.5711 21.7276 46.7897 17.7995C46.0084 13.8713 44.0797 10.2631 41.2477 7.43112C39.3717 5.54484 37.1402 4.04939 34.6824 3.03131C32.2245 2.01324 29.5892 1.49277 26.9288 1.50003Z" fill="#FD3D57"/>
<path d="M17.2359 25.7871C17.2927 25.9241 17.3888 26.0412 17.5122 26.1236C17.6355 26.206 17.7805 26.25 17.9288 26.25H25.4288C25.6277 26.25 25.8185 26.171 25.9592 26.0303C26.0998 25.8897 26.1788 25.6989 26.1788 25.5C26.1788 25.3011 26.0998 25.1103 25.9592 24.9697C25.8185 24.829 25.6277 24.75 25.4288 24.75H19.7394L25.2092 19.2803C25.2788 19.2107 25.3341 19.128 25.3717 19.037C25.4094 18.946 25.4288 18.8485 25.4288 18.75C25.4288 17.0958 23.7466 15.75 21.6788 15.75C19.6111 15.75 17.9288 17.0958 17.9288 18.75C17.9288 18.9489 18.0078 19.1397 18.1485 19.2803C18.2891 19.421 18.4799 19.5 18.6788 19.5C18.8777 19.5 19.0685 19.421 19.2092 19.2803C19.3498 19.1397 19.4288 18.9489 19.4288 18.75C19.4288 17.9369 20.4591 17.25 21.6788 17.25C22.7596 17.25 23.6918 17.7895 23.89 18.4781L17.3985 24.9696C17.2936 25.0745 17.2221 25.2081 17.1932 25.3537C17.1642 25.4992 17.1791 25.65 17.2359 25.7871Z" fill="#FD3D57"/>
<path d="M40.0572 13.046C39.9471 12.8803 39.7758 12.7651 39.5808 12.7258C39.3858 12.6864 39.1831 12.7262 39.0174 12.8363C38.8517 12.9463 38.7366 13.1177 38.6972 13.3127C38.6579 13.5077 38.6976 13.7103 38.8077 13.876C39.0697 14.2703 39.3145 14.6823 39.5355 15.0999C39.6296 15.2737 39.7885 15.4032 39.9776 15.4605C40.1667 15.5177 40.3708 15.498 40.5455 15.4057C40.7201 15.3133 40.8513 15.1558 40.9105 14.9673C40.9697 14.7787 40.9521 14.5745 40.8615 14.3989C40.6173 13.9369 40.3467 13.4818 40.0572 13.046Z" fill="#FD3D57"/>
<path d="M42.0449 17.3126C42.0181 17.2171 41.9726 17.1278 41.9111 17.0499C41.8495 16.9721 41.7731 16.9072 41.6864 16.8591C41.5996 16.811 41.5041 16.7806 41.4055 16.7697C41.3068 16.7587 41.207 16.7674 41.1118 16.7954C41.0166 16.8233 40.9278 16.8698 40.8507 16.9323C40.7736 16.9947 40.7096 17.0718 40.6625 17.1592C40.6155 17.2465 40.5862 17.3424 40.5764 17.4411C40.5666 17.5399 40.5765 17.6396 40.6055 17.7345C40.739 18.1901 40.8495 18.6521 40.9367 19.1188C40.9731 19.3143 41.0858 19.4874 41.2499 19.5998C41.4139 19.7123 41.616 19.755 41.8115 19.7185C42.007 19.6821 42.1801 19.5694 42.2926 19.4054C42.405 19.2413 42.4477 19.0393 42.4113 18.8437C42.3148 18.3276 42.1925 17.8165 42.0449 17.3126Z" fill="#FD3D57"/>
<path d="M41.4847 25.4653C41.2948 25.4067 41.0893 25.426 40.9135 25.5188C40.7377 25.6117 40.606 25.7705 40.5472 25.9605C40.407 26.4142 40.2441 26.8606 40.0592 27.298C40.02 27.3889 39.9992 27.4866 39.998 27.5855C39.9967 27.6844 40.015 27.7826 40.0519 27.8744C40.0888 27.9662 40.1434 28.0498 40.2127 28.1204C40.282 28.191 40.3646 28.2472 40.4558 28.2857C40.5469 28.3243 40.6447 28.3444 40.7437 28.3449C40.8426 28.3455 40.9406 28.3265 41.0322 28.289C41.1237 28.2515 41.207 28.1962 41.2771 28.1264C41.3472 28.0566 41.4028 27.9737 41.4407 27.8823C41.6452 27.3986 41.8253 26.905 41.9804 26.4033C42.0095 26.3091 42.0197 26.2102 42.0105 26.1121C42.0013 26.014 41.9729 25.9187 41.9269 25.8316C41.8809 25.7445 41.8181 25.6673 41.7423 25.6045C41.6664 25.5416 41.5789 25.4943 41.4847 25.4653Z" fill="#FD3D57"/>
<path d="M36.8996 9.55736C36.7455 9.43304 36.5485 9.3747 36.3516 9.39506C36.1546 9.41542 35.9737 9.51283 35.8483 9.66604C35.7229 9.81925 35.6632 10.0158 35.6821 10.2129C35.7011 10.41 35.7972 10.5916 35.9496 10.7181C36.3162 11.0181 36.6714 11.3399 37.0053 11.6743C37.0749 11.744 37.1576 11.7993 37.2486 11.837C37.3396 11.8747 37.4371 11.8941 37.5356 11.8942C37.6341 11.8942 37.7316 11.8748 37.8227 11.8371C37.9137 11.7995 37.9964 11.7442 38.066 11.6746C38.1357 11.605 38.191 11.5223 38.2287 11.4313C38.2664 11.3403 38.2859 11.2428 38.2859 11.1443C38.2859 11.0458 38.2665 10.9482 38.2289 10.8572C38.1912 10.7662 38.136 10.6835 38.0663 10.6138C37.6973 10.2444 37.3049 9.88904 36.8996 9.55736Z" fill="#FD3D57"/>
<path d="M37.9212 31.9838C38.0733 32.112 38.2701 32.1745 38.4683 32.1575C38.6665 32.1406 38.8498 32.0456 38.9779 31.8935C39.3148 31.4937 39.6354 31.0723 39.9309 30.6412C40.0434 30.4771 40.086 30.275 40.0495 30.0795C40.013 29.8839 39.9003 29.7109 39.7362 29.5984C39.6549 29.5427 39.5635 29.5036 39.4671 29.4833C39.3707 29.4629 39.2713 29.4618 39.1745 29.4799C38.9789 29.5164 38.8059 29.6291 38.6934 29.7932C38.426 30.1836 38.1357 30.565 37.8309 30.9276C37.7029 31.0797 37.6405 31.2763 37.6575 31.4744C37.6744 31.6725 37.7692 31.8557 37.9212 31.9838Z" fill="#FD3D57"/>
<path d="M42.6015 23.3207C42.6529 22.802 42.6788 22.2734 42.6788 21.75C42.6788 21.5511 42.5998 21.3603 42.4592 21.2197C42.3185 21.079 42.1277 21 41.9288 21C41.7299 21 41.5392 21.079 41.3985 21.2197C41.2579 21.3603 41.1788 21.5511 41.1788 21.75C41.1788 22.2244 41.1553 22.7032 41.1088 23.1731C41.0892 23.3711 41.1491 23.5687 41.2752 23.7225C41.4014 23.8763 41.5834 23.9737 41.7814 23.9933C41.8064 23.9957 41.8313 23.997 41.8564 23.997C42.0423 23.9967 42.2215 23.9273 42.3592 23.8024C42.4969 23.6774 42.5832 23.5057 42.6015 23.3207Z" fill="#FD3D57"/>
<path d="M23.7395 7.83979C23.793 7.83973 23.8465 7.83398 23.8988 7.82264C24.3629 7.72228 24.8317 7.64522 25.3035 7.59173C25.4014 7.58065 25.4961 7.5504 25.5823 7.50271C25.6685 7.45502 25.7444 7.39081 25.8058 7.31377C25.8672 7.23673 25.9128 7.14835 25.94 7.05368C25.9672 6.95902 25.9755 6.85992 25.9644 6.76204C25.9534 6.66417 25.9231 6.56943 25.8754 6.48325C25.8277 6.39706 25.7635 6.32111 25.6865 6.25974C25.6094 6.19837 25.5211 6.15277 25.4264 6.12555C25.3317 6.09833 25.2326 6.09002 25.1347 6.1011C24.6146 6.16007 24.0921 6.24595 23.5816 6.35648C23.4005 6.39543 23.2403 6.49999 23.1317 6.65002C23.0232 6.80005 22.974 6.98493 22.9936 7.16908C23.0132 7.35323 23.1002 7.52361 23.2379 7.64743C23.3756 7.77124 23.5543 7.83973 23.7395 7.8397V7.83979Z" fill="#FD3D57"/>
<path d="M14.3195 31.1888C14.6332 31.6072 14.9715 32.0144 15.3248 32.3992C15.4599 32.5437 15.6465 32.629 15.8441 32.6366C16.0418 32.6442 16.2344 32.5733 16.3801 32.4396C16.5257 32.3058 16.6127 32.1199 16.622 31.9224C16.6313 31.7248 16.5622 31.5316 16.4297 31.3848C16.1098 31.0364 15.8035 30.6677 15.5194 30.2888C15.4 30.1297 15.2223 30.0245 15.0254 29.9964C14.8285 29.9682 14.6285 30.0195 14.4694 30.1388C14.3102 30.2582 14.205 30.4359 14.1769 30.6328C14.1488 30.8297 14.2 31.0297 14.3194 31.1888H14.3195Z" fill="#FD3D57"/>
<path d="M12.6084 17.2102C12.5132 17.1853 12.4139 17.1793 12.3163 17.1926C12.2187 17.206 12.1247 17.2385 12.0397 17.2882C11.9547 17.3379 11.8803 17.4038 11.8207 17.4823C11.7612 17.5608 11.7177 17.6502 11.6927 17.7455C11.5597 18.2534 11.4522 18.7677 11.3706 19.2864C11.3397 19.4829 11.3881 19.6837 11.5052 19.8445C11.6224 20.0053 11.7986 20.1129 11.9951 20.1438C12.1916 20.1747 12.3923 20.1262 12.5531 20.0091C12.7139 19.892 12.8216 19.7158 12.8525 19.5193C12.9262 19.0503 13.0234 18.5853 13.1437 18.126C13.1686 18.0307 13.1746 17.9315 13.1612 17.8339C13.1479 17.7363 13.1154 17.6423 13.0657 17.5573C13.016 17.4722 12.95 17.3978 12.8716 17.3383C12.7931 17.2787 12.7037 17.2352 12.6084 17.2102Z" fill="#FD3D57"/>
<path d="M33.5796 9.14376C33.6667 9.19059 33.7622 9.21973 33.8607 9.22948C33.9591 9.23924 34.0585 9.22943 34.1531 9.20061C34.2478 9.1718 34.3357 9.12454 34.412 9.06158C34.4883 8.99861 34.5514 8.92118 34.5977 8.83373C34.6439 8.74628 34.6724 8.65055 34.6815 8.55205C34.6906 8.45355 34.6801 8.35422 34.6506 8.25979C34.6211 8.16536 34.5733 8.07768 34.5098 8.00182C34.4463 7.92596 34.3685 7.8634 34.2807 7.81776C33.8178 7.57298 33.3377 7.34901 32.8537 7.1526C32.7624 7.11554 32.6647 7.09681 32.5662 7.09749C32.4678 7.09817 32.3704 7.11824 32.2796 7.15656C32.1889 7.19487 32.1066 7.25069 32.0374 7.32081C31.9683 7.39093 31.9136 7.47399 31.8765 7.56524C31.8395 7.6565 31.8208 7.75415 31.8214 7.85264C31.8221 7.95113 31.8422 8.04853 31.8805 8.13926C31.9188 8.22999 31.9746 8.31229 32.0447 8.38145C32.1149 8.45062 32.1979 8.50529 32.2892 8.54235C32.7291 8.72117 33.1597 8.92189 33.5796 9.14376Z" fill="#FD3D57"/>
<path d="M14.1377 15.4617C14.3476 15.0357 14.5786 14.6204 14.83 14.2175C14.933 14.0488 14.9652 13.8463 14.9197 13.6541C14.8742 13.4618 14.7546 13.2952 14.587 13.1906C14.4194 13.0859 14.2172 13.0517 14.0245 13.0952C13.8317 13.1388 13.664 13.2567 13.5576 13.4232C13.2808 13.8667 13.0233 14.3296 12.792 14.7988C12.7485 14.8872 12.7228 14.9833 12.7164 15.0816C12.71 15.1798 12.723 15.2784 12.7547 15.3717C12.7864 15.4649 12.8362 15.551 12.9011 15.6251C12.9661 15.6991 13.045 15.7596 13.1334 15.8031C13.2217 15.8467 13.3178 15.8724 13.4161 15.8788C13.5144 15.8852 13.613 15.8721 13.7062 15.8404C13.7995 15.8087 13.8856 15.759 13.9596 15.694C14.0336 15.629 14.0942 15.5501 14.1377 15.4617Z" fill="#FD3D57"/>
<path d="M19.5532 9.43604C19.6825 9.43605 19.8095 9.40252 19.9219 9.33873C20.3344 9.10567 20.7621 8.89098 21.1945 8.70066C21.2847 8.66099 21.3661 8.60395 21.4342 8.5328C21.5023 8.46164 21.5558 8.37777 21.5914 8.28597C21.6271 8.19418 21.6444 8.09624 21.6422 7.99777C21.6401 7.8993 21.6186 7.80222 21.5789 7.71207C21.5392 7.62192 21.4822 7.54047 21.411 7.47236C21.3399 7.40426 21.256 7.35083 21.1642 7.31514C21.0724 7.27945 20.9745 7.26219 20.876 7.26434C20.7775 7.26649 20.6804 7.28802 20.5903 7.3277C20.1098 7.53926 19.6402 7.77474 19.1832 8.03326C19.039 8.11486 18.9258 8.24194 18.8614 8.39465C18.797 8.54736 18.785 8.71709 18.8273 8.87734C18.8696 9.03758 18.9637 9.17931 19.0951 9.28039C19.2264 9.38147 19.3875 9.4362 19.5532 9.43604Z" fill="#FD3D57"/>
<path d="M35.7904 32.9102C35.4199 33.2049 35.0304 33.484 34.6327 33.7403C34.5494 33.7934 34.4774 33.8624 34.4209 33.9434C34.3644 34.0244 34.3244 34.1158 34.3032 34.2123C34.2821 34.3088 34.2803 34.4085 34.2978 34.5058C34.3153 34.603 34.3519 34.6958 34.4054 34.7788C34.4589 34.8619 34.5282 34.9335 34.6095 34.9897C34.6908 35.0459 34.7823 35.0854 34.879 35.1061C34.9756 35.1268 35.0753 35.1282 35.1724 35.1102C35.2696 35.0922 35.3622 35.0552 35.445 35.0013C35.8843 34.7182 36.3146 34.4097 36.7238 34.0844C36.8795 33.9606 36.9797 33.7801 37.0023 33.5824C37.0249 33.3848 36.968 33.1863 36.8442 33.0306C36.7204 32.8749 36.5399 32.7747 36.3422 32.7521C36.1446 32.7296 35.9461 32.7864 35.7904 32.9102Z" fill="#FD3D57"/>
<path d="M32.0994 35.0332C31.657 35.2055 31.2062 35.3554 30.7487 35.4824C30.6538 35.5087 30.565 35.5535 30.4874 35.6142C30.4098 35.6748 30.3449 35.7502 30.2964 35.8359C30.2479 35.9216 30.2168 36.0161 30.2048 36.1138C30.1928 36.2116 30.2002 36.3108 30.2265 36.4057C30.2797 36.5974 30.4069 36.7601 30.58 36.858C30.6658 36.9065 30.7602 36.9376 30.858 36.9496C30.9558 36.9616 31.0549 36.9542 31.1498 36.9278C31.6559 36.7873 32.1546 36.6215 32.644 36.431C32.7363 36.3956 32.8206 36.3423 32.8923 36.2742C32.9639 36.2061 33.0213 36.1245 33.0613 36.0341C33.1013 35.9437 33.123 35.8463 33.1252 35.7476C33.1274 35.6488 33.1101 35.5505 33.0742 35.4584C33.0383 35.3663 32.9846 35.2823 32.9161 35.211C32.8477 35.1398 32.7658 35.0827 32.6752 35.0432C32.5846 35.0037 32.4871 34.9825 32.3883 34.9808C32.2895 34.9791 32.1913 34.997 32.0994 35.0333V35.0332Z" fill="#FD3D57"/>
<path d="M18.5526 33.2796C18.3917 33.1625 18.191 33.1141 17.9945 33.1451C17.798 33.176 17.6219 33.2837 17.5048 33.4446C17.3877 33.6054 17.3394 33.8061 17.3703 34.0026C17.4013 34.1991 17.509 34.3752 17.6698 34.4923C18.0929 34.8003 18.5361 35.0901 18.9872 35.354C19.0722 35.405 19.1666 35.4386 19.2647 35.4529C19.3628 35.4672 19.4628 35.4619 19.5589 35.4372C19.655 35.4126 19.7452 35.3692 19.8244 35.3095C19.9036 35.2498 19.9701 35.175 20.0202 35.0894C20.0703 35.0038 20.1029 34.9091 20.1161 34.8108C20.1293 34.7125 20.123 34.6126 20.0973 34.5168C20.0717 34.421 20.0273 34.3312 19.9667 34.2527C19.9062 34.1742 19.8306 34.1084 19.7445 34.0593C19.3364 33.8205 18.9353 33.5582 18.5526 33.2796Z" fill="#FD3D57"/>
<path d="M26.5211 35.9942H26.4996C26.3007 35.9914 26.1089 36.0678 25.9663 36.2065C25.8237 36.3452 25.742 36.5349 25.7392 36.7338C25.7365 36.9327 25.8128 37.1246 25.9515 37.2672C26.0902 37.4098 26.2799 37.4914 26.4788 37.4942C26.6277 37.4984 26.7788 37.5005 26.9288 37.5005C27.3032 37.5005 27.6809 37.4871 28.0514 37.461C28.2498 37.447 28.4346 37.3548 28.565 37.2046C28.6954 37.0544 28.7608 36.8585 28.7468 36.6601C28.7328 36.4617 28.6406 36.2769 28.4904 36.1465C28.3402 36.0161 28.1444 35.9507 27.9459 35.9647C27.4756 35.9975 26.9938 36.0077 26.5211 35.9942Z" fill="#FD3D57"/>
<path d="M16.6153 9.84615C16.2203 10.1886 15.838 10.5549 15.479 10.935C15.3424 11.0796 15.2688 11.2725 15.2745 11.4714C15.2801 11.6702 15.3645 11.8587 15.5092 11.9953C15.6538 12.1319 15.8467 12.2054 16.0456 12.1998C16.2444 12.1941 16.4329 12.1097 16.5695 11.9651C16.8945 11.6211 17.2405 11.2895 17.598 10.9796C17.7483 10.8493 17.8407 10.6646 17.8548 10.4662C17.869 10.2678 17.8037 10.0719 17.6734 9.92157C17.5431 9.77127 17.3584 9.67889 17.16 9.66474C16.9616 9.6506 16.7657 9.71585 16.6154 9.84615H16.6153Z" fill="#FD3D57"/>
<path d="M22.331 35.2421C22.1427 35.1779 21.9366 35.1912 21.7581 35.2789C21.5796 35.3667 21.4432 35.5218 21.3791 35.7101C21.3149 35.8983 21.3281 36.1044 21.4159 36.2829C21.5037 36.4614 21.6587 36.5978 21.847 36.6619C22.3442 36.8311 22.8496 36.9754 23.3613 37.094C23.4572 37.1163 23.5566 37.1194 23.6538 37.1032C23.7509 37.087 23.8439 37.0518 23.9275 36.9997C24.0111 36.9475 24.0835 36.8795 24.1408 36.7993C24.198 36.7192 24.2389 36.6285 24.2612 36.5326C24.2834 36.4366 24.2865 36.3372 24.2703 36.2401C24.2541 36.1429 24.219 36.0499 24.1668 35.9663C24.1147 35.8828 24.0466 35.8103 23.9664 35.753C23.8863 35.6958 23.7957 35.6549 23.6997 35.6327C23.2372 35.5255 22.7804 35.3951 22.331 35.2421Z" fill="#FD3D57"/>
<path d="M29.8358 6.26785C29.3226 6.17213 28.7979 6.10106 28.2761 6.05681C28.0779 6.04003 27.8811 6.10268 27.7291 6.23097C27.5771 6.35926 27.4822 6.54269 27.4655 6.74091C27.4487 6.93913 27.5113 7.13589 27.6396 7.28792C27.7679 7.43995 27.9513 7.53478 28.1496 7.55157C28.6217 7.5916 29.0964 7.65572 29.5604 7.74244C29.7559 7.77897 29.958 7.73632 30.1221 7.62387C30.2862 7.51143 30.3989 7.33841 30.4354 7.14286C30.4719 6.94732 30.4293 6.74527 30.3168 6.58118C30.2044 6.41708 30.0314 6.30437 29.8358 6.26785Z" fill="#FD3D57"/>
<path d="M17.1788 45.75V38.25C17.1788 38.0511 17.0998 37.8603 16.9592 37.7197C16.8185 37.579 16.6277 37.5 16.4288 37.5H14.1788V35.25C14.1788 35.0511 14.0998 34.8603 13.9592 34.7197C13.8185 34.579 13.6277 34.5 13.4288 34.5H5.92883C5.72992 34.5 5.53916 34.579 5.3985 34.7197C5.25785 34.8603 5.17883 35.0511 5.17883 35.25V37.5H2.92883C2.72992 37.5 2.53916 37.579 2.3985 37.7197C2.25785 37.8603 2.17883 38.0511 2.17883 38.25V45.75C2.17883 45.9489 2.25785 46.1397 2.3985 46.2803C2.53916 46.421 2.72992 46.5 2.92883 46.5H16.4288C16.6277 46.5 16.8185 46.421 16.9592 46.2803C17.0998 46.1397 17.1788 45.9489 17.1788 45.75ZM5.17883 45H3.67883V39H5.17883V45ZM12.6788 45H10.4288V44.25C10.4288 44.0511 10.3498 43.8603 10.2092 43.7197C10.0685 43.579 9.87775 43.5 9.67883 43.5C9.47992 43.5 9.28916 43.579 9.1485 43.7197C9.00785 43.8603 8.92883 44.0511 8.92883 44.25V45H6.67883V36H12.6788V45ZM15.6788 45H14.1788V39H15.6788V45Z" fill="#FD3D57"/>
<path d="M8.92883 39H10.4288C10.6277 39 10.8185 38.921 10.9592 38.7803C11.0998 38.6397 11.1788 38.4489 11.1788 38.25C11.1788 38.0511 11.0998 37.8603 10.9592 37.7197C10.8185 37.579 10.6277 37.5 10.4288 37.5H8.92883C8.72992 37.5 8.53916 37.579 8.3985 37.7197C8.25785 37.8603 8.17883 38.0511 8.17883 38.25C8.17883 38.4489 8.25785 38.6397 8.3985 38.7803C8.53916 38.921 8.72992 39 8.92883 39Z" fill="#FD3D57"/>
<path d="M8.92883 42H10.4288C10.6277 42 10.8185 41.921 10.9592 41.7803C11.0998 41.6397 11.1788 41.4489 11.1788 41.25C11.1788 41.0511 11.0998 40.8603 10.9592 40.7197C10.8185 40.579 10.6277 40.5 10.4288 40.5H8.92883C8.72992 40.5 8.53916 40.579 8.3985 40.7197C8.25785 40.8603 8.17883 41.0511 8.17883 41.25C8.17883 41.4489 8.25785 41.6397 8.3985 41.7803C8.53916 41.921 8.72992 42 8.92883 42Z" fill="#FD3D57"/>
<path d="M27.7459 22.8099C27.8054 22.9411 27.9015 23.0524 28.0226 23.1304C28.1437 23.2085 28.2848 23.25 28.4288 23.25H32.9288V25.5C32.9288 25.6989 33.0079 25.8897 33.1485 26.0303C33.2892 26.171 33.4799 26.25 33.6788 26.25C33.8777 26.25 34.0685 26.171 34.2092 26.0303C34.3498 25.8897 34.4288 25.6989 34.4288 25.5V23.25H35.9288C36.1277 23.25 36.3185 23.171 36.4592 23.0303C36.5998 22.8897 36.6788 22.6989 36.6788 22.5C36.6788 22.3011 36.5998 22.1103 36.4592 21.9696C36.3185 21.829 36.1277 21.75 35.9288 21.75H34.4288V16.5C34.4288 16.3474 34.3823 16.1984 34.2954 16.073C34.2085 15.9475 34.0855 15.8515 33.9426 15.7979C33.7998 15.7442 33.644 15.7354 33.496 15.7726C33.348 15.8098 33.2148 15.8913 33.1144 16.0061L27.8644 22.0061C27.7695 22.1145 27.7079 22.248 27.6868 22.3906C27.6658 22.5331 27.6863 22.6787 27.7459 22.8099ZM32.9288 18.4961V21.75H30.0816L32.9288 18.4961Z" fill="#FD3D57"/>
</svg>
