<?xml version="1.0" encoding="iso-8859-1"?>
<!-- Generator: Adobe Illustrator 19.0.0, SVG Export Plug-In . SVG Version: 6.00 Build 0)  -->
<svg version="1.1" id="Capa_1" xmlns="http://www.w3.org/2000/svg" xmlns:xlink="http://www.w3.org/1999/xlink" x="0px" y="0px"
	 viewBox="0 0 512 512" style="enable-background:new 0 0 512 512;" xml:space="preserve">
<g>
	<g>
		<path fill="#E994A0" d="M510.417,210.76c-4.698-19.198-20.897-34.833-40.305-38.896c-3.961-0.829-7.945-1.199-11.886-1.159
			c-37.112-56.479-104.896-85.372-202.21-85.372c-97.635,0-165.523,28.962-202.51,85.6c-12.656,0.009-24.99,4.167-34.713,12.431
			C6.855,193.521,0,208.333,0,224c0,16.677,8.042,32.427,21.335,42.448v74.885c0,23.531,19.137,42.667,42.669,42.667v10.667
			c0,17.646,14.355,32,32.002,32s32.002-14.354,32.002-32V384h256.016v10.667c0,17.646,14.355,32,32.002,32
			c17.647,0,32.002-14.354,32.002-32V384c23.533,0,42.669-19.135,42.669-42.667v-74.875
			C507.75,253.667,515.615,232.042,510.417,210.76z M256,106.667c85.625,0,145.768,23.478,179.749,69.255
			c-3.773,1.794-7.378,3.978-10.686,6.661c-12.542,10.188-19.729,25.281-19.729,41.417v32h-128c-8.225,0-15.659,3.206-21.333,8.323
			c-5.674-5.117-13.108-8.323-21.333-8.323h-128v-29.719c0-21.911-12.536-41.307-30.646-50.236
			C109.9,130.191,170.12,106.667,256,106.667z M426.667,288c0,5.885-4.781,10.667-10.667,10.667H277.333
			c-5.885,0-10.667-4.781-10.667-10.667s4.781-10.667,10.667-10.667H416C421.885,277.333,426.667,282.115,426.667,288z M245.333,288
			c0,5.885-4.781,10.667-10.667,10.667H96c-5.885,0-10.667-4.781-10.667-10.667S90.115,277.333,96,277.333h138.667
			C240.552,277.333,245.333,282.115,245.333,288z M106.667,394.667c0,5.885-4.781,10.667-10.667,10.667s-10.667-4.781-10.667-10.667
			V384h21.333V394.667z M426.667,394.667c0,5.885-4.781,10.667-10.667,10.667c-5.885,0-10.667-4.781-10.667-10.667V384h21.333
			V394.667z M474.635,251.531c-3.281,1.906-5.302,5.417-5.302,9.219v80.583c0,11.76-9.573,21.333-21.333,21.333H64
			c-11.76,0-21.333-9.573-21.333-21.333V260.75c0-3.792-2.021-7.302-5.302-9.219C27.323,245.688,21.333,235.396,21.333,224
			c0-9.396,4.115-18.292,11.281-24.385c7.281-6.188,16.625-8.729,26.167-7.167c15.135,2.458,26.552,17.01,26.552,33.833v31.684
			C72.944,262.383,64,274.112,64,288c0,17.646,14.354,32,32,32h138.667c8.225,0,15.659-3.206,21.333-8.323
			c5.674,5.117,13.108,8.323,21.333,8.323H416c17.646,0,32-14.354,32-32c0-13.888-8.944-25.617-21.333-30.035V224
			c0-9.688,4.313-18.74,11.844-24.854c7.635-6.198,17.323-8.479,27.198-6.406c11.542,2.417,21.167,11.698,23.948,23.083
			C493.167,230.167,487.271,244.177,474.635,251.531z"/>
	</g>
</g>
<g>
</g>
<g>
</g>
<g>
</g>
<g>
</g>
<g>
</g>
<g>
</g>
<g>
</g>
<g>
</g>
<g>
</g>
<g>
</g>
<g>
</g>
<g>
</g>
<g>
</g>
<g>
</g>
<g>
</g>
</svg>
