<svg xmlns="http://www.w3.org/2000/svg" x="0" y="0" viewBox="0 0 256 282" xml:space="preserve"><style>.st0{fill:#2e5e82}</style><path class="st0" d="M128 178.846l58-14.5V156c0-3.309-2.691-6-6-6H76c-3.309 0-6 2.691-6 6v8.346l58 14.5z"/><path class="st0" d="M128 189.154l-58-14.5V212c0 3.309 2.691 6 6 6h104c3.309 0 6-2.691 6-6v-37.346l-58 14.5zM64 266h32v16H64zM160 266h32v16h-32zM70 92h20v14H70zM70 0h20v80H70zM58 0H16C7.163 0 0 7.163 0 16v48c0 8.836 7.163 16 16 16h42V0z"/><path class="st0" d="M70 0h20v106H70zM166 92h20v14h-20z"/><path class="st0" d="M198 92v26h-44V92h-52v26H58V92H32v148c0 8.836 7.163 16 16 16h160c8.836 0 16-7.163 16-16V92h-26zm0 120c0 9.925-8.075 18-18 18H76c-9.925 0-18-8.075-18-18v-56c0-9.925 8.075-18 18-18h104c9.925 0 18 8.075 18 18v56zM102 0h52v80h-52zM166 0h20v80h-20zM240 0h-42v80h42c8.836 0 16-7.163 16-16V16c0-8.837-7.163-16-16-16z"/><path class="st0" d="M166 0h20v106h-20z"/></svg>
