<svg aria-hidden="true" focusable="false" data-prefix="far" data-icon="plug" class="svg-inline--fa fa-plug fa-w-12" role="img" xmlns="http://www.w3.org/2000/svg" viewBox="0 0 384 512"><path fill="#2e5e82" d="M312,24a24,24,0,0,0-48,0v88h48ZM120,24a24,24,0,0,0-48,0v88h48ZM368,144H16A16,16,0,0,0,0,160v16a16,16,0,0,0,16,16H32v64c0,80.14,59.11,145.92,136,157.58V512h48V413.58C292.89,401.92,352,336.14,352,256V192h16a16,16,0,0,0,16-16V160A16,16,0,0,0,368,144ZM304,256a112,112,0,0,1-224,0V192H304Z"></path></svg>