<svg width="59" height="47" viewBox="0 0 59 47" fill="none" xmlns="http://www.w3.org/2000/svg">
    <path d="M49.524 30.5833C49.5766 30.7452 49.5927 30.7703 49.5927 30.7963C49.5435 33.514 49.4765 36.2316 49.4476 38.9501C49.4213 41.3934 49.4366 43.8367 49.4349 46.2792C49.4349 46.5384 49.5859 46.6609 49.8369 46.66C50.1049 46.66 50.3729 46.6416 50.6409 46.6408C52.8715 46.6324 55.102 46.6248 57.3326 46.6215C57.6481 46.6206 57.8363 46.5258 57.8465 46.1694C57.8694 45.2928 57.9271 44.4163 57.95 43.5398C58.0195 40.9329 58.0925 38.3252 58.1383 35.7183C58.2137 31.4766 58.2629 27.2349 58.3359 22.9932C58.3749 20.7344 58.4402 18.4765 58.4987 16.2176C58.5072 15.8872 58.4249 15.6909 58.0306 15.6917C55.1215 15.6993 52.2133 15.6917 49.3043 15.7051C49.172 15.706 48.9786 15.8394 48.9184 15.961C48.223 17.3701 47.5487 18.7902 46.8651 20.206C46.5488 20.8619 46.2138 21.5095 45.9042 22.1687C45.1884 23.6936 44.487 25.2261 43.7704 26.7509C43.482 27.3641 43.1623 27.963 42.8731 28.5753C42.6474 29.0534 42.4524 29.5466 42.2302 30.0264C42.1895 30.1144 42.0792 30.2318 42.0063 30.2285C41.9291 30.2251 41.8333 30.1052 41.7892 30.0154C41.7289 29.893 41.7281 29.7437 41.6721 29.6187C41.0309 28.1928 40.3872 26.7686 39.7384 25.346C39.2974 24.3797 38.853 23.4151 38.4001 22.4548C38.0176 21.6437 37.6113 20.8443 37.2339 20.0307C36.6267 18.7214 36.0279 17.4079 35.4436 16.0885C35.307 15.7806 35.106 15.6917 34.7863 15.6926C31.9621 15.6993 29.1378 15.6942 26.3136 15.6942C25.7098 15.6942 25.7081 15.6993 25.7089 16.2847C25.7089 21.3526 25.7098 26.4205 25.7106 31.4883C25.7106 36.4027 25.7115 41.3171 25.7098 46.2314C25.7098 46.4655 25.6843 46.6693 26.0405 46.6668C28.5815 46.6491 31.1233 46.6542 33.6642 46.634C34.285 46.629 34.2783 46.5988 34.285 45.9806C34.3351 41.1241 34.3877 36.2668 34.4394 31.4103C34.4411 31.2115 34.4394 31.0119 34.4394 30.8131C34.4945 30.8047 34.5497 30.7972 34.6039 30.7888C34.7176 31.0849 34.8151 31.3885 34.9483 31.6762C35.3325 32.5041 35.7353 33.3244 36.1246 34.1506C36.5766 35.1076 37.0338 36.063 37.4672 37.0284C37.898 37.9888 38.2949 38.9626 38.7181 39.9264C38.9403 40.4313 39.2262 40.9119 39.406 41.4303C39.5111 41.7314 39.6299 41.879 39.9521 41.8782C41.2515 41.874 42.5508 41.8874 43.8492 41.8665C43.9968 41.8639 44.2071 41.713 44.2758 41.5754C44.6761 40.7744 45.0357 39.9541 45.4225 39.1463C45.9008 38.1473 46.3961 37.1568 46.8778 36.1586C47.1721 35.5488 47.4571 34.9348 47.7429 34.3209C48.0033 33.7606 48.2526 33.1944 48.5181 32.6358C48.8336 31.979 49.1584 31.329 49.524 30.5833ZM9.4319 35.3291C9.80253 35.3291 10.096 35.3299 10.3903 35.3291C13.1153 35.3224 15.8403 35.3182 18.5652 35.3064C18.9274 35.3047 19.3048 35.189 19.6474 35.2586C20.013 35.3324 20.0952 35.1957 20.0961 34.9181C20.102 32.8941 20.0969 30.8693 20.1029 28.8454C20.1037 28.5325 19.9646 28.4394 19.6619 28.4427C18.5322 28.4562 17.4033 28.4511 16.2736 28.452C14.1271 28.4545 11.9813 28.4553 9.83475 28.4595C9.62442 28.4595 9.44292 28.4662 9.44123 28.1701C9.43275 26.6486 9.41663 25.1279 9.39543 23.6064C9.39119 23.3002 9.51247 23.2088 9.82542 23.2096C13.8489 23.2197 17.8732 23.2164 21.8966 23.2172C22.4089 23.2172 22.5115 23.1216 22.5107 22.6057C22.5073 20.5122 22.5047 18.4177 22.4979 16.3242C22.4963 15.737 22.4555 15.6968 21.8771 15.6968C15.043 15.6942 8.20892 15.6909 1.37481 15.6959C0.541964 15.6968 0.432557 15.4946 0.529242 16.5724C0.536875 16.6555 0.530091 16.7402 0.531787 16.8241C0.579281 20.4098 0.630168 23.9964 0.675118 27.5822C0.740423 32.8295 0.803183 38.0769 0.8634 43.3242C0.873577 44.2033 0.858311 45.0832 0.865944 45.963C0.871881 46.6458 1.05592 46.8236 1.72339 46.8228C4.12355 46.8211 6.52456 46.8194 8.92473 46.8152C9.43444 46.8144 9.53961 46.7146 9.53537 46.1987C9.53028 45.4874 9.50314 44.7762 9.49636 44.0657C9.47261 41.5117 9.4531 38.9568 9.43275 36.4027C9.42935 36.0672 9.4319 35.735 9.4319 35.3291Z" fill="currentColor"/>
    <path d="M49.5236 30.5835C49.1581 31.3291 48.8332 31.98 48.5211 32.636C48.2557 33.1946 48.0063 33.7599 47.7459 34.3211C47.4601 34.935 47.1752 35.549 46.8809 36.1588C46.3991 37.1561 45.9038 38.1475 45.4255 39.1465C45.0388 39.9543 44.6792 40.7746 44.2789 41.5756C44.2102 41.7132 43.9998 41.8641 43.8523 41.8667C42.5538 41.8885 41.2545 41.8742 39.9552 41.8784C39.6329 41.8792 39.5133 41.7316 39.409 41.4305C39.2283 40.913 38.9425 40.4315 38.7212 39.9266C38.2979 38.9637 37.9002 37.989 37.4702 37.0286C37.0368 36.0632 36.5797 35.1078 36.1276 34.1508C35.7383 33.3246 35.3355 32.5051 34.9513 31.6764C34.8181 31.3887 34.7206 31.0851 34.6069 30.789C34.5518 30.7974 34.4967 30.8049 34.4424 30.8133C34.4424 31.0121 34.4441 31.2117 34.4424 31.4105C34.3907 36.267 34.3381 41.1243 34.2881 45.9808C34.2813 46.599 34.2881 46.6301 33.6672 46.6342C31.1263 46.6544 28.5845 46.6493 26.0435 46.667C25.6873 46.6695 25.7128 46.4657 25.7128 46.2316C25.7145 41.3173 25.7145 36.4029 25.7136 31.4885C25.7136 26.4206 25.7128 21.3528 25.7119 16.2849C25.7119 15.6986 25.7128 15.6944 26.3166 15.6944C29.1408 15.6936 31.9651 15.6994 34.7893 15.6927C35.109 15.6919 35.31 15.7808 35.4466 16.0886C36.0309 17.408 36.6305 18.7215 37.237 20.0309C37.6135 20.8445 38.0206 21.6438 38.4031 22.4549C38.856 23.4162 39.3004 24.3799 39.7414 25.3462C40.3902 26.7687 41.034 28.193 41.6751 29.6189C41.7311 29.7439 41.732 29.8932 41.7922 30.0156C41.8363 30.1054 41.9321 30.2253 42.0093 30.2287C42.0822 30.232 42.1925 30.1146 42.2332 30.0265C42.4554 29.5468 42.6505 29.0544 42.8761 28.5755C43.1653 27.9631 43.4859 27.3643 43.7734 26.7511C44.49 25.2262 45.1914 23.6938 45.9072 22.1689C46.2168 21.5096 46.551 20.8621 46.8681 20.2062C47.5517 18.7912 48.2251 17.3711 48.9214 15.9611C48.9816 15.8387 49.175 15.7053 49.3073 15.7053C52.2164 15.6919 55.1245 15.6994 58.0336 15.6919C58.428 15.6911 58.5102 15.8873 58.5017 16.2178C58.4432 18.4766 58.3779 20.7346 58.3389 22.9934C58.2651 27.2351 58.2168 31.4768 58.1413 35.7184C58.0947 38.3262 58.0217 40.9331 57.953 43.54C57.9301 44.4165 57.8724 45.293 57.8495 46.1696C57.8402 46.526 57.6519 46.6208 57.3356 46.6217C55.105 46.625 52.8745 46.6326 50.644 46.641C50.376 46.6418 50.1079 46.6602 49.8399 46.6602C49.5881 46.6602 49.4379 46.5378 49.4379 46.2794C49.4396 43.8361 49.4244 41.3927 49.4507 38.9502C49.4795 36.2326 49.5465 33.515 49.5957 30.7965C49.5923 30.7705 49.5762 30.7445 49.5236 30.5835Z" fill="currentColor"/>
    <path d="M9.43145 35.329C9.43145 35.735 9.42891 36.0671 9.43145 36.3993C9.45181 38.9534 9.47132 41.5083 9.49506 44.0623C9.50185 44.7736 9.52899 45.4849 9.53408 46.1953C9.53832 46.7112 9.43315 46.811 8.92343 46.8118C6.52327 46.8152 4.12226 46.8177 1.72209 46.8194C1.05463 46.8202 0.870588 46.6424 0.864651 45.9596C0.857018 45.0798 0.872284 44.2007 0.862106 43.3209C0.80189 38.0735 0.73913 32.8261 0.673825 27.5788C0.628875 23.993 0.578836 20.4064 0.530494 16.8207C0.529646 16.7368 0.535582 16.6529 0.527949 16.569C0.432112 15.4912 0.540671 15.6933 1.37352 15.6925C8.20762 15.6883 15.0417 15.6917 21.8758 15.6933C22.4542 15.6933 22.4941 15.7336 22.4967 16.3207C22.5034 18.4143 22.506 20.5087 22.5094 22.6023C22.5102 23.1182 22.4076 23.2138 21.8953 23.2138C17.8719 23.2129 13.8476 23.2163 9.82413 23.2062C9.51118 23.2054 9.3899 23.2968 9.39414 23.603C9.41534 25.1237 9.43145 26.6452 9.43994 28.1667C9.44163 28.4637 9.62228 28.457 9.83346 28.4561C11.98 28.4519 14.1258 28.4511 16.2723 28.4486C17.402 28.4477 18.5317 28.4528 19.6606 28.4393C19.9633 28.436 20.1033 28.5291 20.1016 28.842C20.0956 30.8659 20.1007 32.8907 20.0948 34.9147C20.0939 35.1931 20.0117 35.3299 19.6461 35.2552C19.3035 35.1856 18.9261 35.3013 18.5639 35.303C15.839 35.3156 13.114 35.319 10.389 35.3257C10.0955 35.3299 9.80208 35.329 9.43145 35.329Z" fill="currentColor"/>
    <path d="M6.80319 4.83634C6.81506 4.62664 6.82863 4.49495 6.82863 4.36243C6.83033 3.34332 6.84305 2.32337 6.821 1.30426C6.81336 0.946944 6.90411 0.791771 7.29085 0.823644C7.69795 0.857195 8.11098 0.863067 8.51807 0.837903C8.88276 0.815257 8.96758 0.960364 8.96673 1.29671C8.9557 3.96401 8.96079 6.63047 8.96164 9.29777C8.96164 9.96795 8.94722 10.639 8.96758 11.3083C8.97775 11.6396 8.86326 11.7654 8.5291 11.7336C8.27721 11.7101 8.02108 11.726 7.76665 11.7243C7.25523 11.721 7.18738 11.6572 7.15092 11.1598C7.14498 11.0818 7.12293 11.0047 7.0907 10.8386C6.92871 10.9736 6.7964 11.0475 6.71498 11.1573C6.27651 11.7512 5.60904 11.7923 4.97805 11.7923C4.20457 11.7923 3.50402 11.5155 3.00109 10.8856C2.51597 10.2783 2.20471 9.59134 2.15807 8.81631C2.12414 8.24595 2.0987 7.66636 2.16146 7.10018C2.30903 5.77996 2.78058 4.64258 4.14859 4.09402C4.76856 3.84491 6.00257 4.07557 6.48175 4.54444C6.56656 4.62916 6.65816 4.70549 6.80319 4.83634ZM7.01861 8.60243C6.95415 7.80643 6.89902 7.18406 6.85407 6.56169C6.80658 5.90745 6.32909 5.71789 5.79393 5.57697C5.39956 5.47296 5.08321 5.62646 4.80164 5.86551C4.45985 6.15573 4.36655 6.54911 4.24867 6.97605C4.00356 7.86766 4.13163 8.68547 4.44119 9.51753C4.62099 10.0007 4.9984 10.2062 5.46402 10.2523C6.02123 10.3077 6.57165 10.1852 6.821 9.64502C6.98723 9.28435 6.97705 8.84483 7.01861 8.60243Z" fill="currentColor"/>
    <path d="M14.7573 8.54351C14.1645 8.54351 13.5708 8.54351 12.978 8.54351C12.5124 8.54351 12.3826 8.72888 12.5488 9.15497C12.8559 9.94174 13.3249 10.2362 14.1857 10.2638C14.86 10.2856 15.4833 10.1682 16.0702 9.8369C16.1389 9.79831 16.323 9.8218 16.3501 9.87129C16.4883 10.1229 16.602 10.3888 16.7055 10.6572C16.8081 10.9223 16.6834 11.1018 16.4493 11.2335C15.6691 11.6738 14.7955 11.8776 13.9347 11.8558C13.1985 11.8374 12.4505 11.657 11.7881 11.1856C11.1266 10.7159 10.7144 10.1137 10.5447 9.38228C10.1987 7.89178 10.1784 6.41806 11.208 5.12467C11.7567 4.4352 12.4912 4.09214 13.3698 4.0393C14.0636 3.9982 14.7573 4.01749 15.3697 4.37816C16.183 4.8571 16.7631 5.52392 16.8717 6.49858C16.9344 7.05972 16.9769 7.62337 17.0311 8.18535C17.0574 8.45628 16.9404 8.55441 16.6631 8.5477C16.0287 8.5326 15.3926 8.54351 14.7573 8.54351ZM13.6955 7.22915C13.8507 7.22915 14.0059 7.22915 14.1611 7.22915C15.0109 7.22915 15.0482 7.22076 14.8701 6.43148C14.8074 6.15468 14.5623 5.82504 14.3095 5.70174C13.5768 5.34275 12.7091 5.8133 12.5183 6.6051C12.4021 7.08572 12.5166 7.22999 13.0179 7.22999C13.2435 7.22915 13.4699 7.22915 13.6955 7.22915Z" fill="currentColor"/>
    <path d="M37.3822 7.83662C37.3152 9.01677 37.0922 10.0191 36.367 10.8285C35.937 11.3091 35.3815 11.6321 34.72 11.7344C34.3774 11.7872 34.0322 11.898 33.6921 11.8837C32.0281 11.8158 30.9187 11.0902 30.426 9.53597C29.9799 8.12851 30.0638 6.69001 30.9357 5.40921C31.3954 4.734 32.0484 4.30454 32.8898 4.19718C33.2324 4.15356 33.5801 4.02188 33.9134 4.05375C35.234 4.18041 36.5765 4.68367 37.0506 6.32095C37.1295 6.59439 37.1965 6.87203 37.2567 7.14966C37.3144 7.41723 37.356 7.68899 37.3822 7.83662ZM35.3145 7.97334C35.2306 7.48182 35.2178 6.95674 35.0363 6.49626C34.9108 6.17836 34.6004 5.83614 34.2866 5.70697C33.4682 5.36979 32.5132 5.94183 32.369 6.79822C32.2486 7.51285 32.1061 8.20987 32.3325 8.96225C32.57 9.74902 32.7786 10.3446 33.9202 10.2674C34.4944 10.228 34.9303 9.93858 35.0609 9.37409C35.1661 8.92115 35.228 8.45983 35.3145 7.97334Z" fill="currentColor"/>
    <path d="M41.9972 11.9072C40.4341 11.8753 39.357 11.3309 38.7396 10.1097C38.4928 9.62152 38.3656 9.04864 38.3062 8.50092C38.2061 7.57408 38.2791 6.64136 38.7812 5.81517C39.318 4.9311 40.0474 4.34816 41.1465 4.17117C41.8598 4.05626 42.5069 4.12756 43.1557 4.32886C44.1327 4.63166 44.7637 5.34126 45.0869 6.26308C45.3718 7.07501 45.516 7.89868 45.3176 8.81043C45.1488 9.5863 44.8893 10.2917 44.3829 10.8453C44.0191 11.2429 43.4559 11.4878 42.9428 11.7168C42.6002 11.8678 42.1897 11.872 41.9972 11.9072ZM43.3839 7.8492C43.2787 7.41387 43.2058 6.86615 43.009 6.36457C42.7927 5.81265 42.3068 5.6298 41.7046 5.65832C41.1584 5.68432 40.8141 6.0148 40.6266 6.41573C40.4172 6.86448 40.3281 7.38703 40.2849 7.8861C40.2526 8.25936 40.3798 8.64603 40.4265 9.02767C40.5028 9.6492 40.9065 10.2154 41.3145 10.259C42.3907 10.3739 42.8962 10.1298 43.132 9.31202C43.2566 8.88089 43.2889 8.42376 43.3839 7.8492Z" fill="currentColor"/>
    <path d="M53.361 4.21469C54.3635 4.11823 55.2481 4.34721 55.8943 5.09624C56.1488 5.39064 56.2582 5.81926 56.3879 6.20174C56.4575 6.40724 56.3184 6.54228 56.0809 6.53557C55.6297 6.52299 55.1768 6.53221 54.729 6.48692C54.6145 6.47518 54.4695 6.31078 54.422 6.1858C54.1192 5.39316 53.0565 5.31767 52.5103 5.76306C52.0998 6.09773 52.1448 6.69829 52.6265 6.93566C53.0489 7.14452 53.5238 7.25356 53.9801 7.38944C54.6578 7.59158 55.3397 7.76353 55.8935 8.24918C56.6907 8.94788 56.5652 10.4736 55.6806 11.1606C54.7477 11.8844 53.6434 12.0186 52.5383 11.8626C51.6359 11.736 50.7997 11.3518 50.3408 10.4652C50.3281 10.4409 50.2933 10.4241 50.2891 10.4006C50.2289 10.0978 50.1721 9.7942 50.1152 9.4914C50.3731 9.47211 50.6309 9.44863 50.8896 9.43437C51.0583 9.4243 51.228 9.43101 51.3967 9.42346C51.7317 9.4092 51.9743 9.45282 52.0744 9.86717C52.194 10.362 53.121 10.7261 53.6239 10.5298C53.9903 10.3864 54.4135 10.3159 54.444 9.78162C54.4661 9.39998 54.2905 9.14331 53.9767 9.02505C53.4526 8.82877 52.9013 8.70715 52.367 8.53772C51.6096 8.29783 50.8565 8.05039 50.4791 7.25272C50.2408 6.74946 50.4197 5.58272 50.7869 5.1734C51.4841 4.39251 52.3543 4.09139 53.361 4.21469Z" fill="currentColor"/>
    <path d="M17.5889 4.20057C18.2029 4.20057 18.794 4.1838 19.3826 4.21315C19.5132 4.21986 19.7151 4.36749 19.7482 4.48659C19.9933 5.37905 20.1926 6.28409 20.4292 7.17906C20.6302 7.93563 20.8626 8.68382 21.106 9.52007C21.3664 8.47664 21.5928 7.52882 21.8422 6.58688C22.0338 5.86302 22.2501 5.14587 22.4681 4.4304C22.4944 4.34316 22.597 4.21483 22.6665 4.21315C23.295 4.19638 23.9235 4.20309 24.6164 4.20309C24.1278 5.6072 23.6554 6.94252 23.2 8.28204C22.854 9.29864 22.5224 10.3194 22.1975 11.3427C22.1144 11.6044 21.9838 11.7462 21.6929 11.7361C21.3545 11.7244 21.0093 11.6917 20.6785 11.7437C20.2146 11.8166 20.0348 11.5935 19.9102 11.2094C19.4785 9.87655 19.0383 8.54542 18.5879 7.21764C18.2623 6.25808 17.9162 5.30524 17.5804 4.3482C17.5719 4.32471 17.5821 4.29452 17.5889 4.20057Z" fill="currentColor"/>
    <path d="M28.036 5.69951C28.0207 5.80603 27.9995 5.88739 27.9995 5.96792C27.9987 7.19672 27.997 8.42468 28.0038 9.65349C28.0063 10.0175 28.2455 10.2842 28.6017 10.2465C29.0045 10.2037 29.1648 10.369 29.2098 10.7246C29.2378 10.9444 29.2675 11.1641 29.2912 11.3839C29.3175 11.6196 29.2412 11.732 28.9672 11.742C28.639 11.7546 28.3057 11.9106 27.9885 11.8771C27.4126 11.8167 26.8334 11.7034 26.4161 11.2279C26.0183 10.7741 25.9047 10.2113 25.8843 9.656C25.8411 8.47081 25.864 7.28311 25.8758 6.09625C25.8792 5.79093 25.8258 5.64415 25.462 5.65589C24.7377 5.67854 24.7368 5.65589 24.7377 4.93455C24.7377 4.80873 24.747 4.68291 24.7377 4.55794C24.7173 4.28869 24.8301 4.19643 25.1066 4.19391C25.8708 4.1872 25.8708 4.17546 25.8708 3.40966C25.8708 2.28822 25.8708 2.28822 26.9928 2.28906C27.1336 2.28906 27.2761 2.28318 27.416 2.29325C27.8859 2.32596 27.9953 2.44758 27.9961 2.91897C27.9961 3.00285 27.9927 3.08673 27.9961 3.17061C28.0089 3.49018 27.913 3.89195 28.0733 4.10164C28.1946 4.26101 28.6432 4.18972 28.9469 4.19643C29.1776 4.20146 29.2938 4.28282 29.2709 4.51935C29.2361 4.88422 29.3302 5.36987 29.1292 5.57789C28.9435 5.7708 28.4431 5.66847 28.036 5.69951Z" fill="currentColor"/>
    <path d="M48.7733 5.80194C48.7733 7.27986 48.781 8.75778 48.7682 10.2349C48.7649 10.6358 48.7233 11.0401 48.6563 11.4351C48.6376 11.5467 48.4739 11.7103 48.3679 11.717C47.9049 11.748 47.4367 11.748 46.9736 11.717C46.871 11.7103 46.6946 11.5282 46.6963 11.4284C46.7234 9.63262 46.7828 7.83764 46.8125 6.04183C46.8379 4.52281 46.8354 3.00295 46.843 1.4831C46.8464 0.900987 46.8439 0.899309 47.4477 0.915246C47.7717 0.923634 48.0965 0.965573 48.4188 0.948797C48.7487 0.931183 48.8259 1.07126 48.8234 1.36734C48.8132 2.84526 48.8191 4.32318 48.8191 5.8011C48.8039 5.80194 48.7886 5.80194 48.7733 5.80194Z" fill="currentColor"/>
</svg>
