<svg viewBox="0 0 703.85 121.18" xmlns="http://www.w3.org/2000/svg"><path d="m297 132.57 44.39-44.38a6.22 6.22 0 0 0 0-8.8l-44.39-44.39" fill="none" stroke="currentColor" stroke-width="13.05" transform="translate(0 -29.1)"/><path d="m55.79 39-44.39 44.39a6.22 6.22 0 0 0 0 8.8l44.39 44.38" fill="none" stroke="currentColor" stroke-width="11.05" transform="translate(0 -29.1)"/><g fill="currentColor"><rect height="20" rx="3" width="20" x="40" y="5.9"/><rect height="20" rx="3" width="20" y="48.9"/><rect height="20" rx="3" width="20" x="40" y="91.9"/><path d="m154 29.14v96.86h-15.69v-9a25.12 25.12 0 0 1 -10.05 7.44 33.14 33.14 0 0 1 -13 2.48 37.1 37.1 0 0 1 -18.15-4.44 32.05 32.05 0 0 1 -12.53-12.53 38 38 0 0 1 -4.58-18.8 37.27 37.27 0 0 1 4.57-18.67 32.12 32.12 0 0 1 12.49-12.48 37.1 37.1 0 0 1 18.15-4.44 33.07 33.07 0 0 1 12.66 2.35 25.34 25.34 0 0 1 9.79 7v-35.77zm-36.83 83.86a21.3 21.3 0 0 0 10.57-2.62 19.76 19.76 0 0 0 7.44-7.7 23.29 23.29 0 0 0 2.74-11.48 23.33 23.33 0 0 0 -2.74-11.49 18.9 18.9 0 0 0 -7.44-7.57 21.78 21.78 0 0 0 -21.15 0 18.9 18.9 0 0 0 -7.44 7.57 23.33 23.33 0 0 0 -2.74 11.49 23.29 23.29 0 0 0 2.74 11.48 19.76 19.76 0 0 0 7.44 7.7 21.31 21.31 0 0 0 10.58 2.62zm58.15-56.66h16.32v69.66h-16.32zm103 0-29.89 69.66h-16.83l-29.9-69.71h17l21.64 51.71 22.32-51.7z" transform="translate(0 -29.1)"/><path d="m398.77 120.21a.39.39 0 0 0 -.15.28c0 .09 0 .14-.13.14s-.28-.14-.28-.42.14-.28.41-.28.38.07.15.28zm.55 0q1.13-2 .84 1.26a40.18 40.18 0 0 1 -.56 4.89q-.14 1.26-.42 1.26c-.37 0-.51-.56-.41-1.68a7.37 7.37 0 0 0 .13-1.4 9.93 9.93 0 0 1 .28-1.25c0-.84-.18-1.31-.56-1.4s-.55-.1-.55 0l.28.7c.18.46.14.51-.14.14a1 1 0 0 1 -.7-1q0-.28.42-.42c.37-.19.65-.14.84.14a.39.39 0 0 1 .28.14h.41c.19 0 .19-.1 0-.28a1 1 0 0 1 -.14-1.1zm1.68 6.57q.42-.15.42.42a.37.37 0 0 1 -.42.42.25.25 0 0 1 -.28-.28.78.78 0 0 1 .28-.56zm51.13 16.34c-.18-.28-.14-.42.14-.42a.37.37 0 0 1 .42.42.36.36 0 0 1 -.14.28.46.46 0 0 1 -.42-.28zm-50.71-20.12c.28 0 .42.33.42 1s-.14.84-.42.84-.42-.28-.42-.84.14-1 .42-1zm50.58 10.62q6.43 8 6.15 8.53c0 .09-.23-.05-.7-.42a12.61 12.61 0 0 1 -1.25-1.12 12.82 12.82 0 0 1 -1.12-1.26 2.18 2.18 0 0 1 -.56-1 3.59 3.59 0 0 0 -.7-1 18.59 18.59 0 0 0 -1.54-1.68l-.83-.84a2 2 0 0 1 -.42-.56c.56.75.69 1.12.42 1.12-.1 0 0 .14.27.42a10 10 0 0 1 .7.84c.47.46.94 1 1.4 1.53a11.54 11.54 0 0 1 1.4 1.68c.46.56.84 1 1.12 1.4a4.33 4.33 0 0 1 .55 1.81c0 .38 0 .56-.14.56s-.13 0-.41-.28a.79.79 0 0 0 -1-.14c-.28.19-.52.1-.7-.28-.09-.09-.14 0-.14.14a.64.64 0 0 1 -.42.7c-.19.09-.28 0-.28-.28a54.08 54.08 0 0 0 -4.19-5.31 3.67 3.67 0 0 1 -1.26-1.39c-.18-.28-.32-.52-.42-.7s-.37-.42-.56-.42c-.46 0 .05.84 1.54 2.51a9.69 9.69 0 0 1 1.4 2.1c0 .65.18.88.56.7.18 0 .23.28.14.84q-.15.56.42.42c.27-.1.42 0 .42.14s-.1.27 0 .55l.55.84.7.7c.19.19.33.23.42.14s.19-.09 0 .28c0 .19-.14.37-.42.56l-.84.56c-.65.46-1 .79-1 1s-.19.28-.56.28-.56.13-.56.41-.19.42-.56.7a9.48 9.48 0 0 1 -1 .84 7.14 7.14 0 0 1 -1.12.7c-.37.28-.6.37-.69.28l-.77-.22c-.19 0-.56-.33-1.12-1a28.65 28.65 0 0 1 -2-2.23l-3.32-3.77q-2.1-2.37-4.05-4.75t-3.91-4.33c-1.21-1.39-2.05-2.37-2.52-2.93a20.11 20.11 0 0 1 -1.81-2.24c-.75-.93-1.45-1.77-2.1-2.51q-1.82-2-4.05-4.75-2.1-2.94-5.87-8.11c-1.3-1.67-2.33-3-3.07-4s-1.35-1.86-1.82-2.51l-1.12-1.54a8 8 0 0 0 -.56-1c-.65-1-1.11-1.58-1.39-1.67s-.75-.1-1.4.28a2.74 2.74 0 0 0 -.84 1.39c-.09.38-.32 1.49-.7 3.36a5.9 5.9 0 0 1 -.14 1.25 4.34 4.34 0 0 0 -.14 1c-.09.28-.23.93-.42 2s-.37 2.14-.55 3.35-.38 2.33-.56 3.35-.14 1.45-.14 1.54a.13.13 0 0 1 -.14.14 5 5 0 0 1 -.28-2.37c.09-1.4.28-3 .56-4.75.18-.84.32-1.59.42-2.24s.09-1 0-1.12c-.28-.28-.24-.42.14-.42.18 0 .28-.56.28-1.67.18-1.21.09-1.82-.28-1.82-.19 0-.28.23-.28.7s-.14.7-.42.7-.19.23 0 .7c.18.65.23 1 .14 1.11a7.25 7.25 0 0 0 -.56 2.24 30.9 30.9 0 0 1 -.42 3.35c0 1.21-.19 1.91-.56 2.1s-.37.37 0 .56.33.51.14 1-.42.61-.7.42a1.42 1.42 0 0 0 -1 .28c0 .19 0 .24-.14.14a1.17 1.17 0 0 1 .14-.42c.1-.56 0-.83-.28-.83-.37.18-.46.51-.28 1 0 .47-.09.7-.28.7s-.37-.56-.27-1.67 0-1.63-.14-1.54-.1-.33.28-1a2 2 0 0 0 .41-2.1 6.38 6.38 0 0 1 -.13-2.37 4.26 4.26 0 0 1 .69-2.24 4.38 4.38 0 0 0 .42-1.67.62.62 0 0 0 -.7-.7c-.37 0-.56.09-.56.28s-.23.42-.69.42-.47.14-.28.42a1.42 1.42 0 0 1 -.28 1q-.57.55 0 .27a.45.45 0 0 1 .7.14c.18.19.14.47-.14.84a3.23 3.23 0 0 0 -.7 1.26c-.09.56-.05.75.14.56.37-.37.56-.37.56 0a.37.37 0 0 1 -.42.42c.09 0-.09.23-.56.7a1.32 1.32 0 0 1 -.14.56 1.61 1.61 0 0 0 -.28.41c0 .28.09.38.28.28.37-.28.37-.09 0 .56a1 1 0 0 1 -1 .7c-.28 0-.28.19 0 .56.47.19.56.89.28 2.1a9.57 9.57 0 0 1 -.7 2c-.37.38-.46.33-.28-.14s.19-.65 0-.84c-.28 0-.42.24-.42.7s.14.84.42.84.28.19-.28.56c-.37.37-.46.56-.28.56.84-.09 1.17.14 1 .7-.37 1-.7 1-1 0-.09-.28-.18-.19-.28.28s.19.69.56.69.56.29.28.84a3.41 3.41 0 0 1 -.14.84 4.27 4.27 0 0 0 -.14 1 2.94 2.94 0 0 1 -.14 1v.42c0 .09-.23.14-.69.14s-.66-.19-.56-.84a1.29 1.29 0 0 0 .14-.56.56.56 0 0 1 .28-.56c.55-.37.65-1.12.27-2.24s-.83-1.25-1.67-.41a1.55 1.55 0 0 0 -.56 1c0 .19.23.19.7 0s.65.19.56.84a12.11 12.11 0 0 0 -.28 2.38 1 1 0 0 1 -1.12 1.11 12.72 12.72 0 0 0 -2.24.28 4 4 0 0 1 -2.65-.42c-.84-.27-1.35-.46-1.54-.55a3.35 3.35 0 0 1 0-1.4q.57-4.76.7-6.57c.19-1.21.33-2.23.42-3.07.09-.47.19-1.07.28-1.82s.19-1.44.28-2.09c.46-3.08.79-5.68 1-7.83s.32-3.49.14-3.77c-.19-.56-.38-.84-.56-.84a1.67 1.67 0 0 1 -.84-.42 11.9 11.9 0 0 1 -1.12-1l-1-1.26a2.6 2.6 0 0 1 -.42-1 1 1 0 0 1 .42-.84 14.5 14.5 0 0 1 2.1-.7c1.68-.65 2.56-1.21 2.65-1.67a8.73 8.73 0 0 0 .7-2.8q.42-2.51.84-5.72.71-3.36 1.54-8.11t1.56-8.48l1.67-8.24-1.1-.86a4.64 4.64 0 0 0 -.69-.56c-.19-.19-.28-.33-.28-.42s-.33-.61-1-1.26a5.35 5.35 0 0 0 -1.68-1.25 18.93 18.93 0 0 1 -1.54-1.12c-.74-.65-1.58-1.45-2.51-2.38a36 36 0 0 1 -2.87-2.91 1.69 1.69 0 0 1 -.14-1.54 7.1 7.1 0 0 1 2.23-2.37 35.62 35.62 0 0 1 4.75-3.08 52.08 52.08 0 0 1 6-2.79 43.88 43.88 0 0 1 6.43-2.24q2.65-.69 5.72-1.25c2.15-.38 4.24-.66 6.29-.84s4.15-.28 6-.28a23.47 23.47 0 0 1 4.61.14 20.3 20.3 0 0 1 5 1.67 19.34 19.34 0 0 1 4.89 2.8 36.27 36.27 0 0 1 3.22 2.93c1.4 1.31 2.8 2.7 4.19 4.19s2.7 2.94 3.92 4.34a26.33 26.33 0 0 1 2.37 2.79 13 13 0 0 1 2 3.91 17.45 17.45 0 0 1 .69 4.05q.28 6.28-4.19 12.58-4.36 6.14-13.98 12.89l-2.37 1.68c-.93.56-1.91 1.16-2.94 1.81s-1.81 1.26-2.65 1.82-1.44.79-1.82 1c-.84.46-1.49.84-1.95 1.11a1.3 1.3 0 0 0 -.84.7 2.37 2.37 0 0 0 .42 1.12 12.71 12.71 0 0 1 1.36 1.76c.56.74 1.26 1.72 2.1 2.93s1.58 2 2.24 2.79 1.35 1.92 2.37 3.22 2.1 2.47 2.93 3.49l3.78 4.61q2.5 2.94 4.61 5.59t3.63 4.47c.93 1.12 1.77 2.1 2.51 2.94s1.59 1.81 2.24 2.65 1.44 1.82 2.38 2.93zm-58.11-76.7.14-.28c0-.18-.14-.28-.42-.28s-.19.1 0 .28c0 .28.09.42.28.42zm-1.4 61.61c0-.28-.09-.42-.28-.42s-.28.14-.28.42a.4.4 0 0 0 .14.28c.08 0 .22-.09.41-.28zm1.67 2.66a2.74 2.74 0 0 0 .14-1.54q0-.84-.27-.84a.37.37 0 0 0 -.42.42v.56a4 4 0 0 1 -.14.84c-.1.56 0 .93.14 1.12s.39-.1.54-.56zm0-3.77c.38 0 .56-.1.56-.28a.42.42 0 1 0 -.83 0c-.11.18-.01.28.26.28zm6-3.92c.19-.18.14-.28-.14-.28s-.42.1-.42.28v.28a.12.12 0 0 0 .14.14q.15 0 .42-.42zm.7-3.35c.09-.46.09-.7 0-.7l-.28.42a2.76 2.76 0 0 0 -.56 1.4c0 .47.1.61.28.42a5.38 5.38 0 0 0 .56-1.54zm.14-2.37c.28-.47.28-.79 0-1-.19-.47-.28-.37-.28.28s.09.94.28.72zm1.54-30.6c-.37.37-.52.61-.42.7a2.49 2.49 0 0 0 1-.42c.28-.28.37-.47.28-.56s-.3-.09-.86.28zm.56 4.75c.28 0 .42-.05.42-.14l-.42-.42a.28.28 0 1 0 0 .56zm.55 23c.1 0 .15-.18.15-.56-.19-.56-.28-.51-.28.14v.56c.09.14.13.1.13-.07zm.7-28.64c0-.46 0-.6-.14-.42-.28 0-.41.24-.41.7s0 .56.13.56a2.74 2.74 0 0 0 .42-.79zm2.38 25.15c0-.19-.14-.28-.42-.28s-.47-.09-.56 0-.05.28.42.28zm19.14-15.93c.09-.37.05-.51-.14-.42s-.37.19-.56.56 0 .42.28.42c.09.05.23-.13.42-.51zm-11.6-5.73q13.56-8.52 19.42-15.08 6-6.57 6-13.14c0-1.3-.28-2.14-.84-2.51s-1.68-.89-3.63-1.26q-5.44-.84-14.39.7a29.89 29.89 0 0 0 -4.75 1.12 1.2 1.2 0 0 0 -1 1.26 17.79 17.79 0 0 1 -.28 2.09c-.19 1.12-.46 2.52-.84 4.19s-.6 3.31-1 5.17-.75 3.63-1.12 5.31-.75 3.54-1.12 5.31-.7 3.4-1 4.89-.51 2.7-.7 3.63-.28 1.4-.28 1.4c0 .18.28.14.84-.14s2.27-1.3 4.69-2.89zm27 49.6c.56.28.65.09.28-.56a7.18 7.18 0 0 1 -.7-.83 2.34 2.34 0 0 0 -.7-.7l-1-1 .84 1a2 2 0 0 1 .7 1.39c-.01.52.17.75.55.75zm5.44 5.73a.4.4 0 0 1 -.13-.28.38.38 0 0 1 -.14-.28 1.17 1.17 0 0 0 -.14-.42 14.85 14.85 0 0 1 -1-1.12c-.47-.55-.93-1.07-1.4-1.53a8.15 8.15 0 0 0 -1.4-1.4c-.09-.09.05.14.42.7a8.19 8.19 0 0 0 .7 1.12 8.5 8.5 0 0 0 .7.84c.47.46.7.74.7.83 0 .28.23.65.7 1.12s.78.66.96.47zm.84-5c.19 0 0-.33-.69-1a2.85 2.85 0 0 1 -.7-.56l-.28-.28c-.19 0 0 .28.56.84s.8 1.02 1.08 1.02zm6.71 11.74a.83.83 0 0 0 -.56-.56c-.19 0-.28.14-.28.42a.62.62 0 0 0 .7.7c.25.02.3-.17.11-.54zm-5.31-9.78c.47.56.75.83.84.83s-.09-.27-.56-.83a4.28 4.28 0 0 0 -.56-.7c-.09-.1-.19-.19-.28-.28-.31.02-.12.34.53 1zm7.71-.56c-.19 0-.28-.28-.28-.84a3.22 3.22 0 0 0 .14-1 1.62 1.62 0 0 1 .14-.7c0-.46.09-.7.28-.7s.19.24 0 .7a2.39 2.39 0 0 0 -.14.7v.7a1.59 1.59 0 0 1 -.17 1.16zm10-9.79a.31.31 0 0 1 -.35-.35c0-.08.11-.12.35-.12.16.16.24.27.24.35s-.07.14-.23.14zm-7 14.68c.19 0 .28.14.28.42s-.14.28-.42.28c-.09.09-.14 0-.14-.28l.14-.28a.12.12 0 0 1 .18-.12zm24-81.68c0 .47 0 1.34-.12 2.6s-.2 2.56-.36 4.14-.23 3.07-.47 4.72-.35 3.11-.59 4.38q-.94 6.38-1.54 10.28c-.31 2.6-.59 4.53-.82 5.79s-.4 3-.71 5.2-.59 4.21-.83 6a16.72 16.72 0 0 0 -.35 1.66 7 7 0 0 0 -.12.94 3.71 3.71 0 0 0 -.24 1.06c-.16.87-.31 1.86-.47 3s-.28 1.85-.36 2.24a1.18 1.18 0 0 1 -.23.36v.35a.92.92 0 0 0 -.12.36 1.08 1.08 0 0 1 0 .71c0 .15-.08.19-.24.11-.31-.15-.39-.35-.23-.59s-.12-.47-.59-.47-.71.2-.71.59a.92.92 0 0 0 -.12.36c.08 0 .12 0 .12.11v.12c.15 0 .23.16.23.48s-.08.47-.23.47c-.32 0-.32.08 0 .23q0 .48-.24.48a.52.52 0 0 0 -.12.59c.16.16.08.23-.23.23a.48.48 0 0 0 -.48.24 2.68 2.68 0 0 0 0 1.18c.16.87.16 1.3 0 1.3s-.19.32-.35 1a1.85 1.85 0 0 1 -.24 1.18c-.23 0-.35-.63-.35-1.89a3.51 3.51 0 0 0 0-1.42c-.08-.16-.24-.12-.47.12a4.37 4.37 0 0 0 -.24 1.42c0 .63-.12.94-.36.94s-.23-.31-.23-.94l.23-.83a1 1 0 0 0 .24-.71c0-.39-.08-.51-.24-.35s-.31 0 0-.48l.24-.47q.12 0 .36.24c.23.39.47.31.7-.24a2.59 2.59 0 0 0 -.11-1.06c-.08-.08-.12 0-.12.23s-.16.36-.47.36-.36-.2-.12-.59c.31-.79.27-1.07-.12-.83s-.47.12-.47-.12.15-.35.47-.35.27-.24-.12-.71a1.21 1.21 0 0 1 -.24-1.18q.48-.36.48 0c0 .23.08.35.23.35s.32-.31.24-.94a3.73 3.73 0 0 0 -.35-1.42q-.36-.36-.12-.36c.15 0 .39-.23.71-.71s.19-.82-.12-.82-.47.23-.47.71c-.08.23-.12.31-.12.23a1.92 1.92 0 0 0 -.12-.47c0-.71.16-1.06.47-1.06s.36-.08.36-.24v-.35a1.2 1.2 0 0 0 .11-.48c.08-.15.08-.23 0-.23a.14.14 0 0 0 -.23 0c-.16.15-.24 0-.24-.48s.2-1.61.36-3.42c.07-.55 0-.71-.24-.48a1.63 1.63 0 0 0 -.35 1.19c0 .47-.12.67-.36.59s-.16.19 0 .59c0 .39-.08.59-.24.59s-.27.23-.11.71.08.63-.24.47c-.16-.16-.28-.2-.35-.12l.11.12a.86.86 0 0 1 -.11.95c-.71.86-.71 1.14 0 .82.31-.15.39-.08.23.24s-.31.51-.47.35-.24 0-.24.59a1.34 1.34 0 0 0 .48 1c.07.31 0 .51-.24.59s-.39.59-.24 1.3c.16.87.12 1.18-.12 1a.42.42 0 0 0 -.59 0c0 .23.08.35.24.35s.2.16.35.47-.11.48-.35.24c-.16-.08-.2.2-.12.83s0 .82-.12.82-.27-.11-.35.12a.75.75 0 0 0 0 .59q.12.36-.24.24a.81.81 0 0 1 -.35-.47c-.16-.24-.24-.16-.24.23a1.07 1.07 0 0 0 .12.48.39.39 0 0 0 .36.23c.15.16 0 .24-.48.24a1.7 1.7 0 0 1 -1.06-.36c-.24-.23-.2-.39.12-.47a.55.55 0 0 0 .35-.59c0-.32.08-.47.24-.47s.19-.08.12-.24-.12-.31-.36-.47c-.23-.32-.39-.43-.47-.36a9.51 9.51 0 0 1 -.24 1.07 13.22 13.22 0 0 0 -.23 2.48 5.91 5.91 0 0 1 -.12 1.18 1.62 1.62 0 0 1 -.12.71 1.25 1.25 0 0 0 -.12 1.18c.16.47.12.71-.12.71s-.31.55-.47 1.42a23.71 23.71 0 0 0 -.35 3.07q-.24 1.65-.36 2.13c-.08.23-.23.23-.47 0s-.63-.12-.71.35q-.36.7.12.36a1.36 1.36 0 0 1 .71.11c.23.16.08.28-.48.36a1.41 1.41 0 0 0 -.94.94q.12.48.12.36c0-.24.19-.47.59-.71s.47.2.47 1.3a6.53 6.53 0 0 1 -.12 1.3v.71c-.47.63-.78.39-.94-.71 0-.63-.12-1-.36-1s-.27.2-.35.83v.83a2.64 2.64 0 0 1 -.12.83 4.29 4.29 0 0 0 -.12 1.06 3 3 0 0 1 -.12.94 2.88 2.88 0 0 1 -.11.83 3.58 3.58 0 0 1 -.24.71c-.16.08-.24.28-.24.59s.08.4 0 .47c-.23.08-.27.36-.12.83s.08.59-.23.59-.36.2-.12.59q.12.36-.12.36c-.08.08-.39.08-.94 0a2.61 2.61 0 0 0 -1.66.35 1 1 0 0 1 -.71.24 1.11 1.11 0 0 1 -.82-.36c-.32-.31-.28-.47.11-.47s.36-.16.12-.47c-.39-.55-.23-.75.48-.59.31.23.35.12.11-.36s-.23-.82 0-1.06.24-.2 0-.12-.31-.27-.23-1.3a5.91 5.91 0 0 1 .12-1.18 3.74 3.74 0 0 0 .11-.71 4.07 4.07 0 0 0 0-3.07c-.08-.32-.15-.71-.23-1.18v-1.42a8.92 8.92 0 0 1 .23-.95c.08-.23.2-.27.36-.11a1.05 1.05 0 0 1 0 .7.21.21 0 0 0 .23.24c.16 0 .24-.31.24-.94-.16-.63-.31-1-.47-1v-.24a.35.35 0 0 0 -.12-.23 1 1 0 0 1 .12-.47c0-.24 0-.83.12-1.78s.31-2.12.47-3.31c.16-1.41.27-2.4.35-3s.32-1 .48-1h.35c0-.31-.12-.47-.35-.47a49.41 49.41 0 0 1 .35-5.55c.16-1.5.32-2.88.47-4.14s.24-2 .24-2.36c.08-.71.24-1.81.47-3.31s.44-3 .59-4.61.44-3 .59-4.37.28-2.29.36-2.84.39-2 .71-4.25.67-4.53 1.06-7q.6-3.9 1.18-7.57c.4-2.44.75-4.68 1.07-6.73s.59-3.78.82-5.2.44-2.52.59-3.07a3.43 3.43 0 0 1 .48-1.42 1.68 1.68 0 0 1 .94-.35 5.9 5.9 0 0 1 2.37 0 6.91 6.91 0 0 1 2.59.7c.87.56 1.38.67 1.54.36s.51-.08 1.3.47a3.8 3.8 0 0 0 .95.59c.15 0 .31-.16.47-.47s.39-.55.71-.47a13 13 0 0 1 2.83.94c.32.08.6.44.83 1.07a6.26 6.26 0 0 1 .39 2.32zm-25.24 69.52c.09-.46.09-.7 0-.7s-.14 0-.42.28l-.28.56q-.15.15 0 .42l.28.56a4.09 4.09 0 0 0 .45-1.1zm1.11-8.94c.19-.37.1-.46-.28-.28-.37 0-.55.1-.55.28s.13.42.41.42a.37.37 0 0 0 .45-.4zm0-2.23c.1 0 .14-.1.14-.28s-.09-.42-.28-.42-.32.23-.14.42c0 .18.05.28.14.28zm3.78-2.66c.18-.18.14-.28-.14-.28s-.42.1-.42.28.09.42.28.42h.14v-.14zm1.67 2.24a.86.86 0 0 0 .56.28q.29-.15 0-.42c0-.28-.18-.42-.56-.42s-.25.2.02.58zm1.54-10.06c.19 0 .28-.14.28-.42s-.05-.42-.14-.42l-.42.42c.03.3.12.44.31.44zm0 1.88q.36-.48 0-.12a1.13 1.13 0 0 1 -.83.12c-.07-.08-.11-.08-.11 0l.11.12c.19.49.47.41.86-.1zm1.66.12c.07-.32.23-.48.47-.48s.24-.07.24-.23l-.24-.12h-.47c-.16 0-.24.2-.24.59q.06 1.21.27.26zm.59 1.06a.65.65 0 0 0 .47.24c.16-.08.24-.28.24-.59s-.16-.36-.48-.12-.36.33-.2.49zm3.9-10.52c-.16.95-.16 1.3 0 1.07.15-.08.27-.32.35-.71a9.26 9.26 0 0 0 .12-1.54 7.76 7.76 0 0 0 .12-1.3c0-.39 0-.59-.12-.59s-.24.28-.24.83a6.89 6.89 0 0 1 -.12 1.06 6.64 6.64 0 0 1 -.08 1.2zm.82 12.41q.12-.12 0-.12c0-.08-.08 0-.23.12q-.48.12-.48.24t.24.12c.35.02.5-.1.5-.34zm.24-1.77q.12-.12 0-.12t-.24 0c-.31.08-.47.2-.47.36s.12.11.35.11.39-.12.39-.33zm-.24-13.94q.12 0 .12-.36c0-.16-.12-.24-.35-.24s-.28.08-.12.24.23.38.38.38zm.12-1.54c.16-.08.24-.28.24-.59 0-.47-.08-.71-.24-.71-.16-.16-.24 0-.24.59s.11.73.27.73zm2.39 10.89c-.23 0-.35.08-.35.24a.31.31 0 0 0 .35.35c.16 0 .32-.12.48-.35q0-.36-.48-.24zm-1.89-15.72c-.31.32-.35.59-.11.83s.27.32.35.24a1.16 1.16 0 0 0 .24-.83 1.76 1.76 0 0 1 -.24-.71.11.11 0 0 0 -.12.12.35.35 0 0 1 -.12.24zm-.11 2.37a.7.7 0 0 0 .35.35c.24.08.35 0 .35-.12s-.11-.19-.35-.35-.43-.04-.35.12zm2 15.17c.24-.15.2-.23-.11-.23s-.63.31-.71.94c.08.16 0 .36-.24.59s-.31.24 0 .24.32.27.24.83a1.91 1.91 0 0 1 -.24 1.06.94.94 0 0 0 -.35.59c0 .16.15.24.47.24a.93.93 0 0 0 .83-.36 1.73 1.73 0 0 0 .23-.71 5.83 5.83 0 0 0 .12-1.18 4.93 4.93 0 0 0 -.12-1.18c-.08-.32-.19-.47-.35-.47a.11.11 0 0 1 -.12-.12 1.51 1.51 0 0 1 .35-.24zm.12-.59c.32 0 .48-.12.48-.35s-.16-.16-.48 0a.33.33 0 0 0 -.23.12h-.12l-.12.11c0 .03.16.07.47.07zm.48-2.24c.23 0 .35-.24.35-.71a1 1 0 0 0 -.47-1q-.36 0 0 .24t.12.24c-.24 0-.36.23-.36.7q0 .48.36.48zm.59-2.72c.15-.39.11-.55-.12-.47s-.36.19-.59.59-.24.67.23.59a.77.77 0 0 0 .48-.76zm1.3-11c0-.32-.08-.47-.24-.47s-.28.15-.12.47.28.47.36.47zm-2.6 22.92c.15 0 .19.56.11 1.66a2.73 2.73 0 0 1 -.47 1.89c-.16.31-.23.23-.23-.24a1.52 1.52 0 0 0 -.12-.94 1.17 1.17 0 0 1 .23-1.18c.24-.56.32-.87.24-1s-.08-.23.24-.23zm-9.46 13.36c0-.4.12-.63.36-.71s.39.08.47.47 0 .47-.35.47c-.32.12-.48.04-.48-.27zm5.68-5.2c0-.4.11-.44.35-.12a2.05 2.05 0 0 1 .24.94q0 .36-.24.12a1.24 1.24 0 0 1 -.35-.98zm-5.56 1.89a.63.63 0 0 1 .47-.71c.32-.16.52 0 .6.35a.42.42 0 0 1 -.48.48c-.39.11-.59.07-.59-.16zm-.23 4.37c.15-.16.35-.16.59 0q.12 0 0 .12h-.71q-.12-.16.12-.16zm8.74-9.57c0-.4.08-.51.24-.36s.19.24.11.48c-.23.66-.35.66-.35-.16zm-4.61 7.56q.24-.24.24-.12v.71c0 .71-.08 1.07-.24 1.07s-.24-.16-.24-.48a3.84 3.84 0 0 1 .24-1.22zm.95 5.32c.15-.16.27-.2.35-.12s0 .08-.12.24c-.31.86-.63.9-.94.12q-.36-.36.12-.12c.07.04.27 0 .59-.16zm-.12-8.75q-.12.72-.36.12a2.93 2.93 0 0 1 .24-1.89l.24-1.18.11 1.06a7.64 7.64 0 0 1 -.23 1.85zm1.18 1.07c.24 0 .2.39-.12 1.18-.16.79-.23 1.22-.23 1.3s.07.59-.24 1.3l-.47 1.06.11-1.3a5.29 5.29 0 0 0 .12-1.06 3.58 3.58 0 0 1 .24-.71.68.68 0 0 0 .12-.47v-1.77q.12-.24.12 0c.15.27.27.43.35.43zm2.13-2.13c.08 0 .11.08.11.24s-.27.35-.35.35a.11.11 0 0 1 -.12-.12v-.23q0-.28.36-.28zm-4.14 2.84q0-.36.24-.12c.23.16.35.27.35.35s-.12.12-.35.12-.24-.16-.24-.39zm-2.95-3.9c.23 0 .43.15.59.47s.19.63.12.71-.16.2-.48.35-.63.12-.71-.11a.91.91 0 0 1 .12-.71q.12 0 .12-.48c-.08 0-.12 0-.12-.11a.49.49 0 0 1 .36-.16zm-3.33 12c.28-.28.47-.32.56-.13s.19.46 0 .83-.46.28-.56 0c-.28-.24-.28-.48 0-.76zm-.83 4.2c-.1-.56 0-.7.27-.42a1.24 1.24 0 0 1 .28 1.39c-.09.47-.28.75-.55.84s-.28-.09-.28-.56c0-.28.09-.42.28-.42.37-.06.37-.34 0-.89zm4.87-19.85c.23 0 .35.08.35.24a3.41 3.41 0 0 1 .12 1.18c-.08 1.66-.36 2.21-.83 1.66-.16-.48-.23-.52-.23-.12a.42.42 0 0 1 -.48.47c-.23 0-.35-.08-.35-.24a.94.94 0 0 1 .12-.35c.08-.16.15-.32.23-.47.32-.32.48-.55.48-.71-.08-1.16.11-1.72.59-1.72zm-5 22.36c.28.09.37.37.28.84s-.33.7-.7.7a.25.25 0 0 1 -.28-.28 2.9 2.9 0 0 1 .14-1c.17-.32.35-.41.55-.32zm.84-5.31a.37.37 0 0 1 .41.42c0 .19-.14.28-.41.28s-.43-.09-.43-.28a.38.38 0 0 1 .38-.48zm102.16-74.8a36.07 36.07 0 0 1 6 15.78q.84 7.83-2.52 17.75a64.09 64.09 0 0 1 -4.19 10.2 67.2 67.2 0 0 1 -5.59 9.08 56 56 0 0 1 -6.28 7.54 42.1 42.1 0 0 1 -6.71 5.31 18.37 18.37 0 0 1 -3.63 2 2.16 2.16 0 0 1 -1.54 0c-.28-.28-.42-.19-.42.28s-.56.88-1.67 1.25a27.37 27.37 0 0 1 -6.85 1.68 19.08 19.08 0 0 1 -6.15-.14 26.9 26.9 0 0 0 -2.93-.7c-1.4-.28-2.75-.51-4-.7q-4.2-.84-6.85-1.39a46 46 0 0 1 -4.47-1.4 29 29 0 0 1 -2.93-1.4 23.25 23.25 0 0 1 -2.38-2.09 22.49 22.49 0 0 1 -2.51-3.08q-1.26-1.82-2.38-3.77c-.65-1.4-1.25-2.75-1.81-4a22.51 22.51 0 0 1 -1-3.49 6.1 6.1 0 0 0 -.28-2c-.19-.74-.37-1.77-.56-3.07a44.1 44.1 0 0 1 0-4.89 66.17 66.17 0 0 1 2-14.53 77.67 77.67 0 0 1 4.89-14.25 66.71 66.71 0 0 1 7.26-12.3 42.2 42.2 0 0 1 9.08-9.08 35.29 35.29 0 0 1 7.83-4.47 20.5 20.5 0 0 1 7.68-1.4h2.23a8.08 8.08 0 0 1 1.54.14 4.56 4.56 0 0 1 1.4.56 15.88 15.88 0 0 1 2 .84 46.33 46.33 0 0 0 4.9 2c1.67.55 3.44 1.07 5.3 1.53a19.11 19.11 0 0 1 8.25 3.77 34.6 34.6 0 0 1 7.29 8.44zm-59.79 37.58c.28 0 .41-.19.41-.56 0-.19-.13-.28-.41-.28s-.28.19-.28.56.09.47.28.28zm.56-3.35c.37 0 .55 0 .55-.14s-.14-.33-.42-.42a.26.26 0 0 0 -.41.14c-.19.28-.1.42.3.42zm3.77 1.11c.18 0 .28-.14.28-.42s0-.41-.14-.41-.33.13-.42.41.09.42.28.42zm44.56-20.25v-3.36a10.14 10.14 0 0 0 -.28-2.51 13 13 0 0 0 -.42-2.24 11.75 11.75 0 0 0 -.83-2.09c-.1-.19-.24-.52-.42-1s-.38-1-.56-1.54a23.41 23.41 0 0 0 -2.24-4.18 32.63 32.63 0 0 0 -2.93-4.47l-1.54-2-2 .14q-4.47.42-9.92 4.33a48.69 48.69 0 0 0 -9.78 9.78 65.79 65.79 0 0 0 -3.77 5.59 45.24 45.24 0 0 0 -2.94 5.73 68 68 0 0 0 -5.68 22.12q-.69 10.77 3.08 18.31c.28.56.6 1.21 1 2s.93 1.45 1.39 2.1a19.64 19.64 0 0 1 1.4 1.53c.37.47.61.7.7.7a3.56 3.56 0 0 0 .84-.14 8.57 8.57 0 0 0 1.67-.56c.56-.18 1.17-.37 1.82-.55a10.41 10.41 0 0 0 1.4-.7l1.39-.56a3.9 3.9 0 0 0 1-.56q1-.55 2.1-1.26l2.51-1.67c.84-.66 1.58-1.21 2.24-1.68a48.94 48.94 0 0 0 8.38-8.52 67.11 67.11 0 0 0 6.85-11.88 70.27 70.27 0 0 0 4.19-11.31 34.57 34.57 0 0 0 1.35-9.55zm6.29 23.47c0-.28-.09-.42-.28-.42a.55.55 0 0 0 -.56.42c0 .18 0 .28.14.28.38 0 .61-.1.7-.28zm.56-1.26a1.14 1.14 0 0 0 .28-.84c0-.37-.09-.46-.28-.28a1.72 1.72 0 0 0 -.28.7c0 .29.12.42.28.42zm2.51-6.29a2.41 2.41 0 0 0 .28-1.12c-.09-.18-.18-.14-.28.14a2.48 2.48 0 0 0 -.41 1.12c0 .28.14.23.41-.14zm1.4-5.17c.19-.74.23-1.11.14-1.11s-.09 0-.28.41a3.92 3.92 0 0 0 -.7 2c0 .75-.09 1.12-.28 1.12-.18.37-.23.6-.14.7s.42 0 .7-.56a8.27 8.27 0 0 0 .56-2.56zm.7-2.79a9 9 0 0 0 .28-2.66 2.41 2.41 0 0 0 -.14-1v.14c-.19.65-.37 1-.56 1.11a4.4 4.4 0 0 1 -.14.7 6.36 6.36 0 0 0 .14 1.12c.09 1.24.23 1.43.42.59zm3.63 2.65c.1 0 .24-.28.42-.83s.14-.7-.14-.7c-.09 0-.23.23-.42.7s-.14.83.14.83zm72-37.86c.19.37.28.51.28.42 0 .09-.09.14-.28.14s-.28 0-.28-.14a.13.13 0 0 1 -.12-.09c0-.23.12-.33.4-.33zm-8.38 2c.37 0 .56.09.56.28s-.23.42-.7.42-.56-.14-.56-.42a.94.94 0 0 1 .68-.32zm6.15-2.67a1.23 1.23 0 0 0 .14 1c.18.19.18.28 0 .28l-1.82.14a3.63 3.63 0 0 1 -1.4 0c-.28-.09-.37-.19-.28-.28a1.21 1.21 0 0 1 .84-.42c.56-.09.84-.32.84-.7s.28-.56.84-.56c.74-.05 1.02.14.84.54zm-2.8-3.21c0-.37.14-.56.42-.56a1.27 1.27 0 0 1 1 .14c.37.19.42.28.14.28a5.59 5.59 0 0 0 -1 .28c-.37.16-.56.07-.56-.17zm.42 3.07c0 .19-.51.28-1.53.28s-1.36 0-1.26-.14a2.57 2.57 0 0 1 1.53-.28c.84-.12 1.26-.07 1.26.11zm-2.79 1.14c.46 0 .74.09.84.28s.09.33-.28.42h-.7a6.36 6.36 0 0 0 -1.12.14l-3.07.28a3.31 3.31 0 0 0 -1.68.42c-.47.18-.51.37-.14.56a8 8 0 0 0 2.1 0c1.3-.19 1.95-.14 1.95.14s-.51.37-1.54.56a22.37 22.37 0 0 0 -2.65.28c-1.3.09-2.65.23-4.05.41s-2.65.38-3.77.56a7.23 7.23 0 0 0 -1.82.42 14.31 14.31 0 0 0 -.56 2.66c-.18 1.58-.42 3.49-.7 5.72-.18 1.12-.42 2.43-.7 3.92s-.37 2.84-.55 4.33-.42 2.93-.7 4.33-.33 2.51-.42 3.63q-.56 3.21-1 6.71c-.28 2.23-.51 3.86-.7 4.89q-.13.84-.42 2.79c-.18 1.21-.42 2.7-.7 4.47s-.46 3.59-.83 5.73-.61 4.1-1 6.15q-.84 6.42-1.68 11.59-.69 5.18-.84 6.15c-.18.65-.42 1.77-.7 3.35s-.37 3.22-.55 4.89q-.84 4.89-1.4 7.27a8.27 8.27 0 0 1 -1.26 3.21 1.66 1.66 0 0 1 -1 1c-.37.19-.46.05-.28-.42.19-.28.14-.28-.14 0-.83.65-1.39.56-1.67-.28q-.15-.42-.42 0c-.19.19-.37.14-.56-.14s-.7-.37-1.54-.28a5.67 5.67 0 0 1 -1.81 0c-.84 0-1.73 0-2.66-.14a16.59 16.59 0 0 1 -2.51-.42c-.75-.18-1.17-.37-1.26-.56q-1.26-1.81-.56-6.42c.09-1.21.33-3 .7-5.45s.79-5.26 1.26-8.52 1.12-6.8 1.67-10.62 1.31-7.69 2-11.6q.71-3.63 1.12-6.42a33.83 33.83 0 0 1 .56-3.36c.09-.56.23-1.72.42-3.49s.6-3.82 1-6.15.8-5 1.26-7.68.89-5.26 1.26-7.68.7-4.52 1-6.29.6-3.12.69-3.77c.19-.47.24-.75.14-.84s-.41-.1-1 0l-3.08.56q-2.37.42-5.45.83-2.93.42-6.14 1t-5.59.84q-2.79.42-4.89.84c-1.31.19-2 .28-2.24.28-.46.18-.7.18-.7 0s.1-.61.56-1c.28-.19.24-.23-.14-.14-.56.09-.83 0-.83-.42a1.52 1.52 0 0 1 .41-1.12l.28-.28c0-.09-.14 0-.42.14-.46.1-.69-.14-.69-.69a3.23 3.23 0 0 0 -.56-1.82 9.32 9.32 0 0 1 -.7-1.4c-.28-.65-.56-1.35-.84-2.09s-.51-1.45-.7-2.1a4.49 4.49 0 0 1 -.42-1.26c0-.46.38-.88 1.12-1.25a7.75 7.75 0 0 1 2.52-1.12c.93-.19 2.56-.47 4.88-.84s4.8-.93 7.41-1.4 5.31-.88 7.82-1.25 4.57-.8 5.87-1a19.64 19.64 0 0 0 2.38-.28c1.3-.19 2.74-.37 4.33-.56s2.93-.33 4.33-.42a14.39 14.39 0 0 0 2.93-.56 18 18 0 0 0 2.1-.14 16.59 16.59 0 0 0 2.51-.42q2.24-.27 6.85-.56t8.66-.69h2.66c.55 0 .83.09.83.28q0 .69.42 0a.44.44 0 0 1 .42-.28h.56c.28 0 .61.23 1 .69a2.15 2.15 0 0 1 .56 1.26c-.19.28-.14.42.14.42s.28.75.28 2.24c.09 1.77-.05 2.37-.42 1.81a4.32 4.32 0 0 0 -2-.28c-.93 0-1.49.14-1.67.42q0 .42.27.42a.37.37 0 0 1 .42.42c0 .37-.46.56-1.39.56a2.9 2.9 0 0 0 -1.68.28h-.42a.79.79 0 0 1 -.56-.28 3.4 3.4 0 0 0 -1.53.28 2 2 0 0 1 -1.4.42c-.28-.28-.61-.24-1 .14-.28.18-.42.23-.42.14s-.14-.14-.42-.14a.79.79 0 0 0 -.56.28q-.84.27-.84 0c0-.38-.18-.38-.55 0a1.88 1.88 0 0 1 -1.4 0 3.11 3.11 0 0 0 -1-.28q-.13 0-.42.42 0 .56.42.42c.28-.1.42 0 .42.14 0 .46-.51.46-1.54 0a1.18 1.18 0 0 0 -1.12.27 1.1 1.1 0 0 1 -.83.28.52.52 0 0 0 -.7 0c-.47.19-.47.38 0 .56a4.64 4.64 0 0 0 1.95-.14c1.12 0 1.68.1 1.68.28s0 0 .14-.14c.37-.37 1-.42 1.82-.14.93 0 1.49-.09 1.67-.28 0-.28.24-.42.7-.42s.51.14.14.42l-.28.28h.7c.65 0 1-.09 1-.28s.33-.14 1-.14a1.54 1.54 0 0 1 .69.14h.56c.28 0 .24.19-.14.56s-.23.56.14.56a.49.49 0 0 0 .56-.56c0-.37.37-.56 1.12-.56s.93.19.84.56.02.56.58.56zm-4.47-4.75c-1 .09-1.45.33-1.26.7s.32.42.42.14a1.13 1.13 0 0 1 .7-.14l1.39-.28a4.34 4.34 0 0 1 1.54 0h1a.69.69 0 0 0 .84 0 .91.91 0 0 0 .56-.84c0-.18-.33-.23-1-.14a32.63 32.63 0 0 0 -4.19.51zm-24.73 65.2a1.8 1.8 0 0 0 0-1c-.37-.47-.56-.09-.56 1.11 0 .94 0 1.22.14.84a1.07 1.07 0 0 0 .14-.42zm3.07-22.08c.1 0 .14 0 .14-.14a.56.56 0 0 0 -.14-.42c-.18-.37-.28-.32-.28.14s.1.61.28.42zm.28-2.79a.84.84 0 0 0 .14-.56c-.19-.28-.28-.23-.28.14s.05.51.14.42zm13-32.83c.47 0 .61-.1.42-.28h-.28q-.13-.15-.42 0c-.38.18-.28.28.27.28zm1.26 0a.42.42 0 1 0 -.42-.42.37.37 0 0 0 .41.42zm1.54-.42q.42-.42-.42-.42a.37.37 0 0 0 -.42.42c0 .28.09.42.28.42s.36-.14.55-.42zm1.95-.14c1-.28 1.31-.47.84-.56a2.39 2.39 0 0 0 -1.39-.14c-.47.09-.7.28-.7.56s-.1.42 0 .42a6.88 6.88 0 0 0 1.24-.28zm2.8-2c.28 0 .42-.09.42-.28a.13.13 0 0 0 -.14-.14v-.28q-.29 0-.42.42c-.2.23-.15.32.13.32zm3.63-.28c.37 0 .56-.09.56-.28h-.42q-.13-.14-.42 0c-.2.23-.05.37.27.37zm69.2-4.89a2.41 2.41 0 0 1 1.25 1.54 4.41 4.41 0 0 1 -.42 2.65q-.69 2.1-1.67 5l-1.69 5.66c-.47 1.86-.93 3.63-1.4 5.31s-.65 3-.83 4c-.19.75-.33 1.4-.42 2a8.11 8.11 0 0 1 -.42 1.53 7.68 7.68 0 0 0 -.42 1.4c-.37 0-.42.14-.14.42a1.47 1.47 0 0 1 .14.84 6.82 6.82 0 0 1 -.14 1.26c-.09.46-.19.93-.28 1.39a4.34 4.34 0 0 1 -.28 1c-.19.37-.33.56-.42.56a5.59 5.59 0 0 0 -.28-1 1 1 0 0 0 -.56-.84q-.42-.27-.42.42c.1.47 0 .65-.42.56s-.46-.37-.55-.84a5.11 5.11 0 0 0 -.42-1.39c0-.1-.1 0-.28.42-.38.65-.66.79-.84.41a22.1 22.1 0 0 1 0-3.63l.14-1.26-.42 1.4c-.28 1.68-.75 2.33-1.4 2h-.56a.92.92 0 0 0 -.42-.14 7.57 7.57 0 0 1 -2.23-.7 5.23 5.23 0 0 1 -1.82-1h-.28a.4.4 0 0 0 -.28-.14 1.3 1.3 0 0 1 -.69-.28c-.28-.18-.61-.37-1-.56-.84-.56-1.31-.74-1.4-.56a18.37 18.37 0 0 1 -.28-3.91 6.16 6.16 0 0 1 .14-1.11 9.51 9.51 0 0 1 .28-1.12 9.25 9.25 0 0 0 .28-1.54c.09-.74.19-1.63.28-2.65.18-.84.32-1.59.42-2.24a2.77 2.77 0 0 1 .28-1.12 1.08 1.08 0 0 0 .28-1c-.1-.28-.33-.38-.7-.28h-.84a2.1 2.1 0 0 0 -.7-.14h-.42c0-.1 0-.14-.14-.14h-.14c0 .28-.46.51-1.4.7a35.33 35.33 0 0 0 -12 4.33c-1.58.83-2.93 1.63-4.05 2.37s-2.42 1.86-4.19 3.35c-.93.84-2 1.87-3.22 3.08s-2.18 2.47-3.21 3.77a32 32 0 0 0 -2.51 3.35 4.74 4.74 0 0 0 -1 1.82c0 .19 1 .51 3.07 1s4.24.88 6.57 1.25c5.59.94 8.43 1.68 8.52 2.24 0 .19.23.28.7.28a4.08 4.08 0 0 1 2.37.7 21.77 21.77 0 0 1 3.5 2.23 38.75 38.75 0 0 1 3.85 3.08 20.68 20.68 0 0 1 3.21 3.07c.56.75 1.21 1.54 2 2.38s1.49 1.53 2 2.09a36.13 36.13 0 0 1 4.75 6.15 12.38 12.38 0 0 1 2 5.31 14 14 0 0 1 -.84 6.56 32.37 32.37 0 0 1 -3.35 7.13 39.2 39.2 0 0 1 -5.31 6.85 35.4 35.4 0 0 1 -6.71 5.72 34.3 34.3 0 0 1 -7.82 4.05 46.33 46.33 0 0 1 -8.52 2 27.16 27.16 0 0 1 -3.91.28c-1.31.09-2.29.14-2.94.14a15.43 15.43 0 0 1 -4.75-1 8.63 8.63 0 0 1 -3.21-2.37l-2.6-2.4a27.36 27.36 0 0 0 -2.93-2.79c-.84-.93-1.68-1.82-2.52-2.66a22.53 22.53 0 0 1 -1.67-1.81c-1.4-1.59-1.68-3-.84-4.34l.56-.83 1.53 1.53a27.44 27.44 0 0 0 3.08 2.8 6.86 6.86 0 0 0 2.65.42h2.38c1-.1 2.09-.19 3.21-.28l3.08-.28a12.54 12.54 0 0 0 2.23-.56 1.87 1.87 0 0 1 1-.42l1.4-.56a9.19 9.19 0 0 1 1.39-.42 1.87 1.87 0 0 0 1-.42 17.78 17.78 0 0 0 3.49-1.53c1.68-.94 3.17-1.82 4.47-2.66a44 44 0 0 0 5.45-4.47 31.56 31.56 0 0 0 4.33-5.17 23.72 23.72 0 0 0 2.24-3.63 22.76 22.76 0 0 0 1.68-3.91 14.68 14.68 0 0 0 .83-3.36 3.38 3.38 0 0 0 -.13-2.23 2.94 2.94 0 0 0 -1.26-.84 14.54 14.54 0 0 0 -2.24-.84 28 28 0 0 0 -2.93-1c-1-.27-2-.51-2.94-.69q-4.47-.7-7.26-1.26c-1.86-.37-3.87-.89-6-1.54-1.58-.46-2.89-.88-3.91-1.26s-1.91-.88-2.65-1.25a17.19 17.19 0 0 1 -2.1-1.54c-.65-.65-1.35-1.4-2.1-2.23-.55-.66-1.39-1.59-2.51-2.8s-2-2.33-3.07-3.35a60 60 0 0 1 -4.2-4.89 4.29 4.29 0 0 1 -.83-2.94 17.29 17.29 0 0 1 .42-2.79 16.71 16.71 0 0 1 1.67-3.05 22.35 22.35 0 0 1 2.8-3.92q1.82-2.09 3.91-4.19a56.59 56.59 0 0 1 4.29-3.91 42 42 0 0 1 4.33-3.35 44.8 44.8 0 0 1 15.37-6.57 37.13 37.13 0 0 1 15.93-.42q1.11.28 2 .42h1a11.48 11.48 0 0 1 1.26-3.07 16.47 16.47 0 0 1 1.81-3.49c.56-.84.93-1.08 1.12-.7 0 .28.19.42.56.42a2.44 2.44 0 0 1 1 .42 12.47 12.47 0 0 1 1.53 1.11 9.64 9.64 0 0 1 1.4 1.12 11.75 11.75 0 0 1 1 .84c.28.56.65.7 1.12.42.28-.09.46-.09.56 0s.18.23.27.7c0 .74.1 1 .28.83a.25.25 0 0 1 .28.28l.28.28q0 .84.42 0c.28-.46.56-.65.84-.56a14.38 14.38 0 0 1 2.16 1.54zm-52.4 23.33c-.65.47-.83.7-.55.7s.36-.19.54-.66zm42.2 1.4c0-.74-.1-1-.28-.7a2.72 2.72 0 0 0 -.28 1.26q.13.28 0 .42c-.1.09-.23.09-.42 0-.37-.09-.56-.05-.56.14s.19.42.56.7.46.18.56 0a4.92 4.92 0 0 0 .41-1.78zm.42-3.07a4.89 4.89 0 0 0 .25-1.08.13.13 0 0 0 -.14-.14.12.12 0 0 0 -.14.14 1.61 1.61 0 0 0 -.28 1.12c.11.46.2.46.3 0zm.69-3.08a1.85 1.85 0 0 0 .28-1.25c0-.28-.14-.24-.42.14a1.23 1.23 0 0 1 -.13.55v.56q-.01.61.26.04zm9.36-17c.28 0 .38-.19.28-.56a.12.12 0 0 0 -.14-.14v-.42c.1 0 0 .19-.41.56-.01.37.08.56.26.56zm-215.44-7.6c-.55 3.72-1 6.49-1.39 8.3a10.46 10.46 0 0 1 -1.25 3.67 1.85 1.85 0 0 1 -1 1.12c-.38.21-.47 0-.28-.48.18-.32.14-.32-.14 0-.84.74-1.39.64-1.67-.32-.1-.32-.23-.32-.42 0s-.37.16-.56-.16-.69-.42-1.53-.32a4.65 4.65 0 0 1 -1.81 0 22.47 22.47 0 0 1 -2.64-.16 14.35 14.35 0 0 1 -2.51-.48c-.74-.21-1.16-.42-1.25-.64q-1.24-2.07-.56-7.34.14-1.95.64-5.75c0-.05-.23-.47 2-.24.38 0 .83.45 1.34.51 1.47.18 3.59.07 5.54.3.7.08.33.32 1 .44 1.77.32 4.4.6 5.55.85s.93.73.93.7" transform="translate(0 -29.1)"/><path d="m175.29 0h16.35v16.35h-16.35z"/></g></svg>
