<svg width="307" height="220" viewBox="0 0 307 220" fill="none" xmlns="http://www.w3.org/2000/svg">
<g clip-path="url(#clip0_463_513)">
<path d="M284.508 70.3435V91.1473H306.54V102.416H284.508V128.132C284.508 130.732 284.58 133.333 284.869 135.572C285.447 139.4 287.758 143.157 290.937 144.601C295.054 146.48 297.944 146.118 306.54 145.829L304.445 158.254C303.867 158.543 301.555 158.471 299.388 158.471C294.332 158.471 275.262 160.276 271.361 140.628C270.711 137.233 270.855 133.766 270.855 128.421V102.56H261.031L261.176 91.0751H270.855V70.3435H284.508ZM247.162 91.0751V157.17H233.582V91.0751H247.162ZM247.162 70.3435V82.1179H233.437V70.3435H247.162ZM186.773 144.168H221.591L208.589 157.17H172.904V70.3435H186.773V144.168Z" fill="black"/>
<path d="M57.3273 129.576V71.7882L86.2214 42.8941V100.682L57.3273 129.576ZM-0.460938 129.576L28.4332 158.471V129.576V100.682H13.9861" fill="black"/>
<path d="M28.4332 100.682V42.8941L57.3273 14V71.7882L28.4332 100.682ZM86.2214 158.471V100.682L115.116 71.7882V129.576L86.2214 158.471ZM-0.460938 129.576V71.7882L28.4332 100.682" fill="black"/>
</g>
<defs>
<clipPath id="clip0_463_513">
<rect width="307" height="220" fill="white"/>
</clipPath>
</defs>
</svg>
