<svg width="308" height="220" viewBox="0 0 308 220" fill="none" xmlns="http://www.w3.org/2000/svg">
<path d="M286.062 22.4219H21.8437C13.6458 22.4219 7 29.0676 7 37.2656V182.734C7 190.932 13.6458 197.578 21.8437 197.578H286.062C294.26 197.578 300.906 190.932 300.906 182.734V37.2656C300.906 29.0676 294.26 22.4219 286.062 22.4219Z" stroke="#222222" stroke-width="13.3475"/>
<path d="M44.1099 160.469V59.5313H73.7974L103.485 96.6407L133.172 59.5313H162.86V160.469H133.172V102.578L103.485 139.688L73.7974 102.578V160.469H44.1099ZM229.657 160.469L185.125 111.484H214.813V59.5313H244.5V111.484H274.188L229.657 160.469Z" fill="#222222"/>
</svg>
