<svg width="172" height="220" viewBox="0 0 172 220" fill="none" xmlns="http://www.w3.org/2000/svg">
<path fill-rule="evenodd" clip-rule="evenodd" d="M18.8994 35H153.101C157.463 35 161 38.5367 161 42.8994V177.101C161 181.463 157.463 185 153.101 185H18.8994C14.5367 185 11 181.463 11 177.101V42.8994C11 38.5367 14.5367 35 18.8994 35ZM32.3317 55.8616C61.1171 55.8616 88.1656 67.0574 108.494 87.3862C128.823 107.715 140.019 134.764 140.019 163.549H118.84C118.84 140.421 109.847 118.691 93.5184 102.362C77.1897 86.0337 55.4598 77.0413 32.3317 77.0413V55.8616ZM32.1121 91.7022V112.882C60.05 112.882 82.7795 135.611 82.7795 163.55H103.959C103.959 123.933 71.7289 91.7022 32.1121 91.7022ZM62.3201 148.969C62.3201 157.346 55.5285 164.138 47.1506 164.138C38.7727 164.138 31.9811 157.346 31.9811 148.969C31.9811 140.591 38.7727 133.799 47.1506 133.799C55.5285 133.799 62.3201 140.591 62.3201 148.969Z" fill="black"/>
</svg>
