<svg xmlns="http://www.w3.org/2000/svg" width="80" height="24" viewBox="0 0 80 24">
    <title>trivago</title>
    <path d="M25.1 5.4h4l3.1 8.3h.1l2.8-8.3h3.8l-4.8 12.2h-4z" />
    <path
        d="M10.4 8.4H6.7v4.1c0 .7.1 1.6.7 2 .6.4 1.5.3 2.2.2.4 0 .6-.1.8-.3v3.1c-.5.1-.9.2-1.4.3-2.6.3-6.4-.2-6.4-3.6V8.4H0v-3h2.6V1.8h4.1v3.6h3.7v3zM20.9 5.4h3.7v12.2h-3.7V5.4zm-.2-3.3c0-1.1.9-2 2-2s2 .9 2 2-.9 2-2 2c-1 0-2-.9-2-2" />
    <path
        d="M67.1 11.5c0 1.6 1 3.1 2.7 3.1 1.8 0 2.7-1.4 2.7-3.1 0-1.6-1-3.1-2.7-3.1-1.8 0-2.7 1.4-2.7 3.1m-3.4 0c0-2.6 1.4-5.1 3.9-6 2.5-.9 5.5-.2 7.1 1.9 1.5 2 1.7 5 .5 7.3-1.2 2.4-4 3.5-6.6 3-3.1-.5-4.9-3.2-4.9-6.2" />
    <path
        d="M59.7 5.3V7h-.1c-.1-.1-.2-.2-.4-.5-2.4-2.1-6.6-1.7-8.1 1.3-.8 1.5-.9 3.4-.7 5.1.2 1.5.8 3.2 2.1 4.1 1.5 1 3.5 1.2 5.2.5.8-.3 1.3-.9 1.5-1.2v1.2c0 .9-.2 1.6-.7 2.1-1.1 1.1-3.1 1-4.5.7-.7-.2-1.5-.5-2.2-1L50.1 22c1 .7 1.9 1.1 2.9 1.4 2.7.7 6.4.7 8.4-1.4 1.2-1.2 1.6-2.9 1.6-5.3V5.3h-3.3zm-.9 8.4c-1 1.2-3 1.2-4 0s-1-3.3 0-4.5c1-1.2 3-1.2 4 0s1 3.3 0 4.5c-.5.6.5-.6 0 0z" />
    <path
        d="M11.4 5.4h3.8v2c.4-.8.9-1.3 1.4-1.7 1.2-.8 3.1-.5 3.3-.4v3.4c-.8-.2-2.4-.5-3.5.2-.7.4-1.3 1-1.3 3.7v5.1h-3.8V5.4z" />
    <path
        d="M42.4 12.7c-.7.5-1.3 1.4-.6 2.1.7.7 1.9.6 2.7.3.9-.3 1.6-1 1.6-2.1v-.8c.1.1-2.7-.1-3.7.5zm3.8 3.4c-.5.6-1 1.1-1.7 1.4-2.7 1.1-6.5 0-6.5-3.3 0-3.5 3.8-4.2 6.5-4.3h1.7c0-.7-.2-1.2-.7-1.6-.9-.8-2.3-.7-3.4-.2-.5.3-1 .6-1.4 1.1l-2-2.1c.7-.6 1.5-1.1 2.5-1.5 1.6-.6 3.6-.7 5.2-.2 1.6.4 2.6 1.7 3 3.3.2.8.2 1.7.2 2.7v6.2h-3.4v-1.5z" />
    <path fill="none" d="M0 0h80v24H0z" />
</svg>