<svg xmlns="http://www.w3.org/2000/svg" fill="none" viewBox="0 0 190 190">
  <path fill="currentColor" d="m101 61 24-10c6-2 12-3 17-2 4 0 7 1 9 4 1 2 2 5 1 9l-6 16-10 13a181 181 0 0 0-35-30ZM54 91l-9-13c-4-6-6-11-7-16 0-4 0-7 2-9 2-3 4-4 9-4 4-1 10 0 17 2l24 10a190 190 0 0 0-36 30Z"/>
  <path fill="currentColor" fill-rule="evenodd" d="M58 95a174 174 0 0 1 37-30 182 182 0 0 1 37 30 174 174 0 0 1-37 30 182 182 0 0 1-37-30Zm37 13a13 13 0 1 0 0-26 13 13 0 0 0 0 26Z" clip-rule="evenodd"/>
  <path fill="currentColor" d="m54 99-9 13c-4 6-6 11-7 16 0 4 0 7 2 9 2 3 4 4 9 4 4 1 10 0 17-2l24-10a191 191 0 0 1-36-30Zm47 30 24 10c6 2 12 3 17 2 4 0 7-1 9-4 1-2 2-5 1-9l-6-16-10-13a181 181 0 0 1-35 30Z"/>
  <path fill="currentColor" fill-rule="evenodd" d="M178 48 95 0 13 48v95l82 47 83-47V48ZM95 58c10-6 20-10 28-13 7-2 14-3 19-2 6 0 10 2 13 6s4 9 3 14c-1 6-4 12-7 18l-11 14 11 14c3 6 6 12 7 18 1 5 0 10-3 14s-7 6-13 6c-5 1-12 0-19-2-8-3-18-7-28-13-10 6-19 10-28 13-7 2-13 3-19 2-5 0-10-2-13-6s-3-9-2-14c1-6 3-12 7-18l10-14-10-14c-4-6-6-12-7-18-1-5-1-10 2-14s8-6 13-6c6-1 12 0 19 2 9 3 18 7 28 13Z" clip-rule="evenodd"/>
</svg>
