<svg xmlns="http://www.w3.org/2000/svg" fill="none" viewBox="0 0 190 190">
  <path fill="currentColor" d="M190 95c0-13-16-25-40-32 6-25 3-45-8-51l-8-2v9l4 1c5 3 8 14 6 29l-2 11-25-4c-5-7-10-14-16-19 13-12 25-18 33-18v-9c-11 0-25 8-39 21-14-13-28-21-39-21v9c8 0 20 6 33 18L73 56l-25 4-2-11c-2-15 1-26 6-29l4-1v-9l-9 2c-10 7-13 26-7 51C16 70 0 82 0 95c0 12 16 24 40 32-6 24-3 44 8 50 2 2 5 2 8 2 11 0 25-7 39-21 14 14 28 21 39 21l9-2c10-6 13-26 7-51 24-7 40-19 40-31Zm-50-26-6 15a184 184 0 0 0-10-18l16 3Zm-18 41-9 15a202 202 0 0 1-35 0 213 213 0 0 1-18-30 202 202 0 0 1 17-31 202 202 0 0 1 35 0 213 213 0 0 1 18 31l-8 15Zm12-5 6 15-16 4a212 212 0 0 0 10-19Zm-39 41-11-12a240 240 0 0 0 22 0l-11 12Zm-29-22-16-4 6-15a183 183 0 0 0 10 19Zm29-81 11 12a240 240 0 0 0-22 0l11-12ZM66 66a214 214 0 0 0-10 18l-6-15 16-3Zm-35 48c-14-6-22-13-22-19s8-14 22-20l11-4 9 24-9 23-11-4Zm21 56c-5-3-8-15-6-30l2-11 25 4c5 7 10 14 16 19-13 12-25 19-33 19l-4-1Zm92-30c2 15-1 26-6 29l-4 1c-8 0-20-6-33-18 6-5 11-12 16-19l25-4 2 11Zm15-26-11 4-9-23 9-24 11 4c14 6 22 14 22 20s-9 13-22 19Z"/>
  <path fill="currentColor" d="M95 112a18 18 0 1 0 0-35 18 18 0 0 0 0 35Z"/>
</svg>
