<svg width="190" height="190" viewBox="0 0 190 190" fill="none" xmlns="http://www.w3.org/2000/svg">
  <path d="M127.61 135.052C121.624 127.573 113.542 122.052 104.399 119.195C95.2561 116.338 85.4683 116.275 76.2893 119.014L10 140.398C10 140.398 66.6667 183.165 110.503 172.473L113.711 171.404C131.887 166.058 138.302 148.951 127.61 135.052Z" fill="currentColor" fill-opacity="0.85"/>
  <path d="M125.783 81.7735C134.926 84.6307 143.008 90.152 148.994 97.6304C154.34 106.184 155.409 114.737 151.132 122.222L129.748 160.712L129.314 160.639C134.288 153.175 134.123 143.518 127.61 135.052C121.624 127.573 113.542 122.052 104.399 119.195C95.2561 116.338 85.4683 116.275 76.2893 119.014L10 140.398L31.3836 102.976L97.673 81.5926C106.852 78.8533 116.64 78.9163 125.783 81.7735Z" fill="currentColor" fill-opacity="0.65"/>
  <path d="M57.0441 50.5863L61.3208 49.5171C104.088 39.8945 160.755 81.5926 160.755 81.5926L139.663 88.7366C135.466 85.6958 130.783 83.3362 125.783 81.7735C116.64 78.9163 106.852 78.8533 97.673 81.5926L51.96 96.3387C48.5484 93.9348 45.5491 91.1335 43.1447 88.0077C33.5221 73.0392 38.868 55.9322 57.0441 50.5863Z" fill="currentColor" fill-opacity="0.45"/>
  <path d="M79.4969 17.4417C123.333 7.81904 180 49.5172 180 49.5172L160.755 81.5926C160.755 81.5926 104.088 39.8945 61.3208 49.5172L57.0441 50.5863C51.0678 52.344 46.4787 55.3732 43.3525 59.1798C43.2832 59.1664 43.2139 59.1531 43.1447 59.1398L59.1824 31.3411L61.3208 28.1335C64.5283 23.8568 69.8742 20.6492 76.2893 18.5109L79.4969 17.4417Z" fill="currentColor" fill-opacity="0.3"/>
</svg>
