<svg enable-background="new 0 0 284 65" viewBox="0 0 284 65" xmlns="http://www.w3.org/2000/svg"><g fill="#fff"><path d="m37.6.2 37 64h-74z"/><path d="m130 5.2-27.7 48-27.7-48h10.4l17.3 30 17.3-30z"/><path d="m141.8 16.3c-11-.1-19.1 7-19.2 17.8s8.8 18.1 19.8 18.2c6.7.1 12.6-2.5 16.3-6.9l-7.6-4.5c-2 2.2-5.1 3.5-8.6 3.4-4.8 0-8.8-2.6-10.3-6.6l28 .3c.2-1.1.4-2.3.4-3.5.2-10.9-7.7-18.1-18.8-18.2zm-9.5 14.4c1.3-4 4.7-6.5 9.5-6.4 4.8 0 8.2 2.6 9.4 6.6z"/><path d="m189 17.3-.1 9.7c-1-.3-2.1-.5-3.2-.5-5.8-.1-10 3.9-10.1 9.9l-.1 14.8-9-.1.3-34 9 .1-.1 9.2c.1-5 6-9.1 13.3-9.1z"/><path d="m200.9 34.2c0 6 3.9 10 10 10 4.1 0 7.2-1.9 8.8-4.9l7.7 4.4c-3.2 5.3-9.1 8.5-16.5 8.5-11.1 0-19-7.2-19-18s8-18 19-18c7.3 0 13.3 3.2 16.5 8.5l-7.7 4.4c-1.6-3-4.7-4.9-8.8-4.9-6.1 0-10 4-10 10z"/><path d="m268.4 34.2c0-10.8-8-18-19-18s-19 7.2-19 18 9 18 20 18c6.7 0 12.5-2.6 16.2-7.1l-7.6-4.4c-2 2.2-5.1 3.5-8.5 3.5-4.8 0-8.9-2.5-10.4-6.5h28c.1-1.1.3-2.2.3-3.5zm-28.5-3.4c1.2-4 4.7-6.5 9.4-6.5 4.8 0 8.2 2.5 9.5 6.5z"/><path d="m274.4 5.2h9v46h-9z"/></g></svg>