<svg xmlns="http://www.w3.org/2000/svg" fill="none" viewBox="0 0 1012 506">
	<style>
		.bg {
			transform-origin: center center;
		}
		#banner {
			animation: marquee 30s linear infinite;
		}
		@media (prefers-reduced-motion: reduce) {
			#banner {
				animation-play-state: paused;
			}
		}
		@keyframes marquee {
			0% {
				transform: translateX(66px);
			}
			100% {
				transform: translateX(-130px);
			}
		}
	</style>

	<path fill="#F1BCBE" d="M0 0h1012v506H0z"/>
	<g id="bgs" clip-path="url(#a)">
		<g class="bg" filter="url(#b)">
      <ellipse cx="181.1" cy="653.1" fill="url(#c)" rx="1188.5" ry="603" transform="rotate(-15 181 653)"/>
    </g>
    <g class="bg" filter="url(#d)">
      <ellipse cx="1051.9" cy="873.4" fill="url(#e)" rx="831.1" ry="421.7" transform="rotate(-15 1051.9 873.4)"/>
    </g>
    <g class="bg" filter="url(#f)">
      <ellipse cx="-113.1" cy="-151.6" fill="url(#g)" rx="831.1" ry="421.7" transform="rotate(-15 -113 -151.6)"/>
    </g>
	</g>
	<g clip-path="url(#a)">
		<path fill="#fff" d="M0 0h1012v40H0z"/>
		<path id="banner" fill="#31274A" d="M-39.8 16.3h.3v1h.4v1.1h.4v1.1h.3v1.1h.4v1.1h.4v1.1h.3V24h.4v1h3.6v-1h.4v-1.2h.4v-1h.3v-1.2h.4v-1h.4v-1.2h.3v-1h.4v-1.1h.3v-1.5h-2.1V16h-.4v1h-.4v1.2h-.3v1h-.4v1.2h-.4v1h-.3v1.2h-.8v-1.1h-.3v-1.1h-.4v-1.1h-.3V18h-.4v-1h-.4v-1.1h-.3v-1h-2.2v1.4Zm11.5 8.7h2.2V14.8h-2.2V25Zm4.6-1.5h.3v.4h.4v.4h.3v.3h.8v.4h4.3v-.4h.8v-.3h.3v-.4h.4v-.7h.4v-2.6h-.4V20h-.4v-.4h-.3v-.3h-.8v-.4h-3.6v-.4h-.4v-1h.4V17h2.5v.4h.4v.3h2.2v-1.4h-.4v-.4h-.3v-.4h-.4v-.3h-.7v-.4h-4v.4h-.8v.3h-.3v.4h-.4v.7h-.3v2.6h.3v.7h.4v.4h.3v.3h.8v.4h3.6v.4h.4v1h-.4v.4h-2.9v-.3h-.4V22h-2.1v1.4Zm10.4 1.5h2.1V14.8h-2.1V25Zm4-8h3v8h2v-8h3v-2.2h-8V17Zm13.5 8h2.2v-1h.4v-.8H11v.7h.4V25h2.2v-1.5h-.4v-1H13v-1.1h-.3v-1.1h-.4v-1.1H12V18h-.4v-1H11v-1.1h-.3v-1H7v1h-.3v1h-.4v1.2H6v1h-.3v1.2h-.4v1h-.4v1.2h-.3v1h-.4V25Zm3.3-4v-.4h.4v-1h.3v-1.2h.4v-1h.7v1h.4v1.1h.3v1.1h.4v.4h-3Zm8 2.5h.4v.4h.4v.4h.3v.3h.7v.4h4.4v-.4h.7v-.3h.4v-.4h.4v-.7h.3v-2.6h-.3V20h-.4v-.4h-.4v-.3h-.7v-.4h-3.6v-.4h-.4v-1h.4V17h2.5v.4h.4v.3h2.2v-1.4h-.4v-.4h-.4v-.4h-.3v-.3h-.7v-.4h-4v.4h-.8v.3h-.3v.4h-.4v.7h-.4v2.6h.4v.7h.4v.4h.3v.3h.7v.4H21v.4h.4v1H21v.4h-3v-.3h-.3V22h-2.2v1.4ZM25 17h3v8h2v-8h3v-2.2h-8V17Zm10 8h2.2v-4h3.3v.4h.4V25H43v-4h-.4v-.7h-.4v-.4h.4v-.7h.4v-2.6h-.4V16h-.4v-.4H42v-.3h-.8v-.4h-6.1V25Zm2.2-6.2V17h3.3v.4h.4v1h-.4v.4h-3.3Zm8.3 3.3h.3v.7h.4v.7h.3v.4h.4v.4h.7v.3h.8v.4H52v-.4h.7v-.3h.8v-.4h.3v-.4h.4v-.7h.4v-.7h.3v-4.4h-.3V17h-.4v-.7h-.4v-.4h-.3v-.4h-.8v-.3H52v-.4h-3.6v.4h-.8v.3H47v.4h-.4v.4h-.3v.7h-.4v.7h-.3v4.4Zm2.1-.7v-3h.4v-.7h.4v-.3h.7V17h2.2v.4h.7v.3h.4v.7h.3v3h-.3v.7H52v.4h-.7v.3H49v-.3h-.7V22H48v-.7h-.4ZM57 25h2.2v-2.2H57V25Zm4.8 0H68v-.4h.7v-.3h.4v-.4h.3v-.7h.4v-2.6h-.4v-.3H69v-.8h.3v-.3h.4v-2.6h-.4V16H69v-.4h-.4v-.3H68v-.4h-6.2V25Zm2.2-6.2V17h3.3v.4h.3v1h-.3v.4H64Zm0 4V21h3.3v.4h.3v1h-.3v.4H64Zm8.4 0h.3v.7h.4v.4h.4v.4h.3v.3h.8v.4h4.3v-.4h.8v-.3h.3v-.4h.4v-.4h.3v-.7h.4v-8h-2.2v7.3h-.3v.4H78v.3h-3v-.3h-.3V22h-.3v-7.3h-2.2v8ZM83.6 25h2.2V14.8h-2.2V25Zm4.7 0h7.3v-2.2h-5v-8h-2.3V25Zm9.3 0h5.9v-.4h.7v-.3h.7v-.4h.4v-.4h.4v-.7h.3v-.7h.4v-4.4h-.4V17h-.3v-.7h-.4v-.4h-.4v-.4h-.7v-.3h-.7v-.4h-5.9V25Zm2.2-2.2V17h3v.4h.7v.3h.3v.7h.4v3h-.4v.7h-.3v.4h-.8v.3h-2.9Zm55.4-6.5h.3v1h.4v1.1h.4v1.1h.3v1.1h.4v1.1h.4v1.1h.3V24h.4v1h3.6v-1h.4v-1.2h.4v-1h.3v-1.2h.4v-1h.4v-1.2h.3v-1h.4v-1.1h.3v-1.5h-2.1V16h-.4v1h-.4v1.2h-.3v1h-.4v1.2h-.4v1h-.3v1.2h-.8v-1.1h-.3v-1.1h-.4v-1.1h-.3V18h-.4v-1h-.4v-1.1h-.3v-1h-2.2v1.4Zm11.5 8.7h2.2V14.8h-2.2V25Zm4.6-1.5h.3v.4h.4v.4h.3v.3h.8v.4h4.3v-.4h.8v-.3h.3v-.4h.4v-.7h.4v-2.6h-.4V20h-.4v-.4h-.3v-.3h-.8v-.4h-3.6v-.4h-.4v-1h.4V17h2.5v.4h.4v.3h2.2v-1.4h-.4v-.4h-.3v-.4h-.4v-.3h-.7v-.4h-4v.4h-.8v.3h-.3v.4h-.4v.7h-.3v2.6h.3v.7h.4v.4h.3v.3h.8v.4h3.6v.4h.4v1h-.4v.4h-2.9v-.3h-.4V22h-2.1v1.4Zm10.4 1.5h2.1V14.8h-2.1V25Zm4-8h3v8h2v-8h3v-2.2h-8V17Zm13.5 8h2.2v-1h.4v-.8h4.3v.7h.4V25h2.2v-1.5h-.4v-1h-.4v-1.1h-.3v-1.1h-.4v-1.1h-.3V18h-.4v-1h-.4v-1.1h-.3v-1H202v1h-.3v1h-.4v1.2h-.4v1h-.3v1.2h-.4v1h-.4v1.2h-.3v1h-.4V25Zm3.3-4v-.4h.4v-1h.3v-1.2h.4v-1h.7v1h.4v1.1h.3v1.1h.4v.4h-3Zm8 2.5h.4v.4h.4v.4h.3v.3h.7v.4h4.4v-.4h.7v-.3h.4v-.4h.4v-.7h.3v-2.6h-.3V20h-.4v-.4h-.4v-.3h-.7v-.4h-3.6v-.4h-.4v-1h.4V17h2.5v.4h.4v.3h2.2v-1.4h-.4v-.4h-.4v-.4h-.3v-.3h-.7v-.4h-4v.4h-.8v.3h-.3v.4h-.4v.7h-.4v2.6h.4v.7h.4v.4h.3v.3h.7v.4h3.7v.4h.4v1h-.4v.4h-3v-.3h-.3V22h-2.2v1.4ZM220 17h3v8h2.1v-8h3v-2.2h-8V17Zm10 8h2.2v-4h3.3v.4h.4V25h2.2v-4h-.4v-.7h-.4v-.4h.4v-.7h.4v-2.6h-.4V16h-.4v-.4h-.3v-.3h-.8v-.4h-6.1V25Zm2.2-6.2V17h3.3v.4h.4v1h-.4v.4h-3.3Zm8.3 3.3h.3v.7h.4v.7h.3v.4h.4v.4h.7v.3h.8v.4h3.6v-.4h.7v-.3h.8v-.4h.3v-.4h.4v-.7h.4v-.7h.3v-4.4h-.3V17h-.4v-.7h-.4v-.4h-.3v-.4h-.8v-.3h-.7v-.4h-3.6v.4h-.8v.3h-.7v.4h-.4v.4h-.3v.7h-.4v.7h-.3v4.4Zm2.1-.7v-3h.4v-.7h.4v-.3h.7V17h2.2v.4h.7v.3h.4v.7h.3v3h-.3v.7h-.4v.4h-.7v.3H244v-.3h-.7V22h-.4v-.7h-.4ZM252 25h2.2v-2.2H252V25Zm4.8 0h6.2v-.4h.7v-.3h.4v-.4h.3v-.7h.4v-2.6h-.4v-.3h-.3v-.8h.3v-.3h.4v-2.6h-.4V16h-.3v-.4h-.4v-.3h-.7v-.4h-6.2V25Zm2.2-6.2V17h3.3v.4h.3v1h-.3v.4H259Zm0 4V21h3.3v.4h.3v1h-.3v.4H259Zm8.4 0h.3v.7h.4v.4h.4v.4h.3v.3h.8v.4h4.3v-.4h.8v-.3h.3v-.4h.4v-.4h.3v-.7h.4v-8h-2.2v7.3h-.4v.4h-.3v.3h-3v-.3h-.3V22h-.3v-7.3h-2.2v8Zm11.3 2.2h2.2V14.8h-2.2V25Zm4.7 0h7.3v-2.2h-5v-8h-2.3V25Zm9.3 0h5.9v-.4h.7v-.3h.7v-.4h.4v-.4h.4v-.7h.3v-.7h.4v-4.4h-.4V17h-.3v-.7h-.4v-.4h-.4v-.4h-.7v-.3h-.7v-.4h-5.9V25Zm2.2-2.2V17h3v.4h.7v.3h.3v.7h.4v3h-.4v.7h-.3v.4h-.8v.3h-2.9Zm55.3-6.5h.3v1h.4v1.1h.4v1.1h.3v1.1h.4v1.1h.4v1.1h.3V24h.4v1h3.6v-1h.4v-1.2h.4v-1h.3v-1.2h.4v-1h.4v-1.2h.3v-1h.4v-1.1h.3v-1.5h-2.1V16h-.4v1h-.4v1.2h-.3v1h-.4v1.2h-.4v1h-.3v1.2h-.8v-1.1h-.3v-1.1h-.4v-1.1h-.3V18h-.4v-1h-.4v-1.1h-.3v-1h-2.2v1.4Zm11.5 8.7h2.2V14.8h-2.2V25Zm4.6-1.5h.3v.4h.4v.4h.3v.3h.8v.4h4.3v-.4h.8v-.3h.3v-.4h.4v-.7h.4v-2.6h-.4V20h-.4v-.4h-.3v-.3h-.8v-.4h-3.6v-.4h-.4v-1h.4V17h2.5v.4h.4v.3h2.2v-1.4h-.4v-.4h-.3v-.4h-.4v-.3h-.7v-.4h-4v.4h-.8v.3h-.3v.4h-.4v.7h-.3v2.6h.3v.7h.4v.4h.3v.3h.8v.4h3.6v.4h.4v1h-.4v.4h-2.9v-.3h-.4V22h-2.1v1.4Zm10.4 1.5h2.1V14.8h-2.1V25Zm4-8h3v8h2v-8h3v-2.2h-8V17Zm13.5 8h2.2v-1h.4v-.8h4.3v.7h.4V25h2.2v-1.5h-.4v-1h-.4v-1.1h-.3v-1.1h-.4v-1.1h-.3V18h-.4v-1h-.4v-1.1h-.3v-1H397v1h-.3v1h-.4v1.2h-.4v1h-.3v1.2h-.4v1h-.4v1.2h-.3v1h-.4V25Zm3.3-4v-.4h.4v-1h.3v-1.2h.4v-1h.7v1h.4v1.1h.3v1.1h.4v.4h-3Zm8 2.5h.4v.4h.4v.4h.3v.3h.7v.4h4.4v-.4h.7v-.3h.4v-.4h.4v-.7h.3v-2.6h-.3V20h-.4v-.4h-.4v-.3h-.7v-.4h-3.6v-.4h-.4v-1h.4V17h2.5v.4h.4v.3h2.2v-1.4h-.4v-.4h-.4v-.4h-.3v-.3h-.7v-.4h-4v.4h-.8v.3h-.3v.4h-.4v.7h-.4v2.6h.4v.7h.4v.4h.3v.3h.7v.4h3.7v.4h.4v1h-.4v.4h-3v-.3h-.3V22h-2.2v1.4ZM415 17h3v8h2.1v-8h3v-2.2h-8V17Zm10 8h2.2v-4h3.3v.4h.4V25h2.2v-4h-.4v-.7h-.4v-.4h.4v-.7h.4v-2.6h-.4V16h-.4v-.4h-.3v-.3h-.8v-.4h-6.1V25Zm2.2-6.2V17h3.3v.4h.4v1h-.4v.4h-3.3Zm8.3 3.3h.3v.7h.4v.7h.3v.4h.4v.4h.7v.3h.8v.4h3.6v-.4h.7v-.3h.8v-.4h.3v-.4h.4v-.7h.4v-.7h.3v-4.4h-.3V17h-.4v-.7h-.4v-.4h-.3v-.4h-.8v-.3h-.7v-.4h-3.6v.4h-.8v.3h-.7v.4h-.4v.4h-.3v.7h-.4v.7h-.3v4.4Zm2.1-.7v-3h.4v-.7h.4v-.3h.7V17h2.2v.4h.7v.3h.4v.7h.3v3h-.3v.7h-.4v.4h-.7v.3H439v-.3h-.7V22h-.4v-.7h-.4ZM447 25h2.2v-2.2H447V25Zm4.8 0h6.2v-.4h.7v-.3h.4v-.4h.3v-.7h.4v-2.6h-.4v-.3h-.3v-.8h.3v-.3h.4v-2.6h-.4V16h-.3v-.4h-.4v-.3h-.7v-.4h-6.2V25Zm2.2-6.2V17h3.3v.4h.3v1h-.3v.4H454Zm0 4V21h3.3v.4h.3v1h-.3v.4H454Zm8.4 0h.3v.7h.4v.4h.4v.4h.3v.3h.8v.4h4.3v-.4h.8v-.3h.3v-.4h.4v-.4h.3v-.7h.4v-8h-2.2v7.3h-.4v.4h-.3v.3h-3v-.3h-.3V22h-.3v-7.3h-2.2v8Zm11.3 2.2h2.2V14.8h-2.2V25Zm4.7 0h7.3v-2.2h-5v-8h-2.3V25Zm9.3 0h5.9v-.4h.7v-.3h.7v-.4h.4v-.4h.4v-.7h.3v-.7h.4v-4.4h-.4V17h-.3v-.7h-.4v-.4h-.4v-.4h-.7v-.3h-.7v-.4h-5.9V25Zm2.2-2.2V17h3v.4h.7v.3h.3v.7h.4v3h-.4v.7h-.3v.4h-.8v.3h-2.9Zm55.3-6.5h.3v1h.4v1.1h.4v1.1h.3v1.1h.4v1.1h.4v1.1h.3V24h.4v1h3.6v-1h.4v-1.2h.4v-1h.3v-1.2h.4v-1h.4v-1.2h.3v-1h.4v-1.1h.3v-1.5h-2.1V16h-.4v1h-.4v1.2h-.3v1h-.4v1.2h-.4v1h-.3v1.2h-.8v-1.1h-.3v-1.1h-.4v-1.1h-.3V18h-.4v-1h-.4v-1.1h-.3v-1h-2.2v1.4Zm11.5 8.7h2.2V14.8h-2.2V25Zm4.6-1.5h.3v.4h.4v.4h.3v.3h.8v.4h4.3v-.4h.8v-.3h.3v-.4h.4v-.7h.4v-2.6h-.4V20h-.4v-.4h-.3v-.3h-.8v-.4h-3.6v-.4h-.4v-1h.4V17h2.5v.4h.4v.3h2.2v-1.4h-.4v-.4h-.3v-.4h-.4v-.3h-.7v-.4h-4v.4h-.8v.3h-.3v.4h-.4v.7h-.3v2.6h.3v.7h.4v.4h.3v.3h.8v.4h3.6v.4h.4v1h-.4v.4h-2.9v-.3h-.4V22h-2.1v1.4Zm10.4 1.5h2.1V14.8h-2.1V25Zm4-8h2.9v8h2.2v-8h2.9v-2.2h-8V17Zm13.5 8h2.2v-1h.4v-.8h4.3v.7h.4V25h2.2v-1.5h-.4v-1h-.4v-1.1h-.3v-1.1h-.4v-1.1h-.3V18h-.4v-1h-.4v-1.1h-.3v-1H592v1h-.3v1h-.4v1.2h-.4v1h-.3v1.2h-.4v1h-.4v1.2h-.3v1h-.4V25Zm3.3-4v-.4h.4v-1h.3v-1.2h.4v-1h.7v1h.4v1.1h.3v1.1h.4v.4h-3Zm8 2.5h.4v.4h.4v.4h.3v.3h.7v.4h4.4v-.4h.7v-.3h.4v-.4h.4v-.7h.3v-2.6h-.3V20h-.4v-.4h-.4v-.3h-.7v-.4h-3.6v-.4h-.4v-1h.4V17h2.5v.4h.4v.3h2.2v-1.4h-.4v-.4h-.4v-.4h-.3v-.3h-.7v-.4h-4v.4h-.8v.3h-.3v.4h-.4v.7h-.4v2.6h.4v.7h.4v.4h.3v.3h.7v.4h3.7v.4h.4v1h-.4v.4h-3v-.3h-.3V22h-2.2v1.4ZM610 17h3v8h2.1v-8h3v-2.2h-8V17Zm10 8h2.2v-4h3.3v.4h.4V25h2.2v-4h-.4v-.7h-.4v-.4h.4v-.7h.4v-2.6h-.4V16h-.4v-.4h-.3v-.3h-.8v-.4h-6.1V25Zm2.2-6.2V17h3.3v.4h.4v1h-.4v.4h-3.3Zm8.3 3.3h.3v.7h.4v.7h.3v.4h.4v.4h.7v.3h.8v.4h3.6v-.4h.7v-.3h.8v-.4h.3v-.4h.4v-.7h.4v-.7h.3v-4.4h-.3V17h-.4v-.7h-.4v-.4h-.3v-.4h-.8v-.3h-.7v-.4h-3.6v.4h-.8v.3h-.7v.4h-.4v.4h-.3v.7h-.4v.7h-.3v4.4Zm2.1-.7v-3h.4v-.7h.4v-.3h.7V17h2.2v.4h.7v.3h.4v.7h.3v3h-.3v.7h-.4v.4h-.7v.3H634v-.3h-.7V22h-.4v-.7h-.4ZM642 25h2.2v-2.2H642V25Zm4.8 0h6.2v-.4h.7v-.3h.4v-.4h.3v-.7h.4v-2.6h-.4v-.3h-.3v-.8h.3v-.3h.4v-2.6h-.4V16h-.3v-.4h-.4v-.3h-.7v-.4h-6.2V25Zm2.2-6.2V17h3.3v.4h.3v1h-.3v.4H649Zm0 4V21h3.3v.4h.3v1h-.3v.4H649Zm8.4 0h.3v.7h.4v.4h.4v.4h.3v.3h.8v.4h4.3v-.4h.8v-.3h.3v-.4h.4v-.4h.3v-.7h.4v-8h-2.2v7.3h-.3v.4h-.4v.3h-3v-.3h-.3V22h-.3v-7.3h-2.2v8Zm11.3 2.2h2.2V14.8h-2.2V25Zm4.7 0h7.3v-2.2h-5v-8h-2.3V25Zm9.3 0h5.9v-.4h.7v-.3h.7v-.4h.4v-.4h.4v-.7h.3v-.7h.4v-4.4h-.4V17h-.3v-.7h-.4v-.4h-.4v-.4h-.7v-.3h-.7v-.4h-5.9V25Zm2.2-2.2V17h3v.4h.7v.3h.3v.7h.4v3h-.4v.7h-.3v.4h-.8v.3h-2.9Zm55.3-6.5h.3v1h.4v1.1h.4v1.1h.3v1.1h.4v1.1h.4v1.1h.3V24h.4v1h3.6v-1h.4v-1.2h.4v-1h.3v-1.2h.4v-1h.4v-1.2h.3v-1h.4v-1.1h.3v-1.5h-2.1V16h-.4v1h-.4v1.2h-.3v1h-.4v1.2h-.4v1h-.3v1.2h-.8v-1.1h-.3v-1.1h-.4v-1.1h-.3V18h-.4v-1h-.4v-1.1h-.3v-1h-2.2v1.4Zm11.5 8.7h2.2V14.8h-2.2V25Zm4.6-1.5h.3v.4h.4v.4h.3v.3h.8v.4h4.3v-.4h.8v-.3h.3v-.4h.4v-.7h.4v-2.6h-.4V20h-.4v-.4h-.3v-.3h-.8v-.4h-3.6v-.4h-.4v-1h.4V17h2.5v.4h.4v.3h2.2v-1.4h-.4v-.4h-.3v-.4h-.4v-.3h-.7v-.4h-4v.4h-.8v.3h-.3v.4h-.4v.7h-.3v2.6h.3v.7h.4v.4h.3v.3h.8v.4h3.6v.4h.4v1h-.4v.4h-2.9v-.3h-.4V22h-2.1v1.4Zm10.4 1.5h2.1V14.8h-2.1V25Zm4-8h2.9v8h2.2v-8h2.9v-2.2h-8V17Zm13.5 8h2.2v-1h.4v-.8h4.3v.7h.4V25h2.2v-1.5h-.4v-1h-.4v-1.1h-.3v-1.1h-.4v-1.1h-.3V18h-.4v-1h-.4v-1.1h-.3v-1H787v1h-.3v1h-.4v1.2h-.4v1h-.3v1.2h-.4v1h-.4v1.2h-.3v1h-.4V25Zm3.3-4v-.4h.4v-1h.3v-1.2h.4v-1h.7v1h.4v1.1h.3v1.1h.4v.4h-3Zm8 2.5h.4v.4h.4v.4h.3v.3h.7v.4h4.4v-.4h.7v-.3h.4v-.4h.4v-.7h.3v-2.6h-.3V20h-.4v-.4h-.4v-.3h-.7v-.4h-3.6v-.4h-.4v-1h.4V17h2.5v.4h.4v.3h2.2v-1.4h-.4v-.4h-.4v-.4h-.3v-.3h-.7v-.4h-4v.4h-.8v.3h-.3v.4h-.4v.7h-.4v2.6h.4v.7h.4v.4h.3v.3h.7v.4h3.7v.4h.4v1h-.4v.4h-3v-.3h-.3V22h-2.2v1.4ZM805 17h3v8h2.1v-8h3v-2.2h-8V17Zm10 8h2.2v-4h3.3v.4h.4V25h2.2v-4h-.4v-.7h-.4v-.4h.4v-.7h.4v-2.6h-.4V16h-.4v-.4h-.3v-.3h-.8v-.4h-6.1V25Zm2.2-6.2V17h3.3v.4h.4v1h-.4v.4h-3.3Zm8.3 3.3h.3v.7h.4v.7h.3v.4h.4v.4h.7v.3h.8v.4h3.6v-.4h.7v-.3h.8v-.4h.3v-.4h.4v-.7h.4v-.7h.3v-4.4h-.3V17h-.4v-.7h-.4v-.4h-.3v-.4h-.8v-.3h-.7v-.4h-3.6v.4h-.8v.3h-.7v.4h-.4v.4h-.3v.7h-.4v.7h-.3v4.4Zm2.1-.7v-3h.4v-.7h.4v-.3h.7V17h2.2v.4h.7v.3h.4v.7h.3v3h-.3v.7h-.4v.4h-.7v.3H829v-.3h-.7V22h-.4v-.7h-.4ZM837 25h2.2v-2.2H837V25Zm4.8 0h6.2v-.4h.7v-.3h.4v-.4h.3v-.7h.4v-2.6h-.4v-.3h-.3v-.8h.3v-.3h.4v-2.6h-.4V16h-.3v-.4h-.4v-.3h-.7v-.4h-6.2V25Zm2.2-6.2V17h3.3v.4h.3v1h-.3v.4H844Zm0 4V21h3.3v.4h.3v1h-.3v.4H844Zm8.4 0h.3v.7h.4v.4h.4v.4h.3v.3h.8v.4h4.3v-.4h.8v-.3h.3v-.4h.4v-.4h.3v-.7h.4v-8h-2.2v7.3h-.3v.4h-.4v.3h-3v-.3h-.3V22h-.3v-7.3h-2.2v8Zm11.3 2.2h2.2V14.8h-2.2V25Zm4.7 0h7.3v-2.2h-5v-8h-2.3V25Zm9.3 0h5.9v-.4h.7v-.3h.7v-.4h.4v-.4h.4v-.7h.3v-.7h.4v-4.4h-.4V17h-.3v-.7h-.4v-.4h-.4v-.4h-.7v-.3h-.7v-.4h-5.9V25Zm2.2-2.2V17h3v.4h.7v.3h.3v.7h.4v3h-.4v.7h-.3v.4h-.8v.3h-2.9Zm55.3-6.5h.3v1h.4v1.1h.4v1.1h.3v1.1h.4v1.1h.4v1.1h.3V24h.4v1h3.6v-1h.4v-1.2h.4v-1h.3v-1.2h.4v-1h.4v-1.2h.3v-1h.4v-1.1h.3v-1.5h-2.1V16h-.4v1h-.4v1.2h-.3v1h-.4v1.2h-.4v1h-.3v1.2h-.8v-1.1h-.3v-1.1h-.4v-1.1h-.3V18h-.4v-1h-.4v-1.1h-.3v-1h-2.2v1.4Zm11.5 8.7h2.2V14.8h-2.2V25Zm4.6-1.5h.3v.4h.4v.4h.3v.3h.8v.4h4.3v-.4h.8v-.3h.3v-.4h.4v-.7h.4v-2.6h-.4V20h-.4v-.4h-.3v-.3h-.8v-.4h-3.6v-.4h-.4v-1h.4V17h2.5v.4h.4v.3h2.2v-1.4h-.4v-.4h-.3v-.4h-.4v-.3h-.7v-.4h-4v.4h-.8v.3h-.3v.4h-.4v.7h-.3v2.6h.3v.7h.4v.4h.3v.3h.8v.4h3.6v.4h.4v1h-.4v.4h-2.9v-.3h-.4V22h-2.1v1.4Zm10.4 1.5h2.1V14.8h-2.1V25Zm4-8h2.9v8h2.2v-8h2.9v-2.2h-8V17Zm13.5 8h2.2v-1h.4v-.8h4.3v.7h.4V25h2.2v-1.5h-.4v-1h-.4v-1.1h-.3v-1.1h-.4v-1.1h-.3V18h-.4v-1h-.4v-1.1h-.3v-1H982v1h-.3v1h-.4v1.2h-.4v1h-.3v1.2h-.4v1h-.4v1.2h-.3v1h-.4V25Zm3.3-4v-.4h.4v-1h.3v-1.2h.4v-1h.7v1h.4v1.1h.3v1.1h.4v.4h-3Zm8 2.5h.4v.4h.4v.4h.3v.3h.7v.4h4.4v-.4h.7v-.3h.4v-.4h.4v-.7h.3v-2.6h-.3V20h-.4v-.4h-.4v-.3h-.7v-.4h-3.6v-.4h-.4v-1h.4V17h2.5v.4h.4v.3h2.2v-1.4h-.4v-.4h-.4v-.4h-.3v-.3h-.7v-.4h-4v.4h-.8v.3h-.3v.4h-.4v.7h-.4v2.6h.4v.7h.4v.4h.3v.3h.7v.4h3.7v.4h.4v1h-.4v.4h-3v-.3h-.3V22h-2.2v1.4Zm9.5-6.5h3v8h2.1v-8h3v-2.2h-8V17Zm10 8h2.2v-4h3.3v.4h.4V25h2.2v-4h-.4v-.7h-.4v-.4h.4v-.7h.4v-2.6h-.4V16h-.4v-.4h-.3v-.3h-.8v-.4h-6.2V25Zm2.2-6.2V17h3.3v.4h.4v1h-.4v.4h-3.3Zm8.3 3.3h.3v.7h.4v.7h.3v.4h.4v.4h.7v.3h.8v.4h3.6v-.4h.7v-.3h.8v-.4h.3v-.4h.4v-.7h.3v-.7h.4v-4.4h-.4V17h-.3v-.7h-.4v-.4h-.3v-.4h-.8v-.3h-.7v-.4h-3.6v.4h-.8v.3h-.7v.4h-.4v.4h-.3v.7h-.4v.7h-.3v4.4Zm2.1-.7v-3h.4v-.7h.4v-.3h.7V17h2.2v.4h.7v.3h.4v.7h.3v3h-.3v.7h-.4v.4h-.7v.3h-2.2v-.3h-.7V22h-.4v-.7h-.4Zm9.3 3.6h2.2v-2.2h-2.2V25Zm4.8 0h6.2v-.4h.7v-.3h.4v-.4h.3v-.7h.4v-2.6h-.4v-.3h-.3v-.8h.3v-.3h.4v-2.6h-.4V16h-.3v-.4h-.4v-.3h-.7v-.4h-6.2V25Zm2.2-6.2V17h3.3v.4h.3v1h-.3v.4h-3.3Zm0 4V21h3.3v.4h.3v1h-.3v.4h-3.3Zm8.4 0h.3v.7h.4v.4h.4v.4h.3v.3h.8v.4h4.3v-.4h.8v-.3h.3v-.4h.4v-.4h.4v-.7h.3v-8h-2.2v7.3h-.3v.4h-.4v.3h-3v-.3h-.3V22h-.3v-7.3h-2.2v8Zm11.3 2.2h2.2V14.8h-2.2V25Zm4.7 0h7.3v-2.2h-5v-8h-2.3V25Zm9.4 0h5.8v-.4h.7v-.3h.7v-.4h.4v-.4h.4v-.7h.3v-.7h.4v-4.4h-.4V17h-.3v-.7h-.4v-.4h-.4v-.4h-.7v-.3h-.7v-.4h-5.8V25Zm2.1-2.2V17h3v.4h.7v.3h.3v.7h.4v3h-.4v.7h-.3v.4h-.8v.3h-2.9Z"/>
		<path stroke="#31274A" stroke-width="2" d="m0 40 1012-1.4"/>
	</g>
  <g clip-path="url(#a)">
    <g opacity=".7" style="mix-blend-mode:screen">
      <path fill="url(#h)" d="M-67.7 703.2H71.5L22.1 811h4.6L76 703.2h139.6l-33 107.8h4.4l33-107.8h139.8L343.4 811h4.1L364 703.3h140V811h4V703.3h140L664.5 811h4.1l-16.5-107.7H792L825 811h4.2l-33-107.7H936L985.3 811h4.6l-49.4-107.7h139.3l65.9 107.7h5l-66-107.6h78.3v-4.6h-81l-53-86.7h125l9 11.9v-7l-3.7-4.9h3.7v-4.5h-7.2l-53.6-70.2h60.8V533h-64.3l-44.7-58.4h103.5l5.5 6V470h-3.8l-44.7-48.7h48.5v-4.6h-52.7l-38-41.3h87.9l2.8 2.7v-7.2h-1.3l-37.3-34.9h38.6v-4.6h-43.5l-32.6-30.4h75.8l.3.2v-5.7l-31.8-26h31.8V265h-37.4l-28.2-23h65.6v-6l-25.8-18.8h25.8v-4.6h-32.1l-11-8h43V200H-151v4.6h43.1l-11 8h-32v4.5h25.7l-25.8 18.8v6h65.6l-28.2 23H-151v4.5h31.8l-31.8 26v5.7l.2-.2h76l-32.7 30.5H-151v4.5h38.6l-37.3 34.9h-1.3v7.2l2.8-2.7h87.8l-37.9 41.3H-151v4.6h48.5l-44.7 48.7h-3.8v10.6l5.5-6h103.4l-44.6 58.4H-151v4.5h60.8l-53.6 70.2h-7.2v4.5h3.7l-3.7 4.8v7l9-11.8h125l-52.9 86.5H-151v4.6h78.3l-66 107.8h5l66-107.8Zm719.1-4.5-13.2-86.6h125.9l26.5 86.7H651.4Zm157.6-282-19-41.4h89.2l25.2 41.3H809Zm98.2 4.5 29.8 48.7H833.4l-22.3-48.7h96.1Zm-76.4-124.9h-77l-12.4-26.9h73l16.4 27Zm-11.5-26.9H892l20.6 27h-76.7l-16.5-27Zm14.3 31.5 18.7 30.4h-82.5l-14-30.4h77.8Zm21.5 35 21.3 34.9h-88.5l-16-34.9h83.2Zm5 0h82.6l26.7 34.9h-88L860 335.9Zm-2.9-4.6L838.6 301h77.3l23.3 30.4h-82Zm40-61.9h72.2l24.6 27h-76.2l-20.5-27Zm-3.4-4.5-17.6-23H944l21.2 23h-71.4Zm-5.4 0h-71.9l-14-23h68.3l17.6 23Zm-76.8 0h-72.3l-10.5-23h68.7l14.1 23Zm-76.8 0h-72.6l-7-23h69l10.6 23Zm2 4.5 12.4 27h-77.4l-8.2-27h73.3Zm14.5 31.5 14 30.4h-82.8l-9.3-30.4h78Zm16 35 16 34.9h-88.7l-10.7-34.9h83.4Zm18.1 39.4 19 41.3h-95.8L696 375.3h89.4Zm21 45.9 22.4 48.7H725l-15-48.7h96.5Zm24.5 53.3 26.8 58.4H744.2l-17.9-58.4h104.6Zm29 63 32 70H767l-21.4-70h114.2Zm4.5 0h114l42.8 70H896.6l-32.2-70Zm-2.1-4.6-26.8-58.4h104.3l35.7 58.4H862.3Zm49.9-111.7h95.7l37.3 48.7H942l-29.8-48.7Zm-2.8-4.6L884 375.3h89l31.6 41.3h-95.1ZM948 336h82.3l32 34.9h-87.7L948 336Zm-3.5-4.6L921.3 301h77l27.9 30.4h-81.6Zm30.6-61.9h71.6l28.8 27H1000l-24.7-27ZM971 265l-21.1-23h67.4l24.7 23h-71Zm26.2-47.8h63l24.7 20.2h-66.1L997.2 217Zm15.2 20.2h-66.7L927.2 217h63.6l21.6 20.2Zm-72.5 0h-67.2L857.2 217h64.1l18.6 20.2Zm-72.6 0h-67.6L787.3 217H852l15.4 20.2Zm-72.6 0h-68l-9.3-20.2h65l12.3 20.2Zm-72.6 0h-68.3l-6.2-20.2h65.2l9.3 20.2ZM657.9 265H585l-3.5-23h69.2l7 23Zm1.4 4.5 8.2 27h-77.6l-4.1-27h73.5Zm9.6 31.5 9.3 30.4h-83l-4.6-30.4h78.3Zm10.7 35 10.7 34.9h-89L596 336h83.6Zm12 39.4 12.7 41.3h-96l-6.3-41.3h89.7Zm14 45.9 15 48.7H616.4l-7.4-48.7h96.7Zm16.4 53.3 17.8 58.4H626.1l-9-58.4H722Zm19.2 63 21.5 70H637.5l-10.7-70h114.4ZM795 698.7 768.4 612h125.7l39.7 86.7H795Zm282.1 0H938.4L898.7 612H1024l53 86.7Zm73.5-91.2h-124.3l-43-70.2h113.6l53.7 70.2Zm-57.2-74.7H980.5l-35.7-58.4h103.9l44.6 58.4Zm60-63h-102.8l-37.2-48.7h95.3l44.7 48.7Zm-48.9-53.3h-94.6l-31.6-41.3h88.3l38 41.3Zm50.9-45.8h-87.1l-32-34.9h81.8l37.3 34.9Zm-42.2-39.5h-81l-28-30.4h76.4l32.6 30.4Zm44-35H1082l-28.8-26.9h71l33 27Zm-38.4-31.4h-70.4l-24.6-23h66.8l28.2 23Zm38.7-27.6h-65.6l-24.6-20.2h62.5l27.7 20.2Zm-45-32.7 11 8h-61.8l-9.8-8h60.6Zm-67.5 0 9.8 8h-62.4l-8.6-8h61.2Zm-67.5 0 8.5 8h-63l-7.3-8h61.7Zm-67.6 0 7.4 8h-63.4l-6.1-8h62.1Zm-67.5 0 6 8h-63.8l-4.9-8h62.7Zm-67.6 0 4.9 8h-64.3l-3.6-8h63Zm-67.6 0 3.6 8h-64.5l-2.5-8h63.4ZM643.3 217l6.1 20.2H581l-3.1-20.2h65.5Zm-3.9-12.5 2.5 8H577l-1.2-8h63.5Zm-131.4 0h63.7l1.2 8H508v-8Zm0 12.5h65.6l3.1 20.2H508V217Zm0 24.7h69.4l3.5 23H508v-23Zm0 27.6h73.6l4.2 27H508v-27Zm0 31.5h78.4l4.7 30.4h-83V301Zm0 35h83.8l5.3 34.9h-89v-34.9Zm0 39.4h89.8l6.4 41.3H508v-41.3Zm0 45.9h96.8l7.5 48.7H508v-48.7Zm0 53.3h105l9 58.4H508v-58.4Zm0 63h114.6l10.8 70H508v-70Zm0 74.6h126l13.3 86.6H508V612Zm-290.9 86.6H78.2L118 612h125.7L217 698.7Zm-9.5-282 19-41.4H316l-12.6 41.3h-95.8Zm94.4 4.5-15 48.7H183.3l22.3-48.7H302ZM176.2 296.3H99.5l20.6-26.9h72.6l-16.5 27Zm21.4-26.9h73l-12.4 27h-77l16.4-27ZM178.4 301H256l-14 30.4h-82.4l18.7-30.4Zm61.7 35-16 34.9h-88.5l21.3-34.9h83.2Zm-11.4 34.9 16-34.9H328l-10.7 34.9h-88.7Zm18-39.5 14-30.4h78l-9.2 30.4h-82.8Zm16.1-35 12.3-26.9h73.3l-8.2 27h-77.4Zm14.4-31.4 10.6-23h69l-7 23h-72.6Zm-4.5 0h-72.3l14-23h68.8l-10.5 23Zm-77.3 0h-71.8l17.6-23h68.3l-14 23Zm-77.2 0H46.8l21.1-23h68l-17.7 23Zm-3.5 4.5-20.5 27H18l24.6-27h72.1ZM96 301h77.4l-18.6 30.4h-82L96 301Zm56 35-21.3 34.9h-88L69.3 336H152Zm-19.2 39.4H222l-19 41.3h-95.4l25.2-41.3Zm68.1 45.9L178.6 470H75l29.8-48.7h96.1Zm-19.8 53.3h104.6L267.8 533H154.3l26.8-58.4Zm85.3 63-21.4 70H120l32.2-70h114.2Zm4.4 0h114.4l-10.7 70H249.3l21.5-70Zm1.4-4.6 17.8-58.4h105l-9 58.4H272.2Zm19.2-63 15-48.7H403l-7.4 48.7H291.4Zm16.3-53.3 12.6-41.3H410l-6.3 41.3h-96Zm14-45.8 10.7-34.9H416l-5.3 34.9h-89Zm12-39.5 9.4-30.4h78.3l-4.7 30.4h-83Zm10.8-35 8.2-26.9h73.5l-4.1 27h-77.6Zm9.6-31.4 7-23h69.3l-3.5 23h-72.8Zm4.1-27.6H290l9.3-20.2h65.2l-6.2 20.2Zm-72.9 0h-68l12.3-20.2h65l-9.3 20.2Zm-73 0h-67.6L160 217h64.6l-12.4 20.2Zm-73 0H72.1L90.6 217h64.1l-15.4 20.2Zm-73 0H-.4L21.2 217h63.6l-18.5 20.2Zm-73 0H-73l24.6-20.2h63.1l-21.6 20.2Zm1.4 4.5h67.4l-21.1 23h-71l24.7-23Zm42 27.6-24.6 27h-75.7l28.8-27h71.6Zm-23 31.5h77l-23.3 30.4h-81.6l28-30.4Zm50.2 35-26.6 34.9h-87.6l32-34.9h82.2ZM39 375.3h89l-25.3 41.3h-95L39 375.3Zm60.7 45.9L70 469.9H-33.2l37.3-48.7h95.7Zm-27.6 53.3h104.3l-26.8 58.4H36.5l35.7-58.4Zm75.4 63-32.2 70H-9.2l42.9-70h113.9Zm213 161.2H221.4L248 612h125.9l-13.2 86.6Zm143.4 0H364.7L378 612h126v86.6Zm0-91.1H378.6l10.8-70.2H504v70.2Zm0-74.7H390l9-58.4h105v58.4Zm0-63H399.7l7.4-48.7H504v48.7Zm0-53.3h-96.2l6.4-41.3h89.7v41.3Zm0-45.8h-89.1l5.3-34.9h83.7v34.9Zm0-39.5h-83.1l4.6-30.4H504v30.4Zm0-35h-77.8l4.2-26.9H504v27Zm0-31.4h-73l3.6-23H504v23Zm-63.7-60.3H504v8h-65l1.3-8ZM504 217v20.2h-68.7l3-20.2H504Zm-131.4-12.5H436l-1.2 8H370l2.5-8Zm61.6 12.5-3 20.2h-68.6l6.1-20.2h65.5ZM305 204.6h63.4l-2.5 8h-64.5l3.6-8Zm-67.6 0h63l-3.6 8h-64.3l4.9-8Zm-67.6 0h62.6l-4.8 8h-63.9l6.1-8Zm-67.5 0h62.1l-6 8H94.7l7.4-8Zm-67.6 0h61.7l-7.3 8H26l8.6-8Zm-67.5 0h61.2l-8.6 8h-62.4l9.8-8Zm-67.5 0h60.6l-9.8 8h-61.8l11-8Zm-45 32.7 27.7-20.2h62.5l-24.6 20.2h-65.6Zm66.9 4.5h66.8l-24.6 23h-70.4l28.2-23Zm-66.7 54.5 33-26.9h71l-28.8 27h-75.2Zm76.7 4.6H7.9l-28 30.4h-81l32.6-30.4Zm-74.8 69.9 37.3-34.9h81.8l-32 34.9h-87Zm88.8 4.5h88.3L2.2 416.6h-94.6l37.9-41.3Zm-86.8 94.6 44.7-48.7h95.3l-37.3 48.7h-102.7Zm104.6 4.6h104l-35.8 58.4H-81.3l44.6-58.4Zm-101.8 133 53.7-70H28.7l-42.9 70h-124.3Zm126.5 4.6h125.3l-39.7 86.5H-64.9l52.9-86.5Z"/>
    </g>
    <path id="text" fill="#fff" d="M92.8 319h41.6v-2.4h4.9V314h2.4v-2.4h2.5v-5h2.4v-17h-2.4v-2.5h-2.5v-4.9h2.5V280h2.4v-17.1h-2.4V258h-2.5v-2.4h-2.4V253h-5v-2.4H92.9V319Zm14.7-41.5v-12.3h22v2.5h2.4v7.3h-2.4v2.5h-22Zm0 26.8v-12.2h22v2.5h2.4v7.3h-2.4v2.4h-22Zm46.7 4.9h2.5v5h2.4v2.4h4.9v2.4h14.7v-2.4h2.4V314h2.5v4.9h14.6V270h-14.6v32H181v2.4h-9.8V302H169v-32h-14.7v39.1Zm52.8-44h14.7v-14.6h-14.6v14.6Zm0 53.8h14.7v-48.9h-14.6V319Zm23.6 0h14.6v-68.4h-14.6V319Zm21.8-12.2h2.4v4.9h2.4v2.4h2.5v2.5h4.9v2.4h14.6v-2.4h2.5V314h2.4v4.9h14.7v-68.4H284V275h-2.4v-2.4h-2.5V270h-14.6v2.5h-5v2.4h-2.4v2.5h-2.4v4.8h-2.4v24.5Zm14.6-5v-14.6h2.5v-2.4h12.2v2.4h2.4V302h-2.4v2.4h-12.2V302H267Zm56.8-17h7.3V319h14.7v-34.2H358V270h-12.2v-4.9H358v-14.6h-22v2.4h-2.4v2.5H331V270h-7.3v14.7Zm38.2 22h2.4v4.9h2.5v2.4h2.4v2.5h4.9v2.4h14.7v-2.4h2.4V314h2.5v4.9h14.6V270h-14.6v5h-2.5v-2.5H389V270h-14.7v2.5h-4.9v2.4H367v2.5h-2.5v4.8H362v24.5Zm14.6-5v-14.6h2.5v-2.4h12.2v2.4h2.5V302h-2.5v2.4h-12.2V302h-2.5Zm39.4 9.9h2.5v2.4h2.4v2.5h5v2.4h21.9v-2.4h4.9V314h2.4v-4.9h2.5v-9.8H455v-4.8h-2.4V292h-4.9v-2.4h-17.1v-7.4h12.2v2.5h14.7v-7.3H455V275h-2.4v-2.4h-4.9V270h-22v2.5H421v2.4h-2.4v4.9H416v9.8h2.5v4.9h2.4v2.4h5v2.4h17v7.4h-12.2v-2.5H416v7.4Zm45.5-26.9h7.3V314h2.5v2.5h2.4v2.4h22v-14.7h-12.2v-19.5h12.2V270h-12.2v-14.6h-14.7V270h-7.3v14.7Zm56.8 7.3h2.4v7.3h2.5v7.4h2.4v7.3h2.5v4.9h19.5v-7.3h2.5v-7.4h2.4V297h2.5v7.3h2.4v7.4h2.4v7.3h19.6v-7.3h2.4v-7.4h2.5V297h2.4v-7.3h2.5V270h-14.7v19.6h-2.4v7.3h-2.5v7.3h-2.4V297h-2.5v-7.3h-2.4V270h-17.1v19.6h-2.5v7.3h-2.4v7.3h-2.5V297h-2.4v-7.3H533V270h-14.7v22Zm76 14.7h2.4v4.9h2.5v2.4h2.4v2.5h5v2.4h22v-2.4h4.8V314h2.5v-2.4h2.4v-7.4h-14.7v2.5H609v-7.4h29.3v-17h-2.4v-5h-2.5V275H631v-2.4h-5V270h-19.5v2.5h-4.9v2.4h-2.4v2.5h-2.5v4.8h-2.4v24.5Zm14.7-17.1v-7.4h14.6v7.4H609Zm36.4 29.3h14.7v-4.9h2.4v2.5h2.5v2.4h14.7v-2.4h4.8V314h2.5v-2.4h2.4v-5h2.5v-24.4h-2.5v-4.8H687V275h-2.5v-2.4h-4.8V270H665v2.5h-2.5v2.4h-2.4v-24.4h-14.7V319Zm14.7-17.1v-14.7h2.4v-2.4h12.3v2.4h2.4V302h-2.4v2.4h-12.3V302h-2.4Zm38.2 9.8h2.4v2.4h2.5v2.5h4.8v2.4h22v-2.4h5V314h2.4v-4.9h2.4v-9.8h-2.4v-4.8h-2.5V292H730v-2.4h-17v-7.4h12v2.5h14.7v-7.3h-2.4V275h-2.5v-2.4H730V270h-22v2.5h-4.8v2.4h-2.5v4.9h-2.4v9.8h2.4v4.9h2.5v2.4h4.8v2.4h17.1v7.4H713v-2.5h-14.6v7.4Zm49.1-46.5H762v-14.6h-14.6v14.6Zm0 53.8H762v-48.9h-14.6V319Zm21-34.2h7.4V314h2.4v2.5h2.4v2.4h22v-14.7h-12.2v-19.5h12.2V270h-12.2v-14.6h-14.6V270h-7.4v14.7Zm39.4 22h2.5v4.9h2.4v2.4h2.4v2.5h5v2.4h22v-2.4h4.8V314h2.5v-2.4h2.4v-7.4h-14.7v2.5h-14.6v-7.4h29.3v-17h-2.4v-5h-2.5V275h-2.4v-2.4h-5V270H820v2.5h-4.9v2.4h-2.4v2.5h-2.5v4.8h-2.4v24.5Zm14.7-17.1v-7.4H837v7.4h-14.6Zm35.7 22h2.4v2.4h2.5v2.5h4.9v2.4h22v-2.4h4.8V314h2.5v-4.9h2.4v-9.8h-2.4v-4.8h-2.5V292H890v-2.4h-17.2v-7.4h12.3v2.5h14.6v-7.3h-2.4V275h-2.5v-2.4H890V270h-22v2.5h-5v2.4h-2.4v4.9h-2.4v9.8h2.4v4.9h2.5v2.4h4.9v2.4h17v7.4h-12.2v-2.5h-14.6v7.4Zm49.1 7.3h7.3v2.4h-2.4v5h-2.5v4.8h7.4v-4.9h2.4v-4.9h2.5v-17h-14.7V319Zm-539 65.8h7.3V419h14.7v-34.2h12.2V370h-12.2v-4.9h12.2v-14.6h-22v2.4h-2.4v2.5h-2.5V370h-7.3v14.7Zm38.2 22h2.4v4.9h2.5v2.4h2.4v2.5h4.9v2.4h14.7v-2.4h2.4V414h2.5v4.9h14.6V370h-14.6v5h-2.5v-2.5h-2.4V370h-14.7v2.5h-4.9v2.4h-2.4v2.5h-2.5v4.8h-2.4v24.5Zm14.6-5v-14.6h2.5v-2.4h12.2v2.4h2.5V402h-2.5v2.4h-12.2V402H421Zm39.4 9.9h2.5v2.4h2.4v2.5h5v2.4h21.9v-2.4h4.9V414h2.4v-4.9h2.5v-9.8h-2.5v-4.8h-2.4V392h-4.9v-2.4h-17.1v-7.4h12.2v2.5h14.7v-7.3h-2.5V375h-2.4v-2.4h-4.9V370h-22v2.5h-4.9v2.4H463v4.9h-2.5v9.8h2.5v4.9h2.4v2.4h5v2.4h17v7.4h-12.2v-2.5h-14.7v7.4Zm45.5-26.9h7.3V414h2.5v2.5h2.4v2.4h22v-14.7H528v-19.5h12.2V370H528v-14.6h-14.7V370H506v14.7Zm39.4 22h2.4v4.9h2.5v2.4h2.4v2.5h5v2.4h22v-2.4h4.8V414h2.4v-2.4h2.5v-7.4h-14.7v2.5h-14.6v-7.4h29.3v-17h-2.5v-5h-2.4V375h-2.4v-2.4h-5V370h-19.5v2.5h-4.9v2.4h-2.4v2.5h-2.5v4.8h-2.4v24.5Zm14.7-17.1v-7.4h14.6v7.4h-14.6ZM597 419h14.7v-29.3h2.4v-2.5h2.4v-2.4h9.8V370h-9.8v2.5h-2.4v2.4h-2.4V370H597v49Zm29.6 0h14.7v-14.7h-14.7V419Z"/>
    <path id="logo" fill="#fff" fill-rule="evenodd" d="M521.3 113c.8 1 1.2 2.4 2 5.1l18.7 59.4c-7-3.5-14.5-6-22.3-7.3l-12-39.8-.7-.8a1.6 1.6 0 0 0-2.4.8l-12 39.8a79.1 79.1 0 0 0-22.4 7.3l18.7-59.4c.9-2.7 1.3-4 2.2-5a5 5 0 0 1 2.8-2c1.2-.6 2.7-.6 5.6-.6h13.3c3 0 4.4 0 5.7.5 1 .4 2 1.1 2.8 2Zm1 68c-3 2.6-8.7 4.3-15.3 4.3-8.2 0-15-2.6-16.8-6.2-.7 2-.8 4.4-.8 5.9 0 0-.4 7.4 4.4 12.5 0-2.7 2-4.8 4.6-4.8 4.4 0 4.4 4 4.4 7.2v.2c0 5 2.8 9.1 6.9 10.9-.6-1.3-1-2.8-1-4.3 0-4.7 2.7-6.4 5.7-8.4 2.4-1.7 5.1-3.4 7-7a13.7 13.7 0 0 0 .9-10.3Z" clip-rule="evenodd"/>
  </g>
  <defs>
    <linearGradient id="c" x1="181.1" x2="181.1" y1="50.1" y2="998.2" gradientUnits="userSpaceOnUse">
      <stop stop-color="#F90"/>
      <stop offset=".4" stop-color="#AD00FF"/>
      <stop offset=".5" stop-color="#0029FF"/>
      <stop offset=".6" stop-color="#6D39FF"/>
    </linearGradient>
    <linearGradient id="e" x1="1051.9" x2="1051.9" y1="451.7" y2="1114.7" gradientUnits="userSpaceOnUse">
      <stop stop-color="#0029FF"/>
      <stop offset="1" stop-color="#6D39FF"/>
    </linearGradient>
    <linearGradient id="g" x1="-33.5" x2="-330.9" y1="413.3" y2="-134.3" gradientUnits="userSpaceOnUse">
      <stop stop-color="#F90"/>
      <stop offset="1" stop-color="#AD00FF"/>
    </linearGradient>
    <linearGradient id="h" x1="506" x2="506" y1="811" y2="200" gradientUnits="userSpaceOnUse">
      <stop stop-color="#FFF" stop-opacity="1"/>
      <stop offset=".5" stop-color="#FFF" stop-opacity="0.3"/>
      <stop offset=".9" stop-color="#FFF" stop-opacity="0"/>
    </linearGradient>
    <filter id="b" width="3217.4" height="2217.7" x="-1427.6" y="-455.8" color-interpolation-filters="sRGB" filterUnits="userSpaceOnUse">
      <feFlood flood-opacity="0" result="BackgroundImageFix"/>
      <feBlend in="SourceGraphic" in2="BackgroundImageFix" result="shape"/>
      <feGaussianBlur result="effect1_foregroundBlur_14_2" stdDeviation="225"/>
    </filter>
    <filter id="d" width="2520.5" height="1821.4" x="-208.3" y="-37.3" color-interpolation-filters="sRGB" filterUnits="userSpaceOnUse">
      <feFlood flood-opacity="0" result="BackgroundImageFix"/>
      <feBlend in="SourceGraphic" in2="BackgroundImageFix" result="shape"/>
      <feGaussianBlur result="effect1_foregroundBlur_14_2" stdDeviation="225"/>
    </filter>
    <filter id="f" width="2520.5" height="1821.4" x="-1373.3" y="-1062.3" color-interpolation-filters="sRGB" filterUnits="userSpaceOnUse">
      <feFlood flood-opacity="0" result="BackgroundImageFix"/>
      <feBlend in="SourceGraphic" in2="BackgroundImageFix" result="shape"/>
      <feGaussianBlur result="effect1_foregroundBlur_14_2" stdDeviation="225"/>
    </filter>
    <clipPath id="a">
      <path fill="#fff" d="M0 0h1012v506H0z"/>
    </clipPath>
    <clipPath id="i">
      <path fill="#fff" d="M0 0h1012v40H0z"/>
    </clipPath>
  </defs>
</svg>
