<svg xmlns="http://www.w3.org/2000/svg" fill="none" viewBox="0 0 24 24">
  <path fill="url(#a)" d="M8.36 16.22c-.38 1.25-.11 2.99.79 3.81V20l.03-.08c.11-.53.54-.86 1.09-.84.51.01.8.28.87.87.03.22.03.44.04.67v.07c0 .5.14.98.42 1.4.25.4.6.71 1.07.92l-.02-.04-.02-.08c-.35-1.05-.1-1.78.82-2.4l.28-.19.62-.41a3.04 3.04 0 0 0 1.28-2.17c.05-.38 0-.75-.11-1.11l-.15.1c-1.39.74-2.98 1-4.52.7-.93-.14-1.83-.4-2.5-1.18Z"/>
  <path fill="#fff" d="M4 16s2.67-1.3 5.35-1.3l2.03-6.26c.07-.3.29-.5.54-.5.25 0 .46.2.54.51l2.02 6.25c3.18 0 5.35 1.3 5.35 1.3L15.28 3.6c-.12-.37-.35-.6-.64-.6H9.2c-.29 0-.5.23-.64.6L4 16Z"/>
  <defs>
    <linearGradient id="a" x1="8.19" x2="16.91" y1="23" y2="18.89" gradientUnits="userSpaceOnUse">
      <stop stop-color="#D83333"/>
      <stop offset="1" stop-color="#F041FF"/>
    </linearGradient>
  </defs>
</svg>