<svg fill="none" height="28" viewBox="0 0 223 28" width="223" xmlns="http://www.w3.org/2000/svg"><path d="m60.4252 13.8164h-7.5678v13.8149h7.5678z" fill="#fb3640"/><path d="m32.3418 13.8149v3c.2704 7.2029 4.4332 10.8043 12.4885 10.8043h11.7413v-5.9161h-11.4958c-.6715.0546-1.3474-.022-1.9886-.2255-.6412-.2034-1.2351-.5297-1.7473-.9599-.8865-1.0439-1.3434-2.376-1.2809-3.7343-.0533-.7657-.0853-1.7518-.0853-2.9581s0-2.1818.0853-2.9161c-.0338-.6819.0716-1.3636.3099-2.00492s.6047-1.22931 1.0778-1.72937c1.0682-.87802 2.4433-1.31092 3.8319-1.20631h11.357v-5.9686h-11.5598c-3.96 0-7.0448.923088-9.233 2.77975-1.1283 1.00888-2.0214 2.24542-2.6183 3.625-.5969 1.37957-.8835 2.86961-.84 4.36815-.0214.7657-.0427 1.8147-.0427 3.042z" fill="#fb3640"/><path d="m.00054836 13.8164h7.56781164v-13.81484551h-7.56781164z" fill="#fb3640"/><path d="m28.0411 10.7729c-.1174-3.43015-1.2595-6.13648-3.4904-7.99315-2.2308-1.856662-5.2408-2.77975-9.2009-2.77975h-11.5705v5.91615h11.3677c1.3886-.10461 2.7637.32829 3.832 1.20631.471.50139.8362 1.0896 1.0743 1.73059.2382.64099.3447 1.32205.3133 2.00375.0533.7342.0854 1.6993.0854 2.9161s0 2.1923-.0854 2.9581c.0775 1.378-.3846 2.733-1.2916 3.7867-.5099.4304-1.1019.7569-1.7414.9604-.6396.2035-1.3139.2799-1.9838.225h-11.5705v5.9161h11.7413c8.0481 0 12.211-3.6014 12.4885-10.8043 0-.7448 0-1.7413 0-3 0-1.2588.0534-2.2763.032-3.042z" fill="#fb3640"/><g fill="#000"><path d="m72.1754 22.4594c-.0607-.0568-.1091-.1251-.1421-.2009-.033-.0757-.05-.1572-.05-.2396v-16.38485c-.0046-.08673.0092-.17343.0404-.25467.0313-.08124.0793-.15524.141-.21736.053-.05731.1171-.10356.1886-.136s.149-.0504.2277-.05282h6.7566c2.1257-.12785 4.2265.50568 5.9134 1.78324.7309.64038 1.3124 1.42836 1.7048 2.31004s.5864 1.83622.5687 2.79842v1.9511 1.9196c-.1708 4.6084-2.8357 6.9126-7.9948 6.9126h-6.9487c-.1545-.0108-.2992-.0782-.4056-.1888zm7.2049-3.5769c.4295.0353.8619-.0132 1.2723-.1428.4103-.1296.7905-.3378 1.1186-.6125.5696-.6676.863-1.5213.8219-2.3916 0-.493.0534-1.1224.0534-1.8987 0-.7762 0-1.3951-.0534-1.8671.0218-.4365-.0454-.8729-.1975-1.2836s-.3862-.78741-.6884-1.10805c-.6901-.5516-1.5675-.82527-2.455-.76574h-2.4016v10.07009z"/><path d="m91.7918 22.4594c-.0608-.0568-.1091-.1252-.1421-.2009s-.0501-.1573-.0501-.2397v-16.38477c-.0014-.17602.0676-.34553.1922-.47204.0598-.06283.1327-.11223.2138-.14482.0811-.03258.1683-.04759.2558-.04399h12.0726c.087-.00226.174.01336.255.04586.081.03251.154.08119.214.14295.065.06109.116.13442.151.21557.035.08114.053.16839.052.25647v2.49653c.002.08514-.016.16957-.051.24745-.035.07789-.087.14736-.152.2036-.126.11793-.295.18202-.469.17833h-8.1232v3.20986h7.5572c.089-.0013.177.0148.259.0472.083.0324.158.0805.221.1416.063.06.112.1319.145.2113.033.0793.049.1645.047.2502v2.2973c.003.0874-.013.1743-.046.2555s-.083.1549-.146.2165c-.063.0611-.138.1092-.221.1416-.082.0324-.17.0485-.259.0472h-7.5572v3.3042h8.3252c.089-.0014.177.0147.259.0475.083.0327.157.0813.22.1429.063.0617.112.1351.146.2159.033.0808.049.1674.048.2546v2.486c.003.0845-.012.1686-.045.2465-.033.078-.084.1478-.147.2046-.063.0607-.139.1078-.221.1385-.083.0307-.171.0443-.26.0398h-12.328c-.1592-.0131-.3076-.0842-.4162-.1993z"/><path d="m109.44 22.4594c-.06-.0569-.109-.1252-.142-.2009-.033-.0758-.05-.1573-.05-.2397v-16.38481c-.004-.17454.061-.34386.182-.47203.057-.06258.129-.11193.208-.14456.079-.03262.165-.04773.251-.04425h12.125c.089-.00142.177.0147.259.04741.083.03271.157.08133.22.14298s.112.13507.145.21589c.034.08082.05.16739.049.25456v2.49654c.003.08442-.012.16857-.045.24652-.034.07794-.084.14776-.147.20453-.131.11856-.303.18253-.481.17832h-8.112v3.2098h7.557c.088-.0014.174.0145.255.0466.081.0322.155.0801.216.1408.062.0606.111.1329.144.2124.032.0796.048.1648.047.2506v2.2972c.002.0874-.013.1744-.046.2556s-.083.1548-.146.2165c-.061.0612-.134.1096-.215.142-.081.0325-.168.0484-.255.0468h-7.557v3.3042h8.326c.087-.0016.174.0143.254.0467.081.0325.154.0809.215.1421.064.0616.113.1353.146.2165s.049.1681.047.2555v2.4861c.003.0844-.012.1686-.046.2465-.033.078-.083.1478-.147.2045-.062.0594-.135.1058-.216.1365-.081.0306-.167.0449-.253.0419h-12.286c-.093.0062-.187-.0084-.274-.043-.087-.0345-.165-.088-.228-.1563z"/><path d="m127.128 22.4573c-.06-.0569-.109-.1252-.142-.2009-.033-.0758-.05-.1573-.05-.2397v-16.38481c-.007-.17311.054-.34224.171-.47203.061-.06177.134-.11045.215-.14295.08-.03251.167-.04813.255-.04587h7.268c1.87-.10866 3.72.41722 5.241 1.48953.64.53146 1.143 1.20341 1.47 1.96149.326.75807.466 1.58104.409 2.40224.059.8157-.083 1.6335-.413 2.384-.331.7505-.841 1.4116-1.487 1.9272-1.538 1.032-3.381 1.5337-5.241 1.4266h-2.925v5.4651c0 .1643-.065.322-.181.4406-.061.0617-.134.1104-.215.1429-.08.0325-.167.0481-.255.0459h-3.693c-.163-.0084-.317-.08-.427-.1993zm7.589-9.5036c.602.0316 1.194-.1635 1.655-.5455.21-.2104.373-.4621.478-.7387.105-.2765.149-.5717.13-.8662.029-.5816-.17-1.15178-.555-1.59444-.224-.21381-.493-.37781-.788-.48095-.294-.10314-.608-.14303-.92-.11696h-2.882v4.34275z"/><path d="m147.498 21.1148c-.72-.6422-1.293-1.4283-1.68-2.3057-.386-.8774-.578-1.8258-.561-2.7817 0-.4721 0-1.2378 0-2.2973 0-1.0594 0-1.8357 0-2.3182-.016-.9353.178-1.86262.567-2.71634s.964-1.61302 1.685-2.22426c1.667-1.2413 3.728-1.86193 5.817-1.75177 1.463-.02576 2.916.24194 4.27.78673 1.091.4217 2.054 1.11154 2.796 2.00352.599.70981.954 1.58723 1.015 2.50702.003.0738-.01.1474-.037.2162-.028.0688-.069.1313-.122.1835-.054.0522-.117.0931-.187.12-.07.0268-.145.0392-.22.0363h-3.939c-.137.0105-.274-.0187-.395-.084-.108-.0701-.202-.159-.277-.2622-.213-.48354-.552-.9033-.982-1.2168-.57-.36395-1.243-.54029-1.922-.50351-1.985 0-3.01 1.04897-3.074 3.03151v2.1714 2.1923c.064 2.0979 1.068 3.2098 3.128 3.2098.854.0462 1.696-.2148 2.369-.7343.306-.2832.543-.6298.694-1.0145.151-.3848.213-.7979.182-1.2093v-.4195h-2.295c-.088.0016-.174-.0143-.255-.0468s-.154-.0808-.215-.1421c-.063-.0616-.113-.1352-.146-.2164s-.049-.1682-.046-.2556v-1.993c-.003-.0874.013-.1744.046-.2556s.083-.1549.146-.2165c.061-.0612.134-.1096.215-.142.081-.0325.167-.0484.255-.0468h6.532c.087-.0016.174.0143.255.0468.081.0324.154.0808.215.142.063.0616.113.1353.146.2165s.048.1682.046.2556v2.9266c.022 1.3105-.349 2.5984-1.067 3.7028-.697 1.0487-1.692 1.8731-2.861 2.3707-1.349.5631-2.804.8419-4.27.8182-2.099.1236-4.171-.5106-5.828-1.7833z"/><path d="m165.745 22.4586c-.061-.0568-.109-.1251-.142-.2009-.033-.0757-.05-.1572-.05-.2396v-16.38484c-.004-.17455.061-.34386.181-.47203.06-.06284.133-.11224.214-.14482.081-.03259.169-.0476.256-.044h7.066c1.903-.11509 3.788.41842 5.337 1.51051.632.51857 1.133 1.17381 1.465 1.91445.331.74064.484 1.5466.446 2.35483.033 1.0626-.256 2.1109-.833 3.0105-.576.8591-1.386 1.5423-2.337 1.9721l3.469 6.1574c.049.0869.079.1837.085.2832-.004.1379-.061.2691-.16.3672-.048.0522-.108.0934-.174.1206-.067.0272-.138.0397-.21.0367h-3.619c-.229.0141-.456-.0446-.648-.1674-.193-.1228-.339-.3032-.419-.5144l-2.829-5.4756h-2.465v5.4861c.003.0844-.012.1685-.046.2465-.033.0779-.083.1477-.147.2045-.063.0607-.138.1079-.221.1386-.082.0306-.171.0442-.259.0397h-3.512c-.084-.0025-.167-.0214-.244-.0556s-.146-.083-.204-.1437zm7.472-9.6819c.613.0444 1.22-.1517 1.686-.5455.198-.1964.351-.4314.451-.6898.099-.2584.142-.5344.126-.8102.014-.2819-.03-.5638-.129-.82871-.099-.26496-.251-.50755-.448-.71324-.226-.20408-.492-.36053-.782-.45975-.29-.09921-.598-.13909-.904-.11718h-2.85v4.19588z"/><path d="m183.903 22.4899c-.099-.0981-.156-.2293-.161-.3672-.013-.0763-.013-.1544 0-.2307l5.988-16.18554c.058-.22832.198-.42838.394-.56332.197-.13493.436-.19565.674-.17095h4.013c.238-.0247.478.03602.674.17095.196.13494.336.335.394.56332l5.988 16.18554c.014.0763.014.1545 0 .2307-.008.1391-.069.2701-.171.3672-.099.0988-.233.1554-.374.1573h-3.341c-.187.0118-.373-.0359-.531-.136-.157-.1001-.278-.2473-.344-.4199l-.928-2.4441h-6.725l-.929 2.4441c-.066.1726-.186.3198-.344.4199-.157.1001-.344.1478-.531.136h-3.341c-.075.0033-.15-.009-.22-.0361s-.133-.0684-.185-.1212zm6.596-6.6295h4.568l-2.284-6.41963z"/><path d="m205.331 22.4704c-.063-.0567-.114-.1266-.147-.2045-.033-.078-.048-.1621-.045-.2465v-16.38485c-.001-.08717.015-.17374.048-.25456.034-.08082.083-.15423.146-.21588s.137-.11028.22-.14299c.082-.03271.17-.04883.259-.04741h2.903c.193-.00893.385.03923.551.1383.165.09907.297.24452.378.41765l4.419 7.77284 4.44-7.77284c.081-.17313.212-.31858.378-.41765.165-.09907.357-.14723.551-.1383h2.903c.087-.00226.174.01336.255.04586.081.03251.154.08119.215.14295.063.0616.112.13527.145.21646s.049.16817.047.25557v16.39535c.003.0844-.012.1685-.045.2465-.034.0779-.084.1477-.147.2045-.062.0604-.135.1075-.216.1382s-.168.0444-.254.0401h-3.266c-.169-.0052-.328-.0732-.447-.1901s-.188-.274-.194-.4392v-9.1995l-2.818 5.0036c-.083.1673-.209.3098-.367.4131-.158.1032-.34.1634-.529.1743h-1.388c-.191-.0091-.376-.0684-.535-.1718-.16-.1033-.288-.2468-.372-.4156l-2.743-4.9931v9.189c.003.0844-.012.1685-.045.2465-.034.0779-.084.1477-.148.2045-.063.0607-.138.1079-.221.1385-.082.0307-.171.0443-.259.0398h-3.202c-.087.0017-.174-.0142-.255-.0467-.08-.0325-.154-.0808-.215-.1421z"/></g></svg>