<svg xmlns="http://www.w3.org/2000/svg" viewBox="0 0 703.9 121.2"><path d="M297 103.5 341.4 59a6.2 6.2 0 0 0 0-8.8L297 5.9" fill="none" stroke="#000" stroke-width="13.1"/><path d="M55.8 9.9 11.4 54.3a6.2 6.2 0 0 0 0 8.8l44.4 44.4" fill="none" stroke="#000" stroke-width="11.1"/><g fill="#000"><rect height="20" rx="3" width="20" x="40" y="5.9"/><rect height="20" rx="3" width="20" y="48.9"/><rect height="20" rx="3" width="20" x="40" y="91.9"/><path d="M154 0V97h-15.7v-9a25.1 25.1 0 0 1-10 7.4 33.1 33.1 0 0 1-13 2.5A37.1 37.1 0 0 1 97 93.4a32 32 0 0 1-12.5-12.5A38 38 0 0 1 80 62a37.3 37.3 0 0 1 4.6-18.7A32.1 32.1 0 0 1 97 30.9a37.1 37.1 0 0 1 18.1-4.4 33 33 0 0 1 12.7 2.3 25.3 25.3 0 0 1 9.8 7V0zM117.2 84a21.3 21.3 0 0 0 10.5-2.6 19.8 19.8 0 0 0 7.5-7.7 23.3 23.3 0 0 0 2.7-11.5 23.3 23.3 0 0 0-2.7-11.5 18.9 18.9 0 0 0-7.5-7.6 21.8 21.8 0 0 0-21.1 0 18.9 18.9 0 0 0-7.4 7.6 23.3 23.3 0 0 0-2.8 11.5 23.3 23.3 0 0 0 2.8 11.5 19.8 19.8 0 0 0 7.4 7.7 21.3 21.3 0 0 0 10.6 2.6zm58.1-56.7h16.3V97h-16.3zm103 0L248.4 97h-16.8l-29.9-69.7h17l21.6 51.7 22.4-51.7zM398.8 91.1a.4.4 0 0 0-.2.3l-.1.1c-.1 0-.3-.1-.3-.4s.2-.3.4-.3.4.1.2.3zm.5 0q1.1-2 .9 1.3a40.2 40.2 0 0 1-.6 4.9q-.1 1.2-.4 1.2c-.4 0-.5-.5-.4-1.7a7.4 7.4 0 0 0 .1-1.4 10 10 0 0 1 .3-1.2c0-.9-.2-1.3-.6-1.4h-.5l.2.7c.2.4.2.5 0 .1a1 1 0 0 1-.8-1q0-.3.4-.4c.4-.2.7-.1.9.1a.4.4 0 0 1 .2.2h.5v-.3a1 1 0 0 1-.2-1zm1.7 6.6q.4-.2.4.4a.4.4 0 0 1-.4.4.3.3 0 0 1-.3-.3.8.8 0 0 1 .3-.5zm51.1 16.3c-.2-.3-.1-.4.2-.4a.4.4 0 0 1 .4.4.4.4 0 0 1-.1.3.5.5 0 0 1-.5-.3zM401.4 94c.3 0 .4.3.4 1s-.1.8-.4.8-.4-.2-.4-.8.1-1 .4-1zm50.6 10.6q6.4 8 6.2 8.5c0 .1-.3 0-.8-.4a12.6 12.6 0 0 1-1.2-1 12.8 12.8 0 0 1-1.1-1.4 2.2 2.2 0 0 1-.6-1 3.6 3.6 0 0 0-.7-1 18.6 18.6 0 0 0-1.5-1.6l-.9-.9a2 2 0 0 1-.4-.5c.6.7.7 1 .4 1 0 0 0 .2.3.5a10 10 0 0 1 .7.8l1.4 1.6a11.5 11.5 0 0 1 1.4 1.7l1.1 1.4a4.3 4.3 0 0 1 .6 1.8c0 .3 0 .5-.2.5s0 0-.4-.3a.8.8 0 0 0-1 0c-.2.1-.5 0-.7-.4l-.1.2a.6.6 0 0 1-.4.7c-.2 0-.3 0-.3-.3a54 54 0 0 0-4.2-5.3 3.7 3.7 0 0 1-1.3-1.4l-.4-.7c0-.2-.3-.4-.5-.4-.5 0 0 .8 1.5 2.5a9.7 9.7 0 0 1 1.4 2c0 .7.2 1 .6.8.1 0 .2.3.1.8q-.1.6.4.4c.3 0 .4 0 .4.2v.5l.6.9.7.7c.2.2.3.2.4.1s.2 0 0 .3c0 .2-.1.4-.4.5l-.8.6c-.7.5-1 .8-1 1s-.2.3-.6.3-.6.1-.6.4-.2.4-.5.7a9.5 9.5 0 0 1-1 .8 7.1 7.1 0 0 1-1.1.7c-.4.3-.6.4-.7.3l-.8-.2c-.2 0-.6-.3-1.1-1a28.6 28.6 0 0 1-2-2.2l-3.3-3.8-4-4.8q-2-2.3-4-4.3l-2.5-3a20.1 20.1 0 0 1-1.8-2.1l-2.1-2.6q-1.9-2-4-4.7l-6-8.1-3-4-1.8-2.5-1.2-1.6a8 8 0 0 0-.5-1c-.7-1-1.1-1.6-1.4-1.6s-.8-.1-1.4.2a2.7 2.7 0 0 0-.8 1.4l-.8 3.4a5.9 5.9 0 0 1 0 1.2 4.3 4.3 0 0 0-.2 1l-.4 2-.6 3.4-.6 3.3c-.2 1-.1 1.5-.1 1.6a.1.1 0 0 1-.1.1 5 5 0 0 1-.3-2.4 51.5 51.5 0 0 1 1-8c-.3-.3-.3-.5.1-.5.2 0 .3-.5.3-1.7.2-1.2 0-1.8-.3-1.8-.2 0-.3.3-.3.7s-.1.7-.4.7-.2.3 0 .7c.2.7.2 1 .1 1.1a7.3 7.3 0 0 0-.5 2.3 30.9 30.9 0 0 1-.4 3.3c0 1.2-.2 2-.6 2.1s-.4.4 0 .6.3.5.1 1-.4.6-.7.4a1.4 1.4 0 0 0-1 .3c0 .2 0 .2-.1.1a1.2 1.2 0 0 1 .1-.4c.1-.6 0-.8-.2-.8-.4.2-.5.5-.3 1 0 .4-.1.7-.3.7s-.4-.6-.3-1.7 0-1.6-.1-1.5-.1-.4.3-1a2 2 0 0 0 .4-2.1 6.4 6.4 0 0 1-.1-2.4 4.3 4.3 0 0 1 .6-2.2 4.4 4.4 0 0 0 .5-1.7.6.6 0 0 0-.7-.7c-.4 0-.6 0-.6.3s-.2.4-.7.4-.5.1-.3.4a1.4 1.4 0 0 1-.2 1q-.6.6 0 .3a.5.5 0 0 1 .7.1c.1.2 0 .5-.2.9a3.2 3.2 0 0 0-.7 1.2c0 .6 0 .8.2.6.3-.4.5-.4.5 0a.4.4 0 0 1-.4.4l-.6.7a1.3 1.3 0 0 1-.1.6 1.6 1.6 0 0 0-.3.4c0 .2.1.3.3.2.4-.2.4 0 0 .6a1 1 0 0 1-1 .7c-.3 0-.3.2 0 .6.5.2.6.9.3 2a9.6 9.6 0 0 1-.7 2c-.4.4-.5.4-.3 0s.2-.7 0-1c-.3 0-.4.3-.4.8s.1.8.4.8.3.2-.3.6c-.4.4-.4.5-.3.5.9 0 1.2.2 1 .7-.3 1-.7 1-1 0 0-.2-.1-.1-.2.3s.1.7.5.7.6.3.3.9a3.4 3.4 0 0 1-.1.8 4.3 4.3 0 0 0-.2 1 3 3 0 0 1-.1 1v.4c0 .1-.3.2-.7.2s-.7-.2-.6-.9a1.3 1.3 0 0 0 .2-.5.6.6 0 0 1 .2-.6c.6-.4.7-1.1.3-2.2s-.8-1.3-1.7-.4a1.6 1.6 0 0 0-.5 1h.7c.5-.1.6.1.5.8a12.1 12.1 0 0 0-.2 2.4 1 1 0 0 1-1.2 1 12.7 12.7 0 0 0-2.2.4 4 4 0 0 1-2.6-.5l-1.6-.5a3.4 3.4 0 0 1 0-1.4l.7-6.6a64.9 64.9 0 0 0 .7-4.9l.3-2c.5-3.1.8-5.7 1-7.9s.3-3.5.1-3.8c-.2-.5-.3-.8-.5-.8a1.7 1.7 0 0 1-.9-.4 11.9 11.9 0 0 1-1-1l-1-1.3a2.6 2.6 0 0 1-.5-1 1 1 0 0 1 .4-.8 14.5 14.5 0 0 1 2.1-.7c1.7-.7 2.6-1.2 2.7-1.7a8.7 8.7 0 0 0 .7-2.8l.8-5.7 1.5-8.1L394 39l1.7-8.2-1.1-.9a4.6 4.6 0 0 0-.7-.6c-.2-.1-.3-.3-.3-.4s-.3-.6-1-1.2a5.3 5.3 0 0 0-1.7-1.3 19 19 0 0 1-1.5-1.1l-2.5-2.4A36 36 0 0 1 384 20a1.7 1.7 0 0 1-.1-1.5A7.1 7.1 0 0 1 386 16a35.6 35.6 0 0 1 4.7-3 52 52 0 0 1 6-2.9 43.9 43.9 0 0 1 6.5-2.2q2.6-.7 5.7-1.3a72.6 72.6 0 0 1 12.3-1 23.5 23.5 0 0 1 4.6 0 20.3 20.3 0 0 1 5 1.7 19.3 19.3 0 0 1 4.9 2.8 36.3 36.3 0 0 1 3.2 3 87.1 87.1 0 0 1 8.1 8.5 26.3 26.3 0 0 1 2.4 2.8 13 13 0 0 1 2 3.9 17.4 17.4 0 0 1 .7 4q.3 6.3-4.2 12.6-4.4 6.2-14 12.9l-2.4 1.7-3 1.8c-1 .7-1.7 1.3-2.6 1.8l-1.8 1-2 1.1a1.3 1.3 0 0 0-.8.7 2.4 2.4 0 0 0 .5 1.1 12.7 12.7 0 0 1 1.3 1.8l2.1 3c.8 1.2 1.6 2 2.3 2.7s1.3 2 2.3 3.2l3 3.5 3.7 4.6 4.6 5.6L445 96a133 133 0 0 0 4.7 5.6 86 86 0 0 0 2.4 3zm-58.1-76.7.1-.3c0-.1-.1-.2-.4-.2s-.2 0 0 .2c0 .3.1.5.3.5zm-1.4 61.6c0-.3-.1-.4-.3-.4s-.3.1-.3.4a.4.4 0 0 0 .2.3s.2 0 .4-.3zm1.7 2.7a2.7 2.7 0 0 0 .1-1.6q0-.8-.3-.8a.4.4 0 0 0-.4.4v.6a4 4 0 0 1-.1.8c-.1.6 0 1 .1 1.1s.4 0 .5-.5zm0-3.8c.3 0 .5 0 .5-.3a.4.4 0 1 0-.8 0c-.1.2 0 .3.3.3zm6-3.9c.2-.2.1-.3-.2-.3s-.4.1-.4.3v.3a.1.1 0 0 0 .1.1q.2 0 .5-.4zm.7-3.4v-.7l-.3.5a2.8 2.8 0 0 0-.6 1.4c0 .4.1.6.3.4a5.4 5.4 0 0 0 .6-1.6zm.1-2.3c.3-.5.3-.8 0-1-.2-.5-.3-.4-.3.3s.1.9.3.7zm1.5-30.6c-.3.3-.5.6-.4.7a2.5 2.5 0 0 0 1-.4c.3-.3.4-.5.3-.6s-.3 0-.9.3zm.6 4.7.4-.1-.4-.4a.3.3 0 1 0 0 .5zm.6 23 .1-.5c-.2-.6-.3-.5-.3.1v.6c.1.1.2 0 .2-.1zm.7-28.6c0-.5 0-.6-.2-.4-.3 0-.4.2-.4.7s0 .5.1.5a2.7 2.7 0 0 0 .5-.8zm2.3 25.1c0-.2-.1-.2-.4-.2h-.6s0 .2.5.2zM426 56.4c0-.4 0-.5-.2-.4s-.3.2-.5.5 0 .5.3.5l.4-.5zm-11.6-5.7q13.5-8.5 19.4-15.1 6-6.6 6-13.1c0-1.3-.3-2.2-.8-2.6s-1.7-.8-3.7-1.2q-5.4-.9-14.4.7a29.9 29.9 0 0 0-4.7 1.1 1.2 1.2 0 0 0-1 1.3 17.8 17.8 0 0 1-.3 2L414 28l-1 5.2-1.2 5.3-1 5.3c-.4 1.7-.8 3.4-1 5s-.6 2.6-.8 3.6l-.3 1.4c0 .1.3.1.9-.2l4.7-2.9zm27 49.6c.5.3.6 0 .2-.6a7.2 7.2 0 0 1-.7-.8 2.3 2.3 0 0 0-.7-.7l-1-1 .9 1a2 2 0 0 1 .7 1.4c0 .5.2.7.5.7zm5.4 5.7a.4.4 0 0 1-.1-.3.4.4 0 0 1-.2-.3 1.2 1.2 0 0 0-.1-.4 14.8 14.8 0 0 1-1-1l-1.4-1.6a8.2 8.2 0 0 0-1.4-1.4l.4.7a8.2 8.2 0 0 0 .7 1.1 8.5 8.5 0 0 0 .7.8l.7.9c0 .2.3.6.7 1s.8.7 1 .6zm.8-5c.2 0 0-.3-.6-1a2.9 2.9 0 0 1-.7-.6l-.3-.2c-.2 0 0 .2.5.8s.8 1 1.1 1zm6.8 11.7a.8.8 0 0 0-.6-.5c-.2 0-.3.1-.3.4a.6.6 0 0 0 .7.7c.3 0 .3-.2.1-.5zm-5.4-9.7.9.8-.6-.8a4.3 4.3 0 0 0-.5-.7l-.3-.3c-.3 0-.1.3.5 1zm7.8-.6c-.2 0-.3-.3-.3-.8a3.2 3.2 0 0 0 .1-1 1.6 1.6 0 0 1 .2-.7c0-.5 0-.7.2-.7s.2.2 0 .7a2.4 2.4 0 0 0-.1.7v.7a1.6 1.6 0 0 1-.2 1.1zm10-9.8a.3.3 0 0 1-.4-.3c0-.1.1-.2.4-.2l.2.4-.2.1zm-7 14.7c.1 0 .2.1.2.4s-.1.3-.4.3l-.1-.3.1-.3a.1.1 0 0 1 .2 0zm24-81.7c0 .5 0 1.4-.2 2.6l-.3 4.2-.5 4.7c-.2 1.7-.3 3-.6 4.4l-1.5 10.2-.8 5.8-.8 5.2c-.4 2.2-.5 4.2-.8 6a16.7 16.7 0 0 0-.3 1.7 7 7 0 0 0-.2 1 3.7 3.7 0 0 0-.2 1 73.2 73.2 0 0 0-.8 5.2 1.2 1.2 0 0 1-.3.4v.3a1 1 0 0 0 0 .4 1 1 0 0 1 0 .7c0 .2-.2.2-.3.1-.3-.1-.4-.3-.2-.6s-.2-.4-.6-.4-.7.2-.7.5a1 1 0 0 0-.2.4l.2.1v.1c.1 0 .2.2.2.5s0 .5-.2.5c-.4 0-.4 0 0 .2q0 .5-.3.5a.5.5 0 0 0-.1.6c.2.1 0 .2-.2.2a.5.5 0 0 0-.5.3 2.7 2.7 0 0 0 0 1.1v1.3l-.4 1a1.9 1.9 0 0 1-.2 1.2c-.2 0-.4-.6-.4-1.9a3.5 3.5 0 0 0 0-1.4c0-.2-.2-.1-.4.1a4.4 4.4 0 0 0-.3 1.5c0 .6 0 .9-.3.9s-.3-.3-.3-1l.3-.8a1 1 0 0 0 .2-.7c0-.4 0-.5-.2-.3s-.3 0 0-.5l.2-.5.4.3c.2.3.4.3.7-.3a2.6 2.6 0 0 0-.1-1c-.1-.1-.2 0-.2.2s-.1.3-.4.3-.4-.2-.1-.5c.3-.8.2-1.1-.2-.9s-.4.1-.4-.1.1-.3.4-.3.3-.3 0-.8a1.2 1.2 0 0 1-.3-1.1q.5-.4.5 0c0 .2 0 .3.2.3s.3-.3.2-1a3.7 3.7 0 0 0-.3-1.3q-.4-.4-.1-.4l.7-.7c.4-.5.2-.8-.2-.8s-.4.2-.4.7l-.1.2a2 2 0 0 0-.2-.5c0-.7.2-1 .5-1s.4-.1.4-.3v-.3a1.2 1.2 0 0 0 0-.5c.2-.1.2-.2 0-.2a.1.1 0 0 0-.2 0c-.1.1-.2 0-.2-.5l.4-3.4c0-.6 0-.7-.3-.5a1.6 1.6 0 0 0-.3 1.2c0 .5-.1.7-.4.6s-.1.2 0 .6c0 .4 0 .6-.2.6s-.3.2-.1.7 0 .6-.3.4c-.1-.1-.3-.2-.3 0a.9.9 0 0 1 0 1c-.7.8-.7 1.1 0 .8.3-.1.4 0 .2.2s-.3.6-.5.4-.2 0-.2.6a1.3 1.3 0 0 0 .5 1c0 .3 0 .5-.3.6s-.4.6-.2 1.3c.2.8.1 1.1-.1 1a.4.4 0 0 0-.6 0c0 .2 0 .3.2.3s.2.2.4.5-.1.5-.4.2c-.1 0-.2.2 0 .9s0 .8-.2.8-.3-.1-.4.1a.8.8 0 0 0 0 .6q.2.3-.2.2a.8.8 0 0 1-.4-.4c-.1-.3-.2-.2-.2.2a1 1 0 0 0 .1.5.4.4 0 0 0 .4.2c.1.2 0 .2-.5.2a1.7 1.7 0 0 1-1-.3c-.3-.3-.3-.4 0-.5a.6.6 0 0 0 .4-.6c0-.3.1-.5.3-.5s.1 0 0-.2l-.3-.5c-.2-.3-.4-.4-.5-.3a9.5 9.5 0 0 1-.2 1 13.2 13.2 0 0 0-.2 2.5 6 6 0 0 1-.1 1.2 1.6 1.6 0 0 1-.2.7 1.3 1.3 0 0 0 0 1.2c0 .5 0 .7-.2.7s-.3.6-.5 1.4a23.7 23.7 0 0 0-.3 3.1l-.4 2.1c0 .3-.2.3-.5 0s-.6 0-.7.4q-.3.7.2.3a1.4 1.4 0 0 1 .7.1c.2.2 0 .3-.5.4a1.4 1.4 0 0 0-1 1l.2.3c0-.2.2-.5.6-.7s.4.2.4 1.3a6.5 6.5 0 0 1 0 1.3v.7c-.6.6-.9.4-1-.7 0-.6-.2-1-.4-1s-.3.2-.3.8v.9a2.6 2.6 0 0 1-.2.8 4.3 4.3 0 0 0 0 1 3 3 0 0 1-.2 1 2.9 2.9 0 0 1-.1.8 3.6 3.6 0 0 1-.3.7l-.2.6v.5c-.2 0-.3.3-.1.8s0 .6-.2.6-.4.2-.2.6q.2.4 0 .4h-1a2.6 2.6 0 0 0-1.7.3 1 1 0 0 1-.7.2 1.1 1.1 0 0 1-.8-.3c-.3-.3-.3-.5.1-.5s.4-.1.1-.5c-.4-.5-.2-.7.5-.5.3.2.3 0 .1-.4s-.2-.8 0-1 .2-.3 0-.2-.3-.3-.2-1.3a6 6 0 0 1 .1-1.2 3.7 3.7 0 0 0 .1-.7 4 4 0 0 0 0-3l-.2-1.2v-1.4a9 9 0 0 1 .2-1c0-.2.2-.3.4-.1a1 1 0 0 1 0 .7.2.2 0 0 0 .2.2c.2 0 .2-.3.2-.9-.1-.6-.3-1-.4-1v-.2a.3.3 0 0 0-.2-.3 1 1 0 0 1 .2-.4v-1.8c0-1 .4-2.1.6-3.3l.3-3c.1-.6.3-1 .5-1h.3c0-.3 0-.5-.3-.5a49.4 49.4 0 0 1 .3-5.6l.5-4 .2-2.5.5-3.3c.2-1.5.5-3 .6-4.6s.4-3 .6-4.3l.4-2.9.7-4.2 1-7 1.2-7.6 1-6.7.9-5.2c.2-1.4.4-2.6.6-3.1a3.4 3.4 0 0 1 .5-1.4 1.7 1.7 0 0 1 1-.4 5.9 5.9 0 0 1 2.3 0 7 7 0 0 1 2.6.7c.8.6 1.3.7 1.5.4s.5 0 1.3.5a3.8 3.8 0 0 0 1 .5c.1 0 .3-.1.4-.4s.4-.6.7-.5a13 13 0 0 1 2.9 1c.3 0 .6.4.8 1a6.3 6.3 0 0 1 .4 2.3zm-25.3 69.5v-.7l-.4.3-.3.6q-.1.1 0 .4l.3.6a4 4 0 0 0 .4-1.1zm1.1-8.9c.2-.4.1-.5-.3-.3-.3 0-.5.1-.5.3s.1.4.4.4a.4.4 0 0 0 .5-.4zm0-2.2c.1 0 .2-.1.2-.3s-.1-.4-.3-.4-.3.2-.2.4c0 .2.1.3.2.3zm3.8-2.7c.2-.2.1-.3-.1-.3s-.5.1-.5.3.1.4.3.4h.2v-.1zm1.7 2.2a.9.9 0 0 0 .5.3q.3-.1 0-.4c0-.3-.1-.4-.5-.4s-.3.2 0 .6zm1.5-10c.2 0 .3-.2.3-.4l-.1-.5-.5.5c0 .3.2.4.3.4zm0 1.9q.4-.5 0-.2a1.1 1.1 0 0 1-.8.2c0-.1-.1-.1-.1 0 .3.6.6.5 1 0zm1.7 0c0-.2.2-.4.4-.4s.3 0 .3-.2l-.2-.1h-.5c-.2 0-.3.2-.3.5q.1 1.3.3.3zm.6 1.1a.7.7 0 0 0 .4.3c.2 0 .3-.3.3-.6s-.2-.4-.5-.1-.4.3-.2.5zm3.9-10.5c-.2 1-.2 1.3 0 1.1l.3-.7a9.3 9.3 0 0 0 .1-1.6 7.8 7.8 0 0 0 .2-1.3c0-.3 0-.5-.2-.5s-.2.2-.2.8a6.9 6.9 0 0 1-.1 1 6.6 6.6 0 0 1-.1 1.2zm.8 12.4q.1 0 0 0c0-.2 0 0-.2 0l-.5.3.2.1c.4 0 .5-.1.5-.3zm.2-1.7q.1-.2 0-.2t-.2 0c-.3.1-.5.2-.5.4s.1.1.4.1.4-.1.4-.3zm-.2-14 .1-.3c0-.2-.1-.3-.3-.3s-.3.1-.2.3.3.3.4.3zm.1-1.5c.2 0 .2-.3.2-.6 0-.5 0-.7-.2-.7-.2-.2-.2 0-.2.6s0 .7.2.7zM476 72c-.2 0-.4 0-.4.2a.3.3 0 0 0 .4.4c.2 0 .3-.2.5-.4q0-.3-.5-.2zm-1.9-15.7c-.3.3-.3.5-.1.8s.3.3.3.2a1.2 1.2 0 0 0 .3-.8 1.8 1.8 0 0 1-.3-.7.1.1 0 0 0 0 .1.3.3 0 0 1-.2.2zm-.1 2.3a.7.7 0 0 0 .3.4l.4-.1-.4-.4c-.3-.2-.4 0-.3.1zm2 15.2c.2-.2.2-.2-.1-.2s-.6.3-.7 1c0 0 0 .3-.3.5s-.3.2 0 .2.4.3.3.9a2 2 0 0 1-.3 1 1 1 0 0 0-.3.6c0 .2.1.3.5.3a1 1 0 0 0 .8-.4 1.7 1.7 0 0 0 .2-.7 5.8 5.8 0 0 0 .1-1.2 5 5 0 0 0 0-1.2l-.4-.4a.1.1 0 0 1-.2-.2 1.5 1.5 0 0 1 .4-.2zm.1-.6c.3 0 .5-.1.5-.3s-.2-.2-.5 0a.3.3 0 0 0-.2 0h-.1l-.2.2h.5zm.5-2.2c.2 0 .3-.3.3-.7a1 1 0 0 0-.4-1q-.4 0 0 .2t.1.2c-.2 0-.4.3-.4.7q0 .5.4.5zm.6-2.8c.1-.3.1-.5-.1-.4s-.4.2-.6.6-.3.6.2.6a.8.8 0 0 0 .5-.8zm1.3-11c0-.3 0-.4-.3-.4s-.2.1 0 .4l.3.5zm-2.6 23c.1 0 .2.5.1 1.6a2.7 2.7 0 0 1-.5 2c-.1.2-.2.1-.2-.3a1.5 1.5 0 0 0-.1-1 1.2 1.2 0 0 1 .2-1.1l.2-1s0-.3.3-.3zm-9.5 13.3c0-.4.1-.6.4-.7s.4.1.5.5 0 .5-.4.5c-.3 0-.5 0-.5-.3zm5.7-5.2c0-.4.1-.4.4 0a2 2 0 0 1 .2.8q0 .4-.2.2a1.2 1.2 0 0 1-.4-1zm-5.6 2a.6.6 0 0 1 .5-.8c.3-.2.5 0 .6.4a.4.4 0 0 1-.5.4c-.4.1-.6.1-.6-.1zm-.2 4.3c.2-.2.4-.2.6 0q.1 0 0 .1h-.7q-.1-.2.1-.2zm8.8-9.6c0-.4 0-.5.2-.3s.2.2.1.4c-.2.7-.3.7-.3-.1zm-4.7 7.6q.3-.3.3-.1v.7c0 .7 0 1-.3 1s-.2-.1-.2-.4a3.8 3.8 0 0 1 .2-1.3zm1 5.3c.1-.2.3-.2.3-.1v.2c-.4.9-.7 1-1 .1q-.4-.3.1 0l.6-.2zm-.1-8.8q-.1.8-.4.2a3 3 0 0 1 .3-2l.2-1.1.1 1a7.6 7.6 0 0 1-.2 2zm1.2 1.1c.2 0 .2.4-.2 1.2l-.2 1.3-.2 1.3-.5 1 .1-1.2a5.3 5.3 0 0 0 .1-1.1 3.6 3.6 0 0 1 .3-.7.7.7 0 0 0 0-.5v-1.8q.2-.2.2 0l.4.5zm2-2.1c.2 0 .2 0 .2.2s-.3.4-.4.4a.1.1 0 0 1 0-.1v-.3q0-.3.3-.3zm-4 2.8q0-.3.2 0c.2 0 .3.2.3.3h-.3c-.3 0-.3 0-.3-.3zm-3-3.9c.2 0 .4.2.6.5s.2.6.1.7l-.5.4c-.3.2-.6 0-.7-.2a1 1 0 0 1 .1-.7q.2 0 .2-.4c-.1 0-.2 0-.2-.2a.5.5 0 0 1 .4-.1zm-3.3 12c.2-.3.4-.3.5-.1s.2.5 0 .8-.4.3-.5 0c-.3-.2-.3-.5 0-.7zm-.9 4.2c0-.5 0-.7.3-.4a1.2 1.2 0 0 1 .3 1.4c-.1.5-.3.7-.6.8s-.2 0-.2-.5c0-.3 0-.4.2-.4.4-.1.4-.4 0-1zm5-19.8c.1 0 .3 0 .3.2a3.4 3.4 0 0 1 0 1.2c0 1.7-.3 2.2-.8 1.7-.1-.5-.2-.6-.2-.2a.4.4 0 0 1-.5.5c-.2 0-.3 0-.3-.2a1 1 0 0 1 .1-.4l.2-.5c.4-.3.5-.5.5-.7 0-1.1.1-1.7.6-1.7zm-5 22.3c.2.1.3.4.2.9s-.3.7-.7.7a.3.3 0 0 1-.3-.3 2.9 2.9 0 0 1 .1-1c.2-.3.4-.4.6-.3zm.7-5.3a.4.4 0 0 1 .5.4c0 .2-.2.3-.5.3s-.4 0-.4-.3a.4.4 0 0 1 .4-.4zm102.2-74.8a36 36 0 0 1 6 15.8q.8 7.8-2.5 17.8a64 64 0 0 1-4.2 10.2 67.2 67.2 0 0 1-5.6 9 56 56 0 0 1-6.3 7.6 42.1 42.1 0 0 1-6.7 5.3 18.4 18.4 0 0 1-3.6 2 2.2 2.2 0 0 1-1.6 0c-.2-.3-.4-.2-.4.3s-.5.8-1.6 1.2a27.4 27.4 0 0 1-6.9 1.7 19 19 0 0 1-6.1-.1 26.9 26.9 0 0 0-3-.7c-1.4-.3-2.7-.6-4-.7l-6.8-1.4a46 46 0 0 1-4.5-1.4 29 29 0 0 1-3-1.4 23.3 23.3 0 0 1-2.3-2.1 22.5 22.5 0 0 1-2.5-3.1q-1.3-1.8-2.4-3.8l-1.8-4a22.5 22.5 0 0 1-1-3.5 6.1 6.1 0 0 0-.3-2c-.2-.7-.4-1.7-.5-3a44.1 44.1 0 0 1 0-5 66.2 66.2 0 0 1 2-14.5 77.7 77.7 0 0 1 4.8-14.2 66.7 66.7 0 0 1 7.3-12.3 42.2 42.2 0 0 1 9-9 35.3 35.3 0 0 1 8-4.6 20.5 20.5 0 0 1 7.6-1.4h2.2a8 8 0 0 1 1.6.2 4.6 4.6 0 0 1 1.4.5 15.9 15.9 0 0 1 2 .9 46.3 46.3 0 0 0 4.9 2l5.3 1.5a19.1 19.1 0 0 1 8.2 3.8 34.6 34.6 0 0 1 7.3 8.4zm-59.8 37.6c.3 0 .4-.2.4-.6 0-.1-.1-.2-.4-.2s-.3.2-.3.5.1.5.3.3zm.6-3.3c.3 0 .5 0 .5-.2s-.1-.3-.4-.4a.3.3 0 0 0-.4.1c-.2.3-.1.5.3.5zm3.7 1c.2 0 .3 0 .3-.4s0-.4-.1-.4-.3.2-.4.4 0 .5.2.5zm44.6-20.2v-3.3a10.1 10.1 0 0 0-.3-2.6 13 13 0 0 0-.4-2.2 11.8 11.8 0 0 0-.8-2l-.4-1-.6-1.6a23.4 23.4 0 0 0-2.2-4.2 32.6 32.6 0 0 0-3-4.5l-1.5-2-2 .2q-4.5.4-10 4.3a48.7 48.7 0 0 0-9.7 9.8 65.8 65.8 0 0 0-3.8 5.6 45.2 45.2 0 0 0-3 5.7 68 68 0 0 0-5.6 22.1q-.7 10.8 3 18.3l1 2c.4.8 1 1.5 1.5 2.1a19.6 19.6 0 0 1 1.4 1.6l.7.7a3.6 3.6 0 0 0 .8-.2 8.6 8.6 0 0 0 1.7-.5l1.8-.6a10.4 10.4 0 0 0 1.4-.7l1.4-.6a3.9 3.9 0 0 0 1-.5l2-1.3 2.6-1.6 2.2-1.7a49 49 0 0 0 8.4-8.5 67.1 67.1 0 0 0 6.9-12 70.3 70.3 0 0 0 4.2-11.2 34.6 34.6 0 0 0 1.3-9.6zm6.3 23.5c0-.3 0-.4-.3-.4a.6.6 0 0 0-.5.4l.1.3c.4 0 .6-.1.7-.3zm.6-1.3a1.1 1.1 0 0 0 .2-.8c0-.4 0-.5-.2-.3a1.7 1.7 0 0 0-.3.7c0 .3.1.4.3.4zm2.5-6.3a2.4 2.4 0 0 0 .2-1c0-.3-.1-.2-.2 0a2.5 2.5 0 0 0-.4 1.2c0 .3.1.2.4-.2zm1.4-5.1c.2-.8.2-1.1.1-1.1l-.3.4a4 4 0 0 0-.7 2c0 .7 0 1-.3 1-.1.5-.2.7 0 .8s.3 0 .6-.6a8.3 8.3 0 0 0 .6-2.5zm.7-2.8a9 9 0 0 0 .2-2.7 2.4 2.4 0 0 0 0-1v.2c-.3.6-.5 1-.7 1a4.4 4.4 0 0 1 0 .8 6.4 6.4 0 0 0 0 1c.1 1.3.3 1.5.5.7zm3.6 2.6.4-.8c.2-.5.2-.7-.1-.7-.1 0-.3.2-.4.7s-.2.8.1.8zm72-37.8.3.4-.3.1-.3-.1a.1.1 0 0 1-.1-.1c0-.2.1-.3.4-.3zm-8.4 2c.4 0 .6 0 .6.2s-.3.5-.7.5-.6-.2-.6-.5a1 1 0 0 1 .7-.3zm6.2-2.7a1.2 1.2 0 0 0 .1 1c.2.2.2.3 0 .3l-1.8.1a3.6 3.6 0 0 1-1.4 0c-.3 0-.4-.2-.3-.3a1.2 1.2 0 0 1 .8-.4c.6 0 .9-.3.9-.7s.3-.5.8-.5c.8 0 1 .1.9.5zm-2.8-3.2c0-.4.1-.6.4-.6a1.3 1.3 0 0 1 1 .2c.4.2.4.2.1.2a5.6 5.6 0 0 0-1 .3c-.3.2-.5.1-.5-.1zm.4 3c0 .2-.5.3-1.5.3s-1.4 0-1.3-.1a2.6 2.6 0 0 1 1.5-.3c.9-.1 1.3 0 1.3.1zM635 14c.5 0 .7 0 .8.3s.1.3-.2.4h-.7a6.4 6.4 0 0 0-1.2.1l-3 .3a3.3 3.3 0 0 0-1.7.4c-.5.2-.5.4-.2.6a8 8 0 0 0 2.1 0c1.3-.2 2-.1 2 .1s-.5.4-1.5.6a22.4 22.4 0 0 0-2.7.3 69.5 69.5 0 0 0-7.8 1 7.2 7.2 0 0 0-1.8.4 14.3 14.3 0 0 0-.6 2.6l-.7 5.7-.7 4c-.3 1.5-.4 2.8-.5 4.3s-.5 3-.7 4.3l-.5 3.7-1 6.7c-.2 2.2-.5 3.8-.7 4.9q0 .8-.4 2.7l-.7 4.5c-.3 1.8-.4 3.6-.8 5.7l-1 6.2q-.8 6.4-1.7 11.6l-.8 6.1-.7 3.4c-.3 1.6-.4 3.2-.6 4.9q-.8 4.9-1.4 7.2a8.3 8.3 0 0 1-1.2 3.3 1.7 1.7 0 0 1-1 1c-.4.1-.5 0-.3-.5.2-.2.1-.2-.2 0-.8.7-1.3.6-1.6-.2q-.2-.5-.4 0c-.2.1-.4.1-.6-.2s-.7-.4-1.5-.3a5.7 5.7 0 0 1-1.9 0l-2.6-.1a16.6 16.6 0 0 1-2.5-.4c-.8-.2-1.2-.4-1.3-.6q-1.2-1.8-.5-6.4c0-1.2.3-3 .7-5.5l1.2-8.5 1.7-10.6 2-11.6 1.1-6.4a33.8 33.8 0 0 1 .6-3.4l.4-3.5 1-6.1 1.2-7.7c.4-2.7 1-5.3 1.3-7.7l1-6.3.7-3.7c.2-.5.2-.8.1-.9h-1l-3 .6-5.5.8-6.1 1q-3.1.6-5.6.9l-5 .8a26.5 26.5 0 0 1-2.9.3c0-.2.1-.6.6-1 .3-.2.2-.3-.1-.2-.6.1-.9 0-.9-.4a1.5 1.5 0 0 1 .4-1.1l.3-.3-.4.2c-.5 0-.7-.2-.7-.7a3.2 3.2 0 0 0-.6-1.9 9.3 9.3 0 0 1-.6-1.4 50.4 50.4 0 0 1-1.6-4.1 4.5 4.5 0 0 1-.4-1.3c0-.5.4-.9 1.1-1.3a7.8 7.8 0 0 1 2.5-1l5-1 7.3-1.3 7.8-1.3 6-1a19.6 19.6 0 0 0 2.3-.2 170.4 170.4 0 0 1 8.7-1 14.4 14.4 0 0 0 2.9-.6 18 18 0 0 0 2-.1 16.6 16.6 0 0 0 2.6-.4q2.2-.3 6.8-.6t8.7-.7h2.7c.5 0 .8.1.8.3q0 .7.4 0a.4.4 0 0 1 .4-.3h.6c.3 0 .6.2 1 .7a2.1 2.1 0 0 1 .5 1.3c-.1.2 0 .4.2.4s.3.7.3 2.2c0 1.8 0 2.4-.5 1.8a4.3 4.3 0 0 0-2-.3c-.9 0-1.4.2-1.6.5q0 .4.2.4a.4.4 0 0 1 .5.4c0 .4-.5.6-1.4.6a2.9 2.9 0 0 0-1.7.2h-.4a.8.8 0 0 1-.6-.2 3.4 3.4 0 0 0-1.5.2 2 2 0 0 1-1.4.5c-.3-.3-.6-.3-1 .1-.3.2-.4.2-.4.1h-.4a.8.8 0 0 0-.6.2q-.8.3-.8 0c0-.4-.2-.4-.6 0a1.9 1.9 0 0 1-1.4 0 3.1 3.1 0 0 0-1-.3l-.4.4q0 .6.4.4c.3 0 .4 0 .4.2 0 .4-.5.4-1.5 0a1.2 1.2 0 0 0-1.1.3 1.1 1.1 0 0 1-.9.2.5.5 0 0 0-.7 0c-.4.2-.4.4 0 .6a4.6 4.6 0 0 0 2-.1c1.1 0 1.7 0 1.7.2s0 0 .1-.1c.4-.4 1-.4 1.8-.1 1 0 1.5-.1 1.7-.3 0-.3.2-.4.7-.4s.5.1.1.4l-.2.3h.7c.6 0 1-.1 1-.3s.3-.2 1-.2a1.5 1.5 0 0 1 .6.2h.6c.3 0 .2.2-.1.5s-.3.6.1.6a.5.5 0 0 0 .6-.6c0-.3.3-.5 1-.5s1 .2 1 .5 0 .6.5.6zm-4.5-4.8c-1 .1-1.4.4-1.2.7s.3.5.4.2a1.1 1.1 0 0 1 .7-.2l1.4-.2a4.3 4.3 0 0 1 1.5 0h1a.7.7 0 0 0 .9 0 1 1 0 0 0 .5-.9c0-.2-.3-.2-1-.1a32.6 32.6 0 0 0-4.2.5zm-24.7 65.2a1.8 1.8 0 0 0 0-1c-.4-.4-.6 0-.6 1.2 0 .9 0 1.2.2.8a1 1 0 0 0 .1-.4zm3-22c.2 0 .2 0 .2-.2a.6.6 0 0 0-.1-.4c-.2-.4-.3-.3-.3.1s0 .7.3.5zm.3-2.8a.8.8 0 0 0 .2-.6c-.2-.3-.3-.2-.3.2s0 .5.1.4zm13-32.9c.5 0 .7 0 .5-.2h-.3q-.1-.2-.4 0c-.4.1-.3.2.2.2zm1.3 0a.4.4 0 1 0-.4-.4.4.4 0 0 0 .4.4zm1.5-.4q.5-.4-.4-.4a.4.4 0 0 0-.4.4c0 .3.1.4.3.4s.3 0 .5-.4zm2-.1c1-.3 1.3-.5.8-.6a2.4 2.4 0 0 0-1.4-.1c-.4 0-.7.3-.7.5v.5a6.9 6.9 0 0 0 1.3-.3zm2.8-2c.3 0 .4-.1.4-.3a.1.1 0 0 0-.1-.1v-.3q-.3 0-.4.4c-.2.2-.2.3 0 .3zm3.6-.3c.4 0 .6 0 .6-.3h-.9c-.2.3 0 .4.3.4zM702.5 9a2.4 2.4 0 0 1 1.3 1.6 4.4 4.4 0 0 1-.4 2.6l-1.7 5-1.7 5.7-1.4 5.3a74.7 74.7 0 0 0-1.3 6 8.1 8.1 0 0 1-.4 1.5 7.7 7.7 0 0 0-.4 1.4c-.4 0-.4.1-.1.4a1.5 1.5 0 0 1 .1.9 6.8 6.8 0 0 1-.1 1.2L696 42a4.3 4.3 0 0 1-.3 1l-.4.6a5.6 5.6 0 0 0-.3-1 1 1 0 0 0-.5-.9q-.5-.2-.5.5c.1.4 0 .6-.4.5s-.4-.4-.5-.8a5.1 5.1 0 0 0-.5-1.4l-.2.4c-.4.7-.7.8-.9.4a22.1 22.1 0 0 1 0-3.6l.2-1.3-.5 1.4c-.2 1.7-.7 2.4-1.4 2h-.5a1 1 0 0 0-.4-.1 7.6 7.6 0 0 1-2.3-.7 5.2 5.2 0 0 1-1.8-1h-.3a.4.4 0 0 0-.2-.2 1.3 1.3 0 0 1-.7-.2l-1-.6c-.9-.6-1.3-.7-1.4-.6a18.4 18.4 0 0 1-.3-3.9 6.2 6.2 0 0 1 .1-1 9.5 9.5 0 0 1 .3-1.2 9.3 9.3 0 0 0 .3-1.5l.3-2.7.4-2.2a2.8 2.8 0 0 1 .3-1.1 1 1 0 0 0 .2-1c0-.3-.3-.4-.7-.3h-.8a2.1 2.1 0 0 0-.7-.2h-.4l-.2-.1h-.1c0 .3-.5.5-1.4.7a35.3 35.3 0 0 0-12 4.3l-4 2.4a68.8 68.8 0 0 0-7.5 6.4c-1.2 1.2-2.1 2.5-3.2 3.8a32 32 0 0 0-2.5 3.3 4.7 4.7 0 0 0-1 1.9 78.7 78.7 0 0 0 9.6 2.3c5.7.9 8.5 1.6 8.6 2.2 0 .1.2.2.7.2a4 4 0 0 1 2.4.7 21.8 21.8 0 0 1 3.5 2.3 38.8 38.8 0 0 1 3.8 3 20.7 20.7 0 0 1 3.2 3.1c.6.8 1.2 1.6 2 2.4l2 2a36.1 36.1 0 0 1 4.8 6.2 12.4 12.4 0 0 1 2 5.3 14 14 0 0 1-.9 6.6 32.4 32.4 0 0 1-3.3 7.1 39.2 39.2 0 0 1-5.3 6.9 35.4 35.4 0 0 1-6.7 5.7 34.3 34.3 0 0 1-7.9 4 46.3 46.3 0 0 1-8.5 2 27.2 27.2 0 0 1-3.9.3 48 48 0 0 1-3 .2 15.4 15.4 0 0 1-4.7-1 8.6 8.6 0 0 1-3.2-2.4l-2.6-2.4a27.4 27.4 0 0 0-3-2.8l-2.4-2.6a22.5 22.5 0 0 1-1.7-1.9c-1.4-1.5-1.7-3-.9-4.3l.6-.8 1.5 1.5a27.4 27.4 0 0 0 3.1 2.8 6.9 6.9 0 0 0 2.7.4h2.3l3.3-.3 3-.2a12.5 12.5 0 0 0 2.3-.6 1.9 1.9 0 0 1 1-.4l1.4-.6a9.2 9.2 0 0 1 1.4-.4 1.9 1.9 0 0 0 1-.4 17.8 17.8 0 0 0 3.4-1.5 83 83 0 0 0 4.5-2.7 44 44 0 0 0 5.5-4.5 31.6 31.6 0 0 0 4.3-5.1 23.7 23.7 0 0 0 2.2-3.7 22.8 22.8 0 0 0 1.7-3.9 14.7 14.7 0 0 0 .8-3.3 3.4 3.4 0 0 0 0-2.3 3 3 0 0 0-1.3-.8 14.5 14.5 0 0 0-2.3-.9 28 28 0 0 0-3-1l-2.9-.6-7.2-1.3a62.6 62.6 0 0 1-10-2.8l-2.6-1.3a17.2 17.2 0 0 1-2-1.5 61.7 61.7 0 0 1-4.7-5l-3-3.4a60 60 0 0 1-4.3-4.9 4.3 4.3 0 0 1-.8-2.9 17.3 17.3 0 0 1 .4-2.8 16.7 16.7 0 0 1 1.7-3 22.4 22.4 0 0 1 2.8-4l4-4.2a56.6 56.6 0 0 1 4.2-3.9 42 42 0 0 1 4.3-3.3 44.8 44.8 0 0 1 15.4-6.6 37.1 37.1 0 0 1 16-.4l2 .4h1a11.5 11.5 0 0 1 1.2-3 16.5 16.5 0 0 1 1.8-3.5c.6-.9 1-1.1 1.1-.7 0 .2.2.4.6.4a2.4 2.4 0 0 1 1 .4 12.5 12.5 0 0 1 1.5 1.1 9.6 9.6 0 0 1 1.4 1.1 11.8 11.8 0 0 1 1 .9c.3.5.7.7 1.1.4h.6s.2.2.3.7c0 .7 0 1 .2.8a.3.3 0 0 1 .3.3l.3.3q0 .8.4 0c.3-.5.6-.7.9-.6a14.4 14.4 0 0 1 2.1 1.6zm-52.4 23.3c-.6.5-.8.7-.5.7s.3-.1.5-.6zm42.2 1.4c0-.7 0-1-.3-.7a2.7 2.7 0 0 0-.2 1.3q.1.3 0 .4c-.1.1-.3.1-.4 0-.4 0-.6 0-.6.2s.2.4.6.7.4.1.5 0a5 5 0 0 0 .4-1.8zm.4-3a4.9 4.9 0 0 0 .3-1.1.1.1 0 0 0-.1-.1.1.1 0 0 0-.2.1 1.6 1.6 0 0 0-.3 1.1c.1.5.2.5.3 0zm.7-3.1a1.9 1.9 0 0 0 .3-1.3c0-.2-.1-.2-.4.2a1.2 1.2 0 0 1-.1.5v.6q0 .6.2 0zm9.4-17c.3 0 .4-.2.3-.6a.1.1 0 0 0-.2-.1v-.4c.1 0 0 .2-.4.5 0 .4.1.6.3.6zM487.4 2.9l-1.4 8.3a10.5 10.5 0 0 1-1.3 3.7 1.9 1.9 0 0 1-1 1c-.4.3-.5 0-.3-.4.2-.3.2-.3-.1 0-.8.7-1.4.6-1.7-.3 0-.3-.2-.3-.4 0s-.4.1-.6-.2-.6-.4-1.5-.3a4.7 4.7 0 0 1-1.8 0 22.5 22.5 0 0 1-2.6-.2 14.3 14.3 0 0 1-2.5-.4c-.8-.2-1.2-.5-1.3-.7q-1.2-2-.5-7.3 0-2 .6-5.8s-.2-.4 2-.2c.4 0 .8.4 1.3.5 1.5.2 3.6 0 5.6.3.7 0 .3.3 1 .4 1.7.4 4.4.6 5.5.9s1 .7 1 .7M175.3 0h16.3v16.4h-16.3z"/></g></svg>