<svg fill="none" height="40" viewBox="0 0 240 40" width="240" xmlns="http://www.w3.org/2000/svg"><g fill="#000"><path clip-rule="evenodd" d="m31 40-4-10.6-4 10.6h-2l5-13.2-4-10.5-9 23.7h-2l10-26.4-4.5-11.8-14.5 38.2h-2l15.2-40h2.6l4.2 11 4.2-11h2.6l3.7 9.7 3.7-9.7h2.6l4.2 11 4.2-11h2.6l15.2 40h-2l-14.5-38.2-4.5 11.8 10 26.4h-2l-9-23.7-4 10.5 5 13.2h-2l-4-10.6-4 10.6zm1.5-25-4.5 11.7 4.5 11.9 4.5-11.8zm-5-13.2-4.5 11.8 4 10.6 4.5-11.9zm10 0-4 10.5 4.5 11.9 4-10.6z" fill-rule="evenodd"/><path d="m97.7259 17.956v11.044h2.7061v-15.4h-2.8821l-4.686 7.282-4.686-7.282h-2.882v15.4h2.662v-11l4.818 7.216h.088z"/><path d="m121.687 21.278c0-1.0853-.198-2.112-.594-3.08s-.946-1.8113-1.65-2.53-1.547-1.2833-2.53-1.694c-.982-.4253-2.068-.638-3.256-.638s-2.273.2127-3.256.638c-.982.4253-1.833 1.0047-2.552 1.738-.718.7187-1.276 1.562-1.672 2.53s-.594 1.9947-.594 3.08.198 2.112.594 3.08.946 1.8113 1.65 2.53 1.548 1.2907 2.53 1.716c.983.4107 2.068.616 3.256.616s2.274-.2127 3.256-.638c.983-.4253 1.834-.9973 2.552-1.716.719-.7333 1.276-1.584 1.672-2.552s.594-1.9947.594-3.08zm-2.838.044c0 .748-.132 1.4593-.396 2.134-.249.66-.601 1.2393-1.056 1.738-.454.484-1.004.8727-1.65 1.166-.63.2787-1.327.418-2.09.418-.762 0-1.466-.1467-2.112-.44-.645-.2933-1.202-.6893-1.672-1.188-.454-.4987-.814-1.078-1.078-1.738-.249-.6747-.374-1.386-.374-2.134s.125-1.452.374-2.112c.264-.6747.624-1.254 1.078-1.738.455-.4987.998-.8873 1.628-1.166.646-.2933 1.35-.44 2.112-.44.763 0 1.467.1467 2.112.44.646.2933 1.196.6893 1.65 1.188.47.4987.829 1.0853 1.078 1.76.264.66.396 1.364.396 2.112z"/><path d="m137.585 24.248-8.25-10.648h-2.508v15.4h2.662v-10.956l8.492 10.956h2.266v-15.4h-2.662z"/><path d="m161.5 21.278c0-1.0853-.198-2.112-.594-3.08s-.946-1.8113-1.65-2.53-1.548-1.2833-2.53-1.694c-.983-.4253-2.068-.638-3.256-.638s-2.274.2127-3.256.638c-.983.4253-1.834 1.0047-2.552 1.738-.719.7187-1.276 1.562-1.672 2.53s-.594 1.9947-.594 3.08.198 2.112.594 3.08.946 1.8113 1.65 2.53 1.547 1.2907 2.53 1.716c.982.4107 2.068.616 3.256.616s2.273-.2127 3.256-.638c.982-.4253 1.833-.9973 2.552-1.716.718-.7333 1.276-1.584 1.672-2.552s.594-1.9947.594-3.08zm-2.838.044c0 .748-.132 1.4593-.396 2.134-.25.66-.602 1.2393-1.056 1.738-.455.484-1.005.8727-1.65 1.166-.631.2787-1.328.418-2.09.418-.763 0-1.467-.1467-2.112-.44-.646-.2933-1.203-.6893-1.672-1.188-.455-.4987-.814-1.078-1.078-1.738-.25-.6747-.374-1.386-.374-2.134s.124-1.452.374-2.112c.264-.6747.623-1.254 1.078-1.738.454-.4987.997-.8873 1.628-1.166.645-.2933 1.349-.44 2.112-.44.762 0 1.466.1467 2.112.44.645.2933 1.195.6893 1.65 1.188.469.4987.828 1.0853 1.078 1.76.264.66.396 1.364.396 2.112z"/><path d="m180.367 26.866v-6.468h-6.556v2.354h3.938v2.882c-.469.352-1.027.638-1.672.858-.631.2053-1.313.308-2.046.308-.792 0-1.511-.1393-2.156-.418-.631-.2787-1.181-.66-1.65-1.144-.455-.4987-.807-1.0853-1.056-1.76s-.374-1.408-.374-2.2c0-.748.125-1.452.374-2.112.264-.66.616-1.2393 1.056-1.738.455-.4987.983-.8873 1.584-1.166.616-.2933 1.276-.44 1.98-.44.484 0 .924.044 1.32.132.411.0733.785.1833 1.122.33.337.132.66.3007.968.506s.609.4327.902.682l1.716-2.046c-.396-.3373-.807-.6307-1.232-.88-.411-.264-.851-.484-1.32-.66s-.983-.308-1.54-.396c-.543-.1027-1.151-.154-1.826-.154-1.159 0-2.229.2127-3.212.638-.968.4253-1.804 1.0047-2.508 1.738-.704.7187-1.254 1.562-1.65 2.53-.381.968-.572 1.9947-.572 3.08 0 1.1293.191 2.178.572 3.146s.917 1.8113 1.606 2.53c.704.704 1.547 1.2613 2.53 1.672.983.396 2.075.594 3.278.594.675 0 1.32-.066 1.936-.198.616-.1173 1.188-.286 1.716-.506.543-.22 1.041-.4767 1.496-.77.469-.2933.895-.6013 1.276-.924z"/><path d="m198.829 29-4.158-5.83c.543-.1467 1.034-.352 1.474-.616.455-.2787.843-.6087 1.166-.99.323-.396.572-.8433.748-1.342.191-.5133.286-1.0927.286-1.738 0-.748-.132-1.4227-.396-2.024-.264-.616-.645-1.1293-1.144-1.54-.484-.4253-1.085-.748-1.804-.968-.704-.2347-1.496-.352-2.376-.352h-6.864v15.4h2.706v-5.368h3.388l3.784 5.368zm-3.234-10.362c0 .792-.286 1.4227-.858 1.892s-1.342.704-2.31.704h-3.96v-5.17h3.938c1.012 0 1.797.22 2.354.66.557.4253.836 1.0633.836 1.914z"/><path d="m211.934 13.49h-2.508l-6.776 15.51h2.772l1.584-3.718h7.282l1.562 3.718h2.86zm1.364 9.394h-5.302l2.64-6.16z"/><path d="m236.31 17.956v11.044h2.706v-15.4h-2.882l-4.686 7.282-4.686-7.282h-2.882v15.4h2.662v-11l4.818 7.216h.088z"/></g></svg>