<svg viewBox="0 0 360.27 79.35" xmlns="http://www.w3.org/2000/svg"><g fill="#fff"><path d="m52.16 4.07c-2.4-3.98-7.57-5.26-11.55-2.86-1.17.71-2.16 1.69-2.86 2.86l-11.86 20.31c18.43 9.2 30.6 27.48 31.98 48.04h-8.32c-1.38-17.62-11.98-33.19-27.86-40.94l-10.97 18.97c8.92 4 15.18 12.26 16.63 21.93h-19.12c-.75-.05-1.32-.71-1.27-1.46.01-.19.07-.37.15-.54l5.3-9.01c-1.79-1.5-3.85-2.66-6.05-3.42l-5.24 9.01c-2.28 3.9-.96 8.91 2.95 11.19.03.02.07.04.1.06 1.24.7 2.64 1.07 4.07 1.08h26.18c.98-12.21-4.49-24.04-14.42-31.2l4.16-7.21c12.54 8.61 19.6 23.22 18.56 38.4h22.18c1.05-23-10.21-44.83-29.57-57.3l8.41-14.41c.39-.65 1.23-.87 1.89-.49.96.52 36.57 62.65 37.23 63.37.37.66.13 1.49-.53 1.86-.21.12-.45.18-.7.17h-8.58c.11 2.29.11 4.58 0 6.86h8.61c4.57.03 8.29-3.65 8.32-8.22 0-.03 0-.06 0-.09 0-1.44-.38-2.86-1.12-4.11z"/><path d="m223.91 50.96-26.59-34.34h-6.63v46.04h6.72v-35.29l27.35 35.28h5.87v-46.04h-6.72zm-66.98-8.54h23.84v-5.98h-23.86v-13.86h26.9v-5.98h-33.75v46.05h34.09v-5.98h-27.24zm-28.03-5.84c-9.28-2.23-11.87-4-11.87-8.29 0-3.86 3.41-6.47 8.49-6.47 4.63.14 9.09 1.75 12.74 4.59l3.6-5.1c-4.62-3.62-10.35-5.53-16.22-5.41-9.12 0-15.48 5.41-15.48 13.1 0 8.29 5.41 11.15 15.24 13.55 8.76 2.02 11.44 3.89 11.44 8.09s-3.6 6.79-9.17 6.79c-5.54-.03-10.88-2.12-14.95-5.87l-4.05 4.85c5.22 4.49 11.89 6.95 18.77 6.94 9.87 0 16.22-5.32 16.22-13.53-.06-6.95-4.17-10.68-14.76-13.24zm223.62-19.97-13.86 21.62-13.76-21.62h-8.04l18.18 27.84v18.22h6.92v-18.43l18.31-27.62zm-116.45 6.24h15.08v39.82h6.92v-39.82h15.08v-6.23h-37.06zm69.08 21.84c6.95-1.93 10.81-6.79 10.81-13.75 0-8.85-6.47-14.41-16.9-14.41h-20.47v46.11h6.85v-16.55h11.62l11.68 16.58h8l-12.61-17.69zm-19.73-4.51v-17.48h12.92c6.74 0 10.59 3.19 10.59 8.72s-4.13 8.76-10.52 8.76z"/></g></svg>