<svg height="127" viewBox="0 0 479 127" width="479" xmlns="http://www.w3.org/2000/svg"><g fill="#fff" fill-rule="evenodd"><path d="m37.823915 111.138766.161085-.556766.0236064.080573c1.3124277 4.436265 3.351416 7.965105 6.0682315 10.508064 5.6924994 5.328221 13.7701886 5.359822 18.7448512.342492l.3961224-.412256c2.9877311-3.201649 3.8673729-6.968801 3.0341273-10.467332l-.0979388-.376541.2015432-.138309c6.6847597-4.764174 5.6087905-16.3367176-.1880354-20.5266526l-.1585078-.1110384.0548432-.0236829c5.3070157-2.4590044 5.6239066-12.3608441 3.1016089-18.4119919l-.284516-.6686883c-.2188965-.5364536-.4273526-1.1258175-.6230739-1.7527504l-.1598622-.5308865.0278918-.057448c1.2626663-2.7291114 2.6509523-6.1057095 3.9690561-9.9388606 2.6397173-7.6765088 4.2974388-15.2523603 4.5204789-22.3925961.6646338-21.277087-11.6353398-34.84333083-38.3106615-34.84333083-25.510564 0-37.98900047 12.46218863-38.29892741 32.43999903l-.00632043.7393687c-.01595679 10.8503677 3.28479687 22.2102829 7.77682372 32.2887069l.36365882.8081609-.02866036.1151948c-.29775102 1.1333905-.64056811 2.2042218-1.01865723 3.1293175l-.27752578.6516753c-2.52778469 6.0500354-2.21402191 15.9634803 3.09654363 18.4241295l.05329974.0236829-.15696434.1110384c-5.85948999 4.2352285-6.89550597 16.0135416.03147735 20.6787516l.28148699.18221-.0212341.089528c-.8150352 3.525463.0899316 7.316796 3.0725313 10.528786l.1928018.202931c4.9645817 5.268681 13.1262529 5.321555 18.7892579-.180885 2.5116695-2.440455 4.4137205-5.779532 5.6695581-9.954594zm.4808503-104.27800153c52.7213966 0 25.6361625 56.21233443 23.4360155 60.61099463.3485822 1.5154252.876036 3.4474894 1.6092528 5.2311138l.20509.4823381c1.656977 3.7659265 1.1002621 10.4274493 0 10.8223997-1.0809593.3880215-1.0137813-5.8456277-3.7042265-10.5707571l-.1467912-.2516426c-.4231617-.7080548-.7568427-1.3492155-1.0183137-1.9276969l.1148674.7322755c.5767733 3.8740759.8546932 9.0790256-1.0201535 12.1627536-2.3820601 4.0747063 1.9729255 17.2327888 3.2656119 17.4110008 1.0743526.148113.8677464-2.7958485.8527986-4.9751959l-.0001044-.4112257.0100648-.4737638c.0379242-1.0008715.1907145-1.6263054.6813025-1.292458 2.2951637 1.5618693 4.1241092 9.6412054-.8538076 11.4030124-4.5372022 1.605828-13.0186671-11.4030122-10.4665877-21.6613698 1.3773683-4.1579205-1.0382708-12.9013999-1.7505972-16.4084772l.134931.8580179c.6120003 4.0862737 1.3733608 12.0712383-.2350866 22.6623824l-.0935921.6022735c-2.5548233 16.0754952 2.5883785 21.7455312 4.2636272 21.0967962 2.3222729-.912345.9324378-4.869791.9324378-5.555212 1.0512876-1.86746 9.5296917 3.937594 4.3422916 9.563714l-.1780037.18746c-4.8630908 5.160974-17.722084 1.854108-16.314787-24.0000054.8376674-8.2278114-1.8637629-16.5275291-4.2781535-21.5096393l-.313945.6344671c-2.4208692 4.9810612-5.1077952 12.6192605-4.2672668 20.8751722 1.4072969 25.8541134-10.9166596 29.1609794-15.7797503 24.0000054-5.5547297-5.683632 2.7269295-11.639384 3.7898981-9.751174l-.0969477.318816c-.3029292 1.064041-1.0996547 4.469197.8531657 5.236396 1.6584962.642247 6.6962898-4.236751 4.3179373-19.9324322l-.0743524-.4789431c-1.9802001-12.4598427-.6757727-21.4116026.0111769-24.8080947l-.1184339.5097725c-.9013408 3.7826922-3.2402401 11.9297806-1.9254795 15.8987047 2.5520794 10.2583576-5.7124803 23.2671978-10.2496825 21.6613698-4.97791682-1.761807-3.1489713-9.8411431-.8538076-11.4030124 1.5440613-1.0507407-.2580784 7.4010904 1.5440615 7.1526434 1.2926864-.178212 5.647672-13.3362945 3.2656119-17.4110008-1.9958046-3.2826781-1.5521057-8.9691134-.9052861-12.8950291-.2178925.4820679-.4859309 1.007663-.8141096 1.5792245l-.2042041.3484724c-2.8400018 4.7520302-2.7507556 11.2173501-3.8510177 10.8223997-1.0791033-.3873552-1.6353639-6.8025783-.0931507-10.6019873l.0931507-.2204124c1.0227951-2.3245771 1.6790398-5.0009215 2.0315505-6.709061l-.4212603-.8972047c-5.01063815-10.8423134-24.3811629-58.71818083 24.2740552-58.71818083z" fill-rule="nonzero"/><circle cx="20.967125" cy="56.968095" r="4.989042"/><circle cx="55.239671" cy="56.968095" r="4.989042"/><g fill-rule="nonzero" transform="translate(94.752 35.424)"><path d="m23.76 22.464c2.544.768 4.752 1.56 6.624 2.376s3.78 1.884 5.724 3.204 3.444 2.964 4.5 4.932 1.584 4.2 1.584 6.696c0 5.088-1.932 8.952-5.796 11.592s-8.868 3.96-15.012 3.96c-4.464 0-8.364-.852-11.7-2.556s-6.564-4.236-9.684-7.596l8.064-7.992c1.008 2.112 2.832 4.068 5.472 5.868s5.256 2.7 7.848 2.7c6.144-.096 9.216-2.088 9.216-5.976 0-2.112-.9-3.756-2.7-4.932s-4.188-2.22-7.164-3.132c-2.448-.72-4.572-1.476-6.372-2.268s-3.66-1.836-5.58-3.132-3.408-2.892-4.464-4.788-1.584-4.068-1.584-6.516c0-4.656 1.836-8.304 5.508-10.944s8.052-3.96 13.14-3.96c8.016 0 15.12 3.408 21.312 10.224l-7.776 7.776c-1.632-2.16-3.624-4.104-5.976-5.832s-4.872-2.592-7.56-2.592c-1.968 0-3.648.444-5.04 1.332s-2.088 2.244-2.088 4.068c0 1.056.276 1.992.828 2.808s1.38 1.524 2.484 2.124 2.076 1.068 2.916 1.404 1.932.72 3.276 1.152z"/><path d="m84.6 34.272v20.304h-10.656v-20.304c0-2.784-.42-4.776-1.26-5.976s-2.292-1.8-4.356-1.8c-4.56 0-6.84 2.592-6.84 7.776v20.304h-10.656v-52.272h10.656v20.664c1.008-2.976 4.224-4.464 9.648-4.464 4.896 0 8.364 1.236 10.404 3.708s3.06 6.492 3.06 12.06z"/><path d="m103.464 19.008v35.568h-10.656v-35.568zm.288-10.224c0 1.536-.54 2.82-1.62 3.852s-2.436 1.548-4.068 1.548c-1.536 0-2.856-.528-3.96-1.584s-1.656-2.328-1.656-3.816.552-2.736 1.656-3.744 2.424-1.512 3.96-1.512c1.632 0 2.988.504 4.068 1.512s1.62 2.256 1.62 3.744z"/><path d="m148.248 36.864c0 5.328-1.608 9.708-4.824 13.14s-7.416 5.148-12.6 5.148c-1.152 0-2.592-.3-4.32-.9s-2.976-1.284-3.744-2.052v19.08h-10.656v-52.272h10.656v2.52c1.68-2.016 4.128-3.024 7.344-3.024 5.232 0 9.564 1.74 12.996 5.22s5.148 7.86 5.148 13.14zm-10.728 0c0-2.832-.792-5.256-2.376-7.272s-3.504-3.024-5.76-3.024c-1.344 0-2.64.456-3.888 1.368s-2.232 2.088-2.952 3.528c-.768 1.728-1.152 3.528-1.152 5.4 0 1.92.384 3.696 1.152 5.328 1.68 3.264 3.96 4.896 6.84 4.896 2.256 0 4.176-1.008 5.76-3.024s2.376-4.416 2.376-7.2z"/><path d="m198.36 22.464c2.544.768 4.752 1.56 6.624 2.376s3.78 1.884 5.724 3.204 3.444 2.964 4.5 4.932 1.584 4.2 1.584 6.696c0 5.088-1.932 8.952-5.796 11.592s-8.868 3.96-15.012 3.96c-4.464 0-8.364-.852-11.7-2.556s-6.564-4.236-9.684-7.596l8.064-7.992c1.008 2.112 2.832 4.068 5.472 5.868s5.256 2.7 7.848 2.7c6.144-.096 9.216-2.088 9.216-5.976 0-2.112-.9-3.756-2.7-4.932s-4.188-2.22-7.164-3.132c-2.448-.72-4.572-1.476-6.372-2.268s-3.66-1.836-5.58-3.132-3.408-2.892-4.464-4.788-1.584-4.068-1.584-6.516c0-4.656 1.836-8.304 5.508-10.944s8.052-3.96 13.14-3.96c8.016 0 15.12 3.408 21.312 10.224l-7.776 7.776c-1.632-2.16-3.624-4.104-5.976-5.832s-4.872-2.592-7.56-2.592c-1.968 0-3.648.444-5.04 1.332s-2.088 2.244-2.088 4.068c0 1.056.276 1.992.828 2.808s1.38 1.524 2.484 2.124 2.076 1.068 2.916 1.404 1.932.72 3.276 1.152z"/><path d="m259.2 34.272v20.304h-10.656v-20.304c0-2.784-.42-4.776-1.26-5.976s-2.292-1.8-4.356-1.8c-4.56 0-6.84 2.592-6.84 7.776v20.304h-10.656v-52.272h10.656v20.664c1.008-2.976 4.224-4.464 9.648-4.464 4.896 0 8.364 1.236 10.404 3.708s3.06 6.492 3.06 12.06z"/><path d="m275.76 29.52-7.92-4.536c3.888-4.368 8.832-6.552 14.832-6.552 4.944 0 8.676 1.116 11.196 3.348s3.78 4.884 3.78 7.956v24.84h-10.656v-2.52c-1.92 2.016-4.56 3.024-7.92 3.024-8.976 0-13.464-3.648-13.464-10.944 0-3.792 1.428-6.828 4.284-9.108s6.708-3.42 11.556-3.42h5.544c0-1.344-.456-2.412-1.368-3.204s-2.136-1.188-3.672-1.188c-2.736 0-4.8.768-6.192 2.304zm11.232 13.32v-3.168h-6.264c-1.44 0-2.592.444-3.456 1.332s-1.2 2.004-1.008 3.348c.288 1.824 1.776 2.736 4.464 2.736 2.112 0 3.684-.456 4.716-1.368s1.548-1.872 1.548-2.88z"/><path d="m342.792 36.864c0 5.328-1.608 9.708-4.824 13.14s-7.416 5.148-12.6 5.148c-1.152 0-2.592-.3-4.32-.9s-2.976-1.284-3.744-2.052v19.08h-10.656v-52.272h10.656v2.52c1.68-2.016 4.128-3.024 7.344-3.024 5.232 0 9.564 1.74 12.996 5.22s5.148 7.86 5.148 13.14zm-10.728 0c0-2.832-.792-5.256-2.376-7.272s-3.504-3.024-5.76-3.024c-1.344 0-2.64.456-3.888 1.368s-2.232 2.088-2.952 3.528c-.768 1.728-1.152 3.528-1.152 5.4 0 1.92.384 3.696 1.152 5.328 1.68 3.264 3.96 4.896 6.84 4.896 2.256 0 4.176-1.008 5.76-3.024s2.376-4.416 2.376-7.2z"/><path d="m384.984 36.864v2.376h-25.344c0 1.968.828 3.648 2.484 5.04s3.42 2.088 5.292 2.088c3.936 0 6.696-1.464 8.28-4.392l7.128 6.552c-3.264 4.416-8.4 6.624-15.408 6.624-5.712 0-10.272-1.704-13.68-5.112s-5.112-7.8-5.112-13.176 1.644-9.78 4.932-13.212 7.692-5.148 13.212-5.148 9.936 1.704 13.248 5.112 4.968 7.824 4.968 13.248zm-25.128-4.392h13.968c-.576-3.456-2.928-5.184-7.056-5.184-1.872 0-3.408.468-4.608 1.404s-1.968 2.196-2.304 3.78z"/></g></g></svg>