<svg height="72" viewBox="0 0 293 72" width="293" xmlns="http://www.w3.org/2000/svg" xmlns:xlink="http://www.w3.org/1999/xlink"><mask id="a" fill="#fff"><path d="m.06949893.00531099h274.23677607v60.17524291h-274.23677607z" fill="#fff" fill-rule="evenodd"/></mask><g fill="#fff" fill-rule="evenodd" transform="translate(3.329545 3.329545)"><path d="m92.7877382 28.3462335c-4.2259219-1.3607959-7.8769423-2.5353869-7.8769423-5.7458767 0-2.6465803 2.3867654-4.3559588 6.0800451-4.3559588 3.5497744 0 5.7956758 1.0872247 7.4367421 1.8814636 1.0239057.495958 1.8329939.8869 2.6359189.8869 1.366381 0 2.318975-.9098447 2.318975-2.2132789 0-3.0304624-5.5377189-5.6893975-11.8510702-5.6893975-7.3469413 0-12.2833463 3.9005952-12.2833463 9.706481 0 6.7183781 6.0087327 8.6775005 11.3096235 10.4062937 4.4821184 1.4613995 8.3514781 2.7242392 8.3514781 6.3706779 0 3.0745868-2.6191911 5.0601839-6.6743153 5.0601839-4.0480811 0-6.6223718-1.4666944-8.5020267-2.5380343-1.024786-.5833243-1.8329936-1.0448653-2.5469983-1.0448653-1.3426106 0-2.3172138.9310244-2.3172138 2.2150438 0 3.3146234 6.2860588 6.4492193 12.9348426 6.4492193 7.6911778 0 12.6610384-4.1309244 12.6610384-10.5218995 0-7.1084376-6.2033015-9.1046245-11.6767508-10.8669522"/><path d="m124.36917 43.7917787c-.517276 0-1.004641.1877669-1.521037.3878752-.647475.2503559-1.382042.53421-2.376127.53421-2.001365 0-2.93387-1.0375663-2.93387-3.2660858v-14.0578329h5.586229c1.395237 0 2.369089-.9767404 2.369089-2.3748544 0-1.4298492-.973852-2.4295094-2.369089-2.4295094h-5.641651v-3.8611218c0-1.5647239-1.132201-2.7010221-2.692826-2.7010221-1.529835 0-2.640043 1.1362982-2.640043 2.7010221v3.8611218h-2.609253c-1.396117 0-2.370848.9767403-2.370848 2.3748543 0 1.4307307.974731 2.4295095 2.370848 2.4295095h2.609253v13.6249994c0 5.6224279 2.878447 8.7201406 8.106629 8.7201406 4.07047 0 6.266253-2.0063728 6.266253-3.8937385 0-1.0181725-.739845-2.049568-2.153557-2.049568"/><path d="m134.160916 35.7660869c0-5.0621924 3.526984-8.8802792 8.204052-8.8802792 4.647081 0 8.151134 3.8180868 8.151134 8.8802792 0 5.0931403-3.504053 8.9324485-8.151134 8.9324485-4.600337 0-8.204052-3.9233097-8.204052-8.9324485zm19.056649-13.3712618c-1.591067 0-2.701463 1.0911346-2.701463 2.6535615v.8621201c-2.140533-2.624382-5.254756-4.0603647-8.855825-4.0603647-7.324731 0-12.848487 5.9826715-12.848487 13.9159449 0 7.963337 5.523756 13.9689983 12.848487 13.9689983 3.572846 0 6.687952-1.4890361 8.855825-4.210683v1.0124385c0 1.5624269 1.110396 2.6544457 2.701463 2.6544457 1.558435 0 2.646782-1.0920188 2.646782-2.6544457v-21.4884541c0-1.5624269-1.088347-2.6535615-2.646782-2.6535615z"/><path d="m176.502903 26.8858077c2.46941 0 3.926361.6401794 5.096685 1.1530304.785802.344848 1.464007.6428321 2.226879.6428321 1.262044 0 2.211885-.9302055 2.211885-2.1645847 0-2.5730969-4.107157-4.6669435-9.1571-4.6669435-8.19844 0-14.149718 5.8526903-14.149718 13.9159449 0 8.0933182 5.905417 13.9689983 14.040358 13.9689983 5.023485 0 9.26646-2.1132995 9.26646-4.6130057 0-1.2856642-.930438-2.2194066-2.211885-2.2194066-.762872 0-1.441077.2988683-2.226879.6437163-1.170324.5137352-2.627275 1.1521462-5.096685 1.1521462-4.880612 0-8.422451-3.7570752-8.422451-8.9324485 0-5.1453097 3.541839-8.8802792 8.422451-8.8802792"/><g transform="translate(11.861506)"><path d="m236.018725 13.6136217c-1.566578 0-2.703981 1.1381496-2.703981 2.70664v18.9182028c0 5.5555486-3.310654 9.1449615-8.433381 9.1449615-5.04325 0-8.432498-3.6751276-8.432498-9.1449615v-18.9182028c0-1.5684904-1.160363-2.70664-2.759614-2.70664-1.565695 0-2.703098 1.1381496-2.703098 2.70664v18.9182028c0 8.6748562 5.563383 14.5043384 13.842226 14.5043384 8.343307 0 13.949077-5.8294822 13.949077-14.5043384v-18.9182028c0-1.5684904-1.160363-2.70664-2.758731-2.70664" mask="url(#a)"/><path d="m268.952182 35.890603c0 5.027122-3.50758 8.8188923-8.160511 8.8188923-4.684721 0-8.217027-3.7917703-8.217027-8.8188923 0-5.0368423 3.610017-8.9823687 8.217027-8.9823687 4.652931 0 8.160511 3.8624627 8.160511 8.9823687zm-7.509683-14.0147927c-3.603836 0-6.723745 1.4350582-8.867855 4.0586345v-.8624488c0-1.5614211-1.088833-2.6518533-2.650113-2.6518533-1.592187 0-2.70398 1.0904322-2.70398 2.6518533v32.4019179c0 1.5941164 1.111793 2.70664 2.70398 2.70664 1.53567 0 2.650113-1.1390333 2.650113-2.70664v-11.8957843c2.184731 2.6925015 5.305524 4.1646733 8.867855 4.1646733 7.333951 0 12.864659-5.9797038 12.864659-13.9069866 0-7.9582108-5.530708-13.960006-12.864659-13.960006z" mask="url(#a)"/><path d="m17.0166212 33.9235835c1.407624 0 2.5520912-1.1452188 2.5520912-2.5537673 0-1.4076649-1.1444672-2.5528838-2.5520912-2.5528838-6.5303512 0-11.84470592-5.3169614-11.84470592-11.8524851 0-6.5346401 5.31435472-11.85160152 11.84470592-11.85160152 1.407624 0 2.5520912-1.14610253 2.5520912-2.5537674 0-1.40766486-1.1444672-2.55376739-2.5520912-2.55376739-9.34471618 0-16.94712227 7.60739913-16.94712227 16.95913631 0 9.3508535 7.60240609 16.9591362 16.94712227 16.9591362" mask="url(#a)"/></g><path d="m26.2201705 16.912543c0 1.4077259 1.1480983 2.5538782 2.5593025 2.5538782 6.5519561 0 11.883172 5.3163084 11.883172 11.8521157 0 6.5349237-5.3312159 11.8521158-11.883172 11.8521158-1.4112042 0-2.5593025 1.1461522-2.5593025 2.5547619 0 1.4068422 1.1480983 2.5529945 2.5593025 2.5529945 9.3752504 0 17.001777-7.6077292 17.001777-16.9598722 0-9.3512592-7.6265266-16.9598721-17.001777-16.9598721-1.4112042 0-2.5593025 1.1461522-2.5593025 2.5538782"/><path d="m58.8332192 31.6306818c-1.4084959 0-2.5543909 1.147478-2.5543909 2.5579197 0 14.1274371-11.4775175 25.6208102-25.5845811 25.6208102-14.108832 0-25.58458122-11.4933731-25.58458122-25.6208102 0-1.4104417-1.14589499-2.5579197-2.55527508-2.5579197-1.40849592 0-2.5543909 1.147478-2.5543909 2.5579197 0 16.9492058 13.7693075 30.7375349 30.6942472 30.7375349 16.9240554 0 30.6942471-13.7883291 30.6942471-30.7375349 0-1.4104417-1.145895-2.5579197-2.5552751-2.5579197"/><path d="m216.004261 24.7143226c0-1.403746-1.143018-2.5450603-2.54886-2.5450603-1.40496 0-2.547978 1.1413143-2.547978 2.5450603 0 4.6216183-3.765963 8.3802056-8.393599 8.3802056h-5.300571v-19.4217165c0-1.5314394-1.136844-2.6436924-2.701439-2.6436924-1.559302 0-2.646757 1.087595-2.646757 2.6436924v32.7247205c0 1.5560974 1.111268 2.6436924 2.701439 2.6436924 1.533726 0 2.646757-1.112253 2.646757-2.6436924v-8.213764h5.300571c4.627636 0 8.393599 3.7603487 8.393599 8.3810863 0 1.4037461 1.143018 2.545941 2.547978 2.545941 1.405842 0 2.54886-1.1421949 2.54886-2.545941 0-4.3318865-2.091123-8.3881314-5.61102-10.9252659 3.519897-2.5371346 5.61102-6.5933795 5.61102-10.925266"/></g></svg>