<svg height="53" viewBox="0 0 251 53" width="251" xmlns="http://www.w3.org/2000/svg"><g fill="none"><path d="m72.9131069 37.088562c-1.830018 0-3.6077497-.2618565-5.3854815-.8379406-1.668257-.5414509-3.2014763-1.4343074-4.4966156-2.6185645l2.3528803-3.9802178c1.3071557.8903117 2.5620251 1.5711385 3.8168946 2.0948515 1.2025833.5237127 2.4051665.7331979 3.5554635.7331979.8365797 0 1.5163006-.1571138 1.9868767-.4713417.470576-.2618562.679721-.7331979.679721-1.309282 0-.523713-.2614312-1.0474257-.8888659-1.3616536-.9826681-.4717195-2.0183968-.8233851-3.0848875-1.0474257l-3.660036-1.2045396c-.9934383-.4189703-1.7777317-.8379406-2.4051664-1.3092822-.6274348-.4189704-1.0980108-.9950545-1.359442-1.5711387-.2845857-.6611663-.4271026-1.37491-.4182898-2.0948515-.0306075-2.0614667.8730502-4.0257866 2.4574527-5.3418714.7320072-.6284555 1.6731593-1.0997971 2.7188839-1.4663961 1.0457245-.366599 2.1960216-.5237129 3.3986048-.5237129 1.6208731 0 3.1371737.2094852 4.5489018.6284555 1.4117282.4713416 2.7711701 1.2569109 4.0783259 2.4090793l-2.5620252 3.9278466c-1.0120787-.7252798-2.0988707-1.3397895-3.2417462-1.8329951-.9934383-.4189703-1.8823042-.5760842-2.8234563-.5760842-.679721 0-1.3071557.1047426-1.7777317.4189703-.5228623.2618565-.7320072.7331981-.7320072 1.3616535 0 .6284555.2614311 1.0474258.7842934 1.3616535s1.5685868.6284555 2.980315.9950545c1.3106573.330664 2.6023076.732776 3.8691809 1.2045396 1.0457245.4189703 1.8823042.8903119 2.5620252 1.3616535 1.2854303.948133 1.9959321 2.4900579 1.8823042 4.0849604 0 2.1472228-.7842935 3.823104-2.4051665 5.0800149-1.5685869 1.2569111-3.660036 1.8853666-6.4312061 1.8853666zm25.8816829-1.5187674c-.8888658.366599-1.9345903.7331979-3.0848873 1.0474258-1.1502971.3142276-2.3005941.5237127-3.5031775.5237127-.8365796 0-1.5685868-.1047424-2.300594-.3142276-.7117047-.2078242-1.371152-.5648622-1.9345903-1.0474257-.5228624-.4189703-.9411522-1.0474258-1.2548696-1.7282526-.3137173-.7331981-.5228623-1.6235098-.5228623-2.6709358v-11.2598269h-2.7188837v-4.9229011h2.77117v-6.86063871h6.4834923v6.80826741h4.3920431v4.9752724h-4.3920431v9.0078616c0 .6808268.1568587 1.2045395.5228622 1.5711387.3660036.2618563.8365796.4189703 1.359442.4189703s1.0457245-.0523713 1.5163005-.2618565c.5228624-.1571138.9934384-.3142278 1.359442-.523713l1.2548696 5.237129zm12.2349772 1.5187674c-1.663775.0290947-3.316712-.2735467-4.862619-.890312-2.720923-1.0781188-4.851972-3.2698089-5.856057-6.0226982-1.0272539-2.7344616-1.0272539-5.749687 0-8.4841486 1.004085-2.7528892 3.135134-4.9445793 5.856057-6.0226982 1.411728-.5760841 3.032601-.8903119 4.862619-.8903119 3.182838-.1500642 6.273786 1.0921486 8.470369 3.4041338.993439.9950544 1.725446 2.1995941 2.248308 3.5088763 1.070304 2.7445333 1.070304 5.7919865 0 8.53652-1.01047 2.7189338-3.11716 4.8860806-5.803771 5.9703268-1.562191.6236407-3.233594.9264074-4.914906.890312zm-4.70576-11.1027132c0 1.6758812.418289 3.0375348 1.307155 4.0325892.941153 1.0474258 2.09145 1.5711385 3.450891 1.5711385 1.313343.0254158 2.565843-.5536017 3.398605-1.5711385.41829-.523713.732007-1.0474257.993439-1.7806239.261431-.6808267.366003-1.466396.366003-2.2519653 0-1.7282525-.470576-3.089906-1.359442-4.0849605-.888866-1.0474257-2.039163-1.5711614-3.398605-1.5711614-1.308546-.0029441-2.551899.5718445-3.398604 1.5711614-.41829.5237129-.784294 1.0474258-1.045725 1.7806238-.235746.7444051-.341866 1.5238874-.313717 2.3043367zm33.097182-5.1847575c-1.568587 0-3.032601.2618564-4.339757.7855693-1.150711.388622-2.13049 1.1663134-2.77117 2.1995941v12.9357081h-6.535778v-21.5245994h6.012916v4.2944457c.732007-1.4663961 1.673159-2.6185644 2.875742-3.4041338 1.150297-.8379406 2.352881-1.2569109 3.660036-1.3092822h.679721l.41829.0523713v5.9179556zm2.875743 19.1155201c.909288.3166112 1.861275.4931919 2.823456.523713.784293 0 1.411728-.2618565 1.882304-.7855695.41829-.5237127.784294-1.5711385 1.150297-2.9327921l-8.156651-21.5245994h6.744923l4.967192 15.8685004 4.339757-15.8685004h6.117488l-8.208938 24.9811045c-1.287643 4.2430365-5.604515 6.7918589-9.934383 5.8655842-.522862-.1047425-1.150297-.2618563-1.725445-.5237128zm35.34549-2.8277346c-1.620873 0-3.084887-.3145426-4.287471-1.0477408-1.221834-.6722497-2.234966-1.6689094-2.928029-2.8804207v3.5612475h-5.699199v-29.95637675h6.588065v11.94065375c1.430165-2.5067144 4.125286-4.0176316 7.006355-3.9278467 1.359442 0 2.614311.2618565 3.764608.8903119 1.150297.5237129 2.09145 1.3616535 2.980315 2.356708 2.573782 3.5775766 3.274119 8.176142 1.882305 12.359624-.522863 1.3616536-1.25487 2.5661931-2.143736 3.5612475-1.83587 2.0160281-4.438998 3.1579388-7.163213 3.1425923zm-1.830018-5.499278c2.122416.0044567 4.013186-1.3422778 4.70576-3.3517847.766676-2.1097322.391002-4.4664649-.993438-6.2321832-.817411-1.078175-2.09951-1.7008098-3.450891-1.6758812-.993438 0-1.93459.366599-2.823456 1.0474258-.83658.733198-1.516301 1.6235099-1.986877 2.7233069v4.5039309c.843797 1.7818523 2.632288 2.9218348 4.601188 2.9327921zm15.058434-24.82401275h6.535778v22.25779755c0 1.6758812.679721 2.4614505 2.091449 2.4614505.746411.0021764 1.482145-.1775627 2.143736-.523713l.888865 4.8705298c-1.831258.8033448-3.804748 1.2307395-5.803771 1.2569111-1.882304 0-3.346319-.523713-4.339757-1.4663963-1.045724-1.0474257-1.568587-2.4090791-1.568587-4.2944454v-24.56213425zm23.999378 30.32297595c-1.663775.0290947-3.316712-.2735467-4.862619-.890312-2.737001-1.0714791-4.886783-3.2628697-5.908344-6.0226982-1.511977-4.1161516-.670789-8.7301502 2.196022-12.0453962 1.045725-1.0474258 2.196022-1.8329951 3.660036-2.4614506 1.411728-.5760841 3.032601-.8903119 4.862619-.8903119 3.182838-.1500642 6.273786 1.0921486 8.470369 3.4041338 1.045725.9950544 1.725446 2.1995941 2.248308 3.5088763 1.571667 4.1108007.724739 8.7562865-2.196022 12.0453962-.993438 1.0474257-2.196021 1.8853663-3.660036 2.4614506-1.545906.6167653-3.198844.9194067-4.862619.890312zm-4.758046-11.1027132c0 1.6758812.418289 3.0375348 1.307155 4.0325892.941152 1.0474258 2.091449 1.5711385 3.450891 1.5711385 1.31172.0177129 2.561044-.5598363 3.398605-1.5711385.41829-.523713.732007-1.0474257.993438-1.7806239.261432-.6808267.366004-1.466396.366004-2.2519653 0-1.7282525-.470576-3.089906-1.359442-4.0849605-.888866-1.0474257-2.039163-1.5711614-3.398605-1.5711614-1.308547-.0029441-2.551899.5718445-3.398605 1.5711614-.418289.5237129-.784293 1.0474258-1.045724 1.7806238-.261431.7331981-.313717 1.4663961-.313717 2.3043367zm33.933762 10.736114-5.594627-8.6936338-2.300594 2.4090793v6.2845545h-6.535778v-29.95637675h6.535778v17.33489635l7.267786-8.903119h6.954068l-7.738361 9.269718 8.365796 12.2548814z" fill="#1b243f"/><path d="m2.32662261 0c-1.29256812 0-2.32662261 1.0331384-2.32662261 2.27290448v40.60233922c0 1.239766 1.03405449 2.0146198 2.27491989 2.0146198h5.99751607v8.1101365l7.44519234-8.0584795h27.1956332c1.2408654 0 2.0164063-.7748538 2.0164063-2.0662768v-40.5506823c0-1.23976608-.7238382-2.3245614-2.0164063-2.3245614z" fill="#0ab3af"/><path d="m29.1016723 8.11483254c1.0334336 0 1.9118522.2064935 2.738599.67110389.7750752.41298701 1.4984787.98084416 2.0668672 1.65194807 1.157623 1.4103546 1.7797863 3.1836908 1.756837 5.0074675 0 1.3422078-.3617017 2.6327922-1.0334335 3.8717533-.6964172 1.2461943-1.7867273 2.2265561-3.1003008 2.7876623 1.6534938.4646104 2.9452857 1.2905844 3.9270476 2.4779221.9300902 1.238961 1.3951353 2.8392857 1.3951353 4.8525974 0 1.2905844-.2355416 2.4404127-.7234035 3.3038961-.5167167.9292208-1.2917919 1.7035714-2.2218821 2.2714286-.9817619.6194805-2.0668672 1.1873376-3.3069875 1.4454545-1.2401203.3097403-2.5835839.5678571-3.9787192.5678571h-18.29177429v-28.90909086zm-2.9675908 16.15701846h-10.3559515v4.8833518h10.1070104c.5974587 0 1.1451292-.2441676 1.5932233-.6348357.3983058-.3906682.647247-.9766704.647247-1.7091731.0144403-.6284528-.1775697-1.2447995-.5476706-1.7580067-.3983058-.4883351-.8463998-.7813363-1.4438586-.7813363zm-.8463999-9.7667035h-9.5095516v4.3950166h9.3103987c.4978823 0 .9957646-.2441676 1.3940704-.5371687.4480941-.2930011.647247-.9278368.647247-1.7580066 0-.7325028-.1991529-1.2696715-.5476705-1.6115061-.3485176-.2930011-.7966117-.4883352-1.294494-.4883352z" fill="#fff"/></g></svg>