<svg xmlns="http://www.w3.org/2000/svg" fill="none" viewBox="0 0 128 128">
	<path d="m54 69 7-17-7-17h13l7 17-7 17H54Z" fill="#fff"/>
	<path d="M74 69V52h21l-8 8.5 8 8.5H74Z" fill="#fff"/>
	<defs>
		<linearGradient id="astro-a" x1="196" x2="44" y1="73" y2="148" gradientUnits="userSpaceOnUse">
			<stop stop-color="#41D1FF"/>
			<stop offset="1" stop-color="#BD34FE"/>
		</linearGradient>
		<linearGradient id="astro-b" x1="165" x2="110" y1="43" y2="80" gradientUnits="userSpaceOnUse">
			<stop stop-color="#FFEA83"/>
			<stop offset="1" stop-color="#FFDD35"/>
		</linearGradient>
	</defs>
	<path d="M128 109c0 6.062-28.754 10.975-64.216 10.975S-.216 115.062-.216 109c0-6.061 28.754-10.975 64.216-10.975S128 102.939 128 109Z" fill="url(#astro-a)"/>
	<path d="M107.573 50.067c-.282 2.054-.862 4.042-1.706 5.886-2.856 6.235-8.175 10.285-14.524 11.161-2.263.312-4.615.208-6.816-.305C81.08 66.118 77.078 64.8 73.68 62.46c-3.875-2.669-7.185-6.074-9.743-10.032-2.557-3.958-4.354-8.468-5.273-13.23-.92-4.763-.975-9.778-.162-14.566.813-4.788 2.444-9.35 4.785-13.386C66.827 5.209 71.226.714 76.692-.51 82.158-1.735 88.692.278 93.158 4.772 97.624 9.266 99.512 15.754 98.338 21.995c-.548 2.912-1.513 5.721-2.857 8.324-1.344 2.603-3.068 4.999-5.084 7.084-4.031 4.17-9.314 6.936-15.064 7.888-5.75.952-11.968.072-17.718-2.51-5.75-2.582-10.033-7.264-12.209-13.345-2.176-6.081-1.345-13.563 2.366-20.154 3.711-6.591 10.195-12.291 18.483-16.3 8.288-4.009 18.38-6.328 28.772-6.628 10.392-.3 20.084 1.38 27.576 4.8 7.492 3.42 12.784 8.58 15.068 14.72 2.284 6.14 1.56 13.26-2.064 20.32-3.624 7.06-10.192 14.06-18.72 19.88-8.528 5.82-19.016 10.46-29.944 13.32-10.928 2.86-22.296 4.94-32.424 5.94-10.128 1-18.016 0.94-22.464-0.18-4.448-1.12-5.456-3.36-2.824-6.24 2.632-2.88 8.224-6.4 15.384-9.56 7.16-3.16 15.88-5.96 24.712-7.4 8.832-1.44 17.776-1.52 25.168-0.24 7.392 1.28 13.232 4.92 16.592 10.32 3.36 5.4 4.24 12.56 2.504 20.48-1.736 7.92-6.176 16.6-12.72 24.04-6.544 7.44-15.192 13.64-24.752 17.6-9.56 3.96-20.032 5.68-29.352 4.16-9.32-1.52-17.488-6.28-22.856-13.28-5.368-7-7.936-16.24-7.176-25.44.76-9.2 4.888-18.36 11.584-25.68 6.696-7.32 16.06-12.8 26.184-15.44 10.124-2.64 21.008-2.44 30.832.56 9.824 3 18.588 9.16 24.676 17.68 6.088 8.52 9.5 19.4 9.836 30.24.336 10.84-2.248 21.64-7.428 30.96-5.18 9.32-13.056 17.16-22.328 22.52s-19.848 8.2-30.072 8.84c-10.224.64-20.392-0.96-28.8-4.56s-15.416-9.2-19.784-16.2c-4.368-7-6.488-15.4-5.932-23.8.556-8.4 3.832-16.8 9.228-23.68 5.396-6.88 12.912-12.24 21.148-15.08 8.236-2.84 17.192-3.16 25.472-0.92 8.28 2.24 15.884 7.04 21.212 13.4 5.328 6.36 8.38 14.28 8.524 22.2.144 7.92-2.568 15.84-7.576 22.24-5.008 6.4-12.308 11.28-20.168 13.64-7.86 2.36-16.28 2.2-23.6-0.44-7.32-2.64-13.54-7.68-17.28-14.12-3.74-6.44-5-14.28-3.52-21.72 1.48-7.44 5.7-14.48 11.76-19.52 6.06-5.04 14.16-8.08 22.24-8.48 8.08-0.4 16.16 1.76 22.88 6.04 6.72 4.28 12.08 10.64 14.84 18.08 2.76 7.44 2.92 15.96 0.44 23.56-2.48 7.6-7.64 14.28-14.36 18.96-6.72 4.68-15 7.36-22.88 7.44-7.88 0.08-15.36-2.56-21.04-7.36-5.68-4.8-9.56-11.76-10.84-19.32-1.28-7.56 0.04-15.72 3.64-22.68 3.6-6.96 9.48-12.72 16.28-16.28 6.8-3.56 14.52-5.12 22.04-4.28 7.52 0.84 14.84 4.08 20.36 9.12 5.52 5.04 9.24 11.88 10.36 19.32 1.12 7.44-0.24 15.48-3.8 22.32-3.56 6.84-9.32 12.48-16.04 15.92-6.72 3.44-14.4 4.68-21.88 3.72-7.48-0.96-14.76-4.12-20.24-8.88-5.48-4.76-9.16-11.12-10.24-18.08-1.08-6.96 0.28-14.52 3.72-21.08 3.44-6.56 8.96-12.12 15.44-15.68 6.48-3.56 13.92-5.12 21.2-4.28 7.28 0.84 14.4 4.08 19.8 9.12 5.4 5.04 8.98 11.88 9.98 19.32.5 3.72-0.12 7.74-1.38 11.16-1.26 3.42-3.1 6.24-5.34 8.46-2.24 2.22-4.88 3.84-7.66 4.86-2.78 1.02-5.7 1.44-8.58 1.26-2.88-0.18-5.72-0.78-8.28-1.8-2.56-1.02-4.84-2.46-6.66-4.32-1.82-1.86-3.18-4.14-3.96-6.66-0.78-2.52-0.98-5.28-0.58-7.98 0.4-2.7 1.22-5.34 2.4-7.74 1.18-2.4 2.72-4.56 4.5-6.36 1.78-1.8 3.8-3.24 5.92-4.2 2.12-0.96 4.34-1.44 6.54-1.4 2.2 0.04 4.38 0.56 6.32 1.52 1.94 0.96 3.64 2.36 4.96 4.12 1.32 1.76 2.26 3.88 2.74 6.16 0.48 2.28 0.5 4.72 0.06 7.06-0.44 2.34-1.32 4.58-2.58 6.58-1.26 2-2.9 3.76-4.8 5.16-1.9 1.4-4.06 2.44-6.34 3.04-2.28 0.6-4.68 0.76-7.02 0.48-2.34-0.28-4.62-0.94-6.66-1.98-2.04-1.04-3.84-2.46-5.26-4.26-1.42-1.8-2.46-3.98-3.04-6.34-0.58-2.36-0.7-4.9-0.36-7.38 0.34-2.48 1.02-4.9 2.02-7.1 1-2.2 2.32-4.18 3.88-5.84 1.56-1.66 3.36-3 5.32-3.9 1.96-0.9 4.08-1.36 6.22-1.34 2.14 0.02 4.3 0.52 6.28 1.46 1.98 0.94 3.78 2.32 5.24 4.06 1.46 1.74 2.58 3.84 3.26 6.16 0.68 2.32 0.92 4.86 0.7 7.38-0.22 2.52-0.82 5.02-1.76 7.32-0.94 2.3-2.22 4.4-3.76 6.2-1.54 1.8-3.34 3.3-5.3 4.4-1.96 1.1-4.08 1.8-6.28 2.06-2.2 0.26-4.5 0.08-6.68-0.54-2.18-0.62-4.24-1.68-6.02-3.14-1.78-1.46-3.28-3.32-4.38-5.48-1.1-2.16-1.8-4.62-2.04-7.18-0.24-2.56-0.02-5.22 0.64-7.72 0.66-2.5 1.76-4.84 3.22-6.88 1.46-2.04 3.28-3.78 5.36-5.12 2.08-1.34 4.42-2.28 6.86-2.76 2.44-0.48 4.98-0.5 7.42-0.06 2.44 0.44 4.78 1.32 6.88 2.6 2.1 1.28 3.96 2.96 5.48 4.94 1.52 1.98 2.7 4.26 3.46 6.74 0.76 2.48 1.1 5.16 1 7.84-0.1 2.68-0.64 5.36-1.6 7.84-0.96 2.48-2.34 4.76-4.06 6.72-1.72 1.96-3.78 3.6-6.08 4.82-2.3 1.22-4.84 2.02-7.46 2.36-2.62 0.34-5.32 0.22-7.9-0.36-2.58-0.58-5.04-1.62-7.26-3.08-2.22-1.46-4.2-3.34-5.82-5.54-1.62-2.2-2.88-4.72-3.7-7.44-0.82-2.72-1.2-5.64-1.12-8.56 0.08-2.92 0.62-5.84 1.6-8.56 0.98-2.72 2.4-5.24 4.18-7.44 1.78-2.2 3.92-4.08 6.34-5.52 2.42-1.44 5.12-2.44 7.96-2.94 2.84-0.5 5.82-0.5 8.7-0.0z" fill="url(#astro-b)"/>
</svg>