<svg width="511.99" height="511.99" version="1.1" viewBox="0 0 135.46 135.46" xmlns="http://www.w3.org/2000/svg">
 <g transform="translate(-33.822 -179.61)">
  <g id="space-bg" transform="translate(0 2.6458)">
   <g transform="matrix(.26458 0 0 .26458 36.475 173.66)">
    <circle cx="245.96" cy="268.48" r="255.99" fill="#27536b"/>
    <g fill="#fff">
     <polygon points="189.94 124.17 141.74 118.84 136.41 70.638 131.08 118.84 82.878 124.17 131.08 129.5 136.41 177.7 141.74 129.5"/>
     <polygon points="404.2 276.6 367.21 272.51 363.12 235.51 359.03 272.51 322.03 276.6 359.03 280.69 363.12 317.68 367.21 280.69"/>
     <polygon points="192.88 361.26 164.14 358.08 160.97 329.34 157.79 358.08 129.06 361.26 157.79 364.43 160.97 393.17 164.14 364.43"/>
     <rect transform="matrix(-.7071 -.7071 .7071 -.7071 189.02 409.23)" x="174.08" y="160.29" width="10.362" height="10.362"/>
     <rect transform="matrix(-.7071 -.7071 .7071 -.7071 213.04 818.19)" x="270.79" y="359.79" width="10.362" height="10.362"/>
     <rect transform="matrix(-.7071 -.7071 .7071 -.7071 585.37 501.45)" x="391.36" y="124.31" width="10.362" height="10.362"/>
     <rect transform="matrix(-.7071 -.7071 .7071 -.7071 361.99 506.84)" x="280.78" y="173.27" width="10.362" height="10.362"/>
     <rect transform="matrix(-.7071 -.7071 .7071 -.7071 591.03 693.64)" x="433.99" y="219.23" width="10.362" height="10.362"/>
     <rect transform="matrix(-.7071 -.7071 .7071 -.7071 560.28 365.83)" x="350.73" y="61.695" width="10.362" height="10.362"/>
     <rect transform="matrix(-.7071 -.7071 .7071 -.7071 -136.1 712.21)" x="74.271" y="379.11" width="10.362" height="10.362"/>
     <rect transform="matrix(-.7071 -.7071 .7071 -.7071 418.26 239.05)" x="253.46" y="27.718" width="10.362" height="10.362"/>
     <rect transform="matrix(-.7071 -.7071 .7071 -.7071 290.21 1050)" x="357.39" y="459.73" width="10.362" height="10.362"/>
     <rect transform="matrix(-.7071 -.7071 .7071 -.7071 3.8946 290.57)" x="56.946" y="139.3" width="10.362" height="10.362"/>
    </g>
   </g>
  </g>
  <g transform="matrix(.46325 0 0 .46325 78.953 219.76)">
   <g transform="matrix(.76152 0 0 -.76152 -69.546 173.78)">
    <g transform="translate(178.06,235.01)">
     <path d="m0 0-22.669-39.264-22.669 39.264h-75.491l98.16-170.02 98.16 170.02z" fill="#41b883"/>
    </g>
    <g transform="translate(178.06,235.01)">
     <path d="m0 0-22.669-39.264-22.669 39.264h-36.227l58.896-102.01 58.896 102.01z" fill="#34495e"/>
    </g>
   </g>
  </g>
 </g>
 <style type="text/css">.st0{fill:#FF3E00;}
	.st1{fill:#FFFFFF;}</style>
 <style type="text/css">.st0{fill:#FF3E00;}
	.st1{fill:#FFFFFF;}</style>
</svg>
