<?xml version="1.0" encoding="UTF-8" standalone="no"?>
<svg
   xmlns:dc="http://purl.org/dc/elements/1.1/"
   xmlns:cc="http://creativecommons.org/ns#"
   xmlns:rdf="http://www.w3.org/1999/02/22-rdf-syntax-ns#"
   xmlns:svg="http://www.w3.org/2000/svg"
   xmlns="http://www.w3.org/2000/svg"
   xmlns:sodipodi="http://sodipodi.sourceforge.net/DTD/sodipodi-0.dtd"
   xmlns:inkscape="http://www.inkscape.org/namespaces/inkscape"
   sodipodi:docname="react.svg"
   inkscape:version="1.0 (4035a4fb49, 2020-05-01)"
   id="svg8"
   version="1.1"
   viewBox="0 0 135.4635 135.4635"
   height="511.98801"
   width="511.98801">
  <defs
     id="defs2" />
  <sodipodi:namedview
     inkscape:window-maximized="0"
     inkscape:window-y="227"
     inkscape:window-x="2024"
     inkscape:window-height="967"
     inkscape:window-width="1274"
     units="px"
     fit-margin-bottom="0"
     fit-margin-right="0"
     fit-margin-left="0"
     fit-margin-top="0"
     showgrid="false"
     inkscape:document-rotation="0"
     inkscape:current-layer="layer1"
     inkscape:document-units="mm"
     inkscape:cy="81.686932"
     inkscape:cx="204.60362"
     inkscape:zoom="0.40116429"
     inkscape:pageshadow="2"
     inkscape:pageopacity="0.0"
     borderopacity="1.0"
     bordercolor="#666666"
     pagecolor="#ffffff"
     id="base" />
  <metadata
     id="metadata5">
    <rdf:RDF>
      <cc:Work
         rdf:about="">
        <dc:format>image/svg+xml</dc:format>
        <dc:type
           rdf:resource="http://purl.org/dc/dcmitype/StillImage" />
        <dc:title></dc:title>
      </cc:Work>
    </rdf:RDF>
  </metadata>
  <g
     transform="translate(-34.951946,-176.96415)"
     id="layer1"
     inkscape:groupmode="layer"
     inkscape:label="Layer 1">
    <g
       id="space-bg">
      <g
         id="g952"
         transform="matrix(0.26458333,0,0,0.26458333,36.475351,173.65938)">
        <circle
           id="circle855"
           r="255.994"
           cy="268.48447"
           cx="250.23625"
           style="fill:#27536b" />
        <g
           id="g883">
	<polygon
   id="polygon857"
   points="131.078,118.839 82.878,124.168 131.078,129.496 136.407,177.696 141.735,129.496 189.935,124.168 141.735,118.839 136.407,70.638 "
   style="fill:#ffffff" />

	<polygon
   id="polygon859"
   points="359.026,272.509 322.029,276.599 359.026,280.689 363.115,317.685 367.206,280.689 404.202,276.599 367.206,272.509 363.115,235.512 "
   style="fill:#ffffff" />

	<polygon
   id="polygon861"
   points="157.79,358.079 129.055,361.256 157.79,364.432 160.968,393.168 164.145,364.432 192.881,361.256 164.145,358.079 160.968,329.343 "
   style="fill:#ffffff" />

	
		<rect
   id="rect863"
   height="10.362"
   width="10.362"
   style="fill:#ffffff"
   transform="matrix(-0.7071,-0.7071,0.7071,-0.7071,189.016,409.2328)"
   y="160.289"
   x="174.082" />

	
		<rect
   id="rect865"
   height="10.362"
   width="10.362"
   style="fill:#ffffff"
   transform="matrix(-0.7071,-0.7071,0.7071,-0.7071,213.0358,818.1921)"
   y="359.79401"
   x="270.79001" />

	
		<rect
   id="rect867"
   height="10.362"
   width="10.362"
   style="fill:#ffffff"
   transform="matrix(-0.7071,-0.7071,0.7071,-0.7071,585.3727,501.4503)"
   y="124.309"
   x="391.35901" />

	
		<rect
   id="rect869"
   height="10.362"
   width="10.362"
   style="fill:#ffffff"
   transform="matrix(-0.7071,-0.7071,0.7071,-0.7071,361.9863,506.8415)"
   y="173.27"
   x="280.78201" />

	
		<rect
   id="rect871"
   height="10.362"
   width="10.362"
   style="fill:#ffffff"
   transform="matrix(-0.7071,-0.7071,0.7071,-0.7071,591.0331,693.6425)"
   y="219.233"
   x="433.99301" />

	
		<rect
   id="rect873"
   height="10.362"
   width="10.362"
   style="fill:#ffffff"
   transform="matrix(-0.7071,-0.7071,0.7071,-0.7071,560.2817,365.8286)"
   y="61.695"
   x="350.72501" />

	
		<rect
   id="rect875"
   height="10.362"
   width="10.362"
   style="fill:#ffffff"
   transform="matrix(-0.7071,-0.7071,0.7071,-0.7071,-136.1037,712.2148)"
   y="379.11401"
   x="74.271004" />

	
		<rect
   id="rect877"
   height="10.362"
   width="10.362"
   style="fill:#ffffff"
   transform="matrix(-0.7071,-0.7071,0.7071,-0.7071,418.2628,239.0482)"
   y="27.718"
   x="253.459" />

	
		<rect
   id="rect879"
   height="10.362"
   width="10.362"
   style="fill:#ffffff"
   transform="matrix(-0.7071,-0.7071,0.7071,-0.7071,290.207,1050.0205)"
   y="459.72501"
   x="357.38901" />

	
		<rect
   id="rect881"
   height="10.362"
   width="10.362"
   style="fill:#ffffff"
   transform="matrix(-0.7071,-0.7071,0.7071,-0.7071,3.8946,290.5735)"
   y="139.299"
   x="56.945999" />

</g>
        <g
           id="g885">
</g>
        <g
           id="g887">
</g>
        <g
           id="g889">
</g>
        <g
           id="g891">
</g>
        <g
           id="g893">
</g>
        <g
           id="g895">
</g>
        <g
           id="g897">
</g>
        <g
           id="g899">
</g>
        <g
           id="g901">
</g>
        <g
           id="g903">
</g>
        <g
           id="g905">
</g>
        <g
           id="g907">
</g>
        <g
           id="g909">
</g>
        <g
           id="g911">
</g>
        <g
           id="g913">
</g>
      </g>
    </g>
    <g
       transform="translate(137.18403,-23.743389)"
       id="react-icon">
      <g
         id="space-background"
         transform="matrix(0.15972395,0,0,0.15972395,-101.74412,221.08912)">
	<path
   id="path833"
   d="m 666.3,296.5 c 0,-32.5 -40.7,-63.3 -103.1,-82.4 14.4,-63.6 8,-114.2 -20.2,-130.4 -6.5,-3.8 -14.1,-5.6 -22.4,-5.6 v 22.3 c 4.6,0 8.3,0.9 11.4,2.6 13.6,7.8 19.5,37.5 14.9,75.7 -1.1,9.4 -2.9,19.3 -5.1,29.4 -19.6,-4.8 -41,-8.5 -63.5,-10.9 -13.5,-18.5 -27.5,-35.3 -41.6,-50 32.6,-30.3 63.2,-46.9 84,-46.9 V 78 c 0,0 0,0 0,0 -27.5,0 -63.5,19.6 -99.9,53.6 C 384.4,97.8 348.4,78.4 320.9,78.4 v 22.3 c 20.7,0 51.4,16.5 84,46.6 -14,14.7 -28,31.4 -41.3,49.9 -22.6,2.4 -44,6.1 -63.6,11 -2.3,-10 -4,-19.7 -5.2,-29 -4.7,-38.2 1.1,-67.9 14.6,-75.8 3,-1.8 6.9,-2.6 11.5,-2.6 V 78.5 c 0,0 0,0 0,0 -8.4,0 -16,1.8 -22.6,5.6 -28.1,16.2 -34.4,66.7 -19.9,130.1 -62.2,19.2 -102.7,49.9 -102.7,82.3 0,32.5 40.7,63.3 103.1,82.4 -14.4,63.6 -8,114.2 20.2,130.4 6.5,3.8 14.1,5.6 22.5,5.6 27.5,0 63.5,-19.6 99.9,-53.6 36.4,33.8 72.4,53.2 99.9,53.2 8.4,0 16,-1.8 22.6,-5.6 28.1,-16.2 34.4,-66.7 19.9,-130.1 62,-19.1 102.5,-49.9 102.5,-82.3 z M 536.1,229.8 c -3.7,12.9 -8.3,26.2 -13.5,39.5 -4.1,-8 -8.4,-16 -13.1,-24 -4.6,-8 -9.5,-15.8 -14.4,-23.4 14.2,2.1 27.9,4.7 41,7.9 z m -45.8,106.5 c -7.8,13.5 -15.8,26.3 -24.1,38.2 -14.9,1.3 -30,2 -45.2,2 -15.1,0 -30.2,-0.7 -45,-1.9 -8.3,-11.9 -16.4,-24.6 -24.2,-38 -7.6,-13.1 -14.5,-26.4 -20.8,-39.8 6.2,-13.4 13.2,-26.8 20.7,-39.9 7.8,-13.5 15.8,-26.3 24.1,-38.2 14.9,-1.3 30,-2 45.2,-2 15.1,0 30.2,0.7 45,1.9 8.3,11.9 16.4,24.6 24.2,38 7.6,13.1 14.5,26.4 20.8,39.8 -6.3,13.4 -13.2,26.8 -20.7,39.9 z m 32.3,-13 c 5.4,13.4 10,26.8 13.8,39.8 -13.1,3.2 -26.9,5.9 -41.2,8 4.9,-7.7 9.8,-15.6 14.4,-23.7 4.6,-8 8.9,-16.1 13,-24.1 z M 421.2,430 c -9.3,-9.6 -18.6,-20.3 -27.8,-32 9,0.4 18.2,0.7 27.5,0.7 9.4,0 18.7,-0.2 27.8,-0.7 -9,11.7 -18.3,22.4 -27.5,32 z m -74.4,-58.9 c -14.2,-2.1 -27.9,-4.7 -41,-7.9 3.7,-12.9 8.3,-26.2 13.5,-39.5 4.1,8 8.4,16 13.1,24 4.7,8 9.5,15.8 14.4,23.4 z M 420.7,163 c 9.3,9.6 18.6,20.3 27.8,32 -9,-0.4 -18.2,-0.7 -27.5,-0.7 -9.4,0 -18.7,0.2 -27.8,0.7 9,-11.7 18.3,-22.4 27.5,-32 z m -74,58.9 c -4.9,7.7 -9.8,15.6 -14.4,23.7 -4.6,8 -8.9,16 -13,24 -5.4,-13.4 -10,-26.8 -13.8,-39.8 13.1,-3.1 26.9,-5.8 41.2,-7.9 z m -90.5,125.2 c -35.4,-15.1 -58.3,-34.9 -58.3,-50.6 0,-15.7 22.9,-35.6 58.3,-50.6 8.6,-3.7 18,-7 27.7,-10.1 5.7,19.6 13.2,40 22.5,60.9 -9.2,20.8 -16.6,41.1 -22.2,60.6 -9.9,-3.1 -19.3,-6.5 -28,-10.2 z M 310,490 c -13.6,-7.8 -19.5,-37.5 -14.9,-75.7 1.1,-9.4 2.9,-19.3 5.1,-29.4 19.6,4.8 41,8.5 63.5,10.9 13.5,18.5 27.5,35.3 41.6,50 -32.6,30.3 -63.2,46.9 -84,46.9 -4.5,-0.1 -8.3,-1 -11.3,-2.7 z m 237.2,-76.2 c 4.7,38.2 -1.1,67.9 -14.6,75.8 -3,1.8 -6.9,2.6 -11.5,2.6 -20.7,0 -51.4,-16.5 -84,-46.6 14,-14.7 28,-31.4 41.3,-49.9 22.6,-2.4 44,-6.1 63.6,-11 2.3,10.1 4.1,19.8 5.2,29.1 z m 38.5,-66.7 c -8.6,3.7 -18,7 -27.7,10.1 -5.7,-19.6 -13.2,-40 -22.5,-60.9 9.2,-20.8 16.6,-41.1 22.2,-60.6 9.9,3.1 19.3,6.5 28.1,10.2 35.4,15.1 58.3,34.9 58.3,50.6 -0.1,15.7 -23,35.6 -58.4,50.6 z"
   fill="#61dafb" />

	<polygon
   id="polygon835"
   points=""
   fill="#61dafb" />

	<circle
   id="circle837"
   r="45.700001"
   cy="296.5"
   cx="420.89999"
   fill="#61dafb" />

	<polygon
   id="polygon839"
   points=""
   fill="#61dafb" />

</g>
    </g>
  </g>
</svg>
