<?xml version="1.0" encoding="UTF-8" standalone="no"?>
<svg
   xmlns:dc="http://purl.org/dc/elements/1.1/"
   xmlns:cc="http://creativecommons.org/ns#"
   xmlns:rdf="http://www.w3.org/1999/02/22-rdf-syntax-ns#"
   xmlns:svg="http://www.w3.org/2000/svg"
   xmlns="http://www.w3.org/2000/svg"
   xmlns:sodipodi="http://sodipodi.sourceforge.net/DTD/sodipodi-0.dtd"
   xmlns:inkscape="http://www.inkscape.org/namespaces/inkscape"
   sodipodi:docname="lit.svg"
   inkscape:version="1.0 (4035a4fb49, 2020-05-01)"
   id="svg8"
   version="1.1"
   viewBox="0 0 135.4635 135.4635"
   height="511.98801"
   width="511.98801">
  <defs
     id="defs2" />
  <sodipodi:namedview
     showborder="false"
     inkscape:pagecheckerboard="true"
     inkscape:window-maximized="0"
     inkscape:window-y="227"
     inkscape:window-x="2024"
     inkscape:window-height="967"
     inkscape:window-width="1274"
     units="px"
     fit-margin-bottom="0"
     fit-margin-right="0"
     fit-margin-left="0"
     fit-margin-top="0"
     showgrid="false"
     inkscape:document-rotation="0"
     inkscape:current-layer="layer1"
     inkscape:document-units="px"
     inkscape:cy="239.98365"
     inkscape:cx="191.72074"
     inkscape:zoom="1.134664"
     inkscape:pageshadow="2"
     inkscape:pageopacity="0.0"
     borderopacity="1.0"
     bordercolor="#666666"
     pagecolor="#ffffff"
     id="base" />
  <metadata
     id="metadata5">
    <rdf:RDF>
      <cc:Work
         rdf:about="">
        <dc:format>image/svg+xml</dc:format>
        <dc:type
           rdf:resource="http://purl.org/dc/dcmitype/StillImage" />
        <dc:title></dc:title>
      </cc:Work>
    </rdf:RDF>
  </metadata>
  <g
     transform="translate(-33.821726,-179.60998)"
     id="layer1"
     inkscape:groupmode="layer"
     inkscape:label="Layer 1">
    <g
       transform="translate(0,2.6458334)"
       id="space-bg">
      <g
         id="g952"
         transform="matrix(0.26458333,0,0,0.26458333,36.475351,173.65938)">
        <circle
           id="circle855"
           r="255.994"
           cy="268.48447"
           cx="245.96455"
           style="fill:#27536b" />
        <g
           id="g883">
	<polygon
   id="polygon857"
   points="131.078,129.496 136.407,177.696 141.735,129.496 189.935,124.168 141.735,118.839 136.407,70.638 131.078,118.839 82.878,124.168 "
   style="fill:#ffffff" />

	<polygon
   id="polygon859"
   points="359.026,280.689 363.115,317.685 367.206,280.689 404.202,276.599 367.206,272.509 363.115,235.512 359.026,272.509 322.029,276.599 "
   style="fill:#ffffff" />

	<polygon
   id="polygon861"
   points="157.79,364.432 160.968,393.168 164.145,364.432 192.881,361.256 164.145,358.079 160.968,329.343 157.79,358.079 129.055,361.256 "
   style="fill:#ffffff" />

	
		<rect
   id="rect863"
   height="10.362"
   width="10.362"
   style="fill:#ffffff"
   transform="matrix(-0.7071,-0.7071,0.7071,-0.7071,189.016,409.2328)"
   y="160.289"
   x="174.082" />

	
		<rect
   id="rect865"
   height="10.362"
   width="10.362"
   style="fill:#ffffff"
   transform="matrix(-0.7071,-0.7071,0.7071,-0.7071,213.0358,818.1921)"
   y="359.79401"
   x="270.79001" />

	
		<rect
   id="rect867"
   height="10.362"
   width="10.362"
   style="fill:#ffffff"
   transform="matrix(-0.7071,-0.7071,0.7071,-0.7071,585.3727,501.4503)"
   y="124.309"
   x="391.35901" />

	
		<rect
   id="rect869"
   height="10.362"
   width="10.362"
   style="fill:#ffffff"
   transform="matrix(-0.7071,-0.7071,0.7071,-0.7071,361.9863,506.8415)"
   y="173.27"
   x="280.78201" />

	
		<rect
   id="rect871"
   height="10.362"
   width="10.362"
   style="fill:#ffffff"
   transform="matrix(-0.7071,-0.7071,0.7071,-0.7071,591.0331,693.6425)"
   y="219.233"
   x="433.99301" />

	
		<rect
   id="rect873"
   height="10.362"
   width="10.362"
   style="fill:#ffffff"
   transform="matrix(-0.7071,-0.7071,0.7071,-0.7071,560.2817,365.8286)"
   y="61.695"
   x="350.72501" />

	
		<rect
   id="rect875"
   height="10.362"
   width="10.362"
   style="fill:#ffffff"
   transform="matrix(-0.7071,-0.7071,0.7071,-0.7071,-136.1037,712.2148)"
   y="379.11401"
   x="74.271004" />

	
		<rect
   id="rect877"
   height="10.362"
   width="10.362"
   style="fill:#ffffff"
   transform="matrix(-0.7071,-0.7071,0.7071,-0.7071,418.2628,239.0482)"
   y="27.718"
   x="253.459" />

	
		<rect
   id="rect879"
   height="10.362"
   width="10.362"
   style="fill:#ffffff"
   transform="matrix(-0.7071,-0.7071,0.7071,-0.7071,290.207,1050.0205)"
   y="459.72501"
   x="357.38901" />

	
		<rect
   id="rect881"
   height="10.362"
   width="10.362"
   style="fill:#ffffff"
   transform="matrix(-0.7071,-0.7071,0.7071,-0.7071,3.8946,290.5735)"
   y="139.299"
   x="56.945999" />

</g>
        <g
           id="g885">
</g>
        <g
           id="g887">
</g>
        <g
           id="g889">
</g>
        <g
           id="g891">
</g>
        <g
           id="g893">
</g>
        <g
           id="g895">
</g>
        <g
           id="g897">
</g>
        <g
           id="g899">
</g>
        <g
           id="g901">
</g>
        <g
           id="g903">
</g>
        <g
           id="g905">
</g>
        <g
           id="g907">
</g>
        <g
           id="g909">
</g>
        <g
           id="g911">
</g>
        <g
           id="g913">
</g>
      </g>
    </g>
    <g
       transform="matrix(0.26458333,0,0,0.26458333,80.386805,218.23756)"
       id="g1066">
      <path
         fill="#324fff"
         d="m 0,80 v 80 a 70.3,70.3 0 0 0 40,-40 z"
         id="path1025" />
      <path
         fill="#283198"
         d="m 40,120 c 5.7,27.3 5.3,47 0,80 L 0,160 Z"
         id="path1027" />
      <path
         fill="#00ffff"
         d="m 40,120 v 80 L 80,160 A 149.9,149.9 0 0 0 40,120 Z"
         id="path1029" />
      <path
         fill="#324fff"
         d="M 80,0 V 80 C 80,80 48.3,55.7 40,40 Z"
         id="path1031" />
      <path
         fill="#324fff"
         d="m 40,40 v 80 A 84.8,84.8 0 0 0 80,80 Z"
         id="path1033" />
      <path
         fill="#00e8ff"
         d="m 80,80 a 182,182 0 0 1 0,80 L 40,120 Z"
         id="path1035" />
      <path
         fill="#283198"
         d="m 80,80 v 80 c 17,-7.5 31.5,-19 40,-40 -5.9,-17 -18.1,-30.9 -40,-40 z"
         id="path1037" />
      <path
         fill="#283198"
         d="m 120,40 v 80 L 80,80 Z"
         id="path1039" />
      <path
         fill="#00e8ff"
         d="m 120,120 c 6.1,27 4.9,53.6 0,80 L 80,160 Z"
         id="path1041" />
      <path
         fill="#324fff"
         d="m 120,120 v 80 l 40,-40 c -5.4,-15 -18.3,-27.9 -40,-40 z"
         id="path1043" />
      <path
         fill="#324fff"
         d="m 160,80 v 80 l -40,-40 z"
         id="path1045" />
    </g>
    <ellipse
       ry="29.918465"
       rx="27.360489"
       cy="247.34169"
       cx="101.55347"
       id="path1070"
       style="fill:#000000;fill-opacity:0.24498;stroke-width:1;stroke-linecap:round;stroke-linejoin:round;paint-order:markers stroke fill" />
  </g>
</svg>
