<?xml version="1.0" encoding="UTF-8" standalone="no"?>
<svg
   xmlns:dc="http://purl.org/dc/elements/1.1/"
   xmlns:cc="http://creativecommons.org/ns#"
   xmlns:rdf="http://www.w3.org/1999/02/22-rdf-syntax-ns#"
   xmlns:svg="http://www.w3.org/2000/svg"
   xmlns="http://www.w3.org/2000/svg"
   xmlns:sodipodi="http://sodipodi.sourceforge.net/DTD/sodipodi-0.dtd"
   xmlns:inkscape="http://www.inkscape.org/namespaces/inkscape"
   inkscape:version="1.0 (4035a4fb49, 2020-05-01)"
   sodipodi:docname="snowpack.svg"
   xml:space="preserve"
   style="enable-background:new 0 0 511.989 511.989;"
   viewBox="0 0 511.989 511.989"
   y="0px"
   x="0px"
   id="Capa_1"
   version="1.1"><metadata
   id="metadata67"><rdf:RDF><cc:Work
       rdf:about=""><dc:format>image/svg+xml</dc:format><dc:type
         rdf:resource="http://purl.org/dc/dcmitype/StillImage" /><dc:title></dc:title></cc:Work></rdf:RDF></metadata><defs
   id="defs65" /><sodipodi:namedview
   inkscape:current-layer="g906"
   inkscape:window-maximized="1"
   inkscape:window-y="215"
   inkscape:window-x="1912"
   inkscape:cy="379.79605"
   inkscape:cx="47.060731"
   inkscape:zoom="0.53343688"
   showgrid="false"
   id="namedview63"
   inkscape:window-height="987"
   inkscape:window-width="1680"
   inkscape:pageshadow="2"
   inkscape:pageopacity="0"
   guidetolerance="10"
   gridtolerance="10"
   objecttolerance="10"
   borderopacity="1"
   bordercolor="#666666"
   pagecolor="#ffffff" />
<circle
   id="circle2"
   r="255.994"
   cy="255.994"
   cx="255.994"
   style="fill:#27536B;" />
<g
   id="g30">
	<polygon
   id="polygon4"
   points="141.735,129.496 189.935,124.168 141.735,118.839 136.407,70.638 131.078,118.839    82.878,124.168 131.078,129.496 136.407,177.696  "
   style="fill:#FFFFFF;" />
	<polygon
   id="polygon6"
   points="367.206,280.689 404.202,276.599 367.206,272.509 363.115,235.512 359.026,272.509    322.029,276.599 359.026,280.689 363.115,317.685  "
   style="fill:#FFFFFF;" />
	<polygon
   id="polygon8"
   points="164.145,364.432 192.881,361.256 164.145,358.079 160.968,329.343 157.79,358.079    129.055,361.256 157.79,364.432 160.968,393.168  "
   style="fill:#FFFFFF;" />
	
		<rect
   id="rect10"
   height="10.362"
   width="10.362"
   style="fill:#FFFFFF;"
   transform="matrix(-0.7071 -0.7071 0.7071 -0.7071 189.016 409.2328)"
   y="160.289"
   x="174.082" />
	
		<rect
   id="rect12"
   height="10.362"
   width="10.362"
   style="fill:#FFFFFF;"
   transform="matrix(-0.7071 -0.7071 0.7071 -0.7071 213.0358 818.1921)"
   y="359.794"
   x="270.79" />
	
		<rect
   id="rect14"
   height="10.362"
   width="10.362"
   style="fill:#FFFFFF;"
   transform="matrix(-0.7071 -0.7071 0.7071 -0.7071 585.3727 501.4503)"
   y="124.309"
   x="391.359" />
	
		<rect
   id="rect16"
   height="10.362"
   width="10.362"
   style="fill:#FFFFFF;"
   transform="matrix(-0.7071 -0.7071 0.7071 -0.7071 361.9863 506.8415)"
   y="173.27"
   x="280.782" />
	
		<rect
   id="rect18"
   height="10.362"
   width="10.362"
   style="fill:#FFFFFF;"
   transform="matrix(-0.7071 -0.7071 0.7071 -0.7071 591.0331 693.6425)"
   y="219.233"
   x="433.993" />
	
		<rect
   id="rect20"
   height="10.362"
   width="10.362"
   style="fill:#FFFFFF;"
   transform="matrix(-0.7071 -0.7071 0.7071 -0.7071 560.2817 365.8286)"
   y="61.695"
   x="350.725" />
	
		<rect
   id="rect22"
   height="10.362"
   width="10.362"
   style="fill:#FFFFFF;"
   transform="matrix(-0.7071 -0.7071 0.7071 -0.7071 -136.1037 712.2148)"
   y="379.114"
   x="74.271" />
	
		<rect
   id="rect24"
   height="10.362"
   width="10.362"
   style="fill:#FFFFFF;"
   transform="matrix(-0.7071 -0.7071 0.7071 -0.7071 418.2628 239.0482)"
   y="27.718"
   x="253.459" />
	
		<rect
   id="rect26"
   height="10.362"
   width="10.362"
   style="fill:#FFFFFF;"
   transform="matrix(-0.7071 -0.7071 0.7071 -0.7071 290.207 1050.0205)"
   y="459.725"
   x="357.389" />
	
		<rect
   id="rect28"
   height="10.362"
   width="10.362"
   style="fill:#FFFFFF;"
   transform="matrix(-0.7071 -0.7071 0.7071 -0.7071 3.8946 290.5735)"
   y="139.299"
   x="56.946" />
</g>
<g
   id="g32">
</g>
<g
   id="g34">
</g>
<g
   id="g36">
</g>
<g
   id="g38">
</g>
<g
   id="g40">
</g>
<g
   id="g42">
</g>
<g
   id="g44">
</g>
<g
   id="g46">
</g>
<g
   id="g48">
</g>
<g
   id="g50">
</g>
<g
   id="g52">
</g>
<g
   id="g54">
</g>
<g
   id="g56">
</g>
<g
   id="g58">
</g>
<g
   id="g60">
</g>
<g
   transform="matrix(0.5425888,0,0,0.5425888,117.42866,111.80476)"
   id="g906"
   style="fill:none"><circle
     style="fill:#000000;fill-opacity:0.461847"
     cx="250"
     cy="250"
     r="250"
     fill="#000000"
     id="circle892" /><path
     style="fill:#ffffff;fill-opacity:1;stroke-width:1.5596"
     id="path917"
     fill-rule="nonzero"
     fill="#000000"
     d="M 446.45772,378.94644 266.79362,99.468923 c -3.67438,-5.714313 -10.00005,-9.170348 -16.79361,-9.170348 -6.79353,0 -13.11921,3.456035 -16.79359,9.170348 L 53.542345,378.94644 c -3.949399,6.14289 -4.229329,13.95199 -0.72995,20.36194 3.500986,6.40827 10.221253,10.39304 17.52355,10.39304 H 429.66412 c 7.30509,0 14.02378,-3.9863 17.52349,-10.3993 3.49937,-6.40776 3.21943,-14.21508 -0.72989,-20.35568 z m -196.45771,-231.76672 53.26917,82.85759 h -53.26917 l -39.92536,39.92539 -23.7431,-23.74311 z" /></g></svg>
