<svg width="511.99" height="511.99" version="1.1" viewBox="0 0 135.46 135.46" xmlns="http://www.w3.org/2000/svg">
 <defs>
  <linearGradient id="a" x1="27.5" x2="152" y1="3" y2="63.5" gradientUnits="userSpaceOnUse">
   <stop stop-color="#76b3e1" offset=".1"/>
   <stop stop-color="#dcf2fd" offset=".3"/>
   <stop stop-color="#76b3e1" offset="1"/>
  </linearGradient>
  <linearGradient id="b" x1="95.8" x2="74" y1="32.6" y2="105.2" gradientUnits="userSpaceOnUse">
   <stop stop-color="#76b3e1" offset="0"/>
   <stop stop-color="#4377bb" offset=".5"/>
   <stop stop-color="#1f3b77" offset="1"/>
  </linearGradient>
  <linearGradient id="c" x1="18.4" x2="144.3" y1="64.2" y2="149.8" gradientUnits="userSpaceOnUse">
   <stop stop-color="#315aa9" offset="0"/>
   <stop stop-color="#518ac8" offset=".5"/>
   <stop stop-color="#315aa9" offset="1"/>
  </linearGradient>
  <linearGradient id="d" x1="75.2" x2="24.4" y1="74.5" y2="260.8" gradientUnits="userSpaceOnUse">
   <stop stop-color="#4377bb" offset="0"/>
   <stop stop-color="#1a336b" offset=".5"/>
   <stop stop-color="#1a336b" offset="1"/>
  </linearGradient>
 </defs>
 <g transform="translate(-33.822 -179.61)">
  <g id="space-bg" transform="translate(0 2.6458)">
   <g transform="matrix(.26458 0 0 .26458 36.475 173.66)">
    <circle cx="245.96" cy="268.48" r="255.99" fill="#27536b"/>
    <g fill="#fff">
     <polygon points="82.878 124.17 131.08 129.5 136.41 177.7 141.74 129.5 189.94 124.17 141.74 118.84 136.41 70.638 131.08 118.84"/>
     <polygon points="322.03 276.6 359.03 280.69 363.12 317.68 367.21 280.69 404.2 276.6 367.21 272.51 363.12 235.51 359.03 272.51"/>
     <polygon points="129.06 361.26 157.79 364.43 160.97 393.17 164.14 364.43 192.88 361.26 164.14 358.08 160.97 329.34 157.79 358.08"/>
     <rect transform="matrix(-.7071 -.7071 .7071 -.7071 189.02 409.23)" x="174.08" y="160.29" width="10.362" height="10.362"/>
     <rect transform="matrix(-.7071 -.7071 .7071 -.7071 213.04 818.19)" x="270.79" y="359.79" width="10.362" height="10.362"/>
     <rect transform="matrix(-.7071 -.7071 .7071 -.7071 585.37 501.45)" x="391.36" y="124.31" width="10.362" height="10.362"/>
     <rect transform="matrix(-.7071 -.7071 .7071 -.7071 361.99 506.84)" x="280.78" y="173.27" width="10.362" height="10.362"/>
     <rect transform="matrix(-.7071 -.7071 .7071 -.7071 591.03 693.64)" x="433.99" y="219.23" width="10.362" height="10.362"/>
     <rect transform="matrix(-.7071 -.7071 .7071 -.7071 560.28 365.83)" x="350.73" y="61.695" width="10.362" height="10.362"/>
     <rect transform="matrix(-.7071 -.7071 .7071 -.7071 -136.1 712.21)" x="74.271" y="379.11" width="10.362" height="10.362"/>
     <rect transform="matrix(-.7071 -.7071 .7071 -.7071 418.26 239.05)" x="253.46" y="27.718" width="10.362" height="10.362"/>
     <rect transform="matrix(-.7071 -.7071 .7071 -.7071 290.21 1050)" x="357.39" y="459.73" width="10.362" height="10.362"/>
     <rect transform="matrix(-.7071 -.7071 .7071 -.7071 3.8946 290.57)" x="56.946" y="139.3" width="10.362" height="10.362"/>
    </g>
   </g>
  </g>
  <g transform="matrix(.46325 0 0 .46325 78.953 219.76)">
   <g transform="matrix(.82126 0 0 .82126 -19.788 -4.2031)">
    <path d="m163 35s-53-39-94-30l-3 1c-6 2-11 5-14 9l-2 3-15 26 26 5c11 7 25 10 38 7l46 9z" fill="#76b3e1"/>
    <path d="m163 35s-53-39-94-30l-3 1c-6 2-11 5-14 9l-2 3-15 26 26 5c11 7 25 10 38 7l46 9z" fill="url(#a)" opacity=".3"/>
    <path d="m52 35-4 1c-17 5-22 21-13 35 10 13 31 20 48 15l62-21s-53-39-93-30z" fill="#518ac8"/>
    <path d="m52 35-4 1c-17 5-22 21-13 35 10 13 31 20 48 15l62-21s-53-39-93-30z" fill="url(#b)" opacity=".3"/>
    <path d="m134 80a45 45 0 0 0-48-15l-62 20-20 35 112 19 20-36c4-7 3-15-2-23z" fill="url(#c)"/>
    <path d="m114 115a45 45 0 0 0-48-15l-62 20s53 40 94 30l3-1c17-5 23-21 13-34z" fill="url(#d)"/>
   </g>
  </g>
 </g>
 <style type="text/css">.st0{fill:#FF3E00;}
	.st1{fill:#FFFFFF;}</style>
 <style type="text/css">.st0{fill:#FF3E00;}
	.st1{fill:#FFFFFF;}</style>
</svg>
