<svg width="511.99" height="511.99" version="1.1" viewBox="0 0 135.46 135.46" xmlns="http://www.w3.org/2000/svg">
 <g transform="translate(-33.822 -179.61)">
  <g id="space-bg" transform="translate(0 2.6458)">
   <g transform="matrix(.26458 0 0 .26458 36.475 173.66)">
    <circle cx="245.96" cy="268.48" r="255.99" fill="#27536b"/>
    <g fill="#fff">
     <polygon points="189.94 124.17 141.74 118.84 136.41 70.638 131.08 118.84 82.878 124.17 131.08 129.5 136.41 177.7 141.74 129.5"/>
     <polygon points="404.2 276.6 367.21 272.51 363.12 235.51 359.03 272.51 322.03 276.6 359.03 280.69 363.12 317.68 367.21 280.69"/>
     <polygon points="192.88 361.26 164.14 358.08 160.97 329.34 157.79 358.08 129.06 361.26 157.79 364.43 160.97 393.17 164.14 364.43"/>
     <rect transform="matrix(-.7071 -.7071 .7071 -.7071 189.02 409.23)" x="174.08" y="160.29" width="10.362" height="10.362"/>
     <rect transform="matrix(-.7071 -.7071 .7071 -.7071 213.04 818.19)" x="270.79" y="359.79" width="10.362" height="10.362"/>
     <rect transform="matrix(-.7071 -.7071 .7071 -.7071 585.37 501.45)" x="391.36" y="124.31" width="10.362" height="10.362"/>
     <rect transform="matrix(-.7071 -.7071 .7071 -.7071 361.99 506.84)" x="280.78" y="173.27" width="10.362" height="10.362"/>
     <rect transform="matrix(-.7071 -.7071 .7071 -.7071 591.03 693.64)" x="433.99" y="219.23" width="10.362" height="10.362"/>
     <rect transform="matrix(-.7071 -.7071 .7071 -.7071 560.28 365.83)" x="350.73" y="61.695" width="10.362" height="10.362"/>
     <rect transform="matrix(-.7071 -.7071 .7071 -.7071 -136.1 712.21)" x="74.271" y="379.11" width="10.362" height="10.362"/>
     <rect transform="matrix(-.7071 -.7071 .7071 -.7071 418.26 239.05)" x="253.46" y="27.718" width="10.362" height="10.362"/>
     <rect transform="matrix(-.7071 -.7071 .7071 -.7071 290.21 1050)" x="357.39" y="459.73" width="10.362" height="10.362"/>
     <rect transform="matrix(-.7071 -.7071 .7071 -.7071 3.8946 290.57)" x="56.946" y="139.3" width="10.362" height="10.362"/>
    </g>
   </g>
  </g>
  <g transform="matrix(.46325 0 0 .46325 78.953 219.76)">
   <path d="m61.966-4.5181c-6.6424 0.12429-13.248 1.9589-19.07 5.6539l-29.859 19.109c-8.1433 5.1031-13.789 13.464-15.417 22.91-1.4115 7.9261-0.21744 16.069 3.5828 23.127-2.6058 3.9088-4.3428 8.2519-5.1028 12.812-1.7372 9.6634 0.54327 19.652 6.1893 27.578 11.943 17.047 35.396 22.041 52.334 11.292l29.859-19c8.1433-5.1031 13.789-13.464 15.417-22.91 1.4115-7.9261 0.21744-16.069-3.5828-23.127 2.6059-3.9088 4.3428-8.2519 5.1028-12.812 1.8458-9.7719-0.43469-19.761-6.1893-27.687-7.7666-11.187-20.583-17.183-33.263-16.946zm1.9404 14.561c7.5153 0.1284 14.644 3.8401 19.055 10.202 3.4745 4.7774 4.7768 10.749 3.7996 16.612-0.21715 0.9772-0.43369 1.8461-0.75942 2.8233l-0.54262 1.7369-1.5201-1.0852c-3.583-2.6059-7.4924-4.5605-11.727-5.8635l-1.0852-0.32582 0.1078-1.0852c0.10857-1.5201-0.32564-3.1495-1.1943-4.4524-1.7372-2.4973-4.7778-3.5822-7.7093-2.8221-0.65146 0.21715-1.3018 0.43369-1.8447 0.75943l-29.751 19.001c-1.5201 0.9772-2.4976 2.3881-2.8233 4.1254-0.32573 1.7372 0.10926 3.5835 1.0865 4.995 1.7372 2.4973 4.7778 3.5834 7.7093 2.8233 0.65146-0.21715 1.303-0.43491 1.8459-0.76064l11.4-7.2745c1.8458-1.1944 3.9087-2.0629 6.0803-2.7143 9.6634-2.4973 19.762 1.3029 25.408 9.4462 3.4745 4.7774 4.7768 10.749 3.7996 16.612-0.97719 5.646-4.4512 10.749-9.3372 13.79l-29.859 19.001c-1.8458 1.1943-3.9087 2.0628-6.0803 2.7143-9.6634 2.4973-19.762-1.3029-25.408-9.4462-3.4745-4.7774-4.7768-10.75-3.7996-16.613 0.21715-0.9772 0.43448-1.8449 0.65163-2.8221l0.54262-1.7381 1.5201 1.0865c3.583 2.6059 7.4912 4.5605 11.726 5.8635l1.0865 0.3246-0.10901 1.0865c-0.10858 1.5201 0.32564 3.1483 1.1943 4.4512 1.7372 2.4973 4.7778 3.6924 7.7093 2.9323 0.65146-0.21715 1.303-0.4349 1.8459-0.76064l29.75-19c1.5201-0.9772 2.4976-2.3894 2.8233-4.1266 0.32573-1.7372-0.10805-3.5835-1.0852-4.995-1.7372-2.4973-4.7778-3.5822-7.7093-2.8221-0.65146 0.21715-1.303 0.4337-1.8459 0.75943l-11.401 7.2745c-1.8458 1.1943-3.9087 2.0636-6.0803 2.6065-9.6634 2.4973-19.76-1.3029-25.406-9.4462-3.3659-4.7774-4.7775-10.75-3.6918-16.613 0.9772-5.646 4.4512-10.748 9.3372-13.788l29.859-19.001c1.8458-1.1943 3.9087-2.0629 6.0803-2.7143 2.1139-0.54628 4.2485-0.79174 6.3528-0.75579z" fill="#ff3c00" stroke-width="1.0858"/>
  </g>
 </g>
 <style type="text/css">.st0{fill:#FF3E00;}
	.st1{fill:#FFFFFF;}</style>
 <style type="text/css">.st0{fill:#FF3E00;}
	.st1{fill:#FFFFFF;}</style>
</svg>
