<?xml version="1.0" encoding="UTF-8" standalone="no"?>
<svg
   xmlns:dc="http://purl.org/dc/elements/1.1/"
   xmlns:cc="http://creativecommons.org/ns#"
   xmlns:rdf="http://www.w3.org/1999/02/22-rdf-syntax-ns#"
   xmlns:svg="http://www.w3.org/2000/svg"
   xmlns="http://www.w3.org/2000/svg"
   xmlns:sodipodi="http://sodipodi.sourceforge.net/DTD/sodipodi-0.dtd"
   xmlns:inkscape="http://www.inkscape.org/namespaces/inkscape"
   width="511.98801"
   height="511.98801"
   viewBox="0 0 135.4635 135.4635"
   version="1.1"
   id="svg8"
   inkscape:version="1.0 (4035a4fb49, 2020-05-01)"
   sodipodi:docname="tailwindss.svg">
  <defs
     id="defs2">
    <linearGradient
       id="a"
       gradientUnits="userSpaceOnUse"
       x1="27.5"
       y1="3"
       x2="152"
       y2="63.5">
      <stop
         offset=".1"
         stop-color="#76b3e1"
         id="stop1720" />
      <stop
         offset=".3"
         stop-color="#dcf2fd"
         id="stop1722" />
      <stop
         offset="1"
         stop-color="#76b3e1"
         id="stop1724" />
    </linearGradient>
    <linearGradient
       id="b"
       gradientUnits="userSpaceOnUse"
       x1="95.8"
       y1="32.6"
       x2="74"
       y2="105.2">
      <stop
         offset="0"
         stop-color="#76b3e1"
         id="stop1727" />
      <stop
         offset=".5"
         stop-color="#4377bb"
         id="stop1729" />
      <stop
         offset="1"
         stop-color="#1f3b77"
         id="stop1731" />
    </linearGradient>
    <linearGradient
       id="c"
       gradientUnits="userSpaceOnUse"
       x1="18.4"
       y1="64.2"
       x2="144.3"
       y2="149.8">
      <stop
         offset="0"
         stop-color="#315aa9"
         id="stop1734" />
      <stop
         offset=".5"
         stop-color="#518ac8"
         id="stop1736" />
      <stop
         offset="1"
         stop-color="#315aa9"
         id="stop1738" />
    </linearGradient>
    <linearGradient
       id="d"
       gradientUnits="userSpaceOnUse"
       x1="75.2"
       y1="74.5"
       x2="24.4"
       y2="260.8">
      <stop
         offset="0"
         stop-color="#4377bb"
         id="stop1741" />
      <stop
         offset=".5"
         stop-color="#1a336b"
         id="stop1743" />
      <stop
         offset="1"
         stop-color="#1a336b"
         id="stop1745" />
    </linearGradient>
  </defs>
  <sodipodi:namedview
     showborder="false"
     inkscape:pagecheckerboard="true"
     inkscape:window-maximized="1"
     inkscape:window-y="215"
     inkscape:window-x="1912"
     inkscape:window-height="987"
     inkscape:window-width="1680"
     units="px"
     fit-margin-bottom="0"
     fit-margin-right="0"
     fit-margin-left="0"
     fit-margin-top="0"
     showgrid="false"
     inkscape:document-rotation="0"
     inkscape:current-layer="layer1"
     inkscape:document-units="px"
     inkscape:cy="325.61295"
     inkscape:cx="-211.43181"
     inkscape:zoom="0.50778134"
     inkscape:pageshadow="2"
     inkscape:pageopacity="0.0"
     borderopacity="1.0"
     bordercolor="#666666"
     pagecolor="#ffffff"
     id="base" />
  <metadata
     id="metadata5">
    <rdf:RDF>
      <cc:Work
         rdf:about="">
        <dc:format>image/svg+xml</dc:format>
        <dc:type
           rdf:resource="http://purl.org/dc/dcmitype/StillImage" />
        <dc:title></dc:title>
      </cc:Work>
    </rdf:RDF>
  </metadata>
  <g
     transform="translate(-33.821726,-179.60998)"
     id="layer1"
     inkscape:groupmode="layer"
     inkscape:label="Layer 1">
    <g
       transform="translate(0,2.6458334)"
       id="space-bg">
      <g
         id="g952"
         transform="matrix(0.26458333,0,0,0.26458333,36.475351,173.65938)">
        <circle
           id="circle855"
           r="255.994"
           cy="268.48447"
           cx="245.96455"
           style="fill:#27536b" />
        <g
           id="g883">
	<polygon
   id="polygon857"
   points="141.735,129.496 189.935,124.168 141.735,118.839 136.407,70.638 131.078,118.839 82.878,124.168 131.078,129.496 136.407,177.696 "
   style="fill:#ffffff" />

	<polygon
   id="polygon859"
   points="367.206,280.689 404.202,276.599 367.206,272.509 363.115,235.512 359.026,272.509 322.029,276.599 359.026,280.689 363.115,317.685 "
   style="fill:#ffffff" />

	<polygon
   id="polygon861"
   points="164.145,364.432 192.881,361.256 164.145,358.079 160.968,329.343 157.79,358.079 129.055,361.256 157.79,364.432 160.968,393.168 "
   style="fill:#ffffff" />

	
		<rect
   id="rect863"
   height="10.362"
   width="10.362"
   style="fill:#ffffff"
   transform="matrix(-0.7071,-0.7071,0.7071,-0.7071,189.016,409.2328)"
   y="160.289"
   x="174.082" />

	
		<rect
   id="rect865"
   height="10.362"
   width="10.362"
   style="fill:#ffffff"
   transform="matrix(-0.7071,-0.7071,0.7071,-0.7071,213.0358,818.1921)"
   y="359.79401"
   x="270.79001" />

	
		<rect
   id="rect867"
   height="10.362"
   width="10.362"
   style="fill:#ffffff"
   transform="matrix(-0.7071,-0.7071,0.7071,-0.7071,585.3727,501.4503)"
   y="124.309"
   x="391.35901" />

	
		<rect
   id="rect869"
   height="10.362"
   width="10.362"
   style="fill:#ffffff"
   transform="matrix(-0.7071,-0.7071,0.7071,-0.7071,361.9863,506.8415)"
   y="173.27"
   x="280.78201" />

	
		<rect
   id="rect871"
   height="10.362"
   width="10.362"
   style="fill:#ffffff"
   transform="matrix(-0.7071,-0.7071,0.7071,-0.7071,591.0331,693.6425)"
   y="219.233"
   x="433.99301" />

	
		<rect
   id="rect873"
   height="10.362"
   width="10.362"
   style="fill:#ffffff"
   transform="matrix(-0.7071,-0.7071,0.7071,-0.7071,560.2817,365.8286)"
   y="61.695"
   x="350.72501" />

	
		<rect
   id="rect875"
   height="10.362"
   width="10.362"
   style="fill:#ffffff"
   transform="matrix(-0.7071,-0.7071,0.7071,-0.7071,-136.1037,712.2148)"
   y="379.11401"
   x="74.271004" />

	
		<rect
   id="rect877"
   height="10.362"
   width="10.362"
   style="fill:#ffffff"
   transform="matrix(-0.7071,-0.7071,0.7071,-0.7071,418.2628,239.0482)"
   y="27.718"
   x="253.459" />

	
		<rect
   id="rect879"
   height="10.362"
   width="10.362"
   style="fill:#ffffff"
   transform="matrix(-0.7071,-0.7071,0.7071,-0.7071,290.207,1050.0205)"
   y="459.72501"
   x="357.38901" />

	
		<rect
   id="rect881"
   height="10.362"
   width="10.362"
   style="fill:#ffffff"
   transform="matrix(-0.7071,-0.7071,0.7071,-0.7071,3.8946,290.5735)"
   y="139.299"
   x="56.945999" />

</g>
        <g
           id="g885">
</g>
        <g
           id="g887">
</g>
        <g
           id="g889">
</g>
        <g
           id="g891">
</g>
        <g
           id="g893">
</g>
        <g
           id="g895">
</g>
        <g
           id="g897">
</g>
        <g
           id="g899">
</g>
        <g
           id="g901">
</g>
        <g
           id="g903">
</g>
        <g
           id="g905">
</g>
        <g
           id="g907">
</g>
        <g
           id="g909">
</g>
        <g
           id="g911">
</g>
        <g
           id="g913">
</g>
      </g>
    </g>
    <g
       style="fill:#14c4b8;fill-opacity:1"
       transform="matrix(0.22918509,0,0,0.22918509,278.15359,118.82507)"
       id="g1699">
      <path
         d="m -770.55676,453.71374 c -47.57338,0 -77.30796,23.78739 -89.20096,71.36076 17.8402,-23.78738 38.65329,-32.70748 62.44067,-26.76028 13.57108,3.39242 23.27169,13.23937 34.00926,24.13722 17.49176,17.75517 37.7348,38.30344 81.952,38.30344 47.57337,0 77.30795,-23.78738 89.20094,-71.36076 -17.84018,23.78739 -38.65328,32.70748 -62.44067,26.76029 -13.57109,-3.39243 -23.27169,-13.23937 -34.00926,-24.13722 -17.49174,-17.75518 -37.73478,-38.30345 -81.95198,-38.30345 z m -89.20096,107.04114 c -47.57337,0 -77.30795,23.78739 -89.20095,71.36078 17.84019,-23.7874 38.65328,-32.70749 62.44067,-26.7603 13.57109,3.39243 23.27169,13.23937 34.00926,24.13722 17.49175,17.75519 37.73479,38.30346 81.95198,38.30346 47.57337,0 77.30796,-23.7874 89.20097,-71.36077 -17.8402,23.78738 -38.6533,32.70747 -62.44067,26.76028 -13.57111,-3.39243 -23.27171,-13.23937 -34.00926,-24.13722 -17.49176,-17.75517 -37.7348,-38.30345 -81.952,-38.30345 z"
         fill="url(#a)"
         id="path1836"
         style="fill:#14c4b8;fill-opacity:1;stroke-width:1.39376" />
    </g>
  </g>
  <style
     type="text/css"
     id="style1683">
	.st0{fill:#FF3E00;}
	.st1{fill:#FFFFFF;}
</style>
  <style
     type="text/css"
     id="style1702">
	.st0{fill:#FF3E00;}
	.st1{fill:#FFFFFF;}
</style>
</svg>
