<svg enable-background="new 0 0 511.989 511.989" version="1.1" viewBox="0 0 511.99 511.99" xmlns="http://www.w3.org/2000/svg">
 <circle cx="255.99" cy="255.99" r="255.99" fill="#27536B"/>
 <g fill="#fff">
  <polygon points="141.74 129.5 189.94 124.17 141.74 118.84 136.41 70.638 131.08 118.84 82.878 124.17 131.08 129.5 136.41 177.7"/>
  <polygon points="367.21 280.69 404.2 276.6 367.21 272.51 363.12 235.51 359.03 272.51 322.03 276.6 359.03 280.69 363.12 317.68"/>
  <polygon points="164.14 364.43 192.88 361.26 164.14 358.08 160.97 329.34 157.79 358.08 129.06 361.26 157.79 364.43 160.97 393.17"/>
  <rect transform="matrix(-.7071 -.7071 .7071 -.7071 189.02 409.23)" x="174.08" y="160.29" width="10.362" height="10.362"/>
  <rect transform="matrix(-.7071 -.7071 .7071 -.7071 213.04 818.19)" x="270.79" y="359.79" width="10.362" height="10.362"/>
  <rect transform="matrix(-.7071 -.7071 .7071 -.7071 585.37 501.45)" x="391.36" y="124.31" width="10.362" height="10.362"/>
  <rect transform="matrix(-.7071 -.7071 .7071 -.7071 361.99 506.84)" x="280.78" y="173.27" width="10.362" height="10.362"/>
  <rect transform="matrix(-.7071 -.7071 .7071 -.7071 591.03 693.64)" x="433.99" y="219.23" width="10.362" height="10.362"/>
  <rect transform="matrix(-.7071 -.7071 .7071 -.7071 560.28 365.83)" x="350.72" y="61.695" width="10.362" height="10.362"/>
  <rect transform="matrix(-.7071 -.7071 .7071 -.7071 -136.1 712.21)" x="74.271" y="379.11" width="10.362" height="10.362"/>
  <rect transform="matrix(-.7071 -.7071 .7071 -.7071 418.26 239.05)" x="253.46" y="27.718" width="10.362" height="10.362"/>
  <rect transform="matrix(-.7071 -.7071 .7071 -.7071 290.21 1050)" x="357.39" y="459.72" width="10.362" height="10.362"/>
  <rect transform="matrix(-.7071 -.7071 .7071 -.7071 3.8946 290.57)" x="56.946" y="139.3" width="10.362" height="10.362"/>
 </g>
 <g transform="matrix(.54259 0 0 .54259 117.43 111.8)">
  <circle cx="250" cy="250" r="250" fill-opacity=".46185"/>
  <path d="m269.46 385-147.46-103.25 86.384-33.697 126.4 88.503zm-38.427-270 147.46 103.25-86.384 33.697-126.4-88.503z" clip-rule="evenodd" fill="#fff" fill-opacity=".99598" fill-rule="evenodd"/>
 </g>
</svg>
