<svg height="640" width="1440" xmlns="http://www.w3.org/2000/svg" xmlns:xlink="http://www.w3.org/1999/xlink"><linearGradient id="a"><stop offset=".58" stop-opacity="0"/><stop offset="1"/></linearGradient><linearGradient id="b" gradientUnits="userSpaceOnUse" x1="793.5" x2="759.5" xlink:href="#a" y1="261.5" y2="149.5"/><linearGradient id="c" gradientUnits="userSpaceOnUse" x1="644.19" x2="645.54" xlink:href="#a" y1="398.02" y2="267.7"/><linearGradient id="d" gradientUnits="userSpaceOnUse" x1="547" x2="522.36" xlink:href="#a" y1="457.27" y2="342.85"/><g clip-rule="evenodd" fill-rule="evenodd" opacity=".15"><path d="m439.57 249.55a2149.47 2149.47 0 0 1 1193.87-182.45l-12.48 93.17a2055.46 2055.46 0 0 0 -1141.66 174.47l-454.24 211.86-39.73-85.2z" fill="url(#b)"/><path d="m272.3 266.93a2393.36 2393.36 0 0 1 1328.96 205.6l-44.42 94.78a2288.7 2288.7 0 0 0 -1270.84-196.61l-553.29 73.05-13.7-103.77z" fill="url(#c)" opacity=".56"/><path d="m195.26 416.13a2149.46 2149.46 0 0 1 1204.86-83.21l-20.13 91.82a2055.46 2055.46 0 0 0 -1152.17 79.56l-470.18 173.62-32.56-88.18 470.18-173.62z" fill="url(#d)"/></g><path d="m-258.15 719.56 1743.12-517.56 182.93 616.12-1743.1 517.56z" fill="#090b11"/></svg>