<svg xmlns="http://www.w3.org/2000/svg" xmlns:xlink="http://www.w3.org/1999/xlink" width="1440" height="640"><g opacity=".15"><path fill="url(#a)" d="M439.57 249.55A2149.47 2149.47 0 0 1 1633.44 67.1l-12.48 93.17A2055.46 2055.46 0 0 0 479.3 334.74L25.06 546.6l-39.73-85.2z"/><path fill="url(#b)" d="M272.3 265.93a2393.36 2393.36 0 0 1 1328.96 205.6l-44.42 94.78A2288.7 2288.7 0 0 0 286 369.7l-553.29 73.05-13.7-103.77z" opacity=".56"/><path fill="url(#c)" d="M195.26 416.13a2149.47 2149.47 0 0 1 1204.86-83.21l-20.13 91.82A2055.46 2055.46 0 0 0 227.82 504.3l-470.18 173.62-32.56-88.18 470.18-173.62z"/></g><path fill="#fff" d="M-258 718.56 1485.12 201l182.93 616.12-1743.11 517.56z"/><defs><linearGradient id="d"><stop offset=".58" stop-opacity="0"/><stop offset="1"/></linearGradient><linearGradient xlink:href="#d" id="a" x1="793.5" x2="759.5" y1="261.5" y2="149.5" gradientUnits="userSpaceOnUse"/><linearGradient xlink:href="#d" id="b" x1="644.19" x2="645.54" y1="397.02" y2="266.7" gradientUnits="userSpaceOnUse"/><linearGradient xlink:href="#d" id="c" x1="547" x2="522.36" y1="457.27" y2="342.85" gradientUnits="userSpaceOnUse"/></defs></svg>
