<svg enable-background="new 0 0 341.7 155.3" viewBox="0 0 341.7 155.3" xmlns="http://www.w3.org/2000/svg" xmlns:xlink="http://www.w3.org/1999/xlink"><defs><linearGradient id="a" gradientUnits="userSpaceOnUse" x1="27.513" x2="152.027" y1="3.551" y2="63.991"><stop offset=".118" stop-color="#bbbdbf"/><stop offset=".299" stop-color="#f1f1f2"/><stop offset="1" stop-color="#d0d2d3"/></linearGradient><linearGradient id="b" gradientUnits="userSpaceOnUse" x1="95.792" x2="73.994" y1="33.088" y2="105.748"><stop offset="0" stop-color="#bbbdbf"/><stop offset=".475" stop-color="#929497"/><stop offset="1" stop-color="#58595b"/></linearGradient><linearGradient id="c" gradientUnits="userSpaceOnUse" x1="18.417" x2="144.251" y1="64.728" y2="150.269"><stop offset="0" stop-color="#58595b"/><stop offset=".539" stop-color="#929497"/><stop offset="1" stop-color="#58595b"/></linearGradient><linearGradient id="d" gradientUnits="userSpaceOnUse" x1="75.248" x2="24.386" y1="75.009" y2="261.284"><stop offset="0" stop-color="#4377bb"/><stop offset="0" stop-color="#808184"/><stop offset=".475" stop-color="#404041"/><stop offset="1" stop-color="#231f20"/></linearGradient></defs><path d="m169.2 100.9s3.2 3.4 8.1 3.4c3.4 0 6.2-2 6.2-5.4 0-7.8-15.5-5.9-15.5-15.5 0-4.5 4-8.3 9.7-8.3 5.4 0 8.3 3 8.3 3l-1.5 2.6s-2.7-2.7-6.8-2.7c-4 0-6.5 2.6-6.6 5.3 0 7.4 15.5 5.3 15.5 15.5 0 4.6-3.6 8.4-9.4 8.4-6.4 0-9.8-4-9.8-4zm49.1-25.6c8.8 0 15.8 7 15.8 15.9.1 8.8-7 16.1-15.8 16.2h-.1c-8.8-.1-15.9-7.4-15.8-16.2v-.1c.1-8.9 7.1-15.9 15.9-15.8zm-.1 29.3c7.2-.2 12.9-6.1 12.7-13.3v-.1c0-7.4-5.6-13.1-12.6-13.1s-12.7 5.6-12.7 13c0 7.6 5.6 13.4 12.6 13.5zm33.9-28.7h3l-.1 28.3h14.4v2.7h-17.5zm33.9.1h3l-.1 31.1h-3zm23.2 0h10c9.3 0 15.6 5.7 15.6 15.6s-6.3 15.5-15.6 15.5h-10zm9.6 28.4c7.6 0 12.7-4.5 12.8-12.8 0-8.3-5.1-12.8-12.7-12.8h-6.7l-.1 25.6z" fill="#fff"/><path d="m163 35.8s-52.7-39.8-93.6-30.5c-1.2.3-2.5.6-3.6 1-6.3 2-11 5.5-13.9 9.7-.6.8-1 1.7-1.5 2.5l-15.1 25.7 26.1 5.1c10.3 7.4 24.8 10.5 37.2 7.3l46.5 9.1z" fill="#bbbdbf"/><path d="m163 35.8s-52.7-39.8-93.6-30.5c-1.2.3-2.5.6-3.6 1-6.3 2-11 5.5-13.9 9.7-.6.8-1 1.7-1.5 2.5l-15.1 25.7 26.1 5.1c10.3 7.4 24.8 10.5 37.2 7.3l46.5 9.1z" fill="url(#a)" opacity=".29"/><path d="m51.5 35.3c-1.2.3-2.5.6-3.6 1-16.7 5.4-22.4 21-12.8 34.7s30.9 20.4 47.6 15l62.3-20.2s-52.6-39.8-93.5-30.5z" fill="#929497"/><path d="m51.5 35.3c-1.2.3-2.5.6-3.6 1-16.7 5.4-22.4 21-12.8 34.7s30.9 20.4 47.6 15l62.3-20.2s-52.6-39.8-93.5-30.5z" fill="url(#b)" opacity=".34"/><path d="m133.6 80.3c-9.6-13.7-30.9-20.5-47.6-15.1l-62.4 20.2-19.6 35 111.6 19.1 20-35.6c4-7 3.6-15.6-2-23.6z" fill="url(#c)"/><path d="m114 115.2c-9.6-13.7-30.9-20.5-47.6-15.1l-62.4 20.3s52.7 39.8 93.6 30.5c1.2-.3 2.5-.6 3.6-1 16.7-5.4 22.4-21 12.8-34.7z" fill="url(#d)"/></svg>