<?xml version="1.0" encoding="iso-8859-1"?>
<!-- Generator: Adobe Illustrator 19.0.0, SVG Export Plug-In . SVG Version: 6.00 Build 0)  -->
<svg xmlns="http://www.w3.org/2000/svg" xmlns:xlink="http://www.w3.org/1999/xlink" version="1.1" id="Capa_1" x="0px" y="0px" viewBox="0 0 512 512" style="enable-background:new 0 0 512 512;" xml:space="preserve">
<circle style="fill:#27536B;" cx="256" cy="255.992" r="255.992"/>
<g>
	<polygon style="fill:#FFFFFF;" points="389.537,79.758 437.736,74.429 389.537,69.101 384.208,20.902 378.88,69.101 330.68,74.429    378.88,79.758 384.208,127.957  "/>
	<polygon style="fill:#FFFFFF;" points="52.768,204.189 90.921,199.972 52.768,195.754 48.551,157.601 44.333,195.754    6.181,199.972 44.333,204.189 48.551,242.341  "/>
	
		<rect x="93.554" y="131.204" transform="matrix(-0.7071 -0.7071 0.7071 -0.7071 72.113 302.6407)" style="fill:#FFFFFF;" width="10.362" height="10.362"/>
	
		<rect x="184.623" y="57.398" transform="matrix(-0.7071 -0.7071 0.7071 -0.7071 279.765 241.0413)" style="fill:#FFFFFF;" width="10.362" height="10.362"/>
	
		<rect x="472.173" y="235.57" transform="matrix(-0.7071 -0.7071 0.7071 -0.7071 644.6574 748.5283)" style="fill:#FFFFFF;" width="10.362" height="10.362"/>
	
		<rect x="433.55" y="115.657" transform="matrix(-0.7071 -0.7071 0.7071 -0.7071 663.5145 516.5136)" style="fill:#FFFFFF;" width="10.362" height="10.362"/>
	
		<rect x="14.939" y="272.66" transform="matrix(-0.7071 -0.7071 0.7071 -0.7071 -162.1165 488.5326)" style="fill:#FFFFFF;" width="10.362" height="10.362"/>
</g>
<path style="fill:#FCD57E;" d="M470.3,324.214c0,21.851-3.264,42.936-9.349,62.788c-3.786,12.402-8.671,24.327-14.556,35.652v0.011  c-1.932,3.742-3.975,7.417-6.118,11.014l-0.056,0.055c-7.439,7.706-15.356,14.956-23.705,21.684  c-13.279,10.703-27.658,20.119-42.924,28.035c-0.011,0.011-0.022,0.011-0.033,0.022c-0.433,0.222-0.855,0.444-1.288,0.655  c-7.772,3.964-15.766,7.539-23.96,10.714H348.3c-2.543,0.988-5.096,1.932-7.672,2.831c-3.042,1.066-6.107,2.076-9.193,3.02  C307.585,508.047,282.259,512,256,512c-38.65,0-75.29-8.56-108.144-23.905c-23.272-10.859-44.623-25.115-63.454-42.114l-0.011-0.011  c-4.341-3.93-8.538-7.994-12.602-12.202c0,0,0-0.011-0.011-0.011c-19.097-32.055-30.067-69.516-30.067-109.543  c0-32.388,7.184-63.11,20.063-90.645c5.574-11.925,12.213-23.261,19.808-33.875c8.139-11.381,17.376-21.94,27.547-31.522  c9.127-8.594,19.008-16.388,29.534-23.294c33.698-22.095,74.013-34.952,117.337-34.952C374.359,109.925,470.3,205.866,470.3,324.214  z"/>
<path style="fill:#E8C172;" d="M416.514,455.414c-43.902,35.397-99.739,56.581-160.517,56.581c-72.325,0-137.656-30-184.211-78.232  l-0.011-0.011c-15.156-25.437-25.193-54.272-28.679-85.094c-0.622-5.374-1.033-10.803-1.244-16.288  c-0.1-2.709-0.155-5.429-0.155-8.161c0-9.504,0.622-18.864,1.821-28.035c1.71-13.102,4.597-25.826,8.56-38.061  c14.734-45.456,44.235-84.261,82.862-110.753c-11.503,16.755-20.674,35.23-27.069,54.96c-3.964,12.236-6.851,24.96-8.56,38.061  c-1.199,9.171-1.821,18.531-1.821,28.035c0,2.731,0.056,5.452,0.155,8.161c1.732,46.233,18.109,88.736,44.634,122.966  c17.132,22.106,38.483,40.77,62.854,54.783c31.411,18.054,67.829,28.379,106.656,28.379  C349.818,482.706,385.547,472.791,416.514,455.414z"/>
<ellipse transform="matrix(-0.7071 -0.7071 0.7071 -0.7071 464.8521 602.9937)" style="fill:#FCDFA7;" cx="357.31" cy="205.223" rx="40.801" ry="24.148"/>
<g>
	<path style="fill:#E8C172;" d="M446.395,422.654v0.011c-1.932,3.742-3.975,7.417-6.118,11.014l-0.056,0.055   c-7.439,7.706-15.356,14.956-23.705,21.684c-13.279,10.703-27.658,20.119-42.924,28.035c-0.011,0.011-0.022,0.011-0.033,0.022   c-0.433,0.222-0.855,0.444-1.288,0.655c-7.772,3.964-15.766,7.539-23.96,10.714H348.3c-2.543,0.988-5.096,1.932-7.672,2.831   l-56.348-79.176c-6.395-8.982-9.46-19.319-9.46-29.556c0-15.966,7.461-31.699,21.462-41.67   c22.983-16.355,54.871-10.981,71.226,12.002l6.44,9.049c0,0,21.951-15.9,38.616-15.9   C446.262,352.427,450.914,387.335,446.395,422.654z"/>
	
		<ellipse transform="matrix(-0.5 -0.866 0.866 -0.5 -44.9622 595.4305)" style="fill:#E8C172;" cx="149.402" cy="310.695" rx="18.875" ry="13.379"/>
	
		<ellipse transform="matrix(-0.7071 -0.7071 0.7071 -0.7071 516.6399 732.6769)" style="fill:#E8C172;" cx="410.062" cy="259.339" rx="18.875" ry="12.768"/>
	
		<ellipse transform="matrix(-0.7071 -0.7071 0.7071 -0.7071 349.6585 708.043)" style="fill:#E8C172;" cx="321.47" cy="281.605" rx="9.438" ry="12.768"/>
	
		<ellipse transform="matrix(-0.9188 0.3948 -0.3948 -0.9188 566.3309 620.3124)" style="fill:#E8C172;" cx="219.351" cy="368.418" rx="9.438" ry="12.769"/>
	
		<ellipse transform="matrix(-0.8316 0.5554 -0.5554 -0.8316 478.9872 254.0811)" style="fill:#E8C172;" cx="200.971" cy="199.662" rx="9.438" ry="12.769"/>
</g>
<g>
</g>
<g>
</g>
<g>
</g>
<g>
</g>
<g>
</g>
<g>
</g>
<g>
</g>
<g>
</g>
<g>
</g>
<g>
</g>
<g>
</g>
<g>
</g>
<g>
</g>
<g>
</g>
<g>
</g>
</svg>
