<?xml version="1.0" encoding="iso-8859-1"?>
<!-- Generator: Adobe Illustrator 19.0.0, SVG Export Plug-In . SVG Version: 6.00 Build 0)  -->
<svg xmlns="http://www.w3.org/2000/svg" xmlns:xlink="http://www.w3.org/1999/xlink" version="1.1" id="Capa_1" x="0px" y="0px" viewBox="0 0 512 512" style="enable-background:new 0 0 512 512;" xml:space="preserve">
<circle style="fill:#27536B;" cx="256" cy="255.992" r="255.992"/>
<g>
	<polygon style="fill:#FFFFFF;" points="108.314,89.304 156.513,83.976 108.314,78.647 102.985,30.448 97.657,78.647 49.456,83.976    97.657,89.304 102.985,137.504  "/>
	<polygon style="fill:#FFFFFF;" points="407.716,151.928 455.916,146.599 407.716,141.271 402.387,93.071 397.059,141.271    348.859,146.599 397.059,151.928 402.387,200.127  "/>
	
		<rect x="277.989" y="65.13" transform="matrix(-0.7071 -0.7071 0.7071 -0.7071 433.6844 320.26)" style="fill:#FFFFFF;" width="10.362" height="10.362"/>
	
		<rect x="52.898" y="180.055" transform="matrix(-0.7071 -0.7071 0.7071 -0.7071 -31.8343 357.2861)" style="fill:#FFFFFF;" width="10.362" height="10.362"/>
	
		<rect x="466.287" y="211.139" transform="matrix(-0.7071 -0.7071 0.7071 -0.7071 651.8843 702.6599)" style="fill:#FFFFFF;" width="10.362" height="10.362"/>
	
		<rect x="24.174" y="257.115" transform="matrix(-0.7071 -0.7071 0.7071 -0.7071 -135.3589 468.5245)" style="fill:#FFFFFF;" width="10.362" height="10.362"/>
	
		<rect x="342.606" y="47.282" transform="matrix(-0.7071 -0.7071 0.7071 -0.7071 556.6121 335.4826)" style="fill:#FFFFFF;" width="10.362" height="10.362"/>
</g>
<path style="fill:#5289E2;" d="M470.298,324.214c0,39.993-10.948,77.422-30.023,109.465c-0.022,0.022-0.033,0.033-0.056,0.055  c-7.439,7.706-15.356,14.956-23.705,21.684c-13.279,10.703-27.658,20.119-42.924,28.035c-0.011,0.011-0.022,0.011-0.033,0.022  c-0.433,0.222-0.855,0.444-1.288,0.655c-7.772,3.964-15.766,7.539-23.96,10.714h-0.011c-5.529,2.143-11.159,4.097-16.866,5.851  C307.583,508.047,282.256,512,255.998,512c-38.65,0-75.29-8.56-108.144-23.905c-23.272-10.859-44.623-25.115-63.454-42.114  l-0.011-0.011c-4.341-3.93-8.538-7.994-12.602-12.202c0,0,0-0.011-0.011-0.011c-19.097-32.055-30.067-69.516-30.067-109.543  c0-32.388,7.184-63.11,20.063-90.645c5.574-11.925,12.213-23.261,19.808-33.875c8.139-11.381,17.376-21.94,27.547-31.522  c9.127-8.594,19.008-16.388,29.534-23.294c33.698-22.095,74.013-34.952,117.337-34.952  C374.356,109.925,470.298,205.866,470.298,324.214z"/>
<path style="fill:#457CCE;" d="M416.514,455.414c-43.902,35.397-99.739,56.581-160.517,56.581c-72.325,0-137.656-30-184.211-78.232  l-0.011-0.011c-15.156-25.437-25.193-54.272-28.679-85.094c-0.622-5.374-1.033-10.803-1.244-16.288  c-0.1-2.709-0.155-5.429-0.155-8.161c0-9.504,0.622-18.864,1.821-28.035c1.71-13.102,4.597-25.826,8.56-38.061  c14.734-45.456,44.235-84.261,82.862-110.753c-11.503,16.755-20.674,35.23-27.069,54.96c-3.964,12.236-6.851,24.96-8.56,38.061  c-1.199,9.171-1.821,18.531-1.821,28.035c0,2.731,0.056,5.452,0.155,8.161c1.732,46.233,18.109,88.736,44.634,122.966  c17.132,22.106,38.483,40.77,62.854,54.783c31.411,18.054,67.829,28.379,106.656,28.379  C349.818,482.706,385.547,472.791,416.514,455.414z"/>
<path style="fill:#639AEA;" d="M461.237,262.399v0.022c-27.191,57.891-104.669-23.749-181.546-42.358s-17.454,43.024-73.28,57.736  c-42.625,11.236-81.93-3.298-108.721-18.731c-21.818-12.58-35.341-25.748-35.641-26.092c16.31-34.608,41.603-64.153,72.881-85.594  c34.442-23.638,76.145-37.462,121.068-37.462C352.86,109.92,434.712,174.185,461.237,262.399z"/>
<path style="fill:#497FCE;" d="M462.536,381.568c-5.118,18.498-12.657,35.985-22.262,52.107c-0.022,0.022-0.033,0.033-0.055,0.056  c-7.439,7.706-15.356,14.956-23.705,21.684c-13.279,10.703-27.658,20.119-42.924,28.035c-0.011,0.011-0.022,0.011-0.033,0.022  c-8.172,4.219-16.599,8.016-25.248,11.37h-0.011c-28.635,11.081-59.757,17.154-92.3,17.154c-38.65,0-75.29-8.56-108.144-23.905  c-23.272-10.859-44.623-25.115-63.454-42.114l-0.011-0.011c-4.341-3.931-8.538-7.994-12.602-12.202c0,0,0-0.011-0.011-0.011  c0,0-4.186-62.222,45.323-75.69c5.996-1.632,12.791-2.543,20.474-2.543c71.06,0,68.162,43.613,148.104,43.613  s27.325-45.833,87.281-45.833C404.034,353.299,437.51,363.448,462.536,381.568z"/>
<path style="fill:#5895DD;" d="M97.689,259.068c-21.818-12.58-35.341-25.748-35.641-26.092  c16.31-34.608,41.603-64.154,72.881-85.594c-11.503,16.743-20.663,35.219-27.058,54.938c-3.964,12.236-6.851,24.96-8.56,38.061  C98.511,246.532,97.967,252.761,97.689,259.068z"/>
<path style="fill:#4079BF;" d="M416.514,455.414c-13.279,10.703-27.658,20.119-42.924,28.035c-0.011,0.011-0.022,0.011-0.033,0.022  c-8.172,4.219-16.599,8.016-25.248,11.37h-0.011c-28.635,11.081-59.757,17.154-92.3,17.154c-38.65,0-75.29-8.56-108.144-23.905  c-23.272-10.859-44.623-25.115-63.454-42.114l-0.011-0.011c-4.341-3.931-8.538-7.994-12.602-12.202c0,0,0-0.011-0.011-0.011  c0,0-4.186-62.222,45.323-75.69c6.828,14.823,15.3,28.724,25.182,41.481c17.132,22.106,38.483,40.77,62.854,54.783  c31.411,18.054,67.829,28.379,106.656,28.379C349.818,482.706,385.547,472.791,416.514,455.414z"/>
<ellipse transform="matrix(-0.7071 -0.7071 0.7071 -0.7071 476.8402 599.7514)" style="fill:#7BABEF;" cx="362.633" cy="201.119" rx="40.801" ry="24.148"/>
<g>
</g>
<g>
</g>
<g>
</g>
<g>
</g>
<g>
</g>
<g>
</g>
<g>
</g>
<g>
</g>
<g>
</g>
<g>
</g>
<g>
</g>
<g>
</g>
<g>
</g>
<g>
</g>
<g>
</g>
</svg>
