<?xml version="1.0" encoding="iso-8859-1"?>
<!-- Generator: Adobe Illustrator 19.0.0, SVG Export Plug-In . SVG Version: 6.00 Build 0)  -->
<svg xmlns="http://www.w3.org/2000/svg" xmlns:xlink="http://www.w3.org/1999/xlink" version="1.1" id="Capa_1" x="0px" y="0px" viewBox="0 0 512 512" style="enable-background:new 0 0 512 512;" xml:space="preserve">
<circle style="fill:#27536B;" cx="256" cy="255.992" r="255.992"/>
<g>
	<polygon style="fill:#FFFFFF;" points="203.768,85.669 251.967,80.341 203.768,75.012 198.439,26.813 193.111,75.012    144.91,80.341 193.111,85.669 198.439,133.869  "/>
	<polygon style="fill:#FFFFFF;" points="431.689,172.731 479.889,167.403 431.689,162.075 426.36,113.875 421.031,162.075    372.832,167.403 421.031,172.731 426.36,220.931  "/>
</g>
<path style="fill:#F9B55A;" d="M470.298,324.214c0,39.993-10.948,77.422-30.023,109.465c-0.022,0.022-0.033,0.033-0.056,0.055  c-7.439,7.706-15.356,14.956-23.705,21.684c-13.279,10.703-27.658,20.119-42.924,28.035c-0.011,0.011-0.022,0.011-0.033,0.022  c-0.433,0.222-0.855,0.444-1.288,0.655c-7.772,3.964-15.766,7.539-23.96,10.714h-0.011c-5.529,2.143-11.159,4.097-16.866,5.851  C307.583,508.047,282.256,512,255.998,512c-38.65,0-75.29-8.56-108.144-23.905c-23.272-10.859-44.623-25.115-63.454-42.114  l-0.011-0.011c-4.341-3.93-8.538-7.994-12.602-12.202c0,0,0-0.011-0.011-0.011c-19.097-32.055-30.067-69.516-30.067-109.543  c0-32.388,7.184-63.11,20.063-90.645c5.574-11.925,12.213-23.261,19.808-33.875c8.139-11.381,17.376-21.94,27.547-31.522  c9.127-8.594,19.008-16.388,29.534-23.294c33.698-22.095,74.013-34.952,117.337-34.952  C374.356,109.925,470.298,205.866,470.298,324.214z"/>
<ellipse transform="matrix(-0.7071 -0.7071 0.7071 -0.7071 482.3139 602.033)" style="fill:#F9C280;" cx="365.842" cy="201.126" rx="40.801" ry="24.148"/>
<g>
	<path style="fill:#EFAA56;" d="M208.588,346.02C152.884,290.316,107.139,237.01,81.58,199.693   c-7.594,10.615-14.234,21.951-19.808,33.875c32.499,42.336,74.135,89.679,121.856,137.412   c51.663,51.663,102.881,96.197,147.804,129.717c5.707-1.754,11.336-3.708,16.866-5.851h0.011   c8.194-3.175,16.188-6.751,23.96-10.714C335.407,462.525,273.629,411.073,208.588,346.02z"/>
	<path style="fill:#EFAA56;" d="M416.514,455.414c-43.902,35.397-99.739,56.581-160.517,56.581c-72.325,0-137.656-30-184.211-78.232   l-0.011-0.011c-15.156-25.437-25.193-54.272-28.679-85.094c-0.622-5.374-1.033-10.803-1.244-16.288   c-0.1-2.709-0.155-5.429-0.155-8.161c0-9.504,0.622-18.864,1.821-28.035c1.71-13.102,4.597-25.826,8.56-38.061   c14.734-45.456,44.235-84.261,82.862-110.753c-11.503,16.755-20.674,35.23-27.069,54.96c-3.964,12.236-6.851,24.96-8.56,38.061   c-1.199,9.171-1.821,18.531-1.821,28.035c0,2.731,0.056,5.452,0.155,8.161c1.732,46.233,18.109,88.736,44.634,122.966   c17.132,22.106,38.483,40.77,62.854,54.783c31.411,18.054,67.829,28.379,106.656,28.379   C349.818,482.706,385.547,472.791,416.514,455.414z"/>
</g>
<path style="fill:#B27A38;" d="M231.393,323.215c-56.925-56.925-103.447-111.342-128.662-148.759  c-16.877-25.026-24.216-42.447-18.764-47.899c5.674-5.674,24.282,2.498,50.941,20.84c10.825-7.428,22.373-13.89,34.508-19.264  c-31.522-24.282-60.334-43.546-84.528-56.548C50.48,53.099,25.387,47.259,15.028,57.618c-16.988,16.988,9.56,73.524,63.954,145.783  c33.254,44.179,76.944,94.254,127.452,144.773c56.459,56.459,112.374,104.391,160.139,138.766c2.354-1.11,4.674-2.276,6.984-3.464  c0.011-0.011,0.022-0.011,0.033-0.022c10.193-5.285,19.986-11.236,29.312-17.787C367.406,447.314,301.287,393.12,231.393,323.215z"/>
<g>
	
		<rect x="25.386" y="221.05" transform="matrix(-0.7071 -0.7071 0.7071 -0.7071 -107.7884 407.8155)" style="fill:#FFFFFF;" width="10.362" height="10.362"/>
	
		<rect x="485.587" y="298.638" transform="matrix(-0.7071 -0.7071 0.7071 -0.7071 622.961 865.6769)" style="fill:#FFFFFF;" width="10.362" height="10.362"/>
	
		<rect x="373.449" y="61.491" transform="matrix(-0.7071 -0.7071 0.7071 -0.7071 599.2169 381.5487)" style="fill:#FFFFFF;" width="10.362" height="10.362"/>
	
		<rect x="465.859" y="242.798" transform="matrix(-0.7071 -0.7071 0.7071 -0.7071 628.768 756.4025)" style="fill:#FFFFFF;" width="10.362" height="10.362"/>
</g>
<path style="fill:#A0672E;" d="M169.416,128.134c-12.136,5.374-23.683,11.836-34.508,19.264  c-26.658-18.342-45.267-26.514-50.941-20.84c17.121-17.121,9.427-39.916,0.922-54.971  C109.082,84.588,137.894,103.851,169.416,128.134z"/>
<g>
</g>
<g>
</g>
<g>
</g>
<g>
</g>
<g>
</g>
<g>
</g>
<g>
</g>
<g>
</g>
<g>
</g>
<g>
</g>
<g>
</g>
<g>
</g>
<g>
</g>
<g>
</g>
<g>
</g>
</svg>
