<?xml version="1.0" encoding="iso-8859-1"?>
<!-- Generator: Adobe Illustrator 19.0.0, SVG Export Plug-In . SVG Version: 6.00 Build 0)  -->
<svg xmlns="http://www.w3.org/2000/svg" xmlns:xlink="http://www.w3.org/1999/xlink" version="1.1" id="Capa_1" x="0px" y="0px" viewBox="0 0 512 512" style="enable-background:new 0 0 512 512;" xml:space="preserve">
<circle style="fill:#27536B;" cx="256" cy="255.994" r="255.994"/>
<polygon style="fill:#FFFFFF;" points="62.742,258.115 110.942,252.787 62.742,247.458 57.413,199.258 52.085,247.458   3.885,252.787 52.085,258.115 57.413,306.315 "/>
<path style="fill:#51BEE5;" d="M470.309,324.21c0,19.864-2.709,39.105-7.761,57.359c-5.119,18.498-12.658,35.985-22.262,52.107  c-0.022,0.022-0.033,0.033-0.056,0.056c-7.439,7.706-15.356,14.956-23.705,21.684c-12.269,9.893-25.482,18.687-39.472,26.215  c-1.144,0.611-2.298,1.221-3.453,1.821c-0.011,0.011-0.022,0.011-0.033,0.022c-2.842,1.466-5.729,2.887-8.638,4.253  c-5.429,2.554-10.97,4.93-16.61,7.117h-0.011c-28.635,11.081-59.757,17.154-92.301,17.154c-38.65,0-75.291-8.561-108.145-23.905  c-23.272-10.859-44.624-25.115-63.455-42.114l-0.011-0.011c-4.341-3.931-8.538-7.994-12.602-12.202c0,0,0-0.011-0.011-0.011  c-19.097-32.055-30.067-69.517-30.067-109.544c0-32.632,7.295-63.555,20.341-91.235c5.207-11.048,11.325-21.573,18.276-31.489  c2.343-3.375,4.797-6.673,7.339-9.893c13.846-17.554,30.378-32.888,48.976-45.39c3.531-2.365,7.128-4.63,10.803-6.784  c31.833-18.753,68.94-29.501,108.556-29.501c96.864,0,178.716,64.265,205.242,152.48  C467.144,281.962,470.309,302.714,470.309,324.21z"/>
<path style="fill:#3EAECC;" d="M416.524,455.418C372.622,490.815,316.784,512,256.006,512c-72.326,0-137.657-30.001-184.213-78.233  l-0.011-0.011c-15.156-25.437-25.193-54.272-28.679-85.095c-0.622-5.374-1.033-10.803-1.244-16.288  c-0.1-2.709-0.155-5.429-0.155-8.161c0-9.504,0.622-18.864,1.821-28.035c1.71-13.102,4.597-25.826,8.561-38.062  c14.734-45.456,44.235-84.262,82.863-110.754c-11.503,16.755-20.674,35.23-27.069,54.961c-3.964,12.236-6.851,24.96-8.561,38.062  c-1.199,9.171-1.821,18.531-1.821,28.035c0,2.731,0.056,5.452,0.155,8.161c1.732,46.234,18.109,88.736,44.635,122.967  c17.132,22.106,38.484,40.771,62.855,54.783c31.411,18.054,67.829,28.38,106.657,28.38  C349.827,482.71,385.557,472.795,416.524,455.418z"/>
<ellipse transform="matrix(-0.7071 -0.7071 0.7071 -0.7071 481.1859 642.4911)" style="fill:#7ADAF4;" cx="373.657" cy="221.589" rx="40.801" ry="24.148"/>
<g>
	<polygon style="fill:#FFFFFF;" points="383.624,88.599 431.824,83.27 383.624,77.942 378.296,29.742 372.967,77.942 324.766,83.27    372.967,88.599 378.296,136.799  "/>
	
		<rect x="167.928" y="77.346" transform="matrix(-0.7071 -0.7071 0.7071 -0.7071 237.161 263.2899)" style="fill:#FFFFFF;" width="10.362" height="10.362"/>
	
		<rect x="267.859" y="34.594" transform="matrix(-0.7071 -0.7071 0.7071 -0.7071 437.9842 260.9695)" style="fill:#FFFFFF;" width="10.362" height="10.362"/>
	
		<rect x="415.971" y="119.387" transform="matrix(-0.7071 -0.7071 0.7071 -0.7071 630.8688 510.451)" style="fill:#FFFFFF;" width="10.362" height="10.362"/>
	
		<rect x="485.608" y="299.921" transform="matrix(-0.7071 -0.7071 0.7071 -0.7071 622.0892 867.8818)" style="fill:#FFFFFF;" width="10.362" height="10.362"/>
	
		<rect x="38.689" y="179.349" transform="matrix(-0.7071 -0.7071 0.7071 -0.7071 -55.5906 346.0335)" style="fill:#FFFFFF;" width="10.362" height="10.362"/>
	
		<rect x="98.42" y="77.341" transform="matrix(-0.7071 -0.7071 0.7071 -0.7071 118.506 214.1315)" style="fill:#FFFFFF;" width="10.362" height="10.362"/>
</g>
<path style="fill:#268B9B;" d="M357.678,470.65c-42.836-26.081-93.311-67.33-142.154-116.161  c-48.832-48.843-90.08-99.318-116.161-142.154c-4.364-7.173-8.227-14.023-11.558-20.474c-0.044-0.089-0.089-0.178-0.133-0.266  c-14.956-29.024-19.253-50.075-11.359-57.97c2.609-2.62,6.662-3.897,11.969-3.897c11.17,0,27.869,5.674,48.365,16.477  c0.067,0.033,0.133,0.067,0.2,0.1c3.52-2.365,7.117-4.63,10.781-6.784c-0.056-0.033-0.122-0.067-0.178-0.1  c-29.723-16.444-63.51-29.135-78.988-13.646c-14.934,14.923-3.686,46.811,11.869,75.712c0.044,0.089,0.1,0.189,0.144,0.278  c3.031,5.607,6.218,11.103,9.404,16.344c26.514,43.569,68.351,94.788,117.793,144.23s100.661,91.268,144.23,117.793  c4.197,2.554,8.572,5.119,13.024,7.595c2.909-1.366,5.796-2.787,8.638-4.253c0.011-0.011,0.022-0.011,0.033-0.022  c1.155-0.6,2.309-1.21,3.453-1.821C370.924,478.433,364.462,474.78,357.678,470.65z"/>
<g>
</g>
<g>
</g>
<g>
</g>
<g>
</g>
<g>
</g>
<g>
</g>
<g>
</g>
<g>
</g>
<g>
</g>
<g>
</g>
<g>
</g>
<g>
</g>
<g>
</g>
<g>
</g>
<g>
</g>
</svg>
