<?xml version="1.0" encoding="iso-8859-1"?>
<!-- Generator: Adobe Illustrator 19.0.0, SVG Export Plug-In . SVG Version: 6.00 Build 0)  -->
<svg xmlns="http://www.w3.org/2000/svg" xmlns:xlink="http://www.w3.org/1999/xlink" version="1.1" id="Capa_1" x="0px" y="0px" viewBox="0 0 512 512" style="enable-background:new 0 0 512 512;" xml:space="preserve">
<path style="fill:#27536B;" d="M512,255.994c0,23.15-3.076,45.59-8.838,66.919c-14.412,53.351-45.623,99.795-87.615,133.293  c-12.869,10.282-26.747,19.331-41.459,26.992C338.757,501.596,298.597,512,256.006,512s-82.763-10.404-118.093-28.802  c-24.716-12.869-47.066-29.668-66.23-49.553c-29.49-30.589-51.441-68.495-62.844-110.732C3.076,301.584,0,279.145,0,255.994  C0,114.607,114.618,0,256.006,0C397.382,0,512,114.607,512,255.994z"/>
<rect x="254.917" y="153.501" style="fill:#B3B3B3;" width="14.236" height="40.038"/>
<path style="fill:#F9B55A;" d="M503.162,322.913c-14.412,53.351-45.623,99.795-87.615,133.293  c-12.869,10.282-26.747,19.331-41.459,26.992C338.757,501.596,298.597,512,256.006,512s-82.763-10.404-118.093-28.802  c-4.186-2.176-8.294-4.463-12.336-6.862c-4.752-2.82-9.404-5.796-13.946-8.905c-14.456-9.882-27.836-21.218-39.949-33.787  c-2.01-2.087-3.997-4.219-5.929-6.373C39.239,397.86,19.464,362.263,8.838,322.913c77.678-8.494,160.785-13.102,247.179-13.102  c35.297,0,70.05,0.766,104.114,2.265C409.418,314.219,457.239,317.883,503.162,322.913z"/>
<g>
	<polygon style="fill:#FFFFFF;" points="457.798,218.982 500.755,214.233 457.798,209.484 453.049,166.527 448.3,209.484    405.343,214.233 448.3,218.982 453.049,261.939  "/>
	<polygon style="fill:#FFFFFF;" points="53.955,260.257 89.974,256.275 53.955,252.294 49.973,216.274 45.99,252.294 9.972,256.275    45.99,260.257 49.973,296.277  "/>
</g>
<path style="fill:#EFAA56;" d="M360.131,312.077c0,0-207.052,30.467-248.5,155.355c-14.456-9.882-27.836-21.218-39.949-33.787  c-2.01-2.087-3.997-4.219-5.929-6.373C39.239,397.86,19.464,362.263,8.838,322.913c77.678-8.494,160.785-13.102,247.179-13.102  C291.314,309.811,326.066,310.578,360.131,312.077z"/>
<g>
	
		<rect x="389.633" y="131.013" transform="matrix(-0.7071 -0.7071 0.7071 -0.7071 577.687 511.6745)" style="fill:#FFFFFF;" width="10.362" height="10.362"/>
	
		<rect x="447.06" y="140.83" transform="matrix(-0.7071 -0.7071 0.7071 -0.7071 668.7774 569.0401)" style="fill:#FFFFFF;" width="10.362" height="10.362"/>
	
		<rect x="101.634" y="118.396" transform="matrix(-0.7071 -0.7071 0.7071 -0.7071 94.963 286.4897)" style="fill:#FFFFFF;" width="10.362" height="10.362"/>
	
		<rect x="338.263" y="37.719" transform="matrix(-0.7071 -0.7071 0.7071 -0.7071 555.9611 316.0877)" style="fill:#FFFFFF;" width="10.362" height="10.362"/>
	
		<rect x="177.588" y="45.779" transform="matrix(-0.7071 -0.7071 0.7071 -0.7071 275.972 216.231)" style="fill:#FFFFFF;" width="10.362" height="10.362"/>
</g>
<g>
	<path style="fill:#EFAA56;" d="M438.681,414.192c0-5.871-3.369-11.182-8.806-15.015c1.055,1.856,1.641,3.882,1.641,6.007   c0,8.868-10.118,16.057-22.599,16.057s-22.599-7.189-22.599-16.057c0-2.124,0.586-4.15,1.641-6.007   c-5.437,3.832-8.807,9.143-8.807,15.015c0,11.681,13.326,21.149,29.765,21.149S438.681,425.873,438.681,414.192z"/>
	<path style="fill:#EFAA56;" d="M328.258,353.933c0-3.582-2.055-6.823-5.373-9.16c0.644,1.133,1.002,2.368,1.002,3.665   c0,5.411-6.173,9.797-13.789,9.797s-13.789-4.387-13.789-9.797c0-1.296,0.358-2.533,1.001-3.665   c-3.318,2.338-5.373,5.578-5.373,9.161c0,7.126,8.131,12.903,18.16,12.903C320.127,366.837,328.258,361.06,328.258,353.933z"/>
	<path style="fill:#EFAA56;" d="M165.459,440.618c0,17.388-17.032,31.944-39.883,35.719c-19.852-11.78-37.973-26.17-53.895-42.692   c-2.01-2.087-3.997-4.219-5.929-6.373c2.643-4.808,6.673-9.127,11.736-12.691c-1.821,3.22-2.842,6.729-2.842,10.415   c0,15.378,17.543,27.847,39.194,27.847c21.64,0,39.183-12.469,39.183-27.847c0-3.686-1.01-7.195-2.842-10.415   C159.608,421.221,165.459,430.436,165.459,440.618z"/>
</g>
<path style="fill:#E6E6E6;" d="M393.438,322.025c0-75.905-61.533-137.438-137.438-137.438S118.562,246.12,118.562,322.025  l0.011,0.002C209.241,340.718,302.77,340.717,393.438,322.025L393.438,322.025z"/>
<path style="fill:#CCCCCC;" d="M278.896,186.496c-7.447-1.249-15.094-1.91-22.896-1.91c-75.905,0-137.438,61.533-137.438,137.438  l0.011,0.002c14.856,3.062,29.79,5.614,44.775,7.672C169.783,256.419,217.666,197.643,278.896,186.496z"/>
<path style="fill:#3EAFCE;" d="M338.164,268.416c0,15.633-10.437,28.313-23.317,28.313c-2.62,0-5.141-0.522-7.495-1.51  c-9.205-3.775-15.822-14.356-15.822-26.803c0-12.447,6.617-23.028,15.822-26.803c2.354-0.988,4.874-1.51,7.495-1.51  C327.727,240.102,338.164,252.782,338.164,268.416z"/>
<path style="fill:#51BEE5;" d="M323.175,268.416c0,12.447-6.617,23.028-15.822,26.803c-9.205-3.775-15.822-14.356-15.822-26.803  c0-12.447,6.617-23.028,15.822-26.803C316.558,245.388,323.175,255.969,323.175,268.416z"/>
<path style="fill:#B3B3B3;" d="M314.848,300.615c-15,0-27.203-14.444-27.203-32.199s12.202-32.199,27.203-32.199  c15,0,27.203,14.444,27.203,32.199S329.848,300.615,314.848,300.615z M314.848,243.989c-10.713,0-19.431,10.958-19.431,24.427  c0,13.469,8.717,24.427,19.431,24.427c10.713,0,19.431-10.958,19.431-24.427S325.562,243.989,314.848,243.989z"/>
<path style="fill:#E6E6E6;" d="M301.278,109.297c17.765,17.765,24.579,39.758,15.215,49.123c-0.092,0.092-0.18,0.18-0.272,0.264  c-9.512,8.969-37.915,8.778-55.515-8.817c-17.595-17.6-17.788-46.002-8.82-55.514c0.084-0.092,0.173-0.18,0.264-0.272  C261.515,84.718,283.509,91.529,301.278,109.297z M293.018,128.858c3.121-3.121,3.121-8.179,0-11.3  c-3.121-3.121-8.182-3.121-11.304,0c-3.121,3.121-3.121,8.179,0,11.3C284.835,131.979,289.896,131.979,293.018,128.858z"/>
<path style="fill:#B3B3B3;" d="M301.278,109.297c-17.768-17.768-39.763-24.579-49.126-15.215c-0.092,0.092-0.18,0.18-0.264,0.272  c-2.585,2.74-3.855,6.496-3.933,10.873c10.824-0.198,25.454,6.881,37.985,19.412c12.528,12.528,19.609,27.157,19.412,37.977  c4.377-0.081,8.13-1.351,10.87-3.933c0.092-0.084,0.18-0.173,0.272-0.264C325.857,149.057,319.043,127.062,301.278,109.297z"/>
<rect x="272.029" y="123.241" transform="matrix(-0.7071 -0.7072 0.7072 -0.7071 373.0861 426.1252)" style="fill:#666666;" width="5.552" height="25.091"/>
<circle style="fill:#F77759;" cx="287.361" cy="123.212" r="7.992"/>
<path style="fill:#C1533E;" d="M285.846,128.858c-3.121-3.121-3.121-8.179,0-11.3c1.03-1.029,2.273-1.712,3.585-2.063  c-2.666-0.712-5.627-0.029-7.719,2.063c-3.121,3.121-3.121,8.179,0,11.3c2.092,2.092,5.052,2.775,7.719,2.063  C288.119,130.57,286.877,129.888,285.846,128.858z"/>
<path style="fill:#F77759;" d="M267.366,143.205c17.6,17.595,39.343,24.448,48.855,15.48  c-11.279,11.107-26.702,15.395-41.007,12.813c-5.777-1.037-11.374-3.199-16.439-6.49c-2.589-1.672-5.036-3.643-7.3-5.908  c-1.661-1.661-3.167-3.424-4.511-5.265c-12.972-17.754-11.275-43.031,4.923-59.481C242.918,103.867,249.771,125.606,267.366,143.205  z"/>
<path style="fill:#C1533E;" d="M310.528,163.477c-10.478,7.506-23.291,10.189-35.315,8.02c-5.777-1.037-11.374-3.199-16.439-6.49  c-2.588-1.672-5.036-3.643-7.3-5.908c-1.661-1.661-3.167-3.424-4.511-5.266c-11.554-15.814-11.47-37.593,0.134-53.788  c-3.696,14.918-0.914,30.998,8.391,43.73c1.556,2.131,3.298,4.169,5.22,6.091c2.62,2.62,5.453,4.902,8.447,6.835  c5.858,3.809,12.333,6.31,19.021,7.509C295.549,165.541,303.177,165.294,310.528,163.477z"/>
<g>
</g>
<g>
</g>
<g>
</g>
<g>
</g>
<g>
</g>
<g>
</g>
<g>
</g>
<g>
</g>
<g>
</g>
<g>
</g>
<g>
</g>
<g>
</g>
<g>
</g>
<g>
</g>
<g>
</g>
</svg>
