<?xml version="1.0" encoding="iso-8859-1"?>
<!-- Generator: Adobe Illustrator 19.0.0, SVG Export Plug-In . SVG Version: 6.00 Build 0)  -->
<svg xmlns="http://www.w3.org/2000/svg" xmlns:xlink="http://www.w3.org/1999/xlink" version="1.1" id="Capa_1" x="0px" y="0px" viewBox="0 0 512 512" style="enable-background:new 0 0 512 512;" xml:space="preserve">
<path style="fill:#27536B;" d="M511.998,255.993c0,69.039-27.336,131.694-71.77,177.738c-7.439,7.706-15.356,14.956-23.705,21.684  c-13.279,10.703-27.658,20.119-42.925,28.035c-0.011,0.011-0.022,0.011-0.033,0.022c-8.172,4.219-16.599,8.016-25.248,11.37h-0.011  c-28.635,11.081-59.757,17.154-92.3,17.154c-38.65,0-75.29-8.56-108.144-23.905c-23.272-10.859-44.623-25.115-63.454-42.114  l-0.011-0.011c-4.341-3.93-8.538-7.994-12.602-12.202l-0.011-0.011c-44.446-46.045-71.781-108.71-71.781-177.76  c0-6.495,0.244-12.935,0.722-19.308C10.594,104.314,121.114,0,256.006,0c134.98,0,245.567,104.469,255.293,236.973  C511.765,243.258,511.998,249.597,511.998,255.993z"/>
<g>
	<polygon style="fill:#FFFFFF;" points="387.504,123.048 435.703,117.719 387.504,112.391 382.175,64.191 376.847,112.391    328.646,117.719 376.847,123.048 382.175,171.247  "/>
	<polygon style="fill:#FFFFFF;" points="72.176,140.366 120.376,135.038 72.176,129.71 66.848,81.51 61.519,129.71 13.319,135.038    61.519,140.366 66.848,188.566  "/>
	<polygon style="fill:#FFFFFF;" points="42.683,195.55 77.636,191.686 42.683,187.822 38.819,152.87 34.955,187.822 0.002,191.686    34.955,195.55 38.819,230.502  "/>
	
		<rect x="330.798" y="46.251" transform="matrix(-0.7071 -0.7071 0.7071 -0.7071 537.1839 325.374)" style="fill:#FFFFFF;" width="10.362" height="10.362"/>
	
		<rect x="268.625" y="77.778" transform="matrix(-0.7071 -0.7071 0.7071 -0.7071 408.7557 335.2311)" style="fill:#FFFFFF;" width="10.362" height="10.362"/>
	
		<rect x="6.376" y="254.438" transform="matrix(-0.7071 -0.7071 0.7071 -0.7071 -163.8492 451.369)" style="fill:#FFFFFF;" width="10.362" height="10.362"/>
	
		<rect x="472.254" y="255.545" transform="matrix(-0.7071 -0.7071 0.7071 -0.7071 630.6715 782.6857)" style="fill:#FFFFFF;" width="10.362" height="10.362"/>
	
		<rect x="191.344" y="40.322" transform="matrix(-0.7071 -0.7071 0.7071 -0.7071 303.3131 216.6436)" style="fill:#FFFFFF;" width="10.362" height="10.362"/>
</g>
<path style="fill:#FCD57E;" d="M470.3,324.213c0,10.359-0.734,20.552-2.165,30.522c-4.064,28.524-13.746,55.249-27.902,78.998  c-7.439,7.706-15.356,14.956-23.705,21.684C372.625,490.815,316.788,512,256.01,512c-72.337,0-137.667-30.001-184.222-78.243  c-0.167-0.278-0.334-0.555-0.489-0.833c-17.511-29.679-28.059-63.943-29.434-100.55c-0.101-2.71-0.155-5.429-0.155-8.161  c0-9.504,0.622-18.864,1.821-28.035c1.711-13.102,4.597-25.826,8.56-38.061c14.733-45.456,44.235-84.261,82.851-110.742l0.011-0.011  c34.443-23.616,76.133-37.44,121.057-37.44c11.747,0,23.26,0.944,34.485,2.765c25.037,4.053,48.61,12.424,69.938,24.36  c0.777,0.434,1.553,0.877,2.332,1.321c10.803,6.218,21.007,13.357,30.522,21.296c41.226,34.431,69.318,84.073,75.645,140.31  C469.844,307.925,470.3,316.019,470.3,324.213"/>
<path style="fill:#F9B55A;" d="M462.837,267.987C409.244,291.371,336.34,305.76,256.01,305.76  c-57.97,0-112.075-7.495-157.841-20.452c-17.665-4.996-34.088-10.814-49.01-17.321c0.9-3.331,1.878-6.617,2.932-9.871  c5.428-16.742,12.857-32.586,22.029-47.243c7.096,2.476,14.445,4.818,22.029,6.995c2.277,0.655,4.574,1.299,6.895,1.921  c18.077,4.908,37.407,8.971,57.715,12.08h0.021h0.012c29.9,4.552,61.922,7.027,95.22,7.027s65.319-2.476,95.22-7.027h0.011h0.022  c22.917-3.509,44.579-8.227,64.609-14.001c7.585-2.176,14.934-4.519,22.03-6.995C448.837,228.383,457.309,247.58,462.837,267.987"/>
<path style="fill:#B27A38;" d="M437.901,210.873c-7.096,2.476-14.445,4.818-22.03,6.995c-20.03,5.774-41.692,10.492-64.609,14.001  h-0.022h-0.011c-29.9,4.552-61.922,7.027-95.22,7.027s-65.319-2.476-95.22-7.027h-0.012h-0.021  c-20.308-3.109-39.638-7.173-57.715-12.08c-2.321-0.622-4.618-1.266-6.895-1.921c-7.583-2.176-14.933-4.519-22.029-6.995  c4.619-7.428,9.704-14.545,15.189-21.329h0.011c6.796,2.076,13.779,4.03,20.953,5.839c14.356,3.664,29.445,6.796,45.156,9.339h0.021  c31.411,5.096,65.264,7.872,100.561,7.872c35.296,0,69.149-2.776,100.561-7.872h0.011h0.021c23.55-3.819,45.723-8.938,66.097-15.178  C428.186,196.328,433.26,203.445,437.901,210.873"/>
<path style="fill:#FDE4AD;" d="M347.346,168.453c-5.089,0-9.519,1.509-12.689,4.68c-7.264,7.264-5.806,21.128,2.528,34.397  c6.557-0.838,13.021-1.775,19.385-2.808h0.011h0.021c11.764-1.908,23.182-4.139,34.205-6.674  c-2.635-4.509-6.067-8.982-10.225-13.141C370.008,174.332,357.392,168.453,347.346,168.453"/>
<path style="fill:#FBD096;" d="M396.532,222.99c-11.328,2.747-23.097,5.173-35.247,7.254c6.395,3.445,12.789,5.27,18.386,5.27  c5.089,0,9.519-1.509,12.69-4.68C394.474,228.72,395.85,226.046,396.532,222.99"/>
<path style="fill:#CEAA80;" d="M390.809,198.048c-11.023,2.534-22.442,4.765-34.205,6.674h-0.021h-0.011  c-6.365,1.033-12.828,1.97-19.385,2.808c2.486,3.959,5.586,7.867,9.248,11.528c4.684,4.684,9.77,8.447,14.853,11.186  c12.149-2.081,23.918-4.508,35.247-7.254C398.097,215.973,396.005,206.943,390.809,198.048"/>
<path style="fill:#E8C172;" d="M416.527,455.419C372.626,490.815,316.788,512,256.01,512c-72.337,0-137.667-30.001-184.222-78.243  c-0.167-0.278-0.333-0.555-0.489-0.833c-17.51-29.679-28.058-63.943-29.434-100.55c-0.1-2.709-0.155-5.429-0.155-8.161  c0-9.504,0.622-18.864,1.821-28.035c1.71-13.102,4.597-25.826,8.56-38.061c14.734-45.456,44.235-84.261,82.851-110.742  c-11.492,16.755-20.663,35.219-27.058,54.949c-3.964,12.236-6.851,24.96-8.56,38.061c-1.199,9.171-1.821,18.531-1.821,28.035  c0,2.731,0.056,5.452,0.155,8.161c1.732,46.233,18.109,88.736,44.634,122.967c17.132,22.106,38.483,40.771,62.855,54.783  c31.411,18.054,67.829,28.379,106.656,28.379C349.831,482.71,385.561,472.795,416.527,455.419z"/>
<path style="fill:#B27A38;" d="M470.3,324.213c0,10.359-0.733,20.552-2.165,30.522c-4.064,28.524-13.746,55.249-27.902,78.998  c-2.01,2.087-4.064,4.141-6.14,6.14c-49.686,16.777-111.32,26.714-178.082,26.714c-9.182,0-18.276-0.189-27.247-0.566  c-56.27-2.298-108.011-11.68-150.869-26.159c-2.076-1.999-4.108-4.03-6.107-6.107c-0.167-0.278-0.333-0.555-0.489-0.833  c-17.51-29.679-28.058-63.943-29.434-100.55c-0.1-2.709-0.155-5.429-0.155-8.161c0-1.266,0.011-2.52,0.033-3.775  c20.396,9.549,43.891,17.732,69.738,24.227c42.814,10.77,92.089,16.899,144.529,16.899c84.106,0,160.062-15.766,214.256-41.126  C470.288,321.693,470.3,322.948,470.3,324.213z"/>
<path style="fill:#F9B55A;" d="M434.092,439.874c-5.607,5.441-11.481,10.637-17.565,15.544  c-13.49,10.881-28.102,20.408-43.646,28.391c-35.885,6.939-75.39,10.77-116.871,10.77s-80.997-3.842-116.882-10.77  c-0.011,0-0.011,0-0.022,0c-22.561-11.603-43.169-26.459-61.211-43.946c42.858,14.478,94.598,23.861,150.869,26.159  c8.971,0.378,18.065,0.566,27.247,0.566C322.773,466.588,384.406,456.651,434.092,439.874z"/>
<path style="fill:#F29E3B;" d="M362.762,138.367c1.321,0.766,2.643,1.543,3.942,2.332c-34.22,6.207-71.582,9.615-110.698,9.615  c-39.127,0-76.478-3.409-110.709-9.615c32.31-19.541,70.194-30.778,110.709-30.778c11.747,0,23.261,0.944,34.486,2.765  c25.037,4.053,48.609,12.424,69.938,24.36C361.207,137.478,361.985,137.923,362.762,138.367z"/>
<path style="fill:#B27A38;" d="M372.877,483.806c-35.03,18.02-74.768,28.191-116.871,28.191c-42.114,0-81.841-10.17-116.882-28.191  c35.885,6.928,75.401,10.77,116.882,10.77S336.991,490.745,372.877,483.806z"/>
<g>
	<path style="fill:#EFAA56;" d="M98.168,285.308c-17.665-4.996-34.086-10.814-49.009-17.321c0.899-3.331,1.876-6.617,2.931-9.871   c5.429-16.743,12.857-32.588,22.029-47.244c7.095,2.476,14.445,4.819,22.029,6.995c2.276,0.655,4.574,1.299,6.895,1.921   c-1.566,6.74-2.809,13.612-3.72,20.596c-1.199,9.171-1.821,18.531-1.821,28.035c0,2.731,0.056,5.452,0.155,8.161   C97.769,279.501,97.935,282.41,98.168,285.308z"/>
	<path style="fill:#EFAA56;" d="M416.527,455.419c-13.49,10.881-28.102,20.408-43.646,28.391   c-35.885,6.939-75.39,10.77-116.871,10.77s-80.997-3.842-116.882-10.77c-0.011,0-0.011,0-0.022,0   c-22.561-11.603-43.169-26.459-61.211-43.946c42.858,14.478,94.598,23.861,150.869,26.159   c25.537,10.748,53.595,16.688,83.04,16.688C349.831,482.71,385.561,472.795,416.527,455.419z"/>
</g>
<g>
	<path style="fill:#A0672E;" d="M96.148,217.868c-7.583-2.176-14.934-4.519-22.029-6.995c4.619-7.428,9.704-14.545,15.189-21.329   h0.011c6.795,2.076,13.779,4.03,20.952,5.84c-0.833,2.298-1.632,4.608-2.387,6.939c-1.843,5.718-3.475,11.547-4.841,17.465   C100.722,219.167,98.424,218.523,96.148,217.868z"/>
	<path style="fill:#A0672E;" d="M228.763,466.022c-56.27-2.298-108.011-11.68-150.869-26.159c-2.076-1.999-4.108-4.03-6.107-6.107   c-0.167-0.278-0.333-0.555-0.489-0.833c-17.51-29.679-28.058-63.943-29.434-100.55c-0.1-2.709-0.155-5.429-0.155-8.161   c0-1.266,0.011-2.52,0.033-3.775c20.396,9.549,43.891,17.732,69.738,24.227c7.55,19.886,17.998,38.35,30.811,54.883   c17.132,22.106,38.483,40.771,62.855,54.783C212.741,458.694,220.624,462.602,228.763,466.022z"/>
</g>
<g>
</g>
<g>
</g>
<g>
</g>
<g>
</g>
<g>
</g>
<g>
</g>
<g>
</g>
<g>
</g>
<g>
</g>
<g>
</g>
<g>
</g>
<g>
</g>
<g>
</g>
<g>
</g>
<g>
</g>
</svg>
