<?xml version="1.0" encoding="iso-8859-1"?>
<!-- Generator: Adobe Illustrator 19.0.0, SVG Export Plug-In . SVG Version: 6.00 Build 0)  -->
<svg xmlns="http://www.w3.org/2000/svg" xmlns:xlink="http://www.w3.org/1999/xlink" version="1.1" id="Capa_1" x="0px" y="0px" viewBox="0 0 512 512" style="enable-background:new 0 0 512 512;" xml:space="preserve">
<path style="fill:#27536B;" d="M512,255.994c0,30.767-5.429,60.257-15.378,87.571c-28.235,77.6-92.956,137.679-173.409,159.519  c-10.926,2.965-22.14,5.23-33.598,6.729c-10.992,1.443-22.217,2.187-33.609,2.187c-11.392,0-22.606-0.744-33.609-2.187  c-11.458-1.499-22.673-3.764-33.609-6.729c-80.453-21.84-145.174-81.919-173.409-159.519C5.418,316.251,0,286.762,0,255.994  C0,114.607,114.618,0,256.006,0C397.382,0,512,114.607,512,255.994z"/>
<polygon style="fill:#FFFFFF;" points="351.49,376.153 399.69,370.824 351.49,365.496 346.162,317.296 340.834,365.496   292.634,370.824 340.834,376.153 346.162,424.353 "/>
<path style="fill:#A0672E;" d="M376.629,294.117c-1.378,13.153-8.205,24.814-18.138,32.644c-6.939,5.462-15.382,9.081-24.552,10.033  c-8.481,0.915-16.56-0.425-23.75-3.445c-3.282-1.366-6.689-2.142-10.134-2.329c-6.714-0.376-13.466,1.44-19.165,5.348  c-1.128,0.789-2.279,1.528-3.458,2.217c-13.278,8.18-29.225,12.401-46.222,11.099c-37.417-2.881-66.853-31.592-70.562-68.933  c-1.316-13.203,0.714-25.843,5.362-37.117c-15.432-12.062-24.902-31.391-23.211-52.861c2.267-28.736,25.053-52.286,53.663-55.492  c0.213-0.026,0.426-0.05,0.638-0.076c0.138-0.012,0.275-0.024,0.401-0.038c0.463-0.05,0.915-0.088,1.378-0.112  c0.413-0.038,0.827-0.063,1.228-0.076c0.313-0.026,0.614-0.038,0.927-0.05c0.301-0.013,0.602-0.026,0.889-0.026  c7.553-0.188,14.806,1.015,21.508,3.344c0.702,0.251,1.39,0.501,2.08,0.777c4.108,1.603,7.992,3.633,11.612,6.05  c7.954,5.324,17.988,6.088,26.644,1.992c10.985-5.199,23.4-7.879,36.502-7.29c38.519,1.765,70.299,32.531,73.204,70.999  c0.602,8.054-0.038,15.871-1.741,23.299c-3.044,13.091-1.679,26.731,2.643,39.458C376.529,279.9,377.394,286.865,376.629,294.117z"/>
<path style="fill:#B27A38;" d="M376.629,294.117c-1.378,13.153-8.205,24.814-18.138,32.644c-7.478,0.401-14.593-0.953-20.994-3.645  c-9.645-4.046-20.681-2.906-29.312,3.019c-2.593,1.791-5.324,3.432-8.13,4.885c-6.714-0.376-13.466,1.44-19.165,5.348  c-1.128,0.789-2.279,1.528-3.458,2.217c-6.088,1.051-12.439,1.353-18.928,0.864c-37.404-2.893-66.841-31.592-70.548-68.933  c-0.413-4.134-0.489-8.204-0.275-12.188c0.814-14.718-2.042-29.5-9.482-42.214c-6.026-10.309-9.119-22.547-8.092-35.575  c1.466-18.677,11.599-35.163,26.356-45.259c0.012-0.012,0.026-0.012,0.038-0.012c0.201-0.026,0.401-0.05,0.602-0.063  c0.138-0.012,0.275-0.024,0.401-0.038c0.463-0.05,0.915-0.088,1.378-0.112c0.413-0.038,0.827-0.063,1.228-0.076  c0.313-0.026,0.614-0.038,0.927-0.05c0.301-0.013,0.602-0.026,0.889-0.026c7.553-0.188,14.806,1.015,21.508,3.344  c0.702,0.251,1.39,0.501,2.08,0.777c4.108,1.603,7.992,3.633,11.612,6.05c7.954,5.324,17.988,6.088,26.644,1.992  c10.985-5.199,23.4-7.879,36.502-7.29c38.519,1.765,70.299,32.531,73.204,70.999c0.602,8.054-0.038,15.871-1.741,23.299  c-3.044,13.091-1.679,26.731,2.643,39.458C376.529,279.9,377.394,286.865,376.629,294.117z"/>
<g>
	<circle style="fill:#A0672E;" cx="298.764" cy="211.393" r="12.8"/>
	<circle style="fill:#A0672E;" cx="230.168" cy="259.281" r="12.8"/>
	<circle style="fill:#A0672E;" cx="236.841" cy="173.298" r="6.4"/>
	<circle style="fill:#A0672E;" cx="325.911" cy="245.247" r="6.4"/>
	<circle style="fill:#A0672E;" cx="332.173" cy="172.321" r="6.4"/>
	<circle style="fill:#A0672E;" cx="305.304" cy="283.93" r="12.8"/>
	<circle style="fill:#A0672E;" cx="230.168" cy="279.711" r="20.431"/>
</g>
<g>
	<polygon style="fill:#FFFFFF;" points="109.492,242.915 157.692,237.587 109.492,232.258 104.163,184.058 98.835,232.258    50.635,237.587 98.835,242.915 104.163,291.115  "/>
	<polygon style="fill:#FFFFFF;" points="310.812,69.522 349.308,65.267 310.812,61.011 306.556,22.515 302.3,61.011 263.804,65.267    302.3,69.522 306.556,108.018  "/>
	
		<rect x="325.804" y="118.489" transform="matrix(-0.7071 -0.7071 0.7071 -0.7071 477.5788 445.1591)" style="fill:#FFFFFF;" width="10.362" height="10.362"/>
	
		<rect x="229.733" y="445.354" transform="matrix(-0.7071 -0.7071 0.7071 -0.7071 82.4469 935.2213)" style="fill:#FFFFFF;" width="10.362" height="10.362"/>
	
		<rect x="80.287" y="383.174" transform="matrix(-0.7071 -0.7071 0.7071 -0.7071 -128.706 723.3986)" style="fill:#FFFFFF;" width="10.362" height="10.362"/>
	
		<rect x="436.686" y="211.073" transform="matrix(-0.7071 -0.7071 0.7071 -0.7071 601.4 681.6173)" style="fill:#FFFFFF;" width="10.362" height="10.362"/>
	
		<rect x="182.423" y="86.728" transform="matrix(-0.7071 -0.7071 0.7071 -0.7071 255.2713 289.5551)" style="fill:#FFFFFF;" width="10.362" height="10.362"/>
	
		<rect x="101.802" y="348.098" transform="matrix(-0.7071 -0.7071 0.7071 -0.7071 -67.1742 678.7344)" style="fill:#FFFFFF;" width="10.362" height="10.362"/>
</g>
<g>
</g>
<g>
</g>
<g>
</g>
<g>
</g>
<g>
</g>
<g>
</g>
<g>
</g>
<g>
</g>
<g>
</g>
<g>
</g>
<g>
</g>
<g>
</g>
<g>
</g>
<g>
</g>
<g>
</g>
</svg>
