<?xml version="1.0" encoding="iso-8859-1"?>
<!-- Generator: Adobe Illustrator 19.0.0, SVG Export Plug-In . SVG Version: 6.00 Build 0)  -->
<svg xmlns="http://www.w3.org/2000/svg" xmlns:xlink="http://www.w3.org/1999/xlink" version="1.1" id="Capa_1" x="0px" y="0px" viewBox="0 0 512 512" style="enable-background:new 0 0 512 512;" xml:space="preserve">
<path style="fill:#27536B;" d="M512,255.994c0,50.697-14.734,97.941-40.16,137.701c-4.63,7.25-9.615,14.256-14.945,20.985  c-1.843,2.332-3.731,4.641-5.663,6.906c-9.06,10.67-18.975,20.596-29.657,29.645c-2.265,1.932-4.563,3.819-6.895,5.663  c-6.729,5.329-13.735,10.315-20.985,14.945c-21.507,13.757-45.223,24.383-70.483,31.244c-10.926,2.965-22.14,5.23-33.598,6.729  c-10.992,1.443-22.217,2.187-33.609,2.187c-11.392,0-22.606-0.744-33.609-2.187c-11.458-1.499-22.673-3.764-33.609-6.729  C80.009,473.561,0,374.121,0,255.994c0-50.686,14.734-97.941,40.149-137.69c4.63-7.25,9.626-14.256,14.956-20.985  c1.843-2.343,3.731-4.652,5.652-6.917c9.071-10.67,18.986-20.585,29.645-29.645c2.265-1.921,4.575-3.808,6.917-5.652  c6.717-5.33,13.724-10.315,20.974-14.945C158.053,14.735,205.309,0,256.006,0C397.382,0,512,114.607,512,255.994z"/>
<polygon style="fill:#FFFFFF;" points="295.251,133.706 343.451,128.378 295.251,123.05 289.922,74.85 284.594,123.05   236.393,128.378 284.594,133.706 289.922,181.906 "/>
<g>
	<path style="fill:#666666;" d="M456.895,414.681c-1.843,2.332-3.731,4.641-5.663,6.906l-25.349-25.348l-10.781-10.781   l-35.919-35.919l-10.781-10.781l-35.93-35.93l-42.78-42.78l-37.729-37.729l-8.694-8.694l-19.075-19.075l-15.011-15.012   l-35.93-35.93l-10.781-10.781l-46.7-46.7L90.402,60.757L79.843,50.197L68.162,38.517l6.284-6.284l11.681,11.681l11.192,11.192   l24.727,24.738l10.781,10.77l35.93,35.93l10.781,10.781l35.93,35.93l15.011,15.011l19.075,19.075l8.683,8.694l37.729,37.729   l27.769,27.758l50.952,50.952l10.77,10.781l35.93,35.919l10.781,10.781L456.895,414.681z"/>
	<path style="fill:#666666;" d="M421.576,451.232c-2.265,1.932-4.563,3.819-6.895,5.663L137.324,179.538l-10.781-10.781   l-35.93-35.93l-10.77-10.77L55.105,97.319L43.913,86.127L32.232,74.447l6.284-6.284l22.24,22.24l25.36,25.371l10.781,10.77   l125.421,125.421l37.717,37.729l27.769,27.758l15.023,15.023l35.93,35.93l10.77,10.781l35.93,35.919l10.781,10.781L421.576,451.232   z"/>
</g>
<polygon style="fill:#E6E6E6;" points="398.648,144.443 388.977,211.574 388.189,217.07 385.046,220.212 263.556,341.703   170.3,248.448 291.791,126.956 294.933,123.815 300.418,123.026 367.57,113.354 "/>
<polygon style="fill:#CCCCCC;" points="314.007,142.89 384.445,130.237 367.57,113.354 300.417,123.026 294.933,123.815   291.79,126.957 170.3,248.448 189.375,267.523 "/>
<polygon style="fill:#808080;" points="236.653,314.8 233.344,326.547 224.717,357.203 179.971,312.457 154.811,287.298   197.225,275.362 "/>
<g>
	<polygon style="fill:#F9A52B;" points="388.977,211.574 388.189,217.07 385.046,220.212 291.791,126.956 294.933,123.815    300.418,123.026  "/>
	
		<rect x="262.138" y="179.477" transform="matrix(-0.7071 -0.7071 0.7071 -0.7071 430.0164 545.9553)" style="fill:#F9A52B;" width="131.882" height="8.882"/>
</g>
<path style="fill:#B3B3B3;" d="M308.67,205.356l-2.019-2.019c-9.86-9.86-25.846-9.86-35.706,0l-59.393,59.393l37.725,37.725  l59.393-59.393C318.53,231.202,318.53,215.216,308.67,205.356z"/>
<g>
	
		<rect x="121.135" y="150.996" transform="matrix(-0.7071 0.7071 -0.7071 -0.7071 425.8495 176.4086)" style="fill:#F9A52B;" width="110.509" height="50.81"/>
	
		<rect x="74.426" y="104.285" transform="matrix(-0.7071 0.7071 -0.7071 -0.7071 313.0823 129.6963)" style="fill:#F9A52B;" width="110.509" height="50.81"/>
	
		<rect x="27.722" y="57.582" transform="matrix(-0.7071 0.7071 -0.7071 -0.7071 200.3311 82.9949)" style="fill:#F9A52B;" width="110.509" height="50.81"/>
	
		<rect x="280.364" y="310.206" transform="matrix(0.7071 -0.7071 0.7071 0.7071 -139.0122 335.6158)" style="fill:#F9A52B;" width="110.509" height="50.81"/>
	
		<rect x="327.065" y="356.924" transform="matrix(0.7071 -0.7071 0.7071 0.7071 -158.3688 382.3226)" style="fill:#F9A52B;" width="110.509" height="50.81"/>
	<path style="fill:#F9A52B;" d="M471.84,393.696c-4.63,7.25-9.615,14.256-14.945,20.985c-1.843,2.332-3.731,4.641-5.663,6.906   c-9.06,10.67-18.975,20.596-29.657,29.645c-2.265,1.932-4.563,3.819-6.895,5.663c-6.729,5.329-13.735,10.315-20.985,14.945   l-21.707-21.707l17.965-17.965l6.284-6.284l35.93-35.93l17.965-17.965L471.84,393.696z"/>
</g>
<polygon style="fill:#666666;" points="236.653,314.8 233.344,326.547 207.285,298.467 179.971,312.457 154.811,287.298   197.225,275.362 "/>
<rect x="164.242" y="277.374" transform="matrix(-0.7071 -0.7071 0.7071 -0.7071 193.6732 643.8518)" style="fill:#F9A52B;" width="131.882" height="8.882"/>
<g>
	<polygon style="fill:#FFFFFF;" points="248.334,428.444 296.534,423.116 248.334,417.787 243.006,369.588 237.678,417.787    189.478,423.116 237.678,428.444 243.006,476.644  "/>
	<polygon style="fill:#FFFFFF;" points="449.655,255.052 488.15,250.796 449.655,246.54 445.399,208.044 441.143,246.54    402.647,250.796 441.143,255.052 445.399,293.548  "/>
	
		<rect x="120.951" y="394.345" transform="matrix(-0.7071 -0.7071 0.7071 -0.7071 -67.186 771.2241)" style="fill:#FFFFFF;" width="10.362" height="10.362"/>
	
		<rect x="120.912" y="261.72" transform="matrix(-0.7071 -0.7071 0.7071 -0.7071 26.5277 544.7906)" style="fill:#FFFFFF;" width="10.362" height="10.362"/>
	
		<rect x="350.737" y="70.204" transform="matrix(-0.7071 -0.7071 0.7071 -0.7071 554.2853 380.3626)" style="fill:#FFFFFF;" width="10.362" height="10.362"/>
	
		<rect x="212.507" y="43.559" transform="matrix(-0.7071 -0.7071 0.7071 -0.7071 337.1517 237.1338)" style="fill:#FFFFFF;" width="10.362" height="10.362"/>
	
		<rect x="464.645" y="304.006" transform="matrix(-0.7071 -0.7071 0.7071 -0.7071 583.4148 860.0324)" style="fill:#FFFFFF;" width="10.362" height="10.362"/>
	
		<rect x="34.981" y="237.738" transform="matrix(-0.7071 -0.7071 0.7071 -0.7071 -103.2081 443.0887)" style="fill:#FFFFFF;" width="10.362" height="10.362"/>
</g>
<g>
</g>
<g>
</g>
<g>
</g>
<g>
</g>
<g>
</g>
<g>
</g>
<g>
</g>
<g>
</g>
<g>
</g>
<g>
</g>
<g>
</g>
<g>
</g>
<g>
</g>
<g>
</g>
<g>
</g>
</svg>
