<?xml version="1.0" encoding="iso-8859-1"?>
<!-- Generator: Adobe Illustrator 19.0.0, SVG Export Plug-In . SVG Version: 6.00 Build 0)  -->
<svg xmlns="http://www.w3.org/2000/svg" xmlns:xlink="http://www.w3.org/1999/xlink" version="1.1" id="Capa_1" x="0px" y="0px" viewBox="0 0 512 512" style="enable-background:new 0 0 512 512;" xml:space="preserve">
<path style="fill:#27536B;" d="M512,255.994c0,30.767-5.429,60.257-15.378,87.571c-28.235,77.6-92.956,137.679-173.409,159.519  c-10.926,2.965-22.14,5.23-33.598,6.729c-10.992,1.443-22.217,2.187-33.609,2.187c-11.392,0-22.606-0.744-33.609-2.187  c-11.458-1.499-22.673-3.764-33.609-6.729c-80.453-21.84-145.174-81.919-173.409-159.519C5.418,316.251,0,286.762,0,255.994  C0,114.607,114.618,0,256.006,0C397.382,0,512,114.607,512,255.994z"/>
<path style="fill:#FCD57E;" d="M496.622,343.565c-28.235,77.6-92.956,137.679-173.409,159.519  c-10.926,2.965-22.14,5.23-33.598,6.729c-10.992,1.443-22.217,2.187-33.609,2.187c-11.392,0-22.606-0.744-33.609-2.187  c-11.458-1.499-22.673-3.764-33.609-6.729c-33.021-8.971-63.399-24.371-89.691-44.801c-18.298-14.201-34.609-30.845-48.443-49.42  c-3.153-4.219-6.162-8.527-9.038-12.935c-10.659-16.266-19.486-33.809-26.237-52.362c77.067-4.908,157.665-7.506,240.639-7.506  C338.968,336.059,419.566,338.658,496.622,343.565z"/>
<path style="fill:#E8C172;" d="M421.931,407.12c-12.358,12.358-202.955,36.851-322.835,51.163  c-18.298-14.201-34.609-30.845-48.443-49.42c-3.153-4.219-6.162-8.527-9.038-12.935l27.214-10.048l116.983-41.926l128.952-4.441  C314.763,339.512,440.051,388.999,421.931,407.12z"/>
<path style="fill:#808080;" d="M88.625,387.829l41.276-90.66c0.423-0.927,1.19-1.653,2.14-2.022l34.51-13.417l2.831,7.281  l-29.287,11.387l30.256,34.222l-5.852,5.175l-29.981-33.91l-24.458,53.72l25.72-7.253c0.345-0.098,0.702-0.147,1.06-0.147h30.382  v7.813h-29.842l-31.561,8.899l-10.083,22.146L88.625,387.829z"/>
<path style="fill:#27536B;" d="M92.265,407.117h-2.197c-11.732,0-21.241-9.51-21.241-21.241l0,0h44.68l0,0  C113.506,397.607,103.996,407.117,92.265,407.117z"/>
<path style="fill:#808080;" d="M423.375,387.829l-41.276-90.66c-0.423-0.927-1.19-1.653-2.14-2.022l-34.51-13.417l-2.831,7.281  l29.287,11.387l-30.257,34.222l5.852,5.175l29.981-33.91l24.458,53.72l-25.72-7.253c-0.345-0.098-0.702-0.147-1.06-0.147h-30.382  v7.813h29.844l31.561,8.899l10.083,22.146L423.375,387.829z"/>
<path style="fill:#27536B;" d="M419.736,407.117h2.197c11.732,0,21.241-9.51,21.241-21.241l0,0h-44.68l0,0  C398.495,397.607,408.004,407.117,419.736,407.117z"/>
<path style="fill:#E6E6E6;" d="M307.762,153.127h-103.53l13.448-26.534c0.839-1.65,1.778-3.242,2.812-4.747  c1.963-2.901,4.258-5.518,6.826-7.813c7.754-6.964,17.912-10.987,28.683-10.987c10.762,0,20.928,4.024,28.674,10.987  c2.568,2.295,4.863,4.912,6.836,7.813c1.026,1.503,1.963,3.096,2.802,4.747L307.762,153.127z"/>
<path style="fill:#CCCCCC;" d="M288.123,153.127l1.729,5.684l-7.481,2.266l-2.413-7.95l-9.483-31.281h-10.567v38.097h-7.813v-38.097  h-10.567l-9.492,31.281l-2.413,7.95l-7.471-2.266l1.729-5.684l9.483-31.281h-12.872c1.963-2.901,4.258-5.518,6.826-7.813h57.357  c2.568,2.295,4.863,4.912,6.836,7.813h-12.872L288.123,153.127z"/>
<polyline style="fill:#E6E6E6;" points="200.521,197.107 172.772,197.107 172.772,264.771 289.366,264.771 "/>
<polyline style="fill:#EA9628;" points="319.376,281.011 315.525,264.771 196.475,264.771 192.625,281.011 "/>
<rect x="163.971" y="281.01" style="fill:#F9A52B;" width="184.057" height="81.864"/>
<rect x="252.097" y="298.608" style="fill:#808080;" width="7.817" height="103.293"/>
<path style="fill:#F9A52B;" d="M314.188,179.516c0,0.752-0.01,1.504-0.049,2.246c-0.118,3.144-0.479,6.211-1.084,9.21v0.01  c-2.138,10.705-7.207,20.353-14.346,28.058c-2.422,2.617-5.089,5.02-7.96,7.158h-69.496c-2.871-2.138-5.537-4.541-7.96-7.158  c-7.139-7.716-12.218-17.364-14.356-28.068c-0.605-2.998-0.967-6.075-1.084-9.21c-0.039-0.742-0.049-1.494-0.049-2.246  c0-10.685,2.881-20.685,7.891-29.279h100.61C311.317,158.831,314.188,168.831,314.188,179.516z"/>
<g>
	<path style="fill:#EA9628;" d="M298.709,219.039c-2.422,2.617-5.089,5.02-7.96,7.158h-69.496c-2.871-2.138-5.537-4.541-7.96-7.158   H298.709z"/>
	<rect x="236.875" y="150.237" style="fill:#EA9628;" width="7.817" height="79.872"/>
	<rect x="267.32" y="150.237" style="fill:#EA9628;" width="7.817" height="79.872"/>
	<path style="fill:#EA9628;" d="M243.393,220.592l-5.059,5.606l-0.175,0.195l-0.215-0.195l-1.075-0.967l-37.932-34.26   c-0.605-2.998-0.967-6.075-1.084-9.21l39.015-16.983l2.344-1.026l3.126,7.158l-5.469,2.383L205.94,186.76l30.929,27.941   L243.393,220.592z"/>
	<path style="fill:#EA9628;" d="M314.139,181.761c-0.118,3.144-0.479,6.211-1.084,9.21v0.01l-37.922,34.25l-1.075,0.967   l-0.214,0.195l-0.175-0.195l-5.059-5.606l6.524-5.889l30.929-27.941l-30.929-13.467l-5.469-2.383l3.116-7.158l2.354,1.026   L314.139,181.761z"/>
</g>
<path style="fill:#808080;" d="M279.167,362.883l-18.517-62.66l36.193-19.211h-16.661l-24.18,12.833l-24.19-12.833h-16.661  l36.203,19.211l-18.527,62.66l-5.274,17.843c-0.342,1.181-0.118,2.462,0.615,3.448c0.742,0.986,1.904,1.562,3.134,1.562h49.397  c1.23,0,2.393-0.576,3.126-1.562c0.742-0.987,0.967-2.266,0.615-3.448L279.167,362.883z M236.528,377.924l4.443-15.04l15.03-50.833  l15.02,50.833l4.443,15.04H236.528z"/>
<path style="fill:#51BEE5;" d="M172.772,255.102c-7.024-5.704-11.503-14.413-11.503-24.164c0-9.751,4.479-18.459,11.503-24.164"/>
<path style="fill:#27536B;" d="M254.902,421.676h2.197c11.732,0,21.241-9.51,21.241-21.241l0,0h-44.68l0,0  C233.66,412.166,243.17,421.676,254.902,421.676z"/>
<g>
	<rect x="177.995" y="281.01" style="fill:#EA9628;" width="7.817" height="81.875"/>
	<rect x="326.189" y="281.01" style="fill:#EA9628;" width="7.817" height="81.875"/>
</g>
<g>
	<circle style="fill:#3EAECC;" cx="208.473" cy="312.798" r="11.719"/>
	<circle style="fill:#3EAECC;" cx="304.826" cy="312.798" r="11.719"/>
</g>
<polygon style="fill:#F9A52B;" points="321.298,264.774 190.706,264.774 205.931,226.197 306.073,226.197 "/>
<g>
	<polygon style="fill:#EA9628;" points="218.47,226.197 210.921,264.774 202.962,264.774 210.511,226.197  "/>
	<polygon style="fill:#EA9628;" points="246.44,226.197 243.208,264.774 235.376,264.774 238.608,226.197  "/>
	<polygon style="fill:#EA9628;" points="276.627,264.774 268.795,264.774 265.563,226.197 273.395,226.197  "/>
	<polygon style="fill:#EA9628;" points="309.032,264.774 301.072,264.774 293.533,226.197 301.492,226.197  "/>
</g>
<g>
	<polygon style="fill:#FFFFFF;" points="410.658,130.07 406.569,167.067 402.478,130.07 365.483,125.981 402.478,121.89    406.569,84.895 410.658,121.89 447.655,125.981  "/>
	<polygon style="fill:#FFFFFF;" points="442.332,185.061 439.496,210.716 436.661,185.061 411.006,182.225 436.661,179.389    439.496,153.734 442.332,179.389 467.987,182.225  "/>
	<polygon style="fill:#FFFFFF;" points="82.343,257.749 77.884,298.084 73.425,257.749 33.091,253.29 73.425,248.831    77.884,208.495 82.343,248.831 122.679,253.29  "/>
	
		<rect x="379.987" y="223.379" transform="matrix(-0.7071 -0.7071 0.7071 -0.7071 495.9062 662.5318)" style="fill:#FFFFFF;" width="10.362" height="10.362"/>
	
		<rect x="35.776" y="188.876" transform="matrix(-0.7071 -0.7071 0.7071 -0.7071 -67.3009 360.2382)" style="fill:#FFFFFF;" width="10.362" height="10.362"/>
	
		<rect x="448.374" y="300.566" transform="matrix(-0.7071 -0.7071 0.7071 -0.7071 558.0714 842.6551)" style="fill:#FFFFFF;" width="10.362" height="10.362"/>
	
		<rect x="369.537" y="80.064" transform="matrix(-0.7071 -0.7071 0.7071 -0.7071 579.407 410.4881)" style="fill:#FFFFFF;" width="10.362" height="10.362"/>
	
		<rect x="138.146" y="83.393" transform="matrix(-0.7071 -0.7071 0.7071 -0.7071 182.0437 252.5537)" style="fill:#FFFFFF;" width="10.362" height="10.362"/>
	
		<rect x="292.924" y="36.097" transform="matrix(-0.7071 -0.7071 0.7071 -0.7071 479.7085 281.2585)" style="fill:#FFFFFF;" width="10.362" height="10.362"/>
	
		<rect x="126.824" y="173.327" transform="matrix(-0.7071 -0.7071 0.7071 -0.7071 99.122 398.0747)" style="fill:#FFFFFF;" width="10.362" height="10.362"/>
</g>
<g>
</g>
<g>
</g>
<g>
</g>
<g>
</g>
<g>
</g>
<g>
</g>
<g>
</g>
<g>
</g>
<g>
</g>
<g>
</g>
<g>
</g>
<g>
</g>
<g>
</g>
<g>
</g>
<g>
</g>
</svg>
