<?xml version="1.0" encoding="iso-8859-1"?>
<!-- Generator: Adobe Illustrator 19.0.0, SVG Export Plug-In . SVG Version: 6.00 Build 0)  -->
<svg xmlns="http://www.w3.org/2000/svg" xmlns:xlink="http://www.w3.org/1999/xlink" version="1.1" id="Capa_1" x="0px" y="0px" viewBox="0 0 512 512" style="enable-background:new 0 0 512 512;" xml:space="preserve">
<path style="fill:#27536B;" d="M512,255.994c0,118.127-80.009,217.566-188.787,247.09c-10.926,2.965-22.14,5.23-33.598,6.729  c-10.992,1.443-22.217,2.187-33.609,2.187c-11.392,0-22.606-0.744-33.609-2.187c-11.458-1.499-22.673-3.764-33.609-6.729  C80.009,473.561,0,374.121,0,255.994C0,114.607,114.618,0,256.006,0C397.382,0,512,114.607,512,255.994z"/>
<path style="fill:#E6E6E6;" d="M289.61,495.93h-67.216V102.414c0-28.244,12.262-55.097,33.608-73.594l0,0l0,0  c21.345,18.497,33.608,45.35,33.608,73.594V495.93z"/>
<path style="fill:#CCCCCC;" d="M256.003,28.824c-8.816,18.498-13.879,45.345-13.879,73.592v393.518h-19.73V102.416  C222.394,74.169,234.652,47.322,256.003,28.824z"/>
<rect x="235.309" y="495.934" style="fill:#B3B3B3;" width="41.393" height="15.644"/>
<rect x="222.396" y="209.073" style="fill:#F77759;" width="67.219" height="8.883"/>
<rect x="222.396" y="227.082" style="fill:#666666;" width="67.219" height="8.883"/>
<rect x="222.396" y="158.664" style="fill:#F77759;" width="67.219" height="8.883"/>
<rect x="222.396" y="113.674" style="fill:#666666;" width="67.219" height="8.883"/>
<rect x="222.396" y="209.073" style="fill:#DD5F47;" width="19.73" height="8.883"/>
<rect x="222.396" y="227.082" style="fill:#4D4D4D;" width="19.73" height="8.883"/>
<rect x="222.396" y="158.664" style="fill:#DD5F47;" width="19.73" height="8.883"/>
<rect x="222.396" y="113.674" style="fill:#4D4D4D;" width="19.73" height="8.883"/>
<path style="fill:#E6E6E6;" d="M203.609,326.931l18.785-16.227V495.93h-38.561V370.146  C183.833,353.552,191.051,337.778,203.609,326.931z"/>
<g>
	<path style="fill:#F2F2F2;" d="M308.396,326.931l-18.785-16.227V495.93h38.561V370.146   C328.172,353.552,320.953,337.778,308.396,326.931z"/>
	<path style="fill:#F2F2F2;" d="M277.455,362.345v133.582h-42.903V362.345c0-16.177,5.529-31.866,15.678-44.468l5.774-7.173   l5.774,7.173C271.925,330.479,277.455,346.168,277.455,362.345z"/>
</g>
<path style="fill:#E6E6E6;" d="M256.003,310.704l-2.087,7.173c-3.686,12.602-5.685,28.291-5.685,44.468v133.582h-13.679V362.345  c0-16.177,5.529-31.866,15.678-44.468L256.003,310.704z"/>
<g>
	<rect x="183.835" y="462.813" style="fill:#F77759;" width="38.561" height="14.434"/>
	<rect x="289.615" y="462.813" style="fill:#F77759;" width="38.561" height="14.434"/>
	<rect x="234.554" y="462.813" style="fill:#F77759;" width="42.903" height="14.434"/>
</g>
<g>
	<rect x="183.835" y="446.047" style="fill:#666666;" width="38.561" height="8.571"/>
	<rect x="289.615" y="446.047" style="fill:#666666;" width="38.561" height="8.571"/>
	<rect x="234.554" y="446.047" style="fill:#666666;" width="42.903" height="8.571"/>
</g>
<rect x="234.554" y="462.813" style="fill:#DD5F47;" width="13.679" height="14.434"/>
<rect x="234.554" y="446.047" style="fill:#4D4D4D;" width="13.679" height="8.571"/>
<g>
	<polygon style="fill:#FFFFFF;" points="401.849,298.486 397.489,337.92 393.13,298.486 353.696,294.127 393.13,289.768    397.489,250.334 401.849,289.768 441.282,294.127  "/>
	<polygon style="fill:#FFFFFF;" points="423.235,137.617 420.396,163.295 417.557,137.617 391.878,134.778 417.557,131.939    420.396,106.261 423.235,131.939 448.913,134.778  "/>
	<polygon style="fill:#FFFFFF;" points="135.373,158.586 131.013,198.02 126.654,158.586 87.22,154.227 126.654,149.868    131.013,110.434 135.373,149.868 174.806,154.227  "/>
	
		<rect x="426.944" y="195.52" transform="matrix(-0.7071 -0.7071 0.7071 -0.7071 595.7656 648.1775)" style="fill:#FFFFFF;" width="10.362" height="10.362"/>
	
		<rect x="153.678" y="316.613" transform="matrix(-0.7071 -0.7071 0.7071 -0.7071 43.647 661.6686)" style="fill:#FFFFFF;" width="10.362" height="10.362"/>
	
		<rect x="477.654" y="303.293" transform="matrix(-0.7071 -0.7071 0.7071 -0.7071 606.1275 868.0138)" style="fill:#FFFFFF;" width="10.362" height="10.362"/>
	
		<rect x="62.626" y="342.147" transform="matrix(-0.7071 -0.7071 0.7071 -0.7071 -129.8438 640.8745)" style="fill:#FFFFFF;" width="10.362" height="10.362"/>
	
		<rect x="67.787" y="188.932" transform="matrix(-0.7071 -0.7071 0.7071 -0.7071 -12.6944 382.9681)" style="fill:#FFFFFF;" width="10.362" height="10.362"/>
	
		<rect x="101.395" y="405.441" transform="matrix(-0.7071 -0.7071 0.7071 -0.7071 -108.4157 776.3365)" style="fill:#FFFFFF;" width="10.362" height="10.362"/>
</g>
<g>
</g>
<g>
</g>
<g>
</g>
<g>
</g>
<g>
</g>
<g>
</g>
<g>
</g>
<g>
</g>
<g>
</g>
<g>
</g>
<g>
</g>
<g>
</g>
<g>
</g>
<g>
</g>
<g>
</g>
</svg>
