<?xml version="1.0" encoding="iso-8859-1"?>
<!-- Generator: Adobe Illustrator 19.0.0, SVG Export Plug-In . SVG Version: 6.00 Build 0)  -->
<svg xmlns="http://www.w3.org/2000/svg" xmlns:xlink="http://www.w3.org/1999/xlink" version="1.1" id="Capa_1" x="0px" y="0px" viewBox="0 0 511.989 511.989" style="enable-background:new 0 0 511.989 511.989;" xml:space="preserve">
<circle style="fill:#27536B;" cx="255.994" cy="255.994" r="255.994"/>
<g>
	<polygon style="fill:#FFFFFF;" points="427.859,295.487 423.5,334.921 419.141,295.487 379.707,291.128 419.141,286.769    423.5,247.335 427.859,286.769 467.293,291.128  "/>
	<polygon style="fill:#FFFFFF;" points="123.556,152.093 118.278,199.84 112.999,152.093 65.253,146.815 112.999,141.536    118.278,93.791 123.556,141.536 171.303,146.815  "/>
	
		<rect x="235.791" y="78.618" transform="matrix(-0.7071 -0.7071 0.7071 -0.7071 352.1097 313.4466)" style="fill:#FFFFFF;" width="10.362" height="10.362"/>
	
		<rect x="452.965" y="192.532" transform="matrix(-0.7071 -0.7071 0.7071 -0.7071 642.3013 661.4756)" style="fill:#FFFFFF;" width="10.362" height="10.362"/>
	
		<rect x="148.192" y="178.54" transform="matrix(-0.7071 -0.7071 0.7071 -0.7071 131.9142 422.0835)" style="fill:#FFFFFF;" width="10.362" height="10.362"/>
	
		<rect x="35.939" y="321.762" transform="matrix(-0.7071 -0.7071 0.7071 -0.7071 -160.9867 587.2028)" style="fill:#FFFFFF;" width="10.362" height="10.362"/>
	
		<rect x="118.881" y="406.693" transform="matrix(-0.7071 -0.7071 0.7071 -0.7071 -79.4524 790.8381)" style="fill:#FFFFFF;" width="10.362" height="10.362"/>
	
		<rect x="378.023" y="404.356" transform="matrix(-0.7071 -0.7071 0.7071 -0.7071 364.5835 970.0897)" style="fill:#FFFFFF;" width="10.362" height="10.362"/>
</g>
<circle style="fill:#F77759;" cx="396.705" cy="94.965" r="20.29"/>
<path style="fill:#DD5F47;" d="M400.342,98.602c-6.029,6.029-14.904,7.457-22.296,4.311c0.988,2.323,2.417,4.505,4.311,6.399  c7.924,7.924,20.771,7.924,28.695,0c7.924-7.923,7.924-20.771,0-28.695c-1.894-1.894-4.076-3.323-6.399-4.311  C407.799,83.698,406.371,92.573,400.342,98.602z"/>
<g>
	<path style="fill:#F77759;" d="M152.644,211.965l-15.953,81.212c0,0-13.771-0.487-28.052-3.227   c-17.179-3.282-35.118-9.822-30.831-22.682c4.459-13.394,28.06-29.441,47.578-40.794   C140.192,217.87,152.644,211.965,152.644,211.965z"/>
	<path style="fill:#F77759;" d="M344.926,192.722c4.804,10.693,8.04,22.643,3.03,32.064c-11.094,20.876-38.715,51.935-64.246,81.613   c-0.079,0.094-0.157,0.204-0.235,0.299c-1.649,1.932-3.031,4.019-4.153,6.194c-1.728,3.329-2.874,6.877-3.392,10.474   c-0.447,2.991-0.486,6.03-0.118,9.021c0.958,7.992,4.781,15.663,11.361,21.347c3.737,3.234,7.67,6.665,11.683,10.175   c11.023,9.658,22.627,19.942,32.48,28.696c13.654,12.161,13.056,33.72-1.279,45.073c-10.474,8.291-23.357,17.328-37.128,24.315   c-2.308,1.178-4.632,2.293-6.979,3.337c-9.139,4.067-19.133,3.022-27.007-1.728c-5.81-3.502-10.466-9.037-12.782-16.032   c-6.022-18.207-12.46-36.924-17.775-52.195c-6.226-17.846-21.724-30.58-40.017-33.516c-0.266-0.047-0.534-0.094-0.816-0.125   l61.467-66.004L344.926,192.722z"/>
</g>
<circle style="fill:#F9A52B;" cx="357.588" cy="134.082" r="40.58"/>
<path style="fill:#EA9628;" d="M372.151,148.644c-13.409,13.409-33.866,15.469-49.443,6.187c1.688,2.834,3.747,5.506,6.187,7.945  c15.848,15.848,41.541,15.848,57.389,0c15.848-15.848,15.848-41.541,0-57.389c-2.439-2.439-5.112-4.499-7.945-6.187  C387.62,114.778,385.559,135.234,372.151,148.644z"/>
<path style="fill:#DD5F47;" d="M249.017,295.728l26.795,36.657l23.043,31.522c0,0-38.379-1.379-53.034,25.838  c-10.848,20.146,5.213,54.785,13.119,73.856c-5.81-3.502-10.466-9.037-12.782-16.032c-6.022-18.207-12.46-36.924-17.775-52.195  c-6.226-17.846-21.724-30.58-40.017-33.516c-0.266-0.047-0.534-0.094-0.816-0.125L249.017,295.728z"/>
<ellipse transform="matrix(-0.7071 -0.7071 0.7071 -0.7071 246.0704 593.402)" style="fill:#F9A52B;" cx="245.933" cy="245.738" rx="94.098" ry="141.253"/>
<path style="fill:#DD5F47;" d="M152.644,211.965l-15.953,81.212c0,0-13.771-0.487-28.052-3.227  c-0.102-19.918,5.645-41.901,16.746-63.477C140.192,217.87,152.644,211.965,152.644,211.965z"/>
<ellipse transform="matrix(-0.7071 -0.7071 0.7071 -0.7071 246.0704 593.402)" style="fill:#F9A52B;" cx="245.933" cy="245.738" rx="94.098" ry="141.253"/>
<path style="fill:#EA9628;" d="M280.799,280.608c-46.971,46.971-107.962,64.76-147.728,46.324  c3.214,6.935,7.523,13.229,12.98,18.687c36.746,36.746,111.253,21.818,166.414-33.344s70.09-129.668,33.344-166.414  c-5.457-5.457-11.752-9.765-18.686-12.98C345.559,172.646,327.77,233.637,280.799,280.608z"/>
<polygon style="fill:#F77759;" points="319.415,72.354 294.583,125.251 365.909,196.577 418.808,171.746 "/>
<path style="fill:#DD5F47;" d="M257.331,122.462l111.871,111.871c3.093,3.093,4.64,7.137,4.64,11.188  c0,4.05-1.547,8.094-4.64,11.188c-6.179,6.179-16.19,6.171-22.367-0.008L234.963,144.83c-6.179-6.179-6.187-16.188-0.008-22.367  S251.152,116.283,257.331,122.462z"/>
<path style="fill:#F77759;" d="M257.331,122.462l78.896,78.896c3.093,3.093,4.64,7.137,4.64,11.188c0,4.05-1.547,8.094-4.64,11.188  c-6.179,6.179-16.19,6.171-22.367-0.008l-78.896-78.896c-6.179-6.179-6.187-16.188-0.008-22.367  C241.134,116.283,251.152,116.283,257.331,122.462z"/>
<path style="fill:#DD5F47;" d="M201.533,158.506l131.632,131.632c3.086,3.086,4.632,7.145,4.64,11.188  c-0.008,4.043-1.554,8.102-4.64,11.188c-6.179,6.179-16.197,6.179-22.376,0L179.157,180.882c-6.179-6.179-6.179-16.197,0-22.376  C185.336,152.328,195.355,152.328,201.533,158.506z"/>
<g>
	<path style="fill:#F77759;" d="M201.533,158.506l94.991,94.991c3.093,3.093,4.632,7.145,4.64,11.188   c0,4.052-1.554,8.102-4.64,11.188c-6.179,6.179-16.197,6.179-22.376,0l-94.991-94.991c-6.179-6.179-6.179-16.197,0-22.376   C185.336,152.328,195.355,152.328,201.533,158.506z"/>
	<path style="fill:#F77759;" d="M170.843,272.372c-14.092,14.092-14.092,36.94,0,51.032s36.94,14.092,51.032,0"/>
</g>
<polyline style="fill:#DD5F47;" points="375.889,128.827 418.808,171.746 365.909,196.577 339.969,170.637 "/>
<g>
</g>
<g>
</g>
<g>
</g>
<g>
</g>
<g>
</g>
<g>
</g>
<g>
</g>
<g>
</g>
<g>
</g>
<g>
</g>
<g>
</g>
<g>
</g>
<g>
</g>
<g>
</g>
<g>
</g>
</svg>
