<?xml version="1.0" encoding="iso-8859-1"?>
<!-- Generator: Adobe Illustrator 19.0.0, SVG Export Plug-In . SVG Version: 6.00 Build 0)  -->
<svg xmlns="http://www.w3.org/2000/svg" xmlns:xlink="http://www.w3.org/1999/xlink" version="1.1" id="Capa_1" x="0px" y="0px" viewBox="0 0 511.989 511.989" style="enable-background:new 0 0 511.989 511.989;" xml:space="preserve">
<circle style="fill:#27536B;" cx="255.994" cy="255.994" r="255.994"/>
<g>
	
		<rect x="131.905" y="270.907" transform="matrix(-0.7071 -0.7071 0.7071 -0.7071 26.8659 712.9478)" style="fill:#FFFFFF;" width="58.369" height="160.006"/>
	
		<rect x="321.102" y="81.709" transform="matrix(-0.7071 -0.7071 0.7071 -0.7071 483.6293 523.7498)" style="fill:#FFFFFF;" width="58.369" height="160.006"/>
	
		<rect x="132.531" y="81.096" transform="matrix(0.7071 -0.7071 0.7071 0.7071 -66.549 161.5346)" style="fill:#FFFFFF;" width="58.369" height="160.006"/>
</g>
<rect x="225.09" y="224.459" transform="matrix(-0.7071 -0.7071 0.7071 -0.7071 256.7579 617.7151)" style="fill:#E6E6E6;" width="62.444" height="62.444"/>
<rect x="321.733" y="270.283" transform="matrix(0.7071 -0.7071 0.7071 0.7071 -144.9081 350.7327)" style="fill:#FFFFFF;" width="58.369" height="160.006"/>
<circle style="fill:#61CCF2;" cx="256.316" cy="255.684" r="20.677"/>
<path style="fill:#808080;" d="M256.312,280.807c-6.709,0-13.017-2.613-17.762-7.357s-7.357-11.053-7.357-17.763  s2.613-13.017,7.357-17.762c4.744-4.744,11.052-7.357,17.762-7.357c6.711,0,13.018,2.613,17.762,7.357  c9.794,9.793,9.794,25.729,0,35.523C269.33,278.194,263.023,280.807,256.312,280.807z M256.312,239.451  c-4.336,0-8.414,1.689-11.481,4.755c-3.067,3.067-4.755,7.144-4.755,11.481s1.689,8.415,4.755,11.481  c3.067,3.067,7.145,4.755,11.481,4.755c4.337,0,8.415-1.689,11.482-4.755c6.33-6.331,6.33-16.631,0-22.962  C264.728,241.14,260.65,239.451,256.312,239.451z"/>
<g>
	<path style="fill:#B3B3B3;" d="M80.583,125.155l117.071,117.071l20.635-20.635l12.929,12.929l3.925-3.925l-12.929-12.929   l20.636-20.635L125.78,79.958L80.583,125.155z M144.197,106.226l-16.71,16.71L109.07,104.52l16.71-16.709L144.197,106.226z    M150.307,153.607l18.895,18.895l-16.71,16.71l-18.895-18.896L150.307,153.607z M129.673,166.391l-18.895-18.895l16.71-16.71   l18.895,18.895L129.673,166.391z M173.128,176.427l18.895,18.895l-16.709,16.71l-18.895-18.895L173.128,176.427z M177.053,172.502   l16.71-16.71l18.895,18.895l-16.71,16.71L177.053,172.502z M173.128,168.577l-18.895-18.895l16.71-16.71l18.895,18.895   L173.128,168.577z M150.307,145.757l-18.895-18.895l16.71-16.71l18.895,18.895L150.307,145.757z M105.145,108.445l18.417,18.417   l-16.71,16.71l-18.416-18.417L105.145,108.445z M197.655,234.374l-18.416-18.416l16.709-16.71l18.417,18.417L197.655,234.374z    M218.29,213.739l-18.417-18.417l16.71-16.71l18.417,18.417L218.29,213.739z"/>
	<path style="fill:#B3B3B3;" d="M314.971,269.148l-20.635,20.635l-13.564-13.564l-3.925,3.925l13.565,13.564l-20.635,20.635   l117.071,117.072l45.195-45.197L314.971,269.148z M339.498,334.947l-18.896-18.895l16.71-16.71l18.896,18.896L339.498,334.947z    M360.133,322.163l18.895,18.895l-16.71,16.71l-18.895-18.895L360.133,322.163z M335.573,338.872l-16.71,16.71l-18.895-18.896   l16.71-16.709L335.573,338.872z M339.498,342.797l18.895,18.895l-16.71,16.709l-18.895-18.895L339.498,342.797z M362.318,365.618   l18.895,18.895l-16.71,16.71l-18.895-18.896L362.318,365.618z M366.243,361.692l16.71-16.71l18.895,18.896l-16.71,16.709   L366.243,361.692z M405.775,367.803l18.417,18.417l-16.71,16.71l-18.417-18.417L405.775,367.803z M314.971,277.001l18.416,18.416   l-16.71,16.71l-18.416-18.416L314.971,277.001z M294.335,297.636l18.417,18.416l-16.71,16.709l-18.417-18.416L294.335,297.636z    M368.429,405.149l16.71-16.71l18.417,18.417l-16.71,16.709L368.429,405.149z"/>
	<path style="fill:#B3B3B3;" d="M234.725,281.199l-3.925-3.925l-13.135,13.135l-20.634-20.634L79.959,386.846l45.197,45.197   l117.072-117.072l-20.636-20.636L234.725,281.199z M213.738,294.335l-18.417,18.416l-16.708-16.708l18.417-18.417L213.738,294.335z    M132.973,341.683l18.895-18.895l16.709,16.708l-18.895,18.896L132.973,341.683z M145.756,362.317l-18.895,18.895l-16.709-16.708   l18.895-18.895L145.756,362.317z M155.793,318.863l18.895-18.895l16.708,16.708l-18.895,18.895L155.793,318.863z M106.226,368.429   l16.709,16.708l-18.417,18.417l-16.709-16.708L106.226,368.429z M234.374,314.97L125.154,424.191l-16.711-16.711l18.417-18.417   l16.419,16.419l3.925-3.925l-16.419-16.419l18.895-18.895l16.419,16.419l3.925-3.925l-16.419-16.419l18.895-18.896l16.419,16.419   l3.925-3.925l-16.419-16.419L195.32,320.6l16.419,16.419l3.925-3.925l-16.419-16.419l18.417-18.416L234.374,314.97z"/>
	<path style="fill:#B3B3B3;" d="M276.426,231.646l3.925,3.925l13.357-13.357l20.636,20.636l117.071-117.072L386.22,80.582   L269.149,197.654l20.634,20.634L276.426,231.646z M314.345,234.999l-16.711-16.71l18.417-18.417l16.419,16.419l3.925-3.925   l-16.419-16.419l18.895-18.895l16.419,16.419l3.925-3.925l-16.419-16.419l18.895-18.895l16.419,16.419l3.925-3.925l-16.419-16.419   l18.895-18.895l16.418,16.419l3.925-3.925l-16.418-16.419l18.417-18.417l16.711,16.71L314.345,234.999z M357.767,150.307   l-18.895,18.895l-16.709-16.708l18.895-18.896L357.767,150.307z M344.983,129.673l18.896-18.895l16.709,16.709l-18.895,18.895   L344.983,129.673z M334.946,173.127l-18.895,18.895l-16.709-16.709l18.895-18.895L334.946,173.127z M402.929,105.144   l-18.417,18.417l-16.709-16.709l18.417-18.417L402.929,105.144z M276.999,197.655l18.417-18.417l16.709,16.709l-18.417,18.417   L276.999,197.655z"/>
</g>
<g>
	<polygon style="fill:#FFFFFF;" points="247.209,79.758 241.88,127.958 236.551,79.758 188.351,74.43 236.551,69.102 241.88,20.902    247.209,69.102 295.408,74.43  "/>
	<polygon style="fill:#FFFFFF;" points="74.253,291.587 69.651,333.216 65.049,291.587 23.421,286.984 65.049,282.383    69.651,240.754 74.253,282.383 115.881,286.984  "/>
	<polygon style="fill:#FFFFFF;" points="289.07,399.857 284.711,439.291 280.351,399.857 240.917,395.498 280.351,391.139    284.711,351.705 289.07,391.139 328.504,395.498  "/>
	
		<rect x="272.467" y="153.407" transform="matrix(-0.7071 -0.7071 0.7071 -0.7071 361.8362 467.0541)" style="fill:#FFFFFF;" width="10.362" height="10.362"/>
	
		<rect x="461.223" y="258.889" transform="matrix(-0.7071 -0.7071 0.7071 -0.7071 609.4769 780.5936)" style="fill:#FFFFFF;" width="10.362" height="10.362"/>
	
		<rect x="54.606" y="123.428" transform="matrix(-0.7071 -0.7071 0.7071 -0.7071 11.1227 261.8248)" style="fill:#FFFFFF;" width="10.362" height="10.362"/>
	
		<rect x="166.995" y="429.875" transform="matrix(-0.7071 -0.7071 0.7071 -0.7071 -13.7074 864.4348)" style="fill:#FFFFFF;" width="10.362" height="10.362"/>
	
		<rect x="446.793" y="193.826" transform="matrix(-0.7071 -0.7071 0.7071 -0.7071 630.8497 659.3211)" style="fill:#FFFFFF;" width="10.362" height="10.362"/>
	
		<rect x="123.24" y="220.027" transform="matrix(-0.7071 -0.7071 0.7071 -0.7071 59.983 475.262)" style="fill:#FFFFFF;" width="10.362" height="10.362"/>
	
		<rect x="351.752" y="246.674" transform="matrix(-0.7071 -0.7071 0.7071 -0.7071 431.2345 682.3337)" style="fill:#FFFFFF;" width="10.362" height="10.362"/>
</g>
<g>
</g>
<g>
</g>
<g>
</g>
<g>
</g>
<g>
</g>
<g>
</g>
<g>
</g>
<g>
</g>
<g>
</g>
<g>
</g>
<g>
</g>
<g>
</g>
<g>
</g>
<g>
</g>
<g>
</g>
</svg>
