<?xml version="1.0" encoding="iso-8859-1"?>
<!-- Generator: Adobe Illustrator 19.0.0, SVG Export Plug-In . SVG Version: 6.00 Build 0)  -->
<svg xmlns="http://www.w3.org/2000/svg" xmlns:xlink="http://www.w3.org/1999/xlink" version="1.1" id="Capa_1" x="0px" y="0px" viewBox="0 0 512 512" style="enable-background:new 0 0 512 512;" xml:space="preserve">
<path style="fill:#27536B;" d="M512,255.994c0,83.995-40.46,158.564-102.96,205.22c-3.509,2.631-7.084,5.163-10.726,7.606  C357.611,496.089,308.668,512,256.006,512c-15.533,0-30.745-1.388-45.523-4.03c-35.297-6.34-68.096-19.919-96.786-39.15  c-3.642-2.443-7.217-4.974-10.726-7.606C40.46,414.559,0,340.001,0,255.994C0,114.607,114.618,0,256.006,0  C397.382,0,512,114.607,512,255.994z"/>
<path style="fill:#E0634B;" d="M236.728,408.46c36.498,36.498,94.946,37.67,132.854,3.513  c41.29-37.204,41.842-101.927,2.542-141.228L136.829,35.45l30.186,70.433L67.833,6.702l83.37,155.241L43.397,71.386  C43.397,71.386,179.951,351.683,236.728,408.46z"/>
<path style="fill:#F77759;" d="M305.006,424.528c-22.531-0.001-43.712-8.774-59.641-24.705  c-39.889-39.889-84.23-149.886-126.533-233.448l112.613,126.105l-89.891-167.209l90.023,77.589l-34.42-81.053l166.331,157.576  c16.729,16.729,25.971,39.884,25.356,63.529c-0.605,23.288-10.349,44.592-27.436,59.988c-15.478,13.947-35.508,21.628-56.396,21.628  C305.008,424.528,305.008,424.528,305.006,424.528z"/>
<g>
	<polygon style="fill:#FFFFFF;" points="443.489,228.877 438.161,277.077 432.832,228.877 384.632,223.549 432.832,218.22    438.161,170.02 443.489,218.22 491.69,223.549  "/>
	<polygon style="fill:#FFFFFF;" points="102.212,279.288 98.122,316.285 94.033,279.288 57.036,275.198 94.033,271.108    98.122,234.112 102.212,271.108 139.208,275.198  "/>
	<polygon style="fill:#FFFFFF;" points="321.203,109.777 318.027,138.513 314.85,109.777 286.114,106.6 314.85,103.424    318.027,74.688 321.203,103.424 349.939,106.6  "/>
	
		<rect x="15.725" y="227.469" transform="matrix(-0.7071 -0.7071 0.7071 -0.7071 -128.8199 411.9422)" style="fill:#FFFFFF;" width="10.362" height="10.362"/>
	
		<rect x="226.397" y="93.487" transform="matrix(-0.7071 -0.7071 0.7071 -0.7071 325.5603 332.1876)" style="fill:#FFFFFF;" width="10.362" height="10.362"/>
	
		<rect x="71.541" y="372.598" transform="matrix(-0.7071 -0.7071 0.7071 -0.7071 -136.1562 699.1599)" style="fill:#FFFFFF;" width="10.362" height="10.362"/>
	
		<rect x="388.955" y="96.152" transform="matrix(-0.7071 -0.7071 0.7071 -0.7071 601.1785 451.6834)" style="fill:#FFFFFF;" width="10.362" height="10.362"/>
	
		<rect x="445.528" y="335.167" transform="matrix(-0.7071 -0.7071 0.7071 -0.7071 528.7461 899.7098)" style="fill:#FFFFFF;" width="10.362" height="10.362"/>
	
		<rect x="309.674" y="462.548" transform="matrix(-0.7071 -0.7071 0.7071 -0.7071 206.7567 1021.099)" style="fill:#FFFFFF;" width="10.362" height="10.362"/>
	
		<rect x="155.333" y="382.611" transform="matrix(-0.7071 -0.7071 0.7071 -0.7071 -0.1952 775.5044)" style="fill:#FFFFFF;" width="10.362" height="10.362"/>
	
		<rect x="329.66" y="157.217" transform="matrix(-0.7071 -0.7071 0.7071 -0.7071 456.7765 513.9987)" style="fill:#FFFFFF;" width="10.362" height="10.362"/>
</g>
<path style="fill:#E6E6E6;" d="M374.461,329.623c-0.006,0.017-0.011,0.032-0.011,0.054c-2.257,9.964-5.888,19.516-10.781,28.391  c-4.892,8.876-11.03,17.07-18.281,24.321c-14.099,14.099-31.779,23.997-51.068,28.673c-0.476,0.119-1.104,0.26-1.802,0.405  c-3.21,0.676-6.494-0.487-8.573-2.933c-0.303-0.358-0.578-0.731-0.823-1.137l-2.533-4.167l-26.752-43.994l-3.274-5.385l-4.487-7.377  c-3.041-5.001-2.267-11.435,1.868-15.57l45.958-45.958c4.135-4.135,10.565-4.903,15.566-1.862l7.377,4.487l5.385,3.274l10.661,6.483  l1.305,0.796l2.311,1.401l8.692,5.282l3.047,1.856l0.709,0.427l17.27,10.505l4.189,2.544c0.395,0.243,0.774,0.514,1.115,0.812  C374.017,323.042,375.191,326.381,374.461,329.623z"/>
<path style="fill:#CCCCCC;" d="M345.387,382.389c-14.099,14.099-31.779,23.997-51.068,28.673c-0.476,0.119-1.104,0.26-1.802,0.406  c-3.21,0.676-6.494-0.487-8.573-2.933c-0.303-0.358-0.58-0.731-0.823-1.137l-2.533-4.167l-26.752-43.994l-3.274-5.385l-4.487-7.377  c-3.042-5.001-2.267-11.435,1.866-15.57l7.869-7.869c-2.722,2.722-2.262,7.923,1.115,12.589l4.984,6.878l3.632,5.027l29.707,41.039  l2.809,3.892c0.271,0.379,0.563,0.736,0.877,1.083c2.143,2.382,5.065,3.907,7.609,3.896c0.552,0,1.05-0.011,1.423-0.027  C323.155,396.84,336.117,391.661,345.387,382.389z"/>
<g>
	<polygon style="fill:#B3B3B3;" points="322.229,290.846 253.838,359.237 250.564,353.852 316.844,287.572  "/>
	<polyline style="fill:#B3B3B3;" points="284.751,294.103 278.871,288.225 251.221,315.875 257.1,321.754  "/>
	<path style="fill:#B3B3B3;" d="M331.646,340.155c-8.784,10.184-18.306,19.707-28.491,28.491c-2.599,2.242-6.315,1.856-7.833-0.735   c-4.035-6.812-8.159-13.561-12.369-20.248c-1.302-2.084-0.89-4.805,0.943-6.433c7.178-6.367,13.969-13.157,20.335-20.335   c1.629-1.834,4.35-2.245,6.433-0.943c6.685,4.211,13.435,8.334,20.248,12.369C333.5,333.839,333.886,337.556,331.646,340.155z"/>
	
		<rect x="278.321" y="339.436" transform="matrix(-0.7998 0.6002 -0.6002 -0.7998 727.0125 492.5132)" style="fill:#B3B3B3;" width="6.123" height="56.091"/>
	
		<rect x="302.432" y="315.35" transform="matrix(-0.7998 -0.6003 0.6003 -0.7998 403.6516 771.4551)" style="fill:#B3B3B3;" width="56.094" height="6.124"/>
</g>
<path style="fill:#A1E5F7;" d="M312.521,336.458c3.361,3.361,3.166,9.011-0.444,12.621c-0.303,0.303-0.627,0.584-0.958,0.839  c-3.589,2.777-8.584,2.685-11.663-0.395c-3.079-3.079-3.166-8.07-0.39-11.657c0.254-0.33,0.535-0.655,0.838-0.958  C303.515,333.298,309.16,333.097,312.521,336.458z"/>
<g>
	<path style="fill:#61CCF2;" d="M310.719,338.26c3.074,3.074,3.167,8.07,0.401,11.657c-3.589,2.777-8.584,2.685-11.663-0.395   c-3.079-3.079-3.166-8.07-0.39-11.657C302.649,335.094,307.644,335.187,310.719,338.26z"/>
	<path style="fill:#61CCF2;" d="M348.245,306.665c0.119,1.407-0.217,2.76-1.055,3.869c-2.301,3.047-7.55,3.112-11.717,0.147   c-4.173-2.96-5.683-7.837-3.378-10.878c0.546-0.731,1.267-1.288,2.1-1.678l2.311,1.401l8.692,5.282L348.245,306.665z"/>
</g>
<path style="fill:#B3B3B3;" d="M371.527,320.952l-87.583,87.583c-0.303-0.358-0.578-0.731-0.823-1.137l-2.533-4.167l85.634-85.634  l4.189,2.544C370.808,320.385,371.186,320.655,371.527,320.952z"/>
<path style="fill:#E6E6E6;" d="M284.411,287.016l-34.4,34.4c-1.196,1.196-3.134,1.196-4.329,0c-1.196-1.196-1.196-3.134,0-4.329  l34.4-34.4c1.196-1.196,3.134-1.196,4.329,0C285.607,283.881,285.607,285.82,284.411,287.016z"/>
<path style="fill:#CCCCCC;" d="M312.888,349.891c-0.325,0.325-0.685,0.641-1.068,0.936c-4.076,3.153-9.741,2.942-13.176-0.493  c-3.432-3.432-3.641-9.095-0.485-13.172c0.294-0.382,0.61-0.742,0.935-1.067c4.049-4.049,10.437-4.251,14.239-0.449  C317.136,339.451,316.939,345.841,312.888,349.891z M300.717,337.719c-0.256,0.256-0.506,0.542-0.742,0.847  c-2.45,3.168-2.325,7.528,0.292,10.145c2.62,2.62,6.983,2.748,10.148,0.299c0.308-0.238,0.593-0.486,0.848-0.743  c3.154-3.154,3.353-8.088,0.443-10.997C308.802,334.364,303.871,334.565,300.717,337.719z"/>
<path style="fill:#B3B3B3;" d="M348.955,307.092c0.271,1.84-0.103,3.566-1.094,4.903c-0.184,0.249-0.379,0.476-0.59,0.687  c-0.964,0.964-2.257,1.597-3.788,1.829c-2.809,0.427-6.142-0.536-8.93-2.587c-2.787-2.04-4.703-4.93-5.131-7.739  c-0.292-1.872,0.087-3.572,1.083-4.935c0.601-0.828,1.418-1.482,2.387-1.921l3.615,2.197l-1.418,0.292  c-0.93,0.184-1.645,0.606-2.116,1.25c-0.638,0.866-0.644,1.921-0.531,2.651c0.314,2.024,1.775,4.167,3.924,5.743  c2.148,1.574,4.632,2.327,6.652,2.019c0.736-0.108,1.738-0.427,2.376-1.294c0.958-1.294,0.536-2.992,0.2-3.892l-0.535-1.435  l0.141-0.054L348.955,307.092z"/>
<path style="fill:#61CCF2;" d="M269.661,385.249c1.407,0.119,2.76-0.216,3.869-1.055c3.047-2.301,3.112-7.55,0.147-11.717  c-2.96-4.173-7.837-5.683-10.878-3.378c-0.731,0.546-1.288,1.267-1.678,2.1l1.401,2.311l5.282,8.692L269.661,385.249z"/>
<path style="fill:#B3B3B3;" d="M270.089,385.958c1.84,0.271,3.566-0.103,4.903-1.094c0.249-0.184,0.476-0.379,0.687-0.59  c0.964-0.964,1.597-2.257,1.829-3.788c0.427-2.809-0.536-6.142-2.587-8.93c-2.04-2.787-4.93-4.703-7.739-5.131  c-1.872-0.292-3.572,0.087-4.935,1.083c-0.828,0.601-1.482,1.418-1.921,2.387l2.197,3.615l0.292-1.418  c0.184-0.93,0.606-1.645,1.25-2.116c0.866-0.638,1.921-0.644,2.651-0.531c2.024,0.314,4.167,1.775,5.743,3.924  c1.574,2.148,2.327,4.632,2.019,6.652c-0.108,0.736-0.427,1.738-1.294,2.376c-1.294,0.958-2.993,0.536-3.892,0.2l-1.435-0.535  l-0.054,0.141L270.089,385.958z"/>
<g>
</g>
<g>
</g>
<g>
</g>
<g>
</g>
<g>
</g>
<g>
</g>
<g>
</g>
<g>
</g>
<g>
</g>
<g>
</g>
<g>
</g>
<g>
</g>
<g>
</g>
<g>
</g>
<g>
</g>
</svg>
