<?xml version="1.0" encoding="iso-8859-1"?>
<!-- Generator: Adobe Illustrator 19.0.0, SVG Export Plug-In . SVG Version: 6.00 Build 0)  -->
<svg xmlns="http://www.w3.org/2000/svg" xmlns:xlink="http://www.w3.org/1999/xlink" version="1.1" id="Capa_1" x="0px" y="0px" viewBox="0 0 512 512" style="enable-background:new 0 0 512 512;" xml:space="preserve">
<path style="fill:#27536B;" d="M511.998,255.992c0,69.039-27.336,131.693-71.77,177.738c-7.439,7.706-15.356,14.956-23.705,21.684  c-13.279,10.703-27.658,20.119-42.924,28.035c-0.011,0.011-0.022,0.011-0.033,0.022c-8.172,4.219-16.599,8.016-25.248,11.37  c-0.011,0.011-0.011,0-0.011,0c-28.635,11.081-59.757,17.154-92.3,17.154c-38.65,0-75.29-8.56-108.144-23.905  c-23.272-10.859-44.623-25.115-63.454-42.114l-0.011-0.011c-4.341-3.931-8.538-7.994-12.602-12.202l-0.011-0.011  c-44.446-46.044-71.781-108.71-71.781-177.76C0.002,114.606,114.619,0,256.006,0C397.381,0,511.998,114.606,511.998,255.992z"/>
<polygon style="fill:#FFFFFF;" points="446.128,207.266 494.327,201.938 446.128,196.61 440.799,148.41 435.471,196.61   387.272,201.938 435.471,207.266 440.799,255.466 "/>
<path style="fill:#51BEE5;" d="M470.296,324.214c0,40.015-10.97,77.466-30.067,109.521C393.685,481.988,328.343,512,256.007,512  S118.34,482,71.785,433.757c-9.216-15.467-16.544-32.199-21.651-49.864c-4.697-16.188-7.506-33.165-8.238-50.685  c-0.011-0.278-0.022-0.555-0.033-0.833c-0.1-2.709-0.155-5.429-0.155-8.161c0-9.504,0.622-18.864,1.821-28.035  c1.71-13.102,4.597-25.826,8.56-38.061c27.869-86.004,108.632-148.193,203.919-148.193c11.747,0,23.261,0.944,34.486,2.765  c25.948,4.197,50.33,13.046,72.27,25.681c57.636,33.176,98.384,92.4,106.167,161.605  C469.841,307.926,470.296,316.02,470.296,324.214z"/>
<path style="fill:#3EAECC;" d="M416.523,455.414c-43.902,35.397-99.739,56.581-160.517,56.581c-72.325,0-137.656-30-184.211-78.232  l-0.011-0.011c-17.798-29.867-28.535-64.431-29.923-101.382c-0.1-2.709-0.155-5.429-0.155-8.161c0-9.504,0.622-18.864,1.821-28.035  c1.71-13.102,4.597-25.826,8.56-38.061c14.734-45.456,44.235-84.261,82.862-110.753c-11.503,16.755-20.674,35.23-27.069,54.96  c-3.964,12.236-6.851,24.96-8.56,38.061c-1.199,9.171-1.821,18.531-1.821,28.035c0,2.731,0.056,5.452,0.155,8.161  c1.732,46.233,18.109,88.736,44.634,122.966c17.132,22.106,38.483,40.77,62.854,54.783c31.411,18.054,67.829,28.379,106.656,28.379  C349.826,482.706,385.556,472.791,416.523,455.414z"/>
<g>
	<path style="fill:#35BC58;" d="M290.492,112.685l-9.36,16.421c0,0-19.752,31.188-47.821,36.385   c-28.069,5.196-30.145,7.273-36.907,14.034c-6.751,6.751-18.187,7.794-18.187-4.674c0-12.48,8.316-23.916-5.718-18.198   c-14.034,5.718-24.427,8.838-14.034,19.231c10.392,10.392-17.676,4.164-12.469,20.796c5.196,16.632,10.126,18.964,2.598,26.503   c-7.539,7.539-11.958-3.642-19.752-3.642c-7.805,0-1.299,12.735-6.762,18.198c-3.964,3.964-15.056-0.3-23.028,4.841   c-2.998,1.932-5.552,5.207-7.117,10.748c-4.475,15.866-19.464,29.512-35.741,37.684c-4.186,2.098-8.461,3.842-12.669,5.163   c1.71-13.102,4.597-25.826,8.56-38.061c14.734-45.456,44.235-84.261,82.851-110.742c0.011,0,0.011-0.011,0.011-0.011   c34.442-23.616,76.134-37.44,121.057-37.44C267.753,109.92,279.266,110.864,290.492,112.685z"/>
	<path style="fill:#35BC58;" d="M173.61,432.198c1.421,8.671,6.584,22.128-0.333,29.046c-7.928,7.928-17.798,5.851-23.65,17.676   c-1.566,3.175-1.943,6.229-1.765,9.171c-23.272-10.859-44.623-25.115-63.454-42.114l-0.011-0.011   c-5.751-18.72-17.221-18.542-21.051-36.185c-3.853-17.72-7.128-50.586-21.484-77.411c-0.1-2.709-0.155-5.429-0.155-8.161   c0-9.504,0.622-18.864,1.821-28.035c1.71-13.102,4.597-25.826,8.56-38.061c3.964-1.743,6.584-2.698,6.584-2.698l0.522,24.949   c0,0-1.599,4.275-2.998,10.648c-2.754,12.502-4.719,33.098,7.672,45.489c5.196,5.196,12.469-3.12,21.829,1.033   c6.473,2.876,20.541,11.858,30.911,19.441c4.619,3.364,8.505,6.462,10.67,8.627c7.017,7.017,3.386,12.735,13.002,17.676   c9.615,4.941,41.581,14.034,41.581,25.47c0,11.436-8.583,11.947-8.583,20.008C173.277,429.777,173.399,430.932,173.61,432.198z"/>
	<path style="fill:#35BC58;" d="M468.929,299.971c-2.976,3.064-12.602,13.246-15.233,19.375c-3.12,7.272-16.632,3.631-12.991,12.469   c3.642,8.838,5.196,28.59-5.718,39.505c-10.914,10.914-16.111,20.274-16.111,36.907s-12.48,35.863-25.737,54.316   c-1.443,2.01-3.031,4.042-4.73,6.051c-4.441,5.296-9.615,10.47-14.811,14.856c-0.011,0.011-0.022,0.011-0.033,0.022   c-8.172,4.219-16.599,8.016-25.248,11.37c-0.011,0.011-0.011,0-0.011,0c-0.433-0.222-0.822-0.511-1.166-0.855   c-2.254-2.254-4.763-7.106-7.15-13.124c-5.296-13.368-9.993-32.488-9.993-41.448c0-13.002,6.751-16.122,6.751-27.547   c0-11.436-10.914-14.556-10.914-25.47s-6.24-16.632-11.958-22.35c-5.718-5.718-25.459,8.838-37.939,8.838   s-28.59-17.154-36.385-29.634c-7.794-12.469-5.463-54.838,10.392-66.53c15.855-11.692,20.274-24.427,20.274-24.427   c-20.274-13.002-4.153-35.863,2.598-42.625c6.762-6.762,26.514-3.642,30.667-7.794c4.164-4.164,0-11.436,0-18.709   c0-7.284,14.034-14.034,24.427-17.676c10.404-3.642,28.069-21.318,28.069-21.318l6.784-5.807   C420.398,171.542,461.146,230.766,468.929,299.971z"/>
</g>
<g>
	<path style="fill:#28A044;" d="M173.277,461.243c-7.928,7.928-17.798,5.851-23.65,17.676c-1.566,3.175-1.943,6.229-1.765,9.171   c-23.272-10.859-44.634-25.115-63.465-42.125c-5.751-18.72-17.221-18.542-21.051-36.185c-3.853-17.72-7.128-50.586-21.484-77.411   c-0.1-2.709-0.155-5.429-0.155-8.161c0-9.504,0.622-18.864,1.821-28.035c1.71-13.102,4.597-25.826,8.56-38.061   c14.734-45.456,44.235-84.261,82.851-110.742c-11.492,16.755-20.663,35.219-27.058,54.949c-3.964,12.236-6.851,24.96-8.56,38.061   c-0.1,0.733-0.189,1.466-0.266,2.198c-2.998,1.932-5.552,5.207-7.117,10.748c-4.475,15.866-19.464,29.512-35.741,37.684   c-2.754,12.502-4.719,33.098,7.672,45.489c5.196,5.196,12.469-3.12,21.829,1.033c6.473,2.876,20.541,11.858,30.911,19.441   c6.917,15.233,15.555,29.501,25.681,42.569c9.271,11.958,19.775,22.906,31.322,32.654   C175.031,440.869,180.194,454.326,173.277,461.243z"/>
	<path style="fill:#28A044;" d="M388.41,468.594c-4.441,5.296-9.615,10.47-14.811,14.856c0,0,0,0-0.011,0.011   c-8.183,4.219-16.61,8.028-25.271,11.381c-0.011,0.011-0.011,0-0.011,0c-0.433-0.222-0.822-0.511-1.166-0.855   c-2.254-2.254-4.763-7.106-7.15-13.124C356.821,478.653,373.043,474.489,388.41,468.594z"/>
</g>
<g>
	<polygon style="fill:#FFFFFF;" points="122.38,89.134 170.58,83.806 122.38,78.478 117.051,30.278 111.722,78.478 63.523,83.806    111.722,89.134 117.051,137.334  "/>
	
		<rect x="284.877" y="68.342" transform="matrix(-0.7071 -0.7071 0.7071 -0.7071 443.1713 330.6145)" style="fill:#FFFFFF;" width="10.362" height="10.362"/>
	
		<rect x="384.417" y="85.681" transform="matrix(-0.7071 -0.7071 0.7071 -0.7071 600.8359 430.5993)" style="fill:#FFFFFF;" width="10.362" height="10.362"/>
	
		<rect x="486.208" y="259.168" transform="matrix(-0.7071 -0.7071 0.7071 -0.7071 651.9305 798.737)" style="fill:#FFFFFF;" width="10.362" height="10.362"/>
	
		<rect x="31.73" y="220.017" transform="matrix(-0.7071 -0.7071 0.7071 -0.7071 -96.2277 410.5382)" style="fill:#FFFFFF;" width="10.362" height="10.362"/>
	
		<rect x="238.792" y="34.242" transform="matrix(-0.7071 -0.7071 0.7071 -0.7071 388.6115 239.8145)" style="fill:#FFFFFF;" width="10.362" height="10.362"/>
	<path style="fill:#FFFFFF;" d="M305.487,260.327l-35.807,56.048c0,0-123.16,131.149-224.719,39.849   c-1.248-1.121-2.492-2.275-3.732-3.46c-19.378-18.51-31.384-43.665-32.402-70.442C6.611,224.06,54.55,180.146,100.07,177.243   c-13.368,14.156-24.815,30.145-33.931,47.543c-3.02,4.519-5.329,9.382-6.906,14.445c-4.119,13.068-3.442,27.425,2.376,40.326   c0.122,0.266,0.244,0.533,0.366,0.811c12.413,27.003,87.17,80.031,187.475,15.766L305.487,260.327z"/>
</g>
<ellipse transform="matrix(-0.7071 -0.7071 0.7071 -0.7071 505.294 677.6855)" style="fill:#6FDD89;" cx="393" cy="234.193" rx="40.801" ry="24.148"/>
<g>
	<polyline style="fill:#F77759;" points="283.851,236.903 262.387,236.008 215.878,278.044 261.044,282.963  "/>
	<polyline style="fill:#F77759;" points="328.915,281.967 329.81,303.431 287.774,349.94 282.855,304.774  "/>
</g>
<path style="fill:#E6E6E6;" d="M340.324,277.818c-0.657,0.657-1.321,1.308-1.979,1.952c-19.01,18.42-40.087,30.641-58.057,34.955  c-3.683,0.892-7.238,1.442-10.612,1.65c-1.16-4.742-3.589-9.237-7.291-12.94c-3.71-3.71-8.204-6.138-12.946-7.298  c0.201-3.3,0.731-6.755,1.583-10.344c4.259-18.024,16.508-39.22,35.021-58.324c0.644-0.657,1.295-1.321,1.952-1.979  c3.286-3.287,6.634-6.379,10.035-9.283c28.535-24.403,59.995-35.001,78.019-26.435c8.566,18.024-2.039,49.477-26.442,78.012  C346.703,271.183,343.611,274.531,340.324,277.818z"/>
<path style="fill:#CCCCCC;" d="M312.42,230.595c-3.26,3.046-6.54,6.204-9.827,9.492c-0.657,0.657-1.308,1.321-1.959,1.972  c-18.674,18.943-33.426,37.637-41.522,51.825c-0.999,1.751-1.892,3.421-2.684,5.017c-2.221-1.255-4.574-2.173-6.989-2.764  c0.201-3.3,0.731-6.755,1.583-10.344c4.259-18.024,16.508-39.22,35.021-58.324c0.644-0.657,1.295-1.321,1.952-1.979  c3.286-3.287,6.634-6.379,10.035-9.283c28.535-24.403,59.995-35.001,78.019-26.435C365.445,188.623,339.801,205.038,312.42,230.595z  "/>
<path style="fill:#27536B;" d="M280.289,314.724c-3.683,0.892-7.238,1.442-10.612,1.65c-1.16-4.742-3.589-9.237-7.291-12.94  c-3.71-3.71-8.204-6.138-12.946-7.298c0.201-3.3,0.731-6.755,1.583-10.344l0.188-0.148L280.289,314.724z"/>
<g>
	<path style="fill:#F77759;" d="M340.324,277.818c-0.657,0.657-1.321,1.308-1.979,1.952l-52.301-52.301   c0.644-0.657,1.295-1.321,1.952-1.979c3.286-3.287,6.634-6.379,10.035-9.283l51.577,51.577   C346.703,271.183,343.611,274.531,340.324,277.818z"/>
	<path style="fill:#F77759;" d="M279.224,291.956c-15.986,15.986-22.788,20.385-24.27,18.904c-1.482-1.482,2.917-8.284,18.904-24.27   c15.986-15.986,30.147-27.744,31.629-26.263C306.969,261.809,295.21,275.97,279.224,291.956z"/>
</g>
<g>
</g>
<g>
</g>
<g>
</g>
<g>
</g>
<g>
</g>
<g>
</g>
<g>
</g>
<g>
</g>
<g>
</g>
<g>
</g>
<g>
</g>
<g>
</g>
<g>
</g>
<g>
</g>
<g>
</g>
</svg>
