<?xml version="1.0" encoding="iso-8859-1"?>
<!-- Generator: Adobe Illustrator 19.0.0, SVG Export Plug-In . SVG Version: 6.00 Build 0)  -->
<svg xmlns="http://www.w3.org/2000/svg" xmlns:xlink="http://www.w3.org/1999/xlink" version="1.1" id="Capa_1" x="0px" y="0px" viewBox="0 0 512 512" style="enable-background:new 0 0 512 512;" xml:space="preserve">
<path style="fill:#27536B;" d="M512,256.006c0,50.575-14.667,97.73-39.983,137.424c-8.294,13.013-17.743,25.226-28.18,36.496  C397.082,480.4,330.23,512,256.006,512c-41.415,0-80.542-9.837-115.151-27.303c-1.799-0.91-3.586-1.832-5.352-2.787  C92.212,458.783,56.36,423.574,32.421,380.794c-2.276-4.075-4.441-8.205-6.495-12.413c-12.147-24.804-20.397-51.863-23.95-80.387  c-0.433-3.486-0.799-6.984-1.088-10.515C0.3,270.406,0,263.234,0,256.006C0,114.618,114.618,0,256.006,0  C397.382,0,512,114.618,512,256.006z"/>
<g>
	<polygon style="fill:#FFFFFF;" points="127.269,117.142 131.703,157.262 136.139,117.142 176.258,112.707 136.139,108.271    131.703,68.152 127.269,108.271 87.149,112.707  "/>
	<polygon style="fill:#FFFFFF;" points="443.549,280.893 447.984,321.013 452.419,280.893 492.538,276.459 452.419,272.023    447.984,231.904 443.549,272.023 403.43,276.459  "/>
	
		<rect x="103.836" y="291.647" transform="matrix(0.7071 -0.7071 0.7071 0.7071 -177.959 164.0259)" style="fill:#FFFFFF;" width="10.362" height="10.362"/>
	
		<rect x="315.148" y="86.974" transform="matrix(0.7071 -0.7071 0.7071 0.7071 28.6588 253.4989)" style="fill:#FFFFFF;" width="10.362" height="10.362"/>
	
		<rect x="52.689" y="191.904" transform="matrix(0.7071 -0.7071 0.7071 0.7071 -122.4105 98.6455)" style="fill:#FFFFFF;" width="10.362" height="10.362"/>
	
		<rect x="207.566" y="38.676" transform="matrix(0.7071 -0.7071 0.7071 0.7071 31.3005 163.2808)" style="fill:#FFFFFF;" width="10.362" height="10.362"/>
</g>
<path style="fill:#F77759;" d="M417.382,274.257c0,9.603-1.015,18.971-2.951,27.997c-5.558,26.014-18.713,49.208-37.037,67.156  c-8.845,8.674-18.909,16.13-29.901,22.071c-11.195,6.066-23.351,10.571-36.186,13.233c-8.767,1.811-17.847,2.764-27.145,2.764  c-2.233,0-4.45-0.054-6.652-0.164c-25.115-1.234-48.396-9.423-67.96-22.687c-6.12-4.138-11.883-8.783-17.214-13.858  c-5.864-5.574-11.211-11.679-15.981-18.237c-15.919-21.891-25.342-48.825-25.412-77.945c0-0.617,0.008-1.226,0.008-1.842  c0.008-0.507,0.023-1.015,0.031-1.514c0.008-0.445,0.016-0.89,0.031-1.335c0.96-29.885,11.773-57.288,29.285-79.062  c3.373-4.193,6.987-8.174,10.837-11.921c16.957-16.551,38.317-28.621,62.16-34.273c6.699-1.592,13.592-2.67,20.634-3.209  c3.381-0.258,6.792-0.391,10.235-0.391c22.999,0,44.632,5.824,63.51,16.098c5.738,3.107,11.219,6.629,16.41,10.524  c5.028,3.771,9.774,7.893,14.209,12.328c2.171,2.171,4.27,4.411,6.277,6.73c9.619,11.008,17.456,23.609,23.047,37.364  C413.916,239.571,417.382,256.512,417.382,274.257z"/>
<path style="fill:#F9A24B;" d="M409.864,230.022c-21.492,28.659-48.224,59.466-78.812,90.047  c-30.861,30.869-61.957,57.812-90.843,79.405c-0.172,0.133-0.351,0.258-0.523,0.391c-9.088-3.217-17.714-7.386-25.764-12.398  c0.172-0.085,0.335-0.18,0.507-0.273h0.008c0.031-0.016,0.07-0.047,0.101-0.062c29.159-15.957,66.072-44.57,102.538-81.038  c36.107-36.107,64.51-72.645,80.561-101.664c3.849,6.222,7.19,12.795,9.977,19.65C408.412,226.04,409.161,228.016,409.864,230.022z"/>
<path style="fill:#C1533E;" d="M378.292,179.987c-4.435-4.435-9.181-8.556-14.209-12.328c-5.192-3.896-10.672-7.417-16.41-10.524  c0.258,0.469,0.57,0.898,0.953,1.28c8.275,8.26,3.951,27.645-9.822,52.847c-0.016,0.031-0.047,0.07-0.062,0.101  c-0.157,0.289-0.32,0.577-0.484,0.875c-16.052,29.019-44.454,65.556-80.561,101.664c-6.342,6.342-12.698,12.443-19.023,18.282  c-6.404,5.911-16.734,3.861-20.369-4.062c-7.747-16.885-12.07-35.666-12.07-55.459c0-35.944,14.24-68.57,37.38-92.529  c12.749-13.202,28.199-23.781,45.461-30.838c7.198-2.939,14.713-5.261,22.475-6.915c-9-1.92-18.334-2.938-27.907-2.938  c-17.832,0-34.835,3.505-50.379,9.853c-17.262,7.057-32.712,17.636-45.461,30.838c-23.14,23.96-37.38,56.586-37.38,92.529  c0,38.558,16.39,73.28,42.576,97.608c-0.221,0.164-0.445,0.334-0.666,0.497c5.332,5.074,11.094,9.72,17.214,13.858  c0.276-0.229,0.553-0.462,0.829-0.692c8.928,5.892,18.603,10.746,28.859,14.369c13.889,4.911,28.839,7.58,44.407,7.58  c9.568,0,18.9-1.015,27.898-2.932c-5.638-1.202-11.145-2.757-16.494-4.648c-15.583-5.504-29.839-13.835-42.142-24.366  c-0.663-0.567-1.32-1.14-1.971-1.72c-7.138-6.354-7.147-17.496-0.187-24.045c6.967-6.554,13.95-13.324,20.922-20.295  c30.588-30.58,57.319-61.387,78.812-90.047c0.195-0.265,0.399-0.531,0.593-0.796c13.304-17.793,24.577-34.757,33.493-50.316  C382.563,184.398,380.463,182.157,378.292,179.987z"/>
<path style="fill:#FCD57E;" d="M299.993,349.768c10.318-9.422,20.702-19.34,31.059-29.7c30.588-30.58,57.32-61.387,78.812-90.047  c0.195-0.265,0.399-0.531,0.593-0.796c46.616-62.363,68.343-114.482,50.879-131.948c-17.464-17.456-69.585,4.263-131.94,50.879  l-0.562,0.562c9.048,3.209,17.644,7.378,25.662,12.382l0.672-0.672c25.201-13.779,44.586-18.089,52.839-9.822  c8.275,8.26,3.951,27.645-9.821,52.847c-0.016,0.031-0.047,0.07-0.062,0.101c-0.157,0.289-0.32,0.577-0.484,0.875  c-16.052,29.019-44.454,65.556-80.561,101.664c-18.234,18.234-36.578,34.503-54.009,48.209"/>
<g>
	<path style="fill:#F9A52B;" d="M245.802,470.208L135.503,481.91C92.212,458.783,56.36,423.574,32.421,380.794   c-2.276-4.075-4.441-8.205-6.495-12.413c-12.147-24.804-20.397-51.863-23.95-80.387c32.765,12.413,63.976,30.189,92.278,53.328   c8.638,7.062,17.01,14.623,25.071,22.684L245.802,470.208z"/>
	<path style="fill:#F9A52B;" d="M472.017,393.429c-8.294,13.013-17.743,25.226-28.18,36.496   c-36.907,39.838-86.327,67.918-142.021,77.978C286.95,510.601,271.639,512,256.006,512c-41.415,0-80.542-9.837-115.151-27.303   c-45.69-23.039-83.518-59.369-108.433-103.903c-2.276-4.075-4.441-8.205-6.495-12.413c32.665-3.497,65.753-5.807,98.985-6.962   c2.354-0.078,4.708-0.155,7.062-0.222C247.856,357.744,365.183,368.492,472.017,393.429z"/>
</g>
<g>
	<path style="fill:#EA9628;" d="M301.817,507.903C286.95,510.601,271.639,512,256.006,512c-41.415,0-80.542-9.837-115.151-27.303   c-45.69-23.039-83.518-59.369-108.433-103.903c-2.276-4.075-4.441-8.205-6.495-12.413c32.665-3.497,65.753-5.807,98.985-6.962   c2.354-0.078,4.708-0.155,7.062-0.222l18.998,2.809C150.97,364.006,135.636,474.471,301.817,507.903z"/>
	<path style="fill:#EA9628;" d="M412.277,424.355c0-5.871-3.369-11.182-8.806-15.015c1.055,1.856,1.641,3.882,1.641,6.007   c0,8.868-10.118,16.057-22.599,16.057c-12.481,0-22.599-7.189-22.599-16.057c0-2.124,0.586-4.15,1.641-6.007   c-5.437,3.832-8.807,9.143-8.807,15.015c0,11.681,13.326,21.149,29.765,21.149C398.95,445.503,412.277,436.034,412.277,424.355z"/>
	<path style="fill:#EA9628;" d="M199.836,411.416c0-5.871-3.369-11.182-8.806-15.015c1.055,1.856,1.641,3.882,1.641,6.007   c0,8.868-10.118,16.057-22.599,16.057c-12.481,0-22.599-7.189-22.599-16.057c0-2.124,0.586-4.15,1.641-6.007   c-5.437,3.832-8.807,9.143-8.807,15.015c0,11.681,13.326,21.149,29.765,21.149C186.51,432.566,199.836,423.097,199.836,411.416z"/>
</g>
<g>
</g>
<g>
</g>
<g>
</g>
<g>
</g>
<g>
</g>
<g>
</g>
<g>
</g>
<g>
</g>
<g>
</g>
<g>
</g>
<g>
</g>
<g>
</g>
<g>
</g>
<g>
</g>
<g>
</g>
</svg>
