<?xml version="1.0" encoding="iso-8859-1"?>
<!-- Generator: Adobe Illustrator 19.0.0, SVG Export Plug-In . SVG Version: 6.00 Build 0)  -->
<svg xmlns="http://www.w3.org/2000/svg" xmlns:xlink="http://www.w3.org/1999/xlink" version="1.1" id="Capa_1" x="0px" y="0px" viewBox="0 0 512 512" style="enable-background:new 0 0 512 512;" xml:space="preserve">
<path style="fill:#27536B;" d="M512,255.994c0,69.039-27.336,131.695-71.771,177.739c-7.439,7.706-15.356,14.956-23.705,21.684  c-13.279,10.703-27.658,20.119-42.925,28.035c-0.011,0.011-0.022,0.011-0.033,0.022c-8.172,4.219-16.599,8.017-25.249,11.37h-0.011  C319.671,505.927,288.549,512,256.006,512c-38.65,0-75.291-8.561-108.145-23.905c-23.272-10.859-44.624-25.115-63.455-42.114  l-0.011-0.011c-4.341-3.931-8.538-7.994-12.602-12.202l-0.011-0.011C27.336,387.711,0,325.045,0,255.994  c0-6.495,0.244-12.935,0.722-19.308C10.592,104.314,121.113,0,256.006,0C390.987,0,501.574,104.47,511.3,236.975  C511.767,243.259,512,249.599,512,255.994z"/>
<g>
	<polygon style="fill:#FFFFFF;" points="398.609,141.763 446.809,136.435 398.609,131.106 393.281,82.906 387.952,131.106    339.751,136.435 387.952,141.763 393.281,189.964  "/>
	<polygon style="fill:#FFFFFF;" points="185.462,61.621 233.662,56.293 185.462,50.965 180.132,2.765 174.804,50.965    126.604,56.293 174.804,61.621 180.132,109.821  "/>
</g>
<path style="fill:#F9B55A;" d="M470.297,324.212c0,10.359-0.733,20.552-2.165,30.523c-4.064,28.524-13.746,55.249-27.902,78.999  C393.685,481.988,328.343,512,256.006,512s-137.668-30.001-184.224-78.244c-0.167-0.278-0.333-0.555-0.489-0.833  c-17.51-29.679-28.058-63.943-29.434-100.55c-0.1-2.709-0.155-5.429-0.155-8.161c0-9.504,0.622-18.864,1.821-28.035  c1.71-13.102,4.597-25.826,8.561-38.062c27.869-86.005,108.633-148.194,203.921-148.194c11.747,0,23.261,0.944,34.486,2.765  c25.038,4.053,48.61,12.424,69.939,24.36c0.777,0.433,1.554,0.877,2.332,1.321c10.803,6.218,21.007,13.357,30.523,21.296  c41.226,34.431,69.317,84.073,75.646,140.311C469.841,307.924,470.297,316.018,470.297,324.212z"/>
<path style="fill:#EFAA56;" d="M416.524,455.418C372.622,490.815,316.784,512,256.006,512c-72.326,0-137.657-30.001-184.213-78.233  l-0.011-0.011c-15.156-25.437-25.193-54.272-28.679-85.095c-0.622-5.374-1.033-10.803-1.244-16.288  c-0.1-2.709-0.155-5.429-0.155-8.161c0-9.504,0.622-18.864,1.821-28.035c1.71-13.102,4.597-25.826,8.561-38.062  c14.734-45.456,44.235-84.262,82.863-110.754c-11.503,16.755-20.674,35.23-27.069,54.961c-3.964,12.236-6.851,24.96-8.561,38.062  c-1.199,9.171-1.821,18.531-1.821,28.035c0,2.731,0.056,5.452,0.155,8.161c1.732,46.234,18.109,88.736,44.635,122.967  c17.132,22.106,38.484,40.771,62.855,54.783c31.411,18.054,67.829,28.38,106.657,28.38  C349.827,482.71,385.557,472.795,416.524,455.418z"/>
<g>
	
		<rect x="32.129" y="173.219" transform="matrix(-0.7071 -0.7071 0.7071 -0.7071 -62.4554 330.9298)" style="fill:#FFFFFF;" width="10.362" height="10.362"/>
	
		<rect x="100.462" y="88.279" transform="matrix(-0.7071 -0.7071 0.7071 -0.7071 114.2578 234.2473)" style="fill:#FFFFFF;" width="10.362" height="10.362"/>
	
		<rect x="488.634" y="201.529" transform="matrix(-0.7071 -0.7071 0.7071 -0.7071 696.8287 702.0569)" style="fill:#FFFFFF;" width="10.362" height="10.362"/>
	
		<rect x="14.345" y="293.121" transform="matrix(-0.7071 -0.7071 0.7071 -0.7071 -177.598 523.0416)" style="fill:#FFFFFF;" width="10.362" height="10.362"/>
	
		<rect x="119.26" y="116.6" transform="matrix(-0.7071 -0.7071 0.7071 -0.7071 126.3216 295.8865)" style="fill:#FFFFFF;" width="10.362" height="10.362"/>
	
		<rect x="341.89" y="64.975" transform="matrix(-0.7071 -0.7071 0.7071 -0.7071 542.8794 365.1812)" style="fill:#FFFFFF;" width="10.362" height="10.362"/>
</g>
<ellipse transform="matrix(-0.7071 -0.7071 0.7071 -0.7071 485.2985 599.1561)" style="fill:#F9C280;" cx="366.739" cy="199.069" rx="41.776" ry="24.725"/>
<path style="fill:#EFAA56;" d="M316.29,171.089c-5.885,5.885-7.831,14.585-6.222,23.876c0.803-2.917,2.246-5.536,4.376-7.665  c8.889-8.889,26.237-5.954,38.747,6.558c12.51,12.51,15.446,29.858,6.558,38.747c-2.13,2.13-4.748,3.573-7.665,4.376  c9.291,1.609,17.992-0.338,23.876-6.222c11.707-11.707,7.841-34.555-8.636-51.032C350.845,163.248,327.997,159.381,316.29,171.089z"/>
<g>
	<path style="fill:#F9B55A;" d="M127.875,433.984c4.896-4.896,6.516-12.137,5.177-19.868c-0.668,2.427-1.87,4.607-3.642,6.378   c-7.397,7.397-21.832,4.954-32.242-5.456c-10.41-10.41-12.853-24.846-5.456-32.242c1.772-1.772,3.951-2.973,6.379-3.642   c-7.731-1.339-14.971,0.281-19.868,5.177c-9.742,9.742-6.524,28.755,7.186,42.465S118.133,443.726,127.875,433.984z"/>
	<path style="fill:#F9B55A;" d="M173.447,451.034c1.941-1.941,2.583-4.809,2.052-7.872c-0.264,0.962-0.741,1.825-1.442,2.527   c-2.931,2.931-8.65,1.963-12.775-2.162c-4.125-4.125-5.093-9.844-2.162-12.775c0.702-0.702,1.566-1.178,2.527-1.442   c-3.063-0.531-5.932,0.111-7.872,2.052c-3.861,3.861-2.585,11.393,2.848,16.826C162.054,453.618,169.587,454.894,173.447,451.034z"/>
</g>
<g>
	<path style="fill:#EFAA56;" d="M371.387,270.325c-4.151,4.151-5.525,10.289-4.39,16.843c0.566-2.059,1.584-3.905,3.087-5.407   c6.271-6.271,18.509-4.2,27.335,4.626c8.826,8.826,10.897,21.064,4.626,27.335c-1.502,1.502-3.35,2.52-5.407,3.087   c6.554,1.135,12.692-0.238,16.844-4.39c8.26-8.26,5.532-24.378-6.092-36.002C395.765,264.794,379.647,262.066,371.387,270.325z"/>
	<path style="fill:#EFAA56;" d="M383.033,363.153c-5.771,1.076-10.376,5.361-13.147,11.407c1.631-1.377,3.516-2.324,5.605-2.714   c8.718-1.624,17.64,7.006,19.926,19.276c2.286,12.27-2.928,23.534-11.646,25.159c-2.089,0.389-4.188,0.184-6.206-0.513   c4.763,4.643,10.601,6.983,16.374,5.907c11.483-2.14,18.35-16.975,15.339-33.135C406.266,372.381,394.515,361.014,383.033,363.153z   "/>
	<path style="fill:#EFAA56;" d="M406.799,212.467c-1.874,1.874-2.495,4.646-1.982,7.606c0.255-0.929,0.716-1.763,1.393-2.442   c2.831-2.831,8.357-1.896,12.342,2.089c3.985,3.985,4.92,9.511,2.089,12.342c-0.678,0.678-1.512,1.138-2.442,1.393   c2.959,0.513,5.73-0.108,7.606-1.982c3.73-3.73,2.497-11.007-2.751-16.255S410.528,208.738,406.799,212.467z"/>
	<path style="fill:#EFAA56;" d="M407.639,244.473c-1.874,1.874-2.495,4.646-1.982,7.606c0.255-0.929,0.716-1.763,1.393-2.442   c2.831-2.831,8.357-1.896,12.342,2.089c3.985,3.985,4.92,9.511,2.089,12.342c-0.678,0.678-1.512,1.138-2.442,1.393   c2.959,0.513,5.73-0.108,7.606-1.982c3.73-3.73,2.497-11.007-2.751-16.255C418.647,241.974,411.369,240.743,407.639,244.473z"/>
	<path style="fill:#EFAA56;" d="M267.562,290.018c-13.876,13.876-13.876,36.372,0,50.247c-10.189-10.189-10.189-26.711,0-36.9   s26.711-10.189,36.9,0c10.189,10.189,10.189,26.711,0,36.9c-10.189,10.189-26.711,10.189-36.9,0   c13.876,13.876,36.372,13.876,50.247,0c13.876-13.876,13.876-36.372,0-50.247C303.933,276.142,281.437,276.142,267.562,290.018z"/>
	<path style="fill:#EFAA56;" d="M210.71,177.461c-22.254,12.267-30.35,40.251-18.084,62.505   c-9.008-16.343-3.063-36.894,13.28-45.903c16.343-9.008,36.894-3.063,45.903,13.279c9.008,16.343,3.063,36.894-13.279,45.903   c-16.343,9.009-36.894,3.063-45.903-13.28c12.267,22.254,40.251,30.35,62.505,18.084c22.254-12.267,30.35-40.251,18.084-62.505   C260.949,173.29,232.964,165.194,210.71,177.461z"/>
</g>
<path style="fill:#51BEE5;" d="M314.181,57.226c0,6.751-2.443,12.935-6.484,17.721c-5.041,5.973-12.569,9.76-20.985,9.76  c-4.13,0-8.039-0.91-11.547-2.543c-9.404-4.352-15.933-13.89-15.933-24.938c0-6.473,2.243-12.424,5.996-17.121  c5.03-6.318,12.78-10.359,21.485-10.359c3.686,0,7.217,0.733,10.426,2.054C307.141,35.897,314.181,45.745,314.181,57.226z"/>
<path style="fill:#3EAECC;" d="M297.26,75.823c-4.13,0-8.039-0.91-11.547-2.543c-9.404-4.352-15.933-13.89-15.933-24.938  c0-5.942,1.906-11.433,5.121-15.929c-3.782,1.804-7.088,4.443-9.673,7.69c-3.753,4.697-5.996,10.648-5.996,17.121  c0,11.048,6.529,20.585,15.933,24.938c3.509,1.632,7.417,2.543,11.547,2.543c8.416,0,15.944-3.786,20.985-9.76  c0.489-0.58,0.953-1.18,1.393-1.799C305.507,74.862,301.496,75.823,297.26,75.823z"/>
<g>
	<path style="fill:#35BC58;" d="M273.254,76.423c0.511,1.732,1.166,3.697,1.91,5.74c-9.404-4.352-15.933-13.89-15.933-24.938   c0-6.473,2.243-12.424,5.996-17.121c1.632,0.933,3.386,2.065,4.996,3.342c3.187,2.52,5.807,5.64,5.807,9.105   c0,3.908-1.077,7.173-2.043,10.404C272.756,67.074,271.7,71.138,273.254,76.423z"/>
	<path style="fill:#35BC58;" d="M314.181,57.226c0,6.751-2.443,12.935-6.484,17.721c-2.354-1.388-4.43-3.109-5.574-5.185   c-3.886-7.017,3.886-12.213,3.886-18.043s-11.381,0-18.32-6.939c-4.397-4.397,3.253-9.693,9.449-12.98   C307.141,35.897,314.181,45.745,314.181,57.226z"/>
</g>
<path style="fill:#2CA849;" d="M275.164,82.163c-9.404-4.352-15.933-13.89-15.933-24.938c0-6.473,2.243-12.424,5.996-17.121  c1.632,0.933,3.386,2.065,4.996,3.342c-0.289,1.588-0.444,3.231-0.444,4.896c0,5.363,1.543,10.381,4.208,14.612  c-1.232,4.119-2.287,8.183-0.733,13.468C273.765,78.155,274.421,80.12,275.164,82.163z"/>
<g>
</g>
<g>
</g>
<g>
</g>
<g>
</g>
<g>
</g>
<g>
</g>
<g>
</g>
<g>
</g>
<g>
</g>
<g>
</g>
<g>
</g>
<g>
</g>
<g>
</g>
<g>
</g>
<g>
</g>
</svg>
