<?xml version="1.0" encoding="iso-8859-1"?>
<!-- Generator: Adobe Illustrator 19.0.0, SVG Export Plug-In . SVG Version: 6.00 Build 0)  -->
<svg xmlns="http://www.w3.org/2000/svg" xmlns:xlink="http://www.w3.org/1999/xlink" version="1.1" id="Capa_1" x="0px" y="0px" viewBox="0 0 511.989 511.989" style="enable-background:new 0 0 511.989 511.989;" xml:space="preserve">
<circle style="fill:#27536B;" cx="255.994" cy="255.994" r="255.994"/>
<g>
	<polygon style="fill:#FFFFFF;" points="154.192,444.713 158.281,481.709 162.371,444.713 199.367,440.623 162.371,436.533    158.281,399.536 154.192,436.533 117.195,440.623  "/>
	<polygon style="fill:#FFFFFF;" points="464.779,199.636 468.647,234.625 472.515,199.636 507.504,195.769 472.515,191.9    468.647,156.911 464.779,191.9 429.79,195.769  "/>
	
		<rect x="278.657" y="445.034" transform="matrix(0.7071 -0.7071 0.7071 0.7071 -235.2162 332.5687)" style="fill:#FFFFFF;" width="10.362" height="10.362"/>
	
		<rect x="337.611" y="40.347" transform="matrix(0.7071 -0.7071 0.7071 0.7071 68.2081 255.7255)" style="fill:#FFFFFF;" width="10.362" height="10.362"/>
	
		<rect x="423.538" y="390.384" transform="matrix(0.7071 -0.7071 0.7071 0.7071 -154.1381 419.009)" style="fill:#FFFFFF;" width="10.362" height="10.362"/>
	
		<rect x="205.751" y="75.464" transform="matrix(0.7071 -0.7071 0.7071 0.7071 4.756 172.7719)" style="fill:#FFFFFF;" width="10.362" height="10.362"/>
	
		<rect x="76.062" y="366.589" transform="matrix(0.7071 -0.7071 0.7071 0.7071 -239.0859 166.3366)" style="fill:#FFFFFF;" width="10.362" height="10.362"/>
	
		<rect x="452.902" y="333.944" transform="matrix(0.7071 -0.7071 0.7071 0.7071 -105.6285 423.2413)" style="fill:#FFFFFF;" width="10.362" height="10.362"/>
	
		<rect x="83.925" y="138.258" transform="matrix(0.7071 -0.7071 0.7071 0.7071 -75.3281 105.0198)" style="fill:#FFFFFF;" width="10.362" height="10.362"/>
</g>
<path style="fill:#333333;" d="M454.448,242.643c-10.177,57.245-49.612,109.401-104.948,129.755  c-6.361,1.909-12.085,3.816-18.446,5.089c-8.905,1.272-17.809,3.18-26.714,3.18c-8.269-0.636-16.537-0.636-25.442-2.544  c-8.269-1.909-15.266-3.816-22.898-6.996c-5.089-1.909-9.541-4.452-13.993-6.996c-4.452-2.544-8.269-5.725-12.085-8.905  c-5.725-4.452-10.177-8.905-14.63-14.63c-8.269-10.813-13.357-21.626-16.537-34.983c-1.272-7.632-1.909-15.266-1.272-22.898  c0.636-5.089,2.544-10.177,3.816-15.266c-29.258,24.17-21.626,68.693-0.636,96.68c9.541,12.085,19.082,21.626,31.803,29.894  c9.541,5.725,19.718,10.177,29.894,13.993c27.35,9.541,55.336,10.177,83.959,3.816c6.996-1.909,13.357-3.18,20.353-5.725  c3.18-1.272,6.996-2.544,10.177-3.816c6.996-3.18,13.357-5.725,19.718-9.541c3.18-1.909,6.361-3.816,9.541-5.725  c-52.792,36.891-125.302,45.16-182.547,8.269c-5.089-3.816-9.541-6.996-14.63-10.813c-4.452-3.816-8.269-8.269-12.721-12.721  c-3.816-4.452-6.996-8.269-10.177-13.357c-3.18-4.452-5.725-8.905-8.269-13.993c-1.272-2.544-1.909-4.452-3.18-6.996  c-7.632-20.353-10.177-41.98-4.452-63.606c3.18-12.085,8.905-22.898,17.173-32.439c3.816-3.816,7.632-7.632,12.721-10.813  c3.18-1.909,6.361-3.816,9.541-5.089c-32.439-4.452-57.881,25.442-66.149,54.701c-1.909,6.361-3.18,12.721-3.816,19.718  c-0.636,6.996-0.636,14.63,0,21.626c1.272,16.537,5.725,31.803,13.357,46.431c4.452,8.269,8.269,15.266,13.993,22.898  c5.725,7.632,12.085,14.63,19.082,20.989c5.089,4.452,10.177,8.269,15.266,12.721c2.544,1.909,5.089,3.816,8.269,5.725  c19.082,12.085,38.163,20.353,59.788,24.17c-57.245-10.177-109.401-49.612-129.755-104.948c-1.909-6.361-3.816-12.085-5.089-18.446  c-1.272-8.905-3.18-17.809-3.18-26.714c0.636-8.268,0.636-16.537,2.544-25.442c1.909-8.269,3.816-15.266,6.996-22.898  c1.909-5.089,4.452-9.541,6.996-13.993s5.725-8.269,8.905-12.085c4.452-5.725,8.905-10.177,14.63-14.63  c10.813-8.269,21.626-13.357,34.983-16.537c7.632-1.272,15.266-1.909,22.898-1.272c5.089,0.636,10.177,2.544,15.266,3.816  c-24.17-29.258-68.693-21.626-96.68-0.636c-12.085,9.541-21.626,19.082-29.894,31.803c-5.725,9.541-10.177,19.718-13.993,29.894  c-9.541,27.35-10.177,55.336-3.816,83.959c1.909,6.996,3.18,13.357,5.725,20.353c1.272,3.18,2.544,6.996,3.816,10.177  c3.18,6.996,5.725,13.357,9.541,19.718c1.909,3.18,3.816,6.361,5.725,9.541c-36.891-52.792-45.16-125.302-8.269-182.547  c3.816-5.089,6.996-9.541,10.813-14.63c3.816-4.452,8.269-8.269,12.721-12.721c4.452-3.816,8.269-6.996,13.357-10.177  c4.452-3.18,8.905-5.725,13.993-8.269c2.544-1.272,4.452-1.909,6.996-3.18c20.353-7.632,41.98-10.177,63.606-4.452  c12.085,3.18,22.898,8.905,32.439,17.173c3.816,3.816,7.632,7.632,10.813,12.721c1.909,3.18,3.816,6.361,5.089,9.541  c4.452-32.439-25.442-57.881-54.701-66.149c-6.361-1.909-12.721-3.18-19.718-3.816c-6.996-0.636-14.63-0.636-21.626,0  c-16.537,1.272-31.803,5.725-46.431,13.357c-8.269,4.452-15.266,8.269-22.898,13.993c-7.632,5.725-14.63,12.085-20.989,19.082  c-4.452,5.089-8.269,10.177-12.721,15.266c-1.909,2.544-3.816,5.089-5.725,8.269c-12.085,19.082-20.353,38.163-24.17,59.788  c10.177-57.245,49.612-109.401,104.948-129.755c6.361-1.909,12.085-3.816,18.446-5.089c8.905-1.272,17.809-3.18,26.714-3.18  c8.269,0.636,16.537,0.636,25.442,2.544c8.269,1.909,15.266,3.816,22.898,6.996c5.089,1.909,9.541,4.452,13.993,6.996  c4.452,2.544,8.269,5.725,12.085,8.905c5.725,4.452,10.177,8.905,14.63,14.63c8.269,10.813,13.357,21.626,16.537,34.983  c1.272,7.632,1.909,15.266,1.272,22.898c-0.636,5.089-2.544,10.177-3.816,15.266c29.258-24.17,21.626-68.693,0.636-96.68  c-9.541-12.085-19.082-21.626-31.803-29.894c-9.541-5.725-19.718-10.177-29.894-13.993c-27.35-9.541-55.336-10.177-83.959-3.816  c-6.996,1.909-13.357,3.18-20.353,5.725c-3.18,1.272-6.996,2.544-10.177,3.816c-6.996,3.18-13.357,5.725-19.718,9.541  c-3.18,1.909-6.361,3.816-9.541,5.725c52.792-36.891,125.302-45.16,182.547-8.269c5.089,3.816,9.541,6.996,14.63,10.813  c4.452,3.816,8.269,8.269,12.721,12.721c3.816,4.452,6.996,8.269,10.177,13.357c3.18,4.452,5.725,8.905,8.269,13.993  c1.272,2.544,1.909,4.452,3.18,6.996c7.632,20.353,10.177,41.98,4.452,63.606c-3.18,12.085-8.905,22.898-17.173,32.439  c-3.816,3.816-7.632,7.632-12.721,10.813c-3.18,1.909-6.361,3.816-9.541,5.089c32.439,4.452,57.881-25.442,66.149-54.701  c1.909-6.361,3.18-12.721,3.816-19.718c0.636-6.996,0.636-14.63,0-21.626c-1.272-16.537-5.725-31.803-13.357-46.431  c-4.452-8.269-8.269-15.266-13.993-22.898s-12.085-14.63-19.082-20.989c-5.089-4.452-10.177-8.269-15.266-12.721  c-2.544-1.909-5.089-3.816-8.268-5.725c-19.082-12.085-38.163-20.353-59.788-24.17c57.245,10.177,109.401,49.612,129.755,104.948  c1.909,6.361,3.816,12.085,5.089,18.446c1.272,8.905,3.18,17.809,3.18,26.714c-0.636,8.269-0.636,16.537-2.544,25.442  c-1.909,8.269-3.816,15.266-6.996,22.898c-1.909,5.089-4.452,9.541-6.996,13.993c-2.544,4.452-5.725,8.269-8.905,12.085  c-4.452,5.725-8.905,10.177-14.63,14.63c-10.813,8.268-21.626,13.357-34.983,16.537c-7.632,1.272-15.266,1.909-22.898,1.272  c-5.089-0.636-10.177-2.544-15.266-3.816c24.17,29.258,68.693,21.626,96.68,0.636c12.085-9.541,21.626-19.082,29.894-31.803  c5.725-9.541,10.177-19.718,13.993-29.894c9.541-27.35,10.177-55.336,3.816-83.959c-1.909-6.996-3.18-13.357-5.725-20.353  c-1.272-3.18-2.544-6.996-3.816-10.177c-3.18-6.996-5.725-13.357-9.541-19.718c-1.909-3.18-3.816-6.361-5.725-9.541  c36.891,52.792,45.16,125.302,8.269,182.547c-3.816,5.089-6.996,9.541-10.813,14.63c-3.816,4.452-8.269,8.269-12.721,12.721  c-4.452,3.816-8.269,6.996-13.357,10.177c-4.452,3.18-8.905,5.725-13.993,8.268c-2.544,1.272-4.452,1.909-6.996,3.18  c-20.353,7.632-41.98,10.177-63.606,4.452c-12.085-3.18-22.898-8.905-32.439-17.173c-3.816-3.816-7.632-7.632-10.813-12.721  c-1.909-3.18-3.816-6.361-5.089-9.541c-4.452,32.439,25.442,57.881,54.701,66.149c6.361,1.909,12.721,3.18,19.718,3.816  c6.996,0.636,14.63,0.636,21.626,0c16.537-1.272,31.803-5.725,46.431-13.357c8.268-4.452,15.266-8.268,22.898-13.993  c7.632-5.725,14.63-12.085,20.989-19.082c4.452-5.089,8.269-10.177,12.721-15.266c1.909-2.544,3.816-5.089,5.725-8.269  C442.363,283.35,450.632,264.268,454.448,242.643L454.448,242.643z"/>
<g>
</g>
<g>
</g>
<g>
</g>
<g>
</g>
<g>
</g>
<g>
</g>
<g>
</g>
<g>
</g>
<g>
</g>
<g>
</g>
<g>
</g>
<g>
</g>
<g>
</g>
<g>
</g>
<g>
</g>
</svg>
