<?xml version="1.0" encoding="iso-8859-1"?>
<!-- Generator: Adobe Illustrator 19.0.0, SVG Export Plug-In . SVG Version: 6.00 Build 0)  -->
<svg xmlns="http://www.w3.org/2000/svg" xmlns:xlink="http://www.w3.org/1999/xlink" version="1.1" id="Capa_1" x="0px" y="0px" viewBox="0 0 511.989 511.989" style="enable-background:new 0 0 511.989 511.989;" xml:space="preserve">
<circle style="fill:#27536B;" cx="255.994" cy="255.994" r="255.994"/>
<g>
	
		<rect x="229.762" y="425.447" transform="matrix(-0.7071 -0.7071 0.7071 -0.7071 96.5736 901.259)" style="fill:#FFFFFF;" width="10.362" height="10.362"/>
	
		<rect x="353.007" y="353.273" transform="matrix(-0.7071 -0.7071 0.7071 -0.7071 358.0002 865.1969)" style="fill:#FFFFFF;" width="10.362" height="10.362"/>
	
		<rect x="346.131" y="453.207" transform="matrix(-0.7071 -0.7071 0.7071 -0.7071 275.5978 1030.9326)" style="fill:#FFFFFF;" width="10.362" height="10.362"/>
	
		<rect x="84.764" y="85.251" transform="matrix(-0.7071 -0.7071 0.7071 -0.7071 89.6011 217.9789)" style="fill:#FFFFFF;" width="10.362" height="10.362"/>
	
		<rect x="98.09" y="411.019" transform="matrix(-0.7071 -0.7071 0.7071 -0.7071 -118.0028 783.5229)" style="fill:#FFFFFF;" width="10.362" height="10.362"/>
	
		<rect x="122.357" y="301.494" transform="matrix(-0.7071 -0.7071 0.7071 -0.7071 0.8687 613.7111)" style="fill:#FFFFFF;" width="10.362" height="10.362"/>
	
		<rect x="277.973" y="98.059" transform="matrix(-0.7071 -0.7071 0.7071 -0.7071 410.3727 376.4628)" style="fill:#FFFFFF;" width="10.362" height="10.362"/>
	
		<rect x="217.996" y="23.964" transform="matrix(-0.7071 -0.7071 0.7071 -0.7071 360.3785 207.565)" style="fill:#FFFFFF;" width="10.362" height="10.362"/>
	
		<rect x="397.678" y="86.198" transform="matrix(-0.7071 -0.7071 0.7071 -0.7071 623.1082 440.8592)" style="fill:#FFFFFF;" width="10.362" height="10.362"/>
	<polygon style="fill:#FFFFFF;" points="446.492,165.265 472.244,162.418 446.492,159.571 443.646,133.82 440.799,159.571    415.047,162.418 440.799,165.265 443.646,191.017  "/>
	<polygon style="fill:#FFFFFF;" points="417.482,288.51 443.234,285.663 417.482,282.816 414.635,257.065 411.788,282.816    386.038,285.663 411.788,288.51 414.635,314.262  "/>
	<polygon style="fill:#FFFFFF;" points="305.34,290.873 331.092,288.026 305.34,285.179 302.493,259.428 299.647,285.179    273.896,288.026 299.647,290.873 302.493,316.624  "/>
	<polygon style="fill:#FFFFFF;" points="191.12,247.428 216.871,244.582 191.12,241.735 188.273,215.983 185.426,241.735    159.675,244.582 185.426,247.428 188.273,273.18  "/>
	<polygon style="fill:#FFFFFF;" points="51.22,266.304 76.972,263.457 51.22,260.61 48.373,234.858 45.526,260.61 19.775,263.457    45.526,266.304 48.373,292.055  "/>
	<polygon style="fill:#FFFFFF;" points="266.862,208.908 286.218,206.769 266.862,204.629 264.723,185.273 262.583,204.629    243.226,206.769 262.583,208.908 264.723,228.265  "/>
	<polygon style="fill:#FFFFFF;" points="113.174,194.763 132.532,192.623 113.174,190.482 111.035,171.126 108.895,190.482    89.539,192.623 108.895,194.763 111.035,214.119  "/>
	
		<rect x="424.693" y="202.452" transform="matrix(-0.9731 -0.2305 0.2305 -0.9731 790.6718 540.6286)" style="fill:#FFFFFF;" width="4.441" height="43.359"/>
	
		<rect x="355.326" y="114.079" transform="matrix(-0.1402 -0.9901 0.9901 -0.1402 228.1032 560.8044)" style="fill:#FFFFFF;" width="4.44" height="134.567"/>
	
		<rect x="268.277" y="246.857" transform="matrix(-0.3473 -0.9377 0.9377 -0.3473 149.417 602.1504)" style="fill:#FFFFFF;" width="31.967" height="4.441"/>
	<rect x="348.639" y="280.732" style="fill:#FFFFFF;" width="23.317" height="4.441"/>
	
		<rect x="75.672" y="204.671" transform="matrix(-0.6772 -0.7358 0.7358 -0.6772 -36.4331 438.1489)" style="fill:#FFFFFF;" width="4.441" height="44.79"/>
	
		<rect x="130.161" y="216.887" transform="matrix(-0.8809 -0.4733 0.4733 -0.8809 178.6225 483.1628)" style="fill:#FFFFFF;" width="39.88" height="4.441"/>
	
		<rect x="224.28" y="209.758" transform="matrix(-0.3589 -0.9334 0.9334 -0.3589 97.5718 517.465)" style="fill:#FFFFFF;" width="4.441" height="30.931"/>
</g>
<g>
</g>
<g>
</g>
<g>
</g>
<g>
</g>
<g>
</g>
<g>
</g>
<g>
</g>
<g>
</g>
<g>
</g>
<g>
</g>
<g>
</g>
<g>
</g>
<g>
</g>
<g>
</g>
<g>
</g>
</svg>
