<?xml version="1.0" encoding="iso-8859-1"?>
<!-- Generator: Adobe Illustrator 19.0.0, SVG Export Plug-In . SVG Version: 6.00 Build 0)  -->
<svg xmlns="http://www.w3.org/2000/svg" xmlns:xlink="http://www.w3.org/1999/xlink" version="1.1" id="Capa_1" x="0px" y="0px" viewBox="0 0 512 512" style="enable-background:new 0 0 512 512;" xml:space="preserve">
<path style="fill:#27536B;" d="M0,256.006C0,397.393,114.618,512,256.006,512S512,397.393,512,256.006S397.393,0,256.006,0  c-41.626,0-80.931,9.937-115.673,27.569c-1.732,0.877-3.453,1.765-5.163,2.698c-29.668,15.9-55.838,37.495-77.045,63.31  c-1.188,1.432-2.354,2.887-3.497,4.352C20.408,141.454,0,196.348,0,256.006z"/>
<g>
	<polygon style="fill:#FFFFFF;" points="370.268,129.499 322.068,124.171 370.268,118.843 375.598,70.643 380.926,118.843    429.126,124.171 380.926,129.499 375.598,177.699  "/>
	<polygon style="fill:#FFFFFF;" points="110.354,319.609 73.359,315.52 110.354,311.429 114.445,274.433 118.534,311.429    155.531,315.52 118.534,319.609 114.445,356.606  "/>
	<polygon style="fill:#FFFFFF;" points="255.244,452.533 226.508,449.356 255.244,446.179 258.42,417.443 261.597,446.179    290.333,449.356 261.597,452.533 258.42,481.269  "/>
	
		<rect x="327.564" y="160.291" transform="matrix(0.7071 -0.7071 0.7071 0.7071 -19.5477 283.7519)" style="fill:#FFFFFF;" width="10.362" height="10.362"/>
	
		<rect x="230.858" y="359.799" transform="matrix(0.7071 -0.7071 0.7071 0.7071 -188.9456 273.8052)" style="fill:#FFFFFF;" width="10.362" height="10.362"/>
	
		<rect x="474.078" y="222.836" transform="matrix(0.7071 -0.7071 0.7071 0.7071 -20.8608 405.6722)" style="fill:#FFFFFF;" width="10.362" height="10.362"/>
	
		<rect x="220.873" y="173.287" transform="matrix(0.7071 -0.7071 0.7071 0.7071 -59.9863 212.1164)" style="fill:#FFFFFF;" width="10.362" height="10.362"/>
	
		<rect x="67.651" y="219.243" transform="matrix(0.7071 -0.7071 0.7071 0.7071 -137.3601 117.2326)" style="fill:#FFFFFF;" width="10.362" height="10.362"/>
	
		<rect x="150.916" y="61.697" transform="matrix(0.7071 -0.7071 0.7071 0.7071 -1.5702 129.9655)" style="fill:#FFFFFF;" width="10.362" height="10.362"/>
	
		<rect x="427.377" y="379.122" transform="matrix(0.7071 -0.7071 0.7071 0.7071 -145.0499 418.4248)" style="fill:#FFFFFF;" width="10.362" height="10.362"/>
	
		<rect x="248.174" y="27.722" transform="matrix(0.7071 -0.7071 0.7071 0.7071 50.9399 188.786)" style="fill:#FFFFFF;" width="10.362" height="10.362"/>
	
		<rect x="144.267" y="459.732" transform="matrix(0.7071 -0.7071 0.7071 0.7071 -284.9711 241.8456)" style="fill:#FFFFFF;" width="10.362" height="10.362"/>
	
		<rect x="444.697" y="139.305" transform="matrix(0.7071 -0.7071 0.7071 0.7071 29.599 360.4308)" style="fill:#FFFFFF;" width="10.362" height="10.362"/>
</g>
<g>
	<circle style="fill:#FCD57E;" cx="407.63" cy="297.132" r="19.152"/>
	<circle style="fill:#FCD57E;" cx="377.929" cy="383.17" r="19.152"/>
</g>
<g>
	<path style="fill:#E8C172;" d="M368.768,383.172c0-8.846,6.006-16.271,14.155-18.47c-1.596-0.431-3.264-0.682-4.996-0.682   c-10.577,0-19.152,8.575-19.152,19.152s8.575,19.152,19.152,19.152c1.732,0,3.401-0.251,4.996-0.682   C374.774,399.443,368.768,392.018,368.768,383.172z"/>
	<path style="fill:#E8C172;" d="M398.468,297.126c0-8.846,6.006-16.271,14.155-18.47c-1.596-0.431-3.264-0.682-4.996-0.682   c-10.577,0-19.152,8.575-19.152,19.152s8.575,19.152,19.152,19.152c1.732,0,3.401-0.251,4.996-0.682   C404.474,313.397,398.468,305.972,398.468,297.126z"/>
</g>
<g>
	<circle style="fill:#FCD57E;" cx="266.898" cy="307.124" r="19.152"/>
	<circle style="fill:#FCD57E;" cx="283.741" cy="371.423" r="25.626"/>
</g>
<g>
	<path style="fill:#E8C172;" d="M272.081,371.422c0-11.732,7.885-21.615,18.644-24.657c-2.222-0.627-4.562-0.972-6.984-0.972   c-14.154,0-25.628,11.474-25.628,25.628c0,14.154,11.474,25.628,25.628,25.628c2.423,0,4.763-0.344,6.984-0.972   C279.967,393.036,272.081,383.153,272.081,371.422z"/>
	<path style="fill:#E8C172;" d="M257.742,307.119c0-8.846,6.006-16.271,14.155-18.47c-1.596-0.431-3.264-0.682-4.996-0.682   c-10.577,0-19.152,8.575-19.152,19.152c0,10.577,8.575,19.152,19.152,19.152c1.732,0,3.401-0.251,4.996-0.682   C263.748,323.389,257.742,315.965,257.742,307.119z"/>
</g>
<circle style="fill:#FCD57E;" cx="326.444" cy="298.375" r="9.576"/>
<path style="fill:#E8C172;" d="M329.765,307.347c-1.044,0.389-2.165,0.6-3.331,0.6c-5.285,0-9.571-4.286-9.571-9.571  c0-5.285,4.286-9.571,9.571-9.571c1.166,0,2.287,0.211,3.331,0.6c-3.642,1.343-6.24,4.852-6.24,8.971  S326.123,306.003,329.765,307.347z"/>
<g>
	<path style="fill:#FCD57E;" d="M135.17,30.267L292.413,187.51l3.931-3.931l-156.01-156.01   C138.601,28.446,136.88,29.335,135.17,30.267z"/>
	
		<rect x="343.65" y="192.242" transform="matrix(0.7071 -0.7071 0.7071 0.7071 -66.5294 314.5458)" style="fill:#FCD57E;" width="5.55" height="90.679"/>
	
		<rect x="215.412" y="58.191" transform="matrix(0.7071 -0.7071 0.7071 0.7071 -67.5874 208.7482)" style="fill:#FCD57E;" width="5.55" height="255.537"/>
	
		<rect x="335.488" y="318.1" transform="matrix(0.7071 -0.7071 0.7071 0.7071 -144.4154 340.0456)" style="fill:#FCD57E;" width="5.55" height="52.495"/>
	<path style="fill:#FCD57E;" d="M54.628,97.93l69.583,69.595l3.931-3.931L58.125,93.577C56.937,95.01,55.771,96.464,54.628,97.93z"/>
	
		<rect x="192.518" y="168.732" transform="matrix(0.7071 -0.7071 0.7071 0.7071 -108.7431 206.8288)" style="fill:#FCD57E;" width="5.55" height="131.893"/>
	
		<rect x="160.417" y="128.166" transform="matrix(0.7071 -0.7071 0.7071 0.7071 -133.1754 190.3556)" style="fill:#FCD57E;" width="5.55" height="255.537"/>
</g>
<g>
</g>
<g>
</g>
<g>
</g>
<g>
</g>
<g>
</g>
<g>
</g>
<g>
</g>
<g>
</g>
<g>
</g>
<g>
</g>
<g>
</g>
<g>
</g>
<g>
</g>
<g>
</g>
<g>
</g>
</svg>
