<?xml version="1.0" encoding="iso-8859-1"?>
<!-- Generator: Adobe Illustrator 19.0.0, SVG Export Plug-In . SVG Version: 6.00 Build 0)  -->
<svg xmlns="http://www.w3.org/2000/svg" xmlns:xlink="http://www.w3.org/1999/xlink" version="1.1" id="Capa_1" x="0px" y="0px" viewBox="0 0 512 512" style="enable-background:new 0 0 512 512;" xml:space="preserve">
<path style="fill:#27536B;" d="M512,255.994c0,90.735-47.211,170.445-118.393,215.912C353.869,497.288,306.658,512,256.006,512  c-12.014,0-23.827-0.822-35.397-2.432c-3.886-0.533-7.75-1.155-11.581-1.876c-32.843-6.085-63.488-18.453-90.646-35.797  C61.745,435.721,20.297,377.874,5.718,310.045c-0.811-3.775-1.543-7.583-2.187-11.414C1.21,284.763,0,270.517,0,255.994  C0,114.607,114.618,0,256.006,0C397.382,0,512,114.607,512,255.994z"/>
<polygon style="fill:#FFFFFF;" points="454.336,261.228 501.667,255.996 454.336,250.763 449.103,203.431 443.87,250.763   396.538,255.996 443.87,261.228 449.103,308.561 "/>
<path style="fill:#35BC58;" d="M393.607,471.906C353.869,497.288,306.658,512,256.006,512c-12.014,0-23.827-0.822-35.397-2.432  c-3.886-0.533-7.75-1.155-11.581-1.876c-15.256-2.831-30.034-7.017-44.213-12.424c-16.344-6.229-31.888-14.09-46.433-23.372  c9.249-27.958,30.867-51.741,59.735-67.196c8.949-4.785,18.609-8.771,28.813-11.836c15.3-4.586,31.822-7.095,49.065-7.095  c28.735,0,55.482,6.962,77.878,18.942C362.74,420.155,384.358,443.949,393.607,471.906z"/>
<path style="fill:#2DAA4A;" d="M333.872,404.71l-24.66,34.52c-9.837,13.768-23.683,22.34-38.517,25.715  c-24.494,5.585-51.663-2.987-67.918-25.715l-24.66-34.531c22.395-11.969,49.143-18.931,77.878-18.931S311.477,392.73,333.872,404.71  z"/>
<path style="fill:#35BC58;" d="M386.123,227.171c-6.995,12.769-8.938,27.458-6.451,41.67c0.422,2.398,0.966,4.797,1.632,7.162  c2.321,5.241,3.375,10.881,2.898,16.588c-0.5,6.007-2.676,12.102-6.806,17.887l-68.184,95.443  c-9.837,13.768-23.683,22.34-38.517,25.715c-24.494,5.585-51.663-2.987-67.918-25.715l-68.184-95.443  c-8.072-11.281-8.694-23.716-3.908-34.475c4.63-16.355,3.353-33.909-4.819-48.832c-7.994-14.578-12.436-30.734-12.436-47.744  c0-64.487,63.832-116.75,142.565-116.75s142.565,52.263,142.565,116.75C398.559,196.437,394.107,212.592,386.123,227.171z"/>
<g>
	<path style="fill:#25A042;" d="M284.918,397.379c-0.517,0-1.044-0.091-1.558-0.283c-7.563-2.834-17.285-4.395-27.376-4.395   c-10.086,0-19.801,1.56-27.356,4.394c-2.297,0.863-4.858-0.302-5.718-2.598c-0.862-2.296,0.302-4.858,2.598-5.718   c8.527-3.198,19.351-4.96,30.476-4.96c11.129,0,21.958,1.761,30.493,4.959c2.297,0.861,3.462,3.421,2.6,5.717   C288.41,396.278,286.717,397.379,284.918,397.379z"/>
	<path style="fill:#25A042;" d="M268.448,409.296c-0.19,0-0.381-0.012-0.575-0.038c-7.526-0.972-15.924-0.993-23.777,0.001   c-2.428,0.31-4.656-1.413-4.964-3.848c-0.309-2.433,1.415-4.656,3.848-4.964c8.597-1.089,17.761-1.067,26.031,0.001   c2.433,0.314,4.149,2.542,3.835,4.973C272.557,407.662,270.647,409.296,268.448,409.296z"/>
</g>
<path style="fill:#2DAA4A;" d="M270.696,431.635c-24.494,5.585-51.663-2.987-67.918-25.715l-68.185-95.443  c-8.072-11.281-8.694-23.716-3.908-34.475c4.63-16.355,3.353-33.909-4.819-48.832c-7.994-14.578-12.436-30.734-12.436-47.744  c0-64.487,63.832-116.75,142.565-116.75c0,0-107.412,26.326-91.135,124.777c16.288,98.452,7.55,83.618,4.441,98.452  c-3.098,14.823,16.655,76.612,39.239,99.185C231.113,407.664,227.749,431.635,270.696,431.635z"/>
<path style="fill:#25A042;" d="M236.289,349.515c3.905,6.322,13.679,3.692,13.833-3.737c0.003-0.151,0.004-0.303,0.004-0.455  c0-7.345-3.677-13.298-8.214-13.298c-4.537,0-8.214,5.954-8.214,13.298L236.289,349.515z"/>
<g>
	<path style="fill:#5BD377;" d="M384.203,292.59c-20.396,38.517-74.724,22.551-82.496,14.778s-22.939-15.245-22.939-15.245   l64.298-20.652c0,0,23.461-6.629,36.607-2.631c0.422,2.398,0.966,4.797,1.632,7.162C383.625,281.243,384.68,286.883,384.203,292.59   z"/>
	<path style="fill:#5BD377;" d="M128.043,292.59c20.396,38.517,74.724,22.551,82.496,14.778s22.939-15.245,22.939-15.245   l-64.298-20.652c0,0-23.461-6.629-36.607-2.631c-0.422,2.398-0.966,4.797-1.632,7.162   C128.62,281.243,127.565,286.883,128.043,292.59z"/>
</g>
<path style="fill:#25A042;" d="M275.699,349.515c-3.905,6.322-13.679,3.692-13.833-3.737c-0.003-0.151-0.004-0.303-0.004-0.455  c0-7.345,3.677-13.298,8.214-13.298s8.214,5.954,8.214,13.298L275.699,349.515z"/>
<g>
	<path style="fill:#E6E6E6;" d="M233.478,292.124c-7.284-3.486-13.279-1.588-20.43,1.443c-0.011,0-0.011,0.011-0.011,0.011   c-10.526,4.452-23.55,11.336-46.833,7.15c-5.119-0.922-9.604-3.231-13.479-6.24c0,0,0-0.011-0.011-0.011   c-13.268-10.315-19.364-28.946-19.364-28.946s3.486-27.225,34.364-27.347h0.011c4.996-0.011,10.715,0.677,17.254,2.309   c14.345,3.586,24.449,9.815,31.566,16.721C232.723,272.893,233.478,292.124,233.478,292.124z"/>
	<path style="fill:#E6E6E6;" d="M378.896,265.532c0,0-6.318,19.264-20.041,29.457l-0.944,0.688   c-3.486,2.42-7.439,4.252-11.869,5.052c-23.55,4.241-36.607-2.865-47.2-7.306c0,0,0-0.011-0.011-0.011   c-6.995-2.931-12.913-4.708-20.063-1.288c0,0,0.744-18.842,16.433-34.431c0-0.011,0.011-0.011,0.022-0.022l0.011-0.011   c7.139-7.084,17.365-13.501,32.033-17.165c6.418-1.599,12.058-2.298,16.988-2.309C375.399,238.141,378.896,265.532,378.896,265.532   z"/>
</g>
<path style="fill:#333333;" d="M219.743,272.294c0,7.917-2.487,15.234-6.695,21.274c-0.011,0-0.011,0.011-0.011,0.011  c-6.329,2.687-13.568,6.24-23.405,7.728c-6.506,0.999-14.157,1.088-23.428-0.577c-5.119-0.922-9.604-3.231-13.479-6.24  c0,0,0-0.011-0.011-0.011c-4.608-6.207-7.339-13.879-7.339-22.184c0-15.278,9.205-28.38,22.34-34.109h0.011  c0.266,0,0.533,0,0.799,0.011c4.797,0.056,10.259,0.755,16.455,2.298c14.345,3.586,24.449,9.815,31.566,16.721  C218.61,261.813,219.743,266.92,219.743,272.294z"/>
<path style="fill:#4D4D4D;" d="M219.743,272.294c0,7.917-2.487,15.234-6.695,21.274c-0.011,0-0.011,0.011-0.011,0.011  c-6.329,2.687-13.568,6.24-23.405,7.728c-16.288-5.996-27.902-21.651-27.902-40.016c0-8.516,2.498-16.444,6.795-23.095  c4.797,0.056,10.259,0.755,16.455,2.298c14.345,3.586,24.449,9.815,31.566,16.721C218.61,261.813,219.743,266.92,219.743,272.294z"/>
<path style="fill:#333333;" d="M366.604,272.294c0,8.538-2.887,16.422-7.75,22.695l-0.944,0.688  c-3.486,2.42-7.439,4.252-11.869,5.052c-5.396,0.977-10.248,1.343-14.634,1.288c-14.778-0.167-24.405-5.163-32.566-8.594  c0,0,0-0.011-0.011-0.011c-4.153-5.996-6.584-13.268-6.584-21.118c0-5.185,1.055-10.115,2.953-14.601  c0-0.011,0.011-0.011,0.011-0.022h0.011l0.011-0.011c4.33-4.286,9.782-8.338,16.677-11.681c4.486-2.165,9.571-4.042,15.356-5.485  c6.418-1.599,12.058-2.298,16.988-2.309C357.411,243.903,366.604,257.016,366.604,272.294z"/>
<path style="fill:#4D4D4D;" d="M366.604,272.294c0,8.538-2.887,16.422-7.75,22.695l-0.944,0.688  c-3.486,2.42-7.439,4.252-11.869,5.052c-5.396,0.977-10.248,1.343-14.634,1.288c-14.134-6.506-23.95-20.807-23.95-37.395  c0-6.706,1.61-13.046,4.452-18.642c4.486-2.165,9.571-4.042,15.356-5.485c6.418-1.599,12.058-2.298,16.988-2.309  C357.411,243.903,366.604,257.016,366.604,272.294z"/>
<g>
	<circle style="fill:#808080;" cx="343.065" cy="261.291" r="10.178"/>
	<circle style="fill:#808080;" cx="198.913" cy="261.291" r="10.178"/>
</g>
<g>
	<path style="fill:#2DAA4A;" d="M206.93,392.863l-4.153,46.367c0,0-24.516,20.53-37.962,56.038   c-16.344-6.229-31.888-14.09-46.433-23.372c9.249-27.958,30.867-51.741,59.735-67.196   C187.066,399.914,196.726,395.928,206.93,392.863z"/>
	<path style="fill:#2DAA4A;" d="M278.768,269.918c0,0-14.075-41.751,22.194-57.296c36.27-15.544,68.47-12.213,91.786,11.103   c23.317,23.317-13.852,19.6-13.852,19.6l0,0c-30.76-1.202-61.285,5.817-88.43,20.335L278.768,269.918z"/>
	<path style="fill:#2DAA4A;" d="M233.478,269.918c0,0,14.075-41.751-22.194-57.296s-68.47-12.213-91.786,11.103   s13.852,19.6,13.852,19.6l0,0c30.76-1.202,61.285,5.817,88.43,20.335L233.478,269.918z"/>
</g>
<ellipse transform="matrix(-0.5841 -0.8117 0.8117 -0.5841 432.83 500.4924)" style="fill:#5BD377;" cx="344.641" cy="139.355" rx="31.83" ry="21.466"/>
<g>
	<polygon style="fill:#FFFFFF;" points="96.277,356.948 143.609,351.715 96.277,346.482 91.044,299.149 85.811,346.482    38.479,351.715 85.811,356.948 91.044,404.279  "/>
	
		<rect x="437.491" y="349.428" transform="matrix(-0.7071 -0.7071 0.7071 -0.7071 504.942 918.3714)" style="fill:#FFFFFF;" width="10.362" height="10.362"/>
	
		<rect x="421.502" y="136.931" transform="matrix(-0.7071 -0.7071 0.7071 -0.7071 627.9051 544.3107)" style="fill:#FFFFFF;" width="10.362" height="10.362"/>
	
		<rect x="326.582" y="40.328" transform="matrix(-0.7071 -0.7071 0.7071 -0.7071 534.1747 312.2808)" style="fill:#FFFFFF;" width="10.362" height="10.362"/>
	
		<rect x="360.888" y="374.29" transform="matrix(-0.7071 -0.7071 0.7071 -0.7071 356.5927 906.6476)" style="fill:#FFFFFF;" width="10.362" height="10.362"/>
	
		<rect x="73.431" y="135.266" transform="matrix(-0.7071 -0.7071 0.7071 -0.7071 34.8882 295.3454)" style="fill:#FFFFFF;" width="10.362" height="10.362"/>
	
		<rect x="39.475" y="176.895" transform="matrix(-0.7071 -0.7071 0.7071 -0.7071 -52.5145 342.4006)" style="fill:#FFFFFF;" width="10.362" height="10.362"/>
</g>
<g>
</g>
<g>
</g>
<g>
</g>
<g>
</g>
<g>
</g>
<g>
</g>
<g>
</g>
<g>
</g>
<g>
</g>
<g>
</g>
<g>
</g>
<g>
</g>
<g>
</g>
<g>
</g>
<g>
</g>
</svg>
