<?xml version="1.0" encoding="iso-8859-1"?>
<!-- Generator: Adobe Illustrator 19.0.0, SVG Export Plug-In . SVG Version: 6.00 Build 0)  -->
<svg xmlns="http://www.w3.org/2000/svg" xmlns:xlink="http://www.w3.org/1999/xlink" version="1.1" id="Capa_1" x="0px" y="0px" viewBox="0 0 512.001 512.001" style="enable-background:new 0 0 512.001 512.001;" xml:space="preserve">
<path style="fill:#27536B;" d="M512.001,255.994c0,67.185-25.881,128.331-68.228,174.009  c-21.508,23.206-47.267,42.414-76.047,56.393c-33.754,16.399-71.66,25.605-111.72,25.605s-77.966-9.206-111.721-25.605  c-28.779-13.979-54.539-33.187-76.057-56.393C25.893,384.325,0.001,323.18,0.001,255.994C0.001,114.617,114.62,0,256.007,0  C397.394,0,512.001,114.617,512.001,255.994"/>
<g>
	<polygon style="fill:#FFFFFF;" points="83.952,176.334 120.949,172.243 83.952,168.154 79.862,131.157 75.772,168.154    38.776,172.243 75.772,176.334 79.862,213.329  "/>
	<polygon style="fill:#FFFFFF;" points="439.998,340.627 463.643,338.013 439.998,335.4 437.384,311.755 434.77,335.4    411.125,338.013 434.77,340.627 437.384,364.272  "/>
</g>
<path style="fill:#F77759;" d="M443.777,389.033v30.378h-35.43v-37.606h35.076C443.655,384.18,443.777,386.59,443.777,389.033z"/>
<path style="fill:#F2F2F2;" d="M164.855,163.383c20.931-27.447,53.972-45.157,91.146-45.157c37.184,0,70.227,17.71,91.158,45.157  c14.699,19.264,23.428,43.325,23.428,69.428c0,2.121-0.055,4.23-0.178,6.329c-1.653,30.478-15.211,57.77-36.117,77.334  c-20.474,19.186-48.01,30.922-78.289,30.922c-30.267,0-57.792-11.736-78.277-30.911c-20.895-19.564-34.464-46.866-36.13-77.345  c-0.111-2.098-0.165-4.208-0.165-6.329C141.427,206.708,150.153,182.647,164.855,163.383z M344.77,237.408  c0-47.699-39.738-68.706-88.77-68.706c-49.019,0-88.769,21.007-88.769,68.706c0,47.71,39.749,86.383,88.769,86.383  C305.032,323.79,344.77,285.118,344.77,237.408z"/>
<g>
	<path style="fill:#E6E6E6;" d="M303.405,337.156c-14.445,6.573-30.5,10.237-47.409,10.237c-30.267,0-57.793-11.736-78.277-30.911   c-20.896-19.564-34.464-46.866-36.13-77.345c-0.112-2.099-0.167-4.208-0.167-6.329c0-26.104,8.727-50.164,23.429-69.428   c19.53-25.615,49.619-42.736,83.761-44.912c-17.343,7.883-32.366,19.952-43.79,34.919c-8.516,11.159-15.035,23.938-19.009,37.795   c-11.647,11.025-18.587,26.292-18.587,46.222c0,42.003,30.811,77,71.626,84.762c16.81,9.693,36.318,15.234,57.115,15.234   C298.476,337.401,300.953,337.312,303.405,337.156z"/>
	<path style="fill:#E6E6E6;" d="M353.819,118.87v10.27h-22.906v-24.893h8.283C347.269,104.248,353.819,110.798,353.819,118.87z"/>
</g>
<path style="fill:#B3B3B3;" d="M372.029,115.828v47.555h-24.87c-20.931-27.447-53.972-45.157-91.158-45.157  c-37.172,0-70.215,17.71-91.146,45.157h-24.86v-24.749c0-28.979,23.482-52.462,52.451-52.462h149.925  C358.749,86.172,372.029,99.451,372.029,115.828z M353.819,129.141v-10.27c0-8.072-6.551-14.623-14.623-14.623h-8.283v24.893  H353.819z"/>
<g>
	<path style="fill:#CCCCCC;" d="M402.673,237.075c-1.932,1.299-4.264,2.065-6.774,2.065h-25.493   c0.122-2.098,0.178-4.208,0.178-6.329c0-26.104-8.727-50.164-23.428-69.428h24.87h4.819c17.21,0,31.167,13.957,31.167,31.167   v32.477C408.014,231.212,405.893,234.898,402.673,237.075z"/>
	<path style="fill:#CCCCCC;" d="M109.328,237.064c-3.209-2.176-5.318-5.862-5.318-10.037V194.55   c0-17.21,13.946-31.167,31.167-31.167h4.819h24.86c-14.701,19.264-23.428,43.325-23.428,69.428c0,2.121,0.056,4.23,0.165,6.329   h-25.481C113.603,239.14,111.26,238.374,109.328,237.064z"/>
</g>
<g>
	<path style="fill:#E6E6E6;" d="M144.292,316.484h-0.311h-3.209c-11.27,0-21.929,2.565-31.444,7.162v-86.582   c1.932,1.31,4.275,2.076,6.784,2.076h25.481c1.665,30.478,15.235,57.781,36.13,77.345H144.292z"/>
	<path style="fill:#E6E6E6;" d="M367.731,316.484H334.3l-0.011-0.011c20.906-19.564,34.464-46.855,36.117-77.334h25.493   c2.51,0,4.841-0.766,6.774-2.065v86.571c-9.515-4.597-20.174-7.162-31.444-7.162h-3.209L367.731,316.484L367.731,316.484z"/>
</g>
<path style="fill:#CCCCCC;" d="M367.731,316.484v0.389c-25.014,34.631-65.73,57.17-111.719,57.17  c-45.978,0-86.706-22.517-111.72-57.137v-0.422h33.43c20.485,19.175,48.01,30.911,78.277,30.911  c30.279,0,57.814-11.736,78.289-30.922l0.011,0.011H367.731z"/>
<g>
	<path style="fill:#E6E6E6;" d="M144.286,316.906v169.49c-28.779-13.979-54.539-33.187-76.057-56.393v-40.971   c0-28.802,16.777-53.684,41.093-65.387c9.515-4.597,20.174-7.162,31.444-7.162h3.209   C144.076,316.629,144.176,316.773,144.286,316.906z"/>
	<path style="fill:#E6E6E6;" d="M443.773,419.411v10.592c-21.507,23.206-47.266,42.414-76.046,56.393V316.873   c0.1-0.122,0.2-0.255,0.289-0.389h3.209c11.27,0,21.929,2.565,31.444,7.162c22.262,10.715,38.206,32.466,40.749,58.158h-35.075   v37.606L443.773,419.411L443.773,419.411z"/>
</g>
<g>
	<path style="fill:#F2F2F2;" d="M256.006,374.043V512c-40.06,0-77.966-9.205-111.72-25.604v-169.49   C169.303,351.526,210.028,374.043,256.006,374.043z"/>
	<path style="fill:#F2F2F2;" d="M256.006,374.043V512c40.06,0,77.966-9.205,111.72-25.604V316.873   C342.711,351.504,301.995,374.043,256.006,374.043z"/>
</g>
<path style="fill:#4D4D4D;" d="M344.765,237.406c0,22.761-9.048,43.469-23.837,58.892c-7.717,8.061-17.009,14.677-27.392,19.397  c-11.403,5.195-24.127,8.094-37.54,8.094c-25.637,0-48.732-10.571-64.92-27.491c-14.802-15.434-23.85-36.131-23.85-58.892  c0-41.326,29.834-62.611,69.682-67.563c6.151-0.766,12.537-1.144,19.087-1.144C305.028,168.699,344.765,189.707,344.765,237.406"/>
<g>
	<path style="fill:#B78937;" d="M338.344,222.983c0-15.126-8.948-27.387-19.986-27.387c-11.037,0-19.986,12.261-19.986,27.387   c0,15.127,8.949,27.388,19.986,27.388C329.396,250.371,338.344,238.108,338.344,222.983"/>
	<ellipse style="fill:#B78937;" cx="193.629" cy="222.985" rx="19.986" ry="27.388"/>
</g>
<g>
	<polygon style="fill:#FFFFFF;" points="458.893,210.227 495.89,206.137 458.893,202.048 454.803,165.051 450.713,202.048    413.716,206.137 450.713,210.227 454.803,247.223  "/>
	
		<rect x="443.725" y="282.131" transform="matrix(-0.7071 -0.7071 0.7071 -0.7071 563.1703 807.8967)" style="fill:#FFFFFF;" width="10.362" height="10.362"/>
</g>
<path style="fill:#D1A246;" d="M297.436,302.925c0,0,23.689-10.359,21.466-62.917c-1.403-33.158-26.075-48.637-44.096-55.547  c-12.107-4.641-25.515-4.641-37.623,0c-18.022,6.91-42.693,22.387-44.095,55.547c-2.224,52.558,21.467,62.917,21.467,62.917H297.436  "/>
<g>
	
		<rect x="43.937" y="320.55" transform="matrix(-0.7071 -0.7071 0.7071 -0.7071 -146.4763 590.7916)" style="fill:#FFFFFF;" width="10.364" height="10.364"/>
	
		<rect x="88.354" y="258.379" transform="matrix(-0.7071 -0.7071 0.7071 -0.7071 -26.6902 516.0656)" style="fill:#FFFFFF;" width="10.364" height="10.364"/>
	
		<rect x="316.344" y="37.132" transform="matrix(-0.7071 -0.7071 0.7071 -0.7071 518.9577 299.5867)" style="fill:#FFFFFF;" width="10.362" height="10.362"/>
	
		<rect x="201.234" y="54.968" transform="matrix(-0.7071 -0.7071 0.7071 -0.7071 309.8413 248.638)" style="fill:#FFFFFF;" width="10.362" height="10.362"/>
</g>
<path style="fill:#FCD57E;" d="M321.138,292.566c0,1.255-0.068,2.498-0.211,3.731c-4.574,4.774-9.703,9.048-15.278,12.701  c-3.842,2.532-7.884,4.774-12.114,6.695c-11.403,5.196-24.126,8.094-37.54,8.094c-18.398,0-35.486-5.441-49.654-14.767  c-5.574-3.676-10.691-7.95-15.267-12.724c-0.143-1.232-0.21-2.476-0.21-3.731c0-25.759,29.157-46.633,65.131-46.633  C291.981,245.933,321.138,266.807,321.138,292.566z"/>
<path style="fill:#E2BB6D;" d="M305.648,308.999c-3.842,2.531-7.884,4.774-12.114,6.695c-11.403,5.196-24.126,8.094-37.54,8.094  c-18.398,0-35.486-5.441-49.654-14.767c11.948-10.071,29.758-16.455,49.654-16.455S293.702,298.95,305.648,308.999z"/>
<g>
	<circle style="fill:#D1A246;" cx="242.238" cy="266.476" r="4.318"/>
	<circle style="fill:#D1A246;" cx="269.763" cy="266.476" r="4.318"/>
</g>
<g>
	<circle style="fill:#27536B;" cx="282.898" cy="228.17" r="5.921"/>
	<circle style="fill:#27536B;" cx="229.092" cy="228.17" r="5.921"/>
</g>
<g>
	<path style="fill:#B78937;" d="M302.395,228.163c0-10.765-10.386-19.49-23.198-19.49c-12.811,0-23.197,8.726-23.197,19.49H302.395"/>
	<path style="fill:#B78937;" d="M256.001,228.164c0-10.765-10.388-19.49-23.201-19.49s-23.201,8.726-23.201,19.49"/>
</g>
<path style="fill:#9B9B9B;" d="M330.809,244.407c-3.258,3.56-7.346,5.754-11.802,5.949c-0.077,3.14-0.254,6.106-0.517,8.896  C323.88,257.885,328.42,252.214,330.809,244.407"/>
<path style="fill:#D7BD8F;" d="M315.964,204.054c-3.019,0-5.849,1.338-8.291,3.678c6.248,8.246,10.659,18.801,11.23,32.276  c0.154,3.651,0.184,7.094,0.104,10.348c4.456-0.195,8.544-2.389,11.802-5.949c1.157-3.78,1.81-8.061,1.81-12.595  C332.618,216.482,325.162,204.054,315.964,204.054"/>
<path style="fill:#E5CB97;" d="M307.672,207.732c-3.021,2.896-5.446,7.327-6.892,12.653c1.038,2.383,1.614,5.013,1.614,7.778h-2.943  c-0.094,1.194-0.142,2.41-0.142,3.647c0,15.33,7.457,27.758,16.655,27.758c0.859,0,1.703-0.109,2.527-0.318  c0.263-2.79,0.441-5.756,0.517-8.896c0.079-3.254,0.049-6.697-0.104-10.348C318.333,226.533,313.92,215.979,307.672,207.732"/>
<path style="fill:#D7BD8F;" d="M300.781,220.387c-0.658,2.426-1.114,5.04-1.329,7.778h2.943  C302.395,225.399,301.819,222.768,300.781,220.387"/>
<rect x="161.207" y="425.828" style="fill:#51BEE5;" width="58.791" height="25.149"/>
<g>
</g>
<g>
</g>
<g>
</g>
<g>
</g>
<g>
</g>
<g>
</g>
<g>
</g>
<g>
</g>
<g>
</g>
<g>
</g>
<g>
</g>
<g>
</g>
<g>
</g>
<g>
</g>
<g>
</g>
</svg>
