<?xml version="1.0" encoding="iso-8859-1"?>
<!-- Generator: Adobe Illustrator 19.0.0, SVG Export Plug-In . SVG Version: 6.00 Build 0)  -->
<svg xmlns="http://www.w3.org/2000/svg" xmlns:xlink="http://www.w3.org/1999/xlink" version="1.1" id="Capa_1" x="0px" y="0px" viewBox="0 0 511.989 511.989" style="enable-background:new 0 0 511.989 511.989;" xml:space="preserve">
<circle style="fill:#27536B;" cx="255.994" cy="255.994" r="255.994"/>
<path style="fill:#FCD57E;" d="M391.37,292.817c-48.362,48.362-126.774,48.362-175.136,0s-48.362-126.774,0-175.136  c10.084-10.084,21.476-18.057,33.627-23.935c-39.798,1.061-79.279,16.774-109.653,47.147c-62.946,62.946-62.946,165.003,0,227.949  s165.003,62.946,227.949,0c30.374-30.374,46.086-69.854,47.147-109.653C409.427,271.341,401.454,282.733,391.37,292.817z"/>
<g>
	<polygon style="fill:#FFFFFF;" points="355.804,153.568 361.513,205.217 367.224,153.568 418.873,147.859 367.224,142.148    361.513,90.499 355.804,142.148 304.154,147.859  "/>
	<polygon style="fill:#FFFFFF;" points="112.365,410.626 116.455,447.623 120.545,410.626 157.542,406.536 120.545,402.446    116.455,365.449 112.365,402.446 75.368,406.536  "/>
	
		<rect x="243.188" y="248.208" transform="matrix(0.7071 -0.7071 0.7071 0.7071 -106.4278 249.8396)" style="fill:#FFFFFF;" width="10.362" height="10.362"/>
	
		<rect x="418.93" y="193.377" transform="matrix(0.7071 -0.7071 0.7071 0.7071 -16.1825 358.0481)" style="fill:#FFFFFF;" width="10.362" height="10.362"/>
	
		<rect x="450.017" y="284.419" transform="matrix(0.7071 -0.7071 0.7071 0.7071 -71.4537 406.696)" style="fill:#FFFFFF;" width="10.362" height="10.362"/>
	
		<rect x="76.067" y="124.535" transform="matrix(0.7071 -0.7071 0.7071 0.7071 -67.9259 95.4443)" style="fill:#FFFFFF;" width="10.362" height="10.362"/>
	
		<rect x="346.322" y="421.433" transform="matrix(0.7071 -0.7071 0.7071 0.7071 -198.7088 373.5025)" style="fill:#FFFFFF;" width="10.362" height="10.362"/>
	
		<rect x="117.587" y="97.883" transform="matrix(0.7071 -0.7071 0.7071 0.7071 -36.9191 116.9972)" style="fill:#FFFFFF;" width="10.362" height="10.362"/>
</g>
<g>
</g>
<g>
</g>
<g>
</g>
<g>
</g>
<g>
</g>
<g>
</g>
<g>
</g>
<g>
</g>
<g>
</g>
<g>
</g>
<g>
</g>
<g>
</g>
<g>
</g>
<g>
</g>
<g>
</g>
</svg>
