<?xml version="1.0" encoding="iso-8859-1"?>
<!-- Generator: Adobe Illustrator 19.0.0, SVG Export Plug-In . SVG Version: 6.00 Build 0)  -->
<svg xmlns="http://www.w3.org/2000/svg" xmlns:xlink="http://www.w3.org/1999/xlink" version="1.1" id="Capa_1" x="0px" y="0px" viewBox="0 0 511.989 511.989" style="enable-background:new 0 0 511.989 511.989;" xml:space="preserve">
<circle style="fill:#27536B;" cx="255.994" cy="255.994" r="255.994"/>
<g>
	<polygon style="fill:#FFFFFF;" points="120.545,133.054 126.318,185.284 132.093,133.054 184.324,127.28 132.093,121.505    126.318,69.275 120.545,121.505 68.314,127.28  "/>
	<polygon style="fill:#FFFFFF;" points="184.139,429.466 188.229,466.461 192.319,429.466 229.315,425.375 192.319,421.286    188.229,384.289 184.139,421.286 147.142,425.375  "/>
	<polygon style="fill:#FFFFFF;" points="422.898,181.557 426.988,218.552 431.078,181.557 468.074,177.466 431.078,173.376    426.988,136.38 422.898,173.376 385.901,177.466  "/>
	
		<rect x="276.041" y="437.285" transform="matrix(0.7071 -0.7071 0.7071 0.7071 -230.5029 328.4496)" style="fill:#FFFFFF;" width="10.362" height="10.362"/>
	
		<rect x="325.755" y="314.565" transform="matrix(0.7071 -0.7071 0.7071 0.7071 -129.1656 327.6588)" style="fill:#FFFFFF;" width="10.362" height="10.362"/>
	
		<rect x="82.052" y="312.633" transform="matrix(0.7071 -0.7071 0.7071 0.7071 -199.1787 154.7691)" style="fill:#FFFFFF;" width="10.362" height="10.362"/>
	
		<rect x="464.65" y="274.601" transform="matrix(0.7071 -0.7071 0.7071 0.7071 -60.2256 414.1668)" style="fill:#FFFFFF;" width="10.362" height="10.362"/>
	
		<rect x="356.393" y="107.06" transform="matrix(0.7071 -0.7071 0.7071 0.7071 26.5362 288.5464)" style="fill:#FFFFFF;" width="10.362" height="10.362"/>
	
		<rect x="207.517" y="53.096" transform="matrix(0.7071 -0.7071 0.7071 0.7071 21.0894 167.4691)" style="fill:#FFFFFF;" width="10.362" height="10.362"/>
</g>
<circle style="fill:#51BEE5;" cx="267.675" cy="237.619" r="98.196"/>
<path style="fill:#46B5D3;" d="M205.081,214.985c16.609-45.936,63.925-71.905,110.425-63.138c-4.56-2.536-9.379-4.747-14.445-6.579  c-51.002-18.441-107.296,7.955-125.738,58.958s7.955,107.296,58.958,125.738c5.066,1.832,10.184,3.214,15.312,4.18  C208.24,311.145,188.472,260.921,205.081,214.985z"/>
<path style="fill:#FCD57E;" d="M448.689,354.132c-36.092,12.146-74.341,18.305-113.186,17.718l-207.475-75.016  c-17.029-13.737-32.541-28.991-46.41-45.494c-10.769-12.796-20.543-26.353-29.272-40.514c44.881-15.096,93.1-20.944,141.65-16.082  c27.253,2.735,54.596,8.843,81.525,18.579C350.44,240.412,409.904,291.205,448.689,354.132z"/>
<path style="fill:#E8C172;" d="M208.407,206.283c0,0-40.581,3.793-64.614,37.608c-9.562,13.45-34.999,12.942-62.175,7.449  c-10.769-12.796-20.543-26.353-29.272-40.514c44.881-15.096,93.1-20.944,141.65-16.082L208.407,206.283z"/>
<rect x="172.75" y="193.685" transform="matrix(-0.9404 -0.34 0.34 -0.9404 463.8336 504.5745)" style="fill:#F2F2F2;" width="206.747" height="35.929"/>
<rect x="177.773" y="164.976" transform="matrix(-0.9404 -0.34 0.34 -0.9404 319.4857 421.8619)" style="fill:#E6E6E6;" width="37.861" height="35.929"/>
<ellipse transform="matrix(0.34 -0.9404 0.9404 0.34 34.5906 439.3299)" style="fill:#73D5EF;" cx="330.296" cy="195.021" rx="8.327" ry="15.544"/>
<g>
	<circle style="fill:#F77759;" cx="204.076" cy="185.612" r="11.103"/>
	<circle style="fill:#F77759;" cx="300.141" cy="220.353" r="11.103"/>
	<circle style="fill:#F77759;" cx="252.108" cy="202.977" r="11.103"/>
	<circle style="fill:#F77759;" cx="348.173" cy="237.719" r="11.103"/>
	
		<rect x="129.688" y="347.84" transform="matrix(-0.9404 -0.34 0.34 -0.9404 309.9871 773.0203)" style="fill:#F77759;" width="186.062" height="23.024"/>
</g>
<rect x="134.407" y="320.941" transform="matrix(-0.9404 -0.34 0.34 -0.9404 174.7855 695.533)" style="fill:#DB6149;" width="27.846" height="23.024"/>
<rect x="118.164" y="333.756" transform="matrix(-0.9404 -0.34 0.34 -0.9404 326.553 744.1331)" style="fill:#F2F2F2;" width="220.614" height="19.401"/>
<rect x="122.879" y="306.836" transform="matrix(-0.9404 -0.34 0.34 -0.9404 191.2231 666.5792)" style="fill:#E6E6E6;" width="62.265" height="19.401"/>
<path style="fill:#E8C172;" d="M448.689,354.132c-36.092,12.146-74.341,18.305-113.186,17.718l-207.475-75.016  c-30.237-24.393-55.702-53.588-75.681-86.007L448.689,354.132z"/>
<g>
</g>
<g>
</g>
<g>
</g>
<g>
</g>
<g>
</g>
<g>
</g>
<g>
</g>
<g>
</g>
<g>
</g>
<g>
</g>
<g>
</g>
<g>
</g>
<g>
</g>
<g>
</g>
<g>
</g>
</svg>
