<?xml version="1.0" encoding="iso-8859-1"?>
<!-- Generator: Adobe Illustrator 19.0.0, SVG Export Plug-In . SVG Version: 6.00 Build 0)  -->
<svg xmlns="http://www.w3.org/2000/svg" xmlns:xlink="http://www.w3.org/1999/xlink" version="1.1" id="Capa_1" x="0px" y="0px" viewBox="0 0 512 512" style="enable-background:new 0 0 512 512;" xml:space="preserve">
<circle style="fill:#27536B;" cx="256" cy="255.994" r="255.994"/>
<g>
	
		<rect x="254.626" y="30.199" transform="matrix(-0.7071 -0.7071 0.7071 -0.7071 418.5015 244.1087)" style="fill:#FFFFFF;" width="10.362" height="10.362"/>
	
		<rect x="63.662" y="215.547" transform="matrix(-0.7071 -0.7071 0.7071 -0.7071 -38.5549 425.4866)" style="fill:#FFFFFF;" width="10.362" height="10.362"/>
	
		<rect x="325.699" y="263.256" transform="matrix(-0.7071 -0.7071 0.7071 -0.7071 375.0337 692.2182)" style="fill:#FFFFFF;" width="10.362" height="10.362"/>
	
		<rect x="397.634" y="177.792" transform="matrix(-0.7071 -0.7071 0.7071 -0.7071 558.2676 597.1887)" style="fill:#FFFFFF;" width="10.362" height="10.362"/>
	<polygon style="fill:#FFFFFF;" points="120.333,142.307 167.665,137.074 120.333,131.842 115.101,84.509 109.868,131.842    62.535,137.074 109.868,142.307 115.101,189.64  "/>
</g>
<path style="fill:#F9B55A;" d="M503.162,322.913c-14.412,53.351-45.623,99.795-87.615,133.293  c-12.869,10.282-26.747,19.331-41.459,26.992C338.757,501.596,298.597,512,256.006,512s-82.763-10.404-118.093-28.802  c-4.186-2.176-8.294-4.463-12.336-6.862c-4.752-2.82-9.404-5.796-13.946-8.905c-14.456-9.882-27.836-21.218-39.949-33.787  c-2.01-2.087-3.997-4.219-5.929-6.373C39.239,397.86,19.464,362.263,8.838,322.913c77.678-8.494,160.785-13.102,247.179-13.102  c35.297,0,70.05,0.766,104.114,2.265C409.418,314.219,457.239,317.883,503.162,322.913z"/>
<g>
	<path style="fill:#EFAA56;" d="M360.131,312.077c0,0-207.052,30.467-248.5,155.355c-14.456-9.882-27.836-21.218-39.949-33.787   c-2.01-2.087-3.997-4.219-5.929-6.373C39.239,397.86,19.464,362.263,8.838,322.913c77.678-8.494,160.785-13.102,247.179-13.102   C291.314,309.811,326.066,310.578,360.131,312.077z"/>
	<path style="fill:#EFAA56;" d="M438.681,414.192c0-5.871-3.369-11.182-8.806-15.015c1.055,1.856,1.641,3.882,1.641,6.007   c0,8.868-10.118,16.057-22.599,16.057s-22.599-7.189-22.599-16.057c0-2.124,0.586-4.15,1.641-6.007   c-5.437,3.832-8.807,9.143-8.807,15.015c0,11.681,13.326,21.149,29.765,21.149S438.681,425.873,438.681,414.192z"/>
	<path style="fill:#EFAA56;" d="M328.258,353.933c0-3.582-2.055-6.823-5.373-9.16c0.644,1.133,1.002,2.368,1.002,3.665   c0,5.411-6.173,9.797-13.789,9.797s-13.789-4.387-13.789-9.797c0-1.296,0.358-2.533,1.001-3.665   c-3.318,2.338-5.373,5.578-5.373,9.161c0,7.126,8.131,12.903,18.16,12.903C320.127,366.837,328.258,361.059,328.258,353.933z"/>
	<path style="fill:#EFAA56;" d="M165.459,440.618c0,17.388-17.032,31.944-39.883,35.719c-19.852-11.78-37.973-26.17-53.895-42.692   c-2.01-2.087-3.997-4.219-5.929-6.373c2.643-4.808,6.673-9.127,11.736-12.691c-1.821,3.22-2.842,6.729-2.842,10.415   c0,15.378,17.543,27.847,39.194,27.847c21.64,0,39.183-12.469,39.183-27.847c0-3.686-1.01-7.195-2.842-10.415   C159.608,421.221,165.459,430.436,165.459,440.618z"/>
</g>
<rect x="148.777" y="84.528" style="fill:#E6E6E6;" width="12.583" height="281.276"/>
<rect x="148.777" y="97.108" style="fill:#FFFFFF;" width="221.319" height="137.679"/>
<g>
	<rect x="257.066" y="139.8" style="fill:#F77759;" width="113.041" height="9.623"/>
	<rect x="257.066" y="97.108" style="fill:#F77759;" width="113.041" height="9.623"/>
	<rect x="257.066" y="118.46" style="fill:#F77759;" width="113.041" height="9.623"/>
	<rect x="148.777" y="161.14" style="fill:#F77759;" width="221.319" height="9.623"/>
	<rect x="148.777" y="225.172" style="fill:#F77759;" width="221.319" height="9.623"/>
</g>
<rect x="148.777" y="97.108" style="fill:#5289E2;" width="108.278" height="73.647"/>
<g>
	<rect x="148.777" y="203.821" style="fill:#F77759;" width="221.319" height="9.623"/>
	<rect x="148.777" y="182.48" style="fill:#F77759;" width="221.319" height="9.623"/>
</g>
<g>
	<polygon style="fill:#FFFFFF;" points="166.768,112.413 169.483,117.914 175.555,118.797 171.162,123.08 172.199,129.128    166.768,126.272 161.337,129.128 162.374,123.08 157.98,118.797 164.053,117.914  "/>
	<polygon style="fill:#FFFFFF;" points="190.471,112.413 193.187,117.914 199.26,118.797 194.865,123.08 195.902,129.128    190.471,126.272 185.041,129.128 186.078,123.08 181.684,118.797 187.756,117.914  "/>
	<polygon style="fill:#FFFFFF;" points="214.972,112.413 217.687,117.914 223.759,118.797 219.365,123.08 220.402,129.128    214.972,126.272 209.541,129.128 210.578,123.08 206.185,118.797 212.256,117.914  "/>
	<polygon style="fill:#FFFFFF;" points="239.073,112.413 241.789,117.914 247.861,118.797 243.468,123.08 244.505,129.128    239.073,126.272 233.643,129.128 234.68,123.08 230.286,118.797 236.359,117.914  "/>
	<polygon style="fill:#FFFFFF;" points="174.946,137.335 177.662,142.838 183.734,143.719 179.34,148.003 180.377,154.05    174.946,151.195 169.515,154.05 170.552,148.003 166.159,143.719 172.231,142.838  "/>
	<polygon style="fill:#FFFFFF;" points="202.577,137.335 205.293,142.838 211.364,143.719 206.971,148.003 208.008,154.05    202.577,151.195 197.147,154.05 198.184,148.003 193.79,143.719 199.861,142.838  "/>
	<polygon style="fill:#FFFFFF;" points="230.896,137.335 233.61,142.838 239.683,143.719 235.289,148.003 236.326,154.05    230.896,151.195 225.464,154.05 226.501,148.003 222.108,143.719 228.18,142.838  "/>
	<polygon style="fill:#FFFFFF;" points="442.823,226.752 490.156,221.519 442.823,216.287 437.591,168.955 432.358,216.287    385.025,221.519 432.358,226.752 437.591,274.085  "/>
</g>
<g>
</g>
<g>
</g>
<g>
</g>
<g>
</g>
<g>
</g>
<g>
</g>
<g>
</g>
<g>
</g>
<g>
</g>
<g>
</g>
<g>
</g>
<g>
</g>
<g>
</g>
<g>
</g>
<g>
</g>
</svg>
