<?xml version="1.0" encoding="iso-8859-1"?>
<!-- Generator: Adobe Illustrator 19.0.0, SVG Export Plug-In . SVG Version: 6.00 Build 0)  -->
<svg xmlns="http://www.w3.org/2000/svg" xmlns:xlink="http://www.w3.org/1999/xlink" version="1.1" id="Capa_1" x="0px" y="0px" viewBox="0 0 512 512" style="enable-background:new 0 0 512 512;" xml:space="preserve">
<path style="fill:#27536B;" d="M512,255.994C512,397.382,397.382,512,256.006,512c-12.014,0-23.827-0.822-35.397-2.432  c-3.886-0.533-7.75-1.155-11.581-1.876C107.667,488.905,27.28,410.395,5.718,310.045c-0.811-3.775-1.543-7.583-2.187-11.414  C1.21,284.763,0,270.517,0,255.994C0,114.607,114.618,0,256.006,0C397.382,0,512,114.607,512,255.994z"/>
<g>
	<path style="fill:#CCCCCC;" d="M182.045,437.67c-1.131,0-2.272-0.344-3.258-1.059c-2.48-1.801-3.032-5.273-1.231-7.754   l153.617-211.615c1.802-2.482,5.273-3.032,7.754-1.231c2.48,1.802,3.032,5.273,1.231,7.754L186.542,435.379   C185.456,436.875,183.762,437.67,182.045,437.67z"/>
	<path style="fill:#CCCCCC;" d="M84.991,340.607c-1.718,0-3.411-0.795-4.497-2.291c-1.801-2.482-1.249-5.954,1.231-7.754   l211.615-153.617c2.482-1.801,5.952-1.249,7.754,1.231c1.801,2.482,1.249,5.954-1.231,7.754L88.248,339.548   C87.263,340.263,86.122,340.607,84.991,340.607z"/>
</g>
<path style="fill:#E6E6E6;" d="M397.36,236.708c-32.299,32.299-84.662,32.299-116.961,0c-32.31-32.299-32.31-84.662,0-116.961  v-0.011c32.299-32.299,84.662-32.299,116.961,0C429.67,152.036,429.67,204.409,397.36,236.708z"/>
<path style="fill:#B3B3B3;" d="M397.36,236.708c-32.299,32.299-84.662,32.299-116.961,0c-32.31-32.299-32.31-84.662,0-116.961  L397.36,236.708z"/>
<g>
	<path style="fill:#CCCCCC;" d="M382.271,206.141l-5.385,10.093l-1.965,3.708l-6.895,12.946l-14.234,26.692L220.609,509.568   c-3.886-0.533-7.75-1.155-11.581-1.876l131.484-246.779l19.308-36.23l7.517-14.101l1.355-2.543l3.786-7.117   c1.443-2.709,4.797-3.731,7.506-2.287S383.714,203.432,382.271,206.141z"/>
	<path style="fill:#CCCCCC;" d="M316.185,144.63l-7.117,3.786l-3.731,1.987l-12.913,6.884l-36.241,19.308L5.718,310.045   c-0.811-3.775-1.543-7.583-2.187-11.414l253.985-135.325l26.703-14.223l13.568-7.239l3.076-1.632l10.104-5.385   c2.698-1.432,6.062-0.411,7.506,2.298C319.915,139.822,318.894,143.186,316.185,144.63z"/>
</g>
<path style="fill:#F77759;" d="M388.642,253.506L263.598,128.462c-7.047-7.047-7.047-18.472,0-25.519l0,0  c7.047-7.047,18.472-7.047,25.52,0l125.044,125.044c7.047,7.047,7.047,18.472,0,25.52l0,0  C407.114,260.553,395.689,260.553,388.642,253.506z"/>
<path style="fill:#C1533E;" d="M414.157,253.506c-3.52,3.531-8.139,5.285-12.758,5.285c-4.608,0-9.227-1.754-12.758-5.285  L263.598,128.462c-7.051-7.05-7.051-18.476,0-25.515L414.157,253.506z"/>
<g>
	
		<ellipse transform="matrix(-0.7071 -0.7071 0.7071 -0.7071 548.2819 513.6113)" style="fill:#FFFFFF;" cx="380.513" cy="143.253" rx="28.312" ry="18.319"/>
	<polygon style="fill:#FFFFFF;" points="140.698,118.123 177.694,114.034 140.698,109.943 136.608,72.948 132.518,109.943    95.522,114.034 132.518,118.123 136.608,155.12  "/>
	<polygon style="fill:#FFFFFF;" points="388.14,391.051 435.473,385.818 388.14,380.586 382.907,333.254 377.674,380.586    330.342,385.818 377.674,391.051 382.907,438.384  "/>
	
		<rect x="188.803" y="150.333" transform="matrix(-0.7071 -0.7071 0.7071 -0.7071 221.187 402.6471)" style="fill:#FFFFFF;" width="10.362" height="10.362"/>
	
		<rect x="258.762" y="40.807" transform="matrix(-0.7071 -0.7071 0.7071 -0.7071 418.0614 265.1435)" style="fill:#FFFFFF;" width="10.362" height="10.362"/>
	
		<rect x="438.621" y="165.715" transform="matrix(-0.7071 -0.7071 0.7071 -0.7071 636.7759 605.5538)" style="fill:#FFFFFF;" width="10.362" height="10.362"/>
	
		<rect x="246.435" y="377.883" transform="matrix(-0.7071 -0.7071 0.7071 -0.7071 158.6678 831.8506)" style="fill:#FFFFFF;" width="10.362" height="10.362"/>
	
		<rect x="466.93" y="312.927" transform="matrix(-0.7071 -0.7071 0.7071 -0.7071 581.0087 876.8777)" style="fill:#FFFFFF;" width="10.362" height="10.362"/>
	
		<rect x="42.916" y="233.001" transform="matrix(-0.7071 -0.7071 0.7071 -0.7071 -86.3131 440.6133)" style="fill:#FFFFFF;" width="10.362" height="10.362"/>
	
		<rect x="97.215" y="376.213" transform="matrix(-0.7071 -0.7071 0.7071 -0.7071 -94.8848 723.4861)" style="fill:#FFFFFF;" width="10.362" height="10.362"/>
</g>
<g>
</g>
<g>
</g>
<g>
</g>
<g>
</g>
<g>
</g>
<g>
</g>
<g>
</g>
<g>
</g>
<g>
</g>
<g>
</g>
<g>
</g>
<g>
</g>
<g>
</g>
<g>
</g>
<g>
</g>
</svg>
