<?xml version="1.0" encoding="iso-8859-1"?>
<!-- Generator: Adobe Illustrator 19.0.0, SVG Export Plug-In . SVG Version: 6.00 Build 0)  -->
<svg xmlns="http://www.w3.org/2000/svg" xmlns:xlink="http://www.w3.org/1999/xlink" version="1.1" id="Capa_1" x="0px" y="0px" viewBox="0 0 512 512" style="enable-background:new 0 0 512 512;" xml:space="preserve">
<path style="fill:#27536B;" d="M512,255.994c0,83.995-40.46,158.564-102.96,205.22c-3.509,2.631-7.084,5.163-10.726,7.606  C357.611,496.089,308.668,512,256.006,512c-15.533,0-30.745-1.388-45.523-4.03c-35.297-6.34-68.096-19.919-96.786-39.15  c-3.642-2.443-7.217-4.974-10.726-7.606C40.46,414.559,0,340.001,0,255.994C0,114.607,114.618,0,256.006,0  C397.382,0,512,114.607,512,255.994z"/>
<path style="fill:#F77759;" d="M321.764,99.662v34.453H190.236V99.662c0-26.958,15.922-50.153,38.806-60.534  c8.227-3.742,17.354-5.818,26.958-5.818c9.604,0,18.731,2.076,26.958,5.807c7.317,3.32,13.934,7.961,19.553,13.624  C314.414,64.743,321.764,81.342,321.764,99.662z"/>
<path style="fill:#E5674E;" d="M256,33.309c-5.008,0-9.771,2.076-14.057,5.818c-11.936,10.381-20.241,33.576-20.241,60.534v34.453  h-31.466V99.662c0-26.958,15.922-50.153,38.806-60.534C237.269,35.386,246.396,33.309,256,33.309z"/>
<g>
	<path style="fill:#C1533E;" d="M282.958,39.116c-8.227,3.731-17.354,5.807-26.958,5.807c-9.604,0-18.731-2.076-26.958-5.796   c8.227-3.742,17.354-5.818,26.958-5.818C265.604,33.309,274.731,35.386,282.958,39.116z"/>
	<path style="fill:#C1533E;" d="M321.764,133.56c0,2.643-1.377,5.174-3.908,7.528c-1.854,1.699-4.308,3.309-7.295,4.797   c-7.373,3.664-17.954,6.551-30.389,8.194c-1.854,0.255-3.742,0.466-5.674,0.666c-5.862,0.566-12.069,0.877-18.498,0.877   c-6.429,0-12.635-0.311-18.498-0.877c-1.932-0.2-3.819-0.411-5.674-0.666c-12.436-1.643-23.017-4.53-30.389-8.194   c-2.987-1.488-5.441-3.098-7.295-4.797c-2.532-2.354-3.908-4.885-3.908-7.528c0-8.672,14.912-16.166,36.596-19.764   c1.777-0.3,3.609-0.577,5.485-0.811c7.35-0.955,15.333-1.477,23.683-1.477c8.35,0,16.333,0.522,23.683,1.477   c1.876,0.233,3.708,0.511,5.485,0.811C306.852,117.394,321.764,124.888,321.764,133.56z"/>
</g>
<path style="fill:#B3B3B3;" d="M319.921,134.382l-2.065,6.706l-59.202,191.685c-0.355,1.166-1.432,1.965-2.654,1.965  c-1.221,0-2.287-0.799-2.654-1.965l-59.202-191.685l-2.065-6.706c-0.444-1.466,0.378-3.02,1.843-3.464  c1.455-0.455,3.02,0.366,3.464,1.832l4.053,13.135l49.12,159.053l-18.731-150.859l-4.996-40.282c1.777-0.3,3.609-0.577,5.485-0.811  l5.185,41.759L256,303.694l18.498-148.949l5.185-41.759c1.876,0.233,3.708,0.511,5.485,0.811l-4.996,40.282l-18.731,150.859  l49.12-159.053l4.053-13.135c0.455-1.466,2.01-2.287,3.475-1.832C319.554,131.361,320.365,132.916,319.921,134.382z"/>
<g>
	<polygon style="fill:#FFFFFF;" points="443.489,228.877 438.161,277.077 432.832,228.877 384.632,223.549 432.832,218.22    438.161,170.02 443.489,218.22 491.69,223.549  "/>
	<polygon style="fill:#FFFFFF;" points="102.212,279.288 98.122,316.285 94.033,279.288 57.036,275.198 94.033,271.108    98.122,234.112 102.212,271.108 139.208,275.198  "/>
	<polygon style="fill:#FFFFFF;" points="346.892,291.501 343.715,320.237 340.538,291.501 311.802,288.325 340.538,285.148    343.715,256.412 346.892,285.148 375.628,288.325  "/>
	
		<rect x="15.725" y="227.469" transform="matrix(-0.7071 -0.7071 0.7071 -0.7071 -128.8199 411.9422)" style="fill:#FFFFFF;" width="10.362" height="10.362"/>
	
		<rect x="88.836" y="173.509" transform="matrix(-0.7071 -0.7071 0.7071 -0.7071 34.1456 371.523)" style="fill:#FFFFFF;" width="10.362" height="10.362"/>
	
		<rect x="71.541" y="372.598" transform="matrix(-0.7071 -0.7071 0.7071 -0.7071 -136.1562 699.1599)" style="fill:#FFFFFF;" width="10.362" height="10.362"/>
	
		<rect x="388.955" y="96.152" transform="matrix(-0.7071 -0.7071 0.7071 -0.7071 601.1785 451.6834)" style="fill:#FFFFFF;" width="10.362" height="10.362"/>
	
		<rect x="445.528" y="335.167" transform="matrix(-0.7071 -0.7071 0.7071 -0.7071 528.7461 899.7098)" style="fill:#FFFFFF;" width="10.362" height="10.362"/>
	
		<rect x="393.897" y="395.513" transform="matrix(-0.7071 -0.7071 0.7071 -0.7071 397.9353 966.2192)" style="fill:#FFFFFF;" width="10.362" height="10.362"/>
	
		<rect x="190.222" y="242.787" transform="matrix(-0.7071 -0.7071 0.7071 -0.7071 158.2341 561.4792)" style="fill:#FFFFFF;" width="10.362" height="10.362"/>
	
		<rect x="149.145" y="78.831" transform="matrix(-0.7071 -0.7071 0.7071 -0.7071 204.0463 252.5437)" style="fill:#FFFFFF;" width="10.362" height="10.362"/>
</g>
<path style="fill:#E6E6E6;" d="M322.309,426.657c0.107,3.285-1.516,6.455-4.367,8.257c-0.017,0.008-0.032,0.017-0.049,0.033  c-9.249,5.832-19.227,10.314-29.648,13.328c-10.42,3.015-21.267,4.571-32.244,4.571c-21.34,0-42.214-5.89-60.351-16.949  c-0.451-0.271-1.033-0.64-1.671-1.057c-2.794-1.819-4.382-4.948-4.292-8.184c0-0.18,0.008-0.352,0.024-0.524  c0.041-0.5,0.114-0.992,0.238-1.482l1.106-4.547l0.131-0.524l13.051-53.544l1.598-6.554l2.187-8.978  c1.482-6.087,6.938-10.371,13.197-10.371h69.568c6.259,0,11.706,4.285,13.189,10.371l2.187,8.978l1.598,6.554l3.162,12.976  l0.385,1.59l0.688,2.81l2.58,10.576l0.902,3.711l0.213,0.86l5.12,21.021l0.131,0.524l1.114,4.571  c0.114,0.483,0.197,0.975,0.23,1.458C322.3,426.305,322.309,426.485,322.309,426.657z"/>
<path style="fill:#CCCCCC;" d="M256.001,452.843c-21.34,0-42.214-5.89-60.351-16.949c-0.451-0.271-1.033-0.64-1.671-1.057  c-2.941-1.918-4.547-5.284-4.268-8.708c0.041-0.5,0.114-0.992,0.238-1.482l1.237-5.071l13.05-53.544l1.598-6.554l2.187-8.978  c1.482-6.087,6.938-10.371,13.197-10.371h11.911c-4.12,0-7.709,4.285-8.684,10.371l-1.433,8.978l-1.057,6.554l-8.577,53.544  l-0.819,5.071c-0.082,0.492-0.131,0.983-0.155,1.482c-0.18,3.424,0.877,6.792,2.81,8.708c0.417,0.417,0.803,0.786,1.098,1.057  C228.238,446.953,241.968,452.843,256.001,452.843z"/>
<g>
	<polygon style="fill:#B3B3B3;" points="307.758,366.031 204.235,366.031 205.833,359.478 306.162,359.478  "/>
	<path style="fill:#B3B3B3;" d="M322.309,426.657H189.686c0-0.18,0.008-0.352,0.024-0.524c0.041-0.5,0.114-0.992,0.238-1.482   l1.106-4.547H320.94l1.114,4.571c0.114,0.483,0.197,0.975,0.23,1.458C322.3,426.305,322.309,426.485,322.309,426.657z"/>
	<polyline style="fill:#B3B3B3;" points="276.927,340.131 276.927,331.233 235.073,331.233 235.073,340.131  "/>
	<path style="fill:#B3B3B3;" d="M277.566,410.477c-14.355,1.059-28.769,1.06-43.126,0c-3.664-0.27-6.186-3.375-5.373-6.485   c2.102-8.21,4.09-16.438,5.962-24.686c0.591-2.563,2.962-4.311,5.583-4.156c10.252,0.615,20.53,0.614,30.781,0   c2.62-0.155,4.992,1.593,5.583,4.156c1.873,8.247,3.861,16.476,5.962,24.686C283.75,407.101,281.229,410.207,277.566,410.477z"/>
</g>
<g>
	<path style="fill:#A1E5F7;" d="M265.888,393.205c0,5.087-4.423,9.216-9.888,9.216c-0.459,0-0.917-0.033-1.36-0.09   c-4.817-0.614-8.528-4.465-8.528-9.126s3.711-8.504,8.528-9.118c0.442-0.058,0.9-0.09,1.36-0.09   C261.465,383.997,265.888,388.118,265.888,393.205z"/>
	<path style="fill:#A1E5F7;" d="M315.476,397.694c-0.975,1.155-2.253,1.925-3.727,2.13c-4.047,0.565-8.07-3.359-8.978-8.757   c-0.917-5.398,1.63-10.233,5.677-10.789c0.967-0.139,1.933-0.017,2.859,0.32l0.688,2.81l2.58,10.576L315.476,397.694z"/>
</g>
<path style="fill:#E6E6E6;" d="M282.035,334.509h-52.07c-1.81,0-3.277-1.467-3.277-3.277c0-1.81,1.467-3.277,3.277-3.277h52.07  c1.81,0,3.277,1.467,3.277,3.277C285.312,333.043,283.845,334.509,282.035,334.509z"/>
<path style="fill:#B3B3B3;" d="M315.689,398.555c-1.188,1.598-2.777,2.621-4.539,2.883c-0.328,0.049-0.647,0.073-0.967,0.073  c-1.458,0-2.917-0.5-4.251-1.483c-2.449-1.802-4.244-5.054-4.801-8.716c-0.565-3.654,0.172-7.291,1.974-9.741  c1.196-1.639,2.769-2.638,4.555-2.917c1.081-0.172,2.195-0.049,3.261,0.352l1.073,4.399l-1.295-0.852  c-0.844-0.565-1.704-0.786-2.548-0.655c-1.138,0.172-1.942,0.967-2.408,1.606c-1.295,1.77-1.811,4.497-1.376,7.316  c0.434,2.818,1.744,5.267,3.506,6.562c0.638,0.475,1.639,0.992,2.777,0.819c1.704-0.254,2.67-1.86,3.097-2.794l0.68-1.491  l0.148,0.066L315.689,398.555z"/>
<path style="fill:#61CCF2;" d="M196.524,397.694c0.975,1.155,2.253,1.925,3.727,2.13c4.047,0.565,8.07-3.359,8.978-8.757  c0.917-5.398-1.63-10.233-5.677-10.789c-0.967-0.139-1.933-0.017-2.859,0.32l-0.688,2.81l-2.58,10.576L196.524,397.694z"/>
<path style="fill:#B3B3B3;" d="M196.311,398.555c1.188,1.598,2.777,2.621,4.539,2.883c0.328,0.049,0.647,0.073,0.967,0.073  c1.458,0,2.917-0.5,4.251-1.483c2.449-1.802,4.244-5.054,4.801-8.716c0.565-3.654-0.172-7.291-1.974-9.741  c-1.196-1.639-2.769-2.638-4.555-2.917c-1.081-0.172-2.195-0.049-3.261,0.352l-1.073,4.399l1.295-0.852  c0.844-0.565,1.704-0.786,2.548-0.655c1.138,0.172,1.942,0.967,2.408,1.606c1.295,1.77,1.811,4.497,1.376,7.316  c-0.434,2.818-1.744,5.267-3.506,6.562c-0.638,0.475-1.639,0.992-2.777,0.819c-1.704-0.254-2.67-1.86-3.097-2.794l-0.68-1.491  l-0.148,0.066L196.311,398.555z"/>
<g>
</g>
<g>
</g>
<g>
</g>
<g>
</g>
<g>
</g>
<g>
</g>
<g>
</g>
<g>
</g>
<g>
</g>
<g>
</g>
<g>
</g>
<g>
</g>
<g>
</g>
<g>
</g>
<g>
</g>
</svg>
