<?xml version="1.0" encoding="iso-8859-1"?>
<!-- Generator: Adobe Illustrator 19.0.0, SVG Export Plug-In . SVG Version: 6.00 Build 0)  -->
<svg xmlns="http://www.w3.org/2000/svg" xmlns:xlink="http://www.w3.org/1999/xlink" version="1.1" id="Capa_1" x="0px" y="0px" viewBox="0 0 512 512" style="enable-background:new 0 0 512 512;" xml:space="preserve">
<path style="fill:#27536B;" d="M512,255.994c0,69.039-27.336,131.695-71.771,177.739c-7.439,7.706-15.356,14.956-23.705,21.684  c-13.279,10.703-27.658,20.119-42.925,28.035c-0.011,0.011-0.022,0.011-0.033,0.022c-8.172,4.219-16.599,8.017-25.249,11.37h-0.011  C319.671,505.927,288.549,512,256.006,512c-38.65,0-75.291-8.561-108.145-23.905c-23.272-10.859-44.624-25.115-63.455-42.114  l-0.011-0.011c-4.341-3.931-8.538-7.994-12.602-12.202l-0.011-0.011C27.336,387.711,0,325.045,0,255.994  c0-6.495,0.244-12.935,0.722-19.308C10.592,104.314,121.113,0,256.006,0C390.987,0,501.574,104.47,511.3,236.975  C511.767,243.259,512,249.599,512,255.994z"/>
<path style="fill:#326275;" d="M512,255.994c0,69.039-27.336,131.695-71.771,177.739c-7.439,7.706-15.356,14.956-23.705,21.684  c-13.279,10.703-27.658,20.119-42.925,28.035c-0.011,0.011-0.022,0.011-0.033,0.022c-8.172,4.219-16.599,8.017-25.249,11.37h-0.011  C319.671,505.927,288.549,512,256.006,512c-38.65,0-75.291-8.561-108.145-23.905c-23.272-10.859-44.624-25.115-63.455-42.114  l-0.011-0.011c-4.341-3.931-8.538-7.994-12.602-12.202l-0.011-0.011C27.336,387.711,0,325.045,0,255.994  c0-6.495,0.244-12.935,0.722-19.308c17.787-51.985,50.586-96.72,95.054-129.563c46.655-34.486,102.071-52.718,160.23-52.718  c14.545,0,29.135,1.166,43.38,3.475c32.166,5.207,62.822,16.1,91.09,32.377c57.092,32.865,99.84,85.539,120.825,146.717  C511.767,243.259,512,249.599,512,255.994z"/>
<polygon style="fill:#FFFFFF;" points="230.711,75.536 278.911,70.207 230.711,64.879 225.383,16.679 220.055,64.879   171.855,70.207 220.055,75.536 225.383,123.736 "/>
<path style="fill:#EA9628;" d="M470.297,324.212c0,10.359-0.733,20.552-2.165,30.523c-4.064,28.524-13.746,55.249-27.902,78.999  C393.685,481.988,328.343,512,256.006,512s-137.668-30.001-184.224-78.244c-0.167-0.278-0.333-0.555-0.489-0.833  c-17.51-29.679-28.058-63.943-29.434-100.55c-0.1-2.709-0.155-5.429-0.155-8.161c0-9.504,0.622-18.864,1.821-28.035  c1.71-13.102,4.597-25.826,8.561-38.062c9.626-29.712,25.571-56.582,46.256-79.032c39.15-42.525,95.298-69.162,157.665-69.162  c11.747,0,23.261,0.944,34.486,2.765c25.038,4.053,48.61,12.424,69.939,24.36c0.777,0.433,1.554,0.877,2.332,1.321  c10.803,6.218,21.007,13.357,30.523,21.296c7.217,6.029,14.023,12.524,20.374,19.431c30.023,32.577,50.053,74.48,55.272,120.88  C469.841,307.924,470.297,316.018,470.297,324.212z"/>
<path style="fill:#F9A52B;" d="M425.806,242.271c0,7.528-0.489,14.945-1.443,22.217c-1.355,10.381-3.642,20.463-6.784,30.156  c-22.084,68.151-86.072,117.427-161.584,117.427c-9.304,0-18.431-0.744-27.325-2.187c-19.841-3.209-38.517-9.848-55.416-19.297  c-0.622-0.344-1.232-0.7-1.854-1.055c-8.561-4.919-16.644-10.581-24.183-16.877c-32.665-27.28-54.927-66.619-59.946-111.176  c-0.722-6.307-1.077-12.713-1.077-19.208c0-8.205,0.577-16.288,1.71-24.183c1.932-13.59,5.474-26.659,10.437-39.005  c39.15-42.525,95.298-69.162,157.665-69.162c11.747,0,23.261,0.944,34.486,2.765c25.038,4.053,48.61,12.424,69.939,24.36  c0.777,0.433,1.554,0.877,2.332,1.321c10.803,6.218,21.007,13.357,30.523,21.296c7.217,6.029,14.023,12.524,20.374,19.431  c7.073,17.632,11.27,36.729,12.025,56.715C425.762,237.952,425.806,240.106,425.806,242.271z"/>
<g>
	
		<rect x="120.798" y="63.304" transform="matrix(-0.7071 -0.7071 0.7071 -0.7071 166.634 205.9922)" style="fill:#FFFFFF;" width="10.362" height="10.362"/>
	
		<rect x="362.792" y="34.753" transform="matrix(-0.7071 -0.7071 0.7071 -0.7071 599.9311 328.368)" style="fill:#FFFFFF;" width="10.362" height="10.362"/>
	
		<rect x="386.271" y="62.359" transform="matrix(-0.7071 -0.7071 0.7071 -0.7071 620.4923 392.0978)" style="fill:#FFFFFF;" width="10.362" height="10.362"/>
	
		<rect x="29.606" y="194.869" transform="matrix(-0.7071 -0.7071 0.7071 -0.7071 -82.0716 366.1063)" style="fill:#FFFFFF;" width="10.362" height="10.362"/>
	
		<rect x="16.431" y="233.171" transform="matrix(-0.7071 -0.7071 0.7071 -0.7071 -131.646 422.1743)" style="fill:#FFFFFF;" width="10.362" height="10.362"/>
	
		<rect x="455.78" y="168.224" transform="matrix(-0.7071 -0.7071 0.7071 -0.7071 664.2932 621.97)" style="fill:#FFFFFF;" width="10.362" height="10.362"/>
</g>
<ellipse style="fill:#F9B55A;" cx="255.994" cy="178.661" rx="65.201" ry="38.588"/>
<g>
</g>
<g>
</g>
<g>
</g>
<g>
</g>
<g>
</g>
<g>
</g>
<g>
</g>
<g>
</g>
<g>
</g>
<g>
</g>
<g>
</g>
<g>
</g>
<g>
</g>
<g>
</g>
<g>
</g>
</svg>
