<?xml version="1.0" encoding="iso-8859-1"?>
<!-- Generator: Adobe Illustrator 19.0.0, SVG Export Plug-In . SVG Version: 6.00 Build 0)  -->
<svg xmlns="http://www.w3.org/2000/svg" xmlns:xlink="http://www.w3.org/1999/xlink" version="1.1" id="Capa_1" x="0px" y="0px" viewBox="0 0 512 512" style="enable-background:new 0 0 512 512;" xml:space="preserve">
<path style="fill:#27536B;" d="M512,255.994c0,83.995-40.46,158.564-102.96,205.22c-3.509,2.631-7.084,5.163-10.726,7.606  C357.611,496.089,308.668,512,256.006,512c-15.533,0-30.745-1.388-45.523-4.03c-35.297-6.34-68.096-19.919-96.786-39.15  c-3.642-2.443-7.217-4.974-10.726-7.606C40.46,414.559,0,340.001,0,255.994C0,114.607,114.618,0,256.006,0  C397.382,0,512,114.607,512,255.994z"/>
<circle style="fill:#E6E6E6;" cx="354.402" cy="168.812" r="21.6"/>
<path style="fill:#CCCCCC;" d="M350.482,164.887c6.429-6.429,15.895-7.942,23.772-4.573c-1.051-2.459-2.566-4.768-4.573-6.775  c-8.435-8.435-22.112-8.435-30.547,0s-8.435,22.112,0,30.547c2.007,2.007,4.316,3.521,6.775,4.573  C342.539,180.783,344.054,171.316,350.482,164.887z"/>
<path style="fill:#E6E6E6;" d="M446.016,287.902c-2.536,1.452-5.111,2.819-7.71,4.098c-3.917,1.955-7.907,3.73-11.949,5.323  c-47.106,18.591-101.507,13.135-144.319-16.377l-37.67-36.837c-31.334-43.252-37.481-99.05-18.466-147.24  c1.586-4.052,3.36-8.04,5.315-11.957c1.288-2.607,2.646-5.174,4.098-7.71L446.016,287.902z"/>
<g>
	<path style="fill:#CCCCCC;" d="M251.701,251.284l-7.333-7.176c-31.334-43.252-37.481-99.05-18.466-147.24   c1.586-4.052,3.36-8.04,5.315-11.957c1.288-2.606,2.646-5.174,4.098-7.71l45.685,45.686c-1.688,2.301-3.305,4.609-4.883,6.925   c-2.379,3.494-4.632,7.003-6.752,10.52C244.133,182.006,236.8,224.198,251.701,251.284z"/>
	<path style="fill:#CCCCCC;" d="M255.994,258.826l-13.912,0.278c-0.133-0.033-0.255-0.078-0.389-0.111L255.994,258.826z"/>
</g>
<path style="fill:#F77759;" d="M330.927,374.025H181.079l37.462-85.483l14.923-34.053c4.308-9.826,13.424-14.734,22.539-14.734  s18.231,4.908,22.539,14.734l14.923,34.053L330.927,374.025z"/>
<rect x="159.275" y="374.032" style="fill:#E6E6E6;" width="193.45" height="38.139"/>
<rect x="159.275" y="374.032" style="fill:#CCCCCC;" width="38.139" height="38.139"/>
<polyline style="fill:#B3B3B3;" points="378.14,412.175 378.14,461.217 133.864,461.217 133.864,412.175 "/>
<polyline style="fill:#999999;" points="378.14,412.175 378.14,428.393 133.864,428.393 133.864,412.175 "/>
<path style="fill:#F77759;" d="M438.307,292c-3.917,1.955-7.907,3.73-11.949,5.323L225.903,96.868  c1.586-4.052,3.36-8.04,5.315-11.957L438.307,292z"/>
<circle style="fill:#666666;" cx="256.006" cy="267.22" r="11.829"/>
<path style="fill:#FCD57E;" d="M409.04,461.214c-3.509,2.631-7.084,5.163-10.726,7.606C357.611,496.089,308.668,512,256.006,512  c-15.533,0-30.745-1.388-45.523-4.03c-35.297-6.34-68.096-19.919-96.786-39.15c-3.642-2.443-7.217-4.974-10.726-7.606  L409.04,461.214L409.04,461.214z"/>
<path style="fill:#C1533E;" d="M269.366,140.332l-43.463-43.463c1.586-4.052,3.36-8.04,5.315-11.957l44.9,44.9  C273.74,133.306,271.487,136.815,269.366,140.332z"/>
<g>
	<polygon style="fill:#FFFFFF;" points="62.811,238.083 68.139,286.283 73.467,238.083 121.667,232.754 73.467,227.426    68.139,179.226 62.811,227.426 14.611,232.754  "/>
	<polygon style="fill:#FFFFFF;" points="288.905,68.655 292.996,105.652 297.085,68.655 334.082,64.566 297.085,60.476    292.996,23.479 288.905,60.476 251.91,64.566  "/>
	<polygon style="fill:#FFFFFF;" points="159.408,300.707 162.585,329.443 165.761,300.707 194.497,297.53 165.761,294.354    162.585,265.618 159.408,294.354 130.672,297.53  "/>
	
		<rect x="480.221" y="236.677" transform="matrix(0.7071 -0.7071 0.7071 0.7071 -28.8487 414.0695)" style="fill:#FFFFFF;" width="10.362" height="10.362"/>
	
		<rect x="407.115" y="182.717" transform="matrix(0.7071 -0.7071 0.7071 0.7071 -12.1057 346.5714)" style="fill:#FFFFFF;" width="10.362" height="10.362"/>
	
		<rect x="424.406" y="381.813" transform="matrix(0.7071 -0.7071 0.7071 0.7071 -147.8232 417.112)" style="fill:#FFFFFF;" width="10.362" height="10.362"/>
	
		<rect x="106.977" y="105.353" transform="matrix(0.7071 -0.7071 0.7071 0.7071 -45.3093 111.6828)" style="fill:#FFFFFF;" width="10.362" height="10.362"/>
	
		<rect x="50.417" y="344.378" transform="matrix(0.7071 -0.7071 0.7071 0.7071 -230.8911 141.6972)" style="fill:#FFFFFF;" width="10.362" height="10.362"/>
	
		<rect x="102.045" y="404.722" transform="matrix(0.7071 -0.7071 0.7071 0.7071 -258.4397 195.8787)" style="fill:#FFFFFF;" width="10.362" height="10.362"/>
	
		<rect x="346.788" y="88.029" transform="matrix(0.7071 -0.7071 0.7071 0.7071 37.1795 276.1805)" style="fill:#FFFFFF;" width="10.362" height="10.362"/>
</g>
<path style="fill:#C1533E;" d="M233.242,345.679c2.398,11.458,5.041,20.774,7.728,28.346h-59.89l37.462-85.483l14.923-34.053  c4.308-9.826,13.424-14.734,22.539-14.734C256.003,239.755,221.028,287.388,233.242,345.679z"/>
<g>
</g>
<g>
</g>
<g>
</g>
<g>
</g>
<g>
</g>
<g>
</g>
<g>
</g>
<g>
</g>
<g>
</g>
<g>
</g>
<g>
</g>
<g>
</g>
<g>
</g>
<g>
</g>
<g>
</g>
</svg>
