<?xml version="1.0" encoding="iso-8859-1"?>
<!-- Generator: Adobe Illustrator 19.0.0, SVG Export Plug-In . SVG Version: 6.00 Build 0)  -->
<svg xmlns="http://www.w3.org/2000/svg" xmlns:xlink="http://www.w3.org/1999/xlink" version="1.1" id="Capa_1" x="0px" y="0px" viewBox="0 0 512 512" style="enable-background:new 0 0 512 512;" xml:space="preserve">
<path style="fill:#27536B;" d="M512,255.994c0,88.714-45.134,166.903-113.685,212.825C357.611,496.089,308.668,512,256.006,512  c-15.533,0-30.745-1.388-45.523-4.03c-35.297-6.34-68.096-19.919-96.786-39.15C45.134,422.897,0,344.72,0,255.994  C0,114.607,114.618,0,256.006,0C397.382,0,512,114.607,512,255.994z"/>
<g>
	<polygon style="fill:#FFFFFF;" points="196.495,72.936 201.823,121.135 207.152,72.936 255.352,67.607 207.152,62.279    201.823,14.079 196.495,62.279 148.295,67.607  "/>
	<polygon style="fill:#FFFFFF;" points="446.393,285.162 450.482,322.159 454.572,285.162 491.568,281.073 454.572,276.983    450.482,239.986 446.393,276.983 409.396,281.073  "/>
	<polygon style="fill:#FFFFFF;" points="107.731,160.964 110.907,189.7 114.084,160.964 142.82,157.787 114.084,154.61    110.907,125.874 107.731,154.61 78.995,157.787  "/>
	
		<rect x="270.817" y="92.337" transform="matrix(0.7071 -0.7071 0.7071 0.7071 11.8823 223.7228)" style="fill:#FFFFFF;" width="10.362" height="10.362"/>
	
		<rect x="411.556" y="151.628" transform="matrix(0.7071 -0.7071 0.7071 0.7071 11.179 340.6062)" style="fill:#FFFFFF;" width="10.362" height="10.362"/>
	
		<rect x="428.848" y="350.721" transform="matrix(0.7071 -0.7071 0.7071 0.7071 -124.5369 411.1462)" style="fill:#FFFFFF;" width="10.362" height="10.362"/>
	
		<rect x="111.421" y="74.267" transform="matrix(0.7071 -0.7071 0.7071 0.7071 -22.0264 105.7202)" style="fill:#FFFFFF;" width="10.362" height="10.362"/>
	
		<rect x="54.859" y="313.297" transform="matrix(0.7071 -0.7071 0.7071 0.7071 -207.6126 135.7346)" style="fill:#FFFFFF;" width="10.362" height="10.362"/>
	
		<rect x="30.819" y="357.391" transform="matrix(0.7071 -0.7071 0.7071 0.7071 -245.8328 131.651)" style="fill:#FFFFFF;" width="10.362" height="10.362"/>
	
		<rect x="351.23" y="56.949" transform="matrix(0.7071 -0.7071 0.7071 0.7071 60.4579 270.2179)" style="fill:#FFFFFF;" width="10.362" height="10.362"/>
</g>
<path style="fill:#E6E6E6;" d="M417.323,287.683c0,27.491-6.884,53.351-18.997,76.012c-0.011,0-0.011,0.011-0.011,0.011V468.82  C357.611,496.089,308.668,512,256.006,512s-101.616-15.9-142.309-43.18V363.706c0,0,0-0.011-0.011-0.011  c-12.125-22.662-18.998-48.521-18.998-76.012c0-72.393,47.688-133.66,113.374-154.079h95.876  C369.624,154.023,417.323,215.29,417.323,287.683z"/>
<g>
	<path style="fill:#CCCCCC;" d="M113.696,376.208v-12.502c0,0,0-0.011-0.011-0.011c-12.125-22.662-18.998-48.521-18.998-76.012   c0-72.393,47.688-133.66,113.374-154.079c0,0-51.985,40.527-45.323,119.359s62.178,123.245,62.178,123.245L113.696,376.208   L113.696,376.208z"/>
	<path style="fill:#CCCCCC;" d="M210.483,388.422V507.97c-35.297-6.34-68.096-19.919-96.786-39.15v-86.727L210.483,388.422z"/>
</g>
<path style="fill:#B3B3B3;" d="M398.326,363.695c-0.011,0-0.011,0.011-0.011,0.011v30.511H113.696v-30.511c0,0,0-0.011-0.011-0.011  H398.326z"/>
<g>
	<path style="fill:#666666;" d="M158.298,457.261h-18.875v-38.306c0-5.212,4.226-9.438,9.438-9.438l0,0   c5.212,0,9.438,4.226,9.438,9.438V457.261z"/>
	<path style="fill:#666666;" d="M244.014,457.261h-18.875v-38.306c0-5.212,4.226-9.438,9.438-9.438l0,0   c5.212,0,9.438,4.226,9.438,9.438V457.261z"/>
	<path style="fill:#666666;" d="M372.589,457.261h-18.875v-38.306c0-5.212,4.226-9.438,9.438-9.438l0,0   c5.212,0,9.438,4.226,9.438,9.438V457.261z"/>
	<path style="fill:#666666;" d="M201.156,457.261h-18.875v-38.306c0-5.212,4.226-9.438,9.438-9.438l0,0   c5.212,0,9.438,4.226,9.438,9.438V457.261z"/>
	<path style="fill:#666666;" d="M329.731,457.261h-18.875v-38.306c0-5.212,4.226-9.438,9.438-9.438l0,0   c5.212,0,9.438,4.226,9.438,9.438V457.261z"/>
	<path style="fill:#666666;" d="M286.872,457.261h-18.875v-38.306c0-5.212,4.226-9.438,9.438-9.438l0,0   c5.212,0,9.438,4.226,9.438,9.438V457.261z"/>
</g>
<path style="fill:#E6E6E6;" d="M417.121,279.782h-53.295c-1.099-22.928-6.995-44.601-16.699-64.043  c-10.637-21.307-25.837-39.927-44.335-54.572c-15.356-12.169-32.987-21.596-52.152-27.558h53.295  c6.551,2.043,12.935,4.486,19.097,7.317c21.784,9.948,40.96,24.616,56.226,42.681C401.421,209.832,415.356,243.208,417.121,279.782z  "/>
<path style="fill:#666666;" d="M409.715,279.782h-45.889c-1.099-22.928-6.995-44.601-16.699-64.043  c-10.637-21.307-25.837-39.927-44.335-54.572c-15.356-12.169-32.987-21.596-52.152-27.558h45.889  c6.551,2.043,12.935,4.486,19.097,7.317c21.784,9.948,40.96,24.616,56.226,42.681C394.016,209.832,407.95,243.208,409.715,279.782z"/>
<path style="fill:#999999;" d="M415.078,147.787l-67.951,67.951c-4.297-8.594-9.338-16.766-15.045-24.416  c-8.405-11.281-18.265-21.429-29.29-30.156l20.241-20.241l42.592-42.592l29.723,29.723L415.078,147.787z"/>
<g>
	<path style="fill:#808080;" d="M415.078,147.787l-67.951,67.951c-4.297-8.594-9.338-16.766-15.045-24.416l63.266-63.266   L415.078,147.787z"/>
	<path style="fill:#808080;" d="M415.078,147.787c-0.799,0.811-1.699,1.488-2.687,2.032c-8.816,4.985-24.272,0.056-36.563-12.236   c-12.291-12.291-17.221-27.747-12.236-36.563c0.544-0.988,1.221-1.888,2.032-2.687c8.016-8.028,25.593-3.453,39.25,10.204   S423.106,139.771,415.078,147.787z"/>
</g>
<path style="fill:#51BEE5;" d="M412.391,149.819c-8.816,4.985-24.272,0.056-36.563-12.236  c-12.291-12.291-17.221-27.747-12.236-36.563c8.816-4.985,24.271-0.056,36.563,12.236  C412.447,125.548,417.377,141.003,412.391,149.819z"/>
<ellipse transform="matrix(-0.7071 -0.7071 0.7071 -0.7071 575.9913 464.7057)" style="fill:#94DEF2;" cx="384.239" cy="113.061" rx="9.715" ry="6.107"/>
<g>
</g>
<g>
</g>
<g>
</g>
<g>
</g>
<g>
</g>
<g>
</g>
<g>
</g>
<g>
</g>
<g>
</g>
<g>
</g>
<g>
</g>
<g>
</g>
<g>
</g>
<g>
</g>
<g>
</g>
</svg>
