<?xml version="1.0" encoding="iso-8859-1"?>
<!-- Generator: Adobe Illustrator 19.0.0, SVG Export Plug-In . SVG Version: 6.00 Build 0)  -->
<svg xmlns="http://www.w3.org/2000/svg" xmlns:xlink="http://www.w3.org/1999/xlink" version="1.1" id="Capa_1" x="0px" y="0px" viewBox="0 0 512 512" style="enable-background:new 0 0 512 512;" xml:space="preserve">
<path style="fill:#27536B;" d="M512,255.994c0,86.238-42.647,162.517-108,208.906c-10.404,7.395-21.396,14.023-32.876,19.808  C336.515,502.163,297.409,512,256.006,512c-5.718,0-11.392-0.189-17.021-0.566c-12.269-0.799-24.305-2.465-36.052-4.941  C87.015,482.055,0,379.184,0,255.994C0,114.607,114.618,0,256.006,0c60.59,0,116.272,21.063,160.119,56.249  c0.011,0.011,0.033,0.022,0.044,0.033c23.017,18.476,42.758,40.849,58.247,66.119c7.761,12.658,14.445,26.037,19.941,40.016  C505.749,191.396,512,222.963,512,255.994z"/>
<polygon style="fill:#FFFFFF;" points="238.24,62.653 243.569,110.853 248.897,62.653 297.097,57.325 248.897,51.996 243.569,3.796   238.24,51.996 190.041,57.325 "/>
<path style="fill:#B3B3B3;" d="M404,464.9c-10.404,7.395-21.396,14.023-32.876,19.808l-17.976-84.24h-90.491l-23.672,110.965  c-12.269-0.799-24.305-2.465-36.052-4.941l49.698-232.989l3.697-17.343l1.421-6.651l0.888,0.189l19.864,4.241l14.745,3.142  l-2.842,13.324l-2.487,11.658l-4.319,20.241l-13.202,61.867h75.013l-13.246-62.1l-4.319-20.23l-2.52-11.78l-2.765-12.98  l14.123-3.009l19.875-4.241l1.499-0.322l4.952,23.217L404,464.9z"/>
<path style="fill:#61CCF2;" d="M416.142,56.241c26.025-10.821,59.44,10.031,74.634,46.574c15.187,36.526,6.408,74.922-19.617,85.743  L416.142,56.241z"/>
<path style="fill:#5289E2;" d="M497.388,177.651l-26.226,10.903l-47.499,19.753l-7.706-18.531l-39.605-95.254l-7.694-18.509  c-0.011-0.011-0.011-0.022-0.011-0.022l47.499-19.753l0.877-0.355l25.348-10.548l4.652,11.192l3.264,7.85l39.183,94.233l3.264,7.85  L497.388,177.651z"/>
<path style="fill:#E6E6E6;" d="M415.958,189.775l-11.836,4.919l-49.254,20.485c-3.087-7.428-7.905-14.112-14.179-19.419  c-3.964-3.353-8.494-6.151-13.546-8.239c-26.137-10.781-56.06,1.654-66.83,27.791c-2.287,5.529-3.531,11.225-3.831,16.877  c-0.044,0.877-0.067,1.765-0.067,2.643c0,0.566,0.011,1.144,0.033,1.71c0.022,0.699,0.056,1.399,0.111,2.098  c0.044,0.566,0.1,1.144,0.167,1.71c0,0.111,0.011,0.222,0.033,0.333c0.067,0.566,0.133,1.133,0.222,1.688v0.033  c0.089,0.588,0.189,1.166,0.3,1.743c0.122,0.666,0.255,1.31,0.4,1.965c0.133,0.588,0.278,1.177,0.433,1.754  c0,0.022,0.011,0.033,0.022,0.044c0.122,0.5,0.266,0.999,0.422,1.499c0,0.022,0,0.033,0.011,0.056  c0.022,0.078,0.044,0.155,0.067,0.233c0.011,0.022,0.011,0.044,0.022,0.067c0.122,0.4,0.244,0.788,0.378,1.188  c0.144,0.455,0.311,0.91,0.477,1.366c0.111,0.311,0.233,0.622,0.355,0.933c0.155,0.422,0.322,0.822,0.489,1.232l-4.03,1.677  l-104.636,43.502l-8.649-20.796l-22.317-53.673l-4.042-9.715l-4.597-11.037c-0.011-0.033-0.011-0.044-0.011-0.044L374.421,95.321  l1.932-0.799l29.934,71.993L415.958,189.775z"/>
<path style="fill:#999999;" d="M358.055,249.51l-1.499,0.322l-19.875,4.241c-1.888,6.329-5.818,12.014-11.359,15.989l2.52,11.78  l4.319,20.23c13.046-5.629,24.172-15.755,30.845-29.346L358.055,249.51z M279.6,257.071c-0.433-1.033-0.799-2.076-1.099-3.131  l-19.864-4.241l-0.888-0.189l-1.421,6.651l-3.697,17.343c6.373,12.513,17.032,22.917,30.967,28.802l4.319-20.241l2.487-11.658  C285.751,267.209,281.931,262.667,279.6,257.071z"/>
<path style="fill:#5289E2;" d="M354.868,215.179c-5.03-12.102-14.667-22.262-27.725-27.658c-26.137-10.781-56.06,1.654-66.83,27.791  c-2.643,6.395-3.897,13.013-3.897,19.519c0,0.566,0.011,1.144,0.033,1.71c0.022,0.699,0.056,1.399,0.111,2.098  c0.044,0.577,0.1,1.144,0.167,1.71c0,0.111,0.011,0.222,0.033,0.333c0.067,0.566,0.133,1.133,0.222,1.688v0.033  c0.089,0.588,0.189,1.166,0.3,1.743c0.122,0.666,0.255,1.31,0.4,1.965c0.133,0.588,0.278,1.177,0.433,1.754  c0,0.022,0.011,0.033,0.022,0.044c0.133,0.5,0.266,1.01,0.422,1.499c0,0.022,0,0.033,0.011,0.056  c0.022,0.078,0.044,0.155,0.067,0.233c0.011,0.022,0.011,0.044,0.022,0.067c0.122,0.4,0.244,0.788,0.378,1.188  c0.144,0.455,0.311,0.91,0.477,1.366c0.111,0.311,0.233,0.622,0.355,0.933c0.155,0.422,0.322,0.822,0.489,1.232  c5.008,12.036,14.578,22.173,27.558,27.58c0.067,0.022,0.122,0.056,0.189,0.078c13.268,5.474,27.514,4.963,39.738-0.3  c11.847-5.085,21.784-14.623,27.092-27.491c0.611-1.499,1.155-2.998,1.621-4.519C360.164,238.118,359.332,225.894,354.868,215.179z   M284.396,244.48c-5.33-12.813,0.744-27.536,13.568-32.865c12.813-5.33,27.536,0.744,32.865,13.568  c5.33,12.813-0.744,27.536-13.568,32.865C304.449,263.378,289.726,257.305,284.396,244.48z"/>
<path style="fill:#E6E6E6;" d="M297.961,211.616c12.818-5.33,27.538,0.745,32.866,13.561c5.329,12.817-0.745,27.538-13.561,32.866  c-12.818,5.33-27.538-0.745-32.866-13.561C279.069,231.666,285.144,216.946,297.961,211.616z"/>
<path style="fill:#CCCCCC;" d="M330.828,225.178c-5.005-12.037-18.292-18.125-30.508-14.407c6.944,2.107,12.926,7.187,15.929,14.407  c5.329,12.817-0.745,27.538-13.561,32.866c-0.779,0.324-1.567,0.605-2.358,0.846c5.382,1.633,11.342,1.481,16.939-0.846  C330.082,252.716,336.157,237.995,330.828,225.178z"/>
<path style="fill:#5289E2;" d="M143.042,278.867l-71.837,29.867l-22.284-53.606c-0.022-0.044-0.033-0.067-0.033-0.067l71.837-29.867  l18.498,44.479L143.042,278.867z"/>
<polygon style="fill:#E6E6E6;" points="48.891,255.062 71.209,308.738 76.192,320.723 54.238,329.852 21.953,252.205   43.907,243.077 "/>
<polygon style="fill:#CCCCCC;" points="67.166,299.015 74.544,316.76 76.192,320.723 54.238,329.852 43.564,304.181 65.519,295.052   "/>
<path style="fill:#4379C9;" d="M471.163,188.554l-47.499,19.753l-7.706-18.531l-39.605-95.254l-7.694-18.509  C369.502,77.6,423.541,179.738,471.163,188.554z"/>
<path style="fill:#CCCCCC;" d="M259.869,253.252c0.155,0.422,0.322,0.822,0.489,1.232l-4.03,1.677l-104.636,43.502l-8.649-20.796  l-22.317-53.673l-4.042-9.715c9.46,19.619,34.053,56.926,79.365,40.815c14.656-5.207,36.207-13.912,60.434-24.105  c-0.044,0.877-0.067,1.765-0.067,2.643c0,0.566,0.011,1.144,0.033,1.71c0.022,0.699,0.056,1.399,0.111,2.098  c0.044,0.566,0.1,1.144,0.167,1.71c0,0.111,0.011,0.222,0.033,0.333c0.067,0.566,0.133,1.133,0.222,1.688v0.033  c0.089,0.588,0.189,1.166,0.3,1.743c0.122,0.666,0.255,1.31,0.4,1.965c0.133,0.588,0.278,1.177,0.433,1.754  c0,0.022,0.011,0.033,0.022,0.044c0.122,0.5,0.266,0.999,0.422,1.499c0,0.022,0,0.033,0.011,0.056  c0.022,0.078,0.044,0.155,0.067,0.233c0.011,0.022,0.011,0.044,0.022,0.067c0.122,0.4,0.244,0.788,0.378,1.188  c0.144,0.455,0.311,0.91,0.477,1.366C259.625,252.63,259.747,252.941,259.869,253.252z"/>
<path style="fill:#4379C9;" d="M143.042,278.867l-71.837,29.867l-22.284-53.606c0.999,1.91,22.961,42.059,90.302,14.545  L143.042,278.867z"/>
<path style="fill:#CCCCCC;" d="M415.958,189.775l-11.836,4.919l-49.254,20.485c-3.087-7.428-7.905-14.112-14.179-19.419  c25.326-11.181,48.654-21.618,65.597-29.246L415.958,189.775z"/>
<g>
	<polygon style="fill:#FFFFFF;" points="186.412,378.078 190.501,415.074 194.592,378.078 231.587,373.988 194.592,369.898    190.501,332.902 186.412,369.898 149.415,373.988  "/>
	<polygon style="fill:#FFFFFF;" points="118.834,160.964 122.01,189.7 125.187,160.964 153.923,157.787 125.187,154.61    122.01,125.874 118.834,154.61 90.098,157.787  "/>
	
		<rect x="281.919" y="92.337" transform="matrix(0.7071 -0.7071 0.7071 0.7071 15.134 231.5732)" style="fill:#FFFFFF;" width="10.362" height="10.362"/>
	
		<rect x="134.918" y="304.413" transform="matrix(0.7071 -0.7071 0.7071 0.7071 -177.8819 189.743)" style="fill:#FFFFFF;" width="10.362" height="10.362"/>
	
		<rect x="404.5" y="250.813" transform="matrix(0.7071 -0.7071 0.7071 0.7071 -61.0223 364.6674)" style="fill:#FFFFFF;" width="10.362" height="10.362"/>
	
		<rect x="311.907" y="306.631" transform="matrix(0.7071 -0.7071 0.7071 0.7071 -127.6114 315.5426)" style="fill:#FFFFFF;" width="10.362" height="10.362"/>
	
		<rect x="282.405" y="433.993" transform="matrix(0.7071 -0.7071 0.7071 0.7071 -226.3109 331.985)" style="fill:#FFFFFF;" width="10.362" height="10.362"/>
	
		<rect x="439.95" y="350.722" transform="matrix(0.7071 -0.7071 0.7071 0.7071 -121.286 418.9968)" style="fill:#FFFFFF;" width="10.362" height="10.362"/>
	
		<rect x="122.523" y="74.267" transform="matrix(0.7071 -0.7071 0.7071 0.7071 -18.7747 113.5706)" style="fill:#FFFFFF;" width="10.362" height="10.362"/>
	
		<rect x="473.923" y="253.461" transform="matrix(0.7071 -0.7071 0.7071 0.7071 -42.5614 414.5322)" style="fill:#FFFFFF;" width="10.362" height="10.362"/>
	
		<rect x="41.921" y="357.392" transform="matrix(0.7071 -0.7071 0.7071 0.7071 -242.5819 139.5017)" style="fill:#FFFFFF;" width="10.362" height="10.362"/>
	
		<rect x="362.332" y="56.95" transform="matrix(0.7071 -0.7071 0.7071 0.7071 63.7088 278.0686)" style="fill:#FFFFFF;" width="10.362" height="10.362"/>
</g>
<g>
</g>
<g>
</g>
<g>
</g>
<g>
</g>
<g>
</g>
<g>
</g>
<g>
</g>
<g>
</g>
<g>
</g>
<g>
</g>
<g>
</g>
<g>
</g>
<g>
</g>
<g>
</g>
<g>
</g>
</svg>
