<?xml version="1.0" encoding="iso-8859-1"?>
<!-- Generator: Adobe Illustrator 19.0.0, SVG Export Plug-In . SVG Version: 6.00 Build 0)  -->
<svg xmlns="http://www.w3.org/2000/svg" xmlns:xlink="http://www.w3.org/1999/xlink" version="1.1" id="Capa_1" x="0px" y="0px" viewBox="0 0 511.989 511.989" style="enable-background:new 0 0 511.989 511.989;" xml:space="preserve">
<circle style="fill:#27536B;" cx="255.994" cy="255.994" r="255.994"/>
<g>
	<polygon style="fill:#FFFFFF;" points="141.735,129.496 189.935,124.168 141.735,118.839 136.407,70.638 131.078,118.839    82.878,124.168 131.078,129.496 136.407,177.696  "/>
	<polygon style="fill:#FFFFFF;" points="412.382,284.778 449.378,280.689 412.382,276.599 408.292,239.603 404.202,276.599    367.206,280.689 404.202,284.778 408.292,321.775  "/>
	<polygon style="fill:#FFFFFF;" points="309.275,427.512 346.271,423.422 309.275,419.332 305.185,382.336 301.095,419.332    264.099,423.422 301.095,427.512 305.185,464.508  "/>
	<polygon style="fill:#FFFFFF;" points="200.601,82.622 229.336,79.445 200.601,76.269 197.423,47.533 194.246,76.269    165.51,79.445 194.246,82.622 197.423,111.358  "/>
</g>
<g>
	
		<rect x="342.255" y="101.481" transform="matrix(-0.7071 -0.7071 0.7071 -0.7071 617.5002 467.6209)" style="fill:#999999;" width="126.686" height="8.882"/>
	
		<rect x="324.923" y="171.964" transform="matrix(-0.7071 -0.7071 0.7071 -0.7071 433.1268 544.652)" style="fill:#999999;" width="8.882" height="21.318"/>
	
		<rect x="217.867" y="278.442" transform="matrix(-0.7071 -0.7071 0.7071 -0.7071 174.6669 651.7139)" style="fill:#999999;" width="8.882" height="22.481"/>
</g>
<g>
	
		<rect x="306.723" y="27.984" transform="matrix(-0.7071 -0.7071 0.7071 -0.7071 557.9987 323.9831)" style="fill:#E6E6E6;" width="78.751" height="36.884"/>
	
		<rect x="426.19" y="147.455" transform="matrix(-0.7071 -0.7071 0.7071 -0.7071 677.4625 612.4085)" style="fill:#E6E6E6;" width="78.751" height="36.884"/>
</g>
<g>
	<path style="fill:#CCCCCC;" d="M437.116,111.636l-36.307,36.318l-6.284,6.284l-2.987,2.976c-0.688,7.639-3.953,15.089-9.804,20.929   c-2.076,2.076-4.352,3.831-6.773,5.252c-2.82,1.665-5.818,2.876-8.916,3.653c-11.214,2.842-23.594-0.133-32.366-8.905   c-8.771-8.771-11.747-21.163-8.916-32.377c0.788-3.087,2.01-6.096,3.664-8.905c1.432-2.409,3.175-4.686,5.252-6.762   c5.862-5.862,13.324-9.127,20.974-9.815l-0.011-0.011l2.965-2.953l6.284-6.284l36.307-36.318L437.116,111.636z"/>
	
		<rect x="278.947" y="295.297" transform="matrix(0.7071 0.7071 -0.7071 0.7071 320.2951 -137.9555)" style="fill:#CCCCCC;" width="95.455" height="44.712"/>
</g>
<path style="fill:#E6E6E6;" d="M272.407,299.708l72.208,72.208l36.323-36.323l-72.208-72.208l-15.757,15.757l-9.051-9.051  l-4.71,4.71l9.051,9.051L272.407,299.708z M292.975,288.562l11.95,11.95l-11.145,11.145l-11.95-11.95L292.975,288.562z   M331.433,317.6l11.045-11.045l12.378,12.378l-11.045,11.045L331.433,317.6z M339.1,334.689l-11.145,11.145l-12.378-12.378  l11.145-11.145L339.1,334.689z M326.723,312.89l-12.378-12.378l11.045-11.045l12.378,12.378L326.723,312.89z M322.013,317.6  l-11.145,11.145l-12.378-12.378l11.145-11.145L322.013,317.6z M332.665,350.544l11.145-11.145l11.95,11.95l-11.145,11.145  L332.665,350.544z M360.472,346.64l-11.95-11.95l11.045-11.045l11.95,11.95L360.472,346.64z M308.73,272.806l11.95,11.95  l-11.045,11.045l-11.95-11.95L308.73,272.806z"/>
<rect x="146.447" y="162.802" transform="matrix(-0.7071 -0.7071 0.7071 -0.7071 200.5505 453.3864)" style="fill:#CCCCCC;" width="95.455" height="44.712"/>
<polygon style="fill:#E6E6E6;" points="311.028,222.29 315.636,238.389 248.129,305.896 205.937,263.704 273.444,196.197   289.533,200.805 314.148,176.189 335.633,197.685 "/>
<g>
	
		<rect x="57.164" y="378.745" transform="matrix(-0.7071 -0.7071 0.7071 -0.7071 -50.3943 745.4982)" style="fill:#999999;" width="144.073" height="8.882"/>
	
		<rect x="84.31" y="368.877" transform="matrix(-0.7071 -0.7071 0.7071 -0.7071 -26.5577 735.635)" style="fill:#999999;" width="109.532" height="8.882"/>
</g>
<path style="fill:#CCCCCC;" d="M183.309,342.013c11.1,5.53,24.941,3.678,34.193-5.574c11.582-11.582,11.582-30.358,0-41.94  c-11.582-11.582-30.358-11.582-41.94,0c-9.252,9.252-11.104,23.093-5.574,34.193c-11.1-5.53-24.941-3.678-34.193,5.574  l-46.668,46.668l41.94,41.94l46.668-46.668C186.986,366.954,188.839,353.113,183.309,342.013z"/>
<g>
	
		<rect x="93.651" y="384.099" transform="matrix(-0.7071 -0.7071 0.7071 -0.7071 -64.8555 750.217)" style="fill:#FFFFFF;" width="58.593" height="8.882"/>
	
		<rect x="128.727" y="349.028" transform="matrix(-0.7071 -0.7071 0.7071 -0.7071 19.8234 715.1493)" style="fill:#FFFFFF;" width="58.593" height="8.882"/>
</g>
<g>
	
		<rect x="237.641" y="240.264" transform="matrix(-0.7071 0.7071 -0.7071 -0.7071 604.142 289.6531)" style="fill:#CCCCCC;" width="8.882" height="59.368"/>
	
		<rect x="274.925" y="202.97" transform="matrix(-0.7071 0.7071 -0.7071 -0.7071 641.4195 199.6238)" style="fill:#CCCCCC;" width="8.882" height="59.368"/>
	
		<rect x="292.117" y="200.077" transform="matrix(-0.7071 -0.7071 0.7071 -0.7071 380.0056 566.4407)" style="fill:#CCCCCC;" width="30.399" height="8.882"/>
</g>
<rect x="117.231" y="360.514" transform="matrix(-0.7071 -0.7071 0.7071 -0.7071 -7.9239 726.6282)" style="fill:#FFFFFF;" width="58.593" height="8.882"/>
<path style="fill:#999999;" d="M197.512,327.519c-3.338,0-6.676-1.271-9.218-3.812c-5.083-5.083-5.083-13.354,0-18.437  c5.084-5.083,13.354-5.084,18.437,0c5.083,5.083,5.083,13.354,0,18.436C204.189,326.247,200.851,327.519,197.512,327.519z   M197.512,308.116c-1.632,0-3.264,0.622-4.508,1.864c-2.485,2.485-2.485,6.53,0,9.016c2.486,2.485,6.53,2.485,9.016,0  c2.485-2.486,2.485-6.53,0-9.016C200.776,308.738,199.144,308.116,197.512,308.116z"/>
<circle style="fill:#2B88A0;" cx="197.514" cy="314.486" r="9.705"/>
<g>
	
		<rect x="34.842" y="300.384" transform="matrix(-0.7071 -0.7071 0.7071 -0.7071 -98.3932 595.897)" style="fill:#E6E6E6;" width="78.751" height="35.885"/>
	
		<rect x="154.3" y="419.839" transform="matrix(-0.7071 -0.7071 0.7071 -0.7071 21.0659 884.2883)" style="fill:#E6E6E6;" width="78.751" height="35.885"/>
</g>
<g>
	
		<rect x="57.336" y="286.292" transform="matrix(-0.7071 -0.7071 0.7071 -0.7071 -112.5097 561.8652)" style="fill:#CCCCCC;" width="5.55" height="35.885"/>
	
		<rect x="71.438" y="300.379" transform="matrix(-0.7071 -0.7071 0.7071 -0.7071 -98.3979 595.8857)" style="fill:#CCCCCC;" width="5.55" height="35.885"/>
	
		<rect x="85.528" y="314.482" transform="matrix(-0.7071 -0.7071 0.7071 -0.7071 -84.3168 629.9232)" style="fill:#CCCCCC;" width="5.55" height="35.885"/>
	
		<rect x="176.796" y="405.75" transform="matrix(-0.7071 -0.7071 0.7071 -0.7071 6.951 850.264)" style="fill:#CCCCCC;" width="5.55" height="35.885"/>
	
		<rect x="190.905" y="419.845" transform="matrix(-0.7071 -0.7071 0.7071 -0.7071 21.0698 884.3015)" style="fill:#CCCCCC;" width="5.55" height="35.885"/>
	
		<rect x="204.987" y="433.939" transform="matrix(-0.7071 -0.7071 0.7071 -0.7071 35.143 918.3201)" style="fill:#CCCCCC;" width="5.55" height="35.885"/>
</g>
<path style="fill:#E6E6E6;" d="M248.444,203.098l-72.208-72.208l-36.324,36.324l72.208,72.208l15.756-15.756l9.051,9.051l4.71-4.71  l-9.051-9.051L248.444,203.098z M227.877,214.244l-11.95-11.95l11.145-11.145l11.95,11.95L227.877,214.244z M189.418,185.205  l-11.045,11.045l-12.378-12.378l11.045-11.045L189.418,185.205z M181.75,168.117l11.145-11.145l12.378,12.378l-11.145,11.145  L181.75,168.117z M194.128,189.916l12.378,12.378l-11.045,11.045l-12.378-12.378L194.128,189.916z M198.839,185.205l11.145-11.145  l12.378,12.378l-11.145,11.145L198.839,185.205z M188.186,152.262l-11.145,11.145l-11.95-11.95l11.145-11.145L188.186,152.262z   M160.38,156.167l11.95,11.95l-11.045,11.045l-11.951-11.949L160.38,156.167z M212.12,230l-11.95-11.95l11.045-11.045l11.95,11.95  L212.12,230z"/>
<g>
	<path style="fill:#CCCCCC;" d="M300.513,31.632l60.396,60.397l30.791-30.791L331.304,0.841L300.513,31.632z M331.304,10.263   l9.035,9.035l-21.37,21.37l-9.035-9.035L331.304,10.263z M333.066,54.764l-9.388-9.388l21.37-21.37l9.388,9.388L333.066,54.764z    M359.145,38.105l9.388,9.388l-21.369,21.369l-9.388-9.388L359.145,38.105z M360.908,82.606l-9.035-9.035l21.37-21.37l9.035,9.035   L360.908,82.606z"/>
	<path style="fill:#CCCCCC;" d="M450.763,120.301l-30.791,30.791l60.397,60.397l30.791-30.791L450.763,120.301z M478.605,157.565   l9.387,9.387l-21.369,21.37l-9.388-9.388L478.605,157.565z M452.526,174.224l-9.388-9.388l21.37-21.37l9.388,9.388L452.526,174.224   z M450.763,129.723l9.035,9.035l-21.37,21.37l-9.035-9.035L450.763,129.723z M471.334,193.033l21.369-21.37l9.035,9.035   l-21.37,21.37L471.334,193.033z"/>
</g>
<g>
	
		<rect x="374.762" y="106.536" transform="matrix(-0.7071 0.7071 -0.7071 -0.7071 741.1404 -41.712)" style="fill:#E6E6E6;" width="8.894" height="52.207"/>
	<path style="fill:#E6E6E6;" d="M374.96,183.395c-2.82,1.665-5.818,2.876-8.916,3.653l-41.282-41.282   c0.788-3.087,2.01-6.096,3.664-8.905L374.96,183.395z"/>
</g>
<g>
	
		<rect x="174.082" y="160.289" transform="matrix(-0.7071 -0.7071 0.7071 -0.7071 189.016 409.2328)" style="fill:#FFFFFF;" width="10.362" height="10.362"/>
	
		<rect x="270.79" y="359.794" transform="matrix(-0.7071 -0.7071 0.7071 -0.7071 213.0358 818.1921)" style="fill:#FFFFFF;" width="10.362" height="10.362"/>
	
		<rect x="103.582" y="242.803" transform="matrix(-0.7071 -0.7071 0.7071 -0.7071 10.3188 500.242)" style="fill:#FFFFFF;" width="10.362" height="10.362"/>
	
		<rect x="391.359" y="124.309" transform="matrix(-0.7071 -0.7071 0.7071 -0.7071 585.3727 501.4503)" style="fill:#FFFFFF;" width="10.362" height="10.362"/>
	
		<rect x="280.782" y="173.27" transform="matrix(-0.7071 -0.7071 0.7071 -0.7071 361.9863 506.8415)" style="fill:#FFFFFF;" width="10.362" height="10.362"/>
	
		<rect x="433.993" y="219.233" transform="matrix(-0.7071 -0.7071 0.7071 -0.7071 591.0331 693.6425)" style="fill:#FFFFFF;" width="10.362" height="10.362"/>
	
		<rect x="350.725" y="61.695" transform="matrix(-0.7071 -0.7071 0.7071 -0.7071 560.2817 365.8286)" style="fill:#FFFFFF;" width="10.362" height="10.362"/>
	
		<rect x="74.271" y="379.114" transform="matrix(-0.7071 -0.7071 0.7071 -0.7071 -136.1037 712.2148)" style="fill:#FFFFFF;" width="10.362" height="10.362"/>
	
		<rect x="253.459" y="27.718" transform="matrix(-0.7071 -0.7071 0.7071 -0.7071 418.2628 239.0482)" style="fill:#FFFFFF;" width="10.362" height="10.362"/>
	
		<rect x="357.389" y="459.725" transform="matrix(-0.7071 -0.7071 0.7071 -0.7071 290.207 1050.0205)" style="fill:#FFFFFF;" width="10.362" height="10.362"/>
	
		<rect x="56.946" y="139.299" transform="matrix(-0.7071 -0.7071 0.7071 -0.7071 3.8946 290.5735)" style="fill:#FFFFFF;" width="10.362" height="10.362"/>
</g>
<g>
</g>
<g>
</g>
<g>
</g>
<g>
</g>
<g>
</g>
<g>
</g>
<g>
</g>
<g>
</g>
<g>
</g>
<g>
</g>
<g>
</g>
<g>
</g>
<g>
</g>
<g>
</g>
<g>
</g>
</svg>
