<?xml version="1.0" encoding="iso-8859-1"?>
<!-- Generator: Adobe Illustrator 19.0.0, SVG Export Plug-In . SVG Version: 6.00 Build 0)  -->
<svg xmlns="http://www.w3.org/2000/svg" xmlns:xlink="http://www.w3.org/1999/xlink" version="1.1" id="Capa_1" x="0px" y="0px" viewBox="0 0 512 512" style="enable-background:new 0 0 512 512;" xml:space="preserve">
<path style="fill:#27536B;" d="M512,255.994c0,23.15-3.076,45.59-8.838,66.919c-14.412,53.351-45.623,99.795-87.615,133.293  c-12.869,10.282-26.747,19.331-41.459,26.992C338.757,501.596,298.597,512,256.006,512s-82.763-10.404-118.093-28.802  c-24.716-12.869-47.066-29.668-66.23-49.553c-29.49-30.589-51.441-68.495-62.844-110.732C3.076,301.584,0,279.145,0,255.994  C0,114.607,114.618,0,256.006,0C397.382,0,512,114.607,512,255.994z"/>
<g>
	<polygon style="fill:#FFFFFF;" points="421.438,189.191 464.395,184.442 421.438,179.694 416.689,136.737 411.941,179.694    368.984,184.442 411.941,189.191 416.689,232.148  "/>
	<polygon style="fill:#FFFFFF;" points="68.922,328.769 125.254,322.542 68.922,316.315 62.694,259.982 56.466,316.315    0.133,322.542 56.466,328.769 62.694,385.102  "/>
	<polygon style="fill:#FFFFFF;" points="131.151,130.344 174.108,125.596 131.151,120.847 126.402,77.89 121.653,120.847    78.696,125.596 121.653,130.344 126.402,173.301  "/>
	
		<rect x="63.185" y="223.805" transform="matrix(-0.7071 -0.7071 0.7071 -0.7071 -45.2092 439.2469)" style="fill:#FFFFFF;" width="10.362" height="10.362"/>
	
		<rect x="349.637" y="428.77" transform="matrix(-0.7071 -0.7071 0.7071 -0.7071 298.8624 991.6956)" style="fill:#FFFFFF;" width="10.362" height="10.362"/>
	
		<rect x="446.236" y="265.547" transform="matrix(-0.7071 -0.7071 0.7071 -0.7071 579.1835 781.3621)" style="fill:#FFFFFF;" width="10.362" height="10.362"/>
	
		<rect x="333.642" y="104.555" transform="matrix(-0.7071 -0.7071 0.7071 -0.7071 500.8113 426.9155)" style="fill:#FFFFFF;" width="10.362" height="10.362"/>
</g>
<g>
	<path style="fill:#F2F2F2;" d="M270.431,362.296l33.907,21.174h102.349v-7.772c0-12.569-4.586-24.716-12.913-34.131l-89.436-98.592   L270.431,362.296z"/>
	<path style="fill:#F2F2F2;" d="M241.569,362.296l-33.907,21.174H105.313v-7.772c0-12.569,4.586-24.716,12.913-34.131l89.436-98.592   L241.569,362.296z"/>
</g>
<g>
	<path style="fill:#808080;" d="M129.33,341.566l80.981-89.271l-2.648-9.32l-89.436,98.592   c-8.327,9.415-12.913,21.562-12.913,34.131v7.772h11.103v-7.772C116.417,363.129,121.002,350.982,129.33,341.566z"/>
	<path style="fill:#808080;" d="M382.67,341.566l-80.981-89.271l2.648-9.32l89.436,98.592c8.327,9.415,12.913,21.562,12.913,34.131   v7.772h-11.103v-7.772C395.583,363.129,390.998,350.982,382.67,341.566z"/>
	<polygon style="fill:#808080;" points="406.687,383.47 406.687,403.433 304.338,419.166 304.338,383.47  "/>
	<polygon style="fill:#808080;" points="207.662,383.47 207.662,419.166 105.313,403.433 105.313,383.47  "/>
	<path style="fill:#808080;" d="M288.933,54.827l-0.877,0.255h-64.121l-0.877-0.3c2.354-7.75,4.974-15.422,7.861-23.006   c4.386-11.525,14.734-17.299,25.082-17.299c10.348,0,20.696,5.774,25.071,17.299C283.959,39.383,286.579,47.066,288.933,54.827z"/>
</g>
<path style="fill:#E6E6E6;" d="M304.334,178.577v-20.09c0-21.651-1.965-43.213-5.862-64.421  c-2.432-13.235-5.618-26.337-9.538-39.239l-0.877,0.255h-64.121l-0.877-0.3c-10.193,33.576-15.4,68.518-15.4,103.704v37.262h0.004  v166.547v16.137v5.036v35.697v18.787h96.675v-18.787V383.47v-5.036v-16.137V339.97v-82.206v-79.189h-0.004V178.577z"/>
<path style="fill:#CCCCCC;" d="M223.935,55.087l-0.877-0.3c-10.193,33.576-15.4,68.518-15.4,103.704v37.262h0.011v242.204h19.864  V158.491c0-35.086,3.042-69.917,9.016-103.404C236.548,55.087,223.935,55.087,223.935,55.087z"/>
<path style="fill:#E6E6E6;" d="M1.93,54.787c-0.022,0.1-0.033,0.2-0.056,0.3H2.44L1.93,54.787z"/>
<path style="fill:#666666;" d="M256.001,14.479c0,0-9.382,14.534-18.42,40.604h-13.646l-0.877-0.3  c2.354-7.75,4.974-15.422,7.861-23.006C235.305,20.252,245.653,14.479,256.001,14.479z"/>
<g>
	<path style="fill:#808080;" d="M244.003,445.115V471.7h-36.341v-26.574v-7.173c0-20.063,16.266-36.341,36.341-36.341V445.115z"/>
	<path style="fill:#808080;" d="M304.338,437.953v7.173V471.7h-36.341v-26.585v-43.502c10.037,0,19.12,4.075,25.693,10.648   C300.274,418.833,304.338,427.916,304.338,437.953z"/>
</g>
<g>
	<rect x="267.997" y="450.599" style="fill:#666666;" width="36.341" height="7.772"/>
	<rect x="207.662" y="450.599" style="fill:#666666;" width="36.341" height="7.772"/>
	<path style="fill:#666666;" d="M276.879,110.702l-4.023-4.023c-4.506-4.506-10.492-6.987-16.857-6.987   c-6.364,0-12.35,2.482-16.856,6.987l-4.023,4.023l-8.045-8.045l4.024-4.023c6.653-6.654,15.497-10.319,24.9-10.319   c9.403,0,18.247,3.664,24.901,10.319l4.024,4.023L276.879,110.702z"/>
</g>
<g>
	<rect x="207.662" y="167.136" style="fill:#808080;" width="96.675" height="12.508"/>
	<rect x="207.662" y="225.616" style="fill:#808080;" width="96.675" height="12.508"/>
	<rect x="207.662" y="289.282" style="fill:#808080;" width="96.675" height="12.508"/>
	<path style="fill:#808080;" d="M255.998,456.896L255.998,456.896c-2.453,0-4.441-1.989-4.441-4.441V341.423   c0-2.453,1.989-4.441,4.441-4.441l0,0c2.453,0,4.441,1.989,4.441,4.441v111.032C260.439,454.908,258.45,456.896,255.998,456.896z"/>
</g>
<g>
	<circle style="fill:#54C0DD;" cx="342.233" cy="345.863" r="17.024"/>
	<circle style="fill:#54C0DD;" cx="169.767" cy="345.863" r="17.024"/>
</g>
<g>
</g>
<g>
</g>
<g>
</g>
<g>
</g>
<g>
</g>
<g>
</g>
<g>
</g>
<g>
</g>
<g>
</g>
<g>
</g>
<g>
</g>
<g>
</g>
<g>
</g>
<g>
</g>
<g>
</g>
</svg>
