<?xml version="1.0" encoding="iso-8859-1"?>
<!-- Generator: Adobe Illustrator 19.0.0, SVG Export Plug-In . SVG Version: 6.00 Build 0)  -->
<svg xmlns="http://www.w3.org/2000/svg" xmlns:xlink="http://www.w3.org/1999/xlink" version="1.1" id="Capa_1" x="0px" y="0px" viewBox="0 0 512 512" style="enable-background:new 0 0 512 512;" xml:space="preserve">
<path style="fill:#27536B;" d="M512,255.994c0,23.15-3.076,45.59-8.838,66.919c-14.412,53.351-45.623,99.795-87.615,133.293  c-12.869,10.282-26.747,19.331-41.459,26.992C338.757,501.596,298.597,512,256.006,512s-82.763-10.404-118.093-28.802  c-24.716-12.869-47.066-29.668-66.23-49.553c-29.49-30.589-51.441-68.495-62.844-110.732C3.076,301.584,0,279.145,0,255.994  C0,114.607,114.618,0,256.006,0C397.382,0,512,114.607,512,255.994z"/>
<path style="fill:#F9B55A;" d="M503.162,322.913c-14.412,53.351-45.623,99.795-87.615,133.293  c-12.869,10.282-26.747,19.331-41.459,26.992C338.757,501.596,298.597,512,256.006,512s-82.763-10.404-118.093-28.802  c-4.186-2.176-8.294-4.463-12.336-6.862c-4.752-2.82-9.404-5.796-13.946-8.905c-14.456-9.882-27.836-21.218-39.949-33.787  c-2.01-2.087-3.997-4.219-5.929-6.373C39.239,397.86,19.464,362.263,8.838,322.913c77.678-8.494,160.785-13.102,247.179-13.102  c35.297,0,70.05,0.766,104.114,2.265C409.418,314.219,457.239,317.883,503.162,322.913z"/>
<g>
	<polygon style="fill:#FFFFFF;" points="457.798,218.982 500.755,214.233 457.798,209.484 453.049,166.527 448.3,209.484    405.343,214.233 448.3,218.982 453.049,261.939  "/>
	<polygon style="fill:#FFFFFF;" points="53.955,260.257 89.974,256.275 53.955,252.294 49.973,216.274 45.99,252.294 9.972,256.275    45.99,260.257 49.973,296.277  "/>
</g>
<path style="fill:#EFAA56;" d="M360.131,312.077l-16.966,28.058c0,0-190.086,2.409-231.534,127.298  c-14.456-9.882-27.836-21.218-39.949-33.787c-2.01-2.087-3.997-4.219-5.929-6.373C39.239,397.86,19.464,362.263,8.838,322.913  c77.678-8.494,160.785-13.102,247.179-13.102C291.314,309.811,326.066,310.578,360.131,312.077z"/>
<g>
	
		<rect x="389.633" y="131.013" transform="matrix(-0.7071 -0.7071 0.7071 -0.7071 577.687 511.6745)" style="fill:#FFFFFF;" width="10.362" height="10.362"/>
	
		<rect x="447.06" y="140.83" transform="matrix(-0.7071 -0.7071 0.7071 -0.7071 668.7774 569.0401)" style="fill:#FFFFFF;" width="10.362" height="10.362"/>
	
		<rect x="101.634" y="118.396" transform="matrix(-0.7071 -0.7071 0.7071 -0.7071 94.963 286.4897)" style="fill:#FFFFFF;" width="10.362" height="10.362"/>
	
		<rect x="338.263" y="37.719" transform="matrix(-0.7071 -0.7071 0.7071 -0.7071 555.9611 316.0877)" style="fill:#FFFFFF;" width="10.362" height="10.362"/>
	
		<rect x="177.613" y="15.733" transform="matrix(-0.7071 -0.7071 0.7071 -0.7071 297.2618 164.9574)" style="fill:#FFFFFF;" width="10.362" height="10.362"/>
</g>
<rect x="331.507" y="97.153" style="fill:#808080;" width="11.844" height="62.178"/>
<g>
	<path style="fill:#999999;" d="M142.183,207.93l-52.3-52.3L212.017,33.495c1.518-1.518,3.978-1.518,5.496,0l0,0   c1.518,1.518,1.517,3.978,0,5.495L100.874,155.629l46.803,46.803L142.183,207.93z"/>
	<rect x="187.91" y="253.419" style="fill:#999999;" width="173.276" height="44.061"/>
</g>
<g>
	<path style="fill:#B3B3B3;" d="M202.402,30.948L220.954,49.5c1.735,1.735,1.735,4.546,0,6.281c-1.735,1.735-4.546,1.735-6.281,0   l-18.552-18.552c-1.735-1.735-1.735-4.546,0-6.281C197.856,29.212,200.666,29.212,202.402,30.948z"/>
	<path style="fill:#B3B3B3;" d="M192.682,40.668l18.552,18.552c1.735,1.735,1.735,4.546,0,6.281c-1.735,1.735-4.546,1.735-6.281,0   l-18.552-18.552c-1.735-1.735-1.735-4.546,0-6.281C188.136,38.932,190.947,38.932,192.682,40.668z"/>
	<path style="fill:#B3B3B3;" d="M182.97,50.379l18.552,18.552c1.735,1.735,1.728,4.553,0,6.281c-1.735,1.735-4.546,1.735-6.281,0   l-18.552-18.552c-1.735-1.735-1.735-4.546,0-6.281C178.417,48.652,181.235,48.644,182.97,50.379z"/>
	<path style="fill:#B3B3B3;" d="M173.25,60.099l18.552,18.552c1.735,1.735,1.735,4.546,0,6.281c-1.735,1.735-4.546,1.735-6.281,0   L166.969,66.38c-1.735-1.735-1.735-4.546,0-6.281C168.705,58.364,171.515,58.364,173.25,60.099z"/>
	<path style="fill:#B3B3B3;" d="M163.531,69.819l18.552,18.552c1.735,1.735,1.735,4.546,0,6.281c-1.728,1.728-4.546,1.735-6.281,0   L157.25,76.1c-1.735-1.735-1.728-4.553,0-6.281C158.985,68.083,161.795,68.083,163.531,69.819z"/>
	<path style="fill:#B3B3B3;" d="M153.819,79.531l18.552,18.552c1.735,1.735,1.735,4.546,0,6.281c-1.735,1.735-4.546,1.735-6.281,0   l-18.552-18.552c-1.735-1.735-1.735-4.546,0-6.281S152.083,77.795,153.819,79.531z"/>
	<path style="fill:#B3B3B3;" d="M144.099,89.251l18.552,18.552c1.735,1.735,1.735,4.546,0,6.281s-4.546,1.735-6.281,0   l-18.552-18.552c-1.735-1.735-1.735-4.546,0-6.281C139.553,87.515,142.364,87.515,144.099,89.251z"/>
	<path style="fill:#B3B3B3;" d="M134.387,98.962l18.552,18.552c1.735,1.735,1.728,4.553,0,6.281c-1.735,1.735-4.546,1.735-6.281,0   l-18.552-18.552c-1.735-1.735-1.735-4.546,0-6.281C129.834,97.235,132.652,97.227,134.387,98.962z"/>
	<path style="fill:#B3B3B3;" d="M124.667,108.682l18.552,18.552c1.735,1.735,1.735,4.546,0,6.281c-1.735,1.735-4.546,1.735-6.281,0   l-18.552-18.552c-1.735-1.735-1.735-4.546,0-6.281C120.122,106.947,122.932,106.947,124.667,108.682z"/>
	<path style="fill:#B3B3B3;" d="M114.948,118.402l18.552,18.552c1.735,1.735,1.735,4.546,0,6.281s-4.546,1.735-6.281,0   l-18.552-18.552c-1.735-1.735-1.735-4.546,0-6.281C110.402,116.666,113.212,116.666,114.948,118.402z"/>
</g>
<g>
	<path style="fill:#CCCCCC;" d="M202.402,30.948l12.53,12.53c1.735,1.735,1.735,4.546,0,6.281c-1.735,1.735-4.546,1.735-6.281,0   l-12.53-12.53c-1.735-1.735-1.735-4.546,0-6.281C197.856,29.212,200.666,29.212,202.402,30.948z"/>
	<path style="fill:#CCCCCC;" d="M192.682,40.668l12.53,12.53c1.735,1.735,1.735,4.546,0,6.281c-1.735,1.735-4.546,1.735-6.281,0   l-12.53-12.53c-1.735-1.735-1.735-4.546,0-6.281C188.136,38.932,190.947,38.932,192.682,40.668z"/>
	<path style="fill:#CCCCCC;" d="M182.97,50.379l12.53,12.53c1.735,1.735,1.728,4.553,0,6.281c-1.735,1.735-4.546,1.735-6.281,0   l-12.53-12.53c-1.735-1.735-1.735-4.546,0-6.281C178.417,48.652,181.235,48.644,182.97,50.379z"/>
	<path style="fill:#CCCCCC;" d="M173.25,60.099l12.53,12.53c1.735,1.735,1.735,4.546,0,6.281c-1.735,1.735-4.546,1.735-6.281,0   l-12.53-12.53c-1.735-1.735-1.735-4.546,0-6.281C168.705,58.364,171.515,58.364,173.25,60.099z"/>
	<path style="fill:#CCCCCC;" d="M163.531,69.819l12.53,12.53c1.735,1.735,1.735,4.546,0,6.281c-1.728,1.728-4.546,1.735-6.281,0   L157.25,76.1c-1.735-1.735-1.728-4.553,0-6.281C158.985,68.083,161.795,68.083,163.531,69.819z"/>
	<path style="fill:#CCCCCC;" d="M153.819,79.531l12.53,12.53c1.735,1.735,1.735,4.546,0,6.281c-1.735,1.735-4.546,1.735-6.281,0   l-12.53-12.53c-1.735-1.735-1.735-4.546,0-6.281S152.083,77.795,153.819,79.531z"/>
	<path style="fill:#CCCCCC;" d="M144.099,89.251l12.53,12.53c1.735,1.735,1.735,4.546,0,6.281c-1.735,1.735-4.546,1.735-6.281,0   l-12.53-12.53c-1.735-1.735-1.735-4.546,0-6.281C139.553,87.515,142.364,87.515,144.099,89.251z"/>
	<path style="fill:#CCCCCC;" d="M134.387,98.962l12.53,12.53c1.735,1.735,1.728,4.553,0,6.281c-1.735,1.735-4.546,1.735-6.281,0   l-12.53-12.53c-1.735-1.735-1.735-4.546,0-6.281C129.834,97.235,132.652,97.227,134.387,98.962z"/>
	<path style="fill:#CCCCCC;" d="M124.667,108.682l12.53,12.53c1.735,1.735,1.735,4.546,0,6.281s-4.546,1.735-6.281,0l-12.53-12.53   c-1.735-1.735-1.735-4.546,0-6.281C120.122,106.947,122.932,106.947,124.667,108.682z"/>
	<path style="fill:#CCCCCC;" d="M114.948,118.402l12.53,12.53c1.735,1.735,1.735,4.546,0,6.281s-4.546,1.735-6.281,0l-12.53-12.53   c-1.735-1.735-1.735-4.546,0-6.281C110.402,116.666,113.212,116.666,114.948,118.402z"/>
	<polygon style="fill:#CCCCCC;" points="401.488,164.786 400.278,174.413 399.156,183.295 392.284,237.801 391.162,246.683    388.497,267.824 191.883,267.813 147.403,267.813 146.915,263.904 144.739,246.683 143.617,237.801 136.744,183.295    136.367,180.286 135.623,174.413 134.413,164.786  "/>
</g>
<path style="fill:#B3B3B3;" d="M191.883,267.813H171.12c-8.072-1.321-16.344-2.654-24.205-3.908l-2.176-17.221l-1.121-8.883  l-6.873-54.505l-0.378-3.009l18.964-6.895C155.331,173.391,161.782,241.609,191.883,267.813z"/>
<polygon style="fill:#999999;" points="392.286,237.8 391.164,246.682 144.741,246.682 143.619,237.8 "/>
<circle style="fill:#E6E6E6;" cx="157.92" cy="295.766" r="38.972"/>
<g>
	<path style="fill:#808080;" d="M163.863,298.189c-1.338,3.275-5.093,4.848-8.364,3.515c-3.274-1.337-4.851-5.089-3.514-8.364   c0.647-1.587,1.874-2.826,3.454-3.49c0.799-0.336,1.642-0.505,2.484-0.505c0.821,0,1.642,0.16,2.425,0.48   c1.587,0.647,2.826,1.874,3.491,3.454C164.501,294.859,164.51,296.602,163.863,298.189z"/>
	<path style="fill:#808080;" d="M199.582,307.981c2.452-8.34,2.258-16.952-0.151-24.846c2.236-0.962,3.287-3.547,2.341-5.797   c-0.944-2.248-3.527-3.31-5.778-2.385c-3.952-7.245-9.97-13.412-17.642-17.495c0.887-2.257-0.198-4.815-2.449-5.735   c-2.253-0.918-4.817,0.148-5.763,2.383c-8.341-2.452-16.953-2.258-24.846,0.151c-0.963-2.236-3.549-3.287-5.797-2.341   c-2.248,0.945-3.309,3.525-2.385,5.778c-7.245,3.952-13.41,9.968-17.494,17.642c-2.255-0.886-4.814,0.197-5.734,2.449   c-0.919,2.252,0.148,4.817,2.382,5.763c-2.406,8.151-2.363,16.732,0.128,24.858c-2.22,0.97-3.26,3.543-2.317,5.785   c0.714,1.699,2.362,2.721,4.096,2.721c0.553,0,1.114-0.11,1.657-0.329c4.062,7.465,10.16,13.501,17.666,17.486   c-0.887,2.257,0.197,4.815,2.449,5.735c0.549,0.224,1.118,0.331,1.678,0.331c1.733,0,3.374-1.024,4.088-2.715   c4.026,1.184,8.115,1.755,12.158,1.755c4.329,0,8.602-0.656,12.683-1.902c0.722,1.678,2.356,2.687,4.079,2.687   c0.574,0,1.157-0.112,1.719-0.348c2.252-0.946,3.313-3.532,2.383-5.786c7.241-3.951,13.387-9.974,17.471-17.642   c0.541,0.217,1.099,0.322,1.649,0.322c1.75,0,3.41-1.043,4.113-2.764C202.882,311.491,201.815,308.927,199.582,307.981z    M174.598,325.975c-1.191-0.771-2.729-0.959-4.135-0.367c-1.406,0.591-2.346,1.821-2.63,3.21   c-6.193,1.863-12.937,2.012-19.477,0.121c-0.293-1.395-1.25-2.624-2.669-3.202c-1.416-0.578-2.961-0.371-4.147,0.42   c-5.861-3.146-10.635-7.869-13.839-13.697c0.781-1.194,0.974-2.741,0.379-4.155c-0.593-1.413-1.834-2.358-3.232-2.637   c-1.921-6.373-1.955-13.092-0.097-19.484c1.392-0.294,2.621-1.24,3.2-2.657c0.576-1.41,0.372-2.945-0.409-4.127   c3.225-5.998,8.038-10.727,13.706-13.848c0.715,0.462,1.554,0.715,2.415,0.715c0.574,0,1.157-0.112,1.719-0.348   c1.408-0.592,2.349-1.824,2.631-3.217c3.205-0.964,6.558-1.469,9.954-1.469c3.165,0,6.369,0.444,9.523,1.356   c0.293,1.393,1.25,2.623,2.668,3.201c0.55,0.224,1.118,0.33,1.678,0.33c0.884,0,1.743-0.266,2.469-0.752   c5.995,3.225,10.709,8.052,13.829,13.719c-0.769,1.191-0.958,2.728-0.368,4.134c0.59,1.403,1.82,2.335,3.207,2.62   c1.866,6.197,2.016,12.945,0.124,19.488c-1.393,0.293-2.624,1.25-3.202,2.668c-0.58,1.419-0.372,2.962,0.42,4.148   C185.09,318.142,180.264,322.855,174.598,325.975z"/>
</g>
<circle style="fill:#E6E6E6;" cx="359.465" cy="295.766" r="38.972"/>
<g>
	<path style="fill:#808080;" d="M365.408,298.189c-1.338,3.275-5.093,4.848-8.364,3.515c-3.274-1.337-4.851-5.089-3.514-8.364   c0.647-1.587,1.874-2.826,3.454-3.49c0.799-0.336,1.642-0.505,2.484-0.505c0.821,0,1.642,0.16,2.425,0.48   c1.587,0.647,2.826,1.874,3.491,3.454C366.047,294.859,366.056,296.602,365.408,298.189z"/>
	<path style="fill:#808080;" d="M401.128,307.981c2.452-8.34,2.258-16.952-0.151-24.846c2.236-0.962,3.287-3.547,2.341-5.797   c-0.944-2.248-3.527-3.31-5.778-2.385c-3.952-7.245-9.97-13.412-17.642-17.495c0.887-2.257-0.198-4.815-2.449-5.735   c-2.253-0.918-4.817,0.148-5.763,2.383c-8.341-2.452-16.953-2.258-24.846,0.151c-0.963-2.236-3.549-3.287-5.797-2.341   c-2.248,0.945-3.309,3.525-2.385,5.778c-7.245,3.952-13.41,9.968-17.494,17.642c-2.255-0.886-4.814,0.197-5.734,2.449   c-0.919,2.252,0.148,4.817,2.382,5.763c-2.406,8.151-2.363,16.732,0.128,24.858c-2.22,0.97-3.26,3.543-2.317,5.785   c0.714,1.699,2.362,2.721,4.096,2.721c0.553,0,1.114-0.11,1.657-0.329c4.062,7.465,10.16,13.501,17.666,17.486   c-0.887,2.257,0.197,4.815,2.449,5.735c0.548,0.224,1.118,0.331,1.678,0.331c1.733,0,3.374-1.024,4.088-2.715   c4.026,1.184,8.115,1.755,12.158,1.755c4.329,0,8.602-0.656,12.683-1.902c0.722,1.678,2.356,2.687,4.079,2.687   c0.574,0,1.157-0.112,1.719-0.348c2.252-0.946,3.313-3.532,2.383-5.786c7.241-3.951,13.387-9.974,17.471-17.642   c0.541,0.217,1.099,0.322,1.649,0.322c1.75,0,3.41-1.043,4.113-2.764C404.429,311.491,403.362,308.927,401.128,307.981z    M376.144,325.975c-1.191-0.771-2.729-0.959-4.135-0.367c-1.406,0.591-2.346,1.821-2.63,3.21   c-6.193,1.863-12.937,2.012-19.477,0.121c-0.293-1.395-1.25-2.624-2.669-3.202c-1.416-0.578-2.961-0.371-4.147,0.42   c-5.861-3.146-10.635-7.869-13.839-13.697c0.781-1.194,0.974-2.741,0.379-4.155c-0.593-1.413-1.834-2.358-3.232-2.637   c-1.921-6.373-1.955-13.092-0.097-19.484c1.392-0.294,2.621-1.24,3.2-2.657c0.576-1.41,0.372-2.945-0.409-4.127   c3.225-5.998,8.038-10.727,13.706-13.848c0.715,0.462,1.554,0.715,2.415,0.715c0.574,0,1.157-0.112,1.719-0.348   c1.408-0.592,2.349-1.824,2.631-3.217c3.205-0.964,6.558-1.469,9.954-1.469c3.166,0,6.369,0.444,9.523,1.356   c0.293,1.393,1.25,2.623,2.668,3.201c0.55,0.224,1.118,0.33,1.678,0.33c0.884,0,1.743-0.266,2.469-0.752   c5.995,3.225,10.709,8.052,13.829,13.719c-0.769,1.191-0.958,2.728-0.367,4.134c0.59,1.403,1.82,2.335,3.207,2.62   c1.866,6.197,2.016,12.945,0.124,19.488c-1.393,0.293-2.624,1.25-3.202,2.668c-0.58,1.419-0.372,2.962,0.42,4.148   C386.636,318.142,381.81,322.855,376.144,325.975z"/>
</g>
<circle style="fill:#E6E6E6;" cx="258.693" cy="295.766" r="38.972"/>
<g>
	<path style="fill:#808080;" d="M264.636,298.189c-1.338,3.275-5.093,4.848-8.364,3.515c-3.274-1.337-4.851-5.089-3.514-8.364   c0.647-1.587,1.874-2.826,3.454-3.49c0.799-0.336,1.642-0.505,2.484-0.505c0.82,0,1.642,0.16,2.425,0.48   c1.587,0.647,2.826,1.874,3.491,3.454C265.274,294.859,265.283,296.602,264.636,298.189z"/>
	<path style="fill:#808080;" d="M300.355,307.981c2.452-8.34,2.258-16.952-0.151-24.846c2.236-0.962,3.287-3.547,2.341-5.797   c-0.944-2.248-3.527-3.31-5.778-2.385c-3.952-7.245-9.97-13.412-17.642-17.495c0.887-2.257-0.198-4.815-2.449-5.735   c-2.253-0.918-4.817,0.148-5.763,2.383c-8.341-2.452-16.953-2.258-24.846,0.151c-0.963-2.236-3.549-3.287-5.797-2.341   c-2.248,0.945-3.309,3.525-2.385,5.778c-7.245,3.952-13.41,9.968-17.494,17.642c-2.255-0.886-4.814,0.197-5.734,2.449   c-0.919,2.252,0.148,4.817,2.382,5.763c-2.406,8.151-2.363,16.732,0.128,24.858c-2.22,0.97-3.26,3.543-2.317,5.785   c0.714,1.699,2.362,2.721,4.096,2.721c0.553,0,1.114-0.11,1.657-0.329c4.062,7.465,10.16,13.501,17.666,17.486   c-0.887,2.257,0.197,4.815,2.449,5.735c0.549,0.224,1.118,0.331,1.678,0.331c1.733,0,3.374-1.024,4.088-2.715   c4.026,1.184,8.115,1.755,12.158,1.755c4.329,0,8.602-0.656,12.683-1.902c0.722,1.678,2.356,2.687,4.079,2.687   c0.574,0,1.157-0.112,1.719-0.348c2.252-0.946,3.313-3.532,2.383-5.786c7.241-3.951,13.387-9.974,17.471-17.642   c0.541,0.217,1.099,0.322,1.649,0.322c1.75,0,3.41-1.043,4.113-2.764C303.656,311.491,302.589,308.927,300.355,307.981z    M275.371,325.975c-1.191-0.771-2.729-0.959-4.135-0.367c-1.406,0.591-2.346,1.821-2.63,3.21   c-6.193,1.863-12.937,2.012-19.477,0.121c-0.293-1.395-1.25-2.624-2.669-3.202c-1.416-0.578-2.961-0.371-4.147,0.42   c-5.861-3.146-10.635-7.869-13.839-13.697c0.781-1.194,0.974-2.741,0.379-4.155c-0.593-1.413-1.834-2.358-3.232-2.637   c-1.921-6.373-1.955-13.092-0.097-19.484c1.392-0.294,2.621-1.24,3.2-2.657c0.576-1.41,0.372-2.945-0.409-4.127   c3.225-5.998,8.038-10.727,13.706-13.848c0.715,0.462,1.554,0.715,2.415,0.715c0.574,0,1.157-0.112,1.719-0.348   c1.408-0.592,2.349-1.824,2.631-3.217c3.205-0.964,6.558-1.469,9.954-1.469c3.165,0,6.369,0.444,9.523,1.356   c0.293,1.393,1.25,2.623,2.668,3.201c0.55,0.224,1.118,0.33,1.678,0.33c0.884,0,1.743-0.266,2.469-0.752   c5.995,3.225,10.709,8.052,13.829,13.719c-0.769,1.191-0.958,2.728-0.368,4.134c0.59,1.403,1.82,2.335,3.207,2.62   c1.866,6.197,2.016,12.945,0.124,19.488c-1.393,0.293-2.624,1.25-3.202,2.668c-0.58,1.419-0.372,2.962,0.42,4.148   C285.863,318.142,281.038,322.855,275.371,325.975z"/>
</g>
<circle style="fill:#E6E6E6;" cx="97.597" cy="155.633" r="14.064"/>
<circle style="fill:#999999;" cx="97.597" cy="155.633" r="7.367"/>
<path style="fill:#F9B55A;" d="M351.852,104.193l-11.205-53.192c-0.734-3.483-5.706-3.483-6.44,0l-11.205,53.192H351.852z"/>
<path style="fill:#808080;" d="M349.27,81.609h-22.947c-2.453,0-4.441,1.989-4.441,4.441l0,0c0,2.453,1.989,4.441,4.441,4.441  h22.947c2.453,0,4.441-1.989,4.441-4.441l0,0C353.711,83.598,351.723,81.609,349.27,81.609z"/>
<polygon style="fill:#B3B3B3;" points="401.488,164.786 400.278,174.413 399.156,183.295 136.744,183.295 135.623,174.413   134.413,164.786 "/>
<path style="fill:#E6E6E6;" d="M414.656,164.786H121.255c22.473-16.188,52.918-28.58,87.937-35.197  c0.011-0.011,0.011-0.011,0.011-0.011c18.476-3.497,38.228-5.385,58.747-5.385C327.363,124.193,380.325,140.049,414.656,164.786z"/>
<path style="fill:#CCCCCC;" d="M207.149,164.786h-85.894c22.473-16.188,52.918-28.58,87.937-35.197  C208.548,130.122,188.94,146.577,207.149,164.786z"/>
<g>
	<path style="fill:#FFFFFF;" d="M181.77,180.333c-2.453,0-4.441-1.989-4.441-4.441v-39.021c0-2.453,1.989-4.441,4.441-4.441   c2.453,0,4.441,1.989,4.441,4.441v39.021C186.211,178.344,184.223,180.333,181.77,180.333z"/>
	<path style="fill:#FFFFFF;" d="M239.226,180.333c-2.453,0-4.441-1.989-4.441-4.441v-50.447c0-2.453,1.989-4.441,4.441-4.441   s4.441,1.989,4.441,4.441v50.447C243.668,178.344,241.679,180.333,239.226,180.333z"/>
	<path style="fill:#FFFFFF;" d="M296.684,180.333c-2.453,0-4.441-1.989-4.441-4.441v-50.447c0-2.453,1.989-4.441,4.441-4.441   c2.453,0,4.441,1.989,4.441,4.441v50.447C301.125,178.344,299.137,180.333,296.684,180.333z"/>
	<path style="fill:#FFFFFF;" d="M354.131,180.333c-2.453,0-4.441-1.989-4.441-4.441v-39.021c0-2.453,1.989-4.441,4.441-4.441   s4.441,1.989,4.441,4.441v39.021C358.572,178.344,356.583,180.333,354.131,180.333z"/>
</g>
<g>
	<path style="fill:#808080;" d="M372.836,224.469h-30.108c-3.745,0-6.782-3.037-6.782-6.782v-8.643c0-3.745,3.037-6.782,6.782-6.782   h30.108c3.745,0,6.782,3.037,6.782,6.782v8.643C379.619,221.434,376.583,224.469,372.836,224.469z"/>
	<path style="fill:#808080;" d="M187.164,224.469h-30.108c-3.745,0-6.782-3.037-6.782-6.782v-8.643c0-3.745,3.037-6.782,6.782-6.782   h30.108c3.745,0,6.782,3.037,6.782,6.782v8.643C193.946,221.434,190.91,224.469,187.164,224.469z"/>
	<path style="fill:#808080;" d="M317.442,224.469h-30.108c-3.745,0-6.782-3.037-6.782-6.782v-8.643c0-3.745,3.037-6.782,6.782-6.782   h30.108c3.745,0,6.782,3.037,6.782,6.782v8.643C324.223,221.434,321.187,224.469,317.442,224.469z"/>
</g>
<g>
	<path style="fill:#EFAA56;" d="M438.681,414.192c0-5.871-3.369-11.182-8.806-15.015c1.055,1.856,1.641,3.882,1.641,6.007   c0,8.868-10.118,16.057-22.599,16.057s-22.599-7.189-22.599-16.057c0-2.124,0.586-4.15,1.641-6.007   c-5.437,3.832-8.807,9.143-8.807,15.015c0,11.681,13.326,21.149,29.765,21.149S438.681,425.873,438.681,414.192z"/>
	<path style="fill:#EFAA56;" d="M328.258,353.933c0-3.582-2.055-6.823-5.373-9.16c0.644,1.133,1.002,2.368,1.002,3.665   c0,5.411-6.173,9.797-13.789,9.797s-13.789-4.387-13.789-9.797c0-1.296,0.358-2.533,1.001-3.665   c-3.318,2.338-5.373,5.578-5.373,9.161c0,7.126,8.131,12.903,18.16,12.903C320.127,366.837,328.258,361.06,328.258,353.933z"/>
	<path style="fill:#EFAA56;" d="M165.459,440.618c0,17.388-17.032,31.944-39.883,35.719c-19.852-11.78-37.973-26.17-53.895-42.692   c-2.01-2.087-3.997-4.219-5.929-6.373c2.643-4.808,6.673-9.127,11.736-12.691c-1.821,3.22-2.842,6.729-2.842,10.415   c0,15.378,17.543,27.847,39.194,27.847c21.64,0,39.183-12.469,39.183-27.847c0-3.686-1.01-7.195-2.842-10.415   C159.608,421.221,165.459,430.436,165.459,440.618z"/>
</g>
<g>
</g>
<g>
</g>
<g>
</g>
<g>
</g>
<g>
</g>
<g>
</g>
<g>
</g>
<g>
</g>
<g>
</g>
<g>
</g>
<g>
</g>
<g>
</g>
<g>
</g>
<g>
</g>
<g>
</g>
</svg>
