<?xml version="1.0" encoding="iso-8859-1"?>
<!-- Generator: Adobe Illustrator 19.0.0, SVG Export Plug-In . SVG Version: 6.00 Build 0)  -->
<svg xmlns="http://www.w3.org/2000/svg" xmlns:xlink="http://www.w3.org/1999/xlink" version="1.1" id="Capa_1" x="0px" y="0px" viewBox="0 0 512 512" style="enable-background:new 0 0 512 512;" xml:space="preserve">
<path style="fill:#27536B;" d="M512,255.994c0,45.59-11.925,88.392-32.81,125.477c-0.366,0.655-0.733,1.31-1.11,1.954  c-0.378,0.655-0.755,1.31-1.133,1.954c-7.095,12.08-15.145,23.528-24.061,34.242c-11.17,13.424-23.683,25.693-37.34,36.585  c-6.107,4.885-12.447,9.482-18.997,13.79c-1.388,0.91-2.776,1.81-4.186,2.698c-5.929,3.753-12.025,7.25-18.276,10.504  C338.757,501.596,298.597,512,256.006,512s-82.763-10.404-118.093-28.802c-6.629-3.453-13.08-7.184-19.342-11.181  c-1.044-0.666-2.087-1.332-3.12-2.01c-15.911-10.481-30.6-22.695-43.769-36.363c-4.352-4.519-8.549-9.193-12.558-14.023  c-6.673-8.017-12.869-16.455-18.531-25.271c-0.244-0.389-0.5-0.777-0.744-1.166c-0.422-0.633-0.822-1.266-1.221-1.91  c-0.4-0.644-0.799-1.288-1.188-1.932c-0.355-0.588-0.711-1.177-1.066-1.765c-12.68-21.096-22.395-44.191-28.58-68.673  c-0.755-2.953-1.443-5.918-2.087-8.905C1.965,292.59,0,274.526,0,255.994C0,114.607,114.618,0,256.006,0  C274.526,0,292.59,1.965,310,5.707c2.987,0.644,5.951,1.332,8.905,2.087c52.285,13.202,98.163,42.492,132.061,82.297  c1.688,1.976,3.342,3.986,4.974,6.018C491.015,139.911,512,195.504,512,255.994z"/>
<g>
	<polygon style="fill:#FFFFFF;" points="392.66,152.547 423.957,149.088 392.66,145.628 389.2,114.33 385.74,145.628    354.443,149.088 385.74,152.547 389.2,183.845  "/>
	<polygon style="fill:#FFFFFF;" points="425.385,367.344 468.342,362.595 425.385,357.846 420.637,314.889 415.888,357.846    372.931,362.595 415.888,367.344 420.637,410.301  "/>
	<polygon style="fill:#FFFFFF;" points="81.142,215.213 124.099,210.464 81.142,205.715 76.393,162.758 71.644,205.715    28.687,210.464 71.644,215.213 76.393,258.17  "/>
	
		<rect x="128.686" y="153.847" transform="matrix(-0.7071 -0.7071 0.7071 -0.7071 116.0763 366.1371)" style="fill:#FFFFFF;" width="10.362" height="10.362"/>
	
		<rect x="157.556" y="258.832" transform="matrix(-0.7071 -0.7071 0.7071 -0.7071 91.1243 565.7712)" style="fill:#FFFFFF;" width="10.362" height="10.362"/>
	
		<rect x="171.991" y="290.631" transform="matrix(-0.7071 -0.7071 0.7071 -0.7071 93.2813 630.2628)" style="fill:#FFFFFF;" width="10.362" height="10.362"/>
	
		<rect x="449.565" y="307.732" transform="matrix(-0.7071 -0.7071 0.7071 -0.7071 555.0374 855.7313)" style="fill:#FFFFFF;" width="10.362" height="10.362"/>
	
		<rect x="365.333" y="244.176" transform="matrix(-0.7071 -0.7071 0.7071 -0.7071 456.1855 687.6719)" style="fill:#FFFFFF;" width="10.362" height="10.362"/>
	
		<rect x="79.277" y="355.879" transform="matrix(-0.7071 -0.7071 0.7071 -0.7071 -111.1281 676.0898)" style="fill:#FFFFFF;" width="10.362" height="10.362"/>
	
		<rect x="402.959" y="77.222" transform="matrix(-0.7071 -0.7071 0.7071 -0.7071 638.4706 429.2695)" style="fill:#FFFFFF;" width="10.362" height="10.362"/>
</g>
<path style="fill:#E8C172;" d="M396.549,469.997c-1.388,0.91-2.776,1.81-4.186,2.698c-5.929,3.753-12.025,7.25-18.276,10.504  c-13.08,6.806-26.825,12.524-41.104,17.021C308.69,507.87,282.831,512,256.006,512s-52.684-4.13-76.989-11.78  c-14.279-4.497-28.024-10.215-41.104-17.021c-6.629-3.453-13.08-7.184-19.342-11.181c-1.044-0.666-2.087-1.332-3.12-2.01  l127.575-284.285h25.959L396.549,469.997z"/>
<path style="fill:#FCD57E;" d="M332.984,500.22C308.69,507.87,282.831,512,256.006,512s-52.684-4.13-76.989-11.78l68.962-314.497  h16.044L332.984,500.22z"/>
<g>
	<path style="fill:#FFFFFF;" d="M235.357,433.294l2.856,3.399c4.352,5.162,7.259,10.384,9.188,15.11   c4.058,9.922,3.833,17.667,3.815,18.13l-0.169,4.441l-8.874-0.346l0.169-4.426c0.006-0.251,0.115-8.102-4.62-17.608   c-1.52-3.091-3.57-6.352-6.297-9.583l-2.863-3.391L235.357,433.294z"/>
	<path style="fill:#FFFFFF;" d="M266.227,448.107c3.217,7.027,5.144,13.749,5.485,14.958l1.186,4.285l-8.546,2.379l-1.194-4.277   c-0.853-3.068-2.97-9.44-5.769-15.225c-1.878-3.901-4.068-7.519-6.389-9.663l-3.258-3.016l6.038-6.523l3.258,3.016   C260.726,437.459,263.84,442.866,266.227,448.107z"/>
	<path style="fill:#FFFFFF;" d="M290.906,419.09l2.193,3.862c2.322,4.076,3.204,8.834,3.406,13.228   c0.33,7.217-1.217,13.416-1.312,13.83l-1.1,4.3l-8.609-2.193l1.093-4.294c0.382-1.499,0.864-4.259,1.026-7.42   c0.237-4.321-0.137-9.397-2.216-13.058l-2.193-3.862L290.906,419.09z"/>
	<path style="fill:#FFFFFF;" d="M304.127,406.503l2.656,3.559c1.294,1.728,2.446,3.467,3.473,5.172   c7.763,12.94,8.314,24.686,8.325,25.244l0.177,4.434l-8.875,0.345l-0.177-4.418c-0.004-0.149-0.276-4.86-2.534-11.299   c-1.477-4.237-3.824-9.225-7.506-14.167l-2.656-3.559L304.127,406.503z"/>
</g>
<path style="fill:#A3682E;" d="M320.849,381.686c-1.531,1.46-3.463,2.566-5.342,3.213c-3.878,1.338-7.411,0.858-9.451-1.281  c-2.79-2.927-4.117-9.973-4.736-16.688c-10.166,1.573-19.013,8.366-19.142,8.467l-2.051-2.625c0.208-0.162,5.172-4.013,12.154-6.776  c3.026-1.198,5.964-2,8.783-2.406c-0.349-5.606-0.264-10.404-0.238-11.511l3.33,0.08c-0.06,2.522-0.031,6.691,0.243,11.131  c4.669-0.154,8.951,0.857,12.691,3.032c6.008,3.494,6.975,7.24,6.729,9.766C323.606,378.258,322.446,380.163,320.849,381.686z   M304.65,366.619c0.568,6.305,1.698,12.475,3.818,14.701c1.083,1.135,3.42,1.303,5.955,0.43c3.348-1.154,5.851-3.615,6.081-5.985  c0.275-2.818-2.615-5.125-5.087-6.563C311.974,367.201,308.28,366.51,304.65,366.619z"/>
<path style="fill:#E6E6E6;" d="M285.383,427.345c2.08,3.662,2.453,8.737,2.216,13.058c2.874-1.267,5.844-2.671,8.905-4.224  c-0.201-4.395-1.085-9.151-3.406-13.228l-2.193-3.862l-7.716,4.394L285.383,427.345z M231.424,442.412  c2.726,3.23,4.777,6.491,6.297,9.583c0.359,0.119,0.742,0.183,1.118,0.208c0.353,0.017,3.365,0.151,8.562-0.4  c-1.929-4.727-4.835-9.948-9.188-15.11l-2.856-3.399l-6.796,5.727L231.424,442.412z"/>
<path style="fill:#A3682E;" d="M191.424,401.238l-23.612-11.113l25.971,2.55c2.477,0.243,4.288,2.448,4.045,4.925  s-2.448,4.288-4.926,4.045C192.381,401.595,191.874,401.447,191.424,401.238z"/>
<path style="fill:#FFFFFF;" d="M280.355,366.44c-4.491-1.01-9.241-0.103-13.026,2.492c-2.603,1.775-7.063,4.692-12.557,7.812  c-6.758,3.819-15.071,7.924-23.395,10.521c-7.928,2.465-15.855,3.563-22.472,1.755c-3.011-0.826-6.159-0.925-9.103-0.265  c-7.809,1.738-13.619,8.242-14.445,16.177c-0.469,4.497-1.111,9.358-1.91,14.46c-0.231,1.463,0.283,2.937,1.367,3.944  c1.091,0.999,2.605,1.398,4.05,1.063c10.512-2.505,17.335-1.108,23.776,2.784c4.141,2.495,8.133,6.006,12.856,10.172  c1.299,1.155,2.63,2.325,4.023,3.529c0.801,0.678,1.609,1.366,2.448,2.07c0.731,0.622,1.657,0.982,2.614,1.036  c1.106,0.05,27.466,1.184,64.938-19.916c0.979-0.55,1.866-1.212,2.655-1.963c1.735-1.654,2.972-3.77,3.629-6.234  c1.252-4.753,0.299-10.5-1.886-16.639c-1.927-5.434-4.813-11.181-8.001-16.809c-1.168-2.062-2.367-4.109-3.576-6.117  c-0.461-0.757-0.854-1.426-1.186-1.984C288.814,370.326,284.87,367.444,280.355,366.44z"/>
<g>
	<path style="fill:#A3682E;" d="M202.57,392.71l-23.612-11.113l25.971,2.55c2.477,0.243,4.288,2.448,4.045,4.925   c-0.243,2.477-2.448,4.288-4.925,4.045C203.529,393.066,203.02,392.919,202.57,392.71z"/>
	<path style="fill:#A3682E;" d="M254.773,376.744c3.356,5.131,2.687,12.104-1.919,16.494c-5.192,4.949-13.409,4.744-18.35-0.44   c-1.54-1.616-2.57-3.517-3.127-5.533C239.702,384.668,248.015,380.563,254.773,376.744z"/>
</g>
<circle style="fill:#51BEE5;" cx="255.994" cy="100.85" r="62.918"/>
<path style="fill:#46B5D3;" d="M224.909,100.854c0-29.25,19.961-53.834,47.003-60.883c-5.083-1.326-10.416-2.035-15.914-2.035  c-34.748,0-62.918,28.17-62.918,62.918s28.169,62.918,62.918,62.918c5.498,0,10.831-0.71,15.914-2.035  C244.87,154.688,224.909,130.105,224.909,100.854z"/>
<g>
	<path style="fill:#A3682E;" d="M295.915,382.425c3.188,5.629,6.073,11.375,8.001,16.809c-1.265,0.684-2.615,1.311-4.027,1.875   c-10.229,4.122-20.11,3.508-22.068-1.346c-1.949-4.861,4.767-12.137,15.011-16.243   C293.864,383.106,294.894,382.738,295.915,382.425z"/>
	<path style="fill:#A3682E;" d="M239.265,423.249c3.77,3.954,2.414,11.366-3.011,16.538c-1.278,1.218-2.645,2.198-4.06,2.935   l-2.674-1.839c-1.392-1.204-2.724-2.374-4.023-3.529c-4.722-4.165-8.714-7.677-12.856-10.172c0.252-0.348,0.559-0.702,0.913-1.038   C218.995,420.957,235.504,419.303,239.265,423.249z"/>
	
		<ellipse transform="matrix(-0.4517 -0.8922 0.8922 -0.4517 12.4592 830.0829)" style="fill:#A3682E;" cx="261.305" cy="411.213" rx="5.366" ry="9.438"/>
</g>
<circle style="fill:#333333;" cx="197.447" cy="398.925" r="2.426"/>
<path style="fill:#E6E6E6;" d="M349.636,137.128c0,2.532-0.255,5.008-0.755,7.395c-3.42,16.488-18.02,28.868-35.519,28.868H198.633  c-10.015,0-19.086-4.053-25.648-10.626c-4.896-4.896-8.405-11.192-9.871-18.242c-0.5-2.387-0.755-4.863-0.755-7.395  c0-2.543,0.266-5.019,0.755-7.406c3.42-16.477,18.032-28.868,35.519-28.868h114.729c10.015,0,19.086,4.064,25.648,10.626  c4.897,4.896,8.405,11.192,9.871,18.243C349.37,132.11,349.636,134.586,349.636,137.128z"/>
<path style="fill:#CCCCCC;" d="M199.755,144.523c-0.5-2.387-0.755-4.863-0.755-7.395c0-2.543,0.266-5.019,0.755-7.406  c3.42-16.477,18.032-28.868,35.519-28.868h-36.64c-17.487,0-32.099,12.391-35.519,28.868c-0.489,2.387-0.755,4.863-0.755,7.406  c0,2.532,0.255,5.008,0.755,7.395c1.466,7.051,4.974,13.346,9.871,18.242c6.562,6.573,15.633,10.626,25.648,10.626h36.64  c-10.015,0-19.086-4.053-25.648-10.626C204.729,157.869,201.22,151.574,199.755,144.523z"/>
<g>
	<polygon style="fill:#F77759;" points="287.092,185.723 224.914,185.723 229.687,173.395 282.32,173.395  "/>
	<path style="fill:#F77759;" d="M349.636,137.128c0,2.532-0.255,5.008-0.755,7.395H163.114c-0.5-2.387-0.755-4.863-0.755-7.395   c0-2.543,0.266-5.019,0.755-7.406h185.767C349.37,132.11,349.636,134.586,349.636,137.128z"/>
</g>
<ellipse style="fill:#73D5EF;" cx="287.65" cy="74.758" rx="8.327" ry="12.769"/>
<path style="fill:#C1533E;" d="M199,137.128c0,2.532,0.255,5.008,0.755,7.395h-36.64c-0.5-2.387-0.755-4.863-0.755-7.395  c0-2.543,0.266-5.019,0.755-7.406h36.64C199.266,132.11,199,134.586,199,137.128z"/>
<g>
</g>
<g>
</g>
<g>
</g>
<g>
</g>
<g>
</g>
<g>
</g>
<g>
</g>
<g>
</g>
<g>
</g>
<g>
</g>
<g>
</g>
<g>
</g>
<g>
</g>
<g>
</g>
<g>
</g>
</svg>
