<?xml version="1.0" encoding="iso-8859-1"?>
<!-- Generator: Adobe Illustrator 19.0.0, SVG Export Plug-In . SVG Version: 6.00 Build 0)  -->
<svg xmlns="http://www.w3.org/2000/svg" xmlns:xlink="http://www.w3.org/1999/xlink" version="1.1" id="Capa_1" x="0px" y="0px" viewBox="0 0 512 512" style="enable-background:new 0 0 512 512;" xml:space="preserve">
<path style="fill:#27536B;" d="M512,255.994c0,45.59-11.925,88.392-32.81,125.477c-0.366,0.655-0.733,1.31-1.11,1.954  c-0.378,0.655-0.755,1.31-1.133,1.954c-7.095,12.08-15.145,23.528-24.061,34.242c-11.17,13.424-23.683,25.693-37.34,36.585  c-7.406,5.918-15.145,11.425-23.183,16.488c-5.929,3.753-12.025,7.25-18.276,10.504C338.757,501.596,298.597,512,256.006,512  s-82.763-10.404-118.093-28.802c-6.629-3.453-13.08-7.184-19.342-11.181c-17.121-10.914-32.865-23.816-46.889-38.372  c-4.352-4.519-8.549-9.193-12.558-14.023c-6.673-8.017-12.869-16.455-18.531-25.271c-0.244-0.389-0.5-0.777-0.744-1.166  c-0.422-0.633-0.822-1.266-1.221-1.91c-0.4-0.644-0.799-1.288-1.188-1.932c-0.355-0.588-0.711-1.177-1.066-1.765  c-12.68-21.096-22.395-44.191-28.58-68.673c-0.755-2.953-1.443-5.918-2.087-8.905C1.965,292.59,0,274.526,0,255.994  C0,114.607,114.618,0,256.006,0C274.526,0,292.59,1.965,310,5.707c2.987,0.644,5.951,1.332,8.905,2.087  c52.285,13.202,98.163,42.492,132.061,82.297c1.688,1.976,3.342,3.986,4.974,6.018C491.015,139.911,512,195.504,512,255.994z"/>
<g>
	<polygon style="fill:#FFFFFF;" points="91.92,119.421 120.655,116.245 91.92,113.068 88.743,84.332 85.565,113.068 56.83,116.245    85.565,119.421 88.743,148.157  "/>
	<polygon style="fill:#FFFFFF;" points="169.642,432.839 198.377,429.662 169.642,426.486 166.465,397.75 163.288,426.486    134.553,429.662 163.288,432.839 166.465,461.575  "/>
	<polygon style="fill:#FFFFFF;" points="388.433,120.573 431.39,115.824 388.433,111.075 383.684,68.118 378.935,111.075    335.978,115.824 378.935,120.573 383.684,163.53  "/>
	
		<rect x="46.212" y="282.206" transform="matrix(-0.7071 -0.7071 0.7071 -0.7071 -115.4793 526.9417)" style="fill:#FFFFFF;" width="10.362" height="10.362"/>
	
		<rect x="466.017" y="260.001" transform="matrix(-0.7071 -0.7071 0.7071 -0.7071 616.8741 785.8821)" style="fill:#FFFFFF;" width="10.362" height="10.362"/>
	
		<rect x="340.334" y="136.754" transform="matrix(-0.7071 -0.7071 0.7071 -0.7071 489.4688 486.6149)" style="fill:#FFFFFF;" width="10.362" height="10.362"/>
	
		<rect x="127.471" y="84.575" transform="matrix(-0.7071 -0.7071 0.7071 -0.7071 162.9841 247.0224)" style="fill:#FFFFFF;" width="10.362" height="10.362"/>
	
		<rect x="272.6" y="430.986" transform="matrix(-0.7071 -0.7071 0.7071 -0.7071 165.7855 941.0049)" style="fill:#FFFFFF;" width="10.362" height="10.362"/>
</g>
<path style="fill:#E6E6E6;" d="M263.504,367.342l10.637-10.637c1.206-1.206,2.47-2.321,3.786-3.334l0.01,0.01  c1.256,3.475,24.65-19.796,25.916-23.301c-19.203-19.203-29.137-29.609,0.237-0.237l37.338,37.338l0.161,0.161l0.723,0.723  l9.14,9.14l-1.597,1.597l-37.444,37.444l-9.863-9.863"/>
<polygon style="fill:#F77759;" points="400.115,399.444 347.834,451.714 337.629,441.509 389.508,389.621 389.9,389.229 "/>
<path style="fill:#CCCCCC;" d="M389.9,389.229l-0.392,0.392l-51.878,51.888l-15.328-15.328l0.02-0.02l-9.914-9.914l37.444-37.444  l1.597-1.597l9.914,9.914c7.293-7.303,19.124-7.303,26.427,0L389.9,389.229z"/>
<polyline style="fill:#E6E6E6;" points="233.195,215.19 283.418,196.327 297.48,158.159 334.644,169.208 318.573,225.455   271.383,253.379 "/>
<path style="fill:#CCCCCC;" d="M109.939,172.505c0-2.391,0.141-4.741,0.422-7.06l-29.56,29.57c-9.462,9.462-9.462,24.799,0,34.261  l13.63,13.62l12.022,12.023l38.329,38.328h2.08v-4.57v-33.879v-25.834l0.774-2.039C125.618,218.669,109.939,197.415,109.939,172.505  z"/>
<g>
	<path style="fill:#FFFFFF;" d="M179.887,343.246c6.74-9.251,6.228-22.157-1.527-30.866l0.04-0.03l23.674-23.674h25.462   c1.728,0,3.415,0.161,5.052,0.472l-0.09,0.502v52.27l0.261,1.467c-1.688,0.332-3.435,0.502-5.223,0.502h-25.462h-7.072h-7.975   C184.588,343.889,182.207,343.668,179.887,343.246z"/>
	<path style="fill:#FFFFFF;" d="M146.862,293.247v-4.57v-33.879v-25.834l0.774-2.039c6.348,2.381,13.218,3.686,20.4,3.686   c12.706,0,24.468-4.088,34.04-11.009v69.074l-23.674,23.674l-0.04,0.03c-0.311-0.362-0.643-0.713-0.985-1.055   c-8.226-8.226-20.812-9.411-30.314-3.575c-0.131-1.326-0.201-2.671-0.201-4.028L146.862,293.247L146.862,293.247z"/>
</g>
<path style="fill:#F2F2F2;" d="M348.619,305.812l-32.362,32.352l-0.07-0.07l-10.145,10.145c-29.47,29.47-77.22,29.47-106.689,0  l-4.349-4.349h7.072h25.462c1.788,0,1.728-55.213,0-55.213h-25.462v-69.074c2.882-2.09,5.565-4.439,8.025-7.001l2.14,0.372  l75.563,75.573l18.059-18.059l3.716-3.716l10.637-10.637c1.206-1.206,2.47-2.321,3.786-3.334l0.01,0.01  c1.256,3.475,3.284,6.75,6.087,9.552c10.195,10.195,26.728,10.195,36.922,0c2.832-2.822,4.861-6.127,6.127-9.632  c1.346,1.035,2.641,2.17,3.877,3.405l10.476,10.472l0.161,0.161l0.723,0.723l9.14,9.14l-1.597,1.597l-37.444,37.444L348.619,305.812  z"/>
<g>
	<polygon style="fill:#F77759;" points="446.189,298.872 393.909,351.142 383.704,340.937 435.582,289.049 435.974,288.657  "/>
	<path style="fill:#F77759;" d="M373.147,252.729c-1.266,3.505-3.294,6.81-6.127,9.632c-10.195,10.195-26.728,10.195-36.922,0   c-2.802-2.802-4.831-6.077-6.087-9.552l-0.01-0.01c1.758-1.376,3.606-2.581,5.514-3.616c7.703-4.158,16.483-5.625,24.94-4.389   C361.115,245.767,367.563,248.41,373.147,252.729z"/>
	<path style="fill:#F77759;" d="M178.36,312.381c7.754,8.708,8.266,21.616,1.527,30.866c-17.487-3.123-31.047-17.577-32.824-35.496   c9.502-5.836,22.088-4.65,30.314,3.575C177.717,311.668,178.049,312.02,178.36,312.381z"/>
</g>
<path style="fill:#CCCCCC;" d="M435.974,288.657l-0.392,0.392l-51.878,51.888l-15.328-15.328l0.02-0.02l-9.914-9.914l37.444-37.444  l1.597-1.597l9.914,9.914c7.293-7.303,19.124-7.303,26.427,0L435.974,288.657z"/>
<path style="fill:#E6E6E6;" d="M212.239,212.973l-2.14-0.372c6.378-6.7,11.19-14.936,13.801-24.076l18.732,18.742h0.01  l38.178,38.188h0.01l3.284,3.284v0.01l21.746,21.736l-18.059,18.059L212.239,212.973z"/>
<polygon style="fill:#F2F2F2;" points="126.281,235.101 125.377,235.994 108.553,252.819 106.454,254.919 94.431,242.895   96.53,240.796 113.354,223.972 114.258,223.078 "/>
<path style="fill:#F77759;" d="M232.589,289.148l8.39-8.39c2.519-2.519,6.828-0.735,6.828,2.828v8.273l7.274,0.666  c8.312,0.761,14.674,7.731,14.674,16.078v13.332c0,7.641-5.357,14.236-12.836,15.802l-29.381,6.151v-55.213"/>
<circle style="fill:#F2F2F2;" cx="168.313" cy="175.352" r="59.763"/>
<ellipse transform="matrix(-0.3038 -0.9527 0.9527 -0.3038 55.7882 376.1991)" style="fill:#51BEE5;" cx="165.344" cy="167.717" rx="42.063" ry="51.726"/>
<ellipse transform="matrix(-0.1838 -0.983 0.983 -0.1838 71.9931 388.3223)" style="fill:#73D5EF;" cx="197.219" cy="164.271" rx="16.071" ry="11.551"/>
<path style="fill:#F77759;" d="M297.48,158.159l-8.517-13.077c-2.215-3.401,0.225-7.902,4.284-7.902h4.631l5.895-13.508  c3.524-8.076,12.488-12.291,20.956-9.854l3.359,0.967c8.596,2.474,13.96,11.014,12.457,19.831l-5.9,34.592L297.48,158.159z"/>
<g>
</g>
<g>
</g>
<g>
</g>
<g>
</g>
<g>
</g>
<g>
</g>
<g>
</g>
<g>
</g>
<g>
</g>
<g>
</g>
<g>
</g>
<g>
</g>
<g>
</g>
<g>
</g>
<g>
</g>
</svg>
