<?xml version="1.0" encoding="iso-8859-1"?>
<!-- Generator: Adobe Illustrator 19.0.0, SVG Export Plug-In . SVG Version: 6.00 Build 0)  -->
<svg xmlns="http://www.w3.org/2000/svg" xmlns:xlink="http://www.w3.org/1999/xlink" version="1.1" id="Capa_1" x="0px" y="0px" viewBox="0 0 512 512" style="enable-background:new 0 0 512 512;" xml:space="preserve">
<path style="fill:#2B88A0;" d="M512,255.994c0,45.59-11.925,88.392-32.81,125.477c-0.366,0.655-0.733,1.31-1.11,1.954  c-0.378,0.655-0.755,1.31-1.133,1.954c-7.095,12.08-15.145,23.528-24.061,34.242c-11.17,13.424-23.683,25.693-37.34,36.585  c-7.406,5.918-15.145,11.425-23.183,16.488c-5.929,3.753-12.025,7.25-18.276,10.504C338.757,501.596,298.597,512,256.006,512  s-82.763-10.404-118.093-28.802c-6.629-3.453-13.08-7.184-19.342-11.181c-17.121-10.914-32.865-23.816-46.889-38.372  c-4.352-4.519-8.549-9.193-12.558-14.023c-6.673-8.017-12.869-16.455-18.531-25.271c-0.244-0.389-0.5-0.777-0.744-1.166  c-0.422-0.633-0.822-1.266-1.221-1.91c-0.4-0.644-0.799-1.288-1.188-1.932c-0.355-0.588-0.711-1.177-1.066-1.765  c-12.68-21.096-22.395-44.191-28.58-68.673c-0.755-2.953-1.443-5.918-2.087-8.905C1.965,292.59,0,274.526,0,255.994  C0,114.607,114.618,0,256.006,0C274.526,0,292.59,1.965,310,5.707c2.987,0.644,5.951,1.332,8.905,2.087  c52.285,13.202,98.163,42.492,132.061,82.297c1.688,1.976,3.342,3.986,4.974,6.018C491.015,139.911,512,195.504,512,255.994z"/>
<rect x="354.93" y="271.563" transform="matrix(-0.7071 -0.7071 0.7071 -0.7071 386.2523 800.0235)" style="fill:#FFFFFF;" width="7.772" height="96.907"/>
<path style="fill:#27536B;" d="M348.698,91.036c-16.748-7.96-45.982,1.889-72.497,24.565c-3.16,2.699-6.271,5.573-9.324,8.627  c-0.611,0.611-1.216,1.228-1.814,1.839c-2.714,2.8-5.265,5.653-7.683,8.531l-14.301-0.596l-43.216,39.061l33.6,3.66  c-0.346,1.192-0.667,2.376-0.943,3.542c-0.792,3.334-1.285,6.544-1.471,9.611c4.407,1.078,8.583,3.335,12.03,6.782  c3.441,3.441,5.697,7.617,6.775,12.024c3.136-0.193,6.439-0.704,9.861-1.533c1.086-0.261,2.186-0.556,3.295-0.878l3.66,33.601  l39.061-43.216l-0.596-14.306c2.877-2.417,5.728-4.968,8.528-7.68c0.611-0.598,1.228-1.202,1.839-1.813  c3.055-3.054,5.928-6.164,8.627-9.324C346.804,137.011,356.658,107.784,348.698,91.036z"/>
<g>
	<polygon style="fill:#FFFFFF;" points="409.339,205.22 438.075,202.043 409.339,198.866 406.162,170.13 402.986,198.866    374.25,202.043 402.986,205.22 406.162,233.956  "/>
	<polygon style="fill:#FFFFFF;" points="104.06,297.082 132.795,293.905 104.06,290.728 100.882,261.992 97.706,290.728    68.97,293.905 97.706,297.082 100.882,325.818  "/>
	<polygon style="fill:#FFFFFF;" points="160.683,78.916 189.419,75.739 160.683,72.562 157.506,43.826 154.329,72.562    125.593,75.739 154.329,78.916 157.506,107.652  "/>
	
		<rect x="487.992" y="255.099" transform="matrix(-0.7071 -0.7071 0.7071 -0.7071 657.8541 793.053)" style="fill:#FFFFFF;" width="10.362" height="10.362"/>
	
		<rect x="307.042" y="298.557" transform="matrix(-0.7071 -0.7071 0.7071 -0.7071 318.2234 739.2885)" style="fill:#FFFFFF;" width="10.362" height="10.362"/>
	
		<rect x="420.292" y="288.564" transform="matrix(-0.7071 -0.7071 0.7071 -0.7071 518.6192 802.3101)" style="fill:#FFFFFF;" width="10.362" height="10.362"/>
	
		<rect x="328.284" y="40.118" transform="matrix(-0.7071 -0.7071 0.7071 -0.7071 537.2297 313.1253)" style="fill:#FFFFFF;" width="10.362" height="10.362"/>
	
		<rect x="57.921" y="196.972" transform="matrix(-0.7071 -0.7071 0.7071 -0.7071 -35.2214 389.7173)" style="fill:#FFFFFF;" width="10.362" height="10.362"/>
</g>
<path style="fill:#27536B;" d="M465.444,378.684l-54.668,27.289c-0.002,0-0.004-0.001-0.007-0.002l-8.604-22.291h-36.64v-19.986  l-46.633-13.324l-12.069,36.563l-0.007,0.004c-16.737-1.479-33.681-2.236-50.801-2.236l-5.407-16.011h-26.636V347.04h-40.804v42.282  c-7.358,0.939-14.674,2.012-21.942,3.228l-13.865-13.866h-31.644l-2.404,24.034c-4.793,1.236-9.561,2.53-14.304,3.887  l-16.601-31.252l-43.78,15.922c6.196,9.926,13.046,19.397,20.496,28.346c4.008,4.83,8.205,9.504,12.558,14.023  c1.55,1.608,3.128,3.188,4.718,4.754c0.442,0.435,0.885,0.867,1.33,1.3c1.415,1.373,2.844,2.734,4.289,4.075  c0.211,0.197,0.419,0.396,0.631,0.592c1.633,1.503,3.29,2.981,4.962,4.442c0.434,0.38,0.872,0.756,1.308,1.133  c1.476,1.272,2.963,2.529,4.468,3.77c0.26,0.214,0.516,0.432,0.776,0.645c1.761,1.439,3.543,2.851,5.343,4.244  c0.353,0.273,0.709,0.543,1.065,0.814c1.623,1.244,3.262,2.468,4.916,3.673c0.243,0.177,0.484,0.358,0.727,0.533  c1.906,1.378,3.833,2.73,5.778,4.057c0.224,0.152,0.451,0.302,0.675,0.454c1.808,1.225,3.632,2.425,5.473,3.604  c0.144,0.092,0.285,0.191,0.43,0.283h0.011c6.266,3.995,12.71,7.733,19.331,11.18c35.33,18.398,75.501,28.802,118.093,28.802  s82.752-10.404,118.082-28.802c6.241-3.25,12.323-6.765,18.251-10.504h0.024c0.33-0.208,0.652-0.427,0.98-0.637  c1.319-0.84,2.631-1.692,3.934-2.556c0.662-0.439,1.322-0.879,1.98-1.323c1.199-0.811,2.388-1.635,3.572-2.466  c0.678-0.475,1.359-0.948,2.032-1.431c1.222-0.876,2.432-1.768,3.637-2.665c0.592-0.44,1.19-0.873,1.779-1.318  c1.773-1.342,3.532-2.704,5.268-4.091c13.657-10.892,26.17-23.161,37.34-36.585c9.393-11.292,17.832-23.394,25.193-36.196  L465.444,378.684z"/>
<g>
	<path style="fill:#FFFFFF;" d="M224.217,210.727L40.593,394.351c-0.244-0.389-0.5-0.777-0.744-1.166   c-0.422-0.633-0.822-1.266-1.221-1.91c-0.4-0.644-0.799-1.288-1.188-1.932c-0.355-0.588-0.711-1.177-1.066-1.765l182.347-182.347   L224.217,210.727z"/>
	<path style="fill:#FFFFFF;" d="M455.94,96.109L317.295,234.743l-5.496-5.496L450.966,90.091   C452.654,92.067,454.308,94.077,455.94,96.109z"/>
	<path style="fill:#FFFFFF;" d="M318.905,7.794L7.794,318.905c-0.755-2.953-1.443-5.918-2.087-8.905L310,5.707   C312.987,6.351,315.952,7.039,318.905,7.794z"/>
</g>
<g>
</g>
<g>
</g>
<g>
</g>
<g>
</g>
<g>
</g>
<g>
</g>
<g>
</g>
<g>
</g>
<g>
</g>
<g>
</g>
<g>
</g>
<g>
</g>
<g>
</g>
<g>
</g>
<g>
</g>
</svg>
