<?xml version="1.0" encoding="iso-8859-1"?>
<!-- Generator: Adobe Illustrator 19.0.0, SVG Export Plug-In . SVG Version: 6.00 Build 0)  -->
<svg xmlns="http://www.w3.org/2000/svg" xmlns:xlink="http://www.w3.org/1999/xlink" version="1.1" id="Capa_1" x="0px" y="0px" viewBox="0 0 512 512" style="enable-background:new 0 0 512 512;" xml:space="preserve">
<path style="fill:#27536B;" d="M512,255.994c0,81.053-37.673,153.312-96.453,200.212c-12.869,10.282-26.747,19.331-41.459,26.992  C338.757,501.596,298.597,512,256.006,512s-82.763-10.404-118.093-28.802c-4.697-2.443-9.304-5.03-13.823-7.761  c-11.636-7.006-22.673-14.912-32.999-23.639c-0.588-0.489-1.177-0.988-1.754-1.499c-6.14-5.263-12.036-10.826-17.654-16.655  c-1.765-1.832-3.497-3.675-5.196-5.563c-0.333-0.355-0.666-0.722-0.988-1.088c-7.506-8.35-14.467-17.188-20.83-26.481  C16.488,359.387,0,309.612,0,255.994C0,114.607,114.618,0,256.006,0C397.382,0,512,114.607,512,255.994z"/>
<g>
	<polygon style="fill:#FFFFFF;" points="129.866,205.024 178.066,199.696 129.866,194.367 124.537,146.168 119.209,194.367    71.009,199.696 119.209,205.024 124.537,253.224  "/>
	<polygon style="fill:#FFFFFF;" points="449.201,284.716 497.4,279.388 449.201,274.059 443.872,225.859 438.544,274.059    390.344,279.388 438.544,284.716 443.872,332.916  "/>
	<polygon style="fill:#FFFFFF;" points="260.447,440.16 308.647,434.832 260.447,429.503 255.118,381.304 249.79,429.503    201.59,434.832 249.79,440.16 255.118,488.36  "/>
	
		<rect x="155.779" y="341.743" transform="matrix(-0.7071 -0.7071 0.7071 -0.7071 29.4633 706.0533)" style="fill:#FFFFFF;" width="10.362" height="10.362"/>
	
		<rect x="188.642" y="77.899" transform="matrix(-0.7071 -0.7071 0.7071 -0.7071 272.1309 278.8809)" style="fill:#FFFFFF;" width="10.362" height="10.362"/>
	
		<rect x="365.636" y="317.722" transform="matrix(-0.7071 -0.7071 0.7071 -0.7071 404.697 813.4376)" style="fill:#FFFFFF;" width="10.362" height="10.362"/>
	
		<rect x="388.502" y="424.31" transform="matrix(-0.7071 -0.7071 0.7071 -0.7071 368.3637 1011.5638)" style="fill:#FFFFFF;" width="10.362" height="10.362"/>
	
		<rect x="212.404" y="46.803" transform="matrix(-0.7071 -0.7071 0.7071 -0.7071 334.683 242.5978)" style="fill:#FFFFFF;" width="10.362" height="10.362"/>
	
		<rect x="65.852" y="286.635" transform="matrix(-0.7071 -0.7071 0.7071 -0.7071 -85.0829 548.3892)" style="fill:#FFFFFF;" width="10.362" height="10.362"/>
	
		<rect x="450.68" y="194.036" transform="matrix(-0.7071 -0.7071 0.7071 -0.7071 637.3361 662.428)" style="fill:#FFFFFF;" width="10.362" height="10.362"/>
</g>
<g>
	<polyline style="fill:#1AA5E2;" points="251.867,170.899 203.746,168.893 99.483,263.132 200.738,274.159  "/>
	<polyline style="fill:#1AA5E2;" points="352.895,271.925 354.9,320.047 260.662,424.311 249.635,323.054  "/>
</g>
<path style="fill:#E6E6E6;" d="M378.472,262.625c-1.473,1.473-2.962,2.932-4.436,4.376c-42.617,41.294-89.867,68.693-130.153,78.363  c-8.256,2-16.226,3.233-23.79,3.7c-2.601-10.632-8.045-20.707-16.346-29.008c-8.316-8.316-18.391-13.76-29.024-16.362  c0.451-7.399,1.639-15.144,3.55-23.188c9.549-40.408,37.008-87.927,78.513-130.755c1.443-1.473,2.902-2.962,4.376-4.436  c7.369-7.369,14.873-14.301,22.497-20.813c63.972-54.707,134.499-78.468,174.907-59.264c19.204,40.407-4.571,110.921-59.28,174.891  C392.774,247.753,385.841,255.256,378.472,262.625z"/>
<path style="fill:#CCCCCC;" d="M315.915,156.758c-7.308,6.827-14.662,13.91-22.031,21.279c-1.473,1.473-2.932,2.962-4.391,4.421  c-41.866,42.467-74.934,84.378-93.086,116.183c-2.241,3.925-4.24,7.67-6.016,11.249c-4.978-2.812-10.256-4.872-15.67-6.196  c0.452-7.398,1.639-15.144,3.549-23.189c9.55-40.407,37.008-87.927,78.514-130.755c1.443-1.473,2.902-2.962,4.376-4.436  c7.369-7.369,14.873-14.301,22.497-20.813c63.971-54.709,134.499-78.468,174.907-59.264C434.79,62.665,377.3,99.463,315.915,156.758  z"/>
<g>
	<path style="fill:#F77759;" d="M243.883,345.364c-8.256,2-16.226,3.233-23.79,3.7c-2.601-10.632-8.045-20.707-16.346-29.008   c-8.316-8.316-18.391-13.76-29.024-16.362c0.451-7.399,1.639-15.144,3.55-23.188l0.421-0.331L243.883,345.364z"/>
	<path style="fill:#F77759;" d="M378.472,262.625c-1.473,1.473-2.962,2.932-4.436,4.376l-117.252-117.25   c1.443-1.473,2.902-2.962,4.376-4.436c7.369-7.369,14.873-14.301,22.497-20.813l115.627,115.626   C392.774,247.753,385.841,255.256,378.472,262.625z"/>
</g>
<path style="fill:#C1533E;" d="M188.843,434.955c-12.391,12.391-38.173,27.169-64.754,40.482  c-11.636-7.006-22.673-14.912-32.999-23.639l8.016-9.848l-9.771,8.35c-6.14-5.263-12.036-10.826-17.654-16.655  c-1.765-1.832-3.497-3.675-5.196-5.563l2.287-3.353l-3.275,2.265c-7.506-8.35-14.467-17.188-20.83-26.481  c19.408-40.36,44.168-65.575,44.168-65.575c27.614-27.614,72.393-27.614,100.006,0C216.456,362.563,216.456,407.342,188.843,434.955  z"/>
<path style="fill:#F9B55A;" d="M167.965,353.414c-19.675-19.675-57.383,37.709-63.121,63.121  C104.844,416.535,190.063,392.244,167.965,353.414z"/>
<path style="fill:#1AA5E2;" d="M241.496,294.32c-35.839,35.839-51.087,45.701-54.409,42.379c-3.322-3.322,6.54-18.57,42.379-54.409  s67.585-62.199,70.907-58.877C303.695,226.735,277.335,258.482,241.496,294.32z"/>
<g>
</g>
<g>
</g>
<g>
</g>
<g>
</g>
<g>
</g>
<g>
</g>
<g>
</g>
<g>
</g>
<g>
</g>
<g>
</g>
<g>
</g>
<g>
</g>
<g>
</g>
<g>
</g>
<g>
</g>
</svg>
