<?xml version="1.0" encoding="iso-8859-1"?>
<!-- Generator: Adobe Illustrator 19.0.0, SVG Export Plug-In . SVG Version: 6.00 Build 0)  -->
<svg xmlns="http://www.w3.org/2000/svg" xmlns:xlink="http://www.w3.org/1999/xlink" version="1.1" id="Capa_1" x="0px" y="0px" viewBox="0 0 512 512" style="enable-background:new 0 0 512 512;" xml:space="preserve">
<path style="fill:#27536B;" d="M512,255.994c0,69.039-27.336,131.695-71.771,177.739c-7.439,7.706-15.356,14.956-23.705,21.684  c-13.279,10.703-27.658,20.119-42.925,28.035c-0.011,0.011-0.022,0.011-0.033,0.022c-8.172,4.219-16.599,8.017-25.249,11.37h-0.011  C319.671,505.927,288.549,512,256.006,512c-38.65,0-75.291-8.561-108.145-23.905c-23.272-10.859-44.624-25.115-63.455-42.114  l-0.011-0.011c-4.341-3.931-8.538-7.994-12.602-12.202l-0.011-0.011C27.336,387.711,0,325.045,0,255.994  c0-6.495,0.244-12.935,0.722-19.308C10.592,104.314,121.113,0,256.006,0c134.981,0,245.569,104.47,255.295,236.975  C511.767,243.259,512,249.599,512,255.994z"/>
<polygon style="fill:#FFFFFF;" points="411.489,165.744 459.689,160.415 411.489,155.087 406.16,106.887 400.832,155.087   352.632,160.415 400.832,165.744 406.16,213.943 "/>
<path style="fill:#F77759;" d="M470.297,324.212c0,10.359-0.733,20.552-2.165,30.523c-4.064,28.524-13.746,55.249-27.902,78.999  C393.685,481.988,328.343,512,256.006,512s-137.668-30.001-184.224-78.244c-0.167-0.278-0.333-0.555-0.489-0.833  c-17.51-29.679-28.058-63.943-29.434-100.55c-0.1-2.709-0.155-5.429-0.155-8.161c0-9.504,0.622-18.864,1.821-28.035  c1.71-13.102,4.597-25.826,8.561-38.062c27.869-86.005,108.633-148.194,203.921-148.194c11.747,0,23.261,0.944,34.486,2.765  c25.038,4.053,48.61,12.424,69.939,24.36c0.777,0.433,1.554,0.877,2.332,1.321c10.803,6.218,21.007,13.357,30.523,21.296  c41.226,34.431,69.317,84.073,75.646,140.311C469.841,307.924,470.297,316.018,470.297,324.212z"/>
<path style="fill:#E0634B;" d="M416.524,455.418C372.622,490.815,316.784,512,256.006,512c-72.326,0-137.657-30.001-184.213-78.233  l-0.011-0.011c-15.156-25.437-25.193-54.272-28.679-85.095c-0.622-5.374-1.033-10.803-1.244-16.288  c-0.1-2.709-0.155-5.429-0.155-8.161c0-9.504,0.622-18.864,1.821-28.035c1.71-13.102,4.597-25.826,8.561-38.062  c14.734-45.456,44.235-84.262,82.863-110.754c-11.503,16.755-20.674,35.23-27.069,54.961c-3.964,12.236-6.851,24.96-8.561,38.062  c-1.199,9.171-1.821,18.531-1.821,28.035c0,2.731,0.056,5.452,0.155,8.161c1.732,46.234,18.109,88.736,44.635,122.967  c17.132,22.106,38.484,40.771,62.855,54.783c31.411,18.054,67.829,28.38,106.657,28.38  C349.827,482.71,385.557,472.795,416.524,455.418z"/>
<g>
	<polygon style="fill:#FFFFFF;" points="146.008,82.206 194.208,76.877 146.008,71.549 140.679,23.349 135.351,71.549 87.15,76.877    135.351,82.206 140.679,130.407  "/>
	
		<rect x="330.232" y="78.284" transform="matrix(-0.7071 -0.7071 0.7071 -0.7071 513.5672 379.6573)" style="fill:#FFFFFF;" width="10.362" height="10.362"/>
	
		<rect x="52.77" y="157.56" transform="matrix(-0.7071 -0.7071 0.7071 -0.7071 -16.1467 318.7935)" style="fill:#FFFFFF;" width="10.362" height="10.362"/>
	
		<rect x="269.271" y="34.754" transform="matrix(-0.7071 -0.7071 0.7071 -0.7071 440.2803 262.2406)" style="fill:#FFFFFF;" width="10.362" height="10.362"/>
</g>
<ellipse transform="matrix(-0.7071 -0.7071 0.7071 -0.7071 482.4401 614.9187)" style="fill:#FF9580;" cx="368.574" cy="207.543" rx="40.801" ry="24.148"/>
<g>
	<path style="fill:#C66C60;" d="M468.131,354.735c-4.064,28.524-13.746,55.249-27.902,78.999   c-7.439,7.706-15.356,14.956-23.705,21.684c-0.022,0.011-0.033,0.033-0.056,0.044C372.578,490.826,316.762,512,256.006,512   c-72.337,0-137.668-30.001-184.224-78.244c-0.167-0.278-0.333-0.555-0.489-0.833c4.708-11.325,9.427-23.05,13.302-33.376   c10.404-27.747,29.357-10.492,47.51-14.334c4.23-0.899,8.416-2.931,12.447-6.962c21.296-21.296,54.961-18.32,99.928-8.327   c44.968,9.993,93.255-9.993,129.896-26.648c36.64-16.655,39.028,5.796,66.619,14.989   C451.399,361.73,460.226,359.787,468.131,354.735z"/>
	<path style="fill:#C66C60;" d="M179.024,234.088c22.565,8.462,39.231,9.623,39.231,16.285s-19.245,11.103-28.868,20.726   s-25.168,15.544-25.168,3.701s-16.655-16.285-16.655-28.499S167.18,229.647,179.024,234.088z"/>
	<path style="fill:#C66C60;" d="M393.285,159.663c-22.083-6.299-58.342,1.698-75.958,6.362c-8.878,2.351-15.457-8.406-9.163-15.096   c4.138-4.399,11.005-8.35,20.379-10.852c13.857-3.697,23.75-3.442,31.888-3.031c0.777,0.433,1.554,0.877,2.332,1.321   C373.566,144.585,383.77,151.725,393.285,159.663z"/>
</g>
<path style="fill:#B75C53;" d="M416.524,455.418c-0.022,0.011-0.033,0.033-0.056,0.044c-21.174,17.054-45.134,30.822-71.071,40.493  C317.561,506.326,287.45,512,256.006,512c-21.174,0-41.748-2.576-61.423-7.428c-47.555-11.692-89.869-36.696-122.801-70.816  c-0.167-0.278-0.333-0.555-0.489-0.833c4.708-11.325,9.427-23.05,13.302-33.376c10.404-27.747,29.357-10.492,47.51-14.334  c3.198,4.919,6.595,9.704,10.182,14.334c17.132,22.106,38.484,40.771,62.855,54.783c31.411,18.054,67.829,28.38,106.657,28.38  C349.827,482.71,385.557,472.795,416.524,455.418z"/>
<path style="fill:#FF9580;" d="M345.397,495.956C317.561,506.326,287.45,512,256.006,512c-21.174,0-41.748-2.576-61.423-7.428  c15.977-9.404,48.754-15.855,86.594-15.855C305.803,488.717,328.298,491.448,345.397,495.956z"/>
<path style="fill:#B75C53;" d="M74.658,300.707c0,13.324,7.028,11.103,7.028,20.352c0,9.26-25.537,4.075-29.979,14.434  c-1.721,4.019-5.107,8.805-8.605,13.168c-0.622-5.374-1.033-10.803-1.244-16.288c-0.1-2.709-0.155-5.429-0.155-8.161  c0-9.504,0.622-18.864,1.821-28.035c8.116-8.116,27.369-21.673,40.749-20.641C97.652,276.58,74.658,287.383,74.658,300.707z"/>
<g>
</g>
<g>
</g>
<g>
</g>
<g>
</g>
<g>
</g>
<g>
</g>
<g>
</g>
<g>
</g>
<g>
</g>
<g>
</g>
<g>
</g>
<g>
</g>
<g>
</g>
<g>
</g>
<g>
</g>
</svg>
