<?xml version="1.0" encoding="iso-8859-1"?>
<!-- Generator: Adobe Illustrator 19.0.0, SVG Export Plug-In . SVG Version: 6.00 Build 0)  -->
<svg xmlns="http://www.w3.org/2000/svg" xmlns:xlink="http://www.w3.org/1999/xlink" version="1.1" id="Capa_1" x="0px" y="0px" viewBox="0 0 512 512" style="enable-background:new 0 0 512 512;" xml:space="preserve">
<path style="fill:#27536B;" d="M512,255.994c0,81.053-37.673,153.312-96.453,200.212c-12.869,10.282-26.747,19.331-41.459,26.992  C338.757,501.596,298.597,512,256.006,512s-82.763-10.404-118.093-28.802c-24.716-12.869-47.066-29.668-66.23-49.553  C27.292,387.611,0,324.989,0,255.994C0,114.607,114.618,0,256.006,0C397.382,0,512,114.607,512,255.994z"/>
<path style="fill:#FFFFFF;" d="M415.547,456.207c-12.869,10.282-26.747,19.331-41.459,26.992  C338.757,501.596,298.597,512,256.006,512s-82.763-10.404-118.093-28.802c-24.716-12.869-47.066-29.668-66.23-49.553  c17.943-16.111,44.235-17.821,63.954-5.141c5.085-11.192,16.344-18.986,29.446-18.986c7.817,0,14.989,2.787,20.585,7.406  c3.853-21.873,22.928-38.495,45.912-38.495c1.876,0,3.731,0.122,5.552,0.344v-61.412h37.751v75.557  c1.088-0.111,2.21-0.178,3.331-0.178c14.667,0,27.036,9.771,30.989,23.161c11.192,1.454,22.006,6.462,30.611,15.056  c0.688,0.688,1.343,1.399,1.987,2.11c7.728-8.916,19.12-14.556,31.844-14.556C395.417,418.511,413.326,435.022,415.547,456.207z"/>
<path style="fill:#F9B55A;" d="M374.088,483.198C338.757,501.596,298.597,512,256.006,512s-82.763-10.404-118.093-28.802  c35.33-18.409,75.501-28.813,118.093-28.813S338.757,464.789,374.088,483.198z"/>
<g>
	<path style="fill:#F77759;" d="M286.208,305.148h-60.498c-10.275,0-18.604-8.33-18.604-18.604v-19.146h97.708v19.146   C304.813,296.819,296.483,305.148,286.208,305.148z"/>
	<path style="fill:#F77759;" d="M327.666,177.747c0,0,39.725,38.307,52.49,80.815c3.693,12.297-5.737,24.636-18.577,24.636h-47.335"/>
	<path style="fill:#F77759;" d="M184.251,177.747c0,0-39.426,38.018-52.345,80.336c-3.809,12.48,5.389,25.115,18.437,25.115h47.328"/>
</g>
<path style="fill:#E6E6E6;" d="M278.607,101.675c-12.638-12.228-32.66-12.228-45.296,0c-25.205,24.388-62.435,74.086-62.435,154.876  c0,0.101,0,0.201,0.001,0.302c0.069,14.624,12.172,26.346,26.796,26.346h116.572c14.624,0,26.729-11.722,26.796-26.346  c0-0.101,0.001-0.201,0.001-0.302C341.042,175.76,303.812,126.063,278.607,101.675z"/>
<path style="fill:#CCCCCC;" d="M255.96,92.5c-3.62,0-7.239,3.064-10.037,9.171c-11.17,24.394-27.669,74.091-27.669,154.878v0.3  c0.033,14.623,5.396,26.348,11.88,26.348h-32.466c-14.623,0-26.725-11.725-26.792-26.348v-0.3  c0-80.787,37.229-130.484,62.433-154.878C239.627,95.565,247.788,92.5,255.96,92.5z"/>
<circle style="fill:#1AA5E2;" cx="255.961" cy="207.696" r="41.082"/>
<path style="fill:#B3B3B3;" d="M255.959,255.996c-26.632,0-48.299-21.667-48.299-48.299s21.667-48.299,48.299-48.299  s48.299,21.667,48.299,48.299S282.591,255.996,255.959,255.996z M255.959,173.832c-18.672,0-33.865,15.191-33.865,33.865  s15.192,33.865,33.865,33.865s33.865-15.191,33.865-33.865S274.631,173.832,255.959,173.832z"/>
<g>
	<polygon style="fill:#FFFFFF;" points="82.35,306.922 130.55,301.594 82.35,296.266 77.022,248.066 71.693,296.266 23.493,301.594    71.693,306.922 77.022,355.122  "/>
	<polygon style="fill:#FFFFFF;" points="418.112,149.258 466.312,143.929 418.112,138.601 412.783,90.401 407.455,138.601    359.255,143.929 407.455,149.258 412.783,197.457  "/>
	
		<rect x="114.702" y="337.711" transform="matrix(-0.7071 -0.7071 0.7071 -0.7071 -37.8087 670.1243)" style="fill:#FFFFFF;" width="10.362" height="10.362"/>
	
		<rect x="130.914" y="87.508" transform="matrix(-0.7071 -0.7071 0.7071 -0.7071 166.788 254.4643)" style="fill:#FFFFFF;" width="10.362" height="10.362"/>
	
		<rect x="315.218" y="46.143" transform="matrix(-0.7071 -0.7071 0.7071 -0.7071 510.6638 314.1725)" style="fill:#FFFFFF;" width="10.362" height="10.362"/>
	
		<rect x="386.283" y="368.683" transform="matrix(-0.7071 -0.7071 0.7071 -0.7071 403.9097 915.0339)" style="fill:#FFFFFF;" width="10.362" height="10.362"/>
	
		<rect x="444.018" y="285.965" transform="matrix(-0.7071 -0.7071 0.7071 -0.7071 560.9591 814.6494)" style="fill:#FFFFFF;" width="10.362" height="10.362"/>
</g>
<g>
</g>
<g>
</g>
<g>
</g>
<g>
</g>
<g>
</g>
<g>
</g>
<g>
</g>
<g>
</g>
<g>
</g>
<g>
</g>
<g>
</g>
<g>
</g>
<g>
</g>
<g>
</g>
<g>
</g>
</svg>
