<?xml version="1.0" encoding="iso-8859-1"?>
<!-- Generator: Adobe Illustrator 19.0.0, SVG Export Plug-In . SVG Version: 6.00 Build 0)  -->
<svg xmlns="http://www.w3.org/2000/svg" xmlns:xlink="http://www.w3.org/1999/xlink" version="1.1" id="Capa_1" x="0px" y="0px" viewBox="0 0 512 512" style="enable-background:new 0 0 512 512;" xml:space="preserve">
<path style="fill:#27536B;" d="M508.126,259.811C508.126,399.091,395.228,512,255.948,512c-18.496,0-36.521-1.991-53.879-5.764  c-4.922-1.072-9.789-2.286-14.602-3.653c-23.844-6.705-46.255-16.844-66.676-29.838c-4.025-2.538-7.963-5.206-11.824-7.995  c-12.327-8.849-23.822-18.791-34.344-29.674c-9.92-10.249-18.966-21.339-27.038-33.152c-8.542-12.491-15.98-25.791-22.182-39.747  c-2.22-4.988-4.277-10.052-6.169-15.203c-7.558-20.497-12.524-42.252-14.503-64.86c-0.525-5.939-0.831-11.944-0.93-17.992  c-0.033-1.433-0.044-2.866-0.044-4.309c0-139.28,112.909-252.178,252.189-252.178c0.295,0,0.58,0,0.875,0.011  c6.048,0.011,12.031,0.241,17.971,0.689c21.58,1.586,42.405,5.895,62.126,12.578c5.075,1.717,10.063,3.598,14.985,5.622  c10.478,4.309,20.606,9.308,30.319,14.941c6.256,3.62,12.327,7.503,18.222,11.627c10.741,7.525,20.869,15.87,30.297,24.938  c4.681,4.495,9.188,9.177,13.508,14.033c7.427,8.334,14.317,17.161,20.596,26.425c2.603,3.85,5.108,7.766,7.503,11.758  c11.911,19.863,21.175,41.497,27.289,64.423c1.28,4.813,2.428,9.691,3.434,14.613C506.387,225.609,508.126,242.508,508.126,259.811z  "/>
<g>
	<polygon style="fill:#FFFFFF;" points="163.608,105.155 200.053,101.127 163.608,97.097 159.58,60.653 155.55,97.097    119.106,101.127 155.55,105.155 159.58,141.6  "/>
	<polygon style="fill:#FFFFFF;" points="442.919,331.965 479.364,327.937 442.919,323.908 438.891,287.463 434.861,323.908    398.417,327.937 434.861,331.965 438.891,368.411  "/>
	<polygon style="fill:#FFFFFF;" points="208.452,462.815 244.898,458.787 208.452,454.758 204.424,418.313 200.395,454.758    163.951,458.787 200.395,462.815 204.424,499.261  "/>
</g>
<circle style="fill:#F9A52B;" cx="245.014" cy="240.66" r="144.617"/>
<ellipse transform="matrix(-0.7071 -0.7071 0.7071 -0.7071 285.495 674.3804)" style="fill:#EA9628;" cx="282.416" cy="278.062" rx="70.79" ry="95.66"/>
<g>
	<path style="fill:#CCCCCC;" d="M387.309,98.361c-16.746-16.735-48.443-15.422-89.251,3.719c-0.569,0.263-1.094,0.634-1.542,1.083   l-1.695,1.695c4.145,1.509,8.225,3.227,12.239,5.13c33.71-14.952,59.993-16.406,72.516-3.883   c12.513,12.513,11.058,38.796-3.894,72.506c-0.634,1.444-1.302,2.898-1.991,4.364c-16.144,34.454-44.199,72.593-78.991,107.375   c-34.793,34.793-72.921,62.848-107.386,79.002c-1.466,0.689-2.92,1.345-4.353,1.98c-33.71,14.963-59.993,16.417-72.516,3.894   c-12.513-12.513-11.058-38.796,3.894-72.516c-1.914-4.014-3.62-8.105-5.13-12.25l-1.706,1.706   c-0.448,0.448-0.809,0.973-1.083,1.553c-19.13,40.808-20.453,72.505-3.708,89.24c7.788,7.788,18.802,11.67,32.474,11.67   c15.717,0,34.946-5.141,56.766-15.378c1.553-0.722,3.117-1.477,4.681-2.264c34.311-16.931,71.696-44.79,105.8-78.904   c34.114-34.104,61.962-71.477,78.893-105.789c0.788-1.575,1.542-3.128,2.264-4.681C402.742,146.814,404.054,115.117,387.309,98.361   z"/>
	<path style="fill:#CCCCCC;" d="M444.25,92.072c-0.842-15.017-5.622-27.333-14.47-36.182   c-10.992-10.992-27.322-15.685-47.557-14.416c-32.55,2.045-75.218,19.546-122.053,51.199c-0.284,0.197-0.558,0.416-0.798,0.656   l-3.15,3.15c5.031,0.383,10.052,1.039,15.028,1.958c52.522-34.574,99.521-50.652,129.195-45.336   c8.838,1.586,16.144,5.064,21.602,10.522c3.905,3.905,6.792,8.739,8.695,14.416c9.734,28.908-5.994,79.385-43.51,136.392   c-1.072,1.641-2.177,3.292-3.292,4.944c-20.114,29.794-44.615,59.205-72.812,87.403c-28.208,28.208-57.619,52.708-87.413,72.812   c-1.663,1.116-3.314,2.22-4.955,3.303c-68.174,44.877-127.019,58.56-150.786,34.803c-23.757-23.767-10.063-82.634,34.814-150.808   c-0.93-4.977-1.575-9.986-1.958-15.017l-3.15,3.15c-0.252,0.252-0.47,0.525-0.667,0.809   c-40.207,59.49-57.565,112.253-49.427,146.094c8.072,11.813,17.117,22.903,27.038,33.152c7.711,3.325,16.735,4.966,26.863,4.966   c33.239,0,78.434-17.642,128.353-51.385c1.805-1.214,3.609-2.45,5.414-3.697c28.514-19.786,56.613-43.455,83.607-70.449   c26.994-26.983,50.663-55.093,70.438-83.607c1.247-1.794,2.483-3.598,3.697-5.403C428.489,172.988,446.175,125.716,444.25,92.072z"/>
	<path style="fill:#CCCCCC;" d="M97.866,217.22c-0.153,0.153-0.284,0.306-0.416,0.47c-36.575,45.938-63.055,90.356-78.215,129.283   c1.892,5.152,3.948,10.216,6.169,15.203c13.453-39.31,39.966-85.401,75.295-130.912c0.416-6.53,1.28-13.038,2.592-19.469   L97.866,217.22z M468.203,17.466C443.211-7.516,395.37-5.109,336.919,20.911c-35.328,15.717-74.518,40.054-114.889,72.199   c-0.164,0.12-0.317,0.263-0.459,0.405l-5.425,5.425c6.431-1.313,12.928-2.177,19.458-2.581   c39.999-31.041,80.413-55.279,116.3-69.826c6.224-2.538,12.305-4.769,18.222-6.694c41.344-13.453,73.424-11.55,90.345,5.359   c16.91,16.92,18.813,49.011,5.359,90.356c-0.317,0.973-0.645,1.958-0.984,2.942c-13.388,39.474-39.999,85.817-75.535,131.612   c-1.739,2.253-3.5,4.506-5.294,6.749c-17.631,22.127-37.155,43.936-58.013,64.794c-20.869,20.869-42.668,40.382-64.805,58.024   c-2.253,1.794-4.506,3.566-6.759,5.294c-46.922,36.422-94.446,63.471-134.533,76.52c-3.719,1.214-7.372,2.297-10.938,3.259   c3.861,2.789,7.799,5.458,11.824,7.995c42.93-13.399,94.064-42.197,147.22-84.515c2.57-2.045,5.13-4.123,7.689-6.224   c19.808-16.22,39.299-33.885,58.035-52.621c18.725-18.725,36.4-38.205,52.61-58.013c2.1-2.559,4.178-5.13,6.224-7.7   c37.866-47.568,64.915-93.517,79.779-133.417C490.987,80.259,490.494,39.757,468.203,17.466z"/>
	<path style="fill:#CCCCCC;" d="M503.073,209.29c-14.449,21.864-30.516,43.958-47.961,65.888   c-25.222,31.653-53.135,62.826-82.94,92.631c-29.827,29.827-60.988,57.729-92.653,82.951   c-25.791,20.541-51.822,39.157-77.449,55.476c-4.922-1.072-9.789-2.286-14.602-3.653c27.672-17.139,56.296-37.33,85.237-60.376   c31.336-24.96,62.202-52.599,91.734-82.131c29.521-29.521,57.149-60.376,82.12-91.712c19.852-24.938,37.582-49.635,53.08-73.687   C500.918,199.49,502.066,204.368,503.073,209.29z"/>
</g>
<circle style="fill:#F77759;" cx="376.265" cy="96.94" r="21.821"/>
<path style="fill:#E0634B;" d="M382.991,76.178c-8.709-2.823-17.894,0.132-23.439,6.736c2.721-0.195,5.523,0.107,8.279,1.001  c11.464,3.717,17.744,16.023,14.027,27.486c-0.894,2.755-2.293,5.201-4.047,7.291c8.602-0.616,16.385-6.32,19.208-15.028  C400.735,92.202,394.454,79.895,382.991,76.178z"/>
<circle style="fill:#51BEE5;" cx="475.929" cy="106.095" r="32.301"/>
<path style="fill:#3EAECC;" d="M488.066,76.159c-12.559-5.091-26.433-1.701-35.322,7.464c4.039,0.001,8.144,0.744,12.118,2.355  c16.532,6.701,24.501,25.537,17.8,42.069c-1.611,3.974-3.935,7.436-6.747,10.336c12.766,0.002,24.861-7.595,29.952-20.154  C512.568,101.697,504.598,82.862,488.066,76.159z"/>
<circle style="fill:#FCD57E;" cx="304.799" cy="408.859" r="77.843"/>
<path style="fill:#E8C172;" d="M381.585,421.645c5.365-32.217-9.911-63.065-36.141-79.147c2.124,9.5,2.536,19.546,0.839,29.738  c-7.062,42.411-47.167,71.065-89.578,64.003c-10.193-1.698-19.562-5.343-27.861-10.431c6.714,30.027,30.946,54.475,63.163,59.84  C334.418,492.71,374.523,464.055,381.585,421.645z"/>
<circle style="fill:#35BC58;" cx="121.101" cy="429.269" r="25.902"/>
<path style="fill:#28A044;" d="M124.799,454.907c10.756-1.55,18.995-9.506,21.446-19.446c-2.798,1.632-5.941,2.777-9.344,3.267  c-14.159,2.041-27.292-7.783-29.333-21.943c-0.49-3.403-0.28-6.742,0.495-9.887c-8.843,5.158-14.149,15.309-12.599,26.065  C97.508,447.124,110.639,456.948,124.799,454.907z"/>
<g>
	
		<rect x="66.63" y="137.234" transform="matrix(-0.7071 -0.7071 0.7071 -0.7071 21.8091 293.71)" style="fill:#FFFFFF;" width="10.208" height="10.208"/>
	
		<rect x="215.818" y="39.899" transform="matrix(-0.7071 -0.7071 0.7071 -0.7071 345.315 233.041)" style="fill:#FFFFFF;" width="10.208" height="10.208"/>
	
		<rect x="415.987" y="242.234" transform="matrix(-0.7071 -0.7071 0.7071 -0.7071 543.9525 719.9879)" style="fill:#FFFFFF;" width="10.208" height="10.208"/>
	
		<rect x="403.51" y="416.147" transform="matrix(-0.7071 -0.7071 0.7071 -0.7071 399.6782 1008.055)" style="fill:#FFFFFF;" width="10.208" height="10.208"/>
	
		<rect x="75.382" y="368.025" transform="matrix(-0.7071 -0.7071 0.7071 -0.7071 -126.444 693.8823)" style="fill:#FFFFFF;" width="10.208" height="10.208"/>
</g>
<g>
</g>
<g>
</g>
<g>
</g>
<g>
</g>
<g>
</g>
<g>
</g>
<g>
</g>
<g>
</g>
<g>
</g>
<g>
</g>
<g>
</g>
<g>
</g>
<g>
</g>
<g>
</g>
<g>
</g>
</svg>
