<?xml version="1.0" encoding="iso-8859-1"?>
<!-- Generator: Adobe Illustrator 19.0.0, SVG Export Plug-In . SVG Version: 6.00 Build 0)  -->
<svg xmlns="http://www.w3.org/2000/svg" xmlns:xlink="http://www.w3.org/1999/xlink" version="1.1" id="Capa_1" x="0px" y="0px" viewBox="0 0 511.989 511.989" style="enable-background:new 0 0 511.989 511.989;" xml:space="preserve">
<circle style="fill:#27536B;" cx="255.994" cy="255.994" r="255.994"/>
<g>
	<polygon style="fill:#FFFFFF;" points="141.735,129.496 189.935,124.168 141.735,118.839 136.407,70.638 131.078,118.839    82.878,124.168 131.078,129.496 136.407,177.696  "/>
	<polygon style="fill:#FFFFFF;" points="416.484,358.26 453.48,354.171 416.484,350.08 412.394,313.085 408.304,350.08    371.307,354.171 408.304,358.26 412.394,395.257  "/>
	<polygon style="fill:#FFFFFF;" points="164.145,408.224 192.881,405.048 164.145,401.871 160.968,373.135 157.79,401.871    129.055,405.048 157.79,408.224 160.968,436.96  "/>
	
		<rect x="174.082" y="160.289" transform="matrix(-0.7071 -0.7071 0.7071 -0.7071 189.016 409.2328)" style="fill:#FFFFFF;" width="10.362" height="10.362"/>
	
		<rect x="391.359" y="124.309" transform="matrix(-0.7071 -0.7071 0.7071 -0.7071 585.3727 501.4503)" style="fill:#FFFFFF;" width="10.362" height="10.362"/>
	
		<rect x="280.782" y="173.27" transform="matrix(-0.7071 -0.7071 0.7071 -0.7071 361.9863 506.8415)" style="fill:#FFFFFF;" width="10.362" height="10.362"/>
	
		<rect x="433.993" y="219.233" transform="matrix(-0.7071 -0.7071 0.7071 -0.7071 591.0331 693.6425)" style="fill:#FFFFFF;" width="10.362" height="10.362"/>
	
		<rect x="350.725" y="61.695" transform="matrix(-0.7071 -0.7071 0.7071 -0.7071 560.2817 365.8286)" style="fill:#FFFFFF;" width="10.362" height="10.362"/>
	
		<rect x="74.271" y="379.114" transform="matrix(-0.7071 -0.7071 0.7071 -0.7071 -136.1037 712.2148)" style="fill:#FFFFFF;" width="10.362" height="10.362"/>
	
		<rect x="253.459" y="27.718" transform="matrix(-0.7071 -0.7071 0.7071 -0.7071 418.2628 239.0482)" style="fill:#FFFFFF;" width="10.362" height="10.362"/>
	
		<rect x="357.389" y="459.725" transform="matrix(-0.7071 -0.7071 0.7071 -0.7071 290.207 1050.0205)" style="fill:#FFFFFF;" width="10.362" height="10.362"/>
	
		<rect x="242.807" y="458.112" transform="matrix(-0.7071 -0.7071 0.7071 -0.7071 95.7445 966.2449)" style="fill:#FFFFFF;" width="10.362" height="10.362"/>
	
		<rect x="56.946" y="139.299" transform="matrix(-0.7071 -0.7071 0.7071 -0.7071 3.8946 290.5735)" style="fill:#FFFFFF;" width="10.362" height="10.362"/>
</g>
<circle style="fill:#F9B55A;" cx="106.801" cy="272.949" r="33.498"/>
<path style="fill:#EFAA56;" d="M107.544,296.638c-13.081-13.081-13.081-34.289,0-47.368c3.375-3.375,7.293-5.871,11.471-7.506  c-12.015-4.698-26.192-2.201-35.898,7.506c-13.081,13.081-13.081,34.288,0,47.368c9.705,9.705,23.883,12.202,35.898,7.506  C114.838,302.509,110.919,300.013,107.544,296.638z"/>
<path style="fill:#F9A52B;" d="M349.997,244.101l-8.814-4.033c-9.182-4.217-14.463-14.003-12.925-23.986l1.327-8.696l-11.56-0.578  c-9.471-0.486-17.642-6.817-20.453-15.869l-2.746-8.801l-10.679,3.967c-8.407,3.14-17.878,0.985-24.13-5.452l-7.212-7.448  l-7.212,7.448c-6.24,6.437-15.711,8.591-24.117,5.452l-10.692-3.967l-2.732,8.801c-2.825,9.05-10.982,15.382-20.453,15.869  l-11.559,0.578l1.327,8.696c1.523,9.983-3.757,19.769-12.939,23.986l-9.865,4.519l5.005,7.855  c5.609,8.801,4.479,20.295-2.746,27.835l-6.752,7.04l8.46,6.016c8.394,5.99,11.691,16.892,8,26.521l-3.192,8.315l11.034,2.758  c9.498,2.365,16.381,10.575,17.09,20.334l0.631,8.827l11.546-1.681c9.05-1.327,18.009,2.929,22.699,10.784l4.992,8.381l9.248-5.95  c7.448-4.794,17.011-4.794,24.472,0l9.234,5.95l5.005-8.381c4.69-7.855,13.648-12.111,22.699-10.784l11.546,1.681l0.631-8.827  c0.696-9.76,7.592-17.97,17.077-20.334l11.034-2.758l-3.179-8.315c-3.271-8.538-1.05-18.075,5.346-24.288"/>
<circle style="fill:#F77759;" cx="376.097" cy="272.949" r="38.917"/>
<path style="fill:#E0634B;" d="M393.918,272.952c0,17.834-12.001,32.854-28.365,37.454c3.355,0.944,6.891,1.459,10.548,1.459  c21.491,0,38.913-17.422,38.913-38.913s-17.422-38.913-38.913-38.913c-3.657,0-7.193,0.515-10.548,1.459  C381.916,240.098,393.918,255.118,393.918,272.952z"/>
<circle style="fill:#35BC58;" cx="433.845" cy="272.949" r="16.677"/>
<path style="fill:#28A044;" d="M441.478,272.952c0,7.643-5.144,14.082-12.158,16.053c1.438,0.404,2.953,0.625,4.521,0.625  c9.211,0,16.678-7.467,16.678-16.678s-7.467-16.678-16.678-16.678c-1.568,0-3.082,0.221-4.521,0.625  C436.334,258.871,441.478,265.309,441.478,272.952z"/>
<circle style="fill:#51BEE5;" cx="36.484" cy="272.949" r="16.677"/>
<path style="fill:#3EAECC;" d="M28.847,272.952c0,7.643,5.144,14.082,12.158,16.053c-1.438,0.404-2.953,0.625-4.521,0.625  c-9.211,0-16.678-7.467-16.678-16.678s7.467-16.678,16.678-16.678c1.568,0,3.082,0.221,4.521,0.625  C33.991,258.871,28.847,265.309,28.847,272.952z"/>
<circle style="fill:#E0A0EF;" cx="472.706" cy="272.949" r="11.321"/>
<path style="fill:#D192E0;" d="M477.886,272.952c0,5.189-3.491,9.558-8.252,10.896c0.976,0.274,2.004,0.424,3.069,0.424  c6.252,0,11.32-5.069,11.32-11.321c0-6.252-5.069-11.321-11.32-11.321c-1.064,0-2.092,0.15-3.069,0.424  C474.395,263.395,477.886,267.765,477.886,272.952z"/>
<circle style="fill:#F9B55A;" cx="252.808" cy="275.392" r="71.984"/>
<circle style="fill:#F9C280;" cx="252.808" cy="260.602" r="57.192"/>
<path style="fill:#E0634B;" d="M139.241,262.023c-0.167,0.278-0.333,0.544-0.511,0.822c-4.774,7.661-11.259,15.655-18.82,23.217  c-7.572,7.572-15.589,14.068-23.239,18.831c-0.266,0.167-0.544,0.333-0.811,0.5c-8.461,5.174-15.744,7.806-21.407,7.806  c-3.642,0-6.617-1.088-8.805-3.275c-5.574-5.574-3.964-16.311,4.552-30.223l2.309-3.786l0.988,0.6  c0.366,3.542,1.299,7.028,2.809,10.315c-5.518,9.826-5.696,15.5-4.375,16.821c1.255,1.255,6.384,1.166,15.267-3.531  c1.266-0.666,2.62-1.432,4.042-2.298c7.306-4.452,15.045-10.692,22.384-18.032c7.339-7.339,13.568-15.078,18.032-22.384  c0.877-1.421,1.643-2.776,2.309-4.042c4.697-8.883,4.774-14.012,3.52-15.267c-1.321-1.332-6.984-1.155-16.81,4.375  c-3.298-1.51-6.784-2.443-10.326-2.809l-0.6-0.988l3.786-2.321c13.923-8.505,24.649-10.126,30.234-4.541  C149.345,237.386,147.735,248.122,139.241,262.023z"/>
<path style="fill:#B27A38;" d="M346.97,261.574c0,24.993-18.242,45.734-42.148,49.631c-2.654,0.433-5.374,0.655-8.15,0.655  c-27.78,0-50.297-22.517-50.297-50.286c0-27.78,22.517-50.297,50.297-50.297c2.776,0,5.496,0.222,8.15,0.655  C328.728,215.829,346.97,236.569,346.97,261.574z"/>
<path style="fill:#A3682E;" d="M346.97,261.574c0,24.993-18.242,45.734-42.148,49.631c-23.905-3.886-42.159-24.627-42.159-49.631  c0-25.004,18.254-45.756,42.159-49.642C328.728,215.829,346.97,236.569,346.97,261.574z"/>
<g>
</g>
<g>
</g>
<g>
</g>
<g>
</g>
<g>
</g>
<g>
</g>
<g>
</g>
<g>
</g>
<g>
</g>
<g>
</g>
<g>
</g>
<g>
</g>
<g>
</g>
<g>
</g>
<g>
</g>
</svg>
