<?xml version="1.0" encoding="iso-8859-1"?>
<!-- Generator: Adobe Illustrator 19.0.0, SVG Export Plug-In . SVG Version: 6.00 Build 0)  -->
<svg xmlns="http://www.w3.org/2000/svg" xmlns:xlink="http://www.w3.org/1999/xlink" version="1.1" id="Capa_1" x="0px" y="0px" viewBox="0 0 512 512" style="enable-background:new 0 0 512 512;" xml:space="preserve">
<path style="fill:#27536B;" d="M512,255.994c0,67.185-25.881,128.33-68.229,174.009c-21.507,23.206-47.266,42.414-76.046,56.393  c-31.089,15.111-65.708,24.105-102.282,25.426c-3.131,0.122-6.273,0.178-9.438,0.178c-3.164,0-6.307-0.056-9.438-0.178  c-36.574-1.321-71.193-10.315-102.282-25.426c-28.779-13.979-54.539-33.187-76.057-56.393C25.893,384.325,0,323.18,0,255.994  C0,114.618,114.618,0,256.006,0S512,114.618,512,255.994z"/>
<polygon style="fill:#FFFFFF;" points="83.953,176.329 120.95,172.239 83.953,168.15 79.864,131.153 75.774,168.15 38.778,172.239   75.774,176.329 79.864,213.325 "/>
<path style="fill:#CCCCCC;" d="M393.377,211.882H118.623c-14.577,0-26.394,11.817-26.394,26.394v120.42  c0,14.577,11.817,26.394,26.394,26.394h274.754c14.577,0,26.394-11.817,26.394-26.394v-120.42  C419.772,223.699,407.954,211.882,393.377,211.882z"/>
<polygon style="fill:#FFFFFF;" points="439.999,340.623 463.645,338.009 439.999,335.395 437.386,311.75 434.772,335.395   411.127,338.009 434.772,340.623 437.386,364.268 "/>
<path style="fill:#F77759;" d="M443.778,389.028v30.378h-35.43V381.8h35.075C443.656,384.176,443.778,386.585,443.778,389.028z"/>
<path style="fill:#F2F2F2;" d="M164.855,163.379c20.929-27.447,53.972-45.157,91.146-45.157c37.184,0,70.227,17.71,91.157,45.157  c14.701,19.264,23.428,43.325,23.428,69.428c0,2.121-0.056,4.23-0.178,6.329c-1.654,30.478-15.211,57.77-36.119,77.334  c-20.474,19.186-48.01,30.922-78.288,30.922c-30.267,0-57.792-11.736-78.277-30.911c-20.896-19.564-34.464-46.866-36.13-77.345  c-0.111-2.098-0.167-4.208-0.167-6.329C141.428,206.703,150.155,182.643,164.855,163.379z M344.771,237.403  c0-47.699-39.738-68.706-88.77-68.706c-49.02,0-88.77,21.007-88.77,68.706c0,47.71,39.749,86.383,88.77,86.383  C305.033,323.786,344.771,285.114,344.771,237.403z"/>
<path style="fill:#E6E6E6;" d="M295.972,337.398c-30.267,0-57.792-11.736-78.277-30.911c-20.896-19.564-34.464-46.866-36.13-77.345  c-0.111-2.098-0.167-4.208-0.167-6.329c0-26.104,8.727-50.164,23.428-69.428c11.418-14.974,26.448-27.04,43.781-34.923  c-34.141,2.175-64.222,19.303-83.752,44.916c-14.701,19.264-23.428,43.325-23.428,69.428c0,2.121,0.056,4.23,0.167,6.329  c1.665,30.478,15.234,57.781,36.13,77.345c20.485,19.175,48.01,30.911,78.277,30.911c16.91,0,32.963-3.664,47.409-10.238  C300.951,337.311,298.473,337.398,295.972,337.398z"/>
<path style="fill:#CCCCCC;" d="M256.001,328.227c-51.397,0-93.211-40.743-93.211-90.824c0-39.927,26.817-66.159,73.577-71.97  c6.272-0.782,12.879-1.178,19.634-1.178c26.55,0,49.135,5.97,65.314,17.265c18.251,12.741,27.897,32.064,27.897,55.882  c0,35.163-21.132,67.479-53.835,82.332C283.013,325.369,269.763,328.227,256.001,328.227z M256.001,173.138  c-6.39,0-12.627,0.373-18.538,1.109c-57.243,7.114-65.791,42.623-65.791,63.156c0,45.183,37.83,81.941,84.328,81.941  c12.483,0,24.494-2.589,35.698-7.694c29.543-13.417,48.631-42.561,48.631-74.247c0-21.084-8.109-37.435-24.099-48.599  C301.55,178.555,280.722,173.138,256.001,173.138z"/>
<path style="fill:#46B5D3;" d="M344.771,237.403c0,34.653-20.963,64.543-51.23,78.288c-11.403,5.196-24.127,8.094-37.54,8.094  c-49.02,0-88.77-38.672-88.77-86.383c0-41.326,29.834-62.611,69.683-67.563c6.151-0.766,12.535-1.144,19.086-1.144  C305.033,168.697,344.771,189.704,344.771,237.403z"/>
<path style="fill:#51BEE5;" d="M344.771,237.403c0,34.653-20.963,64.543-51.23,78.288c-2.487,0.222-5.019,0.322-7.561,0.322  c-49.02,0-88.77-38.672-88.77-86.383c0-30.045,15.778-49.509,39.705-59.79c6.151-0.766,12.535-1.144,19.086-1.144  C305.033,168.697,344.771,189.704,344.771,237.403z"/>
<path style="fill:#CCCCCC;" d="M367.732,316.48v0.389c-25.015,34.631-65.731,57.17-111.72,57.17  c-45.978,0-86.705-22.517-111.72-57.137v-0.422h33.432c20.485,19.175,48.01,30.911,78.277,30.911  c30.278,0,57.814-11.736,78.288-30.922l0.011,0.011H367.732z"/>
<g>
	<path style="fill:#E6E6E6;" d="M144.288,316.902v169.49c-28.779-13.979-54.539-33.187-76.057-56.393v-40.971   c0-28.802,16.777-53.684,41.093-65.387c9.515-4.597,20.174-7.162,31.444-7.162h3.209   C144.077,316.624,144.177,316.769,144.288,316.902z"/>
	<path style="fill:#E6E6E6;" d="M443.773,419.406v10.592c-21.507,23.206-47.266,42.414-76.046,56.393V316.869   c0.1-0.122,0.2-0.255,0.289-0.389h3.209c11.27,0,21.929,2.565,31.444,7.162c22.262,10.715,38.206,32.466,40.749,58.158h-35.075   v37.606L443.773,419.406L443.773,419.406z"/>
</g>
<g>
	<path style="fill:#F2F2F2;" d="M256.008,374.039v137.957c-40.06,0-77.966-9.205-111.72-25.604v-169.49   C169.303,351.522,210.03,374.039,256.008,374.039z"/>
	<path style="fill:#F2F2F2;" d="M256.008,374.039v137.957c40.06,0,77.966-9.205,111.72-25.604V316.869   C342.712,351.499,301.997,374.039,256.008,374.039z"/>
</g>
<ellipse style="fill:#73D5EF;" cx="314.108" cy="231.812" rx="16.655" ry="27.758"/>
<g>
	<polygon style="fill:#FFFFFF;" points="458.895,210.223 495.89,206.132 458.895,202.043 454.804,165.046 450.715,202.043    413.718,206.132 450.715,210.223 454.804,247.219  "/>
	
		<rect x="443.732" y="282.139" transform="matrix(-0.7071 -0.7071 0.7071 -0.7071 563.1771 807.9152)" style="fill:#FFFFFF;" width="10.362" height="10.362"/>
	
		<rect x="43.95" y="320.557" transform="matrix(-0.7071 -0.7071 0.7071 -0.7071 -146.4601 590.811)" style="fill:#FFFFFF;" width="10.362" height="10.362"/>
	
		<rect x="48.749" y="245.556" transform="matrix(-0.7071 -0.7071 0.7071 -0.7071 -85.2343 466.1699)" style="fill:#FFFFFF;" width="10.362" height="10.362"/>
	
		<rect x="316.336" y="37.129" transform="matrix(-0.7071 -0.7071 0.7071 -0.7071 518.9454 299.5753)" style="fill:#FFFFFF;" width="10.362" height="10.362"/>
	
		<rect x="201.241" y="54.975" transform="matrix(-0.7071 -0.7071 0.7071 -0.7071 309.8482 248.6566)" style="fill:#FFFFFF;" width="10.362" height="10.362"/>
</g>
<g>
	<path style="fill:#CCCCCC;" d="M265.443,365.105v146.717c-3.131,0.122-6.273,0.178-9.438,0.178c-3.164,0-6.307-0.055-9.438-0.178   V365.105H265.443z"/>
	<path style="fill:#CCCCCC;" d="M309.366,403.966H202.647c-8.549,0-15.48,6.931-15.48,15.48v45.652c0,8.549,6.931,15.48,15.48,15.48   h106.719c8.549,0,15.48-6.931,15.48-15.48v-45.652C324.846,410.897,317.916,403.966,309.366,403.966z"/>
</g>
<path style="fill:#B3B3B3;" d="M202.647,466.144c-0.577,0-1.046-0.469-1.046-1.046v-45.652c0-0.577,0.469-1.046,1.046-1.046h106.719  c0.577,0,1.046,0.469,1.046,1.046v45.652c0,0.577-0.47,1.046-1.046,1.046H202.647z"/>
<g>
	<circle style="fill:#F77759;" cx="221.408" cy="443.194" r="12.213"/>
	<circle style="fill:#F77759;" cx="290.614" cy="443.194" r="12.213"/>
	<circle style="fill:#F77759;" cx="256.006" cy="443.194" r="12.213"/>
	<path style="fill:#F77759;" d="M68.231,389.028v30.378h35.43V381.8H68.586C68.353,384.176,68.231,386.585,68.231,389.028z"/>
</g>
<g>
</g>
<g>
</g>
<g>
</g>
<g>
</g>
<g>
</g>
<g>
</g>
<g>
</g>
<g>
</g>
<g>
</g>
<g>
</g>
<g>
</g>
<g>
</g>
<g>
</g>
<g>
</g>
<g>
</g>
</svg>
