<?xml version="1.0" encoding="iso-8859-1"?>
<!-- Generator: Adobe Illustrator 19.0.0, SVG Export Plug-In . SVG Version: 6.00 Build 0)  -->
<svg xmlns="http://www.w3.org/2000/svg" xmlns:xlink="http://www.w3.org/1999/xlink" version="1.1" id="Capa_1" x="0px" y="0px" viewBox="0 0 512 512" style="enable-background:new 0 0 512 512;" xml:space="preserve">
<path style="fill:#27536B;" d="M512,256.006C512,397.382,397.382,512,256.006,512C114.618,512,0,397.382,0,256.006  c0-56.904,18.564-109.477,49.986-151.98C96.597,40.926,171.522,0,256.006,0c84.473,0,159.397,40.926,206.008,104.025  C493.436,146.528,512,199.102,512,256.006z"/>
<polygon style="fill:#FFFFFF;" points="363.296,63.729 411.496,58.4 363.296,53.072 357.968,4.872 352.64,53.072 304.44,58.4   352.64,63.729 357.968,111.929 "/>
<path style="fill:#F9B55A;" d="M512,256.006c0,46.989-12.658,91.013-34.753,128.852c-6.973,11.947-14.889,23.283-23.639,33.887  c-4.475,5.418-9.16,10.648-14.046,15.678c-3.398,3.509-6.906,6.917-10.515,10.226c-9.404,8.638-19.453,16.577-30.078,23.727  c-4.042,2.742-8.183,5.352-12.391,7.85C348.351,498.954,303.694,512,256.006,512c-46.034,0-89.225-12.147-126.554-33.421  c-18.098-10.315-34.82-22.773-49.82-37.029C30.578,394.906,0,329.031,0,256.006c0-56.904,18.564-109.477,49.986-151.98  c64.876-21.052,134.115-32.432,206.019-32.432c71.893,0,141.132,11.381,206.008,32.432C493.436,146.528,512,199.102,512,256.006z"/>
<path style="fill:#EFAA56;" d="M439.563,434.422c-3.398,3.509-6.906,6.917-10.515,10.226c-9.404,8.638-19.453,16.577-30.078,23.727  c-4.042,2.742-8.183,5.352-12.391,7.85C348.351,498.954,303.694,512,256.006,512c-46.034,0-89.225-12.147-126.554-33.421  c-18.098-10.315-34.82-22.773-49.82-37.029c14.445-90.746,40.527-188.798,87.36-227.548c4.519-3.753,9.016-6.229,13.49-7.572  c13.357-34.409,29.956-62.999,50.586-80.076c33.52-27.747,65.642,13.413,93.3,78.988  C369.602,209.65,410.717,325.411,439.563,434.422z"/>
<path style="fill:#D89144;" d="M339.893,407.185l-8.108-102.017c-2.68-33.728-36.603-59.454-75.786-59.454  s-73.11,25.727-75.797,59.454l-8.126,102.017c-3.559,44.672,33.951,83.909,83.901,83.909S343.444,451.858,339.893,407.185z   M314.386,448.713H197.577c-3.295-4.439-6.008-9.264-8.06-14.372H322.45C320.396,439.449,317.682,444.274,314.386,448.713z   M326.024,421.712H185.943c-0.761-4.443-1.038-9.019-0.789-13.677h141.662C327.065,412.693,326.786,417.269,326.024,421.712z   M207.093,273.648h97.809c3.202,3.168,5.978,6.653,8.249,10.398H198.842C201.114,280.3,203.891,276.816,207.093,273.648z   M317.62,293.617c1.177,3.481,1.946,7.109,2.256,10.857H192.114c0.31-3.747,1.08-7.377,2.257-10.857H317.62z M320.567,314.473  l0.761,11.346h-130.67l0.763-11.346H320.567z M322.028,336.274l0.796,11.869H189.157l0.798-11.869H322.028z M323.558,359.085  l0.833,12.43H187.586l0.836-12.43H323.558z M325.16,382.979l0.874,13.032H185.939l0.876-13.032H325.16z M293.012,264.477h-74.027  c10.552-6.293,23.388-9.968,37.015-9.968C269.627,254.509,282.461,258.184,293.012,264.477z M210.661,461.991h90.637  c-12.171,9.394-27.865,15.121-45.32,15.121C238.524,477.113,222.832,471.386,210.661,461.991z"/>
<g>
	<path style="fill:#EFAA56;" d="M434.553,169.491c0-5.871-3.369-11.182-8.806-15.015c1.055,1.856,1.641,3.882,1.641,6.007   c0,8.868-10.118,16.057-22.599,16.057s-22.599-7.189-22.599-16.057c0-2.124,0.586-4.15,1.641-6.007   c-5.437,3.832-8.807,9.143-8.807,15.015c0,11.681,13.326,21.149,29.765,21.149S434.553,181.171,434.553,169.491z"/>
	<path style="fill:#EFAA56;" d="M324.13,109.232c0-3.582-2.055-6.823-5.373-9.16c0.644,1.133,1.002,2.368,1.002,3.665   c0,5.411-6.173,9.797-13.789,9.797s-13.789-4.387-13.789-9.797c0-1.296,0.358-2.533,1.001-3.665   c-3.318,2.338-5.373,5.578-5.373,9.161c0,7.126,8.131,12.903,18.16,12.903C315.999,122.136,324.13,116.358,324.13,109.232z"/>
	<path style="fill:#EFAA56;" d="M161.327,195.916c0-10.182-5.842-19.392-15.271-26.037c1.829,3.219,2.846,6.732,2.846,10.416   c0,15.379-17.546,27.847-39.191,27.847S70.52,195.674,70.52,180.295c0-3.684,1.016-7.198,2.846-10.416   c-9.429,6.645-15.271,15.855-15.271,26.037c0,20.255,23.11,36.676,51.617,36.676S161.327,216.171,161.327,195.916z"/>
	<path style="fill:#EFAA56;" d="M477.247,384.858c-6.973,11.947-14.889,23.283-23.639,33.887   c-7.994-10.026-12.558-21.629-12.558-33.976c0-19.175,11.003-36.518,28.768-49.043c-3.453,6.062-5.363,12.68-5.363,19.619   C464.456,366.293,469.164,376.453,477.247,384.858z"/>
</g>
<g>
	
		<rect x="158.001" y="32.56" transform="matrix(-0.7071 -0.7071 0.7071 -0.7071 251.8823 179.8147)" style="fill:#FFFFFF;" width="10.362" height="10.362"/>
	
		<rect x="271.252" y="11.463" transform="matrix(-0.7071 -0.7071 0.7071 -0.7071 460.1319 223.8809)" style="fill:#FFFFFF;" width="10.362" height="10.362"/>
</g>
<g>
</g>
<g>
</g>
<g>
</g>
<g>
</g>
<g>
</g>
<g>
</g>
<g>
</g>
<g>
</g>
<g>
</g>
<g>
</g>
<g>
</g>
<g>
</g>
<g>
</g>
<g>
</g>
<g>
</g>
</svg>
