<?xml version="1.0" encoding="iso-8859-1"?>
<!-- Generator: Adobe Illustrator 19.0.0, SVG Export Plug-In . SVG Version: 6.00 Build 0)  -->
<svg xmlns="http://www.w3.org/2000/svg" xmlns:xlink="http://www.w3.org/1999/xlink" version="1.1" id="Capa_1" x="0px" y="0px" viewBox="0 0 512 512" style="enable-background:new 0 0 512 512;" xml:space="preserve">
<path style="fill:#27536B;" d="M512,255.994c0,83.474-39.949,157.609-101.772,204.331c-7.794,5.907-15.944,11.37-24.405,16.355  c0,0,0,0-0.011,0.011c-4.808,2.831-9.726,5.518-14.745,8.05c-8.283,4.175-16.821,7.917-25.593,11.181h-0.011  c-4.219,1.577-8.494,3.053-12.813,4.397c-8.416,2.643-17.01,4.852-25.77,6.617c-14.645,2.965-29.745,4.663-45.19,4.996  c-1.888,0.044-3.786,0.067-5.685,0.067c-1.91,0-3.808-0.022-5.696-0.067c-15.433-0.333-30.534-2.032-45.179-4.985  c-22.617-4.563-44.157-12.102-64.187-22.206c-5.019-2.52-9.937-5.207-14.756-8.05c-8.461-4.996-16.61-10.448-24.416-16.366  C39.949,413.604,0,339.468,0,255.994C0,114.607,114.618,0,256.006,0C397.382,0,512,114.607,512,255.994z"/>
<g>
	<polygon style="fill:#FFFFFF;" points="72.803,206.994 121.003,201.666 72.803,196.337 67.475,148.137 62.147,196.337    13.947,201.666 62.147,206.994 67.475,255.194  "/>
	<polygon style="fill:#FFFFFF;" points="441.073,301.466 478.069,297.376 441.073,293.287 436.983,256.29 432.892,293.287    395.896,297.376 432.892,301.466 436.983,338.462  "/>
	<polygon style="fill:#FFFFFF;" points="164.147,364.428 192.882,361.251 164.147,358.075 160.969,329.339 157.793,358.075    129.058,361.251 157.793,364.428 160.969,393.164  "/>
	
		<rect x="137.573" y="74.566" transform="matrix(-0.7071 -0.7071 0.7071 -0.7071 187.307 237.0795)" style="fill:#FFFFFF;" width="10.362" height="10.362"/>
	
		<rect x="270.79" y="359.794" transform="matrix(-0.7071 -0.7071 0.7071 -0.7071 213.0358 818.1921)" style="fill:#FFFFFF;" width="10.362" height="10.362"/>
	
		<rect x="391.359" y="124.309" transform="matrix(-0.7071 -0.7071 0.7071 -0.7071 585.3727 501.4503)" style="fill:#FFFFFF;" width="10.362" height="10.362"/>
	
		<rect x="280.771" y="173.27" transform="matrix(-0.7071 -0.7071 0.7071 -0.7071 361.9673 506.8336)" style="fill:#FFFFFF;" width="10.362" height="10.362"/>
	
		<rect x="433.99" y="219.241" transform="matrix(-0.7071 -0.7071 0.7071 -0.7071 591.022 693.6536)" style="fill:#FFFFFF;" width="10.362" height="10.362"/>
	
		<rect x="350.722" y="61.687" transform="matrix(-0.7071 -0.7071 0.7071 -0.7071 560.2817 365.8129)" style="fill:#FFFFFF;" width="10.362" height="10.362"/>
	
		<rect x="74.273" y="379.114" transform="matrix(-0.7071 -0.7071 0.7071 -0.7071 -136.1005 712.2148)" style="fill:#FFFFFF;" width="10.362" height="10.362"/>
	
		<rect x="253.461" y="27.715" transform="matrix(-0.7071 -0.7071 0.7071 -0.7071 418.2685 239.0458)" style="fill:#FFFFFF;" width="10.362" height="10.362"/>
	
		<rect x="357.396" y="459.706" transform="matrix(-0.7071 -0.7071 0.7071 -0.7071 290.2338 1049.9938)" style="fill:#FFFFFF;" width="10.362" height="10.362"/>
	
		<rect x="72.067" y="118.537" transform="matrix(-0.7071 -0.7071 0.7071 -0.7071 44.3883 265.823)" style="fill:#FFFFFF;" width="10.362" height="10.362"/>
</g>
<path style="fill:#F77759;" d="M314.165,106.847H197.849c13.016-34.634,32.654-66.742,58.163-94.412  C281.522,40.105,301.149,72.213,314.165,106.847z"/>
<path style="fill:#E6E6E6;" d="M332.654,254.837v212.417c-15.588-9.967-137.717-62.764-153.294-52.798V254.837v-46.171  c0-35.078,6.372-69.541,18.489-101.82h116.316c12.117,32.279,18.489,66.742,18.489,101.82V254.837z"/>
<path style="fill:#F77759;" d="M385.821,183.453v18.159h-53.169v-18.159c0-25.213,9.489-49.516,26.579-68.062  C376.322,133.937,385.821,158.24,385.821,183.453z"/>
<path style="fill:#E6E6E6;" d="M385.824,201.611v275.07c0,0,0,0-0.011,0.011c-4.808,2.831-9.726,5.518-14.745,8.05l-4.097-23.661  c-3.586-20.641-14.723-3.786-29.446-10.481c-1.677-0.766-3.298,0.999-4.874,0V201.611H385.824z"/>
<path style="fill:#CCCCCC;" d="M349.916,201.611v268.663l-4.441,25.648h-0.011c-4.219,1.577-8.494,3.053-12.813,4.397V201.611  H349.916z"/>
<path style="fill:#B3B3B3;" d="M371.068,484.742c-8.283,4.175-16.821,7.917-25.593,11.181h-0.011  c-4.219,1.577-8.494,3.053-12.813,4.397c-8.416,2.643-17.01,4.852-25.77,6.617V359.065c0,23.938,10.182,45.434,25.77,55.405  c1.577,0.999,3.198,1.888,4.874,2.654c4.508,2.043,8.672,5.019,12.391,8.771c8.438,8.461,14.567,20.863,17.054,35.186l0.189,1.077  l0.811,4.674L371.068,484.742z"/>
<path style="fill:#F77759;" d="M179.36,183.453v18.159h-53.169v-18.159c0-19.24,5.529-37.945,15.735-53.965  c3.174-4.983,6.793-9.705,10.843-14.098C169.859,133.937,179.36,158.24,179.36,183.453z"/>
<path style="fill:#E6E6E6;" d="M179.36,201.611v212.848c-1.566,1.01-3.198,1.899-4.885,2.665  c-14.723,6.684-25.859,23.317-29.434,43.957l-1.588,9.16l-2.509,14.501c-5.019-2.52-9.937-5.207-14.756-8.05V201.611H179.36z"/>
<path style="fill:#E0634B;" d="M152.782,115.406c-1.422,4.391-2.696,9.102-3.812,14.085c-3.573,16.02-5.518,34.725-5.518,53.965  v18.159h-17.26v-18.158c0-19.24,5.529-37.945,15.735-53.965c3.174-4.983,6.793-9.705,10.843-14.097L152.782,115.406z"/>
<path style="fill:#CCCCCC;" d="M143.453,201.611v268.63l-2.509,14.501c-5.019-2.52-9.937-5.207-14.756-8.05V201.611H143.453z"/>
<g>
	<path style="fill:#E0634B;" d="M359.244,115.406c-1.422,4.391-2.696,9.102-3.812,14.085c-3.573,16.02-5.518,34.725-5.518,53.965   v18.159h-17.26v-18.158c0-19.24,5.529-37.945,15.735-53.965c3.174-4.983,6.793-9.705,10.843-14.097L359.244,115.406z"/>
	<path style="fill:#E0634B;" d="M256.012,12.438c-11.195,27.67-19.82,59.778-25.532,94.412h-32.631   C210.866,72.216,230.504,40.108,256.012,12.438z"/>
</g>
<path style="fill:#CCCCCC;" d="M230.48,106.85c-5.314,32.279-8.112,66.742-8.112,101.819v199.157  c-20.889,1.104-37.831,3.322-43.008,6.633V208.671c0-35.078,6.371-69.541,18.489-101.819h32.631V106.85z"/>
<path style="fill:#999999;" d="M205.131,359.065v147.883c-22.617-4.563-44.157-12.102-64.187-22.206l2.509-14.501l1.588-9.16  c3.575-20.641,14.712-37.273,29.434-43.957c1.688-0.766,3.32-1.654,4.885-2.665C194.938,404.488,205.131,382.992,205.131,359.065z"/>
<path style="fill:#CCCCCC;" d="M306.88,279.611v227.326c-14.645,2.965-29.745,4.663-45.19,4.996  c-1.888,0.044-3.786,0.067-5.685,0.067c-1.91,0-3.808-0.022-5.696-0.067c-15.433-0.333-30.534-2.032-45.179-4.985V279.611  c0-18.442,3.475-36.552,10.071-53.451c6.584-16.877,16.311-32.543,28.813-46.1c6.462-7.006,17.521-7.006,23.983,0  C293.001,207.174,306.88,242.715,306.88,279.611z"/>
<path style="fill:#B3B3B3;" d="M261.69,426.506v85.428c-1.888,0.044-3.786,0.067-5.685,0.067c-1.91,0-3.808-0.022-5.696-0.067  v-85.428c0-3.142,2.554-5.685,5.696-5.685C259.148,420.821,261.69,423.363,261.69,426.506z"/>
<g>
	<path style="fill:#999999;" d="M126.187,402.079v74.613c-8.461-4.996-16.61-10.448-24.416-16.366L126.187,402.079z"/>
	<path style="fill:#999999;" d="M410.228,460.326c-7.794,5.907-15.944,11.37-24.405,16.355c0,0,0,0-0.011,0.011v-74.613l0.011,0.022   L410.228,460.326z"/>
</g>
<path style="fill:#F77759;" d="M293.992,219.464l-0.819,0.375H217.84c6.451-14.473,15.258-27.932,26.169-39.777  c6.462-7.008,17.522-7.008,23.984,0C278.825,191.805,287.575,205.129,293.992,219.464z"/>
<path style="fill:#B3B3B3;" d="M253.274,511.933c0.899,0.044,1.81,0.067,2.731,0.067c-1.91,0-3.808-0.022-5.696-0.067  c-15.433-0.333-30.534-2.032-45.179-4.985V279.611c0-18.442,3.475-36.552,10.071-53.451c6.584-16.877,16.311-32.543,28.813-46.1  c3.231-3.509,7.617-5.252,11.991-5.252c-2.11,0-4.208,1.743-5.763,5.252c-5.996,13.557-10.67,29.223-13.835,46.1  c-3.164,16.899-4.83,35.008-4.83,53.451v227.337C238.607,509.901,245.857,511.6,253.274,511.933z"/>
<path style="fill:#E0634B;" d="M256.006,174.808c-2.11,0-4.208,1.743-5.763,5.252c-5.241,11.847-9.471,25.315-12.569,39.783h-19.83  c6.451-14.479,15.256-27.936,26.17-39.783C247.245,176.551,251.631,174.808,256.006,174.808z"/>
<path style="fill:#666666;" d="M276.879,265.398l-4.023-4.023c-4.506-4.506-10.492-6.987-16.857-6.987  c-6.364,0-12.35,2.482-16.856,6.987l-4.023,4.023l-8.045-8.045l4.024-4.023c6.653-6.654,15.497-10.319,24.9-10.319  c9.403,0,18.247,3.664,24.901,10.319l4.024,4.023L276.879,265.398z"/>
<g>
</g>
<g>
</g>
<g>
</g>
<g>
</g>
<g>
</g>
<g>
</g>
<g>
</g>
<g>
</g>
<g>
</g>
<g>
</g>
<g>
</g>
<g>
</g>
<g>
</g>
<g>
</g>
<g>
</g>
</svg>
