<?xml version="1.0" encoding="iso-8859-1"?>
<!-- Generator: Adobe Illustrator 19.0.0, SVG Export Plug-In . SVG Version: 6.00 Build 0)  -->
<svg xmlns="http://www.w3.org/2000/svg" xmlns:xlink="http://www.w3.org/1999/xlink" version="1.1" id="Capa_1" x="0px" y="0px" viewBox="0 0 512 512" style="enable-background:new 0 0 512 512;" xml:space="preserve">
<path style="fill:#27536B;" d="M512,255.994c0,69.039-27.336,131.695-71.771,177.739c-7.439,7.706-15.356,14.956-23.705,21.684  c-13.279,10.703-27.658,20.119-42.925,28.035c-0.011,0.011-0.022,0.011-0.033,0.022c-8.172,4.219-16.599,8.017-25.249,11.37  c-0.011,0.011-0.011,0-0.011,0C319.671,505.927,288.549,512,256.006,512c-38.65,0-75.291-8.561-108.145-23.905  c-23.272-10.859-44.624-25.115-63.455-42.114l-0.011-0.011c-4.341-3.931-8.538-7.994-12.602-12.202l-0.011-0.011  C27.336,387.711,0,325.045,0,255.994C0,114.607,114.618,0,256.006,0C397.382,0,512,114.607,512,255.994z"/>
<polygon style="fill:#FFFFFF;" points="393.682,72.65 441.882,67.322 393.682,61.993 388.354,13.793 383.026,61.993 334.826,67.322   383.026,72.65 388.354,120.85 "/>
<path style="fill:#51BEE5;" d="M470.297,324.212c0,40.016-10.97,77.467-30.067,109.522C393.685,481.988,328.343,512,256.006,512  s-137.668-30.001-184.224-78.244c-17.798-29.867-28.535-64.432-29.923-101.383c-0.1-2.709-0.155-5.429-0.155-8.161  c0-9.504,0.622-18.864,1.821-28.035c1.71-13.102,4.597-25.826,8.561-38.062c27.869-86.005,108.633-148.194,203.921-148.194  c11.747,0,23.261,0.944,34.486,2.765c25.948,4.197,50.331,13.046,72.27,25.682c57.637,33.176,98.385,92.4,106.168,161.606  C469.841,307.924,470.297,316.018,470.297,324.212z"/>
<path style="fill:#3EAECC;" d="M416.524,455.418C372.622,490.815,316.784,512,256.006,512c-72.326,0-137.657-30.001-184.213-78.233  l-0.011-0.011c-17.798-29.867-28.535-64.432-29.923-101.383c-0.1-2.709-0.155-5.429-0.155-8.161c0-9.504,0.622-18.864,1.821-28.035  c1.71-13.102,4.597-25.826,8.561-38.062c14.734-45.456,44.235-84.262,82.863-110.754c-11.503,16.755-20.674,35.23-27.069,54.961  c-3.964,12.236-6.851,24.96-8.561,38.062c-1.199,9.171-1.821,18.531-1.821,28.035c0,2.731,0.056,5.452,0.155,8.161  c1.732,46.234,18.109,88.736,44.635,122.967c17.132,22.106,38.484,40.771,62.855,54.783c31.411,18.054,67.829,28.38,106.657,28.38  C349.827,482.71,385.557,472.795,416.524,455.418z"/>
<g>
	<path style="fill:#35BC58;" d="M290.492,112.686l-9.36,16.422c0,0-19.753,31.189-47.821,36.385s-30.145,7.273-36.907,14.034   c-6.751,6.751-18.187,7.794-18.187-4.674c0-12.48,8.316-23.916-5.718-18.198c-14.034,5.718-24.427,8.838-14.034,19.231   c10.393,10.393-17.676,4.164-12.469,20.796c5.196,16.633,10.126,18.964,2.598,26.503c-7.539,7.539-11.958-3.642-19.753-3.642   c-7.806,0-1.299,12.735-6.762,18.198c-3.964,3.964-15.056-0.3-23.028,4.841c-2.998,1.932-5.552,5.207-7.117,10.748   c-4.475,15.866-19.464,29.512-35.741,37.684c-4.186,2.099-8.461,3.842-12.669,5.163c1.71-13.102,4.597-25.826,8.561-38.062   c14.734-45.456,44.235-84.262,82.852-110.743c0.011,0,0.011-0.011,0.011-0.011c34.442-23.616,76.134-37.44,121.058-37.44   C267.753,109.921,279.267,110.865,290.492,112.686z"/>
	<path style="fill:#35BC58;" d="M173.609,432.202c1.421,8.672,6.584,22.129-0.333,29.046c-7.928,7.928-17.798,5.851-23.65,17.676   c-1.566,3.175-1.943,6.229-1.765,9.171c-23.272-10.859-44.624-25.115-63.455-42.114l-0.011-0.011   c-5.751-18.72-17.221-18.542-21.052-36.185c-3.853-17.721-7.128-50.586-21.485-77.411c-0.1-2.709-0.155-5.429-0.155-8.161   c0-9.504,0.622-18.864,1.821-28.035c1.71-13.102,4.597-25.826,8.561-38.062c3.964-1.743,6.584-2.698,6.584-2.698l0.522,24.949   c0,0-1.599,4.275-2.998,10.648c-2.754,12.502-4.719,33.099,7.672,45.49c5.196,5.196,12.469-3.12,21.829,1.033   c6.473,2.876,20.541,11.858,30.911,19.442c4.619,3.364,8.505,6.462,10.67,8.627c7.017,7.017,3.386,12.735,13.002,17.676   c9.615,4.941,41.581,14.034,41.581,25.471c0,11.436-8.583,11.947-8.583,20.008C173.276,429.781,173.398,430.936,173.609,432.202z"/>
	<path style="fill:#35BC58;" d="M468.931,299.974c-2.976,3.064-12.602,13.246-15.234,19.375c-3.12,7.273-16.633,3.631-12.991,12.469   c3.642,8.838,5.196,28.591-5.718,39.505c-10.914,10.914-16.111,20.274-16.111,36.907c0,16.633-12.48,35.863-25.737,54.317   c-1.443,2.01-3.031,4.042-4.73,6.051c-4.441,5.296-9.615,10.47-14.812,14.856c-0.011,0.011-0.022,0.011-0.033,0.022   c-8.172,4.219-16.599,8.016-25.249,11.37c-0.011,0.011-0.011,0-0.011,0c-0.433-0.222-0.822-0.511-1.166-0.855   c-2.254-2.254-4.763-7.106-7.15-13.124c-5.296-13.368-9.993-32.488-9.993-41.448c0-13.002,6.751-16.122,6.751-27.547   c0-11.436-10.914-14.556-10.914-25.471s-6.24-16.633-11.958-22.351c-5.718-5.718-25.46,8.838-37.939,8.838   c-12.48,0-28.591-17.154-36.385-29.634c-7.794-12.469-5.463-54.838,10.393-66.53c15.855-11.692,20.274-24.427,20.274-24.427   c-20.274-13.002-4.153-35.863,2.598-42.625c6.762-6.762,26.514-3.642,30.667-7.794c4.164-4.164,0-11.436,0-18.709   c0-7.284,14.034-14.034,24.427-17.676c10.404-3.642,28.069-21.318,28.069-21.318l6.784-5.807   C420.399,171.544,461.147,230.768,468.931,299.974z"/>
</g>
<g>
	<path style="fill:#28A044;" d="M173.276,461.247c-7.928,7.928-17.798,5.851-23.65,17.676c-1.566,3.175-1.943,6.229-1.765,9.171   c-23.272-10.859-44.635-25.115-63.466-42.125c-5.751-18.72-17.221-18.542-21.052-36.185c-3.853-17.721-7.128-50.586-21.485-77.411   c-0.1-2.709-0.155-5.429-0.155-8.161c0-9.504,0.622-18.864,1.821-28.035c1.71-13.102,4.597-25.826,8.561-38.062   c14.734-45.456,44.235-84.262,82.852-110.743c-11.492,16.755-20.663,35.219-27.058,54.95c-3.964,12.236-6.851,24.96-8.561,38.062   c-0.1,0.733-0.189,1.466-0.266,2.198c-2.998,1.932-5.552,5.207-7.117,10.748c-4.475,15.866-19.464,29.512-35.741,37.684   c-2.754,12.502-4.719,33.099,7.672,45.49c5.196,5.196,12.469-3.12,21.829,1.033c6.473,2.876,20.541,11.858,30.911,19.442   c6.917,15.234,15.556,29.501,25.682,42.569c9.271,11.958,19.775,22.906,31.322,32.654   C175.03,440.873,180.193,454.33,173.276,461.247z"/>
	<path style="fill:#28A044;" d="M388.411,468.598c-4.441,5.296-9.615,10.47-14.812,14.856c0,0,0,0-0.011,0.011   c-8.183,4.219-16.61,8.028-25.271,11.381c-0.011,0.011-0.011,0-0.011,0c-0.433-0.222-0.822-0.511-1.166-0.855   c-2.254-2.254-4.763-7.106-7.15-13.124C356.822,478.657,373.044,474.493,388.411,468.598z"/>
</g>
<g>
	<polygon style="fill:#FFFFFF;" points="122.379,89.135 170.579,83.807 122.379,78.478 117.051,30.278 111.722,78.478    63.521,83.807 111.722,89.135 117.051,137.335  "/>
	
		<rect x="284.879" y="68.354" transform="matrix(-0.7071 -0.7071 0.7071 -0.7071 443.1673 330.6363)" style="fill:#FFFFFF;" width="10.362" height="10.362"/>
	
		<rect x="486.212" y="259.17" transform="matrix(-0.7071 -0.7071 0.7071 -0.7071 651.9361 798.7438)" style="fill:#FFFFFF;" width="10.362" height="10.362"/>
	
		<rect x="427.357" y="168.951" transform="matrix(-0.7071 -0.7071 0.7071 -0.7071 615.259 603.1137)" style="fill:#FFFFFF;" width="10.362" height="10.362"/>
	
		<rect x="31.729" y="220.02" transform="matrix(-0.7071 -0.7071 0.7071 -0.7071 -96.2317 410.5417)" style="fill:#FFFFFF;" width="10.362" height="10.362"/>
	
		<rect x="238.794" y="34.242" transform="matrix(-0.7071 -0.7071 0.7071 -0.7071 388.6148 239.8166)" style="fill:#FFFFFF;" width="10.362" height="10.362"/>
</g>
<ellipse transform="matrix(-0.7071 -0.7071 0.7071 -0.7071 505.3062 677.6724)" style="fill:#6FDD89;" cx="393.004" cy="234.184" rx="40.801" ry="24.148"/>
<g>
	<path style="fill:#FFFFFF;" d="M229.298,259.123c-4.633,4.457-9.253,8.986-13.853,13.586   c-51.174,51.174-93.833,104.814-120.114,151.025c-3.531,6.207-7.439,13.524-11.148,21.362c1.987,1.81,3.997,3.597,6.04,5.341   c3.342-7.195,7.306-14.834,11.869-22.861c25.948-45.623,68.151-98.674,118.848-149.371c4.508-4.508,9.034-8.945,13.571-13.313   C231.755,264.331,229.318,262,229.298,259.123z"/>
	<path style="fill:#FFFFFF;" d="M464.065,134.453c-18.276-18.287-58.813-2.376-87.038,12.391c-3.764,1.954-7.317,3.908-10.559,5.751   c-23.73,13.496-49.42,31.319-75.727,52.386c2.8,1.045,4.871,3.809,4.347,6.471c26.156-20.983,51.679-38.711,75.222-52.096   c4.752-2.698,9.36-5.196,13.835-7.461c23.272-11.88,42.57-17.976,56.382-17.976c7.894,0,14.001,1.987,18.043,6.029   c11.647,11.647,6.251,40.449-14.712,79.732c1.521,2.709,2.987,5.452,4.375,8.239C463.721,199.806,483.785,154.172,464.065,134.453z   "/>
</g>
<g>
	<path style="fill:#FCD57E;" d="M200.05,328.433c-0.433,0-0.869-0.132-1.247-0.405c-0.949-0.69-1.16-2.017-0.471-2.967   l58.781-80.975c0.688-0.949,2.017-1.16,2.967-0.471c0.949,0.689,1.16,2.017,0.471,2.967l-58.781,80.975   C201.355,328.128,200.707,328.433,200.05,328.433z"/>
	<path style="fill:#FCD57E;" d="M162.912,291.291c-0.657,0-1.306-0.304-1.721-0.876c-0.69-0.949-0.479-2.278,0.471-2.967   l80.975-58.781c0.95-0.69,2.278-0.477,2.967,0.471c0.69,0.949,0.479,2.278-0.471,2.967l-80.975,58.781   C163.782,291.16,163.344,291.291,162.912,291.291z"/>
</g>
<circle style="fill:#F77759;" cx="260.058" cy="229.158" r="31.65"/>
<path style="fill:#E0634B;" d="M287.031,245.726c-1.27,2.065-2.8,4.019-4.589,5.808c-12.359,12.359-32.4,12.359-44.759,0  c-12.359-12.359-12.359-32.396,0-44.759c1.793-1.789,3.743-3.322,5.813-4.589c-7.504,12.193,9.401,19.805,19.968,30.37  C274.029,243.123,274.836,253.224,287.031,245.726z"/>
<g>
	<path style="fill:#FCD57E;" d="M208.712,364.985c-0.338,0-0.68-0.08-0.997-0.25c-1.035-0.552-1.427-1.839-0.876-2.874   l66.079-124.021c0.552-1.036,1.84-1.428,2.875-0.876s1.427,1.839,0.876,2.873l-66.079,124.021   C210.206,364.577,209.471,364.985,208.712,364.985z"/>
	<path style="fill:#FCD57E;" d="M126.36,282.63c-0.759,0-1.494-0.409-1.876-1.126c-0.552-1.036-0.159-2.322,0.876-2.874   l124.021-66.079c1.035-0.552,2.322-0.16,2.875,0.876c0.552,1.036,0.159,2.322-0.876,2.874L127.358,282.38   C127.039,282.549,126.697,282.63,126.36,282.63z"/>
</g>
<ellipse transform="matrix(-0.7071 -0.7071 0.7071 -0.7071 315.8634 566.4601)" style="fill:#FF9580;" cx="275.249" cy="217.813" rx="10.2" ry="6.037"/>
<g>
</g>
<g>
</g>
<g>
</g>
<g>
</g>
<g>
</g>
<g>
</g>
<g>
</g>
<g>
</g>
<g>
</g>
<g>
</g>
<g>
</g>
<g>
</g>
<g>
</g>
<g>
</g>
<g>
</g>
</svg>
