<?xml version="1.0" encoding="iso-8859-1"?>
<!-- Generator: Adobe Illustrator 19.0.0, SVG Export Plug-In . SVG Version: 6.00 Build 0)  -->
<svg xmlns="http://www.w3.org/2000/svg" xmlns:xlink="http://www.w3.org/1999/xlink" version="1.1" id="Capa_1" x="0px" y="0px" viewBox="0 0 511.989 511.989" style="enable-background:new 0 0 511.989 511.989;" xml:space="preserve">
<circle style="fill:#27536B;" cx="255.994" cy="255.994" r="255.994"/>
<g>
	<polygon style="fill:#FFFFFF;" points="382.504,141.735 387.832,189.935 393.161,141.735 441.361,136.407 393.161,131.078    387.832,82.878 382.504,131.078 334.304,136.407  "/>
	<polygon style="fill:#FFFFFF;" points="168.288,404.23 172.379,441.226 176.468,404.23 213.465,400.14 176.468,396.051    172.379,359.054 168.288,396.051 131.293,400.14  "/>
	<polygon style="fill:#FFFFFF;" points="75.022,230.761 78.198,259.497 81.375,230.761 110.111,227.585 81.375,224.408    78.198,195.672 75.022,224.408 46.286,227.585  "/>
</g>
<path style="fill:#E0634B;" d="M236.728,401.758c36.498,36.498,94.946,37.67,132.854,3.513  c41.29-37.204,41.842-101.927,2.542-141.228L136.829,28.748l30.186,70.433L67.833,0l83.37,155.241L43.397,64.684  C43.396,64.684,179.951,344.98,236.728,401.758z"/>
<path style="fill:#F77759;" d="M305.006,417.825c-22.531-0.001-43.712-8.774-59.641-24.705  c-39.889-39.889-84.23-149.886-126.533-233.448l112.613,126.105l-89.891-167.209l90.023,77.589l-34.42-81.053L363.489,272.68  c16.729,16.729,25.971,39.884,25.356,63.529c-0.605,23.288-10.349,44.592-27.436,59.988c-15.478,13.947-35.508,21.628-56.396,21.628  C305.008,417.825,305.008,417.825,305.006,417.825z"/>
<path style="fill:#EFAA56;" d="M366.879,370.655c-2.976,4.941-6.584,9.593-10.848,13.857c-28.18,28.18-73.869,28.18-102.049,0  c-28.191-28.18-28.191-73.88,0-102.06c4.264-4.264,8.927-7.883,13.868-10.848c27.736-16.688,64.265-13.068,88.181,10.848  C379.948,306.367,383.568,342.919,366.879,370.655z"/>
<path style="fill:#F9B55A;" d="M366.879,370.655c-27.736,16.688-64.276,13.068-88.192-10.848  c-23.927-23.916-27.547-60.468-10.837-88.203c27.736-16.688,64.265-13.068,88.181,10.848  C379.948,306.367,383.568,342.919,366.879,370.655z"/>
<ellipse transform="matrix(-0.7071 -0.7071 0.7071 -0.7071 358.9538 771.1605)" style="fill:#F9C280;" cx="339.189" cy="311.238" rx="20.401" ry="12.073"/>
<g>
	
		<rect x="341.349" y="174.081" transform="matrix(0.7071 -0.7071 0.7071 0.7071 -25.2611 297.5387)" style="fill:#FFFFFF;" width="10.362" height="10.362"/>
	
		<rect x="136.292" y="287.437" transform="matrix(0.7071 -0.7071 0.7071 0.7071 -165.4761 185.7427)" style="fill:#FFFFFF;" width="10.362" height="10.362"/>
	
		<rect x="376.297" y="423.654" transform="matrix(0.7071 -0.7071 0.7071 0.7071 -191.4998 395.3488)" style="fill:#FFFFFF;" width="10.362" height="10.362"/>
	
		<rect x="200.859" y="420.333" transform="matrix(0.7071 -0.7071 0.7071 0.7071 -240.5364 270.3232)" style="fill:#FFFFFF;" width="10.362" height="10.362"/>
	
		<rect x="439.942" y="350.726" transform="matrix(0.7071 -0.7071 0.7071 0.7071 -121.2906 418.9922)" style="fill:#FFFFFF;" width="10.362" height="10.362"/>
	
		<rect x="269.694" y="61.249" transform="matrix(0.7071 -0.7071 0.7071 0.7071 33.5361 213.8234)" style="fill:#FFFFFF;" width="10.362" height="10.362"/>
	
		<rect x="473.923" y="253.472" transform="matrix(0.7071 -0.7071 0.7071 0.7071 -42.5692 414.5355)" style="fill:#FFFFFF;" width="10.362" height="10.362"/>
	
		<rect x="41.915" y="357.382" transform="matrix(0.7071 -0.7071 0.7071 0.7071 -242.577 139.4945)" style="fill:#FFFFFF;" width="10.362" height="10.362"/>
	
		<rect x="362.339" y="56.942" transform="matrix(0.7071 -0.7071 0.7071 0.7071 63.7167 278.0718)" style="fill:#FFFFFF;" width="10.362" height="10.362"/>
</g>
<g>
</g>
<g>
</g>
<g>
</g>
<g>
</g>
<g>
</g>
<g>
</g>
<g>
</g>
<g>
</g>
<g>
</g>
<g>
</g>
<g>
</g>
<g>
</g>
<g>
</g>
<g>
</g>
<g>
</g>
</svg>
