<?xml version="1.0" encoding="iso-8859-1"?>
<!-- Generator: Adobe Illustrator 19.0.0, SVG Export Plug-In . SVG Version: 6.00 Build 0)  -->
<svg xmlns="http://www.w3.org/2000/svg" xmlns:xlink="http://www.w3.org/1999/xlink" version="1.1" id="Capa_1" x="0px" y="0px" viewBox="0 0 511.993 511.993" style="enable-background:new 0 0 511.993 511.993;" xml:space="preserve">
<circle style="fill:#27536B;" cx="255.997" cy="255.994" r="255.994"/>
<polygon style="fill:#FFFFFF;" points="62.738,258.115 110.938,252.787 62.738,247.458 57.41,199.258 52.082,247.458 3.882,252.787   52.082,258.115 57.41,306.315 "/>
<path style="fill:#E28AD6;" d="M470.308,324.206c0,10.182-0.711,20.208-2.099,30.012c-1.299,9.327-3.198,18.453-5.663,27.347  c-5.119,18.498-12.658,35.985-22.262,52.107l-0.056,0.056c-7.439,7.706-15.356,14.956-23.705,21.684  c-0.011,0.011-0.033,0.022-0.044,0.033c-12.258,9.882-25.46,18.664-39.427,26.181c-1.144,0.611-2.298,1.221-3.453,1.821  c-0.011,0.011-0.022,0.011-0.033,0.022c-2.842,1.466-5.729,2.887-8.638,4.252c-5.429,2.554-10.97,4.93-16.61,7.117h-0.011  c-28.635,11.081-59.757,17.154-92.301,17.154c-38.65,0-75.291-8.561-108.145-23.905c-23.272-10.859-44.624-25.115-63.455-42.114  l-0.011-0.011c-4.341-3.931-8.538-7.994-12.602-12.202c0,0,0-0.011-0.011-0.011c-15.822-26.559-26.059-56.826-29.101-89.192  c-0.644-6.695-0.966-13.49-0.966-20.352c0-28.668,5.629-56.015,15.844-80.998c1.41-3.453,2.909-6.873,4.497-10.237  c5.207-11.048,11.325-21.573,18.276-31.489c2.343-3.375,4.797-6.673,7.339-9.893c3.564-4.519,7.306-8.894,11.214-13.102  c10.273-11.074,21.719-21.039,34.106-29.74c0.671-0.484,1.328-0.952,1.957-1.382c0.566-0.4,1.133-0.788,1.699-1.166  c3.531-2.365,7.128-4.63,10.803-6.784c31.833-18.753,68.94-29.501,108.556-29.501c82.563,0,154.234,46.7,189.997,115.118  c6.207,11.847,11.325,24.338,15.245,37.362C467.143,281.958,470.308,302.71,470.308,324.206z"/>
<path style="fill:#D379CB;" d="M416.479,455.445c-12.258,9.882-25.46,18.664-39.427,26.181c-1.144,0.611-2.298,1.221-3.453,1.821  c-0.011,0.011-0.022,0.011-0.033,0.022c-2.842,1.466-5.729,2.887-8.638,4.252c-5.429,2.554-10.97,4.93-16.61,7.117h-0.011  c-28.635,11.081-59.757,17.154-92.301,17.154c-38.65,0-75.291-8.561-108.145-23.905c-23.272-10.859-44.624-25.115-63.455-42.114  l-0.011-0.011c-4.341-3.931-8.538-7.994-12.602-12.202c0,0,0-0.011-0.011-0.011c-15.822-26.559-26.059-56.826-29.101-89.192  c-0.644-6.695-0.966-13.49-0.966-20.352c0-28.668,5.629-56.015,15.844-80.998c1.41-3.453,2.909-6.873,4.497-10.237  c5.207-11.048,11.325-21.573,18.276-31.489c2.343-3.375,4.797-6.673,7.339-9.893c3.564-4.519,7.306-8.894,11.214-13.102  c14.656-14.09,27.369-25.16,36.063-31.122c-11.503,16.755-20.674,35.23-27.069,54.961c-3.964,12.236-6.851,24.96-8.561,38.062  c-1.199,9.171-1.821,18.531-1.821,28.035c0,2.731,0.056,5.452,0.155,8.161c1.732,46.234,18.109,88.736,44.635,122.967  c17.132,22.106,38.484,40.771,62.855,54.783c31.411,18.054,67.829,28.38,106.657,28.38  C349.805,482.714,385.524,472.81,416.479,455.445z"/>
<g>
	<path style="fill:#E0A0EF;" d="M446.003,225.032c-6.562,0.744-12.913,1.832-18.986,3.52   c-39.194,10.87-73.314,43.147-110.521,45.823c-41.037,2.953-79.921-24.86-116.306-28.657c-35.741-3.731-72.004,8.172-102.127,7.25   c-6.107-0.178-11.958-0.899-17.51-2.376c-9.116-2.42-16.655-4.885-22.995-7.384c1.41-3.453,2.909-6.873,4.497-10.237   c5.207-11.048,11.325-21.573,18.276-31.489c2.343-3.375,4.797-6.673,7.339-9.893c3.564-4.519,7.306-8.894,11.214-13.102   c10.273-11.074,21.719-21.039,34.106-29.74c0.671-0.484,1.328-0.952,1.957-1.382c0.566-0.4,1.133-0.788,1.699-1.166   c3.531-2.365,7.128-4.63,10.803-6.784c31.833-18.753,68.94-29.501,108.556-29.501C338.569,109.915,410.24,156.615,446.003,225.032z   "/>
	<path style="fill:#E0A0EF;" d="M468.209,354.217c-1.299,9.327-3.198,18.453-5.663,27.347   c-5.119,18.498-12.658,35.985-22.262,52.107l-0.056,0.056c-7.439,7.706-15.356,14.956-23.705,21.684   c-0.011,0.011-0.033,0.022-0.044,0.033c-12.258,9.882-25.46,18.664-39.427,26.181c-1.144,0.611-2.298,1.221-3.453,1.821   c-0.011,0.011-0.022,0.011-0.033,0.022c-2.842,1.466-5.729,2.887-8.638,4.252c-5.429,2.554-10.97,4.93-16.61,7.117h-0.011   c-28.635,11.081-59.757,17.154-92.301,17.154c-38.65,0-75.291-8.561-108.145-23.905c-23.272-10.859-44.624-25.115-63.455-42.114   l-0.011-0.011c-4.341-3.931-8.538-7.994-12.602-12.202c0,0,0-0.011-0.011-0.011c-15.822-26.559-26.059-56.826-29.101-89.192   c18.231-3.287,42.436-3.864,70.583,4.652c6.84,2.065,13.923,4.674,21.207,7.917c74.946,33.309,79.943,68.284,179.86,59.957   C396.805,410.211,416.879,360.224,468.209,354.217z"/>
</g>
<g>
	<path style="fill:#D194E0;" d="M80.553,250.592c-9.116-2.42-16.655-4.885-22.995-7.384c1.41-3.453,2.909-6.873,4.497-10.237   c5.207-11.048,11.325-21.573,18.276-31.489c2.343-3.375,4.797-6.673,7.339-9.893c3.564-4.519,7.306-8.894,11.214-13.102   c14.656-14.09,27.369-25.16,36.063-31.122c-11.503,16.755-20.674,35.23-27.069,54.961c-3.964,12.236-6.851,24.96-8.561,38.062   c-0.544,4.153-0.966,8.35-1.255,12.58C91.956,252.79,86.105,252.068,80.553,250.592z"/>
	<path style="fill:#D194E0;" d="M416.479,455.445c-12.258,9.882-25.46,18.664-39.427,26.181c-1.144,0.611-2.298,1.221-3.453,1.821   c-0.011,0.011-0.022,0.011-0.033,0.022c-2.842,1.466-5.729,2.887-8.638,4.252c-5.429,2.554-10.97,4.93-16.61,7.117h-0.011   c-28.635,11.081-59.757,17.154-92.301,17.154c-38.65,0-75.291-8.561-108.145-23.905c-23.272-10.859-44.624-25.115-63.455-42.114   l-0.011-0.011c-4.341-3.931-8.538-7.994-12.602-12.202c0,0,0-0.011-0.011-0.011c-15.822-26.559-26.059-56.826-29.101-89.192   c18.231-3.287,42.436-3.864,70.583,4.652c7.384,18.165,17.199,35.064,29.024,50.342c17.132,22.106,38.484,40.771,62.855,54.783   c31.411,18.054,67.829,28.38,106.657,28.38C349.805,482.714,385.524,472.81,416.479,455.445z"/>
</g>
<ellipse transform="matrix(-0.7071 -0.7071 0.7071 -0.7071 480.741 584.6226)" style="fill:#EFC5F9;" cx="361.45" cy="192.747" rx="40.801" ry="24.148"/>
<g>
	<polygon style="fill:#FFFFFF;" points="383.621,88.599 431.821,83.27 383.621,77.942 378.292,29.742 372.964,77.942 324.763,83.27    372.964,88.599 378.292,136.799  "/>
	
		<rect x="167.925" y="77.346" transform="matrix(-0.7071 -0.7071 0.7071 -0.7071 237.1553 263.2875)" style="fill:#FFFFFF;" width="10.362" height="10.362"/>
	
		<rect x="267.856" y="34.594" transform="matrix(-0.7071 -0.7071 0.7071 -0.7071 437.9785 260.9672)" style="fill:#FFFFFF;" width="10.362" height="10.362"/>
	
		<rect x="415.968" y="119.387" transform="matrix(-0.7071 -0.7071 0.7071 -0.7071 630.8631 510.4486)" style="fill:#FFFFFF;" width="10.362" height="10.362"/>
	
		<rect x="485.604" y="299.921" transform="matrix(-0.7071 -0.7071 0.7071 -0.7071 622.0835 867.8794)" style="fill:#FFFFFF;" width="10.362" height="10.362"/>
	
		<rect x="38.686" y="179.349" transform="matrix(-0.7071 -0.7071 0.7071 -0.7071 -55.5963 346.0311)" style="fill:#FFFFFF;" width="10.362" height="10.362"/>
	
		<rect x="98.417" y="77.341" transform="matrix(-0.7071 -0.7071 0.7071 -0.7071 118.5003 214.1291)" style="fill:#FFFFFF;" width="10.362" height="10.362"/>
</g>
<g>
</g>
<g>
</g>
<g>
</g>
<g>
</g>
<g>
</g>
<g>
</g>
<g>
</g>
<g>
</g>
<g>
</g>
<g>
</g>
<g>
</g>
<g>
</g>
<g>
</g>
<g>
</g>
<g>
</g>
</svg>
