<svg fill="none" height="102" viewBox="0 0 363 102" width="363" xmlns="http://www.w3.org/2000/svg"><path clip-rule="evenodd" d="m55.07 14.216 16.81 54.865a72.6 72.6 0 0 0 -20.765-6.984l-11.307-37.962a1.475 1.475 0 0 0 -2.827.005l-11.171 37.938a72.598 72.598 0 0 0 -20.859 6.995l16.896-54.873c.998-3.243 1.497-4.865 2.47-6.066a8 8 0 0 1 3.239-2.392c1.434-.576 3.13-.576 6.524-.576h8.751c3.398 0 5.097 0 6.532.577a8 8 0 0 1 3.241 2.397c.972 1.203 1.47 2.827 2.465 6.076z" fill="#fff" fill-rule="evenodd"/><path clip-rule="evenodd" d="m54.618 71.779c-2.863 2.432-8.578 4.091-15.161 4.091-8.08 0-14.852-2.499-16.649-5.86-.642 1.926-.786 4.13-.786 5.539 0 0-.423 6.915 4.418 11.725 0-2.498 2.037-4.522 4.551-4.522 4.309 0 4.304 3.734 4.3 6.764v.27c0 4.6 2.829 8.541 6.852 10.203a9.22 9.22 0 0 1 -.938-4.064c0-4.386 2.592-6.02 5.604-7.917 2.396-1.51 5.06-3.188 6.894-6.554a12.297 12.297 0 0 0 1.502-5.905c0-1.314-.206-2.581-.587-3.77z" fill="#ff5d01" fill-rule="evenodd"/><path d="m126.554 69c13.115 0 21.047-3.14 25.68-9.654 0 2.904.157 5.651.55 8.163h7.774c-.706-4.082-.863-6.75-.863-14.128v-10.047c0-10.831-8.403-16.56-24.424-16.56-15.47 0-25.522 5.964-26.779 14.598h8.246c1.256-5.808 7.774-8.87 18.533-8.87 10.602 0 16.885 3.69 16.885 9.969v.785l-24.502 1.413c-9.974.549-13.665 1.962-16.492 4.003-2.67 1.962-4.162 5.023-4.162 8.555 0 7.456 7.696 11.773 19.554 11.773zm2.513-5.573c-9.109 0-14.135-2.119-14.135-6.357 0-4.553 3.141-6.593 14.214-7.3l23.01-1.412v1.805c0 8.241-9.66 13.264-23.089 13.264zm67.019 5.573c16.256 0 22.775-5.337 22.775-13.108 0-6.436-4.006-9.732-14.215-10.596l-19.083-1.49c-5.183-.393-8.088-1.884-8.088-5.102 0-4.082 4.476-6.201 14.135-6.201 10.995 0 16.727 2.198 20.497 7.064l6.361-3.061c-3.927-6.122-12.644-9.733-26.151-9.733-13.9 0-22.224 4.631-22.224 12.244 0 6.829 4.947 10.125 14.292 10.91l18.926 1.492c6.204.47 8.089 1.726 8.089 4.944 0 4.631-4.79 6.829-14.293 6.829-11.544 0-18.847-3.14-22.381-8.87l-6.204 3.376c4.79 7.22 13.193 11.302 27.564 11.302zm38.843-34.849v18.916c0 7.77 2.67 15.54 17.198 15.54 3.691 0 8.167-.706 10.131-1.57v-6.357c-2.749.628-6.047 1.1-9.267 1.1-6.832 0-10.523-2.67-10.523-9.42v-18.209h19.633v-5.887h-19.633v-13.264l-7.539 3.061v10.204h-12.33v5.886zm45.894-5.886h-6.911v39.244h7.461v-14.679c0-5.65 1.099-10.439 4.24-13.735 2.749-3.061 6.283-4.788 12.487-4.788 2.12 0 3.455.157 5.262.471v-7.22c-1.65-.393-3.063-.472-5.184-.472-8.402 0-15.078 4.945-17.355 12.558v-11.38zm53.984 40.735c16.727 0 28.193-8.477 28.193-21.113 0-12.637-11.466-21.114-28.193-21.114s-28.193 8.477-28.193 21.114c0 12.636 11.466 21.113 28.193 21.113zm0-6.2c-12.329 0-20.261-5.809-20.261-14.913 0-9.105 7.932-14.913 20.261-14.913 12.251 0 20.261 5.808 20.261 14.913 0 9.104-8.01 14.912-20.261 14.912z" fill="#fff"/></svg>