<svg id="Capa_1" enable-background="new 0 0 512 512" height="512" viewBox="0 0 512 512" width="512" xmlns="http://www.w3.org/2000/svg"><g><g><g><path d="m497 .204h-482c-8.284 0-15 6.716-15 15v91.306c0 8.284 6.716 15 15 15h482c8.284 0 15-6.716 15-15v-91.306c0-8.284-6.716-15-15-15z" fill="#22cac8"/><path d="m497 .204h-241v121.306h241c8.284 0 15-6.716 15-15v-91.306c0-8.284-6.716-15-15-15z" fill="#1daeb3"/><path d="m0 106.51v390.285c0 8.284 6.716 15 15 15h482c8.284 0 15-6.716 15-15v-390.285z" fill="#edf5ff"/><path d="m256 511.796h241c8.284 0 15-6.716 15-15v-390.286h-256z" fill="#d7e9ff"/><g><path d="m168.116 391.181c-3.839 0-7.678-1.464-10.606-4.394l-67.616-67.616c-2.829-2.829-4.411-6.671-4.394-10.672s1.633-7.829 4.487-10.633l67.616-66.44c5.909-5.807 15.407-5.722 21.212.186 5.807 5.909 5.723 15.406-.187 21.212l-56.822 55.834 56.916 56.917c5.858 5.858 5.858 15.355 0 21.213-2.928 2.928-6.767 4.393-10.606 4.393z" fill="#6ae1db"/><path d="m353.885 391.181c-3.884 0-7.764-1.498-10.7-4.487-5.807-5.909-5.723-15.406.187-21.212l56.822-55.834-56.916-56.917c-5.858-5.858-5.858-15.355 0-21.213 5.857-5.858 15.355-5.858 21.213 0l67.616 67.616c2.829 2.829 4.411 6.671 4.394 10.672s-1.633 7.829-4.487 10.633l-67.616 66.44c-2.921 2.871-6.719 4.302-10.513 4.302z" fill="#22cac8"/><path d="m232.23 391.185c-1.664 0-3.355-.279-5.014-.867-7.808-2.769-11.893-11.343-9.124-19.15l47.539-134.057c2.77-7.808 11.342-11.891 19.151-9.124 7.808 2.769 11.893 11.343 9.124 19.15l-47.539 134.056c-2.18 6.151-7.964 9.992-14.137 9.992z" fill="#6ae1db"/><path d="m284.783 227.987c-7.81-2.767-16.382 1.316-19.151 9.124l-9.632 27.161v89.761l37.907-106.895c2.769-7.808-1.316-16.382-9.124-19.151z" fill="#22cac8"/></g></g></g><path d="m445.232 68.357c7.846 0 15.363-6.899 15-15-.364-8.127-6.591-15-15-15-7.846 0-15.363 6.899-15 15 .364 8.127 6.591 15 15 15z" fill="#fb3"/><path d="m388.768 68.357c7.846 0 15.363-6.899 15-15-.364-8.127-6.591-15-15-15-7.846 0-15.363 6.899-15 15 .364 8.127 6.591 15 15 15z" fill="#c12058"/></g></svg>