<svg xmlns="http://www.w3.org/2000/svg" height="599pt" version="1.1" viewBox="-72 0 599 599.318" width="599pt">
<g id="surface1">
<path d="M 62.085938 0 L 454.535156 0 L 454.535156 537.035156 L 62.085938 537.035156 Z M 62.085938 0 " style=" stroke:none;fill-rule:nonzero;fill:rgb(36.862745%,70.196078%,81.960784%);fill-opacity:1;" />
<path d="M 320.277344 72.292969 L 299.621094 72.292969 L 299.621094 537.035156 L 413.222656 537.035156 L 413.222656 165.242188 Z M 320.277344 72.292969 " style=" stroke:none;fill-rule:nonzero;fill:rgb(30.980392%,63.137255%,71.764706%);fill-opacity:1;" />
<path d="M 392.570312 599 L 0.121094 599 L 0.121094 61.964844 L 289.292969 61.964844 L 392.570312 165.242188 Z M 392.570312 599 " style=" stroke:none;fill-rule:nonzero;fill:rgb(52.941176%,80.784314%,85.098039%);fill-opacity:1;" />
<path d="M 392.570312 165.242188 L 289.292969 165.242188 L 289.292969 61.964844 Z M 392.570312 165.242188 " style=" stroke:none;fill-rule:nonzero;fill:rgb(72.54902%,90.196078%,92.941176%);fill-opacity:1;" />
<path d="M 72.414062 196.222656 L 320.277344 196.222656 L 320.277344 216.878906 L 72.414062 216.878906 Z M 72.414062 196.222656 " style=" stroke:none;fill-rule:nonzero;fill:rgb(36.862745%,70.196078%,81.960784%);fill-opacity:1;" />
<path d="M 72.414062 134.257812 L 155.035156 134.257812 L 155.035156 154.914062 L 72.414062 154.914062 Z M 72.414062 134.257812 " style=" stroke:none;fill-rule:nonzero;fill:rgb(36.862745%,70.196078%,81.960784%);fill-opacity:1;" />
<path d="M 72.414062 258.191406 L 237.65625 258.191406 L 237.65625 278.84375 L 72.414062 278.84375 Z M 72.414062 258.191406 " style=" stroke:none;fill-rule:nonzero;fill:rgb(36.862745%,70.196078%,81.960784%);fill-opacity:1;" />
<path d="M 258.3125 258.191406 L 320.277344 258.191406 L 320.277344 278.84375 L 258.3125 278.84375 Z M 258.3125 258.191406 " style=" stroke:none;fill-rule:nonzero;fill:rgb(36.862745%,70.196078%,81.960784%);fill-opacity:1;" />
<path d="M 72.414062 320.15625 L 320.277344 320.15625 L 320.277344 340.808594 L 72.414062 340.808594 Z M 72.414062 320.15625 " style=" stroke:none;fill-rule:nonzero;fill:rgb(36.862745%,70.196078%,81.960784%);fill-opacity:1;" />
<path d="M 72.414062 444.085938 L 320.277344 444.085938 L 320.277344 464.742188 L 72.414062 464.742188 Z M 72.414062 444.085938 " style=" stroke:none;fill-rule:nonzero;fill:rgb(36.862745%,70.196078%,81.960784%);fill-opacity:1;" />
<path d="M 165.363281 382.121094 L 320.277344 382.121094 L 320.277344 402.773438 L 165.363281 402.773438 Z M 165.363281 382.121094 " style=" stroke:none;fill-rule:nonzero;fill:rgb(36.862745%,70.196078%,81.960784%);fill-opacity:1;" />
<path d="M 72.414062 382.121094 L 144.707031 382.121094 L 144.707031 402.773438 L 72.414062 402.773438 Z M 72.414062 382.121094 " style=" stroke:none;fill-rule:nonzero;fill:rgb(36.862745%,70.196078%,81.960784%);fill-opacity:1;" />
<path d="M 72.414062 506.050781 L 113.722656 506.050781 L 113.722656 526.707031 L 72.414062 526.707031 Z M 72.414062 506.050781 " style=" stroke:none;fill-rule:nonzero;fill:rgb(36.862745%,70.196078%,81.960784%);fill-opacity:1;" />
<path d="M 134.378906 506.050781 L 320.277344 506.050781 L 320.277344 526.707031 L 134.378906 526.707031 Z M 134.378906 506.050781 " style=" stroke:none;fill-rule:nonzero;fill:rgb(36.862745%,70.196078%,81.960784%);fill-opacity:1;" />
</g>
</svg>