<?xml version="1.0" encoding="iso-8859-1"?>
<!-- Generator: Adobe Illustrator 19.0.0, SVG Export Plug-In . SVG Version: 6.00 Build 0)  -->
<svg version="1.1" id="Capa_1" xmlns="http://www.w3.org/2000/svg" xmlns:xlink="http://www.w3.org/1999/xlink" x="0px" y="0px"
	 viewBox="0 0 511.989 511.989" style="enable-background:new 0 0 511.989 511.989;" xml:space="preserve">
<circle style="fill:#27536B;" cx="255.994" cy="255.994" r="255.994"/>
<g>
	<polygon style="fill:#FFFFFF;" points="141.735,129.496 189.935,124.168 141.735,118.839 136.407,70.638 131.078,118.839 
		82.878,124.168 131.078,129.496 136.407,177.696 	"/>
	<polygon style="fill:#FFFFFF;" points="367.206,280.689 404.202,276.599 367.206,272.509 363.115,235.512 359.026,272.509 
		322.029,276.599 359.026,280.689 363.115,317.685 	"/>
	<polygon style="fill:#FFFFFF;" points="164.145,364.432 192.881,361.256 164.145,358.079 160.968,329.343 157.79,358.079 
		129.055,361.256 157.79,364.432 160.968,393.168 	"/>
	
		<rect x="174.082" y="160.289" transform="matrix(-0.7071 -0.7071 0.7071 -0.7071 189.016 409.2328)" style="fill:#FFFFFF;" width="10.362" height="10.362"/>
	
		<rect x="270.79" y="359.794" transform="matrix(-0.7071 -0.7071 0.7071 -0.7071 213.0358 818.1921)" style="fill:#FFFFFF;" width="10.362" height="10.362"/>
	
		<rect x="391.359" y="124.309" transform="matrix(-0.7071 -0.7071 0.7071 -0.7071 585.3727 501.4503)" style="fill:#FFFFFF;" width="10.362" height="10.362"/>
	
		<rect x="280.782" y="173.27" transform="matrix(-0.7071 -0.7071 0.7071 -0.7071 361.9863 506.8415)" style="fill:#FFFFFF;" width="10.362" height="10.362"/>
	
		<rect x="433.993" y="219.233" transform="matrix(-0.7071 -0.7071 0.7071 -0.7071 591.0331 693.6425)" style="fill:#FFFFFF;" width="10.362" height="10.362"/>
	
		<rect x="350.725" y="61.695" transform="matrix(-0.7071 -0.7071 0.7071 -0.7071 560.2817 365.8286)" style="fill:#FFFFFF;" width="10.362" height="10.362"/>
	
		<rect x="74.271" y="379.114" transform="matrix(-0.7071 -0.7071 0.7071 -0.7071 -136.1037 712.2148)" style="fill:#FFFFFF;" width="10.362" height="10.362"/>
	
		<rect x="253.459" y="27.718" transform="matrix(-0.7071 -0.7071 0.7071 -0.7071 418.2628 239.0482)" style="fill:#FFFFFF;" width="10.362" height="10.362"/>
	
		<rect x="357.389" y="459.725" transform="matrix(-0.7071 -0.7071 0.7071 -0.7071 290.207 1050.0205)" style="fill:#FFFFFF;" width="10.362" height="10.362"/>
	
		<rect x="56.946" y="139.299" transform="matrix(-0.7071 -0.7071 0.7071 -0.7071 3.8946 290.5735)" style="fill:#FFFFFF;" width="10.362" height="10.362"/>
</g>
<g>
</g>
<g>
</g>
<g>
</g>
<g>
</g>
<g>
</g>
<g>
</g>
<g>
</g>
<g>
</g>
<g>
</g>
<g>
</g>
<g>
</g>
<g>
</g>
<g>
</g>
<g>
</g>
<g>
</g>
</svg>
