<svg height="424pt" viewBox="0 -25 424 424" width="424pt" xmlns="http://www.w3.org/2000/svg"><path fill="red" d="m167.289062 272.132812c-1.601562 0-3.214843-.550781-4.53125-1.671874l-45.296874-38.570313c-1.5625-1.332031-2.460938-3.277344-2.460938-5.332031 0-2.050782.902344-3.996094 2.460938-5.328125l45.296874-38.570313c2.941407-2.507812 7.359376-2.152344 9.867188.789063 2.503906 2.945312 2.152344 7.363281-.792969 9.867187l-39.035156 33.242188 39.035156 33.242187c2.945313 2.507813 3.296875 6.925781.792969 9.867188-1.386719 1.628906-3.355469 2.464843-5.335938 2.464843zm0 0"/><path d="m256.710938 272.132812c-1.980469 0-3.949219-.835937-5.332032-2.464843-2.507812-2.941407-2.152344-7.359375.789063-9.867188l39.035156-33.242187-39.035156-33.242188c-2.941407-2.503906-3.296875-6.921875-.789063-9.867187 2.503906-2.941407 6.925782-3.296875 9.863282-.789063l45.296874 38.570313c1.5625 1.332031 2.460938 3.277343 2.460938 5.328125 0 2.054687-.898438 4-2.460938 5.332031l-45.296874 38.570313c-1.316407 1.121093-2.929688 1.671874-4.53125 1.671874zm0 0"/><path d="m195.964844 301.0625c-.480469 0-.964844-.050781-1.453125-.152344-3.78125-.796875-6.203125-4.511718-5.40625-8.292968l28.230469-134.035157c.796874-3.78125 4.507812-6.203125 8.292968-5.40625 3.78125.796875 6.203125 4.507813 5.40625 8.292969l-28.230468 134.035156c-.695313 3.296875-3.601563 5.558594-6.839844 5.558594zm0 0"/><path d="m377 374.085938h-330c-25.914062 0-47-21.082032-47-47v-280.085938c0-25.914062 21.085938-47 47-47h330c25.914062 0 47 21.085938 47 47v280.085938c0 25.917968-21.085938 47-47 47zm-330-360.085938c-18.195312 0-33 14.804688-33 33v280.085938c0 18.195312 14.804688 33 33 33h330c18.195312 0 33-14.804688 33-33v-280.085938c0-18.195312-14.804688-33-33-33zm0 0"/><path d="m417 112.089844h-410c-3.867188 0-7-3.132813-7-7 0-3.863282 3.132812-7 7-7h410c3.867188 0 7 3.136718 7 7 0 3.867187-3.132812 7-7 7zm0 0"/><path d="m119.601562 78.59375c-12.210937 0-22.152343-9.941406-22.152343-22.152344 0-12.214844 9.941406-22.152344 22.152343-22.152344 12.214844 0 22.152344 9.9375 22.152344 22.152344 0 12.210938-9.9375 22.152344-22.152344 22.152344zm0-30.304688c-4.492187 0-8.152343 3.65625-8.152343 8.152344s3.660156 8.152344 8.152343 8.152344c4.496094 0 8.152344-3.65625 8.152344-8.152344s-3.65625-8.152344-8.152344-8.152344zm0 0"/><path d="m51.539062 78.378906c-12.214843 0-22.152343-9.9375-22.152343-22.152344 0-12.214843 9.9375-22.152343 22.152343-22.152343 12.214844 0 22.152344 9.9375 22.152344 22.152343 0 12.214844-9.9375 22.152344-22.152344 22.152344zm0-30.304687c-4.492187 0-8.152343 3.660156-8.152343 8.152343 0 4.496094 3.660156 8.152344 8.152343 8.152344 4.496094 0 8.152344-3.65625 8.152344-8.152344 0-4.492187-3.65625-8.152343-8.152344-8.152343zm0 0"/><path d="m187.664062 78.804688c-12.210937 0-22.148437-9.9375-22.148437-22.152344 0-12.210938 9.9375-22.148438 22.148437-22.148438 12.214844 0 22.152344 9.9375 22.152344 22.148438 0 12.214844-9.9375 22.152344-22.152344 22.152344zm0-30.304688c-4.492187 0-8.148437 3.65625-8.148437 8.152344s3.65625 8.152344 8.148437 8.152344c4.496094 0 8.152344-3.65625 8.152344-8.152344s-3.65625-8.152344-8.152344-8.152344zm0 0"/></svg>