<svg width="2712" height="894" viewBox="0 0 2712 894" fill="none" xmlns="http://www.w3.org/2000/svg">
<path fill-rule="evenodd" clip-rule="evenodd" d="M445.433 22.9832C452.722 32.0324 456.439 44.2432 463.873 68.6647L626.281 602.176C566.234 571.026 500.957 548.56 432.115 536.439L326.371 179.099C324.641 173.252 319.27 169.241 313.173 169.241C307.06 169.241 301.68 173.273 299.963 179.14L195.5 536.259C126.338 548.325 60.7632 570.832 0.459473 602.095L163.664 68.5412C171.121 44.1617 174.85 31.9718 182.14 22.9393C188.575 14.9651 196.946 8.77213 206.454 4.95048C217.224 0.621582 229.971 0.621582 255.466 0.621582H372.034C397.562 0.621582 410.326 0.621582 421.106 4.95951C430.622 8.78908 438.998 14.9946 445.433 22.9832Z" fill="black"/>
<path fill-rule="evenodd" clip-rule="evenodd" d="M464.867 627.566C438.094 650.46 384.655 666.073 323.101 666.073C247.551 666.073 184.229 642.553 167.426 610.921C161.419 629.05 160.072 649.798 160.072 663.052C160.072 663.052 156.114 728.134 201.38 773.401C201.38 749.896 220.435 730.842 243.939 730.842C284.226 730.842 284.181 765.99 284.144 794.506C284.143 795.36 284.142 796.209 284.142 797.051C284.142 840.333 310.595 877.436 348.215 893.075C342.596 881.518 339.444 868.54 339.444 854.825C339.444 813.545 363.679 798.175 391.845 780.311C414.255 766.098 439.155 750.307 456.315 718.629C465.268 702.101 470.352 683.17 470.352 663.052C470.352 650.68 468.43 638.757 464.867 627.566Z" fill="#FF5D01"/>
<path d="M999.148 593.833C1067.08 593.833 1118.03 569.665 1138.93 528.516C1138.93 548.111 1140.23 568.36 1143.5 584.036H1255.19C1249.97 561.173 1247.36 529.82 1247.36 488.671V388.081C1247.36 292.717 1191.18 247.648 1066.43 247.648C957.344 247.648 884.188 292.717 875.697 366.527H991.963C995.882 334.521 1022.66 316.885 1066.43 316.885C1109.53 316.885 1133.7 334.521 1133.7 371.1V380.896L1015.48 391.347C957.997 397.227 925.338 407.023 902.477 422.7C878.31 439.028 865.899 463.851 865.899 494.549C865.899 555.948 916.847 593.833 999.148 593.833ZM1042.26 525.902C1004.37 525.902 981.512 510.88 981.512 486.712C981.512 461.892 1000.45 448.827 1048.14 442.949L1135.66 433.805V453.4C1135.66 497.163 1097.78 525.902 1042.26 525.902Z" fill="black"/>
<path d="M1490.77 593.833C1604.43 593.833 1662.56 551.377 1662.56 482.793C1662.56 425.966 1629.9 394.613 1550.87 384.162L1452.23 373.059C1424.15 369.138 1412.39 361.953 1412.39 346.277C1412.39 327.336 1431.33 318.844 1474.44 318.844C1533.88 318.844 1575.03 332.561 1608.35 359.342L1661.25 306.434C1624.67 268.55 1561.32 247.648 1482.94 247.648C1372.55 247.648 1311.15 286.838 1311.15 352.809C1311.15 410.289 1349.03 442.295 1427.41 452.745L1516.25 463.196C1551.52 467.769 1561.97 474.302 1561.97 491.283C1561.97 510.88 1542.37 521.331 1496.65 521.331C1428.72 521.331 1383 503.041 1352.3 469.076L1292.21 518.717C1332.05 568.36 1399.98 593.833 1490.77 593.833Z" fill="black"/>
<path d="M1754.78 331.255V469.076C1754.78 550.07 1800.5 591.221 1898.48 591.221C1928.53 591.221 1952.04 587.955 1974.25 581.423V496.508C1962.49 499.122 1948.12 501.734 1929.18 501.734C1888.03 501.734 1867.78 483.446 1867.78 444.908V331.255H1974.9V257.445H1867.78V137.914L1754.78 179.717V257.445H1681.62V331.255H1754.78Z" fill="black"/>
<path d="M2137.13 257.445H2033.93V584.036H2146.93V461.892C2146.93 426.618 2154.77 394.613 2176.33 374.364C2193.31 358.687 2217.48 350.198 2251.44 350.198C2263.85 350.198 2273.65 351.502 2284.75 352.809V250.26C2277.57 248.954 2272.34 248.954 2263.2 248.954C2198.53 248.954 2154.77 286.185 2137.13 346.932V257.445Z" fill="black"/>
<path d="M2508.05 593.833C2627.59 593.833 2711.85 530.475 2711.85 420.088C2711.85 310.353 2627.59 247.648 2508.05 247.648C2387.87 247.648 2303.61 310.353 2303.61 420.088C2303.61 530.475 2387.87 593.833 2508.05 593.833ZM2508.05 518.717C2453.19 518.717 2418.57 483.446 2418.57 420.088C2418.57 356.728 2453.19 322.763 2508.05 322.763C2562.27 322.763 2596.89 356.728 2596.89 420.088C2596.89 483.446 2562.27 518.717 2508.05 518.717Z" fill="black"/>
</svg>
