<svg xmlns="http://www.w3.org/2000/svg" width="115" height="48" fill="none"><path fill="#17191E" d="M7.7651 36.3524c-1.3573-1.239-1.7536-3.8421-1.188-5.7279.9805 1.1889 2.339 1.5657 3.7464 1.7781 2.1725.3282 4.306.2055 6.3242-.786.2309-.1134.4442-.2646.6965-.4173.1894.5484.2387 1.1022.1725 1.6659-.1608 1.3728-.845 2.4333-1.9332 3.237-.4351.3216-.8956.609-1.345.9123-1.3807.9315-1.7542 2.0241-1.2354 3.6135.0123.0387.0233.0774.0512.1719-.7049-.315-1.2198-.7737-1.6122-1.3767-.4143-.6366-.6115-1.3407-.6219-2.1024-.0052-.3708-.0052-.7449-.0551-1.1103-.1219-.891-.5409-1.29-1.33-1.3131-.81-.0234-1.4508.4764-1.6207 1.2639-.013.0603-.0318.12-.0506.1902l.0013.0009Z"/><path fill="url(#a)" d="M7.7651 36.3524c-1.3573-1.239-1.7536-3.8421-1.188-5.7279.9805 1.1889 2.339 1.5657 3.7464 1.7781 2.1725.3282 4.306.2055 6.3242-.786.2309-.1134.4442-.2646.6965-.4173.1894.5484.2387 1.1022.1725 1.6659-.1608 1.3728-.845 2.4333-1.9332 3.237-.4351.3216-.8956.609-1.345.9123-1.3807.9315-1.7542 2.0241-1.2354 3.6135.0123.0387.0233.0774.0512.1719-.7049-.315-1.2198-.7737-1.6122-1.3767-.4143-.6366-.6115-1.3407-.6219-2.1024-.0052-.3708-.0052-.7449-.0551-1.1103-.1219-.891-.5409-1.29-1.33-1.3131-.81-.0234-1.4508.4764-1.6207 1.2639-.013.0603-.0318.12-.0506.1902l.0013.0009Z"/><path fill="#17191E" d="M.018 30.31s4.0193-1.9549 8.0498-1.9549l3.0389-9.3906c.1138-.4542.446-.7628.821-.7628.375 0 .7072.3086.821.7628l3.0388 9.3906c4.7735 0 8.0499 1.9549 8.0499 1.9549s-6.8272-18.5703-6.8405-18.6076c-.196-.549-.5267-.9026-.9727-.9026H7.8319c-.446 0-.7634.3536-.9727.9026C6.8444 11.739.018 30.31.018 30.31ZM42.3943 24.3365c0 1.6456-2.0499 2.6284-4.8883 2.6284-1.8474 0-2.5006-.4571-2.5006-1.417 0-1.0057.8109-1.4856 2.6581-1.4856 1.6672 0 3.0862.0228 4.7308.2285v.0457Zm.0226-2.0341c-1.0137-.2285-2.5457-.3656-4.3704-.3656-5.3164 0-7.8168 1.257-7.8168 4.1824 0 3.0398 1.712 4.2054 5.6767 4.2054 3.3567 0 5.6317-.8456 6.4654-2.9255h.1349c-.0225.5029-.0447 1.0057-.0447 1.3942 0 1.0742.1799 1.1656 1.0584 1.1656h4.145c-.2253-.6399-.3602-2.4455-.3602-3.9997 0-1.6684.0673-2.9254.0673-4.6167 0-3.4511-2.0722-5.6452-8.5601-5.6452-2.7933 0-5.902.4799-8.2672 1.1884.225.9371.5405 2.8341.6983 4.0683 2.0499-.96 4.9559-1.3713 7.2086-1.3713 3.1085 0 3.9648.7085 3.9648 2.1483v.5714ZM53.7899 25.297c-.563.0686-1.3292.0686-2.1176.0686-.8334 0-1.5993-.0228-2.1175-.0914 0 .1828-.0226.3885-.0226.5714 0 2.8569 1.87 4.5252 8.4478 4.5252 6.1946 0 8.1995-1.6455 8.1995-4.5481 0-2.7426-1.3288-4.0911-7.2083-4.3882-4.5732-.2057-4.9785-.7085-4.9785-1.2799 0-.6628.5856-1.0056 3.6493-1.0056 3.1763 0 4.0323.4342 4.0323 1.3485v.2056c.4507-.0228 1.2616-.0457 2.095-.0457.7884 0 1.6444.0229 2.1401.0686 0-.2057.0226-.3885.0226-.5485 0-3.3598-2.7936-4.4568-8.1999-4.4568-6.0823 0-8.1323 1.4856-8.1323 4.3882 0 2.6055 1.6447 4.2282 7.4791 4.4796 4.3025.1372 4.7757.6171 4.7757 1.2799 0 .7085-.6983 1.0285-3.7169 1.0285-3.4693 0-4.3478-.48-4.3478-1.4627v-.1372ZM73.6147 13.252c-1.6443 1.5313-4.5953 3.0626-6.2397 3.474.0225.8456.0225 2.3997.0225 3.2454l1.5092.0228c-.0225 1.6228-.0451 3.5883-.0451 4.8911 0 3.0397 1.5993 5.3252 6.5778 5.3252 2.095 0 3.4918-.2285 5.2263-.5942-.1803-1.1199-.3831-2.8341-.4507-4.1368-1.0359.3428-2.3426.5257-3.7844.5257-2.0049 0-2.8159-.5486-2.8159-2.1256 0-1.3713 0-2.6512.0226-3.8396 2.5682.0228 5.1362.0685 6.6453.1142-.0225-1.1884.0226-2.9026.0902-4.0453-2.1849.0457-4.6405.0685-6.6679.0685.0225-1.0056.045-1.9655.0676-2.9254h-.1578ZM87.0691 19.2859a767.325 767.325 0 0 1 .0676-3.1769h-4.5281c.0676 1.9656.0676 3.9768.0676 6.9251 0 2.9483-.0225 4.9825-.0676 6.9251h5.1813c-.0901-1.3713-.1127-3.6796-.1127-5.6452 0-3.1083 1.2616-3.9996 4.1225-3.9996 1.3292 0 2.2753.1599 3.1088.4571.0225-1.1657.2478-3.4283.3827-4.4339-.856-.2514-1.8021-.4114-2.951-.4114-2.4553-.0229-4.2574.9827-5.0908 3.3825l-.1803-.0228ZM109.624 22.9426c0 2.4913-1.802 3.6569-4.64 3.6569-2.816 0-4.618-1.0971-4.618-3.6569 0-2.5597 1.825-3.5197 4.618-3.5197 2.816 0 4.64 1.0285 4.64 3.5197Zm4.708-.1142c0-4.9596-3.874-7.1765-9.348-7.1765-5.4965 0-9.236 2.2169-9.236 7.1765 0 4.9367 3.4916 7.588 9.213 7.588 5.767 0 9.371-2.6513 9.371-7.588Z"/><defs><linearGradient id="a" x1="6.3277" x2="19.4266" y1="40.7999" y2="34.6018" gradientUnits="userSpaceOnUse"><stop stop-color="#D83333"/><stop offset="1" stop-color="#F041FF"/></linearGradient></defs></svg>
