<svg width="73" height="46" viewBox="0 0 73 46" fill="none" xmlns="http://www.w3.org/2000/svg">
<circle cx="29.5" cy="18.5" r="17.5" fill="#C4C4C4"/>
<circle cx="29.5" cy="18.5" r="17.5" fill="url(#paint0_linear_706_219)"/>
<g filter="url(#filter0_dddd_706_219)">
<circle cx="29.5" cy="18.5" r="18.5" fill="url(#paint1_linear_706_219)"/>
</g>
<path fill-rule="evenodd" clip-rule="evenodd" d="M32.6986 10.0057C32.8635 10.2045 32.9476 10.4729 33.1159 11.0094L36.7913 22.733C35.4107 22.0374 33.929 21.5503 32.3971 21.2885L30.0041 13.4362C29.985 13.3736 29.9456 13.3186 29.8916 13.2795C29.8377 13.2405 29.7722 13.2194 29.7049 13.2195C29.6377 13.2196 29.5722 13.2408 29.5184 13.28C29.4646 13.3193 29.4253 13.3743 29.4064 13.437L27.0423 21.2845C25.5036 21.5451 24.015 22.033 22.6284 22.7313L26.3218 11.0068C26.4907 10.471 26.575 10.2032 26.7399 10.0047C26.8856 9.82949 27.075 9.69337 27.2902 9.60938C27.5339 9.51428 27.8224 9.51428 28.3994 9.51428H31.0375C31.6152 9.51428 31.904 9.51428 32.148 9.60962C32.3634 9.69378 32.5529 9.83013 32.6986 10.0057Z" fill="white"/>
<path fill-rule="evenodd" clip-rule="evenodd" d="M32.8973 23.4193C32.3272 23.9301 31.1892 24.2784 29.8784 24.2784C28.2695 24.2784 26.921 23.7536 26.5633 23.048C26.4353 23.4525 26.4067 23.9153 26.4067 24.211C26.4067 24.211 26.3223 25.6629 27.2863 26.6728C27.2863 26.1484 27.692 25.7233 28.1926 25.7233C29.0505 25.7233 29.0495 26.5075 29.0487 27.1436V27.2004C29.0487 28.166 29.6121 28.9937 30.4132 29.3426C30.2899 29.0767 30.226 28.7849 30.2264 28.4893C30.2264 27.5683 30.7425 27.2254 31.3423 26.827C31.8196 26.5099 32.3498 26.1576 32.7152 25.4508C32.912 25.0701 33.0148 24.6439 33.0141 24.211C33.0141 23.935 32.9732 23.669 32.8973 23.4193Z" fill="white"/>
<path fill-rule="evenodd" clip-rule="evenodd" d="M32.8973 23.4193C32.3272 23.9301 31.1892 24.2784 29.8784 24.2784C28.2695 24.2784 26.921 23.7536 26.5633 23.048C26.4353 23.4525 26.4067 23.9153 26.4067 24.211C26.4067 24.211 26.3223 25.6629 27.2863 26.6728C27.2863 26.1484 27.692 25.7233 28.1926 25.7233C29.0505 25.7233 29.0495 26.5075 29.0487 27.1436V27.2004C29.0487 28.166 29.6121 28.9937 30.4132 29.3426C30.2899 29.0767 30.226 28.7849 30.2264 28.4893C30.2264 27.5683 30.7425 27.2254 31.3423 26.827C31.8196 26.5099 32.3498 26.1576 32.7152 25.4508C32.912 25.0701 33.0148 24.6439 33.0141 24.211C33.0141 23.935 32.9732 23.669 32.8973 23.4193Z" fill="url(#paint2_linear_706_219)"/>
<defs>
<filter id="filter0_dddd_706_219" x="-13.8429" y="0" width="86.6857" height="88.8" filterUnits="userSpaceOnUse" color-interpolation-filters="sRGB">
<feFlood flood-opacity="0" result="BackgroundImageFix"/>
<feColorMatrix in="SourceAlpha" type="matrix" values="0 0 0 0 0 0 0 0 0 0 0 0 0 0 0 0 0 0 127 0" result="hardAlpha"/>
<feOffset dy="1.22083"/>
<feGaussianBlur stdDeviation="0.562542"/>
<feColorMatrix type="matrix" values="0 0 0 0 0.192157 0 0 0 0 0.0745098 0 0 0 0 0.227451 0 0 0 0.0418093 0"/>
<feBlend mode="normal" in2="BackgroundImageFix" result="effect1_dropShadow_706_219"/>
<feColorMatrix in="SourceAlpha" type="matrix" values="0 0 0 0 0 0 0 0 0 0 0 0 0 0 0 0 0 0 127 0" result="hardAlpha"/>
<feOffset dy="3.37545"/>
<feGaussianBlur stdDeviation="1.55536"/>
<feColorMatrix type="matrix" values="0 0 0 0 0.192157 0 0 0 0 0.0745098 0 0 0 0 0.227451 0 0 0 0.06 0"/>
<feBlend mode="normal" in2="effect1_dropShadow_706_219" result="effect2_dropShadow_706_219"/>
<feColorMatrix in="SourceAlpha" type="matrix" values="0 0 0 0 0 0 0 0 0 0 0 0 0 0 0 0 0 0 127 0" result="hardAlpha"/>
<feOffset dy="8.12679"/>
<feGaussianBlur stdDeviation="3.7447"/>
<feColorMatrix type="matrix" values="0 0 0 0 0.192157 0 0 0 0 0.0745098 0 0 0 0 0.227451 0 0 0 0.0781907 0"/>
<feBlend mode="normal" in2="effect2_dropShadow_706_219" result="effect3_dropShadow_706_219"/>
<feColorMatrix in="SourceAlpha" type="matrix" values="0 0 0 0 0 0 0 0 0 0 0 0 0 0 0 0 0 0 127 0" result="hardAlpha"/>
<feOffset dy="26.9571"/>
<feGaussianBlur stdDeviation="12.4214"/>
<feColorMatrix type="matrix" values="0 0 0 0 0.192157 0 0 0 0 0.0745098 0 0 0 0 0.227451 0 0 0 0.12 0"/>
<feBlend mode="normal" in2="effect3_dropShadow_706_219" result="effect4_dropShadow_706_219"/>
<feBlend mode="normal" in="SourceGraphic" in2="effect4_dropShadow_706_219" result="shape"/>
</filter>
<linearGradient id="paint0_linear_706_219" x1="29.5" y1="1" x2="29.5" y2="36" gradientUnits="userSpaceOnUse">
<stop stop-color="#FA8C5D"/>
<stop offset="1" stop-color="#CC2727"/>
</linearGradient>
<linearGradient id="paint1_linear_706_219" x1="29.5" y1="-4.36615e-09" x2="29.3535" y2="42.5428" gradientUnits="userSpaceOnUse">
<stop stop-color="#205EFF"/>
<stop offset="1" stop-color="#C238BD"/>
</linearGradient>
<linearGradient id="paint2_linear_706_219" x1="29.7095" y1="23.048" x2="29.7095" y2="29.3426" gradientUnits="userSpaceOnUse">
<stop stop-color="#FFCD83"/>
<stop offset="1" stop-color="#EC672C"/>
</linearGradient>
</defs>
</svg>
