<svg width="198" height="156" viewBox="0 0 198 156" fill="none" xmlns="http://www.w3.org/2000/svg">
<path fill-rule="evenodd" clip-rule="evenodd" d="M7.75293 0.613281C3.6836 0.613281 0.384766 3.91212 0.384766 7.98145V148.468C0.384766 152.537 3.68361 155.836 7.75294 155.836H190.483C194.553 155.836 197.852 152.537 197.852 148.468V7.98145C197.852 3.91212 194.553 0.613281 190.483 0.613281H7.75293ZM72.661 19.2793H63.1662V21.6528H58.4188V24.027H53.6714V28.7747H51.2975V33.5212H46.5504V38.2688H44.1766V47.7636H46.5504V52.5108H51.2975V57.2591H53.6714V62.0062H58.4188V64.3794H63.1662V66.7533H72.661V64.3794H77.4084V62.0062H82.1558V57.2591H84.5293V52.5108H89.2771V47.7636H91.6506V38.2688H89.2771V33.5212H84.5293V28.7747H82.1558V24.027H77.4084V21.6528H72.661V19.2793ZM45.09 128.835H38.6992V137.964H166.514V129.748H162.862V121.531H159.21V114.227H154.645V107.837H150.081V98.7069H146.429V91.4032H141.864V81.3606H137.299V74.9699H133.647V69.4921H129.995V63.1014H124.518V69.4921H120.866V74.9699H117.214V81.3606H113.562V91.4032H109.91V98.7069H105.345V107.837H99.8676V114.227H90.738V107.837H85.2603V101.446H77.9566V95.055H67.001V101.446H62.4362V107.837H56.9585V114.227H51.4807V120.618H45.09V128.835Z" fill="url(#paint0_linear_438_862)"/>
<defs>
<linearGradient id="paint0_linear_438_862" x1="70.4264" y1="0.613281" x2="70.4264" y2="155.836" gradientUnits="userSpaceOnUse">
<stop stop-color="#FFB4B4"/>
<stop offset="1" stop-color="#C487F0"/>
</linearGradient>
</defs>
</svg>
