<svg width="86" height="22" viewBox="0 0 86 22" fill="none" xmlns="http://www.w3.org/2000/svg">
    <path d="M6.82891 21.6856C9.9424 21.6856 12.2775 20.5779 13.2355 18.6919C13.2355 19.59 13.2954 20.5181 13.4451 21.2366H18.5644C18.3249 20.1887 18.2051 18.7517 18.2051 16.8657V12.2553C18.2051 7.88447 15.6305 5.81879 9.91246 5.81879C4.91292 5.81879 1.55993 7.88447 1.17074 11.2674H6.4996C6.67922 9.80047 7.90666 8.99216 9.91246 8.99216C11.8883 8.99216 12.996 9.80046 12.996 11.477V11.926L7.57734 12.405C4.94285 12.6745 3.44598 13.1235 2.39817 13.842C1.29049 14.5904 0.72168 15.7281 0.72168 17.1351C0.72168 19.9492 3.0568 21.6856 6.82891 21.6856ZM8.80478 18.5721C7.06841 18.5721 6.0206 17.8836 6.0206 16.7759C6.0206 15.6383 6.88879 15.0395 9.07422 14.7701L13.0858 14.351V15.2491C13.0858 17.2549 11.3495 18.5721 8.80478 18.5721Z" fill="currentColor"/>
    <path d="M29.3617 21.6856C34.5708 21.6856 37.2353 19.7397 37.2353 16.5963C37.2353 13.9917 35.7384 12.5547 32.116 12.0757L27.5954 11.5668C26.3081 11.3871 25.7692 11.0578 25.7692 10.3393C25.7692 9.47115 26.6374 9.08197 28.6133 9.08197C31.3376 9.08197 33.2236 9.71065 34.7505 10.9381L37.1754 8.51316C35.4989 6.77679 32.595 5.81879 29.0025 5.81879C23.943 5.81879 21.1289 7.61503 21.1289 10.6387C21.1289 13.2732 22.8653 14.7401 26.4578 15.2191L30.5293 15.6981C32.1459 15.9077 32.6249 16.2071 32.6249 16.9854C32.6249 17.8836 31.7268 18.3626 29.6312 18.3626C26.5177 18.3626 24.422 17.5243 23.015 15.9676L20.2607 18.2428C22.0869 20.5181 25.2004 21.6856 29.3617 21.6856Z" fill="currentColor"/>
    <path d="M41.462 9.65078V15.9676C41.462 19.6798 43.5577 21.5659 48.0483 21.5659C49.4254 21.5659 50.5031 21.4162 51.521 21.1168V17.2249C50.9821 17.3447 50.3235 17.4644 49.4553 17.4644C47.5693 17.4644 46.6412 16.6262 46.6412 14.8599V9.65078H51.5509V6.26785H46.6412V0.789307L41.462 2.7053V6.26785H38.1091V9.65078H41.462Z" fill="currentColor"/>
    <path d="M58.9866 6.26785H54.2565V21.2366H59.4357V15.6383C59.4357 14.0216 59.795 12.5547 60.7829 11.6266C61.5613 10.9081 62.669 10.519 64.2257 10.519C64.7945 10.519 65.2436 10.5788 65.7525 10.6387V5.93854C65.4232 5.87867 65.1837 5.87866 64.7646 5.87866C61.8008 5.87866 59.795 7.5851 58.9866 10.3693V6.26785Z" fill="currentColor"/>
    <path d="M75.9871 21.6856C81.4657 21.6856 85.3276 18.7817 85.3276 13.7223C85.3276 8.69278 81.4657 5.81879 75.9871 5.81879C70.4786 5.81879 66.6167 8.69278 66.6167 13.7223C66.6167 18.7817 70.4786 21.6856 75.9871 21.6856ZM75.9871 18.2428C73.4724 18.2428 71.8857 16.6262 71.8857 13.7223C71.8857 10.8183 73.4724 9.26159 75.9871 9.26159C78.4719 9.26159 80.0586 10.8183 80.0586 13.7223C80.0586 16.6262 78.4719 18.2428 75.9871 18.2428Z" fill="currentColor"/>
</svg>
