<?xml version="1.0" encoding="utf-8"?>
<!-- Generator: Adobe Illustrator 21.0.2, SVG Export Plug-In . SVG Version: 6.00 Build 0)  -->
<svg version="1.1" id="Layer_1" xmlns="http://www.w3.org/2000/svg" xmlns:xlink="http://www.w3.org/1999/xlink" x="0px" y="0px"
	 viewBox="0 0 642 150" style="enable-background:new 0 0 642 150;" xml:space="preserve">
<style type="text/css">
	.st0{fill:#616161;}
	.st1{fill:#F57C00;}
</style>
<g>
	<polygon class="st0" points="51.1,113 43.2,110.6 42.8,15 24.6,23.7 23.6,105 17.1,103 16.6,27.5 1,35 1,115 72.7,149.5 72.7,0.5 
		51.9,10.5 	"/>
	<g>
		<path class="st1" d="M81.7,3.3v66.8l92.5,1.6V31.8L81.7,3.3z M102.4,36.3l56.7,10.9v6.4l-56.7-7V36.3z"/>
		<path class="st1" d="M81.7,79.9v66.9l92.5-28.6V78.3L81.7,79.9z M102.4,102.9l56.7-6.6v6.4l-56.7,10.5V102.9z"/>
	</g>
	<g>
		<path class="st0" d="M362.1,58.9c-2.7-2.6-7.1-3.9-13.3-3.9H333c-6.2,0-10.6,1.3-13.2,3.9c-2.7,2.6-4,6.3-4,11.2v30.5
			c0,4.9,1.3,8.6,4,11.2c2.7,2.6,7.1,3.9,13.2,3.9h15.9c6.2,0,10.6-1.3,13.3-3.9c2.7-2.6,4-6.3,4-11.2V70.1
			C366.1,65.2,364.8,61.5,362.1,58.9z M345.8,98.6c0,1.8-1,2.7-3,2.7H339c-2,0-3-0.9-3-2.7V72c0-1.8,1-2.7,3-2.7h3.7
			c2,0,3,0.9,3,2.7V98.6z"/>
		<path class="st0" d="M408.7,54.4h1.8v18h-6.9c-5.1,0-7.7,2.8-7.7,8.3v35h-20.7V55h20.3v9.4c0.7-3.1,2.1-5.5,4.4-7.3
			C402.2,55.3,405.2,54.4,408.7,54.4z"/>
		<path class="st0" d="M437.4,115.7h-20.7V34.3h20.7v48.3L448.8,55h21.4l-13,29.9l13,30.8h-21.5l-11.3-28.3V115.7z"/>
		<path class="st0" d="M506.5,55h3.3c10.8,0,16.2,5,16.2,15.1v30.5c0,10-5.4,15.1-16.2,15.1h-3.3c-6.2,0-9.9-2.6-11.1-7.8v7.8h-20.3
			V34.3h20.7v27.2C497.4,57.2,500.9,55,506.5,55z M505.3,97.8V72.9c0-1.8-1-2.7-3-2.7h-3.1c-2.2,0-3.3,1.2-3.3,3.7v23
			c0,2.4,1.1,3.7,3.3,3.7h3.1C504.3,100.5,505.3,99.6,505.3,97.8z"/>
		<path class="st0" d="M551.8,55h15.8c6.2,0,10.6,1.3,13.3,3.9c2.7,2.6,4,6.3,4,11.2v30.5c0,4.9-1.3,8.6-4,11.2
			c-2.7,2.6-7.1,3.9-13.3,3.9h-15.8c-6.2,0-10.6-1.3-13.2-3.9c-2.7-2.6-4-6.3-4-11.2V70.1c0-4.9,1.3-8.6,4-11.2
			C541.3,56.3,545.7,55,551.8,55z M564.6,98.6V72c0-1.8-1-2.7-3-2.7h-3.6c-2,0-3,0.9-3,2.7v26.6c0,1.8,1,2.7,3,2.7h3.6
			C563.6,101.3,564.6,100.4,564.6,98.6z"/>
		<path class="st0" d="M625.9,84.3l15.1,31.4h-20.9l-6.6-18l-6,18h-20.2l13.9-31L586.7,55h21.6l5.2,16.9l5.2-16.9h20.5L625.9,84.3z"
			/>
		<path class="st0" d="M306,100.6v-63h-20.7v60.2c0,1.8-1,2.7-3,2.7H278c-2,0-3-0.9-3-2.7V37.6h-20.1v60.2c0,1.8-1,2.7-3,2.7h-4.3
			c-2,0-3-0.9-3-2.7V37.6h-20.7v63c0,4.9,1.3,8.6,4,11.2c2.7,2.6,7.1,3.9,13.3,3.9h3.4h9.2c4.2,0,8.3-1.4,11.2-4.6
			c2.9,3.2,7,4.6,11.2,4.6h9.2h3.4c6.2,0,10.6-1.3,13.3-3.9C304.7,109.2,306,105.5,306,100.6z"/>
	</g>
</g>
</svg>
